<?xml version="1.0" encoding="utf-8"?>
<!-- Generator: Adobe Illustrator 16.0.0, SVG Export Plug-In . SVG Version: 6.00 Build 0)  -->
<!DOCTYPE svg PUBLIC "-//W3C//DTD SVG 1.1//EN" "http://www.w3.org/Graphics/SVG/1.1/DTD/svg11.dtd">
<svg version="1.1" id="Layer_1" xmlns="http://www.w3.org/2000/svg" xmlns:xlink="http://www.w3.org/1999/xlink" x="0px" y="0px"
	 width="47px" height="47px" viewBox="0 0 47 47" enable-background="new 0 0 47 47" xml:space="preserve">
<circle fill="#FCFDFF" cx="23.5" cy="23.5" r="23.5"/>
<g>
	<g>
		<g>
			<g>
				<path fill="#339D9E" d="M23.5,7.92c-4.029,0-7.309,3.278-7.309,7.309s3.28,7.309,7.309,7.309c4.031,0,7.309-3.278,7.309-7.309
					S27.531,7.92,23.5,7.92z"/>
			</g>
		</g>
		<g>
			<g>
				<path fill="#339D9E" d="M32.594,27.312c-2.001-2.031-4.653-3.151-7.47-3.151h-3.248c-2.815,0-5.468,1.12-7.469,3.151
					c-1.992,2.021-3.087,4.691-3.087,7.515c0,0.449,0.363,0.813,0.813,0.813h22.737c0.448,0,0.812-0.363,0.812-0.813
					C35.681,32.003,34.585,29.333,32.594,27.312z"/>
			</g>
		</g>
	</g>
</g>
</svg>
