<svg width="46" height="45" viewBox="0 0 46 45" fill="none" xmlns="http://www.w3.org/2000/svg">
<circle cx="22.5156" cy="22.5" r="22.5" fill="#2F80ED"/>
<path fill-rule="evenodd" clip-rule="evenodd" d="M24.5928 21.7235H27.3952C27.8201 21.7235 28.1539 21.3722 28.1539 20.9486C28.1539 20.5146 27.8201 20.1736 27.3952 20.1736H24.5928C24.1678 20.1736 23.834 20.5146 23.834 20.9486C23.834 21.3722 24.1678 21.7235 24.5928 21.7235ZM30.7239 16.3515C31.341 16.3515 31.7457 16.5685 32.1504 17.0438C32.5551 17.5191 32.6259 18.2011 32.5348 18.82L31.5737 25.5981C31.3916 26.9011 30.299 27.8609 29.0141 27.8609H17.9765C16.6309 27.8609 15.518 26.8081 15.4067 25.4442L14.476 14.1807L12.9483 13.912C12.5436 13.8397 12.2604 13.4367 12.3312 13.0234C12.402 12.6008 12.7966 12.3208 13.2114 12.3838L15.6243 12.7548C15.9682 12.8178 16.2212 13.1061 16.2515 13.4574L16.4437 15.7719C16.4741 16.1036 16.7371 16.3515 17.0609 16.3515H30.7239ZM17.8143 29.4942C16.9644 29.4942 16.2765 30.1968 16.2765 31.0647C16.2765 31.9223 16.9644 32.6249 17.8143 32.6249C18.654 32.6249 19.3419 31.9223 19.3419 31.0647C19.3419 30.1968 18.654 29.4942 17.8143 29.4942ZM29.1958 29.4942C28.346 29.4942 27.6581 30.1968 27.6581 31.0647C27.6581 31.9223 28.346 32.6249 29.1958 32.6249C30.0355 32.6249 30.7235 31.9223 30.7235 31.0647C30.7235 30.1968 30.0355 29.4942 29.1958 29.4942Z" fill="white"/>
</svg>
