<?xml version="1.0" encoding="utf-8"?>
<!-- Generator: Adobe Illustrator 24.0.0, SVG Export Plug-In . SVG Version: 6.00 Build 0)  -->
<svg version="1.1" id="Layer_1" xmlns="http://www.w3.org/2000/svg" xmlns:xlink="http://www.w3.org/1999/xlink" x="0px" y="0px"
	 viewBox="0 0 50 50" style="enable-background:new 0 0 50 50;" xml:space="preserve">
<style type="text/css">
	.st0{fill:#0966BA;}
</style>
<g>
	<g>
		<path class="st0" d="M46.2,3.8C44.4,2,42,1,39.4,1c-2.6,0-5,1-6.8,2.8L5.8,30.7c-0.2,0.2-0.4,0.5-0.5,0.8L1.1,46.6
			c-0.2,0.7,0,1.4,0.5,1.8C1.9,48.8,2.4,49,2.9,49c0.2,0,0.3,0,0.5-0.1l15.1-4.3c0.6-0.2,1.1-0.7,1.3-1.3c0.2-0.6,0-1.3-0.5-1.8
			l-9.5-9.6L32,9.7l8.3,8.3l-17,17c-0.7,0.7-0.7,1.9,0,2.7c0.7,0.7,1.9,0.7,2.7,0l20.2-20.2c1.8-1.8,2.8-4.2,2.8-6.8
			S48,5.6,46.2,3.8z M14.4,41.9l-8.9,2.5l2.5-8.9L14.4,41.9z M43.5,14.7L43,15.3L34.7,7l0.6-0.6c1.1-1.1,2.6-1.7,4.1-1.7
			c1.6,0,3,0.6,4.1,1.7c1.1,1.1,1.7,2.6,1.7,4.1S44.6,13.6,43.5,14.7z"/>
	</g>
</g>
</svg>
