<?xml version="1.0" encoding="utf-8"?>
<!-- Generator: Adobe Illustrator 24.0.0, SVG Export Plug-In . SVG Version: 6.00 Build 0)  -->
<svg version="1.1" id="Layer_1" xmlns="http://www.w3.org/2000/svg" xmlns:xlink="http://www.w3.org/1999/xlink" x="0px" y="0px"
	 viewBox="0 0 200 60" style="enable-background:new 0 0 200 60;" xml:space="preserve">
<style type="text/css">
	.st0{fill:#FFFFFF;}
</style>
<path class="st0" d="M10,0h180c5.5,0,10,4.5,10,10v40c0,5.5-4.5,10-10,10H10C4.5,60,0,55.5,0,50V10C0,4.5,4.5,0,10,0z"/>
<path d="M40.9,45c-4.5,0-8.2-9.1-8.2-13.8c0-7.6,5.7-9.2,7.9-9.2c1,0,2,0.4,3,0.7c0.7,0.2,1.3,0.5,1.7,0.5c0.2,0,0.8-0.2,1.2-0.4
	c1-0.4,2.2-0.9,3.7-0.9c0,0,0,0,0,0c1.1,0,4.3,0.2,6.3,3.2l0.5,0.7l-0.7,0.5c-0.9,0.7-2.7,2-2.7,4.6c0,3,2,4.2,2.9,4.8
	c0.4,0.2,0.8,0.5,0.8,1.1c0,0.4-2.9,8.2-7.2,8.2c-1,0-1.8-0.3-2.4-0.6c-0.7-0.3-1.2-0.5-2.2-0.5c-0.5,0-1.1,0.2-1.7,0.5
	C43,44.6,42,45,40.9,45L40.9,45z"/>
<path d="M50.6,15c0.1,4-2.7,6.8-5.6,6.6C44.5,18.4,47.8,15,50.6,15z"/>
<path d="M76.5,17.1h-2.7V24h2.7c2,0,3.5-1.5,3.5-3.5S78.5,17.1,76.5,17.1z M76.5,23.1h-1.7V18h1.7c1.5,0,2.6,1.1,2.6,2.6
	C79,22,77.9,23.1,76.5,23.1z M83.6,24.1c1.5,0,2.7-1.2,2.7-2.7c0-1.5-1.2-2.7-2.7-2.7c-1.5,0-2.7,1.1-2.7,2.7
	C80.9,23,82,24.1,83.6,24.1z M83.6,23.3c-1,0-1.8-0.8-1.8-1.8c0-1.1,0.8-1.8,1.8-1.8c1,0,1.8,0.8,1.8,1.8
	C85.4,22.5,84.6,23.3,83.6,23.3z M94.3,18.9L92.8,23l-1.5-4.1h-0.9L89,23l-1.4-4.1h-1l1.9,5.1h0.9l1.5-4.1l1.5,4.1h0.9l1.9-5.1H94.3
	z M98.9,18.8c-0.8,0-1.4,0.3-1.8,0.9v-0.8h-0.9V24H97v-2.9c0-0.9,0.6-1.5,1.6-1.5c0.9,0,1.5,0.6,1.5,1.5V24h0.9v-3.1
	C100.9,19.6,100.1,18.8,98.9,18.8z M102.3,24h0.9v-7.2h-0.9V24z M107,24.1c1.5,0,2.7-1.2,2.7-2.7c0-1.5-1.2-2.7-2.7-2.7
	c-1.5,0-2.7,1.1-2.7,2.7C104.3,23,105.5,24.1,107,24.1z M107,23.3c-1,0-1.8-0.8-1.8-1.8c0-1.1,0.8-1.8,1.8-1.8c1,0,1.8,0.8,1.8,1.8
	C108.8,22.5,108.1,23.3,107,23.3z M115.1,18.9v1c-0.4-0.7-1.1-1.1-2-1.1c-1.5,0-2.5,1.1-2.5,2.7c0,1.5,1.1,2.7,2.5,2.7
	c0.8,0,1.6-0.4,2-1.1v1h0.9v-5.1H115.1z M113.3,23.3c-1.1,0-1.8-0.8-1.8-1.8c0-1.1,0.8-1.8,1.8-1.8c1,0,1.8,0.8,1.8,1.8
	C115.1,22.5,114.3,23.3,113.3,23.3z M121.6,16.8v3.1c-0.4-0.7-1.1-1.1-2-1.1c-1.5,0-2.5,1.1-2.5,2.7c0,1.5,1.1,2.7,2.5,2.7
	c0.8,0,1.6-0.4,2-1.1v1h0.9v-7.2H121.6z M119.8,23.3c-1.1,0-1.8-0.8-1.8-1.8c0-1.1,0.8-1.8,1.8-1.8c1,0,1.8,0.8,1.8,1.8
	C121.6,22.5,120.8,23.3,119.8,23.3z M128.8,24.1c1.5,0,2.7-1.2,2.7-2.7c0-1.5-1.2-2.7-2.7-2.7c-1.6,0-2.7,1.1-2.7,2.7
	C126.1,23,127.3,24.1,128.8,24.1z M128.8,23.3c-1.1,0-1.8-0.8-1.8-1.8c0-1.1,0.8-1.8,1.8-1.8c1,0,1.8,0.8,1.8,1.8
	C130.6,22.5,129.8,23.3,128.8,23.3z M135.3,18.8c-0.8,0-1.4,0.3-1.8,0.9v-0.8h-0.9V24h0.9v-2.9c0-0.9,0.6-1.5,1.6-1.5
	c0.9,0,1.5,0.6,1.5,1.5V24h0.9v-3.1C137.4,19.6,136.6,18.8,135.3,18.8z M144,18.9h-1.2v-1.5l-0.9,0.2v1.3h-1.1v0.8h1.1V24h0.9v-4.3
	h1.2V18.9z M147.7,18.8c-0.8,0-1.4,0.3-1.8,1v-3H145V24h0.9v-2.9c0-0.9,0.6-1.5,1.6-1.5c0.9,0,1.5,0.6,1.5,1.5V24h0.9v-3.1
	C149.8,19.6,149,18.8,147.7,18.8z M156.3,21.5c0-1.5-1.2-2.7-2.7-2.7c-1.5,0-2.7,1.1-2.7,2.7c0,1.5,1.2,2.7,2.7,2.7
	c1.3,0,2.2-0.7,2.6-1.8h-1c-0.3,0.6-0.9,1-1.7,1c-0.9,0-1.6-0.6-1.8-1.5h4.5C156.3,21.7,156.3,21.5,156.3,21.5z M153.6,19.6
	c0.9,0,1.6,0.6,1.8,1.5h-3.6C152,20.2,152.7,19.6,153.6,19.6z"/>
<path d="M84.4,42H87l-5.4-13.8h-2.8L73.3,42h2.6l1.1-2.9h6.3L84.4,42z M77.8,36.9l2.3-6.1l2.3,6.1H77.8z M94.5,31.6
	c-1.5,0-2.8,0.7-3.6,1.8v-1.6h-2.2v14h2.2v-5.4c0.8,1.1,2.1,1.8,3.6,1.8c2.9,0,5-2.3,5-5.3C99.5,33.9,97.3,31.6,94.5,31.6z M94,40.1
	c-1.8,0-3.2-1.4-3.2-3.2c0-1.8,1.4-3.2,3.2-3.2c1.8,0,3.1,1.4,3.1,3.2C97.2,38.7,95.8,40.1,94,40.1z M107.4,31.6
	c-1.5,0-2.8,0.7-3.6,1.8v-1.6h-2.2v14h2.2v-5.4c0.8,1.1,2.1,1.8,3.6,1.8c2.9,0,5-2.3,5-5.3C112.4,33.9,110.2,31.6,107.4,31.6z
	 M106.9,40.1c-1.8,0-3.2-1.4-3.2-3.2c0-1.8,1.4-3.2,3.2-3.2c1.8,0,3.1,1.4,3.1,3.2C110.1,38.7,108.7,40.1,106.9,40.1z M123.3,42.2
	c2.6,0,4.6-1.8,4.6-4.1c0-2.5-1.8-3.6-4.1-4.2c-1.6-0.4-2.6-1.1-2.6-2.1c0-1,0.9-1.7,2-1.7c1.2,0,2,0.8,2,1.9h2.4
	c0-2.3-1.9-4.1-4.5-4.1c-2.5,0-4.4,1.7-4.4,3.9c0,2.4,1.7,3.6,3.9,4.2c1.6,0.4,2.8,1.1,2.8,2.2c0,1-0.9,1.8-2.2,1.8
	c-1.3,0-2.3-0.9-2.3-2.1h-2.4C118.6,40.4,120.6,42.2,123.3,42.2z M135.7,31.8h-2.2v-3l-2.2,0.5v2.5h-2.1v2h2.1V42h2.2v-8.2h2.2V31.8
	z M141.8,42.2c3.1,0,5.5-2.3,5.5-5.3c0-3-2.4-5.3-5.5-5.3c-3.1,0-5.5,2.3-5.5,5.3C136.4,39.9,138.7,42.2,141.8,42.2z M141.8,40.1
	c-1.8,0-3.2-1.4-3.2-3.2c0-1.8,1.4-3.2,3.2-3.2c1.8,0,3.1,1.4,3.1,3.2C145,38.7,143.6,40.1,141.8,40.1z M151.5,33.5v-1.7h-2.2V42
	h2.2v-5c0-1.9,1.2-3.1,3.1-3.1v-2.3C153.4,31.6,152.3,32.3,151.5,33.5z M166.3,36.9c0-3.1-2.3-5.4-5.5-5.4c-3.1,0-5.4,2.3-5.4,5.3
	c0,3,2.3,5.3,5.4,5.3c2.5,0,4.5-1.4,5.3-3.5h-2.4c-0.4,0.9-1.5,1.5-2.8,1.5c-1.5,0-2.7-1-3.1-2.5h8.4
	C166.3,37.5,166.3,37.1,166.3,36.9z M160.8,33.6c1.5,0,2.7,0.9,3,2.3h-6.1C158.2,34.5,159.4,33.6,160.8,33.6z"/>
</svg>
