<?xml version="1.0" encoding="utf-8"?>
<!-- Generator: Adobe Illustrator 16.0.0, SVG Export Plug-In . SVG Version: 6.00 Build 0)  -->
<!DOCTYPE svg PUBLIC "-//W3C//DTD SVG 1.1//EN" "http://www.w3.org/Graphics/SVG/1.1/DTD/svg11.dtd">
<svg version="1.1" id="Capa_1" xmlns="http://www.w3.org/2000/svg" xmlns:xlink="http://www.w3.org/1999/xlink" x="0px" y="0px"
	 width="80px" height="80px" viewBox="0 0 80 80" enable-background="new 0 0 80 80" xml:space="preserve">
<g>
	<path fill="#FFFFFF" d="M23.986,34.782l-0.003,0.05c-0.194,3.391,1.706,6.566,4.84,8.09l0.032,0.018
		c1.105,0.526,2.011,1.398,2.583,2.482l0.013,0.023c1.579,3.008,4.846,4.83,8.329,4.646l0.053-0.003
		c1.263-0.069,2.517,0.255,3.583,0.933c2.95,1.845,6.693,1.845,9.643,0c1.068-0.678,2.321-1.002,3.586-0.933l0.051,0.003
		c3.479,0.186,6.748-1.64,8.332-4.652l0.008-0.017c0.574-1.086,1.482-1.959,2.591-2.487l0.024-0.015
		c3.136-1.522,5.035-4.7,4.843-8.091l-0.003-0.047c-0.064-1.195,0.267-2.377,0.943-3.363c1.948-2.843,1.948-6.592,0-9.436
		c-0.677-0.986-1.009-2.167-0.943-3.362l0.003-0.05c0.192-3.391-1.707-6.568-4.845-8.092l-0.029-0.014
		c-1.102-0.527-2.005-1.395-2.579-2.476l-0.017-0.03c-1.58-3.007-4.852-4.83-8.328-4.648l-0.053,0.003
		c-1.264,0.071-2.517-0.254-3.584-0.932h-0.002c-2.949-1.844-6.691-1.844-9.642,0c-1.067,0.677-2.321,1.002-3.584,0.932
		l-0.053-0.003C36.3,3.128,33.03,4.953,31.451,7.959L31.439,7.98c-0.572,1.086-1.479,1.958-2.585,2.488l-0.03,0.014
		c-3.134,1.523-5.035,4.7-4.84,8.091l0.003,0.047c0.064,1.195-0.268,2.377-0.944,3.363c-1.95,2.844-1.95,6.592,0,9.436
		C23.718,32.405,24.051,33.588,23.986,34.782z M25.451,23.645c1.045-1.521,1.557-3.346,1.458-5.189l-0.003-0.05
		c-0.103-2.247,1.159-4.335,3.196-5.29l0.024-0.011c1.67-0.8,3.039-2.117,3.902-3.756l0.014-0.026c1.049-2,3.248-3.211,5.582-3.087
		l0.052,0.003c1.866,0.104,3.721-0.377,5.303-1.378c1.994-1.248,4.525-1.248,6.521,0c1.58,1,3.435,1.482,5.301,1.379l0.05-0.004
		c2.348-0.122,4.535,1.088,5.582,3.081l0.02,0.037c0.861,1.637,2.229,2.952,3.896,3.751l0.025,0.012
		c2.068,1.005,3.325,3.082,3.199,5.292l-0.004,0.052c-0.102,1.844,0.412,3.667,1.457,5.188c1.263,1.842,1.263,4.271-0.002,6.112
		c-1.043,1.522-1.557,3.347-1.455,5.19l0.004,0.05c0.126,2.209-1.131,4.287-3.201,5.293l-0.021,0.01
		c-1.673,0.803-3.041,2.121-3.904,3.762l-0.01,0.021c-1.052,1.999-3.246,3.211-5.584,3.086l-0.051-0.003
		c-1.869-0.104-3.723,0.378-5.305,1.378c-1.993,1.247-4.523,1.247-6.52,0c-1.438-0.91-3.104-1.395-4.807-1.393
		c-0.165,0-0.331,0.005-0.496,0.015l-0.052,0.001c-2.304,0.146-4.483-1.059-5.584-3.089l-0.016-0.026
		c-0.861-1.637-2.227-2.949-3.895-3.75L30.1,40.292c-2.069-1.005-3.325-3.083-3.198-5.292l0.003-0.052
		c0.099-1.843-0.414-3.667-1.458-5.188c-1.263-1.842-1.262-4.272,0.002-6.112v-0.003H25.451z"/>
	<path fill="#FFFFFF" d="M38.798,41.828c0.685,0.427,1.587,0.218,2.015-0.467l17.33-27.765c0.282-0.443,0.308-1.005,0.062-1.469
		c-0.246-0.466-0.724-0.763-1.25-0.78c-0.524-0.016-1.021,0.25-1.293,0.699l-17.33,27.765
		C37.904,40.497,38.112,41.398,38.798,41.828z"/>
	<path fill="#FFFFFF" d="M40.351,26.775c3.563,0,6.459-3.306,6.459-7.368c0-4.063-2.896-7.367-6.459-7.367s-6.461,3.305-6.461,7.367
		C33.89,23.47,36.789,26.775,40.351,26.775z M40.351,14.966c1.95,0,3.536,1.992,3.536,4.441c0,2.449-1.586,4.442-3.536,4.442
		c-1.949,0-3.535-1.994-3.535-4.442C36.816,16.959,38.402,14.966,40.351,14.966z"/>
	<path fill="#FFFFFF" d="M49.662,34c0,4.062,2.898,7.368,6.46,7.368c3.563,0,6.463-3.306,6.463-7.368
		c0-4.061-2.897-7.367-6.461-7.367S49.662,29.937,49.662,34z M59.658,34c0,2.449-1.586,4.441-3.536,4.441
		c-1.948,0-3.533-1.992-3.533-4.441c0-2.448,1.585-4.441,3.533-4.441C58.072,29.559,59.658,31.55,59.658,34z"/>
	<path fill="#FFFFFF" d="M79.1,58.293c-1.938-3.438-6.231-4.747-9.76-2.975l-11.46,5.414c-1.582-2.94-4.616-4.814-7.957-4.907
		l-10.579-0.293c-1.676-0.048-3.319-0.474-4.808-1.241l-1.077-0.559c-5.512-2.873-12.082-2.865-17.588,0.02l0.067-2.438
		c0.022-0.81-0.615-1.482-1.422-1.504L2.915,49.49c-0.808-0.021-1.48,0.613-1.502,1.423L0.711,76.371
		c-0.022,0.809,0.614,1.48,1.422,1.504l11.602,0.318h0.041c0.792,0,1.44-0.633,1.462-1.424l0.033-1.218l3.014-1.612
		c1.183-0.639,2.566-0.789,3.858-0.422l17.997,5.051c0.031,0.009,0.063,0.017,0.094,0.023c1.3,0.271,2.627,0.409,3.958,0.407
		c2.813,0.002,5.595-0.604,8.154-1.778c0.063-0.029,0.121-0.062,0.182-0.1l26.094-16.879C79.271,59.822,79.48,58.967,79.1,58.293z
		 M3.677,74.99l0.621-22.533l8.676,0.236l-0.621,22.535L3.677,74.99z M51.027,74.605c-3.18,1.436-6.729,1.83-10.146,1.131
		L22.934,70.7c-2.02-0.571-4.183-0.334-6.03,0.659l-1.54,0.822l0.412-14.979c4.88-3.246,11.139-3.579,16.336-0.871l1.077,0.56
		c1.881,0.971,3.957,1.506,6.074,1.567l10.579,0.291c2.973,0.086,5.494,2.201,6.098,5.112l-15.756-0.435
		c-0.808-0.022-1.48,0.614-1.503,1.423c-0.022,0.809,0.615,1.48,1.422,1.504l17.391,0.479h0.041
		c0.793-0.002,1.438-0.632,1.462-1.424c0.018-0.637-0.03-1.271-0.143-1.897l11.752-5.555l0.035-0.017
		c1.668-0.844,3.686-0.562,5.055,0.707L51.027,74.605z"/>
</g>
</svg>
