<?xml version="1.0" encoding="utf-8"?>
<!-- Generator: Adobe Illustrator 16.0.0, SVG Export Plug-In . SVG Version: 6.00 Build 0)  -->
<!DOCTYPE svg PUBLIC "-//W3C//DTD SVG 1.1//EN" "http://www.w3.org/Graphics/SVG/1.1/DTD/svg11.dtd">
<svg version="1.1" id="Layer_1" xmlns="http://www.w3.org/2000/svg" xmlns:xlink="http://www.w3.org/1999/xlink" x="0px" y="0px"
	 width="122.881px" height="122.881px" viewBox="0 0 122.881 122.881" enable-background="new 0 0 122.881 122.881"
	 xml:space="preserve">
<circle fill="#97B2CE" cx="61.44" cy="61.44" r="61.44"/>
<g id="_701611904">
	<g>
		<path fill="#CBC3B6" d="M65.149,39.186v1.341c0,2.237,1.174,4.309,3.091,5.458c1.918,1.151,3.091,3.223,3.091,5.458v39.668
			c0,4.098-3.321,7.418-7.419,7.418H31.768c-4.097,0-7.418-3.32-7.418-7.418V51.444c0-2.236,1.173-4.309,3.09-5.458
			c1.917-1.15,3.091-3.223,3.091-5.458v-1.341H65.149z M65.149,39.186L65.149,39.186L65.149,39.186z"/>
	</g>
	<path fill="#E7E4DD" d="M30.532,40.527c0,2.237-1.174,4.309-3.091,5.458s-3.09,3.223-3.09,5.458v35.129
		c17.453-4.751,30.29-20.702,30.29-39.66c0-2.642-0.26-5.223-0.736-7.727H30.532V40.527z"/>
	<polygon fill="#EF7F1A" points="24.35,57.731 71.331,57.731 71.331,87.403 24.35,87.403 	"/>
	<path fill="#E39854" d="M24.35,86.572C38.355,82.76,49.38,71.736,53.192,57.731H24.35V86.572z"/>
	<circle fill="#EBECEC" cx="84.93" cy="79.985" r="13.6"/>
	<g>
		<path fill="#E7E4DD" d="M51.691,83.01c-1.201,0.442-2.497,0.684-3.85,0.684c-6.146,0-11.127-4.981-11.127-11.127
			S41.695,61.44,47.841,61.44c6.146,0,11.126,4.981,11.126,11.127L51.691,83.01z M51.691,83.01L51.691,83.01L51.691,83.01z"/>
	</g>
	<path fill="#EF7F1A" d="M67.622,39.186H28.059c-1.366,0-2.472-1.106-2.472-2.472v-9.891c0-1.366,1.106-2.472,2.472-2.472h39.563
		c1.366,0,2.473,1.105,2.473,2.472v9.891C70.094,38.079,68.988,39.186,67.622,39.186L67.622,39.186z"/>
	<polygon fill="#FEFEFE" points="29.296,28.058 31.767,28.058 31.767,35.474 29.296,35.474 	"/>
	<polygon fill="#FEFEFE" points="34.24,28.058 36.712,28.058 36.712,35.474 34.24,35.474 	"/>
	<polygon fill="#FEFEFE" points="39.186,28.058 41.658,28.058 41.658,35.474 39.186,35.474 	"/>
	<polygon fill="#FEFEFE" points="44.132,28.058 46.603,28.058 46.603,35.474 44.132,35.474 	"/>
	<polygon fill="#FEFEFE" points="49.077,28.058 51.548,28.058 51.548,35.474 49.077,35.474 	"/>
	<polygon fill="#FEFEFE" points="54.022,28.058 56.493,28.058 56.493,35.474 54.022,35.474 	"/>
	<polygon fill="#FEFEFE" points="58.967,28.058 61.438,28.058 61.438,35.474 58.967,35.474 	"/>
	<polygon fill="#FEFEFE" points="63.912,28.058 66.385,28.058 66.385,35.474 63.912,35.474 	"/>
	<circle fill="#FEFEFE" cx="65.149" cy="84.93" r="13.6"/>
	<polygon fill="#EF7F1A" points="83.693,70.094 86.164,70.094 86.164,89.874 83.693,89.874 	"/>
	<polygon fill="#EF7F1A" points="63.912,75.038 66.385,75.038 66.385,94.819 63.912,94.819 	"/>
	<polygon fill="#C66B60" points="55.259,70.094 50.313,70.094 50.313,65.149 45.368,65.149 45.368,70.094 40.422,70.094 
		40.422,75.04 45.368,75.04 45.368,79.985 50.313,79.985 50.313,75.04 55.259,75.04 	"/>
	<path fill="#E47C6E" d="M50.313,65.149h-4.945v4.945h-4.946v4.945h3.075c2.719-2.896,5.022-6.182,6.816-9.771V65.149z"/>
</g>
</svg>
