<svg width="27" height="16" viewBox="0 0 27 16" fill="none" xmlns="http://www.w3.org/2000/svg">
<path d="M26.2675 7.17048C26.2672 7.17013 26.267 7.16972 26.2666 7.16937L20.8488 1.07562C20.4429 0.619117 19.7864 0.620816 19.3824 1.07961C18.9784 1.53834 18.98 2.28031 19.3858 2.73687L23.0234 6.82812H1.0647C0.492038 6.82812 0.027832 7.35277 0.027832 7.99999C0.027832 8.64722 0.492038 9.17187 1.0647 9.17187H23.0233L19.3859 13.2631C18.98 13.7197 18.9785 14.4617 19.3824 14.9204C19.7864 15.3792 20.443 15.3808 20.8488 14.9244L26.2667 8.83062C26.267 8.83027 26.2672 8.82986 26.2676 8.82951C26.6737 8.37142 26.6724 7.62705 26.2675 7.17048Z" fill="white"/>
</svg>
