<?xml version="1.0" encoding="utf-8"?>
<!-- Generator: Adobe Illustrator 16.0.0, SVG Export Plug-In . SVG Version: 6.00 Build 0)  -->
<!DOCTYPE svg PUBLIC "-//W3C//DTD SVG 1.1//EN" "http://www.w3.org/Graphics/SVG/1.1/DTD/svg11.dtd">
<svg version="1.1" id="Layer_1" xmlns="http://www.w3.org/2000/svg" xmlns:xlink="http://www.w3.org/1999/xlink" x="0px" y="0px"
	 width="80px" height="80px" viewBox="0 0 80 80" enable-background="new 0 0 80 80" xml:space="preserve">
<g>
	<g>
		<g>
			<path fill="#FFFFFF" stroke="#FFFFFF" stroke-width="0.5" stroke-miterlimit="10" d="M72.122,41.328V11.091
				c0-3.543-2.884-6.424-6.425-6.424H11.091c-3.541,0-6.424,2.881-6.424,6.424v54.607c0,3.543,2.883,6.424,6.424,6.424h30.237
				c3.374,2.025,7.307,3.211,11.521,3.211c12.396,0,22.484-10.086,22.484-22.484C75.333,48.636,74.146,44.703,72.122,41.328z
				 M40,7.879h25.697c1.771,0,3.213,1.441,3.213,3.212v26.052c-4.086-4.177-9.772-6.78-16.062-6.78
				c-4.777,0-9.202,1.509-12.849,4.06V7.879z M7.879,11.091c0-1.771,1.439-3.212,3.212-3.212h25.697v28.909H7.879V11.091z
				 M11.091,68.911c-1.772,0-3.212-1.443-3.212-3.213V40h26.545c-2.551,3.646-4.061,8.071-4.061,12.848
				c0,6.289,2.604,11.977,6.78,16.063H11.091z M52.849,72.122c-10.628,0-19.272-8.646-19.272-19.273
				c0-10.628,8.645-19.272,19.272-19.272c10.627,0,19.273,8.645,19.273,19.272C72.122,63.476,63.476,72.122,52.849,72.122z"/>
			<path fill="#FFFFFF" stroke="#FFFFFF" stroke-width="0.5" stroke-miterlimit="10" d="M28.758,20.728h-4.818V15.91
				c0-0.888-0.719-1.606-1.606-1.606c-0.887,0-1.605,0.718-1.605,1.606v4.818h-4.818c-0.888,0-1.606,0.718-1.606,1.605
				c0.001,0.888,0.719,1.606,1.606,1.606h4.818v4.818c0,0.888,0.719,1.606,1.605,1.606c0.889,0,1.607-0.718,1.607-1.606v-4.818
				h4.817c0.888,0,1.606-0.718,1.606-1.606C30.363,21.446,29.646,20.728,28.758,20.728z"/>
			<path fill="#FFFFFF" stroke="#FFFFFF" stroke-width="0.5" stroke-miterlimit="10" d="M62.485,22.333
				c0-0.887-0.72-1.605-1.605-1.605H48.03c-0.888,0-1.606,0.718-1.606,1.605c0,0.888,0.719,1.606,1.606,1.606h12.85
				C61.766,23.939,62.485,23.221,62.485,22.333z"/>
			<path fill="#FFFFFF" stroke="#FFFFFF" stroke-width="0.5" stroke-miterlimit="10" d="M28.287,48.501
				c-0.627-0.627-1.644-0.627-2.271,0l-3.683,3.684l-3.682-3.684c-0.628-0.627-1.645-0.627-2.271,0
				c-0.627,0.629-0.627,1.645,0,2.271l3.683,3.682l-3.683,3.684c-0.627,0.629-0.627,1.645,0,2.271
				c0.314,0.314,0.725,0.471,1.136,0.471s0.821-0.156,1.136-0.471l3.682-3.684l3.684,3.684c0.313,0.314,0.725,0.471,1.135,0.471
				c0.412,0,0.822-0.156,1.137-0.471c0.627-0.627,0.627-1.643,0-2.271l-3.684-3.684l3.684-3.682
				C28.914,50.146,28.914,49.13,28.287,48.501z"/>
			<path fill="#FFFFFF" stroke="#FFFFFF" stroke-width="0.5" stroke-miterlimit="10" d="M60.88,46.425H44.818
				c-0.888,0-1.605,0.719-1.605,1.605c0,0.889,0.718,1.607,1.605,1.607H60.88c0.886,0,1.605-0.719,1.605-1.607
				C62.485,47.144,61.766,46.425,60.88,46.425z"/>
			<path fill="#FFFFFF" stroke="#FFFFFF" stroke-width="0.5" stroke-miterlimit="10" d="M60.88,56.062H44.818
				c-0.888,0-1.605,0.719-1.605,1.605c0,0.889,0.718,1.607,1.605,1.607H60.88c0.886,0,1.605-0.719,1.605-1.607
				C62.485,56.78,61.766,56.062,60.88,56.062z"/>
		</g>
	</g>
</g>
</svg>
