<?xml version="1.0" encoding="utf-8"?>
<!-- Generator: Adobe Illustrator 24.0.0, SVG Export Plug-In . SVG Version: 6.00 Build 0)  -->
<svg version="1.1" id="Layer_1" xmlns="http://www.w3.org/2000/svg" xmlns:xlink="http://www.w3.org/1999/xlink" x="0px" y="0px"
	 viewBox="0 0 60 60" style="enable-background:new 0 0 60 60;" xml:space="preserve">
<style type="text/css">
	.st0{fill:#2F80ED;}
	.st1{fill:#FF9900;}
	.st2{fill:#FF5C00;}
</style>
<g>
	<path class="st0" d="M28.3,44.1c0.9,0.9,2.3,1,3.4,0.4l4.1-2.3c0.6-0.3,1.3-0.3,1.9,0l11.4,5.6c0.9,0.5,1.2,1.6,0.8,2.6L49.4,52
		l-2.2,4.3c-1.1,2.2-3.7,3.2-6.1,2.4C28.9,54,17.6,42.4,17.6,42.4S6,31.1,1.4,18.8c-0.9-2.3,0.1-4.9,2.4-6.1L8,10.6l1.5-0.5
		c0.9-0.5,2-0.1,2.6,0.8l5.7,11.3c0.3,0.6,0.4,1.3,0,1.9l-2.3,4.1c-0.6,1.1-0.5,2.5,0.4,3.4L28.3,44.1z"/>
	<path class="st1" d="M54.5,25.5c5.6-5.6,5.5-14.2,0-19.9C51.2,2.3,47,0.7,42.7,1.2c-3.1,0.4-6.1,1.7-8.4,4.1
		c-4.7,4.6-5.5,11.6-2.6,17.1c0.1,0.3,0.2,0.6,0.1,0.9l-1.5,5.7c-0.1,0.5,0.3,0.9,0.8,0.8l5.7-1.5c0.3-0.1,0.6,0,0.9,0.1
		c1.6,0.8,3.3,1.4,5,1.6C47,30.4,51.2,28.7,54.5,25.5z"/>
	<path class="st2" d="M54.8,5.4C51.5,2.1,47,0.7,42.7,1.2c3.1,0.4,6.2,1.8,8.6,4.2c5.6,5.6,5.5,14.7-0.1,20.3
		c-2.4,2.4-5.4,3.7-8.5,4.1c4.3,0.5,8.7-0.9,12-4.1C60.3,20.1,60.3,11,54.8,5.4z"/>
	<path class="st0" d="M49.4,47.8L37.7,41c-0.6-0.3-1.3-0.4-1.9,0l-4.1,2.3c-1.1,0.6-2.5,0.5-3.4-0.4L17.1,31.7
		c-0.9-0.9-1-2.3-0.4-3.4l2.3-4.1c0.3-0.6,0.3-1.3,0-1.9l-6.8-11.7c-0.5-0.9-1.6-1.2-2.6-0.8L8,10.6c0.3,0.2,0.6,0.4,0.8,0.8
		l7.2,12.5c0.4,0.6,0.4,1.4,0,2.1l-2.5,4.4C12.9,31.5,13.1,33,14,34l12,12c1,0.9,2.5,1.1,3.7,0.4l4.4-2.5c0.6-0.4,1.4-0.4,2.1,0
		l12.5,7.2c0.3,0.2,0.6,0.5,0.8,0.8l0.8-1.6C50.6,49.5,50.3,48.3,49.4,47.8z"/>
	<path class="st0" d="M23.3,9.4l1.7,0.9c0.4,0.2,0.4,0.8,0,1l-1.7,0.9c-0.1,0.1-0.2,0.1-0.2,0.2l-0.9,1.7c-0.2,0.4-0.8,0.4-1,0
		l-0.9-1.7c-0.1-0.1-0.1-0.2-0.2-0.2l-1.7-0.9c-0.4-0.2-0.4-0.8,0-1l1.7-0.9c0.1-0.1,0.2-0.1,0.2-0.2l0.9-1.7c0.2-0.4,0.8-0.4,1,0
		L23,9.2C23.1,9.3,23.2,9.4,23.3,9.4z"/>
	<path class="st0" d="M50.8,37l1.7,0.9c0.4,0.2,0.4,0.8,0,1l-1.7,0.9c-0.1,0.1-0.2,0.1-0.2,0.2l-0.9,1.7c-0.2,0.4-0.8,0.4-1,0
		l-0.9-1.7c-0.1-0.1-0.1-0.2-0.2-0.2l-1.7-0.9c-0.4-0.2-0.4-0.8,0-1l1.7-0.9c0.1-0.1,0.2-0.1,0.2-0.2l0.9-1.7c0.2-0.4,0.8-0.4,1,0
		l0.9,1.7C50.6,36.8,50.7,36.9,50.8,37z"/>
	<path d="M44.5,19.3c0.5,0,0.9-0.4,0.9-0.9V9.1c0-0.5-0.4-0.9-0.9-0.9c-0.5,0-0.9,0.4-0.9,0.9v9.4C43.6,18.9,44,19.3,44.5,19.3z"/>
	<path d="M43.6,22c0,0.5,0.4,0.9,0.9,0.9c0.5,0,0.9-0.4,0.9-0.9c0-0.5-0.4-0.9-0.9-0.9C44,21.1,43.6,21.5,43.6,22z"/>
	<path d="M17.8,12.1l1.6,0.9l0.9,1.6c0.3,0.5,0.7,0.8,1.3,0.8c0.5,0,1-0.3,1.3-0.8l0.9-1.6l1.6-0.9c0.5-0.3,0.8-0.7,0.8-1.3
		c0-0.5-0.3-1-0.8-1.3l-1.6-0.9l-0.9-1.6c-0.3-0.5-0.7-0.8-1.3-0.8c-0.5,0-1,0.3-1.3,0.8l-0.9,1.6l-1.6,0.9
		c-0.5,0.3-0.8,0.7-0.8,1.3C17,11.4,17.3,11.9,17.8,12.1z M20.3,10.2c0.2-0.1,0.4-0.3,0.6-0.6l0.7-1.2l0.7,1.2
		c0.1,0.2,0.3,0.4,0.6,0.6h0l1.2,0.7l-1.2,0.7c-0.2,0.1-0.4,0.3-0.6,0.6l-0.7,1.2l-0.7-1.2c-0.1-0.2-0.3-0.4-0.6-0.6l-1.2-0.7
		L20.3,10.2z"/>
	<path d="M52.9,37.1l-1.6-0.9l-0.9-1.6c-0.3-0.5-0.7-0.8-1.3-0.8c-0.5,0-1,0.3-1.3,0.8L47,36.2l-1.6,0.9c-0.5,0.3-0.8,0.7-0.8,1.3
		c0,0.5,0.3,1,0.8,1.3l1.6,0.9l0.9,1.6c0.3,0.5,0.7,0.8,1.3,0.8c0.5,0,1-0.3,1.3-0.8l0.9-1.6l1.6-0.9c0.5-0.3,0.8-0.7,0.8-1.3
		C53.7,37.9,53.4,37.4,52.9,37.1z M50.4,39.1c-0.2,0.1-0.4,0.3-0.6,0.6l-0.7,1.2l-0.7-1.2c-0.1-0.2-0.3-0.4-0.6-0.6l-1.2-0.7
		l1.2-0.7c0.2-0.1,0.4-0.3,0.6-0.6l0.7-1.2l0.7,1.2c0.1,0.2,0.3,0.4,0.6,0.6l1.2,0.7L50.4,39.1z"/>
	<path d="M49.9,47.1l-4.2-2.4c-0.4-0.2-1-0.1-1.2,0.3c-0.2,0.4-0.1,1,0.3,1.2l4.2,2.4c0.5,0.3,0.7,0.9,0.4,1.4l-3,5.9
		c-0.9,1.8-3.1,2.6-5,1.9c-11.9-4.5-23.1-15.9-23.2-16.1c0,0,0,0,0,0c0,0-4-3.9-8.1-9.4c-0.3-0.4-0.8-0.5-1.2-0.2
		c-0.4,0.3-0.5,0.8-0.2,1.2c4.1,5.5,8.1,9.4,8.3,9.6c0.2,0.2,3,3,7.2,6.5c4,3.2,10.2,7.6,16.6,10c0.7,0.3,1.4,0.4,2,0.4
		c2.1,0,4.1-1.2,5.1-3.1l3-5.9C51.6,49.4,51.1,47.8,49.9,47.1z"/>
	<path d="M2.2,18.5c-0.7-1.9,0.1-4,1.9-5l5.9-3c0.5-0.3,1.1-0.1,1.4,0.4l6.8,11.7c0.2,0.3,0.2,0.7,0,1.1l-2.3,4.1
		c-0.8,1.4-0.6,3.2,0.5,4.4c0,0,0,0,0,0l11.2,11.2c0,0,0,0,0,0c0.7,0.7,1.6,1,2.6,1c0.6,0,1.3-0.2,1.9-0.5l4.1-2.3
		c0.3-0.2,0.7-0.2,1.1,0l4.2,2.4c0.4,0.2,1,0.1,1.2-0.3c0.2-0.4,0.1-1-0.3-1.2l-4.2-2.4c-0.9-0.5-1.9-0.5-2.8,0l-4.1,2.3
		c-0.8,0.4-1.7,0.3-2.4-0.3L17.7,31.1c-0.6-0.7-0.7-1.6-0.3-2.4l2.3-4.1c0.5-0.9,0.5-1.9,0-2.8l-6.8-11.7C12.2,8.9,10.5,8.4,9.2,9
		l-5.9,3c-2.6,1.3-3.8,4.4-2.8,7.1c1.3,3.5,3.3,7.2,5.9,11c0.3,0.4,0.8,0.5,1.2,0.2c0.4-0.3,0.5-0.8,0.2-1.2
		C5.4,25.5,3.5,21.9,2.2,18.5z"/>
	<path d="M55.4,4.8c-2.9-2.9-6.7-4.5-10.8-4.6c0,0-0.1,0-0.1,0c-4.1,0-7.9,1.6-10.8,4.4c-2.4,2.4-3.9,5.4-4.4,8.7
		c-0.1,0.5,0.3,0.9,0.7,1c0.5,0.1,0.9-0.3,1-0.7c0.4-2.9,1.8-5.6,3.9-7.7c2.6-2.5,6-3.9,9.6-3.9c3.6,0,7.1,1.5,9.6,4
		c2.5,2.6,3.9,6,3.9,9.6c0,3.6-1.4,7-4,9.5c-2.1,2.1-4.8,3.4-7.7,3.8c-2.8,0.4-5.8-0.1-8.3-1.5c-0.5-0.3-1-0.3-1.5-0.2l-5.3,1.4
		l1.4-5.3c0.1-0.5,0.1-1.1-0.2-1.5c-0.7-1.4-1.2-2.9-1.5-4.5c-0.1-0.5-0.5-0.8-1-0.7c-0.5,0.1-0.8,0.5-0.7,1c0.3,1.8,0.8,3.5,1.6,5
		c0,0.1,0.1,0.2,0,0.3l-1.5,5.7c-0.1,0.5,0,1.1,0.4,1.4c0.4,0.4,0.9,0.5,1.4,0.4L37,29c0.1,0,0.2,0,0.3,0c2.2,1.2,4.7,1.8,7.2,1.8
		c0.7,0,1.4,0,2.1-0.1c3.3-0.5,6.3-2,8.7-4.3c2.9-2.9,4.5-6.7,4.5-10.8C59.8,11.5,58.3,7.7,55.4,4.8z"/>
</g>
</svg>
