<svg width="37" height="43" viewBox="0 0 37 43" fill="none" xmlns="http://www.w3.org/2000/svg">
<path d="M33.2898 5.46186C28.7734 5.46186 24.395 3.90571 20.8915 1.0555C19.1617 -0.351835 16.6816 -0.351835 14.9518 1.0555C11.4484 3.90579 7.06989 5.46186 2.55356 5.46186C1.14325 5.46186 0 6.60511 0 8.01542V14.8593C0 23.639 3.95343 31.952 10.764 37.4928L12.866 39.2029C18.5 44 19 42.5 22.9777 39.2029L25.0797 37.4928C31.8901 31.9521 36 23.7797 36 15C36 11.5 36.5 9.76281 36.5 8.01542C36.4998 6.60511 34.7001 5.46186 33.2898 5.46186Z" fill="#0C347B"/>
<path d="M18 41C17.4358 41 16.884 40.8074 16.4464 40.4576L11.8394 36.7761C8.47445 34.0871 5.71096 30.6318 3.84787 26.7839C1.98479 22.936 1 18.6499 1 14.389V8.27595C1 7.53641 1.61556 6.90754 2.36747 6.86854C7.49473 6.60224 12.4516 4.7347 16.4464 1.54237C16.8841 1.19255 17.4358 1 18 1C18.5643 1 19.116 1.19255 19.5536 1.54228C23.5486 4.7347 28.5056 6.60224 33.6328 6.86854C34.3845 6.90754 35 7.53632 35 8.27577V14.3886C35 18.6496 34.0152 22.9357 32.1521 26.7837C30.289 30.6318 27.5256 34.0871 24.1607 36.7761L19.5536 40.4576C19.116 40.8074 18.5643 41 18 41Z" fill="#3575E8"/>
<path d="M18 30C22.9706 30 27 25.7467 27 20.5C27 15.2533 22.9706 11 18 11C13.0294 11 9 15.2533 9 20.5C9 25.7467 13.0294 30 18 30Z" fill="#326ACD"/>
<path d="M15.0655 29C14.5099 29 12.8999 27.3904 12.1107 26.6052L8.55728 23.0701C7.81424 22.3309 7.81424 21.1324 8.55728 20.3932C9.30024 19.6541 10.5049 19.6541 11.248 20.3932L14.8015 23.9284C14.8919 24.0183 14.995 24.0372 15.0655 24.0372C15.136 24.0372 15.2391 24.0183 15.3295 23.9284L24.752 14.5544C25.495 13.8152 26.6997 13.8152 27.4427 14.5544C28.1858 15.2936 28.1858 16.492 27.4427 17.2313L18.0202 26.6052C17.231 27.3904 15.6211 29 15.0655 29Z" fill="#FF9900"/>
</svg>
