<?xml version="1.0" encoding="utf-8"?>
<!-- Generator: Adobe Illustrator 24.0.0, SVG Export Plug-In . SVG Version: 6.00 Build 0)  -->
<svg version="1.1" id="Layer_1" xmlns="http://www.w3.org/2000/svg" xmlns:xlink="http://www.w3.org/1999/xlink" x="0px" y="0px"
	 viewBox="0 0 50 50" style="enable-background:new 0 0 50 50;" xml:space="preserve">
<style type="text/css">
	.st0{fill:#1B91E0;}
	.st1{fill:#FFFFFF;}
</style>
<circle class="st0" cx="25" cy="25" r="23.5"/>
<g>
	<g>
		<g>
			<g>
				<path class="st1" d="M36.9,13.6H16.1v0.2l-0.3-0.9c-0.3-1.1-1.3-1.8-2.4-1.8h-1.7c-0.4,0-0.6,0.3-0.6,0.6c0,0.4,0.3,0.6,0.6,0.6
					h1.7c0.6,0,1.1,0.4,1.2,0.9l3.9,13.5l-2,2.5c-0.3,0.4-0.4,0.8-0.4,1.3c0,1.1,0.9,2,2,2h17.6c0.4,0,0.6-0.3,0.6-0.6
					c0-0.4-0.3-0.6-0.6-0.6H18.2c-0.4,0-0.8-0.3-0.8-0.8c0-0.2,0.1-0.3,0.2-0.5l2-2.5H32c1,0,1.9-0.6,2.3-1.5l4.4-9.4
					c0.1-0.3,0.2-0.6,0.2-0.9v-0.2C38.9,14.5,38,13.6,36.9,13.6z M37.7,15.8c0,0.1,0,0.2-0.1,0.3l-4.4,9.4C33,26,32.5,26.3,32,26.3
					H19.8l-3.3-11.4h20.4c0.4,0,0.8,0.3,0.8,0.8L37.7,15.8L37.7,15.8z"/>
				<path class="st1" d="M35.8,32.9H18.2c-1.3,0-2.3-1-2.3-2.3c0-0.5,0.2-1,0.5-1.4l1.9-2.4l-3.9-13.4c-0.1-0.4-0.5-0.7-1-0.7h-1.7
					c-0.5,0-0.9-0.4-0.9-0.9c0-0.5,0.4-0.9,0.9-0.9h1.7c1.2,0,2.3,0.8,2.7,2l0.2,0.5h20.6c1.3,0,2.3,1,2.3,2.3v0.2
					c0,0.3-0.1,0.7-0.2,1l-4.4,9.4c-0.5,1-1.4,1.6-2.5,1.6H19.7l-2,2.5c-0.1,0.1-0.1,0.2-0.1,0.3c0,0.3,0.2,0.5,0.5,0.5h17.6
					c0.5,0,0.9,0.4,0.9,0.9C36.7,32.5,36.3,32.9,35.8,32.9z M11.7,11.3c-0.2,0-0.4,0.2-0.4,0.4c0,0.2,0.2,0.4,0.4,0.4h1.7
					c0.7,0,1.3,0.4,1.5,1.1l4,13.6l-2.1,2.6c-0.3,0.3-0.4,0.7-0.4,1.1c0,1,0.8,1.8,1.8,1.8h17.6c0.2,0,0.4-0.2,0.4-0.4
					s-0.2-0.4-0.4-0.4H18.2c-0.6,0-1-0.5-1-1c0-0.2,0.1-0.5,0.2-0.6l2.1-2.6H32c0.9,0,1.7-0.5,2.1-1.3l4.4-9.4
					c0.1-0.2,0.2-0.5,0.2-0.8v-0.2c0-1-0.8-1.8-1.8-1.8H16.4v0.8h20.5c0.6,0,1,0.5,1,1v0.2c0,0.1,0,0.3-0.1,0.4l-4.4,9.4
					c-0.3,0.5-0.8,0.9-1.4,0.9H19.6l-3.2-11v0L15.6,13c-0.3-1-1.2-1.6-2.2-1.6L11.7,11.3L11.7,11.3z M20,26H32
					c0.4,0,0.8-0.2,0.9-0.6l4.4-9.4c0-0.1,0.1-0.1,0.1-0.2v-0.2c0-0.3-0.2-0.5-0.5-0.5H16.8L20,26z"/>
			</g>
			<g>
				<path class="st1" d="M18.7,33.9c-1.4,0-2.5,1.1-2.5,2.5c0,1.4,1.1,2.5,2.5,2.5s2.5-1.1,2.5-2.5C21.2,35,20.1,33.9,18.7,33.9z
					 M18.7,37.7c-0.7,0-1.3-0.6-1.3-1.3c0-0.7,0.6-1.3,1.3-1.3s1.3,0.6,1.3,1.3C19.9,37.1,19.4,37.7,18.7,37.7z"/>
				<path class="st1" d="M18.7,39.2c-1.5,0-2.8-1.2-2.8-2.8c0-1.5,1.3-2.8,2.8-2.8s2.8,1.3,2.8,2.8C21.4,37.9,20.2,39.2,18.7,39.2z
					 M18.7,34.1c-1.3,0-2.3,1-2.3,2.3c0,1.3,1,2.3,2.3,2.3s2.3-1,2.3-2.3C20.9,35.1,19.9,34.1,18.7,34.1z M18.7,37.9
					c-0.8,0-1.5-0.7-1.5-1.5c0-0.8,0.7-1.5,1.5-1.5s1.5,0.7,1.5,1.5C20.2,37.2,19.5,37.9,18.7,37.9z M18.7,35.4c-0.6,0-1,0.5-1,1
					c0,0.6,0.5,1,1,1s1-0.5,1-1C19.7,35.8,19.2,35.4,18.7,35.4z"/>
			</g>
			<g>
				<path class="st1" d="M33.9,33.9c-1.4,0-2.5,1.1-2.5,2.5c0,1.4,1.1,2.5,2.5,2.5s2.5-1.1,2.5-2.5C36.4,35,35.3,33.9,33.9,33.9z
					 M33.9,37.7c-0.7,0-1.3-0.6-1.3-1.3c0-0.7,0.6-1.3,1.3-1.3c0.7,0,1.3,0.6,1.3,1.3C35.1,37.1,34.6,37.7,33.9,37.7z"/>
				<path class="st1" d="M33.9,39.2c-1.5,0-2.8-1.2-2.8-2.8c0-1.5,1.2-2.8,2.8-2.8s2.8,1.3,2.8,2.8C36.7,37.9,35.4,39.2,33.9,39.2z
					 M33.9,34.1c-1.3,0-2.3,1-2.3,2.3c0,1.3,1,2.3,2.3,2.3s2.3-1,2.3-2.3C36.2,35.1,35.1,34.1,33.9,34.1z M33.9,37.9
					c-0.8,0-1.5-0.7-1.5-1.5c0-0.8,0.7-1.5,1.5-1.5c0.8,0,1.5,0.7,1.5,1.5C35.4,37.2,34.7,37.9,33.9,37.9z M33.9,35.4
					c-0.6,0-1,0.5-1,1c0,0.6,0.5,1,1,1c0.6,0,1-0.5,1-1C34.9,35.8,34.4,35.4,33.9,35.4z"/>
			</g>
		</g>
	</g>
</g>
</svg>
