<svg width="15" height="17" viewBox="0 0 15 17" fill="none" xmlns="http://www.w3.org/2000/svg">
<path fill-rule="evenodd" clip-rule="evenodd" d="M13.8297 3.09437C14.1409 3.09437 14.4 3.35277 14.4 3.68157V3.98556C14.4 4.30636 14.1409 4.57276 13.8297 4.57276H0.571083C0.259088 4.57276 0 4.30636 0 3.98556V3.68157C0 3.35277 0.259088 3.09437 0.571083 3.09437H2.90365C3.37748 3.09437 3.78984 2.75758 3.89643 2.28238L4.01859 1.73679C4.20843 0.993595 4.8332 0.5 5.54822 0.5H8.85178C9.55902 0.5 10.1908 0.993595 10.3736 1.69759L10.5043 2.28158C10.6102 2.75758 11.0225 3.09437 11.4971 3.09437H13.8297ZM12.6447 14.2074C12.8882 11.9378 13.3146 6.5459 13.3146 6.4915C13.3301 6.32671 13.2765 6.17071 13.1699 6.04511C13.0555 5.92751 12.9108 5.85791 12.7513 5.85791H1.65484C1.49456 5.85791 1.34207 5.92751 1.23625 6.04511C1.12888 6.17071 1.07598 6.32671 1.08376 6.4915C1.08519 6.5015 1.10049 6.69143 1.12606 7.00896C1.23969 8.41956 1.55616 12.3483 1.76065 14.2074C1.90537 15.577 2.80401 16.4378 4.10567 16.469C5.11012 16.4922 6.14492 16.5002 7.20306 16.5002C8.19973 16.5002 9.21196 16.4922 10.2475 16.469C11.5943 16.4458 12.4922 15.6002 12.6447 14.2074Z" fill="#A3A3A3"/>
</svg>
