<?xml version="1.0" encoding="utf-8"?>
<!-- Generator: Adobe Illustrator 16.0.0, SVG Export Plug-In . SVG Version: 6.00 Build 0)  -->
<!DOCTYPE svg PUBLIC "-//W3C//DTD SVG 1.1//EN" "http://www.w3.org/Graphics/SVG/1.1/DTD/svg11.dtd">
<svg version="1.1" id="Layer_1" xmlns="http://www.w3.org/2000/svg" xmlns:xlink="http://www.w3.org/1999/xlink" x="0px" y="0px"
	 width="50px" height="57.625px" viewBox="0 0 50 57.625" enable-background="new 0 0 50 57.625" xml:space="preserve">
<g>
	<circle fill="#DBDADA" cx="18.208" cy="8.11" r="0.495"/>
</g>
<g>
	<circle fill="#DBDADA" cx="43.796" cy="14.265" r="0.479"/>
</g>
<g>
	<circle fill="#DBDADA" cx="16.555" cy="29.136" r="0.479"/>
</g>
<g>
	<circle fill="#DBDADA" cx="26.64" cy="4.729" r="0.479"/>
</g>
<g>
	<circle fill="#DBDADA" cx="46.193" cy="19.419" r="0.479"/>
</g>
<g>
	<path fill="#DBDADA" d="M29.438,39.716c0,0.267-0.215,0.481-0.479,0.481s-0.479-0.215-0.479-0.481c0-0.263,0.215-0.478,0.479-0.478
		S29.438,39.453,29.438,39.716z"/>
</g>
<g>
	<circle fill="#DBDADA" cx="4.287" cy="12.887" r="0.48"/>
</g>
<g>
	<circle fill="#DBDADA" cx="7.786" cy="20.881" r="0.665"/>
</g>
<g>
	<circle fill="#DBDADA" cx="31.125" cy="7.942" r="0.32"/>
</g>
<g>
	<circle fill="#DBDADA" cx="14.725" cy="17.772" r="0.319"/>
</g>
<g>
	<circle fill="#DBDADA" cx="42.164" cy="24.996" r="0.39"/>
</g>
<g>
	<circle fill="#DBDADA" cx="22.407" cy="38.497" r="0.389"/>
</g>
<g>
	<path fill="#DBDADA" d="M25.146,11.113h-0.233v-0.235c0-0.152-0.125-0.275-0.275-0.275c-0.153,0-0.275,0.123-0.275,0.275v0.235
		h-0.235c-0.151,0-0.274,0.123-0.274,0.275s0.123,0.274,0.274,0.274h0.235v0.235c0,0.152,0.123,0.275,0.275,0.275
		c0.151,0,0.275-0.123,0.275-0.275v-0.235h0.233c0.153,0,0.276-0.123,0.276-0.274S25.298,11.113,25.146,11.113z"/>
</g>
<g>
	<path fill="#DBDADA" d="M41.5,31.038h-0.235v-0.234c0-0.153-0.123-0.276-0.274-0.276c-0.152,0-0.275,0.123-0.275,0.276v0.234H40.48
		c-0.153,0-0.276,0.123-0.276,0.274c0,0.152,0.123,0.275,0.276,0.275h0.234v0.235c0,0.151,0.123,0.275,0.275,0.275
		c0.151,0,0.274-0.124,0.274-0.275v-0.235H41.5c0.151,0,0.274-0.123,0.274-0.275C41.774,31.161,41.651,31.038,41.5,31.038z"/>
</g>
<g>
	<path fill="#DBDADA" d="M41.361,11.826h-0.235v-0.235c0-0.152-0.123-0.274-0.275-0.274c-0.151,0-0.274,0.123-0.274,0.274v0.235
		h-0.235c-0.152,0-0.274,0.124-0.274,0.275c0,0.153,0.122,0.275,0.274,0.275h0.235v0.234c0,0.152,0.123,0.275,0.274,0.275
		c0.152,0,0.275-0.124,0.275-0.275v-0.234h0.235c0.15,0,0.275-0.123,0.275-0.275C41.637,11.95,41.512,11.826,41.361,11.826z"/>
</g>
<g>
	<path fill="#DBDADA" d="M10.158,26.878H9.924v-0.235c0-0.151-0.123-0.274-0.275-0.274s-0.274,0.123-0.274,0.274v0.235H9.139
		c-0.152,0-0.274,0.123-0.274,0.275c0,0.151,0.123,0.274,0.274,0.274h0.236v0.235c0,0.152,0.123,0.275,0.274,0.275
		s0.275-0.123,0.275-0.275v-0.235h0.234c0.153,0,0.276-0.123,0.276-0.274C10.434,27.001,10.311,26.878,10.158,26.878z"/>
</g>
<g>
	<path fill="#DBDADA" d="M11.146,10.202c-0.099,0-0.199-0.028-0.286-0.085L9.267,9.071C9.024,8.913,8.958,8.588,9.115,8.346
		C9.274,8.104,9.599,8.037,9.84,8.195l1.594,1.045c0.242,0.159,0.308,0.483,0.151,0.725C11.483,10.119,11.316,10.202,11.146,10.202z
		"/>
</g>
<g>
	<path fill="#DBDADA" d="M36.29,9.148c-0.104,0-0.209-0.031-0.301-0.095c-0.236-0.167-0.293-0.494-0.128-0.729l1.414-2.006
		c0.165-0.236,0.492-0.293,0.729-0.125c0.236,0.166,0.293,0.493,0.126,0.728l-1.412,2.006C36.616,9.071,36.455,9.148,36.29,9.148z"
		/>
</g>
<g>
	<path fill="#DBDADA" d="M43.939,28.76c-0.231,0-0.441-0.152-0.505-0.387c-0.075-0.278,0.091-0.566,0.368-0.641l2.21-0.598
		c0.279-0.076,0.566,0.09,0.642,0.369s-0.091,0.566-0.368,0.642l-2.21,0.597C44.03,28.754,43.984,28.76,43.939,28.76z"/>
</g>
<g>
	<path fill="#DBDADA" d="M3.182,28.218c-0.222,0-0.428-0.143-0.498-0.366c-0.087-0.275,0.065-0.569,0.341-0.657l2.209-0.696
		c0.276-0.088,0.57,0.065,0.657,0.341c0.086,0.275-0.066,0.569-0.342,0.656L3.34,28.193C3.288,28.21,3.234,28.218,3.182,28.218z"/>
</g>
<g>
	<g>
		<path fill="#DBDADA" d="M37.736,38.232h-22.65l-2.64-17.917h28.598L37.736,38.232z M16.192,36.952h20.48l2.834-15.358H13.928
			L16.192,36.952z"/>
	</g>
	<g>
		<rect x="14.085" y="25.592" fill="#DBDADA" width="25.292" height="0.698"/>
	</g>
	<g>
		<rect x="15.133" y="32.3" fill="#DBDADA" width="23.196" height="0.697"/>
	</g>
	<g>
		<rect x="26.383" y="20.954" fill="#DBDADA" width="0.698" height="16.639"/>
	</g>
	<g>
		<g>
			
				<rect x="11.056" y="28.924" transform="matrix(0.1033 0.9946 -0.9946 0.1033 46.5291 6.9327)" fill="#DBDADA" width="16.727" height="0.698"/>
		</g>
		<g>
			
				<rect x="33.534" y="20.892" transform="matrix(0.9924 0.1232 -0.1232 0.9924 3.8637 -3.9506)" fill="#DBDADA" width="0.698" height="16.761"/>
		</g>
	</g>
	<g>
		<polygon fill="#DBDADA" points="12.741,22.025 9.684,18.988 5.643,18.988 5.643,16.813 10.58,16.813 14.275,20.481 		"/>
	</g>
	<g>
		<path fill="#DBDADA" d="M36.266,44.256H15.555c-2.27,0-4.117-1.847-4.117-4.116s1.847-4.115,4.117-4.115h0.084v2.175h-0.084
			c-1.071,0-1.941,0.871-1.941,1.94c0,1.071,0.871,1.941,1.941,1.941h20.711V44.256z"/>
	</g>
	<g>
		<path fill="#274889" d="M8.224,18.988H4.3c-0.601,0-1.088-0.486-1.088-1.088c0-0.601,0.487-1.087,1.088-1.087h3.924
			c0.601,0,1.088,0.486,1.088,1.087C9.313,18.501,8.825,18.988,8.224,18.988z"/>
	</g>
	<g>
		<circle fill="#29394F" cx="35.839" cy="44.173" r="3.86"/>
	</g>
	<g>
		<path fill="#FFFFFF" d="M37.78,44.173c0,1.071-0.869,1.939-1.94,1.939c-1.072,0-1.941-0.868-1.941-1.939
			c0-1.074,0.869-1.942,1.941-1.942C36.911,42.23,37.78,43.099,37.78,44.173z"/>
	</g>
	<g>
		<circle fill="#29394F" cx="15.591" cy="44.173" r="3.861"/>
	</g>
	<g>
		<path fill="#FFFFFF" d="M17.532,44.173c0,1.071-0.869,1.939-1.94,1.939c-1.073,0-1.942-0.868-1.942-1.939
			c0-1.074,0.869-1.942,1.942-1.942C16.664,42.23,17.532,43.099,17.532,44.173z"/>
	</g>
</g>
<ellipse fill="#E7E7E7" stroke="#FFFFFF" stroke-miterlimit="10" cx="25" cy="53.645" rx="21.672" ry="1.083"/>
</svg>
