<?xml version="1.0" encoding="utf-8"?>
<!-- Generator: Adobe Illustrator 25.0.0, SVG Export Plug-In . SVG Version: 6.00 Build 0)  -->
<svg version="1.1" id="Layer_1" xmlns="http://www.w3.org/2000/svg" xmlns:xlink="http://www.w3.org/1999/xlink" x="0px" y="0px"
	 viewBox="0 0 47 47" style="enable-background:new 0 0 47 47;" xml:space="preserve">
<style type="text/css">
	.st0{fill:#FCFDFF;}
	.st1{fill:#FFFFFF;}
	.st2{fill:#0054A6;}
	.st3{fill:#61A7E0;}
	.st4{opacity:0.25;fill:#48A0F7;enable-background:new    ;}
	.st5{fill:#BFC7E5;}
	.st6{fill:#AAC7E8;}
	.st7{fill:#88A8CE;}
	.st8{fill:#79AADB;}
	.st9{fill:#6088BB;}
	.st10{opacity:0.36;fill:#79AADB;enable-background:new    ;}
	.st11{opacity:0.36;fill:#A0C2E6;enable-background:new    ;}
	.st12{fill:#627EBE;}
	.st13{opacity:0.36;fill:#6088BB;enable-background:new    ;}
	.st14{fill:#91ABD8;}
	.st15{fill:#73BDEF;}
	.st16{fill:#466CA1;}
	.st17{fill:#284278;}
	.st18{fill:#53ABF4;}
	.st19{fill:#7DB0DF;}
	.st20{fill:#6A95CE;}
	.st21{fill:#8BBFE7;}
	.st22{opacity:0.38;fill:#F2F1F8;enable-background:new    ;}
</style>
<circle class="st0" cx="23.5" cy="23.5" r="23.5"/>
<g>
	<path class="st1" d="M21.3,12.3c-0.3,0-0.5-0.2-0.5-0.5V8.7c0-0.3,0.2-0.5,0.5-0.5c0.3,0,0.5,0.2,0.5,0.5v3.1
		C21.8,12.1,21.6,12.3,21.3,12.3z"/>
	<path class="st1" d="M26.8,12.3c-0.3,0-0.5-0.2-0.5-0.5V8.7c0-0.3,0.2-0.5,0.5-0.5s0.5,0.2,0.5,0.5v3.1
		C27.3,12.1,27.1,12.3,26.8,12.3C26.8,12.3,26.8,12.3,26.8,12.3z"/>
	<path class="st1" d="M24.2,12.3c-0.3,0-0.5-0.2-0.5-0.5V8.7c0-0.3,0.2-0.5,0.5-0.5c0.3,0,0.5,0.2,0.5,0.5v3.1
		C24.7,12.1,24.5,12.3,24.2,12.3z"/>
	<path class="st1" d="M28.8,12.3c-0.3,0-0.5-0.2-0.5-0.5V9.7c0-0.3,0.2-0.5,0.5-0.5s0.5,0.2,0.5,0.5v2.1
		C29.3,12.1,29.1,12.3,28.8,12.3C28.8,12.3,28.8,12.3,28.8,12.3z"/>
	<path class="st1" d="M15.9,12.3c-0.3,0-0.5-0.2-0.5-0.5V8.7c0-0.3,0.2-0.5,0.5-0.5s0.5,0.2,0.5,0.5v3.1
		C16.4,12.1,16.1,12.3,15.9,12.3C15.9,12.3,15.9,12.3,15.9,12.3z"/>
	<path class="st1" d="M18.4,12.3c-0.3,0-0.5-0.2-0.5-0.5V8.7c0-0.3,0.2-0.5,0.5-0.5s0.5,0.2,0.5,0.5v3.1
		C18.9,12.1,18.7,12.3,18.4,12.3C18.4,12.3,18.4,12.3,18.4,12.3z"/>
	<path class="st1" d="M13.8,12.3c-0.3,0-0.5-0.2-0.5-0.5V9.7c0-0.3,0.2-0.5,0.5-0.5s0.5,0.2,0.5,0.5v2.1
		C14.3,12.1,14.1,12.3,13.8,12.3C13.8,12.3,13.8,12.3,13.8,12.3z"/>
</g>
<polygon class="st2" points="31.3,31.2 26.8,32.8 26.8,16.2 31.3,14.7 "/>
<polygon class="st2" points="16.6,28.7 26.8,32.8 26.8,16.2 16.6,12.2 "/>
<polygon class="st3" points="26.8,16.2 16.6,12.2 21.1,10.6 31.3,14.7 "/>
<polygon class="st3" points="25.1,17.2 17.5,14.2 17.5,15.7 25.1,18.7 "/>
<polygon class="st3" points="19.1,16.7 17.5,16.1 17.5,17 19.1,17.6 "/>
<polygon class="st3" points="19.3,16.7 19.2,17.6 22.6,19 22.7,18.2 "/>
<polygon class="st3" points="17.5,24.5 25.8,27.7 25.8,27.4 17.5,24.1 "/>
<polygon class="st3" points="17.5,25.2 25.8,28.4 25.8,28.1 17.5,24.9 "/>
<polygon class="st3" points="17.5,25.9 25.8,29.1 25.8,28.8 17.5,25.6 "/>
<polygon class="st3" points="17.5,26.6 25.8,29.8 25.8,29.5 17.5,26.3 "/>
<polygon class="st3" points="17.5,27.3 25.8,30.5 25.8,30.2 17.5,27 "/>
<polygon class="st3" points="20.5,29.1 17.5,27.7 17.5,28 20.5,29.4 "/>
<path class="st4" d="M30,14.6l-9.4-3.7V8.6l10.2,4.1v1.2C30.9,15,30,14.6,30,14.6z"/>
<polygon class="st2" points="26.8,16.2 16.6,12.2 20.7,8.6 30.9,12.7 "/>
<path class="st3" d="M19,21.1c0,1.4,0.9,2.7,2.1,3.4c1.2,0.5,2.1-0.3,2.1-1.7v-0.2c0-1.4-0.8-2.7-2.1-3.4C20,18.8,19,19.5,19,20.9
	V21.1z"/>
<polygon class="st5" points="22.4,22 21.5,21.6 21.5,20.4 20.6,20.1 20.6,21.3 19.7,20.9 19.7,21.9 20.6,22.2 20.6,23.4 21.5,23.8 
	21.5,22.6 22.4,22.9 "/>
<path class="st6" d="M14.3,29.9c-0.9,0.3-2,0.3-2.9-0.1c-0.8-0.3-0.8-0.8,0-1.1c0.9-0.3,2-0.2,2.9,0.1
	C15.1,29.2,15.1,29.7,14.3,29.9z"/>
<path class="st7" d="M14.9,29.4c0,0.2-0.2,0.4-0.6,0.5c-0.9,0.3-2,0.3-2.9-0.1c-0.4-0.1-0.6-0.4-0.6-0.5l0,0v0.2l0,0
	c0,0.2,0.2,0.4,0.6,0.5c0.9,0.3,1.9,0.3,2.9,0.1c0.4-0.1,0.6-0.3,0.6-0.5V29.4z"/>
<path class="st6" d="M14,26.3c-0.7,0.2-1.5,0.2-2.2,0c-0.6-0.2-0.6-0.6,0-0.8c0.7-0.2,1.5-0.2,2.2,0C14.6,25.7,14.6,26.1,14,26.3z"
	/>
<path class="st3" d="M13.8,17.4c-0.6,0.2-1.2,0.2-1.8,0c-0.2-0.1-0.4-0.2-0.4-0.3v8.7l0,0c0,0,0.2,0.4,1.3,0.4s1.3-0.4,1.3-0.4v-8.8
	C14.1,17.2,14,17.3,13.8,17.4z"/>
<path class="st3" d="M12.8,26.2c0.4,0,0.8,0,1.1-0.2l0.1-8.7c0,0.1-0.1,0.2-0.3,0.3c-0.5,0.2-1.1,0.2-1.6,0
	c-0.2-0.1-0.3-0.2-0.3-0.3l-0.1,8.6C12,26.1,12.4,26.2,12.8,26.2z"/>
<path class="st2" d="M14,25.9L14,25.9c0-0.1-0.1-0.2-0.3-0.3c-0.5-0.2-1.1-0.2-1.6,0c-0.2,0.1-0.3,0.2-0.3,0.3l0,0
	c0.3,0.2,0.7,0.3,1.1,0.3C13.3,26.2,13.7,26.1,14,25.9z"/>
<path class="st3" d="M13.8,17.4c-0.6,0.2-1.2,0.2-1.8,0c-0.5-0.2-0.5-0.5,0-0.7c0.6-0.2,1.2-0.2,1.8,0
	C14.3,16.9,14.3,17.2,13.8,17.4z"/>
<path class="st6" d="M14,22.6c0,0.1-0.1,0.2-0.3,0.3c-0.5,0.2-1.1,0.2-1.6,0c-0.2-0.1-0.3-0.2-0.3-0.3l0,0v0.1l0,0
	c0,0.1,0.1,0.2,0.3,0.3c0.5,0.2,1.1,0.2,1.6,0c0.2-0.1,0.3-0.2,0.3-0.3V22.6z"/>
<path class="st3" d="M12,25.8c-0.2,0-0.3-0.1-0.3-0.2c0,0,0,0,0,0v-7.8c0-0.2,0.2-0.3,0.3-0.3c0,0,0,0,0,0c0.3,0,0.3,0.2,0.3,0.2
	v7.8C12.3,25.7,12.2,25.8,12,25.8C12,25.8,12,25.8,12,25.8z"/>
<path class="st2" d="M14.2,25.5v0.3c0,0-0.2,0.4-1.3,0.4s-1.3-0.4-1.3-0.4l0,0v-0.3c-0.5,0.2-0.4,0.5,0.1,0.8c0.7,0.2,1.5,0.3,2.2,0
	C14.6,26.1,14.6,25.8,14.2,25.5z"/>
<path class="st3" d="M14.5,25.9c0,0.1-0.2,0.3-0.5,0.4c-0.7,0.2-1.5,0.2-2.2,0c-0.3-0.1-0.5-0.3-0.5-0.4l0,0v0.3l0,0
	c0,0.1,0.1,0.3,0.5,0.4c0.7,0.2,1.5,0.3,2.2,0c0.3-0.1,0.5-0.2,0.5-0.4V25.9z"/>
<path class="st2" d="M12.4,23.1v2.8c0,0,0.1,0.1,0.1,0.1c0.2,0.1,0.5,0.1,0.7,0c0,0,0.1,0,0.1-0.1v-2.8C13,23.1,12.7,23.1,12.4,23.1
	z"/>
<path class="st3" d="M12.8,23.1l0,2.9l0.2,0l0-2.9L12.8,23.1z"/>
<path class="st8" d="M12.4,26.7v2.6l0,0c0,0,0.1,0.1,0.5,0.1s0.5-0.1,0.5-0.1v-2.6C13,26.8,12.7,26.8,12.4,26.7z"/>
<path class="st9" d="M12.8,26.8v2.8H13v-2.7L12.8,26.8z"/>
<path class="st10" d="M13.1,15.9c-0.2,0-0.3,0-0.5,0c-0.1,0-0.1-0.1-0.1-0.1l0,0V17l0,0c0,0,0,0.1,0.3,0.1s0.4-0.1,0.4-0.1v-1.2
	C13.2,15.8,13.2,15.8,13.1,15.9z"/>
<path class="st11" d="M13.1,15.9c-0.2,0-0.3,0-0.5,0c-0.1-0.1-0.1-0.1,0-0.2c0.2-0.1,0.3-0.1,0.5,0C13.3,15.7,13.3,15.8,13.1,15.9z"
	/>
<path class="st12" d="M13.1,15.8c-0.1,0-0.2,0-0.4,0c-0.1,0-0.1-0.1,0-0.1c0.1,0,0.2,0,0.4,0C13.1,15.7,13.1,15.8,13.1,15.8z"/>
<path class="st13" d="M12.6,15.9v1.2c0.1,0,0.2,0,0.2,0c0.1,0,0.2,0,0.2,0v-1.2C13,15.9,12.8,15.9,12.6,15.9z"/>
<path class="st14" d="M13.3,16.7c-0.3,0.1-0.5,0.1-0.8,0c-0.1,0-0.1-0.1-0.1-0.1v0.1l0,0c0,0,0.1,0.2,0.5,0.2s0.5-0.1,0.5-0.1v-0.1
	C13.4,16.6,13.4,16.7,13.3,16.7z"/>
<path class="st3" d="M13.3,16.7c-0.3,0.1-0.5,0.1-0.8,0c-0.2-0.1-0.2-0.2,0-0.3c0.3-0.1,0.5-0.1,0.8,0
	C13.5,16.5,13.5,16.6,13.3,16.7z"/>
<path class="st3" d="M13.1,15.3c-0.2,0.1-0.4,0.1-0.5,0c-0.1,0-0.1-0.1-0.1-0.1v1.3l0,0c0,0,0,0.1,0.4,0.1s0.4-0.1,0.4-0.1
	L13.1,15.3C13.2,15.2,13.2,15.3,13.1,15.3z"/>
<path class="st15" d="M13.1,15.3c-0.2,0.1-0.4,0.1-0.5,0c-0.1,0-0.1-0.1,0-0.2c0.2,0,0.4,0,0.5,0C13.3,15.1,13.3,15.2,13.1,15.3z"/>
<path class="st16" d="M13,10.2c0,0-0.1,0.1-0.1,0.1c-0.1,0-0.1,0,0-0.1C12.9,10.2,13,10.2,13,10.2C13,10.2,13,10.2,13,10.2z"/>
<path class="st17" d="M13,10.2c0,0-0.1,0.1-0.1,0.1l0,0L13,10.2C13,10.2,13,10.2,13,10.2z"/>
<g>
	<g>
		<path class="st2" d="M13.7,17.3c-0.5,0.1-1.1,0.1-1.6,0c-0.4-0.1-0.4-0.4,0-0.5c0.5-0.1,1.1-0.1,1.6,0
			C14.1,16.9,14.1,17.2,13.7,17.3z"/>
		<path class="st2" d="M13.7,22.9c0.2-0.1,0.3-0.2,0.3-0.3l0,0v-5.3c-0.1,0-0.1,0.1-0.2,0.1c-0.6,0.2-1.2,0.2-1.8,0
			c-0.1,0-0.2-0.1-0.2-0.1v5.3l0,0c0,0.1,0.1,0.2,0.3,0.3C12.6,23,13.2,23,13.7,22.9z"/>
		<path class="st2" d="M12.6,15.9v1.2c0.1,0,0.2,0,0.2,0c0.1,0,0.2,0,0.2,0v-1.2C13,15.9,12.8,15.9,12.6,15.9z"/>
		<path class="st2" d="M13,10.2L13,10.2c0,0-0.1,0.1-0.1,0.1h-0.1l0,0v4.9l0,0c0,0,0.1,0,0.1,0l0,0L13,10.2z"/>
	</g>
	<path class="st2" d="M18.4,31.7v-2.3l-4.6-0.1c0.2-0.6-0.6-1-1.1-1.2c-1.6-0.6-3.4-0.3-4.8,0.6c-0.1,0.1-0.2,0.2-0.3,0.4H7.4v2.4
		l0,0C7.4,32.3,7.7,33,8,33.7c0.1,0.2,0.3,0.3,0.7,0.2c1.6,0,6.3-0.1,8.3-0.9C18,32.6,18.5,32.2,18.4,31.7z"/>
</g>
<path class="st3" d="M17.3,28.5c-1-0.3-2.1-0.3-3.2-0.1c-0.2,0-0.4,0-0.3-0.1c0.4-0.7-0.5-1.2-1-1.3c-1.6-0.6-3.4-0.3-4.8,0.6
	c-1.3,1-0.3,3.1,0,3.8c0.1,0.2,0.3,0.3,0.7,0.2c1.6,0,6.3-0.1,8.3-0.9S18.9,29.1,17.3,28.5z"/>
<polygon class="st5" points="14,30.1 12.7,29.6 13.9,29.1 12.9,28.7 11.6,29.1 10.3,28.6 9.2,29 10.5,29.5 9.2,30 10.3,30.4 
	11.6,30 12.9,30.5 "/>
<path class="st18" d="M13.5,34.3l16.2-6.2l0,0c0.8-0.3,1.7-0.3,2.6,0l6.9,2.5c0.7,0.2,0.7,0.7,0,1L23,37.8c-0.9,0.3-1.8,0.3-2.7,0
	l-7-2.5l0,0C12.8,35,12.8,34.6,13.5,34.3z"/>
<g>
	<path class="st19" d="M33.6,30.9L33.6,30.9l2-0.8h0.1l0,0c0.1-0.1,0.3-0.1,0.4-0.1c0.4-0.1,0.8,0.3,0.9,0.7c0,0,0,0,0,0.1v0.5
		c0,0.1-0.1,0.1-0.2,0.2l0,0h-0.1h-0.1l-2,0.8c-0.4,0.1-0.9,0.1-1.3,0c-0.2-0.1-0.3-0.1-0.3-0.2v-0.5C33.1,31.2,33.3,31,33.6,30.9z"
		/>
	<path class="st20" d="M33.4,31.8l1.9-0.7c0.4-0.2,0.8-0.2,1.3-0.1c0.3,0.1,0.4,0.3,0.1,0.4l-1.9,0.7l0,0c-0.4,0.1-0.8,0.2-1.2,0.1
		C33.1,32.2,33,32,33.4,31.8z"/>
</g>
<path class="st21" d="M33.7,31l0.9-0.3c0.4,0,0.7,0.3,0.7,0.7c0,0.1,0,0.3,0,0.4l-0.8,0.3c-0.3,0.1-0.6,0.1-0.8,0
	c-0.2-0.1-0.3-0.3-0.3-0.6C33.4,31.3,33.5,31.1,33.7,31z"/>
<g>
	<path class="st19" d="M31,30L31,30l2-0.8H33l0,0c0.1,0,0.3-0.1,0.4-0.1c0.4-0.1,0.8,0.3,0.9,0.7c0,0,0,0,0,0.1v0.5
		c0,0.1-0.1,0.1-0.2,0.2l0,0h-0.1H34l-2,0.8c-0.4,0.1-0.9,0.1-1.3,0c-0.2-0.1-0.3-0.2-0.3-0.2v-0.5C30.5,30.4,30.7,30.1,31,30z"/>
	<path class="st20" d="M30.8,30.9l1.9-0.7c0.4-0.2,0.8-0.2,1.3-0.1c0.3,0.1,0.4,0.3,0.1,0.4l-1.9,0.7l0,0c-0.4,0.2-0.8,0.2-1.2,0.1
		C30.5,31.2,30.5,31,30.8,30.9z"/>
</g>
<path class="st21" d="M31.1,30.1l0.9-0.3c0.4,0,0.7,0.3,0.7,0.7c0,0.1,0,0.3,0,0.4l-0.8,0.3c-0.3,0.1-0.6,0.1-0.9,0
	c-0.2-0.1-0.3-0.3-0.3-0.6C30.8,30.4,30.9,30.2,31.1,30.1z"/>
<g>
	<path class="st19" d="M28.4,29L28.4,29l2-0.8h0.1l0,0c0.1,0,0.3-0.1,0.4-0.1c0.4-0.1,0.8,0.3,0.9,0.7c0,0,0,0,0,0.1v0.5
		c0,0.1-0.1,0.1-0.2,0.2l0,0h-0.1h0l-2,0.8c-0.4,0.1-0.9,0.1-1.3,0c-0.2-0.1-0.3-0.1-0.3-0.2v-0.5C27.9,29.4,28.1,29.1,28.4,29z"/>
	<path class="st20" d="M28.2,29.9c0,0,1.9-0.7,1.9-0.7c0.4-0.2,0.8-0.2,1.3-0.1c0.3,0.1,0.4,0.3,0.1,0.4l-1.9,0.7l0,0
		c-0.4,0.1-0.8,0.2-1.2,0.1C27.9,30.3,27.9,30.1,28.2,29.9z"/>
</g>
<path class="st21" d="M28.5,29.1l0.9-0.3c0.4,0,0.7,0.3,0.7,0.7c0,0.1,0,0.3,0,0.4l-0.8,0.3c-0.3,0.1-0.6,0.1-0.9,0
	c-0.2-0.1-0.3-0.3-0.3-0.6C28.2,29.4,28.3,29.2,28.5,29.1z"/>
<g>
	<path class="st19" d="M28.7,32.8L28.7,32.8l2-0.8h0.1l0,0c0.1,0,0.3-0.1,0.4,0c0.4-0.1,0.8,0.3,0.9,0.7c0,0,0,0,0,0.1v0.5
		c0,0.1-0.1,0.1-0.2,0.2l0,0h-0.1h0l-2,0.8c-0.4,0.1-0.9,0.1-1.3,0c-0.2-0.1-0.3-0.1-0.3-0.2v-0.5C28.2,33.2,28.4,32.9,28.7,32.8z"
		/>
	<path class="st20" d="M28.5,33.7l1.9-0.7c0.4-0.2,0.8-0.2,1.3-0.1c0.3,0.1,0.4,0.3,0.1,0.4l-1.9,0.7l0,0c-0.4,0.1-0.8,0.2-1.2,0.1
		C28.2,34,28.2,33.9,28.5,33.7z"/>
</g>
<path class="st21" d="M28.8,32.9l0.9-0.3c0.4,0,0.7,0.3,0.7,0.7c0,0.1,0,0.3,0,0.4L29.6,34c-0.3,0.1-0.6,0.1-0.9,0
	c-0.2-0.1-0.3-0.3-0.3-0.6C28.5,33.2,28.6,33,28.8,32.9z"/>
<g>
	<path class="st19" d="M26,31.8L26,31.8l2-0.8h0.1l0,0c0.1,0,0.3-0.1,0.4-0.1c0.4-0.1,0.9,0.3,0.9,0.7c0,0,0,0,0,0.1v0.5
		c0,0.1-0.1,0.2-0.2,0.2l0,0h-0.1H29l-2,0.8c-0.4,0.1-0.9,0.1-1.3,0c-0.2-0.1-0.3-0.2-0.3-0.2v-0.5C25.5,32.2,25.7,31.9,26,31.8z"/>
	<path class="st20" d="M25.8,32.8l1.9-0.8c0.4-0.1,0.9-0.1,1.3,0c0.3,0.1,0.4,0.3,0.1,0.5l-1.9,0.7l0,0c-0.4,0.2-0.8,0.2-1.3,0.1
		C25.5,33.1,25.5,32.9,25.8,32.8z"/>
</g>
<path class="st21" d="M26.1,31.9l0.9-0.4c0.4,0,0.7,0.3,0.8,0.7c0,0.1,0,0.3,0,0.4l-0.8,0.3c-0.3,0.1-0.6,0.1-0.9-0.1
	c-0.2-0.1-0.3-0.3-0.3-0.6C25.7,32.2,25.9,32,26.1,31.9z"/>
<g>
	<path class="st19" d="M23.4,30.9L23.4,30.9l2-0.8h0.1l0,0c0.1,0,0.3-0.1,0.4-0.1c0.4-0.1,0.9,0.3,0.9,0.7c0,0,0,0,0,0v0.5
		c0,0.1-0.1,0.1-0.2,0.2l0,0h-0.1h-0.1l-2,0.8c-0.4,0.1-0.9,0.1-1.3,0c-0.2-0.1-0.3-0.1-0.3-0.2v-0.5C22.9,31.3,23.1,31,23.4,30.9z"
		/>
	<path class="st20" d="M23.1,31.8l1.9-0.7c0.4-0.2,0.9-0.2,1.3-0.1c0.3,0.1,0.4,0.3,0.1,0.5l-1.9,0.7l0,0c-0.4,0.2-0.8,0.2-1.3,0.1
		C22.9,32.2,22.8,32,23.1,31.8z"/>
</g>
<path class="st21" d="M23.5,31l0.9-0.3c0.4,0,0.7,0.3,0.8,0.7c0,0.1,0,0.3,0,0.4l-0.8,0.3c-0.3,0.1-0.6,0.1-0.9,0
	c-0.2-0.1-0.3-0.3-0.3-0.6C23.1,31.3,23.3,31.1,23.5,31z"/>
<g>
	<path class="st19" d="M23.6,34.7L23.6,34.7l2-0.8h0.1l0,0c0.1,0,0.3,0,0.4,0c0.4-0.1,0.9,0.3,0.9,0.7c0,0,0,0,0,0v0.5
		c0,0.1-0.1,0.2-0.2,0.2l0,0h-0.1h-0.1l-2,0.8c-0.4,0.1-0.9,0.1-1.3,0c-0.2-0.1-0.3-0.2-0.3-0.2v-0.5C23.1,35.1,23.3,34.8,23.6,34.7
		z"/>
	<path class="st20" d="M23.4,35.6l1.9-0.7c0.4-0.2,0.9-0.2,1.3-0.1c0.3,0.1,0.4,0.3,0.1,0.5L24.8,36l0,0c-0.4,0.1-0.8,0.2-1.3,0.1
		C23.1,36,23.1,35.8,23.4,35.6z"/>
</g>
<path class="st21" d="M23.8,34.8l0.9-0.3c0.4,0,0.7,0.3,0.8,0.7c0,0.1,0,0.3,0,0.4l-0.8,0.3c-0.3,0.1-0.6,0.1-0.9,0
	c-0.2-0.1-0.3-0.3-0.3-0.6C23.4,35.1,23.6,34.9,23.8,34.8z"/>
<g>
	<path class="st19" d="M21,33.7L21,33.7l2-0.8h0.1l0,0c0.1,0,0.3-0.1,0.4-0.1c0.4-0.1,0.9,0.3,0.9,0.7c0,0,0,0,0,0.1v0.5
		c0,0.1-0.1,0.2-0.2,0.2l0,0h-0.1H24l-2,0.8c-0.4,0.1-0.9,0.1-1.3,0c-0.2-0.1-0.3-0.2-0.3-0.2v-0.5C20.5,34.1,20.7,33.8,21,33.7z"/>
	<path class="st20" d="M20.8,34.7l1.9-0.7c0.4-0.2,0.9-0.2,1.3-0.1c0.3,0.1,0.4,0.3,0.1,0.5L22.2,35l0,0c-0.4,0.2-0.8,0.2-1.2,0.1
		C20.5,35,20.5,34.8,20.8,34.7z"/>
</g>
<path class="st21" d="M21.1,33.8l0.9-0.3c0.4,0,0.7,0.3,0.7,0.7c0,0.1,0,0.3,0,0.4L21.9,35c-0.3,0.1-0.6,0.1-0.9,0
	c-0.2-0.1-0.3-0.3-0.3-0.6C20.8,34.1,20.9,33.9,21.1,33.8z"/>
<g>
	<path class="st19" d="M18.4,32.8L18.4,32.8l2-0.8h0.1l0,0c0.1,0,0.3-0.1,0.4-0.1c0.4-0.1,0.9,0.3,0.9,0.7c0,0,0,0,0,0v0.5
		c0,0.1-0.1,0.2-0.2,0.2l0,0h-0.1h-0.1l-2,0.8c-0.4,0.1-0.9,0.1-1.3,0c-0.2-0.1-0.3-0.1-0.3-0.2v-0.5C17.9,33.1,18.1,32.9,18.4,32.8
		z"/>
	<path class="st20" d="M18.2,33.7l1.9-0.7c0.4-0.2,0.9-0.2,1.3-0.1c0.3,0.1,0.4,0.3,0.1,0.5l-1.9,0.7l0,0c-0.4,0.2-0.8,0.2-1.2,0.1
		C17.9,34,17.9,33.8,18.2,33.7z"/>
</g>
<path class="st21" d="M18.5,32.9l0.9-0.3c0.4,0,0.7,0.3,0.8,0.7c0,0.1,0,0.3,0,0.4L19.3,34c-0.3,0.1-0.6,0.1-0.9,0
	c-0.2-0.1-0.3-0.3-0.3-0.6C18.1,33.2,18.3,33,18.5,32.9z"/>
<g>
	<path class="st2" d="M35.3,31.4c0-0.4-0.3-0.7-0.7-0.7l1-0.4c0.1,0,0.2-0.1,0.3-0.1c0.3,0,0.6,0.2,0.7,0.5c0,0,0,0,0,0
		c0,0.1,0,0.2,0,0.3c-0.1,0.1-0.2,0.3-0.3,0.3l-0.9,0.4C35.3,31.7,35.3,31.5,35.3,31.4z"/>
	<path class="st2" d="M32.7,30.4c0-0.4-0.3-0.7-0.7-0.7l1-0.4c0.1,0,0.2,0,0.3-0.1c0.3,0,0.6,0.2,0.7,0.5c0,0,0,0,0,0
		c0,0.1,0,0.2,0,0.3c-0.1,0.1-0.2,0.3-0.3,0.3l-1,0.4C32.7,30.7,32.7,30.6,32.7,30.4z"/>
	<path class="st2" d="M30.1,29.5c0-0.4-0.3-0.7-0.7-0.7l1-0.4c0.1,0,0.2-0.1,0.3-0.1c0.3,0,0.6,0.2,0.6,0.5c0,0,0,0,0,0
		c0,0.1,0,0.2,0,0.3c-0.1,0.1-0.2,0.3-0.3,0.3l-0.9,0.4C30.1,29.8,30.2,29.6,30.1,29.5z"/>
	<path class="st2" d="M30.4,33.3c0-0.4-0.3-0.7-0.7-0.7l1-0.4c0.1,0,0.3-0.1,0.4-0.1c0.3,0,0.6,0.2,0.7,0.5c0,0,0,0,0,0
		c0,0.1,0,0.2,0,0.3c-0.1,0.1-0.2,0.3-0.3,0.3l-0.9,0.4C30.5,33.5,30.5,33.4,30.4,33.3z"/>
	<path class="st2" d="M27.7,32.3c0-0.4-0.3-0.7-0.8-0.7l1-0.4c0.1,0,0.2,0,0.3-0.1c0.3,0,0.6,0.2,0.7,0.5c0,0,0,0,0,0
		c0,0.1,0,0.2,0,0.3c-0.1,0.1-0.2,0.3-0.3,0.3l-0.9,0.4C27.7,32.6,27.8,32.5,27.7,32.3z"/>
	<path class="st2" d="M25.1,31.4c0-0.4-0.3-0.7-0.8-0.7l1-0.4c0.1,0,0.2-0.1,0.3-0.1c0.3,0,0.6,0.2,0.7,0.5c0,0,0,0,0,0
		c0,0.1,0,0.2,0,0.4c-0.1,0.1-0.2,0.3-0.3,0.3l-0.9,0.4C25.1,31.6,25.1,31.5,25.1,31.4z"/>
	<path class="st2" d="M25.4,35.2c0-0.4-0.3-0.7-0.8-0.7l1-0.4c0.1,0,0.2,0,0.3,0c0.3,0,0.6,0.2,0.7,0.5c0,0,0,0,0,0
		c0,0.1,0,0.2,0,0.3c-0.1,0.1-0.2,0.3-0.3,0.3l-0.9,0.4C25.4,35.5,25.4,35.3,25.4,35.2z"/>
	<path class="st2" d="M22.8,34.2c0-0.4-0.3-0.7-0.7-0.7l1-0.4c0.1,0,0.2,0,0.3-0.1c0.3,0,0.6,0.2,0.7,0.5c0,0,0,0,0,0
		c0,0.1,0,0.2,0,0.3c-0.1,0.2-0.2,0.3-0.3,0.3l-0.9,0.4C22.8,34.5,22.8,34.4,22.8,34.2z"/>
	<path class="st2" d="M20.2,33.2c0-0.4-0.3-0.7-0.8-0.7l1-0.4c0.1,0,0.2-0.1,0.3-0.1c0.3,0,0.6,0.2,0.7,0.5c0,0,0,0,0,0
		c0,0.1,0,0.2,0,0.3c-0.1,0.1-0.2,0.3-0.3,0.3l-0.9,0.4C20.2,33.5,20.2,33.4,20.2,33.2z"/>
</g>
<path class="st22" d="M18.8,33l2.3-0.9h0.1c0.1,0,0.3,0.1,0.3,0.2c0,0,0,0,0,0c0,0,0,0.1,0,0.2c0,0.1-0.1,0.1-0.1,0.2l-2.2,0.9
	c-0.1,0.1-0.3,0.1-0.4,0c-0.1-0.1-0.1-0.2-0.1-0.2C18.7,33.2,18.7,33,18.8,33z"/>
<g>
	<path class="st2" d="M13,34.8L13,34.8c0,0.2,0.1,0.3,0.4,0.4l0,0l7,2.5c0.8,0.2,1.7,0.2,2.6,0l16.1-6.2c0.4-0.1,0.5-0.3,0.5-0.5
		l0,0v0.4c0,0.2-0.2,0.4-0.5,0.5L23,38.2c-0.9,0.3-1.8,0.3-2.7,0.1l-6.9-2.5c-0.4-0.1-0.6-0.3-0.6-0.5L13,34.8L13,34.8z"/>
	<path class="st2" d="M15.9,35l1.2-0.5l0,0c0.3-0.1,0.5-0.1,0.8,0l4.2,1.6c0.2,0.1,0.2,0.2,0,0.3l-1.2,0.5c-0.3,0.1-0.5,0.1-0.8,0
		l-4.2-1.6l0,0C15.7,35.2,15.7,35.1,15.9,35z"/>
</g>
<path class="st22" d="M34,31.2l2.3-0.9h0.1c0.1,0,0.3,0.1,0.3,0.2c0,0,0,0,0,0c0,0.1,0,0.1,0,0.2c0,0.1-0.1,0.1-0.1,0.1l-2.2,0.9
	c-0.1,0.1-0.3,0.1-0.4,0c-0.1-0.1-0.1-0.2-0.1-0.3C33.9,31.3,33.9,31.2,34,31.2z"/>
<path class="st22" d="M31.4,30.2l2.3-0.9h0.1c0.1,0,0.3,0.1,0.3,0.2c0,0,0,0,0,0c0,0,0,0.1,0,0.1c0,0.1-0.1,0.1-0.1,0.1l-2.2,0.9
	c-0.1,0.1-0.3,0.1-0.4,0c-0.1-0.1-0.1-0.1-0.1-0.2C31.2,30.4,31.3,30.3,31.4,30.2z"/>
<path class="st22" d="M28.8,29.3l2.3-0.9c0,0,0.1,0,0.1,0c0.1,0,0.3,0.1,0.3,0.2c0,0,0,0,0,0c0,0,0,0.1,0,0.1c0,0.1-0.1,0.1-0.1,0.1
	l-2.2,0.9c-0.1,0.1-0.3,0.1-0.4,0c-0.1-0.1-0.1-0.2-0.1-0.2C28.6,29.4,28.7,29.3,28.8,29.3z"/>
<path class="st22" d="M29.1,33l2.3-0.9h0.1c0.1,0,0.3,0.1,0.3,0.2c0,0,0,0,0,0c0,0.1,0,0.1,0,0.2c0,0.1-0.1,0.1-0.1,0.1l-2.2,0.9
	c-0.1,0.1-0.3,0.1-0.4,0c-0.1-0.1-0.1-0.2-0.1-0.3C28.9,33.2,29,33.1,29.1,33z"/>
<path class="st22" d="M26.4,32.1l2.3-0.9c0,0,0.1,0,0.1,0c0.1,0,0.3,0.1,0.3,0.2c0,0,0,0,0,0c0,0,0,0.1,0,0.1c0,0.1-0.1,0.1-0.1,0.1
	l-2.2,0.9c-0.1,0.1-0.3,0.1-0.4,0c-0.1-0.1-0.1-0.2-0.1-0.2C26.2,32.3,26.3,32.2,26.4,32.1z"/>
<path class="st22" d="M23.8,31.1l2.3-0.9c0,0,0.1,0,0.1,0c0.1,0,0.3,0.1,0.3,0.2c0,0,0,0,0,0c0,0,0,0.1,0,0.1c0,0.1-0.1,0.1-0.1,0.1
	l-2.2,0.9c-0.1,0.1-0.3,0.1-0.4,0c-0.1-0.1-0.1-0.2-0.1-0.2C23.6,31.3,23.7,31.2,23.8,31.1z"/>
<path class="st22" d="M24.1,35l2.3-0.9h0.1c0.1,0,0.3,0.1,0.3,0.2c0,0,0,0,0,0c0,0.1,0,0.1,0,0.2c0,0.1-0.1,0.1-0.1,0.2l-2.2,0.9
	c-0.1,0.1-0.3,0.1-0.4,0c-0.1-0.1-0.1-0.2-0.1-0.3C23.9,35.2,24,35,24.1,35z"/>
<path class="st22" d="M21.4,34l2.3-0.9c0,0,0.1,0,0.1,0c0.1,0,0.3,0.1,0.3,0.2c0,0,0,0,0,0c0,0,0,0.1,0,0.2c0,0.1-0.1,0.1-0.1,0.2
	l-2.2,0.9c-0.1,0.1-0.3,0.1-0.4,0c-0.1-0.1-0.1-0.2-0.1-0.2C21.3,34.2,21.3,34.1,21.4,34z"/>
</svg>
