<?xml version="1.0" encoding="utf-8"?>
<!-- Generator: Adobe Illustrator 16.0.0, SVG Export Plug-In . SVG Version: 6.00 Build 0)  -->
<!DOCTYPE svg PUBLIC "-//W3C//DTD SVG 1.1//EN" "http://www.w3.org/Graphics/SVG/1.1/DTD/svg11.dtd">
<svg version="1.1" id="Capa_1" xmlns="http://www.w3.org/2000/svg" xmlns:xlink="http://www.w3.org/1999/xlink" x="0px" y="0px"
	 width="50px" height="50px" viewBox="0 0 50 50" enable-background="new 0 0 50 50" xml:space="preserve">
<g>
	<g>
		<g>
			<path fill="#343B4E" d="M1,46.999v1.002C1,48.552,1.448,49,2,49h46.001C48.552,49,49,48.552,49,48.001v-1.002H1L1,46.999z"/>
		</g>
	</g>
	<g>
		<g>
			<path fill="#343B4E" d="M20,19H4c-0.552,0-1,0.448-1,1v28.001C3,48.552,3.448,49,4,49h16c0.553,0,1-0.448,1-0.999V20
				C21,19.448,20.553,19,20,19z M19,46.999H5V21h14V46.999z"/>
		</g>
	</g>
	<g>
		<g>
			<path fill="#343B4E" d="M46,7H30.001c-0.554,0-1.002,0.448-1.002,1v40.001c0,0.551,0.448,0.999,1.002,0.999H46
				c0.552,0,0.999-0.448,0.999-0.999V8C46.999,7.448,46.552,7,46,7z M45.001,46.999H31V9h14.001V46.999z"/>
		</g>
	</g>
	<g>
		<g>
			<path fill="#343B4E" d="M39.001,1H12c-0.553,0-1,0.448-1,1v15h2V3h24.999v2H40V2C40,1.448,39.552,1,39.001,1z"/>
		</g>
	</g>
	<g>
		<g>
			<rect x="7" y="23" fill="#343B4E" width="2" height="17.999"/>
		</g>
	</g>
	<g>
		<g>
			<rect x="11" y="23" fill="#343B4E" width="2" height="17.999"/>
		</g>
	</g>
	<g>
		<g>
			<rect x="15" y="23" fill="#343B4E" width="2" height="17.999"/>
		</g>
	</g>
	<g>
		<g>
			<rect x="30.001" y="12" fill="#343B4E" width="10.998" height="2"/>
		</g>
	</g>
	<g>
		<g>
			<rect x="30.001" y="17" fill="#343B4E" width="10.998" height="2"/>
		</g>
	</g>
	<g>
		<g>
			<rect x="30.001" y="22" fill="#343B4E" width="10.998" height="2"/>
		</g>
	</g>
	<g>
		<g>
			<rect x="30.001" y="27.001" fill="#343B4E" width="10.998" height="1.998"/>
		</g>
	</g>
	<g>
		<g>
			<rect x="30.001" y="31.999" fill="#343B4E" width="10.998" height="2.001"/>
		</g>
	</g>
	<g>
		<g>
			<rect x="30.001" y="37" fill="#343B4E" width="10.998" height="2.001"/>
		</g>
	</g>
	<g>
		<g>
			<rect x="16" y="6" fill="#343B4E" width="2" height="3"/>
		</g>
	</g>
	<g>
		<g>
			<rect x="16" y="12" fill="#343B4E" width="2" height="3"/>
		</g>
	</g>
	<g>
		<g>
			<rect x="20" y="12" fill="#343B4E" width="2" height="3"/>
		</g>
	</g>
	<g>
		<g>
			<rect x="20" y="6" fill="#343B4E" width="2" height="3"/>
		</g>
	</g>
	<g>
		<g>
			<rect x="24" y="6" fill="#343B4E" width="1.999" height="3"/>
		</g>
	</g>
	<g>
		<g>
			<rect x="24" y="12" fill="#343B4E" width="1.999" height="3"/>
		</g>
	</g>
	<g>
		<g>
			<rect x="24" y="18" fill="#343B4E" width="1.999" height="3"/>
		</g>
	</g>
	<g>
		<g>
			<rect x="24" y="24" fill="#343B4E" width="1.999" height="3.001"/>
		</g>
	</g>
	<g>
		<g>
			<rect x="24" y="30.001" fill="#343B4E" width="1.999" height="3"/>
		</g>
	</g>
	<g>
		<g>
			<rect x="24" y="36.001" fill="#343B4E" width="1.999" height="3"/>
		</g>
	</g>
	<g>
		<g>
			<path fill="#343B4E" d="M39.001,42.001H34c-0.552,0-0.999,0.447-0.999,0.999v5.001h1.998v-4.002h3v4.002H40V43
				C40,42.448,39.552,42.001,39.001,42.001z"/>
		</g>
	</g>
	<g>
		<g>
			<path fill="#343B4E" d="M16,43H8c-0.552,0-1,0.448-1,0.999v4.002h2v-3h6v3h2v-4.002C17,43.448,16.552,43,16,43z"/>
		</g>
	</g>
</g>
</svg>
