<?xml version="1.0" encoding="utf-8"?>
<!-- Generator: Adobe Illustrator 16.0.0, SVG Export Plug-In . SVG Version: 6.00 Build 0)  -->
<!DOCTYPE svg PUBLIC "-//W3C//DTD SVG 1.1//EN" "http://www.w3.org/Graphics/SVG/1.1/DTD/svg11.dtd">
<svg version="1.1" id="Layer_1" xmlns="http://www.w3.org/2000/svg" xmlns:xlink="http://www.w3.org/1999/xlink" x="0px" y="0px"
	 width="80px" height="80px" viewBox="-8.647 -15.631 80 80" enable-background="new -8.647 -15.631 80 80" xml:space="preserve">
<g>
	<path fill="#646565" d="M32.393,9.803c-0.607-0.487-1.469-0.487-2.074,0L4.858,30.768c-0.378,0.31-0.596,0.772-0.595,1.261v19.404
		c0,0.005,0,0.01,0,0.015c0.002,1.792,1.458,3.239,3.25,3.236h3.729h11.981h28.24v-0.002h3.724c0.005,0,0.01,0,0.015,0
		c1.791-0.005,3.239-1.459,3.234-3.25V32.028c0-0.486-0.214-0.946-0.583-1.261L32.393,9.803z M42.043,39.745h-7.547v7.545h-6.288
		v-7.545h-7.546v-6.288h7.546V25.91h6.288v7.547h7.547V39.745z"/>
	<path fill="#646565" d="M69.757,23.78l-11.321-9.33v-0.064L47.6,5.475v0.042l-12.122-9.98c-2.397-1.978-5.863-1.978-8.262,0
		L-7.06,23.78c-0.69,0.573-0.786,1.597-0.217,2.289l3.455,4.198c0.574,0.69,1.596,0.786,2.289,0.217L30.318,4.25
		c0.605-0.488,1.467-0.488,2.074,0l31.852,26.234c0.692,0.569,1.715,0.474,2.288-0.217l3.455-4.198
		C70.554,25.374,70.451,24.348,69.757,23.78z"/>
</g>
</svg>
