<?xml version="1.0" encoding="utf-8"?>
<!-- Generator: Adobe Illustrator 16.0.0, SVG Export Plug-In . SVG Version: 6.00 Build 0)  -->
<!DOCTYPE svg PUBLIC "-//W3C//DTD SVG 1.1//EN" "http://www.w3.org/Graphics/SVG/1.1/DTD/svg11.dtd">
<svg version="1.1" id="Layer_1" xmlns="http://www.w3.org/2000/svg" xmlns:xlink="http://www.w3.org/1999/xlink" x="0px" y="0px"
	 width="80px" height="80px" viewBox="0 0 80 80" enable-background="new 0 0 80 80" xml:space="preserve">
<g>
	<path fill="#FFFFFF" d="M41.04,25.435c-0.606-0.487-1.469-0.487-2.074,0L13.505,46.399c-0.378,0.31-0.596,0.772-0.595,1.261v19.404
		c0,0.004,0,0.01,0,0.016c0.002,1.791,1.458,3.238,3.25,3.234h3.729h11.981h28.24v-0.002h3.725c0.004,0,0.01,0,0.015,0
		c1.791-0.004,3.239-1.459,3.233-3.25V47.659c0-0.485-0.213-0.946-0.582-1.261L41.04,25.435z M50.69,55.377h-7.547v7.545h-6.288
		v-7.545H29.31v-6.289h7.546v-7.547h6.288v7.547h7.547V55.377z"/>
	<path fill="#FFFFFF" d="M78.404,39.411l-11.321-9.33v-0.064l-10.836-8.911v0.042l-12.122-9.98c-2.396-1.978-5.862-1.978-8.262,0
		L1.587,39.411c-0.69,0.573-0.786,1.597-0.217,2.289l3.455,4.198c0.574,0.689,1.596,0.786,2.289,0.217l31.851-26.234
		c0.605-0.488,1.467-0.488,2.074,0l31.853,26.234c0.691,0.569,1.715,0.475,2.288-0.217l3.454-4.198
		C79.202,41.006,79.099,39.979,78.404,39.411z"/>
</g>
</svg>
