<?xml version="1.0" encoding="utf-8"?>
<!-- Generator: Adobe Illustrator 16.0.0, SVG Export Plug-In . SVG Version: 6.00 Build 0)  -->
<!DOCTYPE svg PUBLIC "-//W3C//DTD SVG 1.1//EN" "http://www.w3.org/Graphics/SVG/1.1/DTD/svg11.dtd">
<svg version="1.1" id="Layer_1" xmlns="http://www.w3.org/2000/svg" xmlns:xlink="http://www.w3.org/1999/xlink" x="0px" y="0px"
	 width="47px" height="47px" viewBox="0 0 47 47" enable-background="new 0 0 47 47" xml:space="preserve">
<circle fill="#FCFDFF" cx="23.5" cy="23.5" r="23.5"/>
<g>
	<g>
		<path fill="#269AC6" d="M11.043,15.332c3.568,3.022,9.83,8.338,11.67,9.996c0.247,0.224,0.512,0.338,0.787,0.338
			c0.274,0,0.539-0.112,0.785-0.336c1.842-1.659,8.104-6.976,11.672-9.998c0.223-0.188,0.257-0.518,0.076-0.747
			c-0.416-0.531-1.035-0.835-1.7-0.835H12.667c-0.664,0-1.284,0.304-1.7,0.835C10.787,14.814,10.82,15.144,11.043,15.332z"/>
		<path fill="#269AC6" d="M36.186,16.97c-0.191-0.089-0.418-0.059-0.577,0.078c-3.957,3.354-9.009,7.655-10.597,9.087
			c-0.892,0.805-2.13,0.805-3.024-0.001c-1.694-1.526-7.365-6.348-10.596-9.086c-0.161-0.137-0.387-0.167-0.577-0.078
			c-0.192,0.089-0.314,0.28-0.314,0.491v13.622c0,1.195,0.972,2.167,2.167,2.167h21.667c1.195,0,2.167-0.972,2.167-2.167V17.461
			C36.5,17.25,36.377,17.058,36.186,16.97z"/>
	</g>
</g>
</svg>
