<?xml version="1.0" encoding="utf-8"?>
<!-- Generator: Adobe Illustrator 16.0.0, SVG Export Plug-In . SVG Version: 6.00 Build 0)  -->
<!DOCTYPE svg PUBLIC "-//W3C//DTD SVG 1.1//EN" "http://www.w3.org/Graphics/SVG/1.1/DTD/svg11.dtd">
<svg version="1.1" id="Layer_1" xmlns="http://www.w3.org/2000/svg" xmlns:xlink="http://www.w3.org/1999/xlink" x="0px" y="0px"
	 width="50px" height="50px" viewBox="0 0 50 50" enable-background="new 0 0 50 50" xml:space="preserve">
<g>
	<path fill="#FFFFFF" d="M24.999,2.37C12.521,2.37,2.37,12.521,2.37,25s10.15,22.63,22.629,22.63c12.479,0,22.63-10.151,22.63-22.63
		S37.479,2.37,24.999,2.37z"/>
	<path fill="#BFBFBF" d="M25,0.313C11.387,0.313,0.313,11.388,0.313,25c0,13.613,11.074,24.688,24.688,24.688
		S49.688,38.613,49.688,25C49.688,11.388,38.613,0.313,25,0.313z M25,47.63C12.521,47.63,2.371,37.479,2.371,25S12.521,2.37,25,2.37
		S47.63,12.521,47.63,25S37.479,47.63,25,47.63z"/>
	<path fill="#BFBFBF" d="M34.985,15.015c-0.401-0.402-1.054-0.402-1.455,0L25,23.546l-8.53-8.531c-0.401-0.402-1.054-0.402-1.455,0
		c-0.402,0.401-0.402,1.053,0,1.454L23.546,25l-8.531,8.53c-0.402,0.401-0.402,1.054,0,1.455c0.201,0.2,0.465,0.301,0.728,0.301
		s0.526-0.101,0.728-0.301L25,26.454l8.53,8.531c0.201,0.2,0.464,0.301,0.728,0.301s0.526-0.101,0.728-0.301
		c0.401-0.401,0.401-1.054,0-1.455L26.454,25l8.531-8.531C35.387,16.068,35.387,15.417,34.985,15.015z"/>
</g>
</svg>
