<?xml version="1.0" encoding="utf-8"?>
<!-- Generator: Adobe Illustrator 24.0.0, SVG Export Plug-In . SVG Version: 6.00 Build 0)  -->
<svg version="1.1" id="Layer_1" xmlns="http://www.w3.org/2000/svg" xmlns:xlink="http://www.w3.org/1999/xlink" x="0px" y="0px"
	 viewBox="0 0 46.6 40" style="enable-background:new 0 0 46.6 40;" xml:space="preserve">
<style type="text/css">
	.st0{clip-path:url(#SVGID_2_);}
	.st1{fill:#FF9900;}
	.st2{fill:#2F80ED;}
</style>
<g>
	<g>
		<defs>
			<rect id="SVGID_1_" x="8.1" width="30.5" height="40"/>
		</defs>
		<clipPath id="SVGID_2_">
			<use xlink:href="#SVGID_1_"  style="overflow:visible;"/>
		</clipPath>
		<g class="st0">
			<path class="st1" d="M34.3,21.6H16.1v11.1h18.2V21.6z"/>
			<path class="st2" d="M31.5,40H15.1c-2,0-3.6-1.6-3.6-3.6V18.9c0-0.5,0.4-0.8,0.8-0.8c0.4,0,0.8,0.4,0.8,0.8v17.5c0,1.1,0.9,2,2,2
				h16.4c1.1,0,2-0.9,2-2V23.2c0-0.5,0.4-0.8,0.8-0.8c0.5,0,0.8,0.4,0.8,0.8v13.3C35.1,38.4,33.5,40,31.5,40z"/>
			<path class="st2" d="M34.1,6.5c-0.5,0-0.8-0.4-0.8-0.8V3.6c0-1.1-0.9-2-2-2H15.3c-1.1,0-2,0.9-2,2v1.8c0,0.5-0.4,0.8-0.8,0.8
				c-0.5,0-0.8-0.4-0.8-0.8V3.6c0-2,1.6-3.6,3.6-3.6h16.1c2,0,3.6,1.6,3.6,3.6v2.1C35,6.1,34.6,6.5,34.1,6.5z"/>
			<path class="st2" d="M34.3,33.5h-22c-0.5,0-0.8-0.4-0.8-0.8c0-0.5,0.4-0.8,0.8-0.8h22c0.5,0,0.8,0.4,0.8,0.8
				C35.1,33.1,34.8,33.5,34.3,33.5z"/>
			<path class="st2" d="M37.8,16.1H8.8c-0.2,0-0.5-0.1-0.7-0.4c-0.1-0.2-0.2-0.5-0.1-0.7l3.8-9.6c0.1-0.3,0.4-0.5,0.7-0.5h21.3
				c0.3,0,0.6,0.2,0.7,0.5l3.8,9.6c0.1,0.2,0.1,0.5-0.1,0.7C38.2,15.9,38,16.1,37.8,16.1z M10,14.5h26.5l-3.2-8H13.2L10,14.5z"/>
			<path class="st2" d="M12.5,19.7c-2.4,0-4.4-2-4.4-4.4c0-0.5,0.4-0.8,0.8-0.8h7.2c0.5,0,0.8,0.4,0.8,0.8
				C16.9,17.7,14.9,19.7,12.5,19.7z M9.8,16.1c0.3,1.1,1.4,2,2.7,2s2.3-0.9,2.7-2H9.8z"/>
			<path class="st2" d="M19.7,19.7c-2.4,0-4.4-2-4.4-4.4c0-0.5,0.4-0.8,0.8-0.8h7.2c0.5,0,0.8,0.4,0.8,0.8
				C24.1,17.7,22.2,19.7,19.7,19.7z M17,16.1c0.3,1.1,1.4,2,2.7,2c1.3,0,2.3-0.9,2.7-2H17z"/>
			<path class="st2" d="M26.9,19.7c-2.4,0-4.4-2-4.4-4.4c0-0.5,0.4-0.8,0.8-0.8h7.2c0.5,0,0.8,0.4,0.8,0.8
				C31.3,17.7,29.3,19.7,26.9,19.7z M24.2,16.1c0.3,1.1,1.4,2,2.7,2c1.3,0,2.3-0.9,2.7-2H24.2z"/>
			<path class="st2" d="M34.1,19.7c-2.4,0-4.4-2-4.4-4.4c0-0.5,0.4-0.8,0.8-0.8h7.2c0.5,0,0.8,0.4,0.8,0.8
				C38.5,17.7,36.6,19.7,34.1,19.7z M31.4,16.1c0.3,1.1,1.4,2,2.7,2s2.3-0.9,2.7-2H31.4z"/>
		</g>
	</g>
</g>
</svg>
