<?xml version="1.0" encoding="utf-8"?>
<!-- Generator: Adobe Illustrator 16.0.0, SVG Export Plug-In . SVG Version: 6.00 Build 0)  -->
<!DOCTYPE svg PUBLIC "-//W3C//DTD SVG 1.1//EN" "http://www.w3.org/Graphics/SVG/1.1/DTD/svg11.dtd">
<svg version="1.1" id="Capa_1" xmlns="http://www.w3.org/2000/svg" xmlns:xlink="http://www.w3.org/1999/xlink" x="0px" y="0px"
	 width="80px" height="80px" viewBox="0 0 80 80" enable-background="new 0 0 80 80" xml:space="preserve">
<g>
	<g>
		<g>
			<path fill="#FFFFFF" d="M73.541,38.688l-2.021-8.08c0.553-0.117,0.967-0.607,0.967-1.194v-1.303c0-2.828-2.303-5.129-5.129-5.129
				h-9.201v-2.687c0-1.392-1.133-2.524-2.523-2.524H8.735c-1.392,0-2.525,1.132-2.525,2.524v22.146c0,0.674,0.548,1.221,1.223,1.221
				c0.674,0,1.221-0.547,1.221-1.221V20.295c0-0.045,0.036-0.082,0.082-0.082h46.896c0.045,0,0.082,0.036,0.082,0.082v22.146
				c0,0.673,0.547,1.221,1.221,1.221s1.223-0.547,1.223-1.221v-1.385h14.406c0.002,0,0.002,0,0.004,0h0.002
				c1.773,0.001,3.279,1.164,3.797,2.769h-3.799c-0.674,0-1.221,0.546-1.221,1.222v2.604c0,2.11,1.715,3.827,3.824,3.827h1.385
				v5.374h-3.193c-1.049-3.03-3.928-5.213-7.309-5.213s-6.262,2.183-7.311,5.213h-0.59v-9.201c0-0.674-0.545-1.221-1.221-1.221
				c-0.674,0-1.221,0.547-1.221,1.221v9.201H30.375c-1.048-3.029-3.928-5.212-7.309-5.212c-3.382,0-6.261,2.183-7.311,5.212H8.735
				c-0.046,0-0.082-0.036-0.082-0.081v-2.688h5.292c0.674,0,1.222-0.547,1.222-1.223c0-0.675-0.546-1.222-1.222-1.222H2.222
				C1.546,51.641,1,52.188,1,52.862c0,0.677,0.546,1.222,1.221,1.222h3.99v2.688c0,1.392,1.132,2.522,2.524,2.522h6.596
				c0,0.027-0.001,0.056-0.001,0.082c0,4.266,3.469,7.734,7.735,7.734c4.265,0,7.734-3.47,7.734-7.734
				c0-0.026-0.002-0.055-0.002-0.082H58.32c0,0.027-0.002,0.056-0.002,0.082c0,4.266,3.471,7.734,7.736,7.734
				c4.264,0,7.734-3.47,7.734-7.734c0-0.026-0.002-0.055-0.004-0.082h3.992c0.676,0,1.223-0.547,1.223-1.221V45.047
				C79,41.83,76.627,39.157,73.541,38.688z M58.156,25.424h9.201c1.48,0,2.688,1.205,2.688,2.687v0.082H58.156V25.424z
				 M58.156,38.614v-7.979h10.852l1.996,7.979H58.156z M23.065,64.668c-2.918,0-5.292-2.371-5.292-5.291
				c0-2.918,2.374-5.293,5.292-5.293c2.917,0,5.292,2.375,5.292,5.293S25.982,64.668,23.065,64.668z M66.055,64.668
				c-2.918,0-5.291-2.371-5.291-5.291c0-2.918,2.373-5.293,5.291-5.293s5.293,2.375,5.293,5.293S68.973,64.668,66.055,64.668z
				 M76.557,49.037h-1.383c-0.764,0-1.385-0.621-1.385-1.386v-1.383h2.768V49.037L76.557,49.037z"/>
		</g>
	</g>
	<g>
		<g>
			<path fill="#FFFFFF" d="M23.065,56.854c-1.392,0-2.525,1.131-2.525,2.521c0,1.394,1.133,2.525,2.525,2.525
				s2.523-1.133,2.523-2.525C25.588,57.984,24.458,56.854,23.065,56.854z"/>
		</g>
	</g>
	<g>
		<g>
			<path fill="#FFFFFF" d="M66.055,56.854c-1.393,0-2.523,1.131-2.523,2.521c0,1.394,1.133,2.525,2.523,2.525
				c1.393,0,2.523-1.133,2.523-2.525C68.578,57.984,67.445,56.854,66.055,56.854z"/>
		</g>
	</g>
	<g>
		<g>
			<path fill="#FFFFFF" d="M51.725,51.642H33.486c-0.675,0-1.222,0.547-1.222,1.222c0,0.676,0.547,1.221,1.222,1.221h18.238
				c0.674,0,1.221-0.545,1.221-1.221C52.945,52.188,52.398,51.642,51.725,51.642z"/>
		</g>
	</g>
	<g>
		<g>
			<path fill="#FFFFFF" d="M20.46,46.431H4.828c-0.675,0-1.222,0.547-1.222,1.222s0.546,1.223,1.222,1.223H20.46
				c0.674,0,1.221-0.548,1.221-1.223S21.134,46.431,20.46,46.431z"/>
		</g>
	</g>
	<g>
		<g>
			<path fill="#FFFFFF" d="M43.471,29.854c-0.479-0.477-1.252-0.477-1.729,0L30.88,40.715l-5.649-5.65
				c-0.477-0.477-1.25-0.477-1.728,0s-0.477,1.25,0,1.728l6.514,6.513c0.238,0.239,0.55,0.356,0.863,0.356s0.626-0.117,0.865-0.356
				l11.723-11.724C43.945,31.104,43.945,30.331,43.471,29.854z"/>
		</g>
	</g>
</g>
</svg>
