<svg id="Layer_1" data-name="Layer 1" xmlns="http://www.w3.org/2000/svg" width="47" height="47" viewBox="0 0 47 47">
  <title>Diagnostic</title>
  <circle cx="23.5" cy="23.5" r="23.5" style="fill: #fcfdff"/>
  <g>
    <path d="M8.71,36.75a.45.45,0,0,1,0-.9h.63a.45.45,0,1,1,0,.9ZM12,22.49H15.8a1.16,1.16,0,0,1,.85.35,1.18,1.18,0,0,1,0,1.7,1.79,1.79,0,0,1-.26.2c0,1.23,0,2.33,0,3.38l.48-.71v0a16.18,16.18,0,0,0,1.51-2.63A6.61,6.61,0,0,0,19,22.37V17.32a1.06,1.06,0,0,1-.2-.17,1.36,1.36,0,0,1,0-1.93,1.37,1.37,0,0,1,1-.41H24.1a1.37,1.37,0,0,1,1,.41,1.34,1.34,0,0,1,0,1.93,1.06,1.06,0,0,1-.2.17v5.05h0a6.61,6.61,0,0,0,.62,2.39,16.19,16.19,0,0,0,1.32,2.34,6.36,6.36,0,0,1,.59-.28V21.25a1.24,1.24,0,0,1-.22-.18,1.62,1.62,0,0,1-.31-.46,1.43,1.43,0,0,1,0-1.1,1.43,1.43,0,0,1,.78-.77,1.46,1.46,0,0,1,.55-.11h2.94a1.46,1.46,0,0,1,.55.11,1.33,1.33,0,0,1,.46.31,1.36,1.36,0,0,1,.32.46,1.39,1.39,0,0,1-.32,1.56,1,1,0,0,1-.22.18v5.57a5.94,5.94,0,0,1,2,1.31,6,6,0,0,1,.64,7.72h.78a.45.45,0,0,1,0,.9H11.12a.45.45,0,1,1,0-.9H12a2.47,2.47,0,0,1-.56-1.57c0-3.58,0-6,0-9.54l-.26-.2A1.2,1.2,0,0,1,12,22.49ZM37.43,36.75a.45.45,0,1,1,0-.9h.86a.45.45,0,1,1,0,.9Z" style="fill: #4d546a"/>
    <path d="M33.36,35.75a5.27,5.27,0,0,0,.94-1.47,5,5,0,0,0,.37-1.91,5,5,0,0,0-3.74-4.83V21.49H28.41v6.05a4.49,4.49,0,0,0-1,.4l3.28,4.86A2.36,2.36,0,0,1,31,33.94a2.77,2.77,0,0,1-.18,1.21,2.52,2.52,0,0,1-.34.6ZM12,24.05h3.9a.36.36,0,0,0,.32-.36.39.39,0,0,0-.11-.26.37.37,0,0,0-.27-.11H12a.38.38,0,0,0-.37.37.36.36,0,0,0,.11.26.35.35,0,0,0,.2.1Zm3.58,3.31H14.36A.39.39,0,0,1,14,27a.38.38,0,0,1,.39-.39h1.18c0-.54,0-1.09,0-1.69H12.28v9.39a1.59,1.59,0,0,0,.48,1.15h.66a2.22,2.22,0,0,1-.4-.68A2.7,2.7,0,0,1,12.83,34a.09.09,0,0,1,0-.05,2.45,2.45,0,0,1,.38-1.14l2.32-3.43h0V29H14.36a.38.38,0,0,1-.39-.39.39.39,0,0,1,.39-.39h1.18v-.82Zm8.56-11.6H19.77a.43.43,0,0,0-.42.43.43.43,0,0,0,.12.29.43.43,0,0,0,.3.13H24.1a.42.42,0,0,0,.3-.13.39.39,0,0,0,.13-.29.4.4,0,0,0-.13-.3.42.42,0,0,0-.3-.13ZM20,17.56v4.86h0a7.53,7.53,0,0,1-.69,2.73,18.81,18.81,0,0,1-1.59,2.77v0L14,33.33a1.49,1.49,0,0,0-.23.69,1.87,1.87,0,0,0,.11.78,1.59,1.59,0,0,0,.59.72,1.5,1.5,0,0,0,.87.27H28.52a1.54,1.54,0,0,0,.87-.27A1.57,1.57,0,0,0,30,34.8a1.6,1.6,0,0,0,.11-.78,1.48,1.48,0,0,0-.22-.69L26.2,27.92h0a19.76,19.76,0,0,1-1.59-2.77,7.74,7.74,0,0,1-.69-2.73V17.56Zm8.15,2.92h3.12l.07,0a.49.49,0,0,0,.15-.1.42.42,0,0,0,.09-.14.41.41,0,0,0,0-.16.47.47,0,0,0,0-.17.55.55,0,0,0-.09-.14.46.46,0,0,0-.15-.09.38.38,0,0,0-.16,0H28.2a.47.47,0,0,0-.17,0,.42.42,0,0,0-.14.09.55.55,0,0,0-.09.14.47.47,0,0,0,0,.17.41.41,0,0,0,0,.16.42.42,0,0,0,.09.14.45.45,0,0,0,.14.1l.08,0Z" style="fill: #fff"/>
    <path d="M33.94,34.09a4.68,4.68,0,0,1-.77,1.24H30.78a1.3,1.3,0,0,0,.08-.17A2.79,2.79,0,0,0,31,34a2.32,2.32,0,0,0-.39-1.14l-.72-1.07a2.29,2.29,0,0,0,.73.11c1.64,0,1.43-.42,2.57-.42s1.07,1.79.71,2.66ZM29,16.83a.59.59,0,1,1-.59.59.59.59,0,0,1,.59-.59Zm.63,8.68a.62.62,0,1,0,.62.62.62.62,0,0,0-.62-.62Zm1.05,3.37a1,1,0,1,0,1,1,1,1,0,0,0-1-1Z" style="fill: #00597d;fill-rule: evenodd"/>
    <path d="M26.43,29.5l2.89,4.21a.74.74,0,0,1,.12.38,1.07,1.07,0,0,1-.07.5A1,1,0,0,1,29,35a.93.93,0,0,1-.51.16H15.35a.93.93,0,0,1-.51-.16,1,1,0,0,1-.35-.43,1.21,1.21,0,0,1-.07-.5.85.85,0,0,1,.12-.38l2.63-3.9a.74.74,0,0,1,1-.18c.58.41.91,1.45,2.49,1.06,1.91-.46,3-2.19,4.07-2.19a1.8,1.8,0,0,1,1.68,1ZM23.09,8.67a.8.8,0,1,0,.8.8.8.8,0,0,0-.8-.8Zm-1.43,3.08a1,1,0,1,0,1,1,1,1,0,0,0-1-1Zm.68,11.64a.81.81,0,1,1-.81.81.82.82,0,0,1,.81-.81Zm-.76-3.21a.5.5,0,0,1,.5.5.5.5,0,0,1-1,0,.5.5,0,0,1,.49-.5Zm-.68,6.13a1.15,1.15,0,1,1-1.15,1.15,1.14,1.14,0,0,1,1.15-1.15Z" style="fill: #104271"/>
    <path d="M15,30H12.83v4a.09.09,0,0,1,0-.05,2.45,2.45,0,0,1,.38-1.14L15,30.18Z" style="fill: #00597d;fill-rule: evenodd"/>
    <path d="M14.85,20.32a.57.57,0,0,1,.58.57.58.58,0,0,1-.58.58.57.57,0,0,1-.57-.58.56.56,0,0,1,.57-.57Zm-1.94.8a.37.37,0,1,1-.38.37.37.37,0,0,1,.38-.37Z" style="fill: #00597d"/>
  </g>
</svg>
