<?xml version="1.0" encoding="utf-8"?>
<!-- Generator: Adobe Illustrator 24.0.0, SVG Export Plug-In . SVG Version: 6.00 Build 0)  -->
<svg version="1.1" id="Layer_1" xmlns="http://www.w3.org/2000/svg" xmlns:xlink="http://www.w3.org/1999/xlink" x="0px" y="0px"
	 viewBox="0 0 46.6 40" style="enable-background:new 0 0 46.6 40;" xml:space="preserve">
<style type="text/css">
	.st0{clip-path:url(#SVGID_2_);}
	.st1{fill:#FF9900;}
	.st2{fill:#2F80ED;}
</style>
<g>
	<g>
		<defs>
			<rect id="SVGID_1_" x="3.3" y="0.3" width="40" height="39.5"/>
		</defs>
		<clipPath id="SVGID_2_">
			<use xlink:href="#SVGID_1_"  style="overflow:visible;"/>
		</clipPath>
		<g class="st0">
			<path class="st1" d="M13.3,34.2c0.7-0.5,14.8-14.4,14.8-14.4l1.2-1.6v-3.4l7.6-3.2l0.7,1.4l-1.3,7.6L18.1,38.9L13.3,34.2z"/>
			<path class="st2" d="M18.1,39.7c-0.2,0-0.4-0.1-0.6-0.2L3.5,25.5c-0.3-0.3-0.3-0.8,0-1.2L21.8,6.1c0.3-0.3,0.8-0.3,1.2,0
				c0.3,0.3,0.3,0.8,0,1.2L5.3,25l12.8,12.8l17.7-17.7c0.3-0.3,0.8-0.3,1.2,0c0.3,0.3,0.3,0.8,0,1.2L18.7,39.5
				C18.5,39.6,18.3,39.7,18.1,39.7z"/>
			<path class="st2" d="M36.3,21.5c0,0-0.1,0-0.1,0c-0.5-0.1-0.7-0.5-0.7-0.9l1.2-7.9l-6.4-6.4l-7.9,1.2c-0.5,0.1-0.9-0.2-0.9-0.7
				C21.5,6.4,21.8,6,22.2,6l8.3-1.3c0.2,0,0.5,0,0.7,0.2l7,7c0.2,0.2,0.2,0.5,0.2,0.7l-1.3,8.3C37.1,21.2,36.7,21.5,36.3,21.5z"/>
			<path class="st2" d="M17.5,31.7c-0.2,0-0.4-0.1-0.6-0.2l-9.6-9.6C7,21.5,7,21,7.3,20.6c0.3-0.3,0.8-0.3,1.2,0l9.6,9.6
				c0.3,0.3,0.3,0.8,0,1.2C17.9,31.6,17.7,31.7,17.5,31.7z"/>
			<path class="st2" d="M26.5,20.7c-1,0-2.1-0.4-2.9-1.2c-1.6-1.6-1.6-4.2,0-5.8c1.6-1.6,4.2-1.6,5.8,0c1.6,1.6,1.6,4.2,0,5.8
				C28.6,20.3,27.5,20.7,26.5,20.7z M26.5,14.1c-0.6,0-1.3,0.2-1.7,0.7c-1,1-1,2.5,0,3.5c1,1,2.5,1,3.5,0c1-1,1-2.5,0-3.5
				C27.7,14.3,27.1,14.1,26.5,14.1z"/>
			<path class="st2" d="M29.2,15.5c-0.3,0-0.7-0.2-0.7-0.5c-0.2-0.4,0.1-0.9,0.5-1c3.3-1.2,11.9-4.9,12.7-8.4
				c0.2-0.8-0.1-1.6-0.8-2.3c-1-1-2-1.4-2.9-1.2c-2.3,0.5-4.4,4-4.9,5.4c-0.2,0.4-0.7,0.6-1.1,0.4c-0.4-0.2-0.6-0.7-0.4-1.1
				c0.1-0.2,2.4-5.6,6.1-6.3c1.5-0.3,3,0.2,4.4,1.7c1.5,1.5,1.5,2.9,1.3,3.8c-1.1,5-12.4,9.1-13.7,9.6
				C29.4,15.4,29.3,15.5,29.2,15.5z"/>
		</g>
	</g>
</g>
</svg>
