<?xml version="1.0" encoding="utf-8"?>
<!-- Generator: Adobe Illustrator 16.0.0, SVG Export Plug-In . SVG Version: 6.00 Build 0)  -->
<!DOCTYPE svg PUBLIC "-//W3C//DTD SVG 1.1//EN" "http://www.w3.org/Graphics/SVG/1.1/DTD/svg11.dtd">
<svg version="1.1" id="Layer_1" xmlns="http://www.w3.org/2000/svg" xmlns:xlink="http://www.w3.org/1999/xlink" x="0px" y="0px"
	 width="80px" height="80px" viewBox="0 0 80 80" enable-background="new 0 0 80 80" xml:space="preserve">
<g>
	<g>
		<path fill="#00489A" stroke="#343B4E" stroke-width="0.5" stroke-miterlimit="10" d="M72.473,72.911L69.23,53.919
			c-0.352-2.045-1.803-3.69-3.791-4.29l-8.75-2.64c-0.183-2.14-1.06-4.156-2.517-5.755c-1.169-1.277-2.637-2.208-4.255-2.72
			c0.275-0.309,0.533-0.614,0.77-0.915c2.08-2.646,3.192-5.561,3.478-7.551h0.677c1.756,0,3.184-1.428,3.184-3.184v-1.632
			c0-1.172-0.658-2.234-1.648-2.785v-3.925c0-0.593-0.48-1.074-1.074-1.074c-0.595,0-1.072,0.481-1.072,1.074v4.406
			c-0.42,0.072-0.92,0.197-1.43,0.413c-0.053,0.019-0.104,0.041-0.15,0.068c-0.116,0.052-0.23,0.108-0.346,0.17v-8.654
			c0-2.391-1.945-4.335-4.337-4.335h-2.966c-1.021,0-2.02,0.355-2.811,1.003l-0.293,0.237c-0.532,0.437-1.207,0.678-1.897,0.678
			c-0.69,0-1.364-0.241-1.899-0.678l-0.29-0.237c-0.792-0.646-1.79-1.003-2.813-1.003h-2.965c-2.391,0-4.336,1.945-4.336,4.335
			v8.654c-0.115-0.063-0.229-0.118-0.344-0.17c-0.049-0.027-0.101-0.049-0.152-0.068c-0.51-0.216-1.01-0.341-1.428-0.413v-11.14
			c0-3.478,2.829-6.306,6.306-6.306h15.841c3.479,0,6.308,2.829,6.308,6.306v1.688c0,0.593,0.479,1.074,1.073,1.074
			c0.593,0,1.072-0.481,1.072-1.074v-1.688c0-4.662-3.792-8.454-8.453-8.454H32.08c-4.661,0-8.453,3.792-8.453,8.454v10.66
			c-0.991,0.551-1.652,1.613-1.652,2.785v1.632c0,1.756,1.428,3.185,3.184,3.185h0.676c0.284,1.99,1.398,4.905,3.478,7.551
			c0.235,0.298,0.493,0.605,0.77,0.914c-3.721,1.182-6.436,4.527-6.772,8.476l-8.75,2.64c-1.988,0.6-3.44,2.245-3.79,4.29
			l-1.318,7.713c-0.098,0.585,0.296,1.14,0.88,1.238c0.584,0.101,1.139-0.292,1.239-0.875l1.316-7.715
			c0.212-1.237,1.091-2.231,2.293-2.595l8.094-2.441v2.124c-1.856,0.341-3.435,1.614-4.084,3.381
			c-0.172,0.47-0.279,0.96-0.318,1.458L18.091,66.25c-0.06,0.757,0.202,1.509,0.716,2.064c0.516,0.558,1.246,0.875,2.005,0.875
			h1.337c0.593,0,1.074-0.479,1.074-1.071c0-0.595-0.481-1.074-1.074-1.074h-1.337c-0.164,0-0.318-0.069-0.428-0.187
			c-0.11-0.121-0.165-0.28-0.154-0.442l0.782-10.039c0.024-0.301,0.089-0.601,0.195-0.883c0.451-1.228,1.672-2.06,3.039-2.069
			l0.176-0.001c0.009,0,0.016,0,0.024,0c1.33,0,2.503,0.753,2.999,1.923c0.139,0.327,0.224,0.676,0.252,1.03l0.782,10.039
			c0.011,0.162-0.043,0.321-0.154,0.442c-0.11,0.117-0.265,0.187-0.428,0.187H26.56c-0.593,0-1.074,0.479-1.074,1.074
			c0,0.592,0.481,1.071,1.074,1.071h1.337c0.759,0,1.49-0.317,2.005-0.875c0.514-0.557,0.776-1.311,0.716-2.064l-0.782-10.041
			c-0.046-0.586-0.185-1.159-0.416-1.701c-0.708-1.67-2.22-2.832-4-3.145v-2.766l3.691-1.113c0.335,0.707,1.003,2.234,2.321,5.531
			c1.329,3.323,2.979,7.586,4.563,11.729c0.011,0.034,0.025,0.067,0.04,0.101c1.057,2.769,2.083,5.475,2.959,7.813
			c0.158,0.419,0.559,0.696,1.006,0.696s0.848-0.277,1.006-0.696c0.876-2.339,1.901-5.045,2.958-7.813
			c0.015-0.031,0.029-0.066,0.04-0.101c1.582-4.142,3.232-8.399,4.563-11.724c1.32-3.301,1.984-4.83,2.322-5.537l3.691,1.113v6.342
			c-2.559,0.496-4.497,2.754-4.497,5.455c0,3.063,2.494,5.556,5.558,5.556c3.065,0,5.559-2.493,5.559-5.556
			c0-2.691-1.926-4.943-4.473-5.449v-5.699l8.094,2.441c1.201,0.362,2.082,1.356,2.293,2.595l3.242,18.993
			c0.056,0.313-0.027,0.623-0.233,0.867c-0.206,0.242-0.495,0.377-0.815,0.377H10.695c-0.321,0-0.61-0.135-0.816-0.377
			c-0.206-0.244-0.289-0.554-0.235-0.867l1.07-6.27c0.098-0.585-0.294-1.139-0.878-1.238c-0.584-0.099-1.14,0.293-1.239,0.877
			l-1.07,6.269c-0.161,0.937,0.099,1.888,0.71,2.612c0.614,0.728,1.507,1.144,2.458,1.144h58.61c0.95,0,1.844-0.416,2.457-1.144
			C72.374,74.799,72.634,73.848,72.473,72.911z M54.238,25.117c0.572-0.143,1.033-0.14,1.037-0.14
			c0.187,0.002,0.365-0.041,0.524-0.125c0.05,0.12,0.078,0.247,0.078,0.38v1.632c0,0.572-0.466,1.037-1.037,1.037h-0.603V25.117
			L54.238,25.117z M25.76,27.902L25.76,27.902h-0.602c-0.571,0-1.037-0.465-1.037-1.037v-1.632c0-0.133,0.029-0.261,0.078-0.379
			c0.159,0.083,0.339,0.126,0.524,0.124c0.009,0.001,0.467-0.001,1.037,0.141V27.902z M27.908,29.105v-2.822
			c0.324,0.098,0.681,0.084,1.009-0.052c0.564-0.236,0.928-0.781,0.928-1.392v-9.913c0-1.207,0.982-2.188,2.188-2.188h2.965
			c0.527,0,1.043,0.184,1.453,0.519l0.291,0.237c0.917,0.75,2.074,1.163,3.258,1.163c1.184,0,2.342-0.413,3.259-1.163l0.29-0.237
			c0.409-0.335,0.926-0.519,1.452-0.519h2.966c1.206,0,2.188,0.982,2.188,2.188v9.914c0,0.61,0.363,1.155,0.929,1.391
			c0.188,0.079,0.385,0.117,0.58,0.117c0.146,0,0.29-0.021,0.428-0.063v2.82c0,1.567-1.082,4.612-3.091,7.167
			c-0.667,0.846-1.521,1.755-2.574,2.55c-0.033,0.023-0.066,0.047-0.097,0.073C44.698,40.1,42.6,41.023,40,41.023
			c-2.601,0-4.698-0.923-6.331-2.129c-0.029-0.024-0.062-0.049-0.095-0.072c-1.054-0.795-1.908-1.704-2.574-2.55
			C28.991,33.718,27.908,30.673,27.908,29.105z M47.035,46.455L40,51.713l-7.036-5.258c0.698-0.887,1.088-2.025,1.088-3.04v-1.731
			c1.655,0.89,3.629,1.49,5.947,1.49c2.317,0,4.293-0.602,5.946-1.49v1.731C45.947,44.43,46.338,45.568,47.035,46.455z
			 M31.171,45.257c-0.573-0.218-1.208-0.256-1.811-0.092c-0.025,0.008-0.051,0.015-0.077,0.021l-3.71,1.119
			c0.627-3.084,3.134-5.539,6.33-6.016v3.126C31.904,44.088,31.604,44.784,31.171,45.257z M34.087,53.877
			c-0.003-0.003-0.004-0.01-0.005-0.016c-0.055-0.137-0.109-0.272-0.162-0.407c-0.01-0.022-0.019-0.048-0.03-0.072
			c-0.052-0.13-0.103-0.262-0.154-0.39c-0.003-0.012-0.006-0.018-0.01-0.027c-0.159-0.398-0.312-0.783-0.46-1.15
			c-0.011-0.025-0.021-0.056-0.031-0.082c-0.043-0.104-0.086-0.209-0.126-0.311c-0.015-0.038-0.031-0.074-0.045-0.113
			c-0.04-0.098-0.08-0.195-0.119-0.293c-0.011-0.029-0.023-0.059-0.036-0.086c-0.07-0.175-0.14-0.349-0.208-0.514
			c-0.019-0.046-0.037-0.091-0.056-0.137c-0.026-0.064-0.051-0.129-0.077-0.192c-0.029-0.067-0.057-0.136-0.084-0.204
			c-0.01-0.023-0.021-0.052-0.031-0.076c-0.007-0.019-0.016-0.037-0.024-0.058c-0.123-0.302-0.241-0.586-0.353-0.853
			c-0.001-0.002-0.003-0.004-0.003-0.008c-0.061-0.141-0.119-0.281-0.174-0.414c-0.029-0.067-0.058-0.136-0.086-0.201l6.05,4.522
			l-2.526,1.074c-0.006,0.003-0.01,0.003-0.015,0.005l-1.055,0.448C34.206,54.174,34.145,54.023,34.087,53.877z M36.648,60.453
			c-0.212-0.551-0.424-1.104-0.639-1.657c-0.335-0.866-0.656-1.688-0.961-2.471l0.4-0.171l1.638,1.904L36.648,60.453z M40.02,69.182
			c-0.03-0.063-0.065-0.125-0.109-0.181c-0.485-1.283-1.102-2.907-1.783-4.692l1.002-5.488h1.738l1.003,5.488
			C41.158,66.18,40.516,67.872,40.02,69.182z M41.271,56.672h-2.543l-1.204-1.398L40,54.223l2.475,1.051L41.271,56.672z
			 M43.991,58.796c-0.216,0.554-0.429,1.106-0.64,1.657l-0.438-2.395l1.637-1.906l0.4,0.173
			C44.646,57.105,44.325,57.93,43.991,58.796z M48.104,48.477c-0.054,0.127-0.108,0.258-0.166,0.393
			c-0.006,0.02-0.015,0.033-0.021,0.052c-0.058,0.134-0.112,0.271-0.17,0.411c-0.004,0.011-0.011,0.02-0.013,0.029
			c-0.053,0.121-0.104,0.248-0.155,0.375c-0.011,0.024-0.021,0.047-0.03,0.07c-0.011,0.03-0.023,0.06-0.035,0.09
			c-0.021,0.058-0.049,0.115-0.072,0.174c-0.028,0.072-0.059,0.145-0.088,0.218c-0.01,0.024-0.021,0.048-0.029,0.071
			c-0.074,0.184-0.149,0.371-0.23,0.565c-0.012,0.029-0.021,0.062-0.035,0.091c-0.039,0.098-0.078,0.193-0.119,0.293
			c-0.015,0.039-0.03,0.075-0.045,0.115c-0.041,0.1-0.084,0.203-0.125,0.309c-0.014,0.029-0.023,0.06-0.037,0.088
			c-0.144,0.363-0.295,0.742-0.451,1.137c-0.006,0.014-0.012,0.025-0.018,0.038c-0.05,0.129-0.101,0.258-0.152,0.388
			c-0.01,0.024-0.021,0.049-0.028,0.072c-0.054,0.135-0.108,0.273-0.163,0.41c0,0.003-0.003,0.007-0.003,0.01
			c-0.062,0.148-0.117,0.297-0.179,0.452l-1.057-0.45c-0.004-0.001-0.009-0.002-0.012-0.005l-2.529-1.074l6.051-4.522
			C48.161,48.34,48.132,48.407,48.104,48.477z M50.717,45.186L50.717,45.186c-0.003,0-0.003,0-0.004,0
			c-0.624-0.187-1.288-0.154-1.885,0.071c-0.432-0.473-0.732-1.169-0.732-1.842v-3.128c3.217,0.475,5.715,2.908,6.336,6.021
			L50.717,45.186z M59.05,60.393c0,1.881-1.53,3.409-3.409,3.409s-3.408-1.528-3.408-3.409c0-1.879,1.529-3.408,3.408-3.408
			S59.05,58.514,59.05,60.393z"/>
	</g>
</g>
</svg>
