<?xml version="1.0" encoding="utf-8"?>
<!-- Generator: Adobe Illustrator 16.0.0, SVG Export Plug-In . SVG Version: 6.00 Build 0)  -->
<!DOCTYPE svg PUBLIC "-//W3C//DTD SVG 1.1//EN" "http://www.w3.org/Graphics/SVG/1.1/DTD/svg11.dtd">
<svg version="1.1" id="Layer_1" xmlns="http://www.w3.org/2000/svg" xmlns:xlink="http://www.w3.org/1999/xlink" x="0px" y="0px"
	 width="47px" height="47px" viewBox="0 0 47 47" enable-background="new 0 0 47 47" xml:space="preserve">
<title>e-consultation (OP24)</title>
<path fill="#FCFDFF" d="M23.5,0C10.521,0,0,10.521,0,23.5S10.521,47,23.5,47S47,36.479,47,23.5S36.479,0,23.5,0z"/>
<g>
	<path fill="#104271" d="M30.35,32.77c0.006,0.447-0.353,0.814-0.8,0.82s-0.813-0.353-0.819-0.8s0.353-0.814,0.8-0.819
		c0.007-0.001,0.013-0.001,0.02,0C29.992,31.971,30.35,32.328,30.35,32.77z"/>
	<path fill="#104271" d="M29.24,17.54c0.32-0.827,0.42-1.723,0.289-2.6c-0.43-1.76-2.649-3.53-6-3.53c-3.35,0-5.6,1.77-6,3.53
		c-0.13,0.877-0.03,1.773,0.29,2.6c-0.845,0.277-1.305,1.186-1.029,2.031c0.217,0.661,0.833,1.108,1.529,1.109l0,0
		c0.291,1.684,1.317,3.151,2.8,4c0,0,0,0,0,0.061v1.609c-0.035,0.225,0.117,0.434,0.341,0.469c0.224,0.035,0.434-0.117,0.469-0.341
		c0.006-0.042,0.006-0.085,0-0.128v-1.26c0.501,0.252,1.049,0.398,1.61,0.43c0.561-0.031,1.108-0.178,1.61-0.43v1.23
		c-0.035,0.223,0.117,0.434,0.341,0.469s0.434-0.117,0.469-0.342c0.007-0.042,0.007-0.085,0-0.127v-1.61c0,0,0,0,0-0.06
		c1.483-0.85,2.51-2.316,2.8-4l0,0c0.89,0,1.609-0.722,1.609-1.611c-0.001-0.695-0.448-1.312-1.109-1.529L29.24,17.54z M18.24,19.87
		c-0.445,0.049-0.846-0.271-0.895-0.715c-0.05-0.444,0.271-0.845,0.715-0.895c0.06-0.006,0.12-0.006,0.18,0V19.87z M27.91,20.27
		c0,2.39-3,4.44-4.43,4.44s-4.43-2.05-4.43-4.44v-2.15c2.268-0.406,4.43-1.263,6.36-2.52c0.686,0.948,1.539,1.762,2.52,2.4
		L27.91,20.27z M28.721,19.87v-1.61c0.443-0.049,0.845,0.271,0.895,0.715c0.049,0.445-0.271,0.845-0.715,0.895
		C28.84,19.876,28.779,19.876,28.721,19.87z"/>
	<path fill="#104271" d="M26.73,19.07c0,0.448-0.363,0.81-0.811,0.81s-0.811-0.362-0.811-0.81c0-0.447,0.363-0.81,0.811-0.81l0,0
		C26.367,18.26,26.73,18.623,26.73,19.07z"/>
	<path fill="#104271" d="M21.89,19.07c0,0.448-0.363,0.81-0.81,0.81s-0.81-0.362-0.81-0.81c0-0.447,0.363-0.81,0.81-0.81
		S21.89,18.623,21.89,19.07L21.89,19.07z"/>
	<path fill="#104271" d="M24.46,22c-0.574,0.411-1.346,0.411-1.92,0c-0.108-0.1-0.262-0.131-0.4-0.08
		c-0.137,0.054-0.235,0.175-0.26,0.32c-0.023,0.146,0.039,0.294,0.16,0.38c0.861,0.66,2.059,0.66,2.92,0
		c0.122-0.086,0.184-0.233,0.16-0.38c-0.024-0.145-0.124-0.267-0.261-0.32C24.723,21.869,24.568,21.9,24.46,22z"/>
	<path fill="#052E55" d="M23.1,29.779l-3.35-3.34c-0.071-0.079-0.173-0.123-0.28-0.119h-0.4c-0.405,0.003-0.81,0.036-1.21,0.1v3.34
		c1.138,0.109,2.005,1.067,2,2.211v2c0,0.221-0.179,0.399-0.4,0.399l0,0h-0.81c-0.221,0-0.4-0.179-0.4-0.399s0.178-0.4,0.399-0.4
		c0,0,0,0,0.001,0h0.41V32c-0.005-0.782-0.638-1.414-1.42-1.42h-0.4c-0.777,0.011-1.4,0.644-1.4,1.42v1.609h0.4
		c0.221,0,0.4,0.18,0.4,0.4c0,0.221-0.179,0.4-0.399,0.4c0,0-0.001,0-0.001,0h-0.8c-0.22,0.021-0.416-0.139-0.438-0.357
		C15,34.035,15,34.018,15,34v-2c0.004-1.14,0.867-2.092,2-2.21V26.6c-3.289,0.969-5.558,3.973-5.59,7.4v1.21
		c0,0.221,0.179,0.399,0.4,0.399l0,0H23.1V29.779z M35.58,33.59c0-0.1,0-0.21,0-0.311v-0.26c0-0.1,0-0.209-0.051-0.31l-0.059-0.31
		c0-0.101,0-0.2-0.07-0.311c-0.07-0.109-0.07-0.23-0.101-0.35l-0.149-0.4c0-0.09-0.07-0.18-0.11-0.27c0-0.029-0.015-0.056-0.04-0.07
		c-0.044-0.109-0.094-0.217-0.15-0.32l-0.119-0.25c-0.07-0.14-0.15-0.27-0.23-0.41l-0.21-0.31l-0.21-0.3l-0.221-0.28
		c-0.649-0.78-1.439-1.431-2.33-1.92l-0.279-0.14L31,27c-0.237-0.107-0.481-0.201-0.73-0.279L30,26.62l0,0v4.61
		c0.86,0.223,1.377,1.102,1.153,1.963c-0.224,0.86-1.103,1.377-1.964,1.153c-0.859-0.224-1.377-1.103-1.152-1.964
		c0.146-0.564,0.588-1.006,1.152-1.152V26.42H28.98h-0.25H28.38h-0.8c-0.106-0.004-0.209,0.041-0.28,0.12l-3.4,3.239v5.811h11.29
		c0.222,0,0.4-0.179,0.4-0.4l0,0V34C35.59,33.85,35.59,33.721,35.58,33.59z"/>
</g>
</svg>
