<?xml version="1.0" encoding="utf-8"?>
<!-- Generator: Adobe Illustrator 24.0.0, SVG Export Plug-In . SVG Version: 6.00 Build 0)  -->
<svg version="1.1" id="Layer_1" xmlns="http://www.w3.org/2000/svg" xmlns:xlink="http://www.w3.org/1999/xlink" x="0px" y="0px"
	 viewBox="0 0 46.6 40" style="enable-background:new 0 0 46.6 40;" xml:space="preserve">
<style type="text/css">
	.st0{fill:#FF9900;}
	.st1{fill:#2F80ED;}
</style>
<g>
	<path class="st0" d="M45.6,23.3H0.9v4.4h44.7V23.3z"/>
	<path class="st1" d="M41.2,35H5.4C2.4,35,0,32.6,0,29.7V10.3C0,7.4,2.4,5,5.4,5h35.9c2.9,0,5.3,2.4,5.3,5.3v19.3
		C46.6,32.6,44.2,35,41.2,35z M5.4,6.9c-1.9,0-3.5,1.5-3.5,3.5v19.3c0,1.9,1.5,3.5,3.5,3.5h35.9c1.9,0,3.5-1.5,3.5-3.5V10.3
		c0-1.9-1.5-3.5-3.5-3.5H5.4L5.4,6.9z"/>
	<path class="st1" d="M32,24.3H0.9c-0.5,0-0.9-0.4-0.9-1c0-0.5,0.4-0.9,0.9-0.9H32c0.5,0,0.9,0.4,0.9,0.9C33,23.8,32.6,24.3,32,24.3
		z"/>
	<path class="st1" d="M39.7,24.3h-2.3c-0.5,0-0.9-0.4-0.9-0.9c0-0.5,0.4-0.9,0.9-0.9h2.3c0.5,0,0.9,0.4,0.9,0.9
		C40.7,23.8,40.2,24.3,39.7,24.3z"/>
	<path class="st1" d="M11.1,15.8H8.8c-0.5,0-0.9-0.4-0.9-0.9c0-0.5,0.4-0.9,0.9-0.9h2.3c0.5,0,0.9,0.4,0.9,0.9
		C12,15.4,11.6,15.8,11.1,15.8z"/>
	<path class="st1" d="M18.7,15.8h-2.3c-0.5,0-0.9-0.4-0.9-0.9c0-0.5,0.4-0.9,0.9-0.9h2.3c0.5,0,0.9,0.4,0.9,0.9
		C19.6,15.4,19.1,15.8,18.7,15.8z"/>
	<path class="st1" d="M26.2,15.8h-2.3c-0.5,0-0.9-0.4-0.9-0.9c0-0.5,0.4-0.9,0.9-0.9h2.3c0.5,0,0.9,0.4,0.9,0.9
		C27.1,15.4,26.7,15.8,26.2,15.8z"/>
	<path class="st1" d="M45.6,28.6H0.9c-0.5,0-0.9-0.4-0.9-0.9c0-0.5,0.4-0.9,0.9-0.9h44.7c0.5,0,0.9,0.4,0.9,0.9
		C46.6,28.2,46.1,28.6,45.6,28.6z"/>
</g>
</svg>
