<?xml version="1.0" encoding="utf-8"?>
<!-- Generator: Adobe Illustrator 16.0.0, SVG Export Plug-In . SVG Version: 6.00 Build 0)  -->
<!DOCTYPE svg PUBLIC "-//W3C//DTD SVG 1.1//EN" "http://www.w3.org/Graphics/SVG/1.1/DTD/svg11.dtd">
<svg version="1.1" id="Layer_1" xmlns="http://www.w3.org/2000/svg" xmlns:xlink="http://www.w3.org/1999/xlink" x="0px" y="0px"
	 width="185px" height="56.45px" viewBox="-68.5 -20.902 185 56.45" enable-background="new -68.5 -20.902 185 56.45"
	 xml:space="preserve">
<g>
	<path fill="#528B2D" d="M-37.723-19.785c14.972,0,27.108,12.135,27.108,27.106c0,1.345-0.1,2.66-0.287,3.95h-1.025v0.019h-12.68
		V3.356h4.816c-1.813-8.233-9.152-14.394-17.933-14.394c-10.143,0-18.362,8.22-18.362,18.363c0,10.142,8.222,18.365,18.362,18.365
		c7.829,0,14.513-4.897,17.153-11.798h9.148c-2.933,11.798-13.596,20.542-26.305,20.542c-14.973,0-27.104-12.138-27.104-27.109
		c0-14.973,12.136-27.106,27.104-27.106L-37.723-19.785z"/>
	<g>
		<defs>
			<path id="SVGID_1_" d="M-37.723-19.785c14.972,0,27.108,12.135,27.108,27.106c0,1.345-0.1,2.66-0.287,3.95h-1.025v0.019h-12.68
				V3.356h4.816c-1.813-8.233-9.152-14.394-17.933-14.394c-10.143,0-18.362,8.22-18.362,18.363c0,10.142,8.222,18.365,18.362,18.365
				c7.829,0,14.513-4.897,17.153-11.798h9.148c-2.933,11.798-13.596,20.542-26.305,20.542c-14.973,0-27.104-12.138-27.104-27.109
				c0-14.973,12.136-27.106,27.104-27.106L-37.723-19.785z"/>
		</defs>
		<use xlink:href="#SVGID_1_"  overflow="visible" fill="#528B2D"/>
		<clipPath id="SVGID_2_">
			<use xlink:href="#SVGID_1_"  overflow="visible"/>
		</clipPath>
		<g clip-path="url(#SVGID_2_)">
			<g>
				<path id="_x31_" fill="#528B2D" d="M-20.702,13.097l0.389,1.432c0,0-0.911,8.328-8.721,12.232
					c-16.804,7.641-32.842-7.042-36.103-22.505l-3.977,0.903l2.345,36.176c0,0,42.419,2.082,43.459,1.821
					c1.042-0.26,22.382-16.396,22.382-16.396l-1.302-12.753l-14.574-1.562l-3.903,0.65H-20.702z"/>
				<path fill="#528B2D" d="M-10.676,12.295C-9.25-12.66-34.294-17.71-45.285-11.117c-2.366,1.421-5.354,4.06-6.291,6.387
					l20.2-0.776l6.246,2.862l-0.519,7.548l-0.263,8.848l15.23-1.456H-10.676z"/>
			</g>
		</g>
	</g>
	<path fill="#528B2D" d="M-37.723-19.785c14.972,0,27.108,12.135,27.108,27.106c0,1.345-0.1,2.66-0.287,3.95h-1.025v0.019h-12.68
		V3.356h4.816c-1.813-8.233-9.152-14.394-17.933-14.394c-10.143,0-18.362,8.22-18.362,18.363c0,10.142,8.222,18.365,18.362,18.365
		c7.829,0,14.513-4.897,17.153-11.798h9.148c-2.933,11.798-13.596,20.542-26.305,20.542c-14.973,0-27.104-12.138-27.104-27.109
		c0-14.973,12.136-27.106,27.104-27.106L-37.723-19.785z"/>
	<polygon fill="#528B2D" points="-26.967,3.852 -26.967,10.874 -34.649,10.874 -34.649,18.552 -41.67,18.552 -41.67,10.874 
		-49.351,10.874 -49.351,3.852 -41.67,3.852 -41.67,-3.83 -34.649,-3.83 -34.649,3.852 	"/>
	<g>
		<defs>
			<polygon id="SVGID_3_" points="-26.967,3.852 -26.967,10.874 -34.649,10.874 -34.649,18.552 -41.67,18.552 -41.67,10.874 
				-49.351,10.874 -49.351,3.852 -41.67,3.852 -41.67,-3.83 -34.649,-3.83 -34.649,3.852 			"/>
		</defs>
		<use xlink:href="#SVGID_3_"  overflow="visible" fill="#528B2D"/>
		<clipPath id="SVGID_4_">
			<use xlink:href="#SVGID_3_"  overflow="visible"/>
		</clipPath>
		<g clip-path="url(#SVGID_4_)">
			<g>
				<path id="_x31__1_" fill="#528B2D" d="M-42.035-5.062c0,0-2.117,6.293,2.803,8.122c0,0,2.174,0.856,4.576,0.799l2.403-3.372
					l-1.201-5.094l-8.581-0.459V-5.062z"/>
				<path fill="#528B2D" d="M-34.464,19.495c0,0,2.044-6.072-2.705-7.84c0,0-2.097-0.828-4.416-0.774l-2.318,3.257l1.16,4.913
					L-34.464,19.495z"/>
			</g>
		</g>
	</g>
	<polygon fill="#528B2D" points="-26.967,3.852 -26.967,10.874 -34.649,10.874 -34.649,18.552 -41.67,18.552 -41.67,10.874 
		-49.351,10.874 -49.351,3.852 -41.67,3.852 -41.67,-3.83 -34.649,-3.83 -34.649,3.852 	"/>
	<path fill="#528B2D" d="M103.35-13.835v-4.945h-1.762v-1.009h4.721v1.009h-1.752v4.945h-1.203H103.35z M107.072-13.835v-5.95h1.803
		l1.066,4.06l1.057-4.06h1.811v5.95h-1.113l-0.004-4.685l-1.174,4.685h-1.16l-1.168-4.685l-0.008,4.685h-1.113H107.072z"/>
	<path fill="#528B2D" d="M-0.147,17.562v-1.11h2.852v2.617c-0.278,0.274-0.679,0.51-1.207,0.716
		c-0.525,0.206-1.061,0.308-1.603,0.308c-0.686,0-1.283-0.145-1.793-0.435c-0.51-0.289-0.894-0.704-1.149-1.239
		c-0.255-0.535-0.386-1.124-0.386-1.753c0-0.688,0.144-1.294,0.429-1.829c0.287-0.535,0.707-0.94,1.258-1.226
		c0.421-0.221,0.947-0.329,1.572-0.329c0.815,0,1.453,0.17,1.91,0.514c0.46,0.343,0.752,0.82,0.883,1.424l-1.321,0.25
		c-0.091-0.326-0.266-0.579-0.522-0.767c-0.253-0.188-0.573-0.278-0.954-0.278c-0.578,0-1.039,0.181-1.381,0.549
		c-0.34,0.369-0.512,0.915-0.512,1.642c0,0.78,0.174,1.366,0.517,1.753c0.348,0.391,0.801,0.589,1.363,0.589
		c0.276,0,0.553-0.054,0.833-0.162c0.28-0.112,0.517-0.242,0.718-0.397v-0.835h-1.515H-0.147z M3.796,19.976v-6.567h1.258v6.567
		H3.796z M5.924,17.536c0-0.416,0.101-0.82,0.309-1.215c0.208-0.394,0.499-0.69,0.877-0.896c0.377-0.21,0.799-0.311,1.263-0.311
		c0.72,0,1.309,0.231,1.77,0.697c0.461,0.47,0.69,1.063,0.69,1.775c0,0.723-0.231,1.319-0.695,1.796
		c-0.465,0.474-1.047,0.709-1.754,0.709c-0.438,0-0.853-0.098-1.247-0.293c-0.396-0.199-0.695-0.488-0.903-0.871
		C6.025,18.548,5.924,18.085,5.924,17.536L5.924,17.536z M7.216,17.609c0,0.47,0.112,0.831,0.336,1.084
		c0.226,0.253,0.501,0.376,0.828,0.376c0.328,0,0.604-0.123,0.824-0.376c0.22-0.253,0.332-0.618,0.332-1.095
		c0-0.467-0.112-0.828-0.332-1.077c-0.221-0.253-0.499-0.38-0.824-0.38c-0.327,0-0.603,0.127-0.828,0.38
		c-0.223,0.249-0.336,0.61-0.336,1.084V17.609z M11.637,19.98v-6.571h1.258v2.371c0.389-0.444,0.848-0.665,1.379-0.665
		c0.58,0,1.057,0.21,1.435,0.629c0.382,0.423,0.567,1.022,0.567,1.814c0,0.81-0.191,1.438-0.578,1.88
		c-0.385,0.44-0.856,0.661-1.409,0.661c-0.271,0-0.537-0.072-0.805-0.21c-0.264-0.141-0.493-0.343-0.685-0.607v0.698h-1.164H11.637z
		 M12.876,17.507c0,0.491,0.08,0.86,0.235,1.096c0.219,0.336,0.508,0.502,0.871,0.502c0.276,0,0.513-0.115,0.712-0.357
		c0.193-0.235,0.293-0.614,0.293-1.128c0-0.546-0.1-0.937-0.297-1.179c-0.196-0.242-0.45-0.365-0.759-0.365
		c-0.304,0-0.555,0.12-0.754,0.354c-0.2,0.235-0.302,0.593-0.302,1.073V17.507z M18.105,16.687l-1.139-0.206
		c0.129-0.467,0.351-0.81,0.665-1.03c0.314-0.224,0.781-0.336,1.396-0.336c0.561,0,0.981,0.064,1.256,0.198
		c0.275,0.134,0.469,0.301,0.579,0.507c0.111,0.206,0.168,0.578,0.168,1.124l-0.021,1.467c0,0.416,0.021,0.727,0.06,0.926
		c0.04,0.199,0.114,0.412,0.225,0.637h-1.249c-0.03-0.084-0.074-0.203-0.119-0.365c-0.019-0.076-0.034-0.123-0.045-0.148
		c-0.214,0.21-0.445,0.368-0.688,0.474c-0.245,0.108-0.504,0.159-0.78,0.159c-0.488,0-0.875-0.131-1.155-0.398
		c-0.281-0.264-0.421-0.604-0.421-1.008c0-0.268,0.063-0.51,0.191-0.72c0.129-0.209,0.308-0.368,0.539-0.48s0.565-0.21,0.999-0.293
		c0.586-0.112,0.998-0.213,1.22-0.311v-0.127c0-0.245-0.058-0.419-0.177-0.527c-0.121-0.102-0.347-0.152-0.68-0.152
		c-0.224,0-0.401,0.044-0.525,0.134c-0.129,0.087-0.227,0.246-0.306,0.471L18.105,16.687z M19.792,17.702
		c-0.159,0.055-0.416,0.119-0.765,0.191c-0.349,0.076-0.578,0.152-0.685,0.221c-0.163,0.115-0.244,0.264-0.244,0.444
		c0,0.178,0.064,0.329,0.197,0.459c0.13,0.127,0.298,0.191,0.5,0.191c0.227,0,0.443-0.075,0.65-0.22
		c0.152-0.116,0.25-0.257,0.301-0.42c0.032-0.108,0.049-0.311,0.049-0.614v-0.249L19.792,17.702z M22.143,19.98v-6.571h1.258v6.571
		H22.143z M26.994,19.98v-6.571h2.125c0.807,0,1.33,0.032,1.576,0.101c0.375,0.098,0.689,0.312,0.943,0.641
		c0.252,0.332,0.383,0.759,0.383,1.279c0,0.404-0.072,0.741-0.217,1.016c-0.148,0.274-0.332,0.491-0.557,0.647
		c-0.229,0.158-0.455,0.264-0.688,0.314c-0.318,0.061-0.773,0.09-1.373,0.09H28.32v2.479h-1.326V19.98z M28.32,14.522v1.868h0.723
		c0.523,0,0.871-0.032,1.049-0.101c0.172-0.069,0.311-0.178,0.412-0.325c0.098-0.148,0.148-0.318,0.148-0.514
		c0-0.238-0.07-0.438-0.211-0.593s-0.318-0.253-0.531-0.293c-0.158-0.028-0.477-0.047-0.953-0.047H28.32V14.522z M34.211,13.408
		v2.436c0.41-0.487,0.896-0.729,1.469-0.729c0.289,0,0.553,0.054,0.787,0.162c0.232,0.108,0.412,0.242,0.527,0.412
		c0.121,0.167,0.199,0.351,0.242,0.554c0.049,0.202,0.063,0.517,0.063,0.946v2.787h-1.25v-2.509c0-0.498-0.029-0.816-0.072-0.95
		c-0.051-0.134-0.139-0.242-0.262-0.318c-0.123-0.083-0.273-0.119-0.455-0.119c-0.209,0-0.4,0.051-0.564,0.152
		c-0.17,0.101-0.289,0.253-0.367,0.459c-0.08,0.202-0.117,0.506-0.117,0.903v2.382h-1.258v-6.567H34.211L34.211,13.408z
		 M39.385,16.687l-1.139-0.206c0.129-0.467,0.35-0.81,0.664-1.03c0.314-0.224,0.781-0.336,1.396-0.336
		c0.563,0,0.982,0.064,1.258,0.198c0.273,0.134,0.467,0.301,0.578,0.507c0.107,0.206,0.166,0.578,0.166,1.124l-0.018,1.467
		c0,0.416,0.018,0.727,0.057,0.926c0.041,0.199,0.113,0.412,0.225,0.637h-1.246c-0.033-0.084-0.076-0.203-0.123-0.365
		c-0.016-0.076-0.033-0.123-0.045-0.148c-0.213,0.21-0.443,0.368-0.686,0.474c-0.246,0.108-0.506,0.159-0.781,0.159
		c-0.488,0-0.875-0.131-1.156-0.398c-0.281-0.264-0.42-0.604-0.42-1.008c0-0.268,0.066-0.51,0.195-0.72
		c0.123-0.209,0.305-0.368,0.535-0.48s0.564-0.21,0.998-0.293c0.59-0.112,0.998-0.213,1.221-0.311v-0.127
		c0-0.245-0.057-0.419-0.176-0.527c-0.119-0.102-0.348-0.152-0.68-0.152c-0.225,0-0.402,0.044-0.525,0.134
		c-0.129,0.087-0.227,0.246-0.307,0.471L39.385,16.687z M41.072,17.702c-0.158,0.055-0.416,0.119-0.766,0.191
		c-0.348,0.076-0.578,0.152-0.688,0.221c-0.158,0.115-0.242,0.264-0.242,0.444c0,0.178,0.068,0.329,0.199,0.459
		c0.131,0.127,0.297,0.191,0.498,0.191c0.229,0,0.441-0.075,0.65-0.22c0.152-0.116,0.254-0.257,0.305-0.42
		c0.029-0.108,0.043-0.311,0.043-0.614v-0.249V17.702z M44.621,19.98h-1.258v-4.765h1.168v0.68c0.199-0.321,0.381-0.527,0.539-0.629
		c0.158-0.101,0.344-0.151,0.549-0.151c0.285,0,0.564,0.079,0.828,0.238l-0.391,1.099c-0.213-0.141-0.408-0.209-0.588-0.209
		c-0.182,0-0.33,0.051-0.453,0.147c-0.123,0.098-0.221,0.271-0.285,0.524c-0.072,0.253-0.109,0.784-0.109,1.594v1.468V19.98z
		 M46.775,15.215h1.154v0.651c0.416-0.499,0.906-0.749,1.482-0.749c0.303,0,0.566,0.062,0.791,0.188
		c0.225,0.123,0.404,0.314,0.549,0.567c0.211-0.253,0.434-0.444,0.68-0.567c0.238-0.127,0.5-0.188,0.773-0.188
		c0.348,0,0.645,0.069,0.889,0.214c0.242,0.145,0.424,0.351,0.543,0.625c0.088,0.202,0.131,0.531,0.131,0.987v3.04H52.51v-2.719
		c0-0.47-0.045-0.773-0.131-0.914c-0.115-0.178-0.297-0.268-0.543-0.268c-0.172,0-0.34,0.054-0.498,0.159
		c-0.152,0.108-0.264,0.268-0.332,0.474c-0.072,0.206-0.105,0.534-0.105,0.982v2.285h-1.258v-2.61c0-0.459-0.021-0.759-0.068-0.893
		c-0.043-0.134-0.111-0.235-0.207-0.304c-0.094-0.065-0.219-0.098-0.379-0.098c-0.195,0-0.369,0.051-0.523,0.155
		c-0.156,0.105-0.264,0.257-0.334,0.452c-0.068,0.198-0.1,0.527-0.1,0.983v2.31h-1.256V15.215z M55.83,16.687l-1.139-0.206
		c0.131-0.467,0.348-0.81,0.666-1.03c0.311-0.224,0.781-0.336,1.395-0.336c0.564,0,0.98,0.064,1.256,0.198
		c0.273,0.134,0.469,0.301,0.582,0.507c0.111,0.206,0.166,0.578,0.166,1.124l-0.02,1.467c0,0.416,0.02,0.727,0.063,0.926
		c0.035,0.199,0.111,0.412,0.225,0.637h-1.252c-0.029-0.084-0.072-0.203-0.119-0.365c-0.018-0.076-0.031-0.123-0.047-0.148
		c-0.209,0.21-0.441,0.368-0.686,0.474c-0.246,0.108-0.504,0.159-0.781,0.159c-0.484,0-0.875-0.131-1.154-0.398
		c-0.281-0.264-0.422-0.604-0.422-1.008c0-0.268,0.064-0.51,0.195-0.72c0.127-0.209,0.303-0.368,0.535-0.48
		c0.234-0.112,0.566-0.21,1-0.293c0.59-0.112,0.998-0.213,1.223-0.311v-0.127c0-0.245-0.063-0.419-0.178-0.527
		c-0.123-0.102-0.346-0.152-0.68-0.152c-0.223,0-0.4,0.044-0.527,0.134c-0.127,0.087-0.225,0.246-0.303,0.471L55.83,16.687z
		 M57.52,17.702c-0.16,0.055-0.42,0.119-0.768,0.191c-0.346,0.076-0.578,0.152-0.686,0.221c-0.16,0.115-0.246,0.264-0.246,0.444
		c0,0.178,0.064,0.329,0.195,0.459c0.129,0.127,0.299,0.191,0.502,0.191c0.229,0,0.445-0.075,0.65-0.22
		c0.152-0.116,0.254-0.257,0.301-0.42c0.031-0.108,0.051-0.311,0.051-0.614v-0.249V17.702z M62.254,19.98v-6.571h1.33v6.571H62.254z
		 M66.197,19.98v-5.458H64.25v-1.113h5.211v1.113h-1.938v5.458H66.197z M76.82,17.558l1.283,0.394
		c-0.197,0.724-0.527,1.258-0.986,1.612c-0.455,0.348-1.041,0.528-1.742,0.528c-0.875,0-1.59-0.301-2.154-0.896
		c-0.564-0.597-0.838-1.414-0.838-2.447c0-1.092,0.281-1.945,0.846-2.549c0.564-0.606,1.309-0.91,2.227-0.91
		c0.807,0,1.461,0.238,1.959,0.715c0.303,0.282,0.52,0.684,0.672,1.211l-1.313,0.314c-0.074-0.339-0.242-0.61-0.486-0.806
		c-0.246-0.198-0.547-0.296-0.896-0.296c-0.488,0-0.887,0.173-1.186,0.523c-0.305,0.351-0.457,0.915-0.457,1.699
		c0,0.828,0.148,1.421,0.449,1.771c0.297,0.354,0.686,0.527,1.164,0.527c0.354,0,0.658-0.112,0.91-0.336
		C76.525,18.389,76.713,18.038,76.82,17.558L76.82,17.558z M78.813,17.536c0-0.416,0.105-0.82,0.307-1.215
		c0.211-0.394,0.5-0.69,0.879-0.896c0.381-0.21,0.799-0.311,1.262-0.311c0.723,0,1.309,0.231,1.771,0.697
		c0.459,0.47,0.689,1.063,0.689,1.775c0,0.723-0.23,1.319-0.697,1.796c-0.463,0.474-1.047,0.709-1.75,0.709
		c-0.439,0-0.852-0.098-1.25-0.293c-0.396-0.199-0.693-0.488-0.904-0.871C78.914,18.548,78.813,18.085,78.813,17.536L78.813,17.536z
		 M80.104,17.609c0,0.47,0.115,0.831,0.34,1.084s0.498,0.376,0.828,0.376c0.328,0,0.604-0.123,0.82-0.376
		c0.223-0.253,0.336-0.618,0.336-1.095c0-0.467-0.113-0.828-0.336-1.077c-0.217-0.253-0.492-0.38-0.82-0.38
		c-0.33,0-0.604,0.127-0.828,0.38c-0.225,0.249-0.34,0.61-0.34,1.084V17.609z M84.492,15.215h1.148v0.651
		c0.42-0.499,0.912-0.749,1.482-0.749c0.303,0,0.57,0.062,0.795,0.188c0.225,0.123,0.404,0.314,0.549,0.567
		c0.211-0.253,0.434-0.444,0.68-0.567c0.238-0.127,0.5-0.188,0.773-0.188c0.348,0,0.645,0.069,0.891,0.214
		c0.238,0.145,0.418,0.351,0.537,0.625c0.092,0.202,0.135,0.531,0.135,0.987v3.04h-1.258v-2.719c0-0.47-0.043-0.773-0.135-0.914
		c-0.111-0.178-0.293-0.268-0.537-0.268c-0.174,0-0.344,0.054-0.5,0.159c-0.152,0.108-0.268,0.268-0.332,0.474
		c-0.072,0.206-0.105,0.534-0.105,0.982v2.285h-1.258v-2.61c0-0.459-0.021-0.759-0.068-0.893c-0.043-0.134-0.115-0.235-0.205-0.304
		c-0.096-0.065-0.221-0.098-0.381-0.098c-0.195,0-0.369,0.051-0.523,0.155c-0.156,0.105-0.268,0.257-0.332,0.452
		c-0.07,0.198-0.102,0.527-0.102,0.983v2.31h-1.258v-4.765H84.492z M92.574,15.215h1.174v0.698c0.152-0.235,0.357-0.431,0.619-0.578
		c0.26-0.148,0.549-0.221,0.867-0.221c0.549,0,1.02,0.217,1.402,0.65c0.387,0.434,0.578,1.041,0.578,1.814
		c0,0.796-0.191,1.413-0.582,1.854c-0.387,0.444-0.857,0.661-1.414,0.661c-0.26,0-0.498-0.054-0.711-0.155
		c-0.213-0.104-0.441-0.282-0.676-0.535v2.383h-1.258V15.215L92.574,15.215z M93.811,17.526c0,0.534,0.107,0.933,0.32,1.188
		c0.211,0.253,0.467,0.384,0.771,0.384c0.293,0,0.535-0.119,0.729-0.354c0.195-0.235,0.291-0.618,0.291-1.156
		c0-0.499-0.098-0.871-0.297-1.113c-0.203-0.246-0.449-0.365-0.742-0.365c-0.307,0-0.559,0.119-0.762,0.354
		c-0.207,0.239-0.307,0.593-0.307,1.063H93.811z M99.021,16.687l-1.139-0.206c0.127-0.467,0.352-0.81,0.662-1.03
		c0.318-0.224,0.781-0.336,1.398-0.336c0.561,0,0.98,0.064,1.256,0.198c0.273,0.134,0.469,0.301,0.58,0.507
		c0.113,0.206,0.17,0.578,0.17,1.124l-0.021,1.467c0,0.416,0.021,0.727,0.059,0.926c0.043,0.199,0.115,0.412,0.229,0.637h-1.248
		c-0.035-0.084-0.08-0.203-0.123-0.365c-0.018-0.076-0.035-0.123-0.043-0.148c-0.217,0.21-0.445,0.368-0.688,0.474
		c-0.246,0.108-0.506,0.159-0.779,0.159c-0.492,0-0.875-0.131-1.158-0.398c-0.281-0.264-0.422-0.604-0.422-1.008
		c0-0.268,0.061-0.51,0.191-0.72c0.131-0.209,0.307-0.368,0.539-0.48c0.23-0.112,0.563-0.21,1-0.293
		c0.586-0.112,0.994-0.213,1.223-0.311v-0.127c0-0.245-0.059-0.419-0.182-0.527c-0.119-0.102-0.346-0.152-0.68-0.152
		c-0.223,0-0.396,0.044-0.52,0.134c-0.131,0.087-0.232,0.246-0.307,0.471L99.021,16.687z M100.707,17.702
		c-0.16,0.055-0.412,0.119-0.764,0.191c-0.35,0.076-0.578,0.152-0.682,0.221c-0.168,0.115-0.25,0.264-0.25,0.444
		c0,0.178,0.068,0.329,0.199,0.459c0.129,0.127,0.295,0.191,0.498,0.191c0.225,0,0.445-0.075,0.65-0.22
		c0.152-0.116,0.254-0.257,0.297-0.42c0.035-0.108,0.051-0.311,0.051-0.614v-0.249V17.702z M107.391,19.98h-1.258v-2.429
		c0-0.514-0.025-0.847-0.08-0.998c-0.055-0.152-0.141-0.264-0.264-0.351c-0.123-0.083-0.268-0.127-0.441-0.127
		c-0.221,0-0.42,0.062-0.592,0.181c-0.174,0.12-0.297,0.275-0.359,0.474c-0.068,0.199-0.098,0.564-0.098,1.092v2.154h-1.258v-4.761
		h1.164v0.698c0.42-0.535,0.943-0.799,1.576-0.799c0.279,0,0.535,0.051,0.768,0.148c0.23,0.101,0.404,0.228,0.523,0.383
		s0.203,0.329,0.25,0.527c0.047,0.199,0.068,0.481,0.068,0.846v2.954V19.98z M107.93,15.215h1.344l1.139,3.377l1.117-3.377h1.301
		l-1.678,4.584l-0.303,0.827c-0.109,0.278-0.213,0.488-0.314,0.633c-0.098,0.148-0.217,0.268-0.348,0.354
		c-0.129,0.094-0.293,0.162-0.48,0.213c-0.191,0.051-0.404,0.08-0.646,0.08s-0.48-0.029-0.713-0.08l-0.107-0.979
		c0.195,0.036,0.375,0.058,0.535,0.058c0.289,0,0.51-0.083,0.65-0.256c0.137-0.174,0.246-0.395,0.324-0.658l-1.814-4.771
		L107.93,15.215z"/>
	<path fill="#528B2D" d="M-3.398,10.094V-6.36H8.781v2.779h-8.849v3.655H8.16v2.779h-8.228v4.46h9.171v2.78H-3.398L-3.398,10.094z
		 M12.842,10.094V-6.36h4.992l2.949,11.224L23.699-6.36h5.004v16.454h-3.084l-0.01-12.955l-3.243,12.955h-3.204L15.936-2.861
		l-0.011,12.955h-3.081H12.842z M38.586,6.327l3.145,0.527c-0.398,1.153-1.041,2.031-1.908,2.635
		c-0.875,0.604-1.967,0.904-3.275,0.904c-2.07,0-3.607-0.676-4.598-2.035c-0.789-1.088-1.178-2.454-1.178-4.117
		c0-1.977,0.512-3.527,1.547-4.645c1.029-1.12,2.334-1.681,3.914-1.681c1.768,0,3.17,0.585,4.197,1.76
		c1.02,1.172,1.51,2.968,1.463,5.386H34.01c0.021,0.937,0.273,1.663,0.762,2.184c0.48,0.521,1.088,0.78,1.809,0.78
		c0.49,0,0.906-0.134,1.238-0.4c0.338-0.268,0.594-0.701,0.764-1.298H38.586z M38.77,3.132c-0.025-0.915-0.256-1.612-0.705-2.089
		c-0.447-0.478-0.994-0.716-1.637-0.716c-0.684,0-1.254,0.253-1.703,0.755c-0.447,0.499-0.664,1.189-0.658,2.05H38.77z
		 M55.09,10.094h-2.914v-1.75c-0.49,0.684-1.068,1.189-1.727,1.536c-0.666,0.34-1.334,0.514-2.01,0.514
		c-1.373,0-2.549-0.554-3.527-1.659c-0.977-1.106-1.469-2.646-1.469-4.627c0-2.021,0.475-3.561,1.428-4.615
		c0.955-1.052,2.158-1.576,3.615-1.576c1.334,0,2.49,0.553,3.459,1.662V-6.36h3.152v16.454H55.09z M46.682,3.902
		c0,1.276,0.174,2.198,0.525,2.77c0.51,0.827,1.217,1.239,2.129,1.239c0.723,0,1.34-0.307,1.846-0.929
		c0.51-0.622,0.764-1.544,0.764-2.776c0-1.377-0.246-2.363-0.74-2.968c-0.496-0.606-1.125-0.91-1.891-0.91
		c-0.748,0-1.375,0.3-1.881,0.896C46.936,1.82,46.682,2.713,46.682,3.902z M57.02,4.762l3.242-0.321
		c0.195,1.088,0.586,1.88,1.184,2.386c0.592,0.51,1.391,0.763,2.398,0.763c1.064,0,1.873-0.225,2.408-0.68
		c0.543-0.448,0.813-0.979,0.813-1.583c0-0.391-0.111-0.724-0.34-0.998c-0.227-0.271-0.625-0.51-1.191-0.708
		c-0.387-0.142-1.27-0.376-2.646-0.72c-1.771-0.448-3.018-0.99-3.734-1.638c-1.004-0.907-1.506-2.013-1.506-3.321
		c0-0.839,0.234-1.627,0.707-2.357c0.475-0.729,1.156-1.286,2.051-1.67c0.893-0.383,1.965-0.574,3.23-0.574
		c2.057,0,3.607,0.455,4.641,1.373c1.045,0.915,1.592,2.133,1.643,3.662l-3.334,0.112c-0.137-0.85-0.441-1.461-0.906-1.829
		c-0.463-0.372-1.16-0.561-2.086-0.561c-0.959,0-1.709,0.199-2.248,0.597c-0.352,0.257-0.527,0.596-0.527,1.026
		c0,0.391,0.166,0.727,0.49,1.001c0.42,0.354,1.439,0.724,3.051,1.106c1.613,0.38,2.803,0.777,3.572,1.182
		c0.773,0.408,1.377,0.965,1.814,1.674c0.438,0.708,0.658,1.579,0.658,2.62c0,0.944-0.262,1.826-0.785,2.646
		c-0.523,0.824-1.262,1.438-2.223,1.836c-0.955,0.405-2.15,0.604-3.578,0.604c-2.082,0-3.68-0.48-4.793-1.442
		c-1.113-0.954-1.779-2.356-1.996-4.188L57.02,4.762z M78.328-1.835V0.67h-2.162v4.833c0,0.979,0.02,1.551,0.063,1.714
		c0.043,0.158,0.133,0.296,0.281,0.4c0.145,0.105,0.326,0.159,0.535,0.159c0.297,0,0.717-0.098,1.27-0.304l0.264,2.451
		c-0.73,0.314-1.559,0.473-2.486,0.473c-0.564,0-1.078-0.097-1.533-0.289c-0.455-0.191-0.789-0.44-0.998-0.744
		c-0.213-0.308-0.361-0.716-0.445-1.236c-0.064-0.368-0.096-1.109-0.096-2.233v-5.22h-1.451v-2.505h1.451v-2.367l3.146-1.858v4.229
		h2.162V-1.835z M79.482,3.985c0-1.052,0.252-2.063,0.773-3.047c0.516-0.983,1.25-1.731,2.197-2.248
		c0.943-0.517,1.994-0.781,3.166-0.781c1.805,0,3.279,0.59,4.432,1.761c1.156,1.175,1.729,2.653,1.729,4.449
		c0,1.804-0.586,3.304-1.742,4.493c-1.164,1.186-2.629,1.782-4.396,1.782c-1.092,0-2.133-0.25-3.123-0.745
		c-0.99-0.491-1.742-1.218-2.262-2.176C79.742,6.519,79.482,5.355,79.482,3.985L79.482,3.985z M82.721,4.152
		c0,1.182,0.281,2.093,0.838,2.718c0.564,0.633,1.25,0.947,2.074,0.947c0.822,0,1.512-0.314,2.068-0.947
		c0.557-0.629,0.832-1.543,0.832-2.743c0-1.164-0.275-2.067-0.832-2.696s-1.244-0.943-2.068-0.943s-1.51,0.314-2.074,0.943
		c-0.557,0.629-0.838,1.536-0.838,2.718V4.152z M96.943,10.094h-3.148V-1.838h2.914v1.694c0.502-0.802,0.955-1.326,1.359-1.575
		c0.4-0.25,0.859-0.373,1.365-0.373c0.721,0,1.414,0.203,2.08,0.597l-0.98,2.751c-0.531-0.347-1.023-0.517-1.482-0.517
		c-0.441,0-0.816,0.122-1.121,0.364c-0.307,0.246-0.549,0.68-0.725,1.316c-0.178,0.636-0.266,1.97-0.266,3.994v3.68H96.943z
		 M109.455,6.323l3.146,0.528c-0.4,1.152-1.043,2.031-1.912,2.635c-0.873,0.604-1.961,0.903-3.27,0.903
		c-2.072,0-3.611-0.676-4.602-2.031c-0.781-1.088-1.18-2.458-1.18-4.12c0-1.978,0.518-3.528,1.547-4.646
		c1.035-1.12,2.34-1.681,3.92-1.681c1.768,0,3.166,0.586,4.191,1.761c1.023,1.171,1.512,2.968,1.465,5.389h-7.883
		c0.023,0.933,0.277,1.663,0.762,2.18c0.48,0.521,1.088,0.781,1.811,0.781c0.492,0,0.908-0.131,1.236-0.401
		C109.027,7.354,109.281,6.92,109.455,6.323L109.455,6.323z M109.635,3.128c-0.021-0.914-0.254-1.612-0.705-2.085
		c-0.447-0.481-0.99-0.72-1.633-0.72c-0.684,0-1.256,0.253-1.703,0.756c-0.445,0.502-0.666,1.188-0.658,2.049H109.635z"/>
</g>
</svg>
