<?xml version="1.0" encoding="utf-8"?>
<!-- Generator: Adobe Illustrator 24.0.0, SVG Export Plug-In . SVG Version: 6.00 Build 0)  -->
<svg version="1.1" id="Layer_1" xmlns="http://www.w3.org/2000/svg" xmlns:xlink="http://www.w3.org/1999/xlink" x="0px" y="0px"
	 viewBox="0 0 150 150" style="enable-background:new 0 0 150 150;" xml:space="preserve">
<style type="text/css">
	.st0{fill:none;}
	.st1{fill:#2F80ED;}
	.st2{fill:#FF9900;}
	.st3{fill:#EC407A;}
	.st4{fill:#FFFFFF;}
	.st5{fill:#81D4FA;}
</style>
<g>
	<rect x="0.5" y="2.9" class="st0" width="149.1" height="144.2"/>
</g>
<g>
	<g>
		<path class="st1" d="M136.1,55.4H13.9C7,55.4,1.7,60.8,1.7,67.7v39.1h146.7V67.7C148.3,60.8,143,55.4,136.1,55.4z"/>
		<path d="M148.3,107.7H1.7c-0.5,0-0.9-0.4-0.9-0.9V67.7c0-7.4,5.8-13.1,13.1-13.1h122.2c7.4,0,13.1,5.8,13.1,13.1v39.1
			C149.2,107.3,148.8,107.7,148.3,107.7z M2.6,105.9h144.9V67.7c0-6.3-5-11.3-11.3-11.3H13.9c-6.3,0-11.3,5-11.3,11.3V105.9z"/>
	</g>
	<g>
		<path class="st2" d="M136.1,145.9H13.9c-6.8,0-12.2-5.4-12.2-12.2v-26.9h146.7v26.9C148.3,140.5,143,145.9,136.1,145.9z"/>
		<path d="M136.1,146.8H13.9c-7.4,0-13.1-5.8-13.1-13.1v-26.9c0-0.5,0.4-0.9,0.9-0.9h146.7c0.5,0,0.9,0.4,0.9,0.9v26.9
			C149.2,141,143.5,146.8,136.1,146.8z M2.6,107.7v26c0,6.3,5,11.3,11.3,11.3h122.2c6.3,0,11.3-5,11.3-11.3v-26H2.6z"/>
	</g>
	<g>
		<path class="st3" d="M101.9,11c-8.1,7.8-9.8,20.3-4.2,30.1l21,35.7l21-35.7c5.6-9.8,4.2-22-4.2-30.1C126.6,1.9,111.4,1.9,101.9,11
			z"/>
		<path d="M118.8,77.6c-0.3,0-0.6-0.2-0.8-0.4L97,41.5c-5.9-10.2-4.1-23,4.3-31.2c0,0,0,0,0,0c9.9-9.4,25.6-9.4,35,0
			c8.5,8.3,10.3,20.8,4.3,31.2l-21,35.7C119.4,77.4,119.1,77.6,118.8,77.6z M102.5,11.6c-7.8,7.6-9.5,19.5-4,29l20.2,34.4L139,40.6
			c5.5-9.6,3.9-21.3-4-29C126.3,2.9,111.7,2.9,102.5,11.6z"/>
	</g>
	<g>
		<path class="st4" d="M119,38.3c5.4,0,9.8-4.4,9.8-9.8c0-5.4-4.4-9.8-9.8-9.8c-5.4,0-9.8,4.4-9.8,9.8C109.2,34,113.6,38.3,119,38.3
			z"/>
		<path d="M119,39.2c-5.9,0-10.7-4.8-10.7-10.7s4.8-10.7,10.7-10.7s10.7,4.8,10.7,10.7S124.9,39.2,119,39.2z M119,19.7
			c-4.9,0-8.9,4-8.9,8.9s4,8.9,8.9,8.9c4.9,0,8.9-4,8.9-8.9S123.9,19.7,119,19.7z"/>
	</g>
	<g>
		<path class="st4" d="M12.7,21.2C12.7,14.4,18,9,24.9,9c2,0,3.7,0.5,5.1,1.2c3.2-3.7,7.8-6.1,13.2-6.1c9.5,0,17.1,7.6,17.1,17.1
			H12.7z"/>
		<path d="M60.3,22.1H12.7c-0.5,0-0.9-0.4-0.9-0.9c0-7.4,5.8-13.1,13.1-13.1c1.7,0,3.3,0.3,4.9,1c3.5-3.8,8.3-5.9,13.4-5.9
			c10.1,0,18,7.9,18,18C61.2,21.7,60.8,22.1,60.3,22.1z M13.6,20.3h45.8C59,11.7,52,5,43.2,5c-4.8,0-9.3,2.1-12.5,5.8
			c-0.3,0.3-0.7,0.4-1.1,0.2c-1.5-0.7-3.1-1.1-4.7-1.1C18.8,9.9,14,14.4,13.6,20.3z"/>
	</g>
	<g>
		<path class="st4" d="M82.3,106.8H28.6c-1.5,0-2.4-1-2.4-2.4V67.7c0-1.5,1-2.4,2.4-2.4h53.8c1.5,0,2.4,1,2.4,2.4v36.7
			C84.8,105.8,83.8,106.8,82.3,106.8z"/>
		<path d="M82.3,107.7H28.6c-2,0-3.3-1.4-3.3-3.3V67.7c0-2,1.4-3.3,3.3-3.3h53.8c2,0,3.3,1.4,3.3,3.3v36.7
			C85.7,106.3,84.3,107.7,82.3,107.7z M28.6,66.1c-1,0-1.5,0.6-1.5,1.5v36.7c0,1,0.6,1.5,1.5,1.5h53.8c1,0,1.5-0.6,1.5-1.5V67.7
			c0-1-0.6-1.5-1.5-1.5H28.6z"/>
	</g>
	<g>
		<path class="st5" d="M83.1,45.7H27.8c-1,0-2,0.7-2.2,1.7l-8.1,24.4c-0.5,1.5,0.7,3.2,2.2,3.2h71.4c1.7,0,2.9-1.7,2.2-3.2
			l-8.1-24.4C85,46.4,84,45.7,83.1,45.7z"/>
		<path d="M91.1,75.9H19.8c-1,0-1.9-0.5-2.5-1.4c-0.6-0.9-0.8-2-0.5-3l8.1-24.4c0.3-1.3,1.6-2.3,3.1-2.3h55.2c1.4,0,2.7,1,3.1,2.4
			l8,24.4c0.4,0.8,0.4,1.9-0.2,2.8C93.4,75.3,92.3,75.9,91.1,75.9z M27.8,46.6c-0.6,0-1.2,0.5-1.3,1l-8.1,24.5
			c-0.1,0.4,0,0.9,0.3,1.4c0.3,0.4,0.7,0.6,1.1,0.6h71.4c0.5,0,1-0.3,1.3-0.7c0.1-0.2,0.3-0.7,0.1-1.2l-8.1-24.6
			c-0.2-0.6-0.8-1.1-1.3-1.1H27.8z"/>
	</g>
	<g>
		<path class="st5" d="M62.8,106.8H48.1V89.7c0-4.2,3.2-7.3,7.3-7.3s7.3,3.2,7.3,7.3V106.8z"/>
		<path d="M62.8,107.7H48.1c-0.5,0-0.9-0.4-0.9-0.9V89.7c0-4.6,3.6-8.2,8.2-8.2s8.2,3.6,8.2,8.2v17.1
			C63.7,107.3,63.3,107.7,62.8,107.7z M49,105.9h12.9V89.7c0-3.7-2.8-6.4-6.4-6.4S49,86,49,89.7V105.9z"/>
	</g>
	<g>
		<path class="st5" d="M39.6,97h-4.9c-1.5,0-2.4-1-2.4-2.4v-9.8c0-1.5,1-2.4,2.4-2.4h4.9c1.5,0,2.4,1,2.4,2.4v9.8
			C42,96,41,97,39.6,97z"/>
		<path d="M39.6,97.9h-4.9c-2,0-3.3-1.4-3.3-3.3v-9.8c0-2,1.4-3.3,3.3-3.3h4.9c2,0,3.3,1.4,3.3,3.3v9.8
			C42.9,96.5,41.5,97.9,39.6,97.9z M34.7,83.2c-1,0-1.5,0.6-1.5,1.5v9.8c0,1,0.6,1.5,1.5,1.5h4.9c1,0,1.5-0.6,1.5-1.5v-9.8
			c0-1-0.6-1.5-1.5-1.5H34.7z"/>
	</g>
	<g>
		<path class="st5" d="M76.2,97h-4.9c-1.5,0-2.4-1-2.4-2.4v-9.8c0-1.5,1-2.4,2.4-2.4h4.9c1.5,0,2.4,1,2.4,2.4v9.8
			C78.7,96,77.7,97,76.2,97z"/>
		<path d="M76.2,97.9h-4.9c-2,0-3.3-1.4-3.3-3.3v-9.8c0-2,1.4-3.3,3.3-3.3h4.9c2,0,3.3,1.4,3.3,3.3v9.8
			C79.6,96.5,78.2,97.9,76.2,97.9z M71.3,83.2c-1,0-1.5,0.6-1.5,1.5v9.8c0,1,0.6,1.5,1.5,1.5h4.9c1,0,1.5-0.6,1.5-1.5v-9.8
			c0-1-0.6-1.5-1.5-1.5H71.3z"/>
	</g>
	<g>
		<path class="st5" d="M40.8,33.4h-7.3c-1.5,0-2.4,1-2.4,2.4v19.6c0,1.5,1,2.4,2.4,2.4h7.3c1.5,0,2.4-1,2.4-2.4V35.9
			C43.2,34.4,42.2,33.4,40.8,33.4z"/>
		<path d="M40.8,58.8h-7.3c-2,0-3.3-1.4-3.3-3.3V35.9c0-2,1.4-3.3,3.3-3.3h7.3c2,0,3.3,1.4,3.3,3.3v19.6
			C44.1,57.4,42.7,58.8,40.8,58.8z M33.4,34.3c-1,0-1.5,0.6-1.5,1.5v19.6c0,1,0.6,1.5,1.5,1.5h7.3c1,0,1.5-0.6,1.5-1.5V35.9
			c0-1-0.6-1.5-1.5-1.5H33.4z"/>
	</g>
	<g>
		<path class="st4" d="M92.1,145.9H67.7l-24.4-39.1h24.4L92.1,145.9z"/>
		<path d="M92.1,146.8H67.7c-0.3,0-0.6-0.2-0.8-0.4l-24.4-39.1c-0.2-0.3-0.2-0.6,0-0.9c0.2-0.3,0.5-0.5,0.8-0.5h24.4
			c0.3,0,0.6,0.2,0.8,0.4l24.4,39.1c0.2,0.3,0.2,0.6,0,0.9S92.4,146.8,92.1,146.8z M68.2,145h22.3l-23.3-37.3H44.8L68.2,145z"/>
	</g>
	<g>
		<path class="st4" d="M70.8,112.6H46.4c-0.5,0-0.9-0.4-0.9-0.9c0-0.5,0.4-0.9,0.9-0.9h24.4c0.5,0,0.9,0.4,0.9,0.9
			C71.7,112.2,71.3,112.6,70.8,112.6z"/>
	</g>
	<g>
		<path d="M92.1,146.8H67.7c-0.3,0-0.6-0.2-0.8-0.4l-24.4-39.1c-0.2-0.3-0.2-0.6,0-0.9c0.2-0.3,0.5-0.5,0.8-0.5h24.4
			c0.3,0,0.6,0.2,0.8,0.4l24.4,39.1c0.2,0.3,0.2,0.6,0,0.9S92.4,146.8,92.1,146.8z M68.2,145h22.3l-23.3-37.3H44.8L68.2,145z"/>
	</g>
</g>
</svg>
