<?xml version="1.0" encoding="utf-8"?>
<!-- Generator: Adobe Illustrator 24.0.0, SVG Export Plug-In . SVG Version: 6.00 Build 0)  -->
<svg version="1.1" id="Layer_1" xmlns="http://www.w3.org/2000/svg" xmlns:xlink="http://www.w3.org/1999/xlink" x="0px" y="0px"
	 viewBox="0 0 60 60" style="enable-background:new 0 0 60 60;" xml:space="preserve">
<style type="text/css">
	.st0{fill:#FFFFFF;}
	.st1{fill:#FF8808;}
	.st2{clip-path:url(#SVGID_2_);}
	.st3{fill:#0C347B;}
</style>
<g>
	<g>
		<circle class="st0" cx="30" cy="30" r="29"/>
		<path class="st1" d="M30,60C13.5,60,0,46.5,0,30C0,13.5,13.5,0,30,0s30,13.5,30,30C60,46.5,46.5,60,30,60z M30,2
			C14.6,2,2,14.6,2,30c0,15.4,12.6,28,28,28s28-12.6,28-28C58,14.6,45.4,2,30,2z"/>
	</g>
	<g>
		<defs>
			<rect id="SVGID_1_" x="15.5" y="16.5" width="30" height="30"/>
		</defs>
		<clipPath id="SVGID_2_">
			<use xlink:href="#SVGID_1_"  style="overflow:visible;"/>
		</clipPath>
		<g class="st2">
			<g>
				<path class="st3" d="M42.4,42.7H18.6c-1.7,0-3.1-1.4-3.1-3.1V23.4c0-1.7,1.4-3.1,3.1-3.1h23.8c1.7,0,3.1,1.4,3.1,3.1v16.3
					C45.5,41.3,44.1,42.7,42.4,42.7z M18.6,21.5c-1,0-1.9,0.8-1.9,1.9v16.3c0,1,0.8,1.9,1.9,1.9h23.8c1,0,1.9-0.8,1.9-1.9V23.4
					c0-1-0.8-1.9-1.9-1.9H18.6z"/>
			</g>
			<g>
				<path class="st3" d="M24.9,31.5c-1.7,0-3.1-1.4-3.1-3.1s1.4-3.1,3.1-3.1s3.1,1.4,3.1,3.1S26.6,31.5,24.9,31.5z M24.9,26.5
					c-1,0-1.9,0.8-1.9,1.9c0,1,0.8,1.9,1.9,1.9s1.9-0.8,1.9-1.9C26.7,27.3,25.9,26.5,24.9,26.5z"/>
			</g>
			<g>
				<path class="st3" d="M29.9,37.7c-0.3,0-0.6-0.3-0.6-0.6v-1.3c0-1-0.8-1.9-1.9-1.9h-5c-1,0-1.9,0.8-1.9,1.9v1.3
					c0,0.3-0.3,0.6-0.6,0.6s-0.6-0.3-0.6-0.6v-1.3c0-1.7,1.4-3.1,3.1-3.1h5c1.7,0,3.1,1.4,3.1,3.1v1.3
					C30.5,37.4,30.2,37.7,29.9,37.7z"/>
			</g>
			<g>
				<path class="st3" d="M41.1,27.7h-7.5c-0.3,0-0.6-0.3-0.6-0.6s0.3-0.6,0.6-0.6h7.5c0.3,0,0.6,0.3,0.6,0.6S41.4,27.7,41.1,27.7z"
					/>
			</g>
			<g>
				<path class="st3" d="M41.1,32.7h-7.5c-0.3,0-0.6-0.3-0.6-0.6s0.3-0.6,0.6-0.6h7.5c0.3,0,0.6,0.3,0.6,0.6S41.4,32.7,41.1,32.7z"
					/>
			</g>
			<g>
				<path class="st3" d="M41.1,37.7h-7.5c-0.3,0-0.6-0.3-0.6-0.6s0.3-0.6,0.6-0.6h7.5c0.3,0,0.6,0.3,0.6,0.6S41.4,37.7,41.1,37.7z"
					/>
			</g>
		</g>
	</g>
</g>
</svg>
