<?xml version="1.0" encoding="utf-8"?>
<!-- Generator: Adobe Illustrator 16.0.0, SVG Export Plug-In . SVG Version: 6.00 Build 0)  -->
<!DOCTYPE svg PUBLIC "-//W3C//DTD SVG 1.1//EN" "http://www.w3.org/Graphics/SVG/1.1/DTD/svg11.dtd">
<svg version="1.1" id="Capa_1" xmlns="http://www.w3.org/2000/svg" xmlns:xlink="http://www.w3.org/1999/xlink" x="0px" y="0px"
	 width="80px" height="80px" viewBox="0 0 80 80" enable-background="new 0 0 80 80" xml:space="preserve">
<g>
	<g>
		<g>
			<path fill="#FFFFFF" d="M78.781,65.283l-9.502-14.256l1.668-0.521c0.686-0.214,1.066-0.942,0.853-1.628
				c-0.01-0.027-0.019-0.059-0.028-0.084l-2.92-7.513l5.946-5.532c0.526-0.489,0.556-1.312,0.065-1.837
				c-0.021-0.023-0.043-0.045-0.065-0.066l-5.946-5.531l2.92-7.512c0.262-0.669-0.069-1.423-0.739-1.683
				c-0.027-0.01-0.056-0.021-0.083-0.029l-7.821-2.439l-0.685-8.021c-0.029-0.357-0.205-0.686-0.483-0.91
				C61.682,7.498,61.323,7.4,60.971,7.45L52.83,8.577L48.664,1.63c-0.37-0.616-1.169-0.816-1.785-0.447
				c-0.016,0.01-0.029,0.02-0.046,0.03L40,5.711l-6.83-4.497c-0.6-0.395-1.406-0.229-1.801,0.37c-0.01,0.016-0.02,0.031-0.029,0.047
				l-4.167,6.95l-8.138-1.127c-0.711-0.099-1.368,0.397-1.466,1.109c-0.003,0.022-0.006,0.045-0.008,0.069l-0.685,8.021
				l-7.814,2.438c-0.686,0.214-1.067,0.943-0.854,1.628c0.009,0.028,0.019,0.056,0.029,0.084l2.921,7.512l-5.955,5.532
				c-0.525,0.489-0.555,1.312-0.066,1.837c0.021,0.022,0.043,0.044,0.066,0.065l5.949,5.53L8.23,48.792
				c-0.26,0.67,0.071,1.423,0.74,1.685c0.028,0.01,0.056,0.021,0.084,0.027l1.725,0.537L1.193,66.618
				c-0.377,0.61-0.187,1.413,0.425,1.788c0.273,0.169,0.599,0.229,0.915,0.173l13.042-2.371l2.351,11.751
				c0.104,0.516,0.506,0.919,1.021,1.021c0.083,0.014,0.168,0.021,0.252,0.02c0.435,0,0.841-0.217,1.082-0.579l9.121-13.681
				l1.936,3.229c0.182,0.305,0.481,0.52,0.827,0.6c0.097,0.021,0.196,0.033,0.295,0.031c0.254,0,0.502-0.074,0.714-0.214L40,63.889
				l6.831,4.497c0.599,0.394,1.405,0.229,1.8-0.37c0.012-0.017,0.021-0.031,0.03-0.047l1.937-3.229l9.121,13.682
				C59.959,78.783,60.365,79,60.8,79c0.085,0,0.171-0.009,0.252-0.023c0.517-0.104,0.919-0.506,1.022-1.021l2.365-11.854
				L77.583,67.3c0.715,0.065,1.347-0.463,1.411-1.178C79.021,65.826,78.947,65.531,78.781,65.283z M19.863,74.367l-1.989-9.928
				c-0.139-0.694-0.809-1.149-1.507-1.024l-11.433,2.08l8.404-13.652l3.535,1.103l0.684,8.021c0.031,0.356,0.206,0.686,0.485,0.91
				c0.278,0.223,0.636,0.318,0.989,0.271l8.139-1.129l0.752,1.256L19.863,74.367z M51.041,58.95l-3.913,6.522l-6.412-4.228
				c-0.435-0.285-0.997-0.285-1.43,0l-6.415,4.222l-3.913-6.523c-0.235-0.393-0.658-0.633-1.114-0.633
				c-0.061,0-0.12,0.004-0.179,0.015l-7.633,1.055l-0.642-7.524c-0.045-0.526-0.405-0.976-0.91-1.133l-7.323-2.285l2.73-7.035
				c0.193-0.495,0.064-1.061-0.326-1.422L7.997,34.8l5.571-5.179c0.39-0.363,0.52-0.927,0.326-1.423l-2.73-7.039l7.325-2.284
				c0.505-0.157,0.865-0.604,0.91-1.13l0.642-7.526l7.632,1.057c0.519,0.074,1.031-0.17,1.3-0.62l3.913-6.523l6.399,4.223
				c0.434,0.286,0.996,0.286,1.43,0l6.414-4.223l3.913,6.525c0.269,0.445,0.776,0.688,1.293,0.619l7.633-1.055l0.642,7.525
				c0.047,0.527,0.404,0.975,0.91,1.131l7.326,2.285l-2.738,7.036c-0.192,0.497-0.063,1.06,0.326,1.423l5.569,5.179l-5.569,5.179
				c-0.392,0.363-0.521,0.927-0.328,1.422l2.73,7.039l-7.318,2.283c-0.506,0.156-0.865,0.604-0.91,1.133l-0.643,7.524l-7.632-1.052
				C51.818,58.261,51.311,58.504,51.041,58.95z M63.518,63.4c-0.658-0.053-1.254,0.393-1.392,1.039l-1.985,9.924l-8.06-12.092
				l0.752-1.252l8.138,1.127c0.711,0.1,1.367-0.397,1.467-1.108c0.004-0.022,0.006-0.046,0.008-0.069l0.686-8.021l3.568-1.112
				l8.412,12.624L63.518,63.4z"/>
		</g>
	</g>
	<g>
		<g>
			<path fill="#FFFFFF" d="M59.5,28.3c0-2.154-1.746-3.9-3.9-3.9h-9.1v-5.2c0.003-3.586-2.9-6.497-6.487-6.5
				c-0.004,0-0.008,0-0.013,0c-0.718,0-1.3,0.582-1.3,1.3v6.193l-2.34,4.669l-4.184,3.348c-0.042-0.676-0.6-1.204-1.276-1.21h-9.1
				c-0.718,0-1.3,0.582-1.3,1.299v19.5c0,0.719,0.582,1.301,1.3,1.301h9.1c0.718,0,1.3-0.582,1.3-1.301h19.5
				c2.149-0.011,3.889-1.75,3.899-3.898c-0.004-0.672-0.185-1.33-0.521-1.908c0.239-0.15,0.461-0.328,0.661-0.527
				c1.261-1.227,1.523-3.153,0.639-4.673c0.24-0.15,0.462-0.327,0.66-0.528c1.261-1.226,1.525-3.152,0.641-4.672
				c0.239-0.149,0.461-0.326,0.66-0.527C59.087,30.338,59.506,29.341,59.5,28.3z M29.601,46.499h-6.5V29.6h6.5V46.499z
				 M56.503,29.226c-0.237,0.243-0.563,0.378-0.903,0.375H50.4v2.6H54.3c0.718,0,1.3,0.582,1.3,1.3
				c0.002,0.351-0.143,0.686-0.396,0.926c-0.237,0.243-0.563,0.378-0.902,0.375h-5.199v2.6h3.9c0.719,0,1.299,0.582,1.299,1.299
				c0.002,0.351-0.144,0.686-0.396,0.926c-0.237,0.242-0.563,0.377-0.901,0.374H47.8v2.601h3.9c0.718,0,1.301,0.582,1.301,1.301
				c0,0.35-0.144,0.686-0.397,0.925c-0.238,0.243-0.563,0.378-0.902,0.374H32.2V31.524l6.013-4.808
				c0.146-0.118,0.267-0.267,0.351-0.435l2.6-5.2c0.09-0.18,0.138-0.379,0.138-0.581v-4.978c1.562,0.548,2.604,2.023,2.601,3.678
				v6.5c0,0.718,0.582,1.3,1.3,1.3H55.6c0.719,0,1.301,0.582,1.301,1.299C56.9,28.65,56.758,28.985,56.503,29.226z"/>
		</g>
	</g>
</g>
</svg>
