<?xml version="1.0" encoding="utf-8"?>
<!-- Generator: Adobe Illustrator 24.0.0, SVG Export Plug-In . SVG Version: 6.00 Build 0)  -->
<svg version="1.1" id="Layer_1" xmlns="http://www.w3.org/2000/svg" xmlns:xlink="http://www.w3.org/1999/xlink" x="0px" y="0px"
	 viewBox="0 0 46.6 40" style="enable-background:new 0 0 46.6 40;" xml:space="preserve">
<style type="text/css">
	.st0{fill:#FF9900;}
	.st1{fill:#2F80ED;}
</style>
<path class="st0" d="M28.9,15.7H17.7v8.5h11.1V15.7z"/>
<path class="st1" d="M25.4,39.1c0-0.5,0.4-0.9,0.9-0.9c1.1,0,1.9-0.9,1.9-2V20c0-2.3-1.2-4.4-2.9-5.7c-0.2,0-0.4-0.2-0.5-0.3
	c-1-0.6-2.3-1-3.6-1h-5.3c-1.3,0-2.5,0.4-3.6,1c-0.1,0.2-0.3,0.3-0.5,0.3c-3.3,2.3-2.9,5.7-2.9,7.6h12.6c0.5,0,0.9,0.4,0.9,0.9v10.8
	c0,0.5-0.4,0.9-0.9,0.9H8.9v1.6c0,1.1,0.9,2,2,2h10.6c1.2,0,1.2,1.8,0,1.8H10.9c-2.1,0-3.8-1.7-3.8-3.8V20c0-2.9,1.4-5.5,3.6-7.1
	v-2.6c0-0.5,0.4-0.9,0.9-0.9s0.9,0.4,0.9,0.9v1.6c1-0.4,2.2-0.7,3.4-0.7h5.3c1.2,0,2.3,0.2,3.4,0.7V9H8.9C8.4,9,8,8.6,8,8.1V3.4
	C8,1.5,9.5,0,11.4,0h13.9c1.8,0,3.4,1.5,3.4,3.4v4.7c0,0.5-0.4,0.9-0.9,0.9h-1.3v3.3c0.1-0.1,0.3-0.1,0.4-0.1h7.3c1.7,0,3,1.3,3,3
	v3.7c0,0.5-0.4,0.9-0.9,0.9H30c0,0.1,0,0.2,0,0.3v16.2C30,39.8,25.4,41,25.4,39.1z M8.9,32.8h11.7v-9H8.9V32.8z M29.8,18h5.6v-2.8
	c0-0.7-0.5-1.2-1.2-1.2h-6.7C28.6,15,29.4,16.4,29.8,18z M23.7,7.2h3.1V3.4c0-0.9-0.7-1.6-1.6-1.6H11.4c-0.9,0-1.6,0.7-1.6,1.6v3.8
	h3.6V4.5c0-0.5,0.4-0.9,0.9-0.9c0.5,0,0.9,0.4,0.9,0.9v2.7h2.7V4.5c0-1.2,1.8-1.2,1.8,0v2.7H22V4.5c0-1.2,1.8-1.2,1.8,0V7.2z
	 M38.6,37.3h-7.6c-1.2,0-1.2-1.8,0-1.8h6.7v-9c0-1.9-0.9-3.7-2.3-4.9c-0.9-0.8,0.3-2.2,1.2-1.3c1.9,1.6,2.9,3.9,2.9,6.3v9.9
	C39.5,36.9,39.1,37.3,38.6,37.3z"/>
</svg>
