<?xml version="1.0" encoding="utf-8"?>
<!-- Generator: Adobe Illustrator 24.0.0, SVG Export Plug-In . SVG Version: 6.00 Build 0)  -->
<svg version="1.1" id="Layer_1" xmlns="http://www.w3.org/2000/svg" xmlns:xlink="http://www.w3.org/1999/xlink" x="0px" y="0px"
	 viewBox="0 0 20 20" style="enable-background:new 0 0 20 20;" xml:space="preserve">
<style type="text/css">
	.st0{fill:#FBBB00;}
	.st1{fill:#518EF8;}
	.st2{fill:#28B446;}
	.st3{fill:#F14336;}
</style>
<g>
	<path class="st0" d="M4.5,12.1l-0.7,2.6l-2.5,0.1c-0.8-1.4-1.2-3-1.2-4.7c0-1.6,0.4-3.2,1.1-4.6h0l2.2,0.4l1,2.2
		C4.2,8.7,4.1,9.3,4.1,10C4.1,10.7,4.2,11.4,4.5,12.1z"/>
	<path class="st1" d="M19.8,8.1c0.1,0.6,0.2,1.2,0.2,1.9c0,0.7-0.1,1.4-0.2,2.1c-0.5,2.3-1.7,4.3-3.5,5.7l0,0l-2.8-0.1L13,15.1
		c1.2-0.7,2.1-1.7,2.5-3h-5.3V8.1h5.4H19.8z"/>
	<path class="st2" d="M16.2,17.7L16.2,17.7c-1.7,1.4-3.9,2.2-6.2,2.2c-3.8,0-7.1-2.1-8.7-5.2l3.2-2.6c0.8,2.2,3,3.8,5.5,3.8
		c1.1,0,2.1-0.3,3-0.8L16.2,17.7z"/>
	<path class="st3" d="M16.3,2.4L13.1,5c-0.9-0.6-2-0.9-3.1-0.9c-2.6,0-4.8,1.7-5.6,4L1.2,5.4h0c1.7-3.2,5-5.4,8.8-5.4
		C12.4,0.1,14.6,0.9,16.3,2.4z"/>
</g>
</svg>
