<?xml version="1.0" encoding="utf-8"?>
<!-- Generator: Adobe Illustrator 25.0.0, SVG Export Plug-In . SVG Version: 6.00 Build 0)  -->
<svg version="1.1" id="Layer_1" xmlns="http://www.w3.org/2000/svg" xmlns:xlink="http://www.w3.org/1999/xlink" x="0px" y="0px"
	 viewBox="0 0 150 150" style="enable-background:new 0 0 150 150;" xml:space="preserve">
<style type="text/css">
	.st0{fill:#0054A6;}
</style>
<g id="Path_11451">
	<path class="st0" d="M141.5,44.8H8.5c-3.3,0-6-2.7-6-6s2.7-6,6-6h132.9c3.3,0,6,2.7,6,6S144.8,44.8,141.5,44.8z"/>
</g>
<g id="Path_11452">
	<path class="st0" d="M141.5,81H56.9c-3.3,0-6-2.7-6-6s2.7-6,6-6h84.6c3.3,0,6,2.7,6,6S144.8,81,141.5,81z"/>
</g>
<g id="Path_11453">
	<path class="st0" d="M141.5,117.3H32.7c-3.3,0-6-2.7-6-6s2.7-6,6-6h108.8c3.3,0,6,2.7,6,6C147.5,114.6,144.8,117.3,141.5,117.3z"/>
</g>
</svg>
