<?xml version="1.0" encoding="utf-8"?>
<!-- Generator: Adobe Illustrator 16.0.0, SVG Export Plug-In . SVG Version: 6.00 Build 0)  -->
<!DOCTYPE svg PUBLIC "-//W3C//DTD SVG 1.1//EN" "http://www.w3.org/Graphics/SVG/1.1/DTD/svg11.dtd">
<svg version="1.1" id="Layer_1" xmlns="http://www.w3.org/2000/svg" xmlns:xlink="http://www.w3.org/1999/xlink" x="0px" y="0px"
	 width="150px" height="150px" viewBox="0 0 150 150" enable-background="new 0 0 150 150" xml:space="preserve">
<g id="Group_2825" transform="translate(2537.561 102.561)">
	<g id="Path_10503">
		<path fill="#FFFFFF" stroke="#FFFFFF" stroke-miterlimit="10" d="M-2409.76,30.527c-1.351,0-2.699-0.449-3.75-1.5
			l-105.601-105.601c-2.101-2.1-2.101-5.4,0-7.5c2.101-2.1,5.399-2.1,7.5,0l105.601,105.601c2.101,2.102,2.101,5.398,0,7.5
			C-2406.911,29.925-2408.411,30.527-2409.76,30.527z"/>
	</g>
	<g id="Path_10504">
		<path fill="#FFFFFF" stroke="#FFFFFF" stroke-miterlimit="10" d="M-2515.361,30.527c-1.351,0-2.7-0.449-3.75-1.5
			c-2.101-2.102-2.101-5.398,0-7.5l105.6-105.601c2.101-2.1,5.4-2.1,7.5,0c2.101,2.1,2.101,5.4,0,7.5l-105.6,105.601
			C-2512.511,29.925-2513.861,30.527-2515.361,30.527z"/>
	</g>
</g>
</svg>
