<?xml version="1.0" encoding="utf-8"?>
<!-- Generator: Adobe Illustrator 16.0.0, SVG Export Plug-In . SVG Version: 6.00 Build 0)  -->
<!DOCTYPE svg PUBLIC "-//W3C//DTD SVG 1.1//EN" "http://www.w3.org/Graphics/SVG/1.1/DTD/svg11.dtd">
<svg version="1.1" id="Capa_1" xmlns="http://www.w3.org/2000/svg" xmlns:xlink="http://www.w3.org/1999/xlink" x="0px" y="0px"
	 width="50px" height="50px" viewBox="0 0 50 50" enable-background="new 0 0 50 50" xml:space="preserve">
<path fill="#343B4E" d="M25,2.529C12.609,2.529,2.529,12.609,2.529,25c0,12.392,10.081,22.472,22.471,22.472
	c12.392,0,22.472-10.08,22.472-22.472C47.472,12.609,37.392,2.529,25,2.529z M25,45.158C13.885,45.158,4.842,36.115,4.842,25
	S13.885,4.842,25,4.842S45.158,13.885,45.158,25S36.115,45.158,25,45.158z"/>
<path fill="#FAFBFC" d="M25,2C12.317,2,2,12.317,2,25s10.317,23,23,23s23-10.317,23-23S37.683,2,25,2z M25,47.735
	C12.443,47.735,2.264,37.556,2.264,25C2.264,12.443,12.443,2.264,25,2.264c12.556,0,22.735,10.179,22.735,22.736
	C47.735,37.556,37.556,47.735,25,47.735z"/>
<path fill="#FAFBFC" d="M25,4.842C13.885,4.842,4.842,13.885,4.842,25S13.885,45.158,25,45.158S45.158,36.115,45.158,25
	S36.115,4.842,25,4.842z M25,44.894C14.013,44.894,5.106,35.986,5.106,25C5.106,14.013,14.013,5.106,25,5.106
	c10.986,0,19.894,8.906,19.894,19.894C44.894,35.986,35.986,44.894,25,44.894z"/>
<circle fill="#343B4E" cx="17.895" cy="17.895" r="2.578"/>
<path fill="#FAFBFC" d="M17.895,21.001c1.713,0,3.106-1.394,3.106-3.106c0-1.712-1.394-3.106-3.106-3.106
	c-1.712,0-3.106,1.394-3.106,3.106C14.789,19.608,16.183,21.001,17.895,21.001z M17.895,15.053c1.57,0,2.842,1.272,2.842,2.842
	s-1.272,2.842-2.842,2.842s-2.842-1.272-2.842-2.842S16.325,15.053,17.895,15.053z"/>
<path fill="#343B4E" d="M32.104,20.473c1.421,0,2.578-1.156,2.578-2.578s-1.157-2.578-2.578-2.578s-2.577,1.156-2.577,2.578
	S30.684,20.473,32.104,20.473z"/>
<path fill="#FAFBFC" d="M32.104,21.001c1.714,0,3.106-1.394,3.106-3.106c0-1.712-1.393-3.106-3.106-3.106
	c-1.713,0-3.105,1.394-3.105,3.106C28.999,19.608,30.392,21.001,32.104,21.001z M32.104,15.053c1.569,0,2.843,1.272,2.843,2.842
	s-1.273,2.842-2.843,2.842c-1.568,0-2.842-1.272-2.842-2.842S30.536,15.053,32.104,15.053z"/>
<path fill="#343B4E" d="M14.792,25.264h-2.314c0.142,6.784,5.705,12.26,12.522,12.26s12.38-5.477,12.521-12.26h-2.313
	c-0.141,5.509-4.666,9.947-10.208,9.947S14.933,30.773,14.792,25.264z"/>
</svg>
