<?xml version="1.0" encoding="utf-8"?>
<!-- Generator: Adobe Illustrator 24.0.0, SVG Export Plug-In . SVG Version: 6.00 Build 0)  -->
<svg version="1.1" id="Layer_1" xmlns="http://www.w3.org/2000/svg" xmlns:xlink="http://www.w3.org/1999/xlink" x="0px" y="0px"
	 viewBox="0 0 20 21" style="enable-background:new 0 0 20 21;" xml:space="preserve">
<style type="text/css">
	.st0{fill-rule:evenodd;clip-rule:evenodd;fill:#FFFFFF;}
</style>
<path class="st0" d="M18.4,7.6l0.7,0.7c0.6,0.6,0.9,1.3,0.9,2.1c0,0.8-0.3,1.6-0.9,2.1c0,0,0,0,0,0c0,0,0,0,0,0l-0.7,0.7
	C18.1,13.6,18,14,18,14.4v1c0,1.7-1.4,3-3,3h-1c-0.4,0-0.8,0.2-1.1,0.4l-0.7,0.7c-0.6,0.6-1.4,0.9-2.1,0.9c-0.8,0-1.5-0.3-2.1-0.9
	l-0.7-0.7c-0.3-0.3-0.7-0.4-1.1-0.4h-1c-1.7,0-3-1.4-3-3v-1c0-0.4-0.2-0.8-0.4-1.1l-0.7-0.7c-1.2-1.2-1.2-3.1,0-4.3l0.7-0.7
	C1.9,7.4,2,7,2,6.6v-1c0-1.7,1.4-3,3-3h1c0.4,0,0.8-0.2,1.1-0.4l0.7-0.7c1.2-1.2,3.1-1.2,4.3,0l0.7,0.7c0.3,0.3,0.7,0.4,1.1,0.4h1
	c1.7,0,3,1.3,3,3v1C18,7,18.1,7.4,18.4,7.6z M7.4,13.9c0.2,0,0.5-0.1,0.6-0.3l5.1-5.1c0.3-0.3,0.3-0.9,0-1.2C12.8,7,12.3,7,12,7.3
	l-5.1,5.1c-0.3,0.3-0.3,0.9,0,1.2C7,13.9,7.2,13.9,7.4,13.9z M11.7,13.1c0,0.5,0.4,0.9,0.9,0.9c0.5,0,0.9-0.4,0.9-0.9
	c0-0.5-0.4-0.9-0.9-0.9C12.1,12.2,11.7,12.6,11.7,13.1z M7.4,7.1c0.5,0,0.9,0.4,0.9,0.9c0,0.5-0.4,0.9-0.9,0.9
	C7,8.8,6.6,8.4,6.6,7.9C6.6,7.4,7,7.1,7.4,7.1z"/>
</svg>
