<svg width="18" height="19" viewBox="0 0 18 19" fill="none" xmlns="http://www.w3.org/2000/svg">
<path fill-rule="evenodd" clip-rule="evenodd" d="M0.464525 2.74767C0.764197 2.25148 2.41532 0.446724 3.59357 0.501208C3.94579 0.530395 4.25713 0.743463 4.5101 0.990583C5.09096 1.55779 6.75376 3.70307 6.84813 4.1545C7.07775 5.26167 5.75842 5.89991 6.1622 7.01584C7.19159 9.53471 8.9653 11.3083 11.4853 12.3367C12.6003 12.7405 13.2386 11.4212 14.3458 11.6518C14.7963 11.7461 16.9426 13.4089 17.5099 13.9897C17.756 14.2417 17.9701 14.554 17.9993 14.9062C18.043 16.1466 16.1263 17.821 15.7527 18.0351C14.8712 18.6655 13.7211 18.6548 12.3191 18.003C8.40682 16.3753 2.15456 10.241 0.496632 6.18108C-0.137739 4.78689 -0.181523 3.62912 0.464525 2.74767Z" fill="white"/>
</svg>
