<?xml version="1.0" encoding="utf-8"?>
<!-- Generator: Adobe Illustrator 24.0.0, SVG Export Plug-In . SVG Version: 6.00 Build 0)  -->
<svg version="1.1" id="Layer_1" xmlns="http://www.w3.org/2000/svg" xmlns:xlink="http://www.w3.org/1999/xlink" x="0px" y="0px"
	 viewBox="0 0 20 21" style="enable-background:new 0 0 20 21;" xml:space="preserve">
<style type="text/css">
	.st0{fill-rule:evenodd;clip-rule:evenodd;fill:#FFFFFF;}
</style>
<path class="st0" d="M12.1,9.7h2.8c0.4,0,0.7-0.3,0.7-0.8c0-0.4-0.3-0.8-0.7-0.8h-2.8c-0.4,0-0.7,0.3-0.7,0.8
	C11.4,9.4,11.7,9.7,12.1,9.7z M18.2,4.4c0.6,0,1,0.2,1.4,0.7C20,5.6,20.1,6.3,20,6.9L19,13.6c-0.2,1.3-1.3,2.2-2.5,2.2H5.6
	c-1.3,0-2.4-1-2.5-2.4L2.1,2.3L0.6,2C0.2,1.9-0.1,1.5,0,1.1c0.1-0.4,0.5-0.7,0.9-0.6l2.4,0.4c0.3,0.1,0.6,0.3,0.6,0.7l0.2,2.3
	c0,0.3,0.3,0.6,0.6,0.6H18.2z M5.4,17.4c-0.8,0-1.5,0.7-1.5,1.6c0,0.8,0.7,1.5,1.5,1.5c0.8,0,1.5-0.7,1.5-1.5
	C6.9,18.1,6.3,17.4,5.4,17.4z M16.7,17.4c-0.8,0-1.5,0.7-1.5,1.6c0,0.8,0.7,1.5,1.5,1.5c0.8,0,1.5-0.7,1.5-1.5
	C18.2,18.1,17.5,17.4,16.7,17.4z"/>
</svg>
