<?xml version="1.0" encoding="utf-8"?>
<!-- Generator: Adobe Illustrator 16.0.0, SVG Export Plug-In . SVG Version: 6.00 Build 0)  -->
<!DOCTYPE svg PUBLIC "-//W3C//DTD SVG 1.1//EN" "http://www.w3.org/Graphics/SVG/1.1/DTD/svg11.dtd">
<svg version="1.1" id="Layer_1" xmlns="http://www.w3.org/2000/svg" xmlns:xlink="http://www.w3.org/1999/xlink" x="0px" y="0px"
	 width="80px" height="80px" viewBox="0 0 80 80" enable-background="new 0 0 80 80" xml:space="preserve">
<g>
	<path fill="#00489A" d="M72.145,33.145h-2.438V30.86C69.707,14.395,56.381,1,40,1C23.62,1,10.293,14.395,10.293,30.859v2.285H7.855
		C4.075,33.145,1,36.22,1,40v13.711c0,3.78,3.075,6.855,6.855,6.855h2.831c0.943,2.66,3.483,4.569,6.462,4.569
		c3.78,0,6.855-3.075,6.855-6.854V35.43c0-3.78-3.076-6.855-6.855-6.855c-0.775,0-1.519,0.131-2.213,0.369
		C15.912,15.89,26.781,5.57,40,5.57c13.221,0,24.088,10.32,25.064,23.373c-0.695-0.237-1.438-0.369-2.213-0.369
		c-3.781,0-6.855,3.076-6.855,6.855v22.852c0,3.779,3.074,6.854,6.855,6.854c0.801,0,1.569-0.139,2.284-0.393v2.83
		c0,1.26-1.024,2.284-2.284,2.284H46.461c-0.941-2.66-3.482-4.569-6.462-4.569c-3.78,0-6.855,3.075-6.855,6.854
		C33.144,75.923,36.22,79,40,79c2.979,0,5.52-1.909,6.462-4.57h16.39c3.78,0,6.855-3.074,6.855-6.854v-7.009h2.438
		c3.78,0,6.855-3.074,6.855-6.854V40C79,36.22,75.925,33.145,72.145,33.145z M5.57,53.711V40c0-1.26,1.025-2.285,2.285-2.285h2.438
		v18.281H7.855C6.596,55.996,5.57,54.971,5.57,53.711z M17.148,33.145c1.26,0,2.285,1.025,2.285,2.285v22.852
		c0,1.26-1.025,2.284-2.285,2.284c-1.26,0-2.285-1.024-2.285-2.284V35.43C14.863,34.17,15.889,33.145,17.148,33.145z M40,74.43
		c-1.26,0-2.285-1.025-2.285-2.285S38.74,69.859,40,69.859s2.285,1.024,2.285,2.285C42.285,73.404,41.26,74.43,40,74.43z
		 M62.852,60.566c-1.26,0-2.285-1.025-2.285-2.285V35.43c0-1.26,1.025-2.285,2.285-2.285s2.285,1.025,2.285,2.285v22.852
		C65.137,59.541,64.111,60.566,62.852,60.566z M74.43,53.711c0,1.26-1.025,2.285-2.285,2.285h-2.438V37.715h2.438
		c1.26,0,2.285,1.025,2.285,2.285V53.711z"/>
</g>
</svg>
