<?xml version="1.0" encoding="utf-8"?>
<!-- Generator: Adobe Illustrator 25.0.0, SVG Export Plug-In . SVG Version: 6.00 Build 0)  -->
<svg version="1.1" id="Layer_1" xmlns="http://www.w3.org/2000/svg" xmlns:xlink="http://www.w3.org/1999/xlink" x="0px" y="0px"
	 viewBox="0 0 47 47" style="enable-background:new 0 0 47 47;" xml:space="preserve">
<style type="text/css">
	.st0{fill:#FCFDFF;}
	.st1{fill:#0054A6;}
</style>
<circle class="st0" cx="23.5" cy="23.5" r="23.5"/>
<g>
	<g>
		<path class="st1" d="M28.3,35.8l0.3,1.3c0.1,0.2-0.1,0.5-0.3,0.5l0,0h-0.1H19c-0.2,0-0.4-0.2-0.5-0.4v-0.1l0.3-1.3
			c0.1-0.2,0.2-0.3,0.4-0.3h8.7C28.1,35.5,28.3,35.6,28.3,35.8z"/>
		<path class="st1" d="M35.8,18v12.1c0,0.9-0.4,1.8-1.1,2.4l0,0c-0.6,0.5-1.4,0.8-2.2,0.8H14.4c-0.8,0-1.6-0.3-2.2-0.8l0,0
			c-0.7-0.6-1.1-1.5-1.1-2.4V18c0-1.8,1.5-3.3,3.3-3.3h4.4c-0.1,0.4-0.2,0.7-0.1,1.1h-4.3c-1.2,0-2.2,1-2.2,2.2v11.3
			c0,0.4,0.3,0.8,0.7,0.8l0,0h21c0.4,0,0.8-0.3,0.8-0.7l0,0l0,0V18c0-1.2-1-2.2-2.2-2.2H29v-0.6c0-0.2,0-0.3-0.1-0.4h3.5
			C34.4,14.7,35.8,16.2,35.8,18z"/>
	</g>
	<g>
		<path class="st1" d="M31.3,28.8H15.7l0.2-5.1c0.1-0.5,0.3-0.9,0.6-1.2c0.6-0.6,4.4-1.9,4.4-1.9c0.1,0,0.1,0,0.1,0.1l0,0l0,0l1.1,4
			l0.7-1.8l0.1-0.3H24l0.1,0.3l0.7,1.8l1.1-4c0-0.1,0.1-0.1,0.1-0.1l0,0l0,0c0,0,3.8,1.3,4.4,1.9c0.3,0.3,0.6,0.8,0.6,1.2L31.3,28.8
			z"/>
		<path class="st1" d="M23.5,21.6h-0.8c-0.1,0-0.2,0-0.2,0.1l-0.1,0.1l0.2,0.2l0.3,0.3h1l0.3-0.3l0.2-0.2l-0.1-0.1
			c-0.1-0.1-0.1-0.1-0.2-0.1H23.5z"/>
		<path class="st1" d="M27.7,14.4h-0.2c0-0.2,0-0.5,0.1-0.7c0.1-1.4-0.2-2.4-1-2.8c-0.6-1.1-1.8-1.8-3-1.6c-0.8-0.1-1.7,0.2-2.3,0.7
			c-0.3,0.3-0.5,0.6-0.7,0.9c-0.2,0.1-0.3,0.2-0.4,0.3c-0.7,0.8-0.6,2.3-0.4,3.5l0,0c-0.3,0.8-0.1,1.8,0.5,2.5l0,0
			c0.3,1.2,1.3,3.2,3.4,3.2l0,0c2.1,0,3.1-2,3.4-3.2L27,17c0.1,0.1,0.3,0.2,0.5,0.2h0.1c0.4,0,0.7-0.3,0.7-0.7v-1.3
			C28.3,14.8,28,14.5,27.7,14.4z M26.8,15.7c-0.6,0.6-1.4,1.1-2.2,1.4c-0.1-0.1-0.3-0.2-0.4-0.2h-1.5c-0.3,0-0.5,0.2-0.5,0.5l0,0
			l0,0v0.4c0,0.3,0.2,0.5,0.5,0.5l0,0h1.5c0.2,0,0.5-0.2,0.5-0.4c0.5-0.1,1-0.4,1.4-0.6c-0.3,1-1.1,2.4-2.6,2.4l0,0
			c-1.7,0-2.5-1.7-2.7-2.8c0-0.1,0-0.1-0.1-0.2l-0.1-0.1c-0.2-0.2-0.4-0.5-0.4-0.8s0-0.6,0.1-0.8c0-0.1,0-0.1,0-0.2v-0.1
			c0.6-0.3,2-1.1,2-2c0,0,3.4,1.3,4.5,1.2c0,0.2,0,0.5-0.1,0.7v0.1c0,0.1,0,0.1,0,0.2c0.1,0.2,0.1,0.3,0.1,0.5
			C26.9,15.6,26.9,15.7,26.8,15.7z"/>
	</g>
</g>
</svg>
