<?xml version="1.0" encoding="utf-8"?>
<!-- Generator: Adobe Illustrator 16.0.0, SVG Export Plug-In . SVG Version: 6.00 Build 0)  -->
<!DOCTYPE svg PUBLIC "-//W3C//DTD SVG 1.1//EN" "http://www.w3.org/Graphics/SVG/1.1/DTD/svg11.dtd">
<svg version="1.1" id="Layer_1" xmlns="http://www.w3.org/2000/svg" xmlns:xlink="http://www.w3.org/1999/xlink" x="0px" y="0px"
	 width="47px" height="47px" viewBox="0 0 47 47" enable-background="new 0 0 47 47" xml:space="preserve">
<circle fill="#FCFDFF" cx="23.5" cy="23.5" r="23.5"/>
<path fill="#5CBF93" d="M36.299,20.118L24.137,8.375c-0.354-0.345-0.919-0.345-1.273,0L10.701,20.118
	c-0.178,0.172-0.28,0.411-0.28,0.66c0,0.507,0.412,0.917,0.918,0.917h1.615v12.836c0,0.508,0.412,0.918,0.918,0.918h6.418
	c0.507,0,0.917-0.41,0.917-0.918v-7.335h4.584v7.335c0,0.508,0.41,0.918,0.918,0.918h6.418c0.507,0,0.918-0.41,0.918-0.918V21.695
	h1.615c0.249,0,0.486-0.101,0.659-0.28C36.672,21.051,36.663,20.47,36.299,20.118z"/>
</svg>
