<?xml version="1.0" encoding="utf-8"?>
<!-- Generator: Adobe Illustrator 16.0.0, SVG Export Plug-In . SVG Version: 6.00 Build 0)  -->
<!DOCTYPE svg PUBLIC "-//W3C//DTD SVG 1.1//EN" "http://www.w3.org/Graphics/SVG/1.1/DTD/svg11.dtd">
<svg version="1.1" id="Layer_1" xmlns="http://www.w3.org/2000/svg" xmlns:xlink="http://www.w3.org/1999/xlink" x="0px" y="0px"
	 width="80px" height="80px" viewBox="0 0 80 80" enable-background="new 0 0 80 80" xml:space="preserve">
<g>
	<path id="home_1_" fill="#FFFFFF" d="M67.083,47.659v19.403c0.004,1.793-1.443,3.246-3.233,3.252c-0.005,0-0.011,0-0.015,0H48.123
		c-0.896-0.004-1.622-0.729-1.624-1.625V53.522c-0.004-0.896-0.729-1.621-1.624-1.624h-9.753c-0.896,0.003-1.623,0.729-1.625,1.624
		v15.169c-0.002,0.896-0.728,1.621-1.624,1.623H16.161c-1.792,0.004-3.247-1.443-3.25-3.234c0-0.006,0-0.012,0-0.016V47.66
		c0-0.488,0.219-0.951,0.597-1.261l25.46-20.965c0.605-0.487,1.467-0.487,2.074,0l25.458,20.964
		C66.87,46.713,67.083,47.174,67.083,47.659z M78.403,39.413l-11.32-9.33v-18.76c-0.002-0.896-0.728-1.622-1.623-1.625h-7.59
		c-0.895,0.003-1.621,0.729-1.623,1.625v9.826l-12.121-9.98c-2.397-1.978-5.861-1.978-8.262,0L1.588,39.413
		c-0.69,0.573-0.787,1.595-0.217,2.289l3.454,4.198c0.573,0.69,1.596,0.786,2.289,0.217l31.852-26.234
		c0.605-0.488,1.467-0.488,2.074,0l31.853,26.233c0.692,0.569,1.715,0.475,2.288-0.217l3.453-4.198
		C79.2,41.006,79.099,39.98,78.403,39.413L78.403,39.413z"/>
</g>
</svg>
