<?xml version="1.0" encoding="utf-8"?>
<!-- Generator: Adobe Illustrator 16.0.0, SVG Export Plug-In . SVG Version: 6.00 Build 0)  -->
<!DOCTYPE svg PUBLIC "-//W3C//DTD SVG 1.1//EN" "http://www.w3.org/Graphics/SVG/1.1/DTD/svg11.dtd">
<svg version="1.1" id="Layer_1" xmlns="http://www.w3.org/2000/svg" xmlns:xlink="http://www.w3.org/1999/xlink" x="0px" y="0px"
	 width="80px" height="80px" viewBox="-8.647 -15.631 80 80" enable-background="new -8.647 -15.631 80 80" xml:space="preserve">
<g>
	<path id="home_1_" fill="#646565" d="M58.436,32.028v19.404c0.004,1.792-1.444,3.246-3.234,3.251c-0.005,0-0.01,0-0.015,0H39.475
		c-0.896-0.003-1.622-0.729-1.624-1.624V37.891c-0.004-0.896-0.729-1.621-1.624-1.624h-9.753c-0.896,0.003-1.623,0.728-1.625,1.624
		V53.06c-0.002,0.896-0.728,1.622-1.624,1.624H7.513c-1.792,0.004-3.247-1.444-3.25-3.236c0-0.005,0-0.01,0-0.015V32.029
		c0-0.488,0.219-0.951,0.597-1.261l25.46-20.965c0.605-0.487,1.467-0.487,2.073,0l25.459,20.964
		C58.222,31.082,58.435,31.542,58.436,32.028z M69.756,23.781l-11.32-9.33v-18.76c-0.002-0.896-0.728-1.622-1.624-1.625h-7.589
		c-0.895,0.003-1.621,0.729-1.624,1.625v9.826l-12.121-9.98c-2.397-1.978-5.861-1.978-8.261,0L-7.059,23.781
		c-0.69,0.573-0.787,1.596-0.217,2.289l3.454,4.198c0.573,0.69,1.596,0.786,2.289,0.217L30.319,4.251
		c0.605-0.488,1.467-0.488,2.073,0l31.853,26.233c0.692,0.569,1.715,0.474,2.288-0.217l3.454-4.198
		C70.553,25.374,70.451,24.349,69.756,23.781L69.756,23.781z"/>
</g>
</svg>
