<?xml version="1.0" encoding="utf-8"?>
<!-- Generator: Adobe Illustrator 25.0.0, SVG Export Plug-In . SVG Version: 6.00 Build 0)  -->
<svg version="1.1" id="Layer_1" xmlns="http://www.w3.org/2000/svg" xmlns:xlink="http://www.w3.org/1999/xlink" x="0px" y="0px"
	 viewBox="0 0 47 47" style="enable-background:new 0 0 47 47;" xml:space="preserve">
<style type="text/css">
	.st0{fill:#FFFFFF;}
	.st1{fill:#0054A6;stroke:#0054A6;stroke-miterlimit:10;}
</style>
<circle class="st0" cx="23.5" cy="23.5" r="23.5"/>
<g>
	<path class="st1" d="M29.1,8.8c-0.4-0.5-1-0.6-1.5-0.3L9.3,19v1.5l8.1-4.7L26,26.4c0.2,0.3,0.3,0.6,0.3,0.9v4.3L37.7,25v-5
		c0-0.7-0.2-1.3-0.7-1.8L29.1,8.8z"/>
	<path class="st1" d="M23.8,35.8v-6.9c0-0.7-0.2-1.3-0.6-1.8L17,19.7c-0.4-0.5-1-0.6-1.5-0.3l-5.3,3.1c-0.5,0.3-0.9,0.9-0.9,1.5v5.7
		c0,0.6,0.3,1.2,0.9,1.5l12.5,7.2c0.6,0.3,1.2,0.3,1.8,0L37,31.2c0.6-0.3,0.9-0.9,0.9-1.5v-2L23.8,35.8z M18,31.4
		c0,0.3-0.3,0.6-0.6,0.6c-0.1,0-0.2,0-0.3-0.1l-2.4-1.4c-0.5-0.3-0.9-0.9-0.9-1.5v-3c0-0.3,0.3-0.6,0.6-0.6c0.1,0,0.2,0,0.3,0.1
		l2.4,1.4c0.5,0.3,0.9,0.9,0.9,1.5C18,28.4,18,31.4,18,31.4z"/>
</g>
</svg>
