<svg width="20" height="14" viewBox="0 0 20 14" fill="none" xmlns="http://www.w3.org/2000/svg">
<path d="M10.1572 0.988746C9.8972 1.12901 9.73511 1.39573 9.73511 1.68582L9.73511 6.20298L0.815882 6.20298C0.365515 6.20298 -2.86356e-07 6.56002 -2.67126e-07 6.99994C-2.47897e-07 7.43987 0.365515 7.7969 0.815882 7.7969L9.73511 7.7969L9.73511 12.3141C9.73511 12.6052 9.8972 12.8719 10.1572 13.0111C10.4172 13.1525 10.7348 13.1429 10.9861 12.9888L19.6193 7.6747C19.8564 7.52806 20 7.2741 20 6.99994C20 6.72579 19.8564 6.47183 19.6193 6.32518L10.9861 1.01106C10.8534 0.930303 10.7022 0.88886 10.551 0.88886C10.4161 0.88886 10.2801 0.922864 10.1572 0.988746Z" fill="white"/>
</svg>
