<svg width="80" height="80" viewBox="0 0 80 80" fill="none" xmlns="http://www.w3.org/2000/svg">
<path d="M43.6314 2.30018C41.44 0.808144 38.5589 0.808144 36.3675 2.30018L4.63133 23.9079C3.13539 24.9263 2.24023 26.619 2.24023 28.4287V75.0219C2.24023 77.1242 3.94461 78.8285 6.0468 78.8285H73.9526C76.0549 78.8285 77.7591 77.1241 77.7591 75.0219V28.4287C77.7591 26.6188 76.864 24.9265 75.368 23.9079L43.6314 2.30018Z" fill="#D1E5FF"/>
<path d="M73.9523 78.8281C76.0546 78.8281 77.7588 77.1237 77.7588 75.0215V28.4281C77.7588 26.6185 76.8637 24.9259 75.3677 23.9072L68.9883 19.5637L41.9977 35.8994C41.3947 36.2635 40.7037 36.4561 39.9994 36.4561C39.3017 36.4561 38.6172 36.2672 38.0181 35.9097L11.1562 19.4648L4.63133 23.9074C3.13539 24.9258 2.24023 26.6184 2.24023 28.4283V75.0215C2.24023 77.1239 3.94461 78.8281 6.0468 78.8281H73.9523Z" fill="#D1E5FF"/>
<path d="M68.1448 66.5231H11.8555V16.6472C11.8555 13.1053 14.7269 10.2339 18.2688 10.2339H61.7314C65.2732 10.2339 68.1446 13.1053 68.1446 16.6472V66.5231H68.1448Z" fill="#FF9900"/>
<path d="M41.9983 35.9003C41.3954 36.2643 40.7044 36.457 40.0001 36.457C39.3024 36.457 38.6179 36.2681 38.0188 35.9106L11.8555 19.8931V66.5232H68.1446V20.0754L41.9983 35.9003Z" fill="#FFA318"/>
<path d="M33.1556 43.9244L3.08352 25.5142C2.54133 26.3748 2.24023 27.3817 2.24023 28.4285V75.0218C2.24023 77.1241 3.94461 78.8283 6.0468 78.8283H73.9526C76.0549 78.8283 77.7591 77.1239 77.7591 75.0218V28.4285C77.7591 27.4431 77.4919 26.4934 77.0087 25.6673L46.8434 43.9244C42.6347 46.4659 37.3644 46.4659 33.1556 43.9244Z" fill="#2F80ED"/>
<path d="M33.5251 44.1546L3.89258 78.179C4.49992 78.5889 5.23164 78.8283 6.01914 78.8283H73.9249C74.7374 78.8283 75.4899 78.5728 76.108 78.1392L46.5283 44.0913C42.5017 46.3873 37.5681 46.4093 33.5251 44.1546Z" fill="#2371D9"/>
<path d="M22.7694 19.4103H57.2297C57.8769 19.4103 58.4015 18.8858 58.4015 18.2386C58.4015 17.5913 57.8768 17.0669 57.2297 17.0669H22.7694C22.1222 17.0669 21.5977 17.5914 21.5977 18.2386C21.5977 18.8858 22.1223 19.4103 22.7694 19.4103Z" fill="#0C347B"/>
<path d="M22.7694 25.4919H57.2297C57.8769 25.4919 58.4015 24.9673 58.4015 24.3202C58.4015 23.6728 57.8768 23.1484 57.2297 23.1484H22.7694C22.1222 23.1484 21.5977 23.673 21.5977 24.3202C21.5977 24.9675 22.1223 25.4919 22.7694 25.4919Z" fill="#0C347B"/>
<path d="M22.7694 31.5729H38.9385C39.5857 31.5729 40.1102 31.0484 40.1102 30.4012C40.1102 29.7539 39.5855 29.2295 38.9385 29.2295H22.7694C22.1222 29.2295 21.5977 29.754 21.5977 30.4012C21.5977 31.0484 22.1223 31.5729 22.7694 31.5729Z" fill="#0C347B"/>
<path d="M76.0274 22.9393L69.316 18.3696V16.6469C69.316 12.4646 65.9133 9.06189 61.731 9.06189H55.6457L44.2909 1.33125C41.6841 -0.443751 38.3151 -0.443751 35.7081 1.33125L24.3634 9.05533L24.3679 9.06205H18.2681C14.0857 9.06205 10.6832 12.4647 10.6832 16.6469V18.3694L3.9718 22.939C2.15367 24.1768 1.06836 26.229 1.06836 28.4283V75.0215C1.06836 76.6441 1.72274 79.9998 6.04665 79.9998H73.9524C76.6976 79.9998 78.9307 77.7666 78.9307 75.0215V28.4283C78.9309 26.229 77.8452 24.1769 76.0274 22.9393ZM76.5873 28.4283V75.0215C76.5873 75.54 76.4346 76.0223 76.1751 76.4305L48.3383 44.3891L76.4552 27.3718C76.5416 27.7133 76.5873 28.0676 76.5873 28.4283ZM37.027 3.26813C38.833 2.03907 41.1666 2.03907 42.972 3.26813L51.4819 9.06205H28.5175L37.027 3.26813ZM18.2682 11.4055H61.7308C64.621 11.4055 66.9722 13.7567 66.9722 16.6469V25.5141C66.9722 26.1615 67.4969 26.6858 68.144 26.6858C68.7911 26.6858 69.3157 26.1613 69.3157 25.5141V21.2047C69.3157 21.2047 75.1044 25.1736 75.2801 25.3436L46.2377 42.9213C42.39 45.2446 37.6092 45.2449 33.7675 42.9249L13.0267 30.2276V16.6472C13.0267 13.7569 15.3781 11.4055 18.2682 11.4055ZM10.6832 21.2046V28.7927L4.84962 25.2213C4.98821 25.0982 10.6832 21.2046 10.6832 21.2046ZM5.90696 77.6495L10.0624 72.878C10.4874 72.3898 10.4365 71.6498 9.94838 71.2247C9.46041 70.7997 8.72025 70.8509 8.29509 71.3387L3.83899 76.4553C3.56977 76.0422 3.41165 75.5503 3.41165 75.0214V28.4283C3.41165 28.0065 3.47477 27.5935 3.59227 27.1996L31.733 44.4273L11.8038 67.3101C11.3788 67.7983 11.4298 68.5383 11.9179 68.9634C12.1399 69.1567 12.9056 69.4734 13.5712 68.8494L33.8134 45.6068C35.773 46.5407 37.8858 47.0084 39.9994 47.0084C42.1394 47.0084 44.2794 46.5277 46.26 45.5701L74.1282 77.6478C74.0697 77.6516 5.95352 77.652 5.90696 77.6495Z" fill="#0C347B"/>
</svg>
