<?xml version="1.0" encoding="utf-8"?>
<!-- Generator: Adobe Illustrator 24.0.0, SVG Export Plug-In . SVG Version: 6.00 Build 0)  -->
<svg version="1.1" id="Layer_1" xmlns="http://www.w3.org/2000/svg" xmlns:xlink="http://www.w3.org/1999/xlink" x="0px" y="0px"
	 viewBox="0 0 60 60" style="enable-background:new 0 0 60 60;" xml:space="preserve">
<style type="text/css">
	.st0{fill:#FFFFFF;}
	.st1{fill:#FF8808;}
	.st2{clip-path:url(#SVGID_2_);}
	.st3{fill:#0C347B;}
</style>
<g>
	<circle class="st0" cx="30" cy="30" r="29"/>
	<path class="st1" d="M30,60C13.5,60,0,46.5,0,30S13.5,0,30,0s30,13.5,30,30S46.5,60,30,60z M30,2C14.6,2,2,14.6,2,30s12.6,28,28,28
		s28-12.6,28-28S45.4,2,30,2z"/>
</g>
<g>
	<defs>
		<rect id="SVGID_1_" x="14" y="15.4" width="29" height="29"/>
	</defs>
	<clipPath id="SVGID_2_">
		<use xlink:href="#SVGID_1_"  style="overflow:visible;"/>
	</clipPath>
	<g class="st2">
		<g>
			<path class="st3" d="M37.1,26.8L37.1,26.8c-0.6,0-1.1,0.2-1.5,0.6c-0.3-0.9-1.2-1.6-2.2-1.6c-0.6,0-1.2,0.3-1.6,0.7
				c-0.4-0.8-1.2-1.3-2.1-1.3h0c-0.5,0-1,0.1-1.3,0.4V20c0-1.4-1.1-2.5-2.3-2.5c-1.3,0-2.3,1.1-2.3,2.5l0,11.1L23,30.4
				c-0.6-0.7-1.4-1.1-2.2-1.2c-0.9-0.1-1.7,0.2-2.3,0.8l-0.5,0.5c-0.2,0.1-0.2,0.4-0.1,0.6L23,41.3c1,1.9,2.8,3,4.8,3h6v0
				c3,0,5.5-2.6,5.5-5.9c0-1.5,0-2.5,0-3.4c0-2.3,0-3.2,0-5.8C39.4,27.9,38.3,26.8,37.1,26.8z M38.4,35c0,0.9,0,2,0,3.4
				c0,2.7-2,4.9-4.6,4.9h-6c-1.6,0-3.2-1-4-2.5L18.7,31l0.3-0.2c0,0,0,0,0,0c0.4-0.4,1-0.6,1.6-0.6c0.6,0,1.2,0.3,1.6,0.8l1.5,1.8
				c0.1,0.2,0.3,0.2,0.5,0.1c0.2-0.1,0.3-0.3,0.3-0.5l0-12.5c0-0.8,0.6-1.5,1.4-1.5c0.7,0,1.4,0.7,1.4,1.5v7.5c0,0,0,0.1,0,0.1
				c0,0,0,0,0,0v3.2c0,0.3,0.2,0.5,0.5,0.5s0.5-0.2,0.5-0.5v-3.3c0-0.8,0.6-1.4,1.3-1.4h0c0.7,0,1.4,0.7,1.4,1.5v2.9
				c0,0.3,0.2,0.5,0.5,0.5c0.3,0,0.5-0.2,0.5-0.5v-2.3c0-0.8,0.6-1.5,1.3-1.5c0.7,0,1.3,0.7,1.3,1.5v2.2c0,0.3,0.2,0.5,0.5,0.5
				c0.3,0,0.5-0.2,0.5-0.5v-1.2c0-0.8,0.6-1.5,1.4-1.5h0c0.7,0,1.4,0.7,1.4,1.5C38.4,31.8,38.4,32.7,38.4,35z"/>
		</g>
		<g>
			<path class="st3" d="M22.1,20.2c0.3,0,0.5-0.2,0.5-0.5c0-1.9,1.5-3.4,3.4-3.4c1.9,0,3.4,1.5,3.4,3.4c0,0.3,0.2,0.5,0.5,0.5
				c0.3,0,0.5-0.2,0.5-0.5c0-2.4-2-4.3-4.4-4.3c-2.4,0-4.3,1.9-4.4,4.3C21.6,20,21.8,20.2,22.1,20.2z"/>
		</g>
	</g>
</g>
</svg>
