<?xml version="1.0" encoding="utf-8"?>
<!-- Generator: Adobe Illustrator 24.0.0, SVG Export Plug-In . SVG Version: 6.00 Build 0)  -->
<svg version="1.1" id="Layer_1" xmlns="http://www.w3.org/2000/svg" xmlns:xlink="http://www.w3.org/1999/xlink" x="0px" y="0px"
	 viewBox="0 0 100 100" style="enable-background:new 0 0 100 100;" xml:space="preserve">
<style type="text/css">
	.st0{fill:#2AA0DA;}
	.st1{fill:#494949;}
	.st2{fill:#FFFFFF;}
	.st3{fill:#FCBD5E;}
	.st4{fill:#E1E6E8;}
</style>
<g>
	<circle class="st0" cx="50" cy="52" r="47"/>
	<g>
		<path class="st1" d="M87.7,22H10.2c-0.9,0-1.5-0.6-1.5-1.5c0-0.9,0.6-1.5,1.5-1.5h77.7c0.9,0,1.5,0.6,1.5,1.5
			C89.2,21.3,88.6,22,87.7,22z"/>
		<path class="st2" d="M65.7,30.8V12.3h-8.2V31c-6,1.8-10.3,7.3-10.3,13.8c0,7.9,6.5,14.5,14.5,14.5c7.9,0,14.5-6.5,14.5-14.5
			C76.1,38.2,71.7,32.6,65.7,30.8z"/>
		<path id="SVGCleanerId_0" class="st1" d="M61.6,60.7c-8.8,0-16-7.2-16-16c0-6.6,4.3-12.6,10.3-15V12c0-0.9,0.6-1.5,1.5-1.5h8.2
			c0.9,0,1.5,0.6,1.5,1.5v17.6c6.2,2.3,10.3,8.4,10.3,15C77.6,53.6,70.4,60.7,61.6,60.7z M59,13.8V31c0,0.6-0.4,1.2-1,1.5
			c-5.4,1.6-9.3,6.8-9.3,12.5c0,7.2,5.9,13.1,13.1,13.1S74.8,52.1,74.8,45c0-5.7-3.8-10.9-9.3-12.5c-0.6-0.1-1-0.7-1-1.5V13.8
			L59,13.8L59,13.8z"/>
		<g>
			<rect x="7.6" y="74.3" class="st1" width="2.9" height="2.9"/>
			<rect x="7.6" y="65.7" class="st1" width="2.9" height="2.9"/>
			<rect x="7.6" y="57" class="st1" width="2.9" height="2.9"/>
			<rect x="7.6" y="48.2" class="st1" width="2.9" height="2.9"/>
			<rect x="7.6" y="39.5" class="st1" width="2.9" height="2.9"/>
			<rect x="7.6" y="30.8" class="st1" width="2.9" height="2.9"/>
			<rect x="89.7" y="74.3" class="st1" width="2.9" height="2.9"/>
			<rect x="89.7" y="65.7" class="st1" width="2.9" height="2.9"/>
			<rect x="89.7" y="57" class="st1" width="2.9" height="2.9"/>
			<rect x="89.7" y="48.2" class="st1" width="2.9" height="2.9"/>
			<rect x="89.7" y="39.5" class="st1" width="2.9" height="2.9"/>
			<rect x="89.7" y="30.8" class="st1" width="2.9" height="2.9"/>
		</g>
		<path class="st3" d="M74.8,38.9l-1.9,1c-1.2,0.6-2.6,0.4-3.7-0.6l-0.7-0.9c-1.2-1.2-3.1-1.2-4.3,0l-0.1,0.1
			c-1.2,1.2-3.1,1.2-4.3,0l0,0c-1.2-1.2-3.1-1.2-4.3,0l-0.9,0.9c-0.9,0.9-2.3,1.2-3.4,0.6l-2.8-1.3c-1,2.3-1.5,5-1,7.9
			c0.9,6.5,6.3,11.7,12.8,12.3c8.7,0.9,16-5.9,16-14.4C76.1,42.7,75.7,40.7,74.8,38.9z"/>
		<g>
			<path id="SVGCleanerId_0_1_" class="st1" d="M61.6,60.7c-8.8,0-16-7.2-16-16c0-6.6,4.3-12.6,10.3-15V12c0-0.9,0.6-1.5,1.5-1.5
				h8.2c0.9,0,1.5,0.6,1.5,1.5v17.6c6.2,2.3,10.3,8.4,10.3,15C77.6,53.6,70.4,60.7,61.6,60.7z M59,13.8V31c0,0.6-0.4,1.2-1,1.5
				c-5.4,1.6-9.3,6.8-9.3,12.5c0,7.2,5.9,13.1,13.1,13.1S74.8,52.1,74.8,45c0-5.7-3.8-10.9-9.3-12.5c-0.6-0.1-1-0.7-1-1.5V13.8
				L59,13.8L59,13.8z"/>
		</g>
		<path class="st2" d="M66.3,75.4c0,2.6-2.1,4.7-4.7,4.7s-4.7-2.1-4.7-4.7s4.7-9.8,4.7-9.8C62.9,72.7,66.3,72.7,66.3,75.4z"/>
		<path class="st1" d="M61.6,81.5c-3.4,0-6.2-2.8-6.2-6.2c0-2.9,4.1-9.4,5-10.6c0.3-0.4,0.9-0.7,1.5-0.6c0.6,0.1,1,0.6,1.2,1.2
			c0.7,4,2.1,5.4,3.1,6.6c0.9,0.9,1.6,1.9,1.6,3.5C67.8,78.7,65,81.5,61.6,81.5z M61,69.2c-1.5,2.5-2.8,5.1-2.8,6.2
			c0,1.8,1.5,3.2,3.2,3.2c1.8,0,3.2-1.5,3.2-3.2c0-0.4-0.1-0.7-0.9-1.5C63.1,72.9,62,71.5,61,69.2z"/>
		<path class="st4" d="M87.2,89.2H12.8c-2.5,0-4.4,1.9-4.4,4.4v4h83.3v-4C91.6,91.1,89.7,89.2,87.2,89.2z"/>
		<g>
			<path class="st1" d="M91.6,99H8.4C7.6,99,7,98.4,7,97.5v-4c0-3.2,2.6-5.9,5.9-5.9h74.5c3.2,0,5.9,2.6,5.9,5.9v4
				C93,98.4,92.4,99,91.6,99z M9.9,96.1h80.3v-2.5c0-1.6-1.3-2.9-2.9-2.9H12.8c-1.6,0-2.9,1.3-2.9,2.9L9.9,96.1L9.9,96.1z"/>
			<path class="st1" d="M95.5,99H4.5C3.6,99,3,98.4,3,97.5c0-0.9,0.6-1.5,1.5-1.5h91.1c0.9,0,1.5,0.6,1.5,1.5
				C97,98.4,96.4,99,95.5,99z"/>
		</g>
		<rect x="20.3" y="6.5" class="st4" width="7.6" height="82.7"/>
		<path class="st1" d="M28,90.6h-7.6c-0.9,0-1.5-0.6-1.5-1.5V6.5c0-0.9,0.6-1.5,1.5-1.5H28c0.9,0,1.5,0.6,1.5,1.5v82.7
			C29.4,89.9,28.7,90.6,28,90.6z M21.8,87.7h4.7V7.9h-4.7V87.7z"/>
		<circle class="st2" cx="24.2" cy="20.6" r="7.6"/>
		<g>
			<path class="st1" d="M24.2,29.7c-5,0-9.1-4.1-9.1-9.1s4.1-9.1,9.1-9.1s9.1,4.1,9.1,9.1S29.1,29.7,24.2,29.7z M24.2,14.3
				c-3.4,0-6.2,2.8-6.2,6.2s2.8,6.2,6.2,6.2s6.2-2.8,6.2-6.2S27.5,14.3,24.2,14.3z"/>
			<path class="st1" d="M61.6,90.6c-0.9,0-1.5-0.6-1.5-1.5v-9.1c0-0.9,0.6-1.5,1.5-1.5c0.9,0,1.5,0.6,1.5,1.5v9.1
				C63.1,89.9,62.5,90.6,61.6,90.6z"/>
		</g>
	</g>
</g>
</svg>
