<svg width="405" height="400" viewBox="0 0 405 400" fill="none" xmlns="http://www.w3.org/2000/svg">
<g clip-path="url(#clip0)">
<path d="M222.918 0.359211C168.22 -3.58875 113.522 20.8168 71.7357 56.3484C36.7647 85.9581 10.2225 126.694 2.33158 171.916C-5.55934 217.138 6.27703 266.308 37.482 299.866C61.1548 325.348 93.9738 340.602 126.972 351.728C182.747 370.75 245.336 379.902 299.676 357.65C349.89 337.012 387.731 290.175 399.567 237.237C411.583 184.298 398.133 126.873 366.031 83.0869C334.109 39.4799 284.97 5.02498 222.918 0.359211Z" fill="#FFBFF3"/>
<path d="M272.057 159.892C228.657 172.274 232.603 154.329 193.686 130.282C154.59 106.236 123.206 135.666 100.25 164.917C79.6265 191.296 41.9653 185.374 11.6571 138.896C7.53227 149.484 4.4835 160.43 2.51078 171.736C-5.38014 216.958 6.45623 266.128 37.6612 299.686C61.3339 325.168 94.153 340.422 127.151 351.548C182.926 370.57 245.515 379.722 299.855 357.47C350.07 336.832 387.91 289.995 399.746 237.057C404.768 214.805 405.306 191.835 401.899 169.403C358.678 126.514 310.974 148.587 272.057 159.892Z" fill="#E899D9"/>
<path opacity="0.15" d="M352.759 214.805L271.16 269.358L278.154 300.763C278.154 300.763 311.87 327.501 346.124 312.068C380.198 296.276 352.759 214.805 352.759 214.805Z" fill="#19173B"/>
<path opacity="0.15" d="M248.563 140.691L259.682 124.002C269.546 122.028 271.339 112.337 271.339 112.337L121.771 96.1865C112.624 116.285 133.966 124.899 133.966 124.899C137.194 155.047 161.405 142.844 161.405 142.844C170.013 158.995 185.615 160.969 185.615 160.969V181.247L127.33 196.321C75.86 227.546 81.0608 310.453 83.5716 333.423C97.56 340.601 112.266 346.523 127.151 351.548C133.428 353.701 139.884 355.675 146.52 357.649L190.458 264.334L211.978 163.84C240.852 162.584 248.563 140.691 248.563 140.691Z" fill="#19173B"/>
<path d="M190.995 151.817C190.457 162.046 190.099 172.274 190.278 184.298C198.528 185.554 206.957 185.733 215.744 186.092C214.848 174.966 214.489 163.661 214.848 152.535L190.995 151.817Z" fill="#E8614E"/>
<path d="M190.996 151.817C190.816 155.944 190.637 160.072 190.458 164.379C196.196 166.532 205.881 169.044 214.668 167.429C214.489 162.405 214.489 157.559 214.668 152.535L190.996 151.817Z" fill="#F14F44"/>
<path d="M164.274 137.64C159.611 139.973 154.231 141.05 149.209 139.794C144.188 138.537 139.525 134.948 137.552 130.283C135.58 125.437 136.476 119.515 140.063 115.747C134.504 106.954 131.814 96.3661 133.786 85.5989C131.096 82.0099 128.765 78.0619 127.868 73.5756C126.971 69.0893 127.33 64.4235 129.841 60.4756C132.352 56.5276 136.656 53.8358 138.808 49.7084C140.781 45.9399 140.601 41.633 142.395 37.6851C144.905 31.9426 151.362 28.3535 157.638 27.8152C163.915 27.2768 170.192 29.4303 176.29 32.6604C175.931 30.3275 176.469 27.9946 177.366 25.8412C177.724 25.3028 178.083 24.585 178.8 24.4056C179.876 24.2261 180.773 25.4823 181.132 26.559C181.849 28.8919 182.208 31.4042 184.539 33.5577C186.333 24.9439 193.506 17.7658 201.935 15.7919C210.364 13.8179 220.048 17.2275 225.429 24.9439C228.836 24.0467 232.423 23.1494 236.01 23.3289C239.596 23.6878 243.362 25.3028 244.976 28.533C246.411 31.4042 246.232 35.1727 248.384 37.5056C250.715 40.3769 255.199 40.3769 258.606 41.633C262.193 42.8892 265.242 45.9399 266.497 49.7084C267.753 53.2975 267.394 57.6043 265.78 61.3728C271.519 63.8852 275.643 69.6277 276.002 75.729C276.361 81.8304 272.953 88.1113 267.573 92.5976C266.138 101.391 263.986 110.184 261.117 118.618C265.062 124.181 264.704 132.257 260.22 137.461C255.916 142.665 248.025 144.459 241.748 141.588L164.274 137.64Z" fill="#2E2854"/>
<path d="M155.486 94.3923C155.666 93.1361 155.845 91.8799 156.024 90.4443C156.921 84.1635 152.617 78.421 146.34 77.7032C141.857 77.1648 137.373 77.8826 133.428 79.6772C125.716 83.2662 120.157 91.521 120.157 99.9553C119.977 108.569 125.537 117.003 133.428 120.054C141.319 123.105 151.362 120.413 156.383 113.414L155.486 94.3923Z" fill="#E8614E"/>
<path d="M130.737 98.8788C134.683 93.8541 140.96 90.9829 147.236 90.9829" stroke="#2E2854" stroke-width="0.9892" stroke-miterlimit="10" stroke-linecap="round" stroke-linejoin="round"/>
<path d="M138.27 92.957C138.808 98.1612 141.318 103.186 145.084 106.954" stroke="#2E2854" stroke-width="0.9892" stroke-miterlimit="10" stroke-linecap="round" stroke-linejoin="round"/>
<path d="M253.405 88.1114C254.84 83.6251 260.22 81.2922 264.703 82.1894C269.187 83.0867 272.774 87.0347 274.388 91.3415C275.822 95.8278 275.464 100.673 274.208 105.159C272.774 109.825 270.442 114.491 266.318 117.362C262.372 120.233 256.633 121.131 252.329 118.439L253.405 88.1114Z" fill="#E8614E"/>
<path d="M253.405 88.1113C254.481 100.852 255.02 113.953 251.791 126.335C248.563 138.717 241.031 150.561 229.553 156.124C221.483 160.072 212.158 160.79 203.37 160.072C194.224 159.533 184.898 157.56 177.007 152.894C166.964 146.972 159.97 136.922 156.562 125.796C153.155 114.67 152.976 102.826 154.948 90.0853C159.97 90.2648 164.633 87.2141 167.681 83.2661C170.73 79.3181 172.703 74.6524 175.393 69.9866C178.8 76.4469 185.974 80.5743 193.327 80.3949C200.5 80.2154 207.495 75.7291 210.543 69.4482C212.337 73.9346 216.462 77.5236 221.124 78.6003C225.787 79.677 230.988 78.4209 235.472 75.7291C235.651 80.3949 237.086 84.8812 239.596 88.8291C240.852 90.8031 242.645 92.7771 245.156 92.9565C246.591 92.9565 248.025 92.4182 249.101 91.5209C249.998 90.8031 250.895 89.7264 253.405 88.1113Z" fill="#E8614E"/>
<path d="M173.42 124.361C168.937 122.028 163.019 123.822 160.508 128.129C159.611 129.565 159.252 131.359 159.252 132.975C160.687 136.025 162.481 139.076 164.633 141.768C168.757 143.742 174.138 142.486 176.828 138.896C180.952 133.333 177.724 126.514 173.42 124.361Z" fill="#D85648"/>
<path d="M248.563 135.307C248.204 131.898 245.873 128.847 243.183 127.591C238.699 125.258 232.781 127.052 230.27 131.359C227.76 135.666 229.194 141.768 233.319 144.459C236.009 146.254 239.596 146.433 242.645 145.177C244.976 142.306 246.949 138.896 248.563 135.307Z" fill="#D85648"/>
<path d="M171.985 100.314C174.317 97.8016 177.724 96.1865 181.132 96.1865C184.539 96.1865 187.947 97.8016 190.278 100.314" stroke="#2E2854" stroke-width="0.9892" stroke-miterlimit="10" stroke-linecap="round" stroke-linejoin="round"/>
<path d="M214.13 99.4165C215.744 101.929 217.358 104.621 218.793 107.671C216.82 108.03 214.847 108.569 212.875 108.927" stroke="#2E2854" stroke-width="0.9892" stroke-miterlimit="10" stroke-linecap="round" stroke-linejoin="round"/>
<path d="M228.477 100.493C230.808 98.1605 234.216 97.0837 237.444 97.4426C240.672 97.8016 243.542 99.955 245.156 102.647" stroke="#2E2854" stroke-width="0.9892" stroke-miterlimit="10" stroke-linecap="round" stroke-linejoin="round"/>
<path d="M193.686 118.08C203.011 122.925 214.848 122.566 223.994 117.542" stroke="#2E2854" stroke-width="0.9892" stroke-miterlimit="10" stroke-linecap="round" stroke-linejoin="round"/>
<path d="M272.057 286.048C284.431 298.071 301.11 305.787 318.326 307.402L325.679 257.515C310.973 236.519 295.909 214.984 275.823 199.192C275.105 198.654 274.567 198.295 273.85 197.757L272.057 286.048Z" fill="#A166FF"/>
<path opacity="0.21" d="M288.556 284.433C285.866 256.618 277.437 224.854 277.437 224.854L272.953 227.367L271.877 286.048C284.252 298.071 300.93 305.788 318.147 307.403L319.761 295.918C303.082 292.688 288.556 284.433 288.556 284.433Z" fill="#19173B"/>
<path d="M330.88 142.486C331.777 150.023 333.571 157.56 336.261 164.738L304.518 172.634L308.822 140.691L330.88 142.486Z" fill="#E8614E"/>
<path d="M310.615 113.235C311.691 108.928 312.767 104.442 313.663 100.135C313.843 99.2375 314.022 98.3402 314.56 97.6224C315.098 96.9046 315.995 96.3662 316.892 96.3662C318.506 96.5457 319.044 98.5196 319.223 100.135C319.761 105.698 318.326 111.261 316.892 116.824L310.615 113.235Z" fill="#E8614E"/>
<path d="M333.929 142.486C328.549 148.228 322.451 153.432 315.995 158.098C314.56 159.175 312.588 158.995 311.332 157.739C297.523 143.921 285.687 128.129 276.002 111.261C275.106 109.825 275.464 108.031 276.72 106.954C282.279 101.75 288.556 97.2635 295.909 93.495C297.344 92.7772 298.958 93.1361 300.034 94.2128C312.408 107.313 323.707 121.49 334.108 138.358C335.364 139.614 335.184 141.409 333.929 142.486Z" fill="#532A70"/>
<path d="M333.929 142.486C328.549 148.228 322.451 153.432 315.995 158.098C314.56 159.175 312.588 158.995 311.332 157.739C297.523 143.921 285.687 128.129 276.002 111.261C275.106 109.825 275.464 108.031 276.72 106.954C282.279 101.75 288.556 97.2635 295.909 93.495C297.344 92.7772 298.958 93.1361 300.034 94.2128C312.408 107.313 323.707 121.49 334.108 138.358C335.364 139.614 335.184 141.409 333.929 142.486Z" stroke="#2E2854" stroke-width="0.9892" stroke-miterlimit="10" stroke-linecap="round" stroke-linejoin="round"/>
<path d="M328.19 140.512C324.424 144.28 320.478 147.69 316.174 150.92C314.919 151.817 313.305 151.638 312.229 150.561C300.572 138.897 290.708 126.155 282.279 112.517C281.562 111.44 281.741 109.825 282.638 108.928C286.763 104.801 291.067 101.57 296.088 99.417C297.164 98.8787 298.599 99.2376 299.316 100.135C309.359 110.543 318.326 121.849 328.19 136.923C329.266 137.999 329.266 139.614 328.19 140.512Z" fill="#FFC45C"/>
<path d="M304.517 172.634L293.398 136.025C292.86 134.231 292.502 131.539 294.295 130.821C295.371 130.462 296.627 131.001 297.523 131.539C301.469 134.051 303.979 138.538 304.338 144.28C311.332 143.742 319.582 148.946 322.451 155.227" fill="#E8614E"/>
<path d="M304.517 172.634L293.398 136.025C292.86 134.231 292.502 131.539 294.295 130.821C295.371 130.462 296.627 131.001 297.523 131.539C301.469 134.051 303.979 138.538 304.338 144.28C311.332 143.742 319.582 148.946 322.451 155.227" stroke="#2E2854" stroke-width="0.9892" stroke-miterlimit="10" stroke-linecap="round" stroke-linejoin="round"/>
<path d="M321.375 123.105C319.582 125.617 318.326 128.488 317.788 131.359C317.43 132.616 317.43 134.231 318.506 135.128C319.402 135.846 320.658 135.666 321.554 135.307C322.451 134.769 323.168 133.872 323.706 132.975C326.576 128.847 329.087 124.361 329.625 119.336C329.804 118.259 329.625 116.824 328.907 116.106C328.011 115.388 326.397 115.568 325.5 116.465C324.244 117.362 324.244 118.798 321.375 123.105Z" fill="#E8614E"/>
<path d="M321.375 123.105C319.582 125.617 318.326 128.488 317.788 131.359C317.43 132.616 317.43 134.231 318.506 135.128C319.402 135.846 320.658 135.666 321.554 135.307C322.451 134.769 323.168 133.872 323.706 132.975C326.576 128.847 329.087 124.361 329.625 119.336C329.804 118.259 329.625 116.824 328.907 116.106C328.011 115.388 326.397 115.568 325.5 116.465C324.244 117.362 324.244 118.798 321.375 123.105Z" stroke="#2E2854" stroke-width="0.9892" stroke-miterlimit="10" stroke-linecap="round" stroke-linejoin="round"/>
<path d="M321.734 122.387C322.631 121.131 323.527 119.696 323.886 118.26C324.424 116.824 324.245 115.03 323.527 113.594C322.631 112.158 320.837 111.441 319.402 111.979C318.506 112.338 317.968 113.056 317.25 113.774C314.202 117.722 312.049 122.387 310.973 127.233C310.615 128.848 310.615 130.822 311.87 131.539C312.946 132.078 314.381 131.539 315.457 130.642C318.326 128.848 319.761 125.438 321.734 122.387Z" fill="#E8614E"/>
<path d="M321.734 122.387C322.631 121.131 323.527 119.696 323.886 118.26C324.424 116.824 324.245 115.03 323.527 113.594C322.631 112.158 320.837 111.441 319.402 111.979C318.506 112.338 317.968 113.056 317.25 113.774C314.202 117.722 312.049 122.387 310.973 127.233C310.615 128.848 310.615 130.822 311.87 131.539C312.946 132.078 314.381 131.539 315.457 130.642C318.326 128.848 319.761 125.438 321.734 122.387Z" stroke="#2E2854" stroke-width="0.9892" stroke-miterlimit="10" stroke-linecap="round" stroke-linejoin="round"/>
<path d="M329.445 130.283C328.19 132.257 327.114 134.59 326.576 136.743C326.397 137.461 326.217 138.179 326.397 139.076C326.576 139.794 327.114 140.512 327.831 140.691C328.549 140.871 329.087 140.512 329.804 140.153C332.673 138.179 334.825 134.949 335.184 131.36C335.363 130.104 335.184 128.668 333.929 128.13C333.211 127.771 332.494 127.95 331.777 128.488C331.059 128.847 330.163 129.027 329.445 130.283Z" fill="#E8614E"/>
<path d="M329.445 130.283C328.19 132.257 327.114 134.59 326.576 136.743C326.397 137.461 326.217 138.179 326.397 139.076C326.576 139.794 327.114 140.512 327.831 140.691C328.549 140.871 329.087 140.512 329.804 140.153C332.673 138.179 334.825 134.949 335.184 131.36C335.363 130.104 335.184 128.668 333.929 128.13C333.211 127.771 332.494 127.95 331.777 128.488C331.059 128.847 330.163 129.027 329.445 130.283Z" stroke="#2E2854" stroke-width="0.9892" stroke-miterlimit="10" stroke-linecap="round" stroke-linejoin="round"/>
<path d="M318.147 307.223C322.451 307.582 326.935 307.761 331.239 307.402C338.771 306.864 346.662 304.89 352.401 299.865C359.754 293.584 362.265 283.356 363.341 273.665C367.645 234.903 353.118 197.039 336.619 162.584C324.783 163.84 313.126 166.891 302.903 172.095C308.463 201.705 311.512 231.673 312.408 261.821L318.147 307.223Z" fill="#A166FF"/>
<path opacity="0.21" d="M352.401 299.865C357.243 295.738 359.933 289.816 361.726 283.535C350.607 298.609 332.315 298.789 316.712 295.2L318.326 307.402C322.631 307.761 327.114 307.941 331.418 307.582C338.771 306.864 346.662 304.89 352.401 299.865Z" fill="#19173B"/>
<path d="M302.903 172.095C308.463 201.704 311.512 231.673 312.408 261.821" stroke="#2E2854" stroke-width="0.9892" stroke-miterlimit="10" stroke-linecap="round" stroke-linejoin="round"/>
<path d="M203.729 179.273C192.072 178.197 178.083 177.299 164.095 179.094C153.872 180.35 143.471 183.221 134.504 188.246L130.917 352.983C178.621 368.775 231.167 377.21 279.051 364.648C284.61 308.659 282.817 252.669 273.671 197.757C253.585 182.683 227.939 173.71 203.729 179.273Z" fill="#CA3471"/>
<path d="M132.89 265.051L132.352 289.098C182.208 293.405 232.423 293.225 282.1 288.56C281.92 278.331 281.382 268.282 280.665 258.053C232.064 266.487 182.208 268.999 132.89 265.051Z" fill="#DB4B85"/>
<path d="M280.486 347.241C281.203 338.268 281.562 329.296 281.92 320.143C231.885 323.912 181.491 323.015 131.634 317.452L130.917 346.344C180.415 353.522 230.988 353.881 280.486 347.241Z" fill="#DB4B85"/>
<path d="M133.966 214.446L133.428 237.416C181.67 240.467 230.45 238.134 278.154 230.417C277.258 223.06 276.361 215.702 275.285 208.345C228.657 214.626 181.132 216.6 133.966 214.446Z" fill="#DB4B85"/>
<path d="M208.391 203.679C223.277 203.679 237.803 195.245 245.515 182.503C232.064 177.838 217.717 176.223 203.729 179.453C193.506 178.555 181.311 177.838 169.116 178.735C176.11 193.45 191.892 203.679 208.391 203.679Z" fill="#DB4B85"/>
<path d="M206.06 193.629C217.358 193.988 228.657 188.605 235.292 179.632C224.891 177.299 214.13 176.94 203.549 179.453C196.017 178.735 187.409 178.196 178.442 178.376C184.719 187.169 195.3 193.091 206.06 193.629Z" fill="#E8614E"/>
<path d="M210.543 374.877C217.179 376.492 223.635 377.927 230.271 379.543C232.423 380.081 234.396 380.619 236.548 380.619C238.7 380.619 240.852 380.081 242.645 379.543C246.053 381.696 248.563 385.285 249.281 389.233C249.46 390.31 249.639 391.386 249.998 392.463C250.536 393.36 251.433 394.258 252.509 394.078C253.405 393.899 253.943 393.181 254.302 392.463C254.481 392.104 254.481 391.566 254.481 391.207C255.019 393.181 255.737 395.155 256.275 397.129C256.454 397.847 256.813 398.744 257.53 399.103C258.427 399.462 259.324 399.103 259.862 398.206C260.4 397.488 260.579 396.411 260.579 395.514C260.758 394.258 260.758 393.002 260.758 391.745C260.938 392.284 261.117 392.643 261.296 393.181C261.655 394.437 262.014 395.514 262.91 396.411C263.807 397.308 265.242 397.667 266.318 396.949C267.394 396.232 267.394 394.617 267.215 393.181C266.856 390.489 266.497 387.977 265.78 385.465C266.856 386.9 267.932 388.336 268.829 389.771C269.725 390.848 271.16 392.284 272.236 391.386C273.133 390.848 273.133 389.412 272.774 388.336C269.905 376.312 262.193 365.545 251.612 358.547C239.058 350.292 225.249 344.19 210.723 340.422L210.543 374.877Z" fill="#E8614E"/>
<path d="M254.84 391.027C254.84 390.668 254.84 390.309 254.84 389.771C254.482 385.105 253.405 380.619 251.253 376.491" stroke="#2E2854" stroke-width="0.9892" stroke-miterlimit="10" stroke-linecap="round" stroke-linejoin="round"/>
<path d="M252.867 370.749C258.068 376.312 261.117 384.029 261.296 391.745" stroke="#2E2854" stroke-width="0.9892" stroke-miterlimit="10" stroke-linecap="round" stroke-linejoin="round"/>
<path d="M266.318 385.464C264.524 379.004 261.296 372.902 256.992 367.698" stroke="#2E2854" stroke-width="0.9892" stroke-miterlimit="10" stroke-linecap="round" stroke-linejoin="round"/>
<path d="M230.271 379.542C232.423 380.081 234.395 380.619 236.547 380.619C238.699 380.619 240.852 380.081 242.645 379.542C246.052 381.696 248.563 385.285 249.28 389.233C249.46 390.309 249.639 391.386 249.998 392.463C250.536 393.36 251.433 394.257 252.509 394.078C253.405 393.898 253.943 393.181 254.302 392.463C254.481 392.104 254.481 391.566 254.481 391.207C255.019 393.181 255.737 395.155 256.275 397.129C256.454 397.846 256.813 398.744 257.53 399.103C258.427 399.462 259.323 399.103 259.861 398.205C260.399 397.488 260.579 396.411 260.579 395.514C260.758 394.257 260.758 393.001 260.758 391.745C260.937 392.283 261.117 392.642 261.296 393.181C261.655 394.437 262.014 395.514 262.91 396.411C263.807 397.308 265.242 397.667 266.318 396.949C267.394 396.231 267.394 394.616 267.214 393.181C266.856 390.489 266.497 387.977 265.78 385.464C266.856 386.9 267.932 388.335 268.828 389.771C269.725 390.848 271.16 392.283 272.236 391.386C273.133 390.848 273.133 389.412 272.774 388.335C270.622 379.722 266.138 371.646 259.682 365.186" stroke="#2E2854" stroke-width="0.9892" stroke-miterlimit="10" stroke-linecap="round" stroke-linejoin="round"/>
<path d="M145.802 319.426C152.258 275.639 148.313 230.417 134.504 188.425C131.276 190.22 128.406 192.194 125.537 194.527C108.141 208.883 101.147 232.212 97.0219 254.284C93.4351 274.563 91.4624 295.379 91.4624 316.016C91.4624 324.809 92.0004 333.603 94.1525 342.216C96.4839 350.651 100.788 358.905 107.603 364.468C114.956 370.39 124.281 373.082 133.607 375.056C152.079 379.004 171.089 381.337 190.099 381.696C197.631 381.875 206.06 381.337 211.799 375.236C213.234 363.212 214.848 351.189 215.027 339.524C193.148 329.296 169.654 322.476 145.802 319.426Z" fill="#A166FF"/>
<path opacity="0.21" d="M107.782 364.468C115.135 370.39 124.46 373.082 133.786 375.056C152.258 379.004 171.268 381.337 190.278 381.696C196.734 381.875 203.728 381.516 209.108 377.568C202.832 377.389 177.903 376.312 144.905 369.852C123.564 365.724 106.527 354.598 95.5869 345.805C97.9183 352.804 101.864 359.623 107.782 364.468Z" fill="#19173B"/>
<path d="M122.488 317.452C130.379 317.631 138.09 318.349 145.802 319.426" stroke="#2E2854" stroke-width="0.9892" stroke-miterlimit="10" stroke-linecap="round" stroke-linejoin="round"/>
<path d="M215.026 339.524C193.147 329.295 169.654 322.656 145.802 319.426C150.285 289.636 149.747 259.129 144.726 229.34" stroke="#2E2854" stroke-width="0.9892" stroke-miterlimit="10" stroke-linecap="round" stroke-linejoin="round"/>
<path d="M388.986 193.629C390.571 193.629 391.856 192.344 391.856 190.758C391.856 189.172 390.571 187.887 388.986 187.887C387.401 187.887 386.117 189.172 386.117 190.758C386.117 192.344 387.401 193.629 388.986 193.629Z" stroke="#2E2854" stroke-width="0.9267" stroke-miterlimit="10" stroke-linecap="round" stroke-linejoin="round"/>
<path d="M304.517 54.5535C306.102 54.5535 307.387 53.268 307.387 51.6823C307.387 50.0965 306.102 48.811 304.517 48.811C302.933 48.811 301.648 50.0965 301.648 51.6823C301.648 53.268 302.933 54.5535 304.517 54.5535Z" stroke="#2E2854" stroke-width="0.9267" stroke-miterlimit="10" stroke-linecap="round" stroke-linejoin="round"/>
<path d="M124.82 170.839C126.404 170.839 127.689 169.553 127.689 167.967C127.689 166.382 126.404 165.096 124.82 165.096C123.235 165.096 121.95 166.382 121.95 167.967C121.95 169.553 123.235 170.839 124.82 170.839Z" stroke="#2E2854" stroke-width="0.9267" stroke-miterlimit="10" stroke-linecap="round" stroke-linejoin="round"/>
<path d="M36.4056 219.65C37.9903 219.65 39.275 218.365 39.275 216.779C39.275 215.193 37.9903 213.908 36.4056 213.908C34.8208 213.908 33.5361 215.193 33.5361 216.779C33.5361 218.365 34.8208 219.65 36.4056 219.65Z" stroke="#2E2854" stroke-width="0.9267" stroke-miterlimit="10" stroke-linecap="round" stroke-linejoin="round"/>
<path d="M302.903 324.809V335.217" stroke="#2E2854" stroke-width="0.9267" stroke-miterlimit="10" stroke-linecap="round" stroke-linejoin="round"/>
<path d="M297.702 330.013H308.104" stroke="#2E2854" stroke-width="0.9267" stroke-miterlimit="10" stroke-linecap="round" stroke-linejoin="round"/>
<path d="M91.4629 90.9824V101.57" stroke="#2E2854" stroke-width="0.9267" stroke-miterlimit="10" stroke-linecap="round" stroke-linejoin="round"/>
<path d="M86.0825 96.1865H96.6635" stroke="#2E2854" stroke-width="0.9267" stroke-miterlimit="10" stroke-linecap="round" stroke-linejoin="round"/>
</g>
<defs>
<clipPath id="clip0">
<rect width="404.051" height="400" fill="white"/>
</clipPath>
</defs>
</svg>
