<?xml version="1.0" encoding="utf-8"?>
<!-- Generator: Adobe Illustrator 24.0.0, SVG Export Plug-In . SVG Version: 6.00 Build 0)  -->
<svg version="1.1" id="Layer_1" xmlns="http://www.w3.org/2000/svg" xmlns:xlink="http://www.w3.org/1999/xlink" x="0px" y="0px"
	 viewBox="0 0 60 60" style="enable-background:new 0 0 60 60;" xml:space="preserve">
<style type="text/css">
	.st0{clip-path:url(#SVGID_2_);}
	.st1{fill:#2F80ED;}
	.st2{fill:#FF9900;}
	.st3{fill:#FF5C00;}
</style>
<g>
	<g>
		<defs>
			<rect id="SVGID_1_" y="0.3" width="60" height="59.4"/>
		</defs>
		<clipPath id="SVGID_2_">
			<use xlink:href="#SVGID_1_"  style="overflow:visible;"/>
		</clipPath>
		<g class="st0">
			<path class="st1" d="M54.6,54.8c0,1.6-1.3,2.9-2.9,2.9H8.3c-1.6,0-2.9-1.3-2.9-2.9V26.3c0-0.8-0.9-1.5-0.3-2.1l23-22.3
				c1.1-1,2.8-1,3.9,0l23,22.3c0.6,0.5-0.3,1.3-0.3,2.1V54.8z"/>
			<path class="st2" d="M30,36.3c5,0,9.6-2.2,13.1,1.2l4.6-6.1L50,12.5c0-1.6-1.3-2.9-2.9-2.9H11.8c-1.6,0-2.9,1.3-2.9,2.9v15.4
				l7.9,15.2C20.2,39.7,25,36.3,30,36.3z"/>
			<path class="st3" d="M48.2,9.6h-3.5c1.6,0,2.9,1.3,2.9,2.9v21.9l3.5-6.5V12.5C51.2,10.9,49.9,9.6,48.2,9.6z"/>
			<path class="st1" d="M54.6,56c0,1.5-1.4,1.6-2.9,1.7L34.5,44.4l17.8-17.6c0.6,0.5,2.6,1.1,2.6,1.9L54.6,56z"/>
			<path class="st1" d="M55.8,26.3c0-0.8-0.3-1.5-0.9-2.1l-2.6,2.6V56c0,0.6-0.2,1.2-0.6,1.7h0.7c1.5-0.1,3.4-0.2,3.4-1.7V26.3z"/>
			<path class="st1" d="M4.2,56c0,1.5,3,1.3,4.5,1.4l16.8-13L5.1,24.2c-0.6,0.5-0.9,1.3-0.9,2.1V56z"/>
			<path class="st1" d="M51.7,58.8c1.6,0,2.9-1.3,2.9-2.9l-9.7-16.3c-3.3-5.6-8.3-9-14.9-9c-0.6,0-1.2-0.1-1.8,0
				c-5.9,0.6-11.2,3.9-14.3,9L4.2,56c0,1.6,1.3,2.9,2.9,2.9H51.7z"/>
			<path class="st1" d="M46,39.6c-3.3-5.6-9.4-9.1-16-9.1c-0.6,0-1.2,0-1.8,0.1c5.9,0.6,11.2,3.9,14.3,9l9.1,15.2
				c1,1.7-0.1,3.9-2.1,4c0,0-0.1,0-0.1,0h3.5c1.6,0,2.9-1.3,2.9-2.9L46,39.6z"/>
			<path d="M16.4,18.1h27.1c0.5,0,0.9-0.4,0.9-0.9c0-0.5-0.4-0.9-0.9-0.9H16.4c-0.5,0-0.9,0.4-0.9,0.9
				C15.6,17.7,15.9,18.1,16.4,18.1z"/>
			<path d="M43.6,24.8c0.5,0,0.9-0.4,0.9-0.9S44.1,23,43.6,23H16.4c-0.5,0-0.9,0.4-0.9,0.9s0.4,0.9,0.9,0.9H43.6z"/>
			<path d="M22.1,41.2c-0.5-0.1-0.9,0.2-1,0.7l-2.2,10.3c-0.1,0.5,0.2,0.9,0.7,1c0.1,0,0.1,0,0.2,0c0.4,0,0.8-0.3,0.9-0.7l2.2-10.3
				C22.9,41.8,22.6,41.3,22.1,41.2z"/>
			<path d="M38.9,41.9c-0.1-0.5-0.6-0.8-1-0.7c-0.5,0.1-0.8,0.6-0.7,1l2.2,10.3c0.1,0.4,0.5,0.7,0.9,0.7c0.1,0,0.1,0,0.2,0
				c0.5-0.1,0.8-0.6,0.7-1L38.9,41.9z"/>
			<path d="M15.7,35.9c-0.9,1-1.8,2.1-2.5,3.3L5.1,52.8V41.6c0-0.5-0.4-0.9-0.9-0.9c-0.5,0-0.9,0.4-0.9,0.9V56
				c0,2.1,1.7,3.7,3.8,3.7h45.8c2.1,0,3.8-1.7,3.8-3.7V26.3c0-1-0.4-2-1.1-2.7c0,0,0,0,0,0c0,0,0,0,0,0c0,0,0,0,0,0l-3.5-3.4v-7.7
				c0-2.1-1.7-3.8-3.8-3.8h-8l-7.7-7.4c0,0,0,0,0,0c-1.4-1.3-3.6-1.3-5.1,0c0,0,0,0,0,0l-7.7,7.4h-8c-2.1,0-3.8,1.7-3.8,3.8v7.7
				l-3.5,3.4c0,0,0,0,0,0c0,0,0,0,0,0c0,0,0,0,0,0c-0.7,0.7-1.1,1.7-1.1,2.7v11.5c0,0.5,0.4,0.9,0.9,0.9c0.5,0,0.9-0.4,0.9-0.9V26.3
				c0-0.2,0-0.5,0.1-0.7L15.7,35.9z M53.6,24.2l-1.6,1.6v-3.1L53.6,24.2z M7.9,25.8l-1.6-1.6l1.6-1.5V25.8z M9.7,12.5
				c0-1.1,0.9-2,2.1-2h18.2c0.5,0,0.9-0.4,0.9-0.9c0-0.5-0.4-0.9-0.9-0.9h-7.6l6.4-6.2c0.8-0.7,1.9-0.7,2.7,0l6.4,6.2h-4
				c-0.5,0-0.9,0.4-0.9,0.9c0,0.5,0.4,0.9,0.9,0.9h14.5c1.1,0,2.1,0.9,2.1,2v15l-7.2,7.2c-1-0.9-2.2-1.7-3.4-2.4
				c-2.9-1.7-6.3-2.5-9.7-2.5c-3.4,0-6.7,0.9-9.7,2.5c-1.2,0.7-2.4,1.5-3.4,2.4l-7.2-7.2V12.5z M54.8,25.6c0.1,0.2,0.1,0.5,0.1,0.7
				v26.5l-6.2-10.3c-0.2-0.4-0.8-0.6-1.2-0.3c-0.4,0.2-0.6,0.8-0.3,1.2l7.7,12.8c-0.1,1-1,1.8-2,1.8H7.1c-1,0-1.9-0.8-2-1.8
				l9.6-16.1c3.2-5.3,9-8.6,15.3-8.6s12.1,3.3,15.3,8.6c0.2,0.4,0.8,0.6,1.2,0.3c0.4-0.2,0.6-0.8,0.3-1.2c-0.7-1.2-1.5-2.3-2.5-3.3
				L54.8,25.6z"/>
		</g>
	</g>
</g>
</svg>
