<?xml version="1.0" encoding="utf-8"?>
<!-- Generator: Adobe Illustrator 24.0.0, SVG Export Plug-In . SVG Version: 6.00 Build 0)  -->
<svg version="1.1" id="Layer_1" xmlns="http://www.w3.org/2000/svg" xmlns:xlink="http://www.w3.org/1999/xlink" x="0px" y="0px"
	 viewBox="0 0 60 60" style="enable-background:new 0 0 60 60;" xml:space="preserve">
<style type="text/css">
	.st0{fill:#FFFFFF;}
	.st1{fill:#FF8808;}
	.st2{clip-path:url(#SVGID_2_);}
	.st3{fill:#0C347B;}
</style>
<g>
	<g>
		<circle class="st0" cx="30" cy="30" r="29"/>
		<path class="st1" d="M30,60C13.5,60,0,46.5,0,30C0,13.5,13.5,0,30,0s30,13.5,30,30C60,46.5,46.5,60,30,60z M30,2
			C14.6,2,2,14.6,2,30c0,15.4,12.6,28,28,28s28-12.6,28-28C58,14.6,45.4,2,30,2z"/>
	</g>
	<g>
		<defs>
			<rect id="SVGID_1_" x="15.4" y="15.4" width="29" height="29"/>
		</defs>
		<clipPath id="SVGID_2_">
			<use xlink:href="#SVGID_1_"  style="overflow:visible;"/>
		</clipPath>
		<g class="st2">
			<g>
				<path class="st3" d="M42.7,31h-0.6v-4c0-1.6-1.1-2.9-2.6-3.2L37,19.4c-0.4-0.7-1-1.1-1.7-1.3c-0.5-0.1-1-0.1-1.5,0l-1.9-1.9
					c-1.1-1.1-2.9-1.1-4,0l-7.5,7.5h-1.6c-1.8,0-3.3,1.5-3.3,3.3v14c0,1.8,1.5,3.3,3.3,3.3h7.5c0.3,0,0.6-0.3,0.6-0.6
					c0-0.3-0.3-0.6-0.6-0.6h-7.5c-1.2,0-2.2-1-2.2-2.2V27c0-1.2,1-2.2,2.2-2.2h20.1c1.2,0,2.2,1,2.2,2.2v4h-4.2
					c-1.7,0-3.1,1.4-3.1,3.1c0,1.7,1.4,3.1,3.1,3.1H41v4c0,1.2-1,2.2-2.2,2.2h-7.5c-0.3,0-0.6,0.3-0.6,0.6c0,0.3,0.3,0.6,0.6,0.6
					h7.5c1.8,0,3.3-1.5,3.3-3.3v-4h0.6c0.9,0,1.7-0.8,1.7-1.7v-2.7C44.4,31.8,43.6,31,42.7,31z M34.9,19.1c0.4,0.1,0.8,0.4,1,0.8
					l2.2,3.8H26l7.7-4.4C34,19.1,34.5,19,34.9,19.1z M28.6,17c0.3-0.3,0.7-0.5,1.2-0.5s0.9,0.2,1.2,0.5l1.6,1.6l-8.9,5.1h-1.8
					L28.6,17z M43.2,35.4c0,0.3-0.3,0.6-0.6,0.6h-5.9c-1.1,0-1.9-0.9-1.9-1.9s0.9-1.9,1.9-1.9h5.9c0.3,0,0.6,0.3,0.6,0.6V35.4z"/>
			</g>
			<g>
				<path class="st3" d="M36.7,33.5c-0.1,0-0.3,0.1-0.4,0.2c-0.1,0.1-0.2,0.3-0.2,0.4c0,0.1,0.1,0.3,0.2,0.4
					c0.1,0.1,0.3,0.2,0.4,0.2c0.1,0,0.3-0.1,0.4-0.2c0.1-0.1,0.2-0.3,0.2-0.4c0-0.1-0.1-0.3-0.2-0.4C37,33.5,36.8,33.5,36.7,33.5z"
					/>
			</g>
			<g>
				<path class="st3" d="M28.7,43.2c-0.1,0-0.3,0.1-0.4,0.2c-0.1,0.1-0.2,0.3-0.2,0.4c0,0.1,0.1,0.3,0.2,0.4
					c0.1,0.1,0.3,0.2,0.4,0.2c0.1,0,0.3-0.1,0.4-0.2c0.1-0.1,0.2-0.3,0.2-0.4c0-0.1-0.1-0.3-0.2-0.4C29,43.3,28.9,43.2,28.7,43.2z"
					/>
			</g>
		</g>
	</g>
</g>
</svg>
