<?xml version="1.0" encoding="utf-8"?>
<!-- Generator: Adobe Illustrator 16.0.0, SVG Export Plug-In . SVG Version: 6.00 Build 0)  -->
<!DOCTYPE svg PUBLIC "-//W3C//DTD SVG 1.1//EN" "http://www.w3.org/Graphics/SVG/1.1/DTD/svg11.dtd">
<svg version="1.1" id="Capa_1" xmlns="http://www.w3.org/2000/svg" xmlns:xlink="http://www.w3.org/1999/xlink" x="0px" y="0px"
	 width="200px" height="200px" viewBox="85 0 200 200" enable-background="new 85 0 200 200" xml:space="preserve">
<g>
	<circle fill="#DEDEDE" cx="185" cy="100" r="96.5"/>
	<path fill="#777777" d="M229.028,144.028c-3.619,3.618-9.65,3.618-13.269,0L185,113.269l-30.759,30.76
		c-3.619,3.618-9.65,3.618-13.269,0c-3.619-3.619-3.619-9.65,0-13.269L171.731,100l-30.759-30.759c-3.619-3.619-3.619-9.65,0-13.269
		s9.65-3.619,13.269,0L185,86.731l30.76-30.759c3.618-3.619,9.649-3.619,13.269,0c3.618,3.619,3.618,9.65,0,13.269L198.269,100
		l30.76,30.76C232.646,134.378,232.646,140.409,229.028,144.028z"/>
</g>
</svg>
