<svg width="565" height="470" viewBox="0 0 565 470" fill="none" xmlns="http://www.w3.org/2000/svg">
<g clip-path="url(#clip0)">
<path d="M264.488 55.3481H117.953V58.9775H264.488V55.3481Z" fill="#F9FBFF"/>
<path d="M417.374 139.729H204.15V143.359H417.374V139.729Z" fill="#F9FBFF"/>
<path d="M417.828 159.238H204.604V162.867H417.828V159.238Z" fill="#F9FBFF"/>
<path d="M418.28 178.745H205.057V182.374H418.28V178.745Z" fill="#F9FBFF"/>
<path d="M324.373 198.253H205.512V201.883H324.373V198.253Z" fill="#F9FBFF"/>
<path d="M353.861 70.3188H117.953V73.9482H353.861V70.3188Z" fill="#F9FBFF"/>
<path d="M417.828 85.7432H117.953V89.3725H417.828V85.7432Z" fill="#F9FBFF"/>
<path d="M123.398 18.147C123.398 20.869 121.129 22.6837 118.861 22.6837C116.139 22.6837 114.324 20.4154 114.324 18.147C114.324 15.425 116.593 13.6104 118.861 13.6104C121.129 13.6104 123.398 15.8787 123.398 18.147Z" fill="white"/>
<path d="M140.634 22.6837C143.14 22.6837 145.171 20.6526 145.171 18.147C145.171 15.6415 143.14 13.6104 140.634 13.6104C138.129 13.6104 136.098 15.6415 136.098 18.147C136.098 20.6526 138.129 22.6837 140.634 22.6837Z" fill="white"/>
<path d="M162.414 22.6837C164.919 22.6837 166.95 20.6526 166.95 18.147C166.95 15.6415 164.919 13.6104 162.414 13.6104C159.908 13.6104 157.877 15.6415 157.877 18.147C157.877 20.6526 159.908 22.6837 162.414 22.6837Z" fill="white"/>
<path d="M563.909 470.001H0.453668C0 470.001 0 469.547 0 469.093C0 468.64 0.453668 468.64 0.453668 468.64H563.456C563.909 468.64 563.909 469.093 563.909 469.093C564.363 469.547 564.363 470.001 563.909 470.001Z" fill="#0C347B"/>
<path d="M104.344 345.695C95.7241 339.797 83.9288 339.343 73.9481 342.519C63.9674 345.241 54.894 351.592 47.1816 358.397C54.4403 362.48 57.1623 371.1 60.7917 377.905C64.8747 386.071 71.2261 393.783 79.8457 397.413C84.8361 399.681 90.2801 400.588 95.2705 399.681C100.714 399.227 104.797 396.052 109.334 393.783C111.603 392.422 114.778 391.969 116.593 390.154C119.315 387.432 119.769 382.895 118.861 378.812C117.954 375.637 117.047 372.461 116.593 369.285C116.139 366.11 116.593 363.388 115.686 360.212C113.871 354.314 109.788 348.87 104.344 345.695Z" fill="#DDE2FF"/>
<path d="M100.261 308.495C93.9096 299.875 83.4752 295.338 73.0408 294.431C62.6065 293.524 52.1721 295.792 42.1914 299.421C47.1818 305.773 46.7281 314.392 47.6354 322.558C48.5428 331.632 51.7184 341.159 58.5235 347.51C62.1528 351.14 67.1431 354.315 72.1335 355.223C77.5775 356.584 82.1142 355.223 87.5582 354.769C90.2802 354.315 93.0022 355.223 95.7242 353.862C99.3536 352.501 101.168 347.964 101.622 344.335C102.076 341.159 102.076 337.53 102.983 334.354C103.89 331.178 105.251 328.91 105.251 325.734C105.705 319.836 104.344 313.485 100.261 308.495Z" fill="#90C0FF"/>
<path d="M148.349 314.846C141.544 309.856 134.286 306.226 127.027 301.69C119.768 297.153 113.417 291.255 107.519 284.904C108.88 299.421 97.0848 311.67 93.9092 326.188C92.0945 334.807 93.9092 343.427 97.5385 351.139C102.075 359.759 108.427 366.11 117.046 369.74C117.5 369.74 117.954 370.193 118.407 370.193C121.129 371.101 123.851 372.008 126.12 373.369C127.481 373.823 128.842 374.276 130.203 373.823C130.656 373.369 131.11 372.915 131.564 372.462C134.739 369.286 138.822 367.471 142.452 365.203C145.627 362.935 148.803 359.759 151.525 356.583C156.969 351.139 161.052 343.427 160.598 335.715C160.598 327.095 155.154 320.29 148.349 314.846Z" fill="#2F80ED"/>
<path d="M198.708 452.307L196.893 453.668C181.015 435.068 160.146 417.375 132.019 397.867C129.751 396.506 127.936 394.691 125.668 393.33C106.614 380.174 86.6521 366.11 63.9688 361.574L64.4224 359.305C87.5595 363.842 107.521 377.906 127.029 391.516C129.297 392.877 131.565 394.691 133.38 396.052C161.961 415.56 182.376 433.253 198.708 452.307Z" fill="#0C347B"/>
<path d="M195.078 457.751L193.264 459.566C170.127 435.068 147.897 409.209 126.121 382.896C114.326 368.378 99.8082 355.676 86.1982 343.427C78.4858 336.622 70.3198 329.363 62.6074 321.651L64.4221 319.836C72.1344 327.095 79.8468 334.353 88.0128 341.158C102.077 353.407 116.14 366.11 128.389 380.627C149.258 407.394 171.941 433.253 195.078 457.751Z" fill="#0C347B"/>
<path d="M192.808 459.112L190.993 460.473C185.096 451.854 179.198 443.688 173.754 435.068C162.412 418.282 150.617 401.496 138.368 384.711C124.304 365.657 116.592 340.705 116.592 313.938H118.86C118.86 340.251 126.572 364.749 140.183 383.35C152.432 399.682 164.227 416.921 175.569 433.707C181.013 441.873 186.91 450.493 192.808 459.112Z" fill="#0C347B"/>
<path d="M156.517 407.848C157.424 405.126 155.609 402.404 154.702 399.682C152.887 394.692 152.434 389.248 152.434 384.257C152.434 380.174 152.434 375.184 155.609 372.462C156.517 372.008 156.97 371.101 158.331 371.101C160.6 370.647 162.414 372.916 163.322 375.184C166.044 381.082 166.044 387.433 164.683 393.331C163.322 399.228 160.6 405.126 158.331 411.024L156.517 407.848Z" fill="#0C347B"/>
<path d="M138.369 394.691C138.823 392.877 137.915 390.608 137.008 388.794C135.647 385.164 135.647 381.535 135.193 377.452C135.193 374.276 135.193 371.1 137.462 368.832C137.915 368.378 138.369 367.925 139.276 367.925C141.091 367.925 141.998 369.286 142.906 370.647C144.72 374.73 144.72 379.266 143.813 383.803C142.906 388.34 141.091 392.423 139.276 396.506L138.369 394.691Z" fill="#0C347B"/>
<path d="M122.039 416.467C121.586 412.384 124.761 408.301 128.844 406.94C132.927 405.579 137.464 406.033 141.547 407.394C145.63 408.755 149.259 410.569 153.342 411.93L155.611 416.921C152.435 416.467 149.713 417.828 146.991 419.189C142.454 421.911 137.918 424.179 132.927 424.179C127.937 425.087 122.493 421.457 122.039 416.467Z" fill="#FF9900"/>
<path d="M112.511 398.321C112.058 395.599 114.326 393.331 117.048 392.423C119.77 391.516 122.492 391.97 124.76 392.877C127.482 393.784 129.751 395.145 132.019 395.599L133.38 398.775C131.565 398.321 129.751 399.228 127.936 400.136C125.214 401.497 122.492 403.311 119.316 403.311C116.141 403.765 112.511 401.497 112.511 398.321Z" fill="#FF9900"/>
<path d="M458.203 284.904C457.749 284.45 457.295 284.45 456.842 284.904C455.027 285.357 452.305 286.265 450.944 288.079C451.851 284.45 450.49 280.821 449.583 277.645C449.583 277.645 449.583 277.191 449.129 277.191H448.676C446.861 277.645 445.046 278.099 443.685 279.006C442.324 279.913 441.871 281.728 441.417 283.089C441.871 281.274 441.871 279.006 441.417 277.191C440.963 276.284 440.963 275.83 440.51 275.377C440.056 274.469 440.056 273.562 439.149 272.655C439.149 272.201 438.695 272.201 438.241 272.201C437.788 272.201 436.88 272.655 436.427 273.108C435.519 274.016 434.158 275.377 433.251 276.284C432.344 277.191 431.89 278.552 430.983 276.738C430.075 274.469 429.622 272.201 427.807 270.386C427.807 270.386 425.992 272.201 425.992 272.655C423.27 278.552 421.002 285.811 421.002 292.162C421.456 299.421 427.353 311.67 427.353 311.67C429.168 311.67 430.529 311.216 432.344 311.216C433.251 311.216 434.158 311.216 434.612 310.763C435.519 310.309 436.427 309.855 437.334 309.402C440.963 307.133 444.139 304.865 447.315 301.689C450.49 298.514 452.759 295.338 455.027 291.255C456.388 290.801 459.11 285.811 458.203 284.904Z" fill="#FF9900"/>
<path d="M427.354 296.699C426.9 290.802 429.168 284.904 431.437 279.46C431.437 279.46 431.89 278.552 432.344 277.645C432.344 277.191 431.89 277.191 431.89 276.738L430.529 278.552C427.807 283.543 425.993 289.894 426.446 295.792C426.9 302.143 431.89 313.031 431.89 313.031C432.344 313.031 432.344 313.031 432.798 313.031C431.437 310.763 427.807 302.143 427.354 296.699Z" fill="#0C347B"/>
<path d="M443.683 302.143C446.858 298.514 449.127 293.523 450.034 288.987C450.034 288.987 450.034 288.079 450.034 287.172C450.488 287.172 450.488 287.172 450.941 286.718C450.941 286.718 450.941 288.533 450.941 288.987C450.034 293.523 447.766 298.967 444.59 302.143C440.961 305.772 431.887 310.309 431.887 310.309L431.434 309.855C433.248 308.948 440.507 305.319 443.683 302.143Z" fill="#0C347B"/>
<path d="M440.962 282.636C437.787 291.709 434.157 300.782 430.528 309.402C430.074 309.856 431.435 310.763 431.435 309.856C435.065 300.782 438.694 291.709 441.87 282.636C442.324 282.182 441.416 282.182 440.962 282.636Z" fill="#0C347B"/>
<path d="M437.331 310.309C437.331 310.309 436.878 309.856 436.424 309.856C435.97 309.856 434.609 310.309 434.156 310.763C434.609 309.402 434.156 308.041 433.702 307.134C433.248 307.134 432.341 307.587 431.887 308.041C431.434 308.495 431.434 308.948 430.98 309.402C430.98 308.495 430.98 308.041 430.98 307.134C430.98 306.68 430.98 306.68 430.526 306.226C430.526 305.773 430.526 305.319 430.073 305.319C430.073 305.319 430.073 305.319 429.619 305.319C429.165 305.319 429.165 305.319 429.165 305.773C428.712 306.226 428.258 306.68 427.804 307.134C427.351 307.587 427.351 308.041 426.897 307.134C426.443 306.226 425.99 305.319 425.536 304.412L425.082 305.319C425.536 307.587 423.268 309.856 423.268 312.578C423.268 315.3 425.536 319.836 425.536 319.836C425.99 319.836 426.897 319.836 427.351 319.836C427.804 319.836 427.804 319.836 428.258 319.836C428.712 319.836 428.712 319.383 429.165 319.383C430.526 318.475 430.98 318.022 431.887 317.114C433.248 316.207 433.702 314.392 434.156 313.031C435.063 312.124 436.878 310.763 437.331 310.309Z" fill="#0C347B"/>
<path d="M411.021 361.573C416.919 346.602 420.094 330.724 429.168 317.114C430.075 315.753 427.807 314.845 427.353 316.206C418.28 330.27 414.65 347.056 408.753 362.481C406.938 366.564 405.123 370.647 403.309 374.73L405.123 376.544C406.938 371.1 409.206 366.11 411.021 361.573Z" fill="#0C347B"/>
<path d="M476.803 449.131C480.432 447.317 484.062 445.502 487.691 443.234C506.291 432.799 565.268 394.691 545.76 368.378C540.77 361.573 531.243 359.305 522.623 358.851C514.457 358.851 506.745 359.759 499.033 362.481C497.672 362.934 495.857 363.388 494.042 362.934C491.32 362.027 490.867 358.851 490.413 356.129C489.506 348.871 489.506 341.158 486.33 334.807C479.071 320.743 458.656 318.929 444.592 325.734C436.88 329.817 428.26 335.714 420.094 332.085C416.011 330.27 413.289 326.187 409.66 323.012C401.494 315.299 389.245 313.938 378.357 313.031C369.737 312.124 360.664 311.67 352.952 315.299C348.415 317.568 344.332 321.197 341.156 325.28C317.565 354.768 325.731 398.774 344.785 429.17C358.849 451.4 378.357 470.454 406.031 468.185C430.529 467.278 454.573 460.019 476.803 449.131Z" fill="#91C0FF"/>
<path d="M525.801 377.452C484.064 401.95 447.77 433.707 407.847 461.835C407.394 461.835 406.486 461.835 406.94 461.381C446.409 433.707 482.703 401.497 524.894 376.999C525.347 376.999 526.255 377.452 525.801 377.452Z" fill="#0C347B"/>
<path d="M512.192 374.276C509.47 380.628 505.841 386.525 501.758 392.423C501.304 392.877 500.397 392.423 500.85 391.969C504.933 386.525 508.562 380.174 511.284 373.823C511.738 373.823 512.645 373.823 512.192 374.276Z" fill="#0C347B"/>
<path d="M495.86 378.812C493.138 388.339 489.055 396.959 484.064 405.125C484.064 405.579 482.703 405.125 483.157 404.672C488.601 396.505 492.23 387.886 494.952 378.812C494.499 378.359 495.86 378.359 495.86 378.812Z" fill="#0C347B"/>
<path d="M478.619 389.701C475.444 399.681 471.361 409.208 466.37 418.282C466.37 418.735 465.463 418.282 465.463 417.828C470.453 408.755 474.536 399.228 477.712 389.247C477.712 389.247 478.619 389.701 478.619 389.701Z" fill="#0C347B"/>
<path d="M460.474 398.775C456.845 411.478 451.401 423.727 444.142 434.615C443.689 435.068 442.781 434.615 443.235 434.161C450.494 423.273 455.938 411.024 459.567 398.321C460.021 398.321 460.928 398.321 460.474 398.775Z" fill="#0C347B"/>
<path d="M446.409 408.301C438.243 423.272 429.624 437.79 421.004 452.307C421.004 452.761 419.643 452.307 420.096 451.854C429.17 437.336 437.79 422.819 445.502 407.848C445.502 407.394 446.863 407.848 446.409 408.301Z" fill="#0C347B"/>
<path d="M520.809 391.062C513.551 391.516 505.838 392.877 498.58 394.691C498.126 394.691 497.219 394.238 497.672 394.238C504.931 392.423 512.19 391.062 519.902 390.608C520.356 390.608 521.263 391.062 520.809 391.062Z" fill="#0C347B"/>
<path d="M496.767 406.033C489.055 407.394 481.342 409.663 474.084 412.385C473.63 412.385 472.723 411.931 473.176 411.931C480.435 409.209 488.147 406.941 496.314 405.58C496.767 405.58 497.221 406.033 496.767 406.033Z" fill="#0C347B"/>
<path d="M472.721 423.726C465.463 422.819 459.565 426.902 452.76 428.263C452.306 428.263 451.399 427.809 452.306 427.809C459.111 426.448 465.463 422.365 472.721 423.273C473.175 423.273 473.629 423.726 472.721 423.726Z" fill="#0C347B"/>
<path d="M460.926 435.522C452.306 435.522 444.594 439.605 436.428 440.512C435.974 440.512 435.067 440.058 435.974 440.058C440.965 439.605 445.048 437.79 449.584 436.429C453.214 435.522 456.843 435.068 460.472 435.068C460.926 435.068 461.833 435.522 460.926 435.522Z" fill="#0C347B"/>
<path d="M444.141 447.771C436.429 449.132 427.809 449.586 420.55 452.761C420.097 452.761 419.19 452.308 419.643 452.308C426.902 449.132 435.521 448.678 443.234 447.317C444.141 447.317 445.049 447.771 444.141 447.771Z" fill="#0C347B"/>
<path d="M465.462 334.807C434.158 372.008 411.021 414.199 383.348 454.122C383.348 454.575 381.987 454.122 382.44 454.122C410.114 414.653 433.705 372.008 464.554 334.807C464.554 334.353 465.462 334.353 465.462 334.807Z" fill="#0C347B"/>
<path d="M451.852 336.168C451.398 342.973 450.037 350.231 448.223 357.036C448.223 357.49 446.862 357.49 447.315 357.036C449.13 350.231 450.491 343.426 450.945 336.621C450.945 335.714 451.852 335.714 451.852 336.168Z" fill="#0C347B"/>
<path d="M437.336 346.148C437.79 355.675 437.336 365.202 435.068 374.729C435.068 375.183 434.16 375.183 434.16 374.729C436.429 365.202 437.336 355.675 436.429 346.148C436.429 345.695 437.336 345.695 437.336 346.148Z" fill="#0C347B"/>
<path d="M425.085 362.027C425.539 372.462 424.632 382.896 423.271 392.877C423.271 393.33 422.363 393.33 422.363 392.877C424.178 382.442 424.632 372.462 424.178 362.027H425.085Z" fill="#0C347B"/>
<path d="M411.478 376.998C412.385 390.155 411.478 403.311 408.303 416.467C408.303 416.921 406.942 416.921 407.395 416.467C410.571 403.765 411.478 390.608 410.571 377.452C410.117 376.545 411.478 376.545 411.478 376.998Z" fill="#0C347B"/>
<path d="M401.041 390.608C398.319 407.393 395.597 424.179 391.968 440.965C391.968 441.418 391.061 441.418 391.061 440.965C394.69 424.179 397.866 407.847 400.134 391.061C400.134 390.154 401.495 390.154 401.041 390.608Z" fill="#0C347B"/>
<path d="M465.461 348.871C458.656 352.047 452.304 355.676 445.953 359.759C445.953 359.759 444.592 359.759 445.046 359.759C451.397 355.222 457.748 351.593 464.553 348.871C465.007 348.871 465.914 348.871 465.461 348.871Z" fill="#0C347B"/>
<path d="M447.769 371.554C440.964 375.637 434.613 380.174 428.261 385.164C427.808 385.164 426.9 385.164 427.354 385.164C433.252 380.174 440.057 375.183 446.862 371.554C447.315 371.1 448.223 371.1 447.769 371.554Z" fill="#0C347B"/>
<path d="M431.437 396.052C424.631 397.867 420.095 403.765 414.197 407.394C413.743 407.394 412.836 407.394 413.29 406.94C419.187 403.311 423.724 397.413 431.437 396.052C431.89 396.052 431.437 395.599 431.437 396.052Z" fill="#0C347B"/>
<path d="M424.178 411.023C416.012 414.199 410.568 420.55 402.855 424.179C402.855 424.179 401.494 424.179 401.948 424.179C406.485 421.911 409.66 418.735 413.743 416.013C416.919 413.745 420.095 412.384 423.724 411.023C423.724 411.023 424.631 411.023 424.178 411.023Z" fill="#0C347B"/>
<path d="M412.382 428.262C405.577 431.892 397.864 435.521 391.967 440.511C391.967 440.511 390.606 440.511 391.059 440.511C396.957 435.067 404.67 431.892 411.928 427.809C411.928 427.809 412.836 428.262 412.382 428.262Z" fill="#0C347B"/>
<path d="M376.998 310.763C368.378 358.398 369.286 406.94 364.749 455.029C364.749 455.483 363.842 455.936 363.842 455.483C368.378 407.394 367.471 358.851 376.091 311.216C376.091 311.216 376.998 310.763 376.998 310.763Z" fill="#0C347B"/>
<path d="M365.655 318.929C368.831 325.28 371.099 332.085 372.46 338.89C372.46 339.344 371.553 339.797 371.553 339.344C369.738 332.539 367.47 326.187 364.748 319.836C364.748 319.382 365.655 318.475 365.655 318.929Z" fill="#0C347B"/>
<path d="M358.398 334.807C363.842 342.973 367.925 351.593 370.647 361.12C370.647 361.574 369.739 362.027 369.739 361.573C367.017 352.5 362.934 343.427 357.49 335.715C357.49 335.261 358.398 334.354 358.398 334.807Z" fill="#0C347B"/>
<path d="M355.675 354.768C361.119 363.841 365.656 372.915 369.285 382.896C369.285 383.349 368.378 383.803 368.378 383.349C364.748 373.822 360.212 364.295 354.768 355.222L355.675 354.768Z" fill="#0C347B"/>
<path d="M351.138 374.276C358.851 385.164 364.295 397.413 367.924 410.116C367.924 410.57 367.017 411.023 367.017 410.57C363.387 397.867 357.943 386.071 350.231 375.183C349.777 374.73 350.685 373.822 351.138 374.276Z" fill="#0C347B"/>
<path d="M348.87 391.062C355.222 406.94 360.666 422.819 365.656 439.151C365.656 439.605 364.749 440.058 364.749 439.605C359.758 423.272 353.861 407.394 347.963 391.516L348.87 391.062Z" fill="#0C347B"/>
<path d="M383.804 323.465C379.267 329.363 375.638 335.714 372.462 342.519C372.462 342.973 371.555 342.973 371.555 342.973C374.73 336.168 378.813 329.817 382.896 323.465C383.35 323.465 384.257 323.012 383.804 323.465Z" fill="#0C347B"/>
<path d="M380.173 351.593C376.09 358.398 372.915 365.657 370.192 372.916C370.192 373.369 369.285 373.823 369.285 373.369C372.007 365.657 375.183 358.852 379.266 351.593C379.266 351.593 380.173 351.14 380.173 351.593Z" fill="#0C347B"/>
<path d="M377.905 381.082C372.461 386.072 371.554 393.331 368.378 399.228C368.378 399.682 367.471 399.682 367.471 399.228C371.1 392.877 372.007 385.618 377.451 380.628C377.905 380.628 378.359 380.628 377.905 381.082Z" fill="#0C347B"/>
<path d="M379.266 397.867C373.368 404.672 372.007 412.838 367.017 420.097C367.017 420.097 366.109 420.55 366.109 420.097C368.831 416.014 370.192 411.477 372.007 407.394C373.368 403.765 375.636 401.043 377.905 397.867C378.812 397.867 379.72 397.413 379.266 397.867Z" fill="#0C347B"/>
<path d="M377.451 418.735C373.368 425.54 368.377 432.345 365.655 439.604C365.655 440.057 364.748 440.511 364.748 440.057C367.016 432.345 372.461 425.54 376.544 418.735C376.997 418.281 377.905 418.281 377.451 418.735Z" fill="#0C347B"/>
<path d="M492.682 463.365C491.775 458.829 489.506 456.107 489.506 456.107C485.423 457.468 481.794 459.282 479.072 461.551C478.618 461.551 478.618 461.551 478.165 461.097C481.34 443.858 468.638 436.145 468.638 436.145C463.647 440.228 460.925 444.765 459.564 449.755C454.12 435.238 440.964 431.609 440.964 431.609C438.696 435.692 436.881 439.321 435.974 442.95C435.066 442.497 434.159 442.043 433.252 442.043C442.779 427.072 434.159 415.276 434.159 415.276C425.993 417.998 420.549 422.535 417.373 427.979C412.383 414.369 400.134 412.101 400.134 412.101C397.412 417.545 396.504 422.989 396.504 427.979C395.143 427.526 393.329 427.072 391.968 426.618C389.246 418.906 382.894 415.276 382.894 415.276C380.172 417.545 378.358 419.813 376.997 422.535C376.089 422.535 375.636 422.081 374.728 422.081C371.099 405.749 357.035 403.027 357.035 403.027C353.86 408.925 352.952 414.369 353.406 419.359C352.499 419.359 351.591 419.359 350.684 419.359C350.684 408.471 343.879 402.574 343.879 402.574C335.259 408.018 331.176 415.276 329.362 422.535C328.908 422.535 328.454 422.989 328.001 422.989C327.093 420.267 325.732 418.452 325.732 418.452C319.381 420.72 314.391 423.896 311.215 427.979C306.678 418.906 298.512 416.637 298.512 416.637C292.161 425.257 291.707 433.877 293.522 441.136C293.522 441.136 293.068 441.136 293.068 441.589C285.356 436.599 277.19 437.96 277.19 437.96C276.736 442.497 276.736 446.126 277.643 449.755C276.282 450.209 274.921 450.663 274.014 451.116C269.477 443.404 262.219 441.136 262.219 441.136C259.95 444.311 258.589 447.033 257.682 450.209C251.784 447.487 246.34 447.487 246.34 447.487C245.887 450.209 245.433 452.477 245.433 455.199C240.896 455.199 236.36 454.746 231.823 454.292C227.286 447.033 220.481 444.765 220.481 444.765C218.667 447.487 217.306 450.209 215.945 452.931C210.047 445.672 202.788 443.858 202.788 443.858C200.52 447.487 199.159 451.116 198.252 454.292C197.344 454.292 196.437 454.746 195.076 455.199C186.91 449.755 178.744 451.116 178.744 451.116C178.29 455.199 176.498 458.407 179.197 462.458C176.002 462.458 177.817 482.742 176.002 468.819L492.682 470.306V463.365Z" fill="#3E52BF"/>
<path d="M167.856 251.332C167.856 251.332 164.322 325.26 177.985 357.953C191.078 389.28 228.648 404.218 228.648 404.218V251.332H167.856Z" fill="#FA9E84"/>
<path d="M391.514 251.332C391.514 251.332 399.357 328.53 382.743 361.424C364.644 397.258 306.225 402.403 306.225 402.403V251.332H391.514Z" fill="#FA9E84"/>
<path d="M167.855 251.332C167.855 206.419 204.149 169.672 249.516 169.672H310.307C355.22 169.672 391.967 205.965 391.967 251.332H355.22L355.674 352.954H204.603V251.332H167.855Z" fill="#2F80ED"/>
<path d="M204.602 352.953H355.673V342.519H204.602V352.953Z" fill="#FF9900"/>
<path d="M190.084 195.531H369.283C364.746 190.541 359.302 186.457 353.858 182.828H205.509C200.065 186.004 194.621 190.541 190.084 195.531Z" fill="#FF9900"/>
<path d="M167.855 251.332H204.603V259.498H355.22V251.332H391.968C391.968 249.971 391.968 248.156 391.968 246.795H167.855C167.855 248.156 167.855 249.517 167.855 251.332Z" fill="#FF9900"/>
<path d="M204.602 310.309V323.465H355.219V310.309H204.602Z" fill="#FF9900"/>
<path d="M204.602 278.552V291.255H355.219V278.552H204.602Z" fill="#FF9900"/>
<path d="M176.475 214.585C174.206 218.668 172.845 222.751 171.484 227.288H387.884C386.523 222.751 384.708 218.668 382.894 214.585H176.475Z" fill="#FF9900"/>
<path d="M374.731 407.848H175.117V457.297H374.731V407.848Z" fill="#4D5068"/>
<path d="M363.387 435.975H394.236L406.485 430.531H460.018C470.906 430.531 479.526 439.15 479.526 450.038C479.526 460.926 470.906 469.546 460.018 469.546H409.661L392.421 463.195L363.84 460.927V435.975H363.387Z" fill="#FA9E84"/>
<path d="M394.237 435.975L406.486 430.531H460.018C470.906 430.531 479.526 439.15 479.526 450.038C479.526 460.926 470.906 469.546 460.018 469.546H409.661L392.422 463.195C416.92 452.307 394.237 435.975 394.237 435.975Z" fill="#2F80ED"/>
<path d="M469.547 450.039C469.547 439.15 460.927 430.531 450.039 430.531H460.02C470.908 430.531 479.527 439.15 479.527 450.039C479.527 460.927 470.908 469.546 460.02 469.546H450.039C460.927 470 469.547 460.927 469.547 450.039Z" fill="#0C347B"/>
<path d="M193.262 435.975H162.413L149.71 430.531H96.6308C85.7427 430.531 77.123 439.15 77.123 450.038C77.123 460.926 85.7427 469.546 96.6308 469.546H146.988L164.227 463.195L192.808 460.927V435.975H193.262Z" fill="#FA9E84"/>
<path d="M162.413 435.975L149.71 430.531H96.6308C85.7427 430.531 77.123 439.15 77.123 450.038C77.123 460.926 85.7427 469.546 96.6308 469.546H146.988L164.227 463.195C139.729 452.307 162.413 435.975 162.413 435.975Z" fill="#2F80ED"/>
<path d="M87.1037 450.039C87.1037 439.15 95.7234 430.531 106.611 430.531H96.6308C85.7427 430.531 77.123 439.15 77.123 450.039C77.123 460.927 85.7427 469.546 96.6308 469.546H106.611C95.7234 470 87.1037 460.927 87.1037 450.039Z" fill="#0C347B"/>
<path d="M365.655 292.162H198.252V398.774H365.655V292.162Z" fill="#E9F1FE"/>
<path d="M181.467 430.531L435.521 338.89C450.038 375.637 427.808 416.921 388.793 424.633L186.457 465.463L181.467 430.531Z" fill="#0C347B"/>
<path d="M372.008 465.917L165.589 422.365C124.759 413.745 100.261 372.008 112.51 332.085L374.73 430.985L372.008 465.917Z" fill="#0C347B"/>
<path d="M372.915 467.278L371.554 466.824L165.136 423.272C126.574 415.106 101.622 377.451 109.334 338.89L111.603 339.343C104.344 376.544 128.388 413.291 165.589 421.457L371.101 465.009L373.823 431.438L197.8 365.202L198.707 363.388L376.091 430.077L372.915 467.278Z" fill="#0C347B"/>
<path d="M205.51 292.162H203.242V252.239H167.855V249.971H205.51V292.162Z" fill="#0C347B"/>
<path d="M354.315 292.162L353.861 249.971H391.516V252.239H356.13V292.162H354.315Z" fill="#0C347B"/>
<path d="M281.726 362.935C291.247 362.935 298.965 355.216 298.965 345.695C298.965 336.174 291.247 328.456 281.726 328.456C272.205 328.456 264.486 336.174 264.486 345.695C264.486 355.216 272.205 362.935 281.726 362.935Z" fill="#E3EDFE"/>
<path d="M298.966 169.671L279.912 200.974L260.404 169.671V135.192H298.966V169.671Z" fill="#FA9E84"/>
<path d="M260.403 169.672H258.135L268.115 220.936L279.911 200.975L260.403 169.672Z" fill="white"/>
<path d="M298.966 169.672H303.049L293.522 220.936L279.912 200.975L298.966 169.672Z" fill="white"/>
<path d="M267.665 223.659L256.777 168.311H260.86L280.822 200.521L267.665 223.659ZM259.046 171.033L268.573 218.215L278.553 201.429L259.953 171.033H259.046V171.033Z" fill="#0C347B"/>
<path d="M294.429 223.658L278.551 201.429L298.512 168.765H304.41L294.429 223.658ZM280.819 200.975L293.068 218.214L301.688 170.579H299.42L280.819 200.975Z" fill="#0C347B"/>
<path d="M298.059 152.886L260.404 161.959V75.3088C260.404 58.5231 274.014 45.3667 290.346 45.3667H309.4C326.186 45.3667 339.343 58.9767 339.343 75.3088V88.9188L337.981 96.6312L340.703 106.612C341.611 110.241 342.064 113.871 341.157 117.5L336.62 142.452C336.62 163.32 318.474 152.886 298.059 152.886Z" fill="#FA9E84"/>
<path opacity="0.3" d="M298.966 152.886L285.355 148.35L294.429 177.384L298.966 169.672V152.886Z" fill="#FF410C"/>
<path d="M329.362 28.1273C317.566 24.0443 304.864 25.8589 293.068 28.1273C288.078 29.0346 282.634 30.3956 278.551 33.1176C274.014 35.8396 270.839 40.83 271.292 46.274C265.395 46.274 258.59 46.7277 254.507 51.2643C252.238 53.5327 250.877 57.162 250.424 60.3377C246.794 79.8454 257.229 99.8068 255.868 119.315C255.414 123.398 254.96 127.481 256.321 131.564C257.682 135.193 263.126 137.915 266.302 135.647C269.024 128.388 269.931 120.676 269.024 112.963C268.57 109.334 268.117 105.705 269.024 102.529C270.385 99.3532 274.014 96.1775 277.19 97.5385C282.634 99.8068 281.727 112.056 282.18 116.593C284.449 116.593 286.717 116.139 288.985 115.685C289.893 109.334 289.893 102.075 289.893 95.7238C289.893 91.1871 289.439 87.1041 289.439 82.5674C289.439 81.2064 289.893 70.7721 288.985 70.3184C299.873 77.1234 315.752 81.6601 328.454 78.9381C339.342 76.6697 348.869 67.5964 349.777 56.7084C351.138 43.0983 341.157 32.2103 329.362 28.1273Z" fill="#0C347B"/>
<path d="M312.122 122.49C314.39 127.48 319.834 130.656 325.278 130.202C326.186 130.202 326.186 128.841 325.278 128.841C320.288 129.295 315.298 126.573 313.029 122.036C313.029 121.129 311.668 121.582 312.122 122.49Z" fill="#0C347B"/>
<path d="M298.057 93.9095C303.048 93.4558 308.038 93.4558 313.029 93.0021C313.936 93.0021 313.936 91.6411 313.029 91.6411C308.038 91.6411 303.048 92.0948 298.057 92.5485C297.15 93.0021 297.15 94.3631 298.057 93.9095Z" fill="#0C347B"/>
<path d="M323.013 93.9093C326.642 93.9093 330.725 94.363 334.354 94.8167C335.262 94.8167 335.262 93.4557 334.354 93.4557C330.725 93.002 326.642 92.5483 323.013 92.5483C322.105 92.0947 322.105 93.4557 323.013 93.9093Z" fill="#0C347B"/>
<path d="M307.586 100.261C307.586 101.622 307.133 102.529 306.679 102.529C306.225 102.529 305.771 101.622 305.771 100.261C305.771 98.8995 306.225 97.9922 306.679 97.9922C307.133 97.9922 307.586 98.8995 307.586 100.261Z" fill="#0C347B"/>
<path d="M328.002 100.261C328.002 101.622 327.548 102.529 327.095 102.529C326.641 102.529 326.188 101.622 326.188 100.261C326.188 98.8995 326.641 97.9922 327.095 97.9922C327.548 97.9922 328.002 98.8995 328.002 100.261Z" fill="#0C347B"/>
</g>
<defs>
<clipPath id="clip0">
<rect width="564.363" height="470" fill="white"/>
</clipPath>
</defs>
</svg>
