<svg width="114" height="110" viewBox="0 0 114 110" fill="none" xmlns="http://www.w3.org/2000/svg">
<g clip-path="url(#clip0)">
<path d="M4 102.2V109.2L39 102.2L76.3 109.2L110 103.2V95.2002L76 102.2L39 95.2002L4 102.2Z" fill="#2F80ED"/>
<path d="M1.5 103.2C1.2 103.2 0.8 103.1 0.5 102.9C0.2 102.6 0 102.2 0 101.7V20.7001C0 20.0001 0.5 19.4001 1.2 19.2001L22.8 15.1001C23.6 14.9001 24.4 15.5001 24.6 16.3001C24.8 17.1001 24.2 17.9001 23.4 18.1001L3 21.9001V99.8001L38.2 93.1001C38.4 93.1001 38.6 93.1001 38.8 93.1001L75.5 100L111 93.3001V15.5001L75.8 22.2001C75.6 22.2001 75.4 22.2001 75.2 22.2001L57 18.7001C56.2 18.5001 55.7 17.8001 55.8 16.9001C56 16.1001 56.7 15.6001 57.6 15.7001L75.6 19.1001L112.3 12.2001C112.7 12.1001 113.2 12.2001 113.5 12.5001C113.8 12.8001 114 13.2001 114 13.7001V94.7001C114 95.4001 113.5 96.0001 112.8 96.2001L75.8 103.2C75.6 103.2 75.4 103.2 75.2 103.2L38.5 96.3001L1.8 103.2C1.7 103.2 1.6 103.2 1.5 103.2Z" fill="#0C347B"/>
<path d="M66.5 82.2002H62.5C61.7 82.2002 61 81.5002 61 80.7002C61 79.9002 61.7 79.2002 62.5 79.2002H66.5C67.3 79.2002 68 79.9002 68 80.7002C68 81.5002 67.3 82.2002 66.5 82.2002ZM56.5 82.2002H52.5C51.7 82.2002 51 81.5002 51 80.7002C51 79.9002 51.7 79.2002 52.5 79.2002H56.5C57.3 79.2002 58 79.9002 58 80.7002C58 81.5002 57.3 82.2002 56.5 82.2002ZM46.5 82.2002H42.5C41.7 82.2002 41 81.5002 41 80.7002C41 79.9002 41.7 79.2002 42.5 79.2002H46.5C47.3 79.2002 48 79.9002 48 80.7002C48 81.5002 47.3 82.2002 46.5 82.2002ZM36.5 82.2002H32.5C31.7 82.2002 31 81.5002 31 80.7002C31 79.9002 31.7 79.2002 32.5 79.2002H36.5C37.3 79.2002 38 79.9002 38 80.7002C38 81.5002 37.3 82.2002 36.5 82.2002ZM26.6 81.6002C26.4 81.6002 26.3 81.6002 26.1 81.5002C24.7 81.0002 23.3 80.2002 22.2 79.2002C21.6 78.7002 21.5 77.7002 22 77.1002C22.5 76.5002 23.5 76.4002 24.1 76.9002C25 77.7002 26 78.2002 27.1 78.6002C27.9 78.9002 28.3 79.7002 28 80.5002C27.8 81.2002 27.2 81.6002 26.6 81.6002ZM19.9 74.6002C19.3 74.6002 18.7 74.2002 18.5 73.5002C18.2 72.4002 18 71.3002 18 70.1002C18 69.7002 18 69.3002 18.1 69.0002C18.2 68.2002 18.9 67.6002 19.7 67.6002C20.5 67.7002 21.1 68.4002 21.1 69.2002C21.1 69.5002 21.1 69.8002 21.1 70.1002C21.1 71.0002 21.2 71.8002 21.5 72.6002C21.7 73.4002 21.3 74.2002 20.5 74.5002C20.2 74.6002 20.1 74.6002 19.9 74.6002ZM21.7 65.2002C21.4 65.2002 21 65.1002 20.8 64.9002C20.1 64.4002 20 63.4002 20.5 62.8002C21.4 61.6002 22.6 60.6002 23.9 59.8002C24.6 59.4002 25.5 59.6002 25.9 60.3002C26.3 61.0002 26.1 61.9002 25.4 62.3002C24.4 62.9002 23.5 63.6002 22.8 64.5002C22.6 65.0002 22.2 65.2002 21.7 65.2002ZM54.5 61.2002H50.5C49.7 61.2002 49 60.5002 49 59.7002C49 58.9002 49.7 58.2002 50.5 58.2002H54.5C55.3 58.2002 56 58.9002 56 59.7002C56 60.5002 55.3 61.2002 54.5 61.2002ZM44.5 61.2002H40.5C39.7 61.2002 39 60.5002 39 59.7002C39 58.9002 39.7 58.2002 40.5 58.2002H44.5C45.3 58.2002 46 58.9002 46 59.7002C46 60.5002 45.3 61.2002 44.5 61.2002ZM34.5 61.2002H30.5C29.7 61.2002 29 60.5002 29 59.7002C29 58.9002 29.7 58.2002 30.5 58.2002H34.5C35.3 58.2002 36 58.9002 36 59.7002C36 60.5002 35.3 61.2002 34.5 61.2002Z" fill="#0C347B"/>
<path d="M53.5005 44.2002H49.5005C48.7005 44.2002 48.0005 43.5002 48.0005 42.7002C48.0005 41.9002 48.7005 41.2002 49.5005 41.2002H53.5005C54.3005 41.2002 55.0005 41.9002 55.0005 42.7002C55.0005 43.5002 54.3005 44.2002 53.5005 44.2002ZM43.5005 44.2002H39.5005C38.7005 44.2002 38.0005 43.5002 38.0005 42.7002C38.0005 41.9002 38.7005 41.2002 39.5005 41.2002H43.5005C44.3005 41.2002 45.0005 41.9002 45.0005 42.7002C45.0005 43.5002 44.3005 44.2002 43.5005 44.2002ZM33.5005 44.2002H29.5005C28.7005 44.2002 28.0005 43.5002 28.0005 42.7002C28.0005 41.9002 28.7005 41.2002 29.5005 41.2002H33.5005C34.3005 41.2002 35.0005 41.9002 35.0005 42.7002C35.0005 43.5002 34.3005 44.2002 33.5005 44.2002ZM23.6005 43.6002C23.4005 43.6002 23.2005 43.6002 23.0005 43.5002C21.5005 42.8002 20.3005 41.7002 19.4005 40.4002C19.0005 39.7002 19.2005 38.8002 19.8005 38.3002C20.5005 37.9002 21.4005 38.1002 21.9005 38.7002C22.5005 39.6002 23.3005 40.3002 24.2005 40.7002C25.0005 41.0002 25.3005 41.9002 24.9005 42.7002C24.7005 43.2002 24.2005 43.6002 23.6005 43.6002ZM19.8005 35.2002C19.7005 35.2002 19.5005 35.2002 19.4005 35.1002C18.6005 34.9002 18.1005 34.0002 18.4005 33.2002C18.9005 31.6002 19.8005 30.2002 21.0005 29.2002C21.6005 28.7002 22.6005 28.7002 23.1005 29.4002C23.6005 30.0002 23.6005 31.0002 22.9005 31.5002C22.1005 32.2002 21.5005 33.1002 21.2005 34.1002C21.0005 34.8002 20.4005 35.2002 19.8005 35.2002ZM31.5005 30.2002H27.5005C26.7005 30.2002 26.0005 29.5002 26.0005 28.7002C26.0005 27.9002 26.7005 27.2002 27.5005 27.2002H31.5005C32.3005 27.2002 33.0005 27.9002 33.0005 28.7002C33.0005 29.5002 32.3005 30.2002 31.5005 30.2002Z" fill="#0C347B"/>
<path d="M76.6004 30.7998C66.6004 30.7998 58.4004 38.8998 58.4004 48.9998C58.4004 60.8998 76.6004 82.7998 76.6004 82.7998C76.6004 82.7998 94.7004 60.8998 94.7004 48.9998C94.7004 38.8998 86.6004 30.7998 76.6004 30.7998ZM76.6004 55.1998C72.8004 55.1998 70.2004 52.5998 70.2004 48.7998C70.2004 44.9998 72.8004 42.3998 76.6004 42.3998C80.4004 42.3998 83.0004 44.9998 83.0004 48.7998C83.0004 52.4998 80.3004 55.1998 76.6004 55.1998Z" fill="#FF9900"/>
<path d="M76.6004 84.2998C76.2004 84.2998 75.7004 84.0998 75.4004 83.7998C74.7004 82.7998 56.9004 61.2998 56.9004 48.9998C56.9004 38.1998 65.7004 29.2998 76.6004 29.2998C87.5004 29.2998 96.2004 38.0998 96.2004 48.9998C96.2004 61.2998 78.4004 82.7998 77.7004 83.7998C77.4004 84.0998 77.0004 84.2998 76.6004 84.2998ZM76.6004 32.2998C67.4004 32.2998 59.9004 39.7998 59.9004 48.9998C59.9004 58.5998 72.6004 75.3998 76.6004 80.3998C80.5004 75.3998 93.3004 58.5998 93.3004 48.9998C93.2004 39.7998 85.8004 32.2998 76.6004 32.2998Z" fill="#0C347B"/>
<path d="M76.5992 56.0998C72.4992 56.0998 69.1992 52.7998 69.1992 48.6998C69.1992 44.5998 72.4992 41.2998 76.5992 41.2998C80.6992 41.2998 83.9992 44.5998 83.9992 48.6998C83.9992 52.7998 80.5992 56.0998 76.5992 56.0998ZM76.5992 44.3998C74.1992 44.3998 72.1992 46.3998 72.1992 48.7998C72.1992 51.1998 74.1992 53.1998 76.5992 53.1998C78.9992 53.1998 80.9992 51.1998 80.9992 48.7998C80.9992 46.3998 78.9992 44.3998 76.5992 44.3998Z" fill="#0C347B"/>
<path d="M49.0008 10.8C49.0008 16.9 39.7008 28.2 39.7008 28.2C39.7008 28.2 30.3008 17 30.3008 10.8C30.3008 5.6 34.5008 1.5 39.6008 1.5C44.8008 1.5 49.0008 5.7 49.0008 10.8Z" fill="#FF9900"/>
<path d="M39.7008 29.7C39.3008 29.7 38.8008 29.5 38.5008 29.2C37.5008 28 28.8008 17.3 28.8008 10.8C28.8008 4.8 33.7008 0 39.6008 0C45.6008 0 50.4008 4.9 50.4008 10.8C50.4008 17.3 41.7008 28 40.7008 29.2C40.5008 29.5 40.1008 29.7 39.7008 29.7ZM39.7008 3C35.4008 3 31.9008 6.5 31.9008 10.8C31.9008 14.8 36.8008 22 39.7008 25.8C42.6008 22 47.5008 14.8 47.5008 10.8C47.5008 6.5 44.0008 3 39.7008 3Z" fill="#0C347B"/>
<path d="M39.5 13.2002C40.8807 13.2002 42 12.0809 42 10.7002C42 9.31948 40.8807 8.2002 39.5 8.2002C38.1193 8.2002 37 9.31948 37 10.7002C37 12.0809 38.1193 13.2002 39.5 13.2002Z" fill="#0C347B"/>
</g>
<defs>
<clipPath id="clip0">
<rect width="114" height="109.2" fill="white"/>
</clipPath>
</defs>
</svg>
