<?xml version="1.0" encoding="utf-8"?>
<!-- Generator: Adobe Illustrator 16.0.0, SVG Export Plug-In . SVG Version: 6.00 Build 0)  -->
<!DOCTYPE svg PUBLIC "-//W3C//DTD SVG 1.1//EN" "http://www.w3.org/Graphics/SVG/1.1/DTD/svg11.dtd">
<svg version="1.1" id="Layer_1" xmlns="http://www.w3.org/2000/svg" xmlns:xlink="http://www.w3.org/1999/xlink" x="0px" y="0px"
	 width="122.879px" height="122.881px" viewBox="0 0 122.879 122.881" enable-background="new 0 0 122.879 122.881"
	 xml:space="preserve">
<g>
	<linearGradient id="SVGID_1_" gradientUnits="userSpaceOnUse" x1="0" y1="61.4404" x2="122.8799" y2="61.4404">
		<stop  offset="0" style="stop-color:#5B9CD4"/>
		<stop  offset="1" style="stop-color:#3E82C4"/>
	</linearGradient>
	<circle fill="url(#SVGID_1_)" cx="61.439" cy="61.44" r="61.44"/>
	<g transform="translate(-1 -1)">
		<g>
			<g>
				<path fill="#FFFFFF" stroke="#FFFFFF" stroke-width="0.5" stroke-miterlimit="10" d="M92.275,83.206l-13.742-9.167
					c-1.746-1.153-4.082-0.772-5.373,0.874l-4.004,5.146c-0.514,0.679-1.447,0.876-2.193,0.462l-0.76-0.419
					c-2.525-1.376-5.666-3.091-11.994-9.421c-6.33-6.331-8.045-9.474-9.422-11.994l-0.418-0.761
					c-0.42-0.744-0.225-1.685,0.453-2.202l5.143-4.004c1.646-1.287,2.027-3.623,0.875-5.371l-9.166-13.74
					c-1.182-1.777-3.551-2.311-5.379-1.213l-5.748,3.454c-1.805,1.062-3.129,2.778-3.695,4.796
					c-2.07,7.541-0.514,20.555,18.656,39.727c15.252,15.25,26.604,19.35,34.408,19.35c1.795,0.008,3.582-0.227,5.316-0.695
					c2.018-0.563,3.736-1.891,4.797-3.696l3.455-5.743C94.586,86.759,94.053,84.388,92.275,83.206z M91.535,87.425l-3.447,5.748
					c-0.762,1.303-1.998,2.262-3.451,2.674c-6.961,1.911-19.121,0.327-37.527-18.074C28.705,59.368,27.123,47.208,29.033,40.245
					c0.414-1.455,1.373-2.691,2.678-3.456l5.748-3.448c0.793-0.477,1.822-0.245,2.334,0.526l4.979,7.474l4.18,6.269
					c0.5,0.755,0.336,1.771-0.379,2.329l-5.145,4.002c-1.566,1.198-2.012,3.365-1.049,5.084l0.408,0.741
					c1.447,2.653,3.244,5.953,9.809,12.516c6.564,6.563,9.863,8.36,12.514,9.808l0.742,0.408c1.721,0.966,3.887,0.518,5.084-1.048
					l4.002-5.146c0.561-0.714,1.574-0.879,2.33-0.376L91.01,85.09C91.781,85.603,92.014,86.632,91.535,87.425z"/>
				<path fill="#FFFFFF" stroke="#FFFFFF" stroke-width="0.5" stroke-miterlimit="10" d="M64.631,42.146
					c10.619,0.012,19.225,8.619,19.236,19.236c0,0.625,0.506,1.131,1.133,1.131c0.623,0,1.129-0.506,1.129-1.131
					c-0.01-11.867-9.629-21.486-21.498-21.498c-0.625,0-1.131,0.506-1.131,1.129C63.5,41.64,64.006,42.146,64.631,42.146z"/>
				<path fill="#FFFFFF" stroke="#FFFFFF" stroke-width="0.5" stroke-miterlimit="10" d="M64.631,48.935
					c6.871,0.008,12.439,5.577,12.447,12.447c0,0.625,0.508,1.131,1.131,1.131c0.627,0,1.133-0.506,1.133-1.131
					c-0.01-8.12-6.592-14.701-14.711-14.711c-0.625,0-1.131,0.506-1.131,1.134C63.5,48.427,64.006,48.935,64.631,48.935z"/>
				<path fill="#FFFFFF" stroke="#FFFFFF" stroke-width="0.5" stroke-miterlimit="10" d="M64.631,55.724
					c3.123,0.004,5.654,2.535,5.658,5.658c0,0.625,0.508,1.131,1.131,1.131c0.625,0,1.131-0.506,1.131-1.131
					c-0.004-4.373-3.547-7.914-7.92-7.921c-0.625,0-1.131,0.506-1.131,1.131C63.5,55.216,64.006,55.724,64.631,55.724z"/>
			</g>
		</g>
	</g>
</g>
</svg>
