<?xml version="1.0" encoding="utf-8"?>
<!-- Generator: Adobe Illustrator 25.0.0, SVG Export Plug-In . SVG Version: 6.00 Build 0)  -->
<svg version="1.1" id="Layer_1" xmlns="http://www.w3.org/2000/svg" xmlns:xlink="http://www.w3.org/1999/xlink" x="0px" y="0px"
	 viewBox="0 0 47 47" style="enable-background:new 0 0 47 47;" xml:space="preserve">
<style type="text/css">
	.st0{fill:#FCFDFF;}
	.st1{fill:#0054A6;}
	.st2{fill:#53ABF4;}
	.st3{fill:#33A3FF;}
	.st4{fill:#231F20;}
	.st5{fill:#FFFFFF;}
</style>
<circle class="st0" cx="23.5" cy="23.5" r="23.5"/>
<path class="st1" d="M12,25.7H8.9c-0.2,0-0.3-0.1-0.3-0.3c0,0,0,0,0,0c0-0.2,0.1-0.3,0.3-0.3c0,0,0,0,0,0H12c0.2,0,0.3,0.1,0.3,0.3
	C12.3,25.5,12.2,25.7,12,25.7C12,25.7,12,25.7,12,25.7z"/>
<path class="st1" d="M27.2,34.2l-1.8-12.5c0-0.3-0.2-0.6-0.5-0.7l-5.4-3.5c-0.4-0.3-1-0.2-1.4,0.2l-4.1,4.8
	c-0.2,0.2-0.3,0.5-0.2,0.8l1.8,12.5c0.1,0.5,0.6,0.9,1.1,0.9c0,0,0,0,0.1,0l4.7-0.7l4.8-0.7C26.9,35.4,27.3,34.9,27.2,34.2
	C27.2,34.3,27.2,34.3,27.2,34.2z M19.6,22.5c-0.7,0.1-1.3-0.3-1.4-1c-0.1-0.7,0.3-1.3,1-1.4c0.7-0.1,1.3,0.3,1.4,1c0,0,0,0,0,0
	C20.7,21.8,20.3,22.4,19.6,22.5z"/>
<path class="st2" d="M25.4,21.8c0-0.3-0.2-0.6-0.5-0.7l-5.4-3.5c-0.2-0.2-0.5-0.2-0.8-0.1l-2.3,3.9c-0.2,0.3-0.2,0.7-0.1,1l4.5,13.8
	l0.7-0.1l4.8-0.7c0.5-0.1,0.9-0.5,0.9-1.1c0,0,0-0.1,0-0.1L25.4,21.8z"/>
<path class="st3" d="M37.2,31.5l-6.2-15.1c-0.2-0.4-0.4-0.6-0.8-0.8L22.3,13c-0.6-0.2-1.3,0.1-1.6,0.7L17,21.1
	c-0.2,0.4-0.2,0.8,0,1.1l6.2,15.1c0.3,0.7,1.1,1,1.7,0.7c0,0,0,0,0,0l5.8-2.4l5.8-2.4C37.2,33,37.5,32.2,37.2,31.5z M23.9,19.2
	c-0.8,0.3-1.7,0-2.1-0.8c-0.3-0.8,0-1.7,0.8-2.1c0.8-0.3,1.7,0,2.1,0.8c0,0,0,0,0,0C25.1,18,24.7,18.9,23.9,19.2z"/>
<path class="st1" d="M24.4,37.5c-0.3,0-0.5-0.2-0.6-0.4L17.5,22c-0.1-0.2-0.1-0.4,0-0.6l3.7-7.4c0.1-0.2,0.4-0.4,0.6-0.4
	c0.1,0,0.1,0,0.2,0l7.8,2.7c0.2,0.1,0.3,0.2,0.4,0.4l6.2,15.1c0.1,0.2,0.1,0.4,0,0.5c-0.1,0.2-0.2,0.3-0.4,0.4l-11.5,4.8
	C24.6,37.5,24.5,37.5,24.4,37.5z M23.3,15.5c-0.3,0-0.6,0.1-0.9,0.2c-1.1,0.5-1.7,1.8-1.2,2.9c0.5,1.1,1.7,1.7,2.9,1.2c0,0,0,0,0,0
	c1.1-0.5,1.7-1.7,1.2-2.9C25,16.1,24.2,15.5,23.3,15.5z"/>
<path class="st2" d="M29.6,17.2l-6.5,16c-0.1,0.2-0.1,0.3,0,0.5l1.3,3 M24.4,36.8L24.4,36.8L36,32.1l0,0l0,0l-6.1-14.9
	c0-0.1-0.1-0.1-0.2-0.1c0,0-0.1,0-0.1,0.1L24.4,36.8z"/>
<path class="st1" d="M19.2,16.7l0.4-0.9c-1.9-1-3.3-2.2-3.5-3c-0.1-0.2,0-0.3,0.1-0.5c0.1-0.2,0.3-0.2,0.5-0.2
	c1.5,0.1,4.5,2.9,5.9,5.1c0.1,0.2,0.4,0.3,0.7,0.2c0,0,0,0,0,0c0.2-0.1,0.3-0.4,0.2-0.7c-1.3-2.2-4.6-5.5-6.6-5.6
	c-0.8-0.1-1.6,0.6-1.7,1.4c0,0.2,0,0.3,0,0.5C15.6,14.7,18.3,16.2,19.2,16.7L19.2,16.7z"/>
<path class="st4" d="M25.3,33.3c-0.1,0-0.2,0-0.3,0c-0.4-0.2-0.6-0.6-0.5-1.1c0,0,0,0,0,0l3.9-9.7c0.1-0.4,0.6-0.7,1-0.6
	c0.4,0.1,0.7,0.6,0.6,1c0,0.1,0,0.1-0.1,0.2l-3.9,9.6C26,33.1,25.7,33.3,25.3,33.3z"/>
<path class="st4" d="M23.8,28.5c-0.3,0-0.6-0.1-0.8-0.2c-0.6-0.2-1-0.7-1.2-1.2c-0.5-1.1,0-2.5,1.2-3c0,0,0,0,0,0
	c1.1-0.5,2.5,0.1,2.9,1.2l0,0c0.2,0.5,0.2,1.2,0,1.7c-0.2,0.6-0.7,1-1.2,1.2C24.3,28.4,24.1,28.5,23.8,28.5z M23.8,25.6
	c-0.1,0-0.2,0-0.2,0c-0.2,0.1-0.3,0.2-0.3,0.3c-0.1,0.2-0.1,0.3,0,0.5c0.1,0.2,0.2,0.3,0.4,0.3c0.2,0.1,0.3,0.1,0.5,0
	c0.2-0.1,0.3-0.2,0.3-0.3c0.1-0.2,0.1-0.3,0-0.5C24.2,25.7,24,25.6,23.8,25.6z"/>
<path class="st4" d="M30.9,31.4c-1.2,0-2.3-1-2.3-2.2c0-1,0.6-1.8,1.4-2.2c1.1-0.5,2.5,0.1,2.9,1.2c0.5,1.1,0,2.5-1.2,3
	C31.5,31.3,31.2,31.3,30.9,31.4L30.9,31.4z M30.9,28.5c-0.1,0-0.2,0-0.2,0c-0.3,0.1-0.5,0.5-0.3,0.8c0.1,0.3,0.5,0.5,0.8,0.3
	c0.3-0.1,0.5-0.5,0.3-0.8c0,0,0,0,0,0l0,0c-0.1-0.2-0.2-0.3-0.3-0.3C31,28.5,30.9,28.5,30.9,28.5L30.9,28.5z"/>
<path class="st5" d="M25.3,33c-0.4,0-0.8-0.4-0.8-0.8c0-0.1,0-0.2,0.1-0.3l3.9-9.7c0.2-0.4,0.6-0.6,1-0.4s0.6,0.6,0.4,1l-3.9,9.7
	C26,32.8,25.7,33,25.3,33z"/>
<path class="st5" d="M23.8,28.1c-0.9,0-1.7-0.6-2.1-1.4c-0.5-1.1,0.1-2.5,1.2-2.9c0,0,0,0,0,0c1.1-0.5,2.5,0,2.9,1.2l0,0
	c0.2,0.5,0.2,1.2,0,1.7C25.5,27.6,24.7,28.1,23.8,28.1L23.8,28.1z M23.8,25.3c-0.1,0-0.2,0-0.2,0c-0.2,0.1-0.3,0.2-0.3,0.3
	c-0.1,0.2-0.1,0.3,0,0.5c0.1,0.2,0.2,0.3,0.4,0.3c0.2,0.1,0.3,0.1,0.5,0c0.2-0.1,0.3-0.2,0.3-0.4c0.1-0.3,0-0.7-0.4-0.8
	C23.9,25.3,23.8,25.3,23.8,25.3z"/>
<path class="st5" d="M30.9,31c-1.2,0-2.2-1-2.2-2.3c0-0.9,0.5-1.7,1.3-2c0.6-0.2,1.2-0.2,1.7,0c1.1,0.5,1.7,1.8,1.2,2.9
	c-0.2,0.5-0.7,1-1.2,1.2C31.4,31,31.2,31,30.9,31z M30.9,28.1c-0.1,0-0.2,0-0.2,0c-0.3,0.1-0.5,0.5-0.3,0.8c0.1,0.3,0.5,0.5,0.8,0.3
	c0.3-0.1,0.5-0.5,0.3-0.8c0,0,0,0,0,0l0,0c-0.1-0.2-0.2-0.3-0.3-0.3C31,28.1,30.9,28.1,30.9,28.1L30.9,28.1z"/>
<path class="st1" d="M24.5,12.5c-0.2,0-0.3-0.1-0.3-0.3c0,0,0,0,0,0V9.1c0-0.2,0.1-0.3,0.3-0.3c0,0,0,0,0,0c0.2,0,0.3,0.1,0.3,0.3
	v3.1C24.8,12.4,24.7,12.5,24.5,12.5C24.5,12.5,24.5,12.5,24.5,12.5z"/>
<path class="st1" d="M32.7,14.2c-0.1,0-0.2,0-0.2-0.1c-0.1-0.1-0.1-0.3,0-0.4c0,0,0,0,0,0l1.7-1.7c0.1-0.1,0.3-0.1,0.4,0
	c0,0,0,0,0,0c0.1,0.1,0.1,0.3,0,0.4c0,0,0,0,0,0l-1.7,1.7C32.8,14.2,32.8,14.3,32.7,14.2z"/>
<path class="st1" d="M38.1,22.4H35c-0.2,0-0.3-0.1-0.3-0.3l0,0c0-0.2,0.1-0.3,0.3-0.3c0,0,0,0,0,0h3.1c0.2,0,0.3,0.1,0.3,0.3
	c0,0,0,0,0,0C38.4,22.3,38.2,22.4,38.1,22.4C38.1,22.4,38.1,22.4,38.1,22.4z"/>
<path class="st2" d="M37.8,26.8L37.8,26.8L35.9,26c-0.1,0-0.2-0.2-0.1-0.3c0-0.1,0.2-0.2,0.3-0.1l1.8,0.8c0.1,0.1,0.2,0.2,0.1,0.3
	C38,26.7,37.9,26.8,37.8,26.8z"/>
<path class="st2" d="M28.2,13.3L28.2,13.3c-0.2,0-0.3-0.2-0.2-0.3c0,0,0,0,0-0.1l0.8-1.8c0-0.1,0.2-0.2,0.3-0.1c0,0,0,0,0,0
	c0.1,0.1,0.2,0.2,0.1,0.3l-0.8,1.8C28.4,13.3,28.3,13.3,28.2,13.3z"/>
<path class="st2" d="M21,12c-0.1,0-0.2-0.1-0.2-0.1l-0.7-1.7c0-0.1,0-0.2,0.1-0.3c0,0,0,0,0,0c0.1,0,0.2,0,0.3,0.1c0,0,0,0,0,0
	l0.7,1.7C21.2,11.8,21.2,11.9,21,12L21,12z"/>
<path class="st2" d="M33.5,18.6c-0.1,0-0.2-0.1-0.2-0.1c0-0.1,0-0.2,0.1-0.3c0,0,0,0,0,0l1.8-0.8c0.1,0,0.2,0,0.3,0.1c0,0,0,0,0,0
	c0,0.1,0,0.2-0.1,0.3L33.5,18.6L33.5,18.6z"/>
<path class="st1" d="M15.6,18.5c-0.1,0-0.2,0-0.2-0.1l-1.7-1.7c-0.1-0.1-0.1-0.3,0-0.4c0,0,0,0,0,0c0.1-0.1,0.3-0.1,0.4,0
	c0,0,0,0,0,0l1.7,1.7c0.1,0.1,0.1,0.3,0,0.4c0,0,0,0,0,0C15.8,18.4,15.7,18.5,15.6,18.5z"/>
<path class="st1" d="M12.3,35.5c-0.1,0-0.2,0-0.2-0.1c-0.1-0.1-0.1-0.3,0-0.4c0,0,0,0,0,0l1.7-1.7c0.1-0.1,0.3-0.1,0.4,0
	s0.1,0.3,0,0.4l-1.7,1.7C12.5,35.5,12.4,35.5,12.3,35.5z"/>
<path class="st2" d="M13.5,21.8L13.5,21.8l-1.9-0.8c-0.1,0-0.2-0.2-0.1-0.3c0-0.1,0.2-0.2,0.3-0.1l1.8,0.8c0.1,0,0.2,0.2,0.1,0.3
	c0,0,0,0,0,0C13.7,21.8,13.6,21.8,13.5,21.8z"/>
<path class="st2" d="M10.8,30.7c-0.1,0-0.2-0.1-0.2-0.1c0-0.1,0-0.2,0.1-0.3c0,0,0,0,0,0l1.8-0.8c0.1,0,0.2,0,0.3,0.1c0,0,0,0,0,0
	c0,0.1,0,0.2-0.1,0.3L10.8,30.7L10.8,30.7z"/>
</svg>
