<?xml version="1.0" encoding="utf-8"?>
<!-- Generator: Adobe Illustrator 16.0.0, SVG Export Plug-In . SVG Version: 6.00 Build 0)  -->
<!DOCTYPE svg PUBLIC "-//W3C//DTD SVG 1.1//EN" "http://www.w3.org/Graphics/SVG/1.1/DTD/svg11.dtd">
<svg version="1.1" id="Layer_1" xmlns="http://www.w3.org/2000/svg" xmlns:xlink="http://www.w3.org/1999/xlink" x="0px" y="0px"
	 width="300px" height="250px" viewBox="0 0 300 250" enable-background="new 0 0 300 250" xml:space="preserve">
<circle fill="#EFC31A" stroke="#FFFFFF" stroke-miterlimit="10" cx="82.355" cy="50.318" r="3.01"/>
<circle fill="#A4C539" stroke="#FFFFFF" stroke-miterlimit="10" cx="256.412" cy="83.343" r="2.922"/>
<circle fill="#EFC31A" stroke="#FFFFFF" stroke-miterlimit="10" cx="90.491" cy="173.919" r="2.922"/>
<circle fill="#C371AD" stroke="#FFFFFF" stroke-miterlimit="10" cx="157.539" cy="11.626" r="2.922"/>
<circle fill="#E24340" stroke="#FFFFFF" stroke-miterlimit="10" cx="280.938" cy="135.139" r="2.922"/>
<circle fill="#A4C539" stroke="#FFFFFF" stroke-miterlimit="10" cx="221.965" cy="214.397" r="2.922"/>
<circle fill="#E24340" stroke="#FFFFFF" stroke-miterlimit="10" cx="43.646" cy="71.197" r="2.922"/>
<circle fill="#A4C539" stroke="#FFFFFF" stroke-miterlimit="10" cx="37.082" cy="123.648" r="4.054"/>
<circle fill="#E24340" stroke="#FFFFFF" stroke-miterlimit="10" cx="175.729" cy="29.246" r="1.948"/>
<circle fill="#C371AD" stroke="#FFFFFF" stroke-miterlimit="10" cx="79.344" cy="104.707" r="1.948"/>
<circle fill="#C371AD" stroke="#FFFFFF" stroke-miterlimit="10" cx="77.396" cy="218.205" r="2.372"/>
<path fill="#29394F" stroke="#FFFFFF" stroke-miterlimit="10" d="M93.252,18.009h-1.431v-1.431c0-0.926-0.75-1.676-1.675-1.676
	s-1.676,0.75-1.676,1.676v1.431h-1.43c-0.926,0-1.675,0.749-1.675,1.675c0,0.925,0.749,1.676,1.675,1.676h1.43v1.431
	c0,0.925,0.751,1.675,1.676,1.675s1.675-0.75,1.675-1.675v-1.431h1.431c0.924,0,1.676-0.751,1.676-1.676
	C94.928,18.758,94.176,18.009,93.252,18.009z"/>
<path fill="#29394F" stroke="#FFFFFF" stroke-miterlimit="10" d="M242.43,185.509H241v-1.432c0-0.925-0.75-1.674-1.676-1.674
	s-1.676,0.749-1.676,1.674v1.432h-1.43c-0.926,0-1.676,0.749-1.676,1.675s0.75,1.675,1.676,1.675h1.43v1.432
	c0,0.924,0.75,1.675,1.676,1.675S241,191.214,241,190.29v-1.432h1.43c0.926,0,1.676-0.749,1.676-1.675
	S243.355,185.509,242.43,185.509z"/>
<path fill="#29394F" stroke="#FFFFFF" stroke-miterlimit="10" d="M247.211,48.643h-1.432v-1.43c0-0.926-0.75-1.676-1.674-1.676
	c-0.926,0-1.676,0.75-1.676,1.676v1.43H241c-0.926,0-1.676,0.751-1.676,1.676s0.75,1.676,1.676,1.676h1.43v1.43
	c0,0.926,0.75,1.677,1.676,1.677c0.924,0,1.674-0.751,1.674-1.677v-1.43h1.432c0.926,0,1.676-0.751,1.676-1.676
	S248.137,48.643,247.211,48.643z"/>
<path fill="#29394F" stroke="#FFFFFF" stroke-miterlimit="10" d="M51.532,160.17h-1.43v-1.431c0-0.925-0.75-1.675-1.676-1.675
	c-0.925,0-1.676,0.75-1.676,1.675v1.431h-1.429c-0.926,0-1.676,0.751-1.676,1.676s0.75,1.675,1.676,1.675h1.429v1.431
	c0,0.925,0.751,1.677,1.676,1.677c0.926,0,1.676-0.752,1.676-1.677v-1.431h1.43c0.925,0,1.676-0.75,1.676-1.675
	S52.457,160.17,51.532,160.17z"/>
<g>
	<path fill="#CCCCCB" stroke="#CCCCCC" stroke-miterlimit="10" d="M220.77,116.379c-2.199-2.152-4.475-4.376-4.984-6.294
		c-0.553-2.063,0.322-5.226,1.172-8.282c1.248-4.494,2.535-9.142,0.336-12.941c-2.232-3.856-6.945-5.065-11.502-6.235
		c-3.037-0.778-6.178-1.584-7.641-3.047c-1.463-1.462-2.268-4.603-3.047-7.64c-1.17-4.559-2.377-9.271-6.236-11.504
		c-3.797-2.197-8.445-0.909-12.939,0.338c-3.059,0.849-6.221,1.725-8.281,1.174c-1.92-0.514-4.143-2.787-6.295-4.987
		c-3.174-3.244-6.766-6.923-11.326-6.923c-4.563,0-8.156,3.679-11.33,6.923c-2.15,2.2-4.374,4.474-6.293,4.987
		c-2.064,0.551-5.225-0.326-8.282-1.174c-7.362-2.042-14.524-2.308-17.61,5.859c-1.211,3.208,3.752,5.082,4.961,1.874
		c2.023-5.36,6.709-3.876,11.229-2.622c3.743,1.039,7.613,2.111,11.07,1.187c3.326-0.889,6.066-3.691,8.717-6.402
		c2.56-2.619,5.207-5.326,7.537-5.326c2.326,0,4.975,2.706,7.533,5.326c2.652,2.711,5.393,5.515,8.717,6.402
		c3.457,0.925,7.328-0.148,11.068-1.187c3.441-0.953,6.996-1.94,8.867-0.857c1.932,1.116,2.857,4.732,3.754,8.229
		c0.957,3.729,1.945,7.584,4.436,10.073c2.488,2.489,6.346,3.479,10.074,4.435c3.494,0.897,7.111,1.825,8.229,3.754
		c1.082,1.871,0.094,5.428-0.857,8.866c-1.039,3.742-2.113,7.611-1.188,11.07c0.889,3.324,3.691,6.065,6.402,8.716
		c2.621,2.561,5.326,5.209,5.326,7.536c0,2.328-2.705,4.976-5.326,7.536c-2.711,2.651-5.514,5.393-6.402,8.717
		c-0.926,3.458,0.148,7.327,1.188,11.068c0.951,3.44,1.939,6.996,0.857,8.868c-1.117,1.928-4.734,2.855-8.229,3.753
		c-3.73,0.956-7.586,1.945-10.074,4.434c-2.49,2.491-3.479,6.346-4.436,10.074c-0.896,3.498-1.822,7.113-3.754,8.23
		c-1.871,1.082-5.428,0.096-8.867-0.858c-3.74-1.037-7.611-2.111-11.068-1.187c-3.324,0.89-6.064,3.692-8.717,6.403
		c-2.559,2.618-5.207,5.325-7.533,5.325c-2.33,0-4.977-2.707-7.537-5.325c-2.651-2.712-5.391-5.516-8.717-6.403
		c-3.457-0.925-7.327,0.149-11.07,1.187c-3.438,0.954-6.995,1.939-8.867,0.858c-1.927-1.117-2.855-4.733-3.751-8.23
		c-0.958-3.729-1.946-7.584-4.436-10.074c-2.489-2.488-6.345-3.478-10.074-4.434c-3.498-0.897-7.114-1.825-8.229-3.753
		c-1.081-1.872-0.096-5.429,0.858-8.868c1.04-3.741,2.112-7.61,1.188-11.069c-0.889-3.323-3.693-6.065-6.402-8.716
		c-2.621-2.561-5.329-5.209-5.329-7.536c0-2.328,2.708-4.976,5.329-7.537c2.709-2.65,5.513-5.391,6.402-8.716
		c0.925-3.458-0.15-7.327-1.188-11.069c-0.954-3.439-1.939-6.995-0.858-8.866c1.115-1.929,4.734-2.857,8.229-3.754
		c5.274-1.353,10.267-2.941,12.59-8.329c1.357-3.148-3.515-5.247-4.871-2.1c-1.603,3.717-5.498,4.384-9.036,5.29
		c-4.558,1.17-9.273,2.379-11.503,6.235c-2.197,3.8-0.908,8.446,0.336,12.941c0.849,3.057,1.727,6.219,1.175,8.282
		c-0.512,1.918-2.788,4.142-4.987,6.294c-3.246,3.172-6.921,6.768-6.921,11.328c0,4.56,3.676,8.156,6.921,11.328
		c2.199,2.15,4.475,4.376,4.987,6.295c0.552,2.063-0.326,5.225-1.175,8.28c-1.244,4.494-2.534,9.143-0.336,12.941
		c2.232,3.856,6.946,5.066,11.503,6.235c3.037,0.779,6.177,1.585,7.639,3.047c1.464,1.463,2.27,4.604,3.049,7.641
		c1.169,4.559,2.377,9.271,6.234,11.504c3.8,2.198,8.446,0.908,12.941-0.339c3.058-0.849,6.218-1.724,8.282-1.174
		c1.919,0.513,4.143,2.789,6.293,4.988c3.174,3.244,6.767,6.922,11.33,6.922c4.561,0,8.154-3.678,11.326-6.922
		c2.152-2.199,4.375-4.476,6.295-4.988c2.061-0.551,5.223,0.327,8.281,1.174c4.494,1.247,9.143,2.537,12.939,0.339
		c3.859-2.232,5.068-6.945,6.236-11.504c0.779-3.037,1.584-6.177,3.047-7.639c1.463-1.464,4.604-2.27,7.641-3.049
		c4.559-1.169,9.271-2.379,11.502-6.234c2.199-3.8,0.912-8.447-0.336-12.941c-0.85-3.057-1.725-6.219-1.172-8.281
		c0.51-1.919,2.785-4.143,4.984-6.295c3.246-3.172,6.924-6.769,6.924-11.328C227.693,123.146,224.016,119.551,220.77,116.379
		L220.77,116.379z"/>
	<path fill="#CCCCCB" stroke="#CCCCCC" stroke-miterlimit="10" d="M150.025,179.866c28.76,0,52.158-23.398,52.158-52.159
		s-23.398-52.161-52.158-52.161c-28.762,0-52.161,23.4-52.161,52.161S121.264,179.866,150.025,179.866z M150.025,80.851
		c25.834,0,46.854,21.02,46.854,46.855s-21.02,46.856-46.854,46.856c-25.838,0-46.857-21.021-46.857-46.856
		S124.188,80.851,150.025,80.851z"/>
	<path fill="#CCCCCB" stroke="#CCCCCC" stroke-miterlimit="10" d="M127.017,150.715c2.74,2.74,7.314,2.74,10.055,0
		c2.423-2.426-1.328-6.175-3.752-3.75c-1.648,1.649-4.202-0.902-2.551-2.553l35.96-35.963c1.648-1.65,4.201,0.903,2.553,2.552
		l-28.353,28.354c-2.424,2.424,1.325,6.176,3.75,3.751l28.354-28.354c6.453-6.454-3.59-16.516-10.053-10.054l-35.962,35.963
		C124.245,143.433,124.245,147.943,127.017,150.715L127.017,150.715z"/>
	<path fill="#CCCCCB" stroke="#CCCCCC" stroke-miterlimit="10" d="M133.82,120.902c5.183,0,9.4-4.217,9.4-9.4s-4.217-9.4-9.4-9.4
		c-5.184,0-9.401,4.217-9.401,9.4S128.636,120.902,133.82,120.902L133.82,120.902z M133.82,107.406c2.258,0,4.096,1.837,4.096,4.096
		c0,2.258-1.838,4.096-4.096,4.096c-2.259,0-4.097-1.838-4.097-4.096C129.724,109.243,131.562,107.406,133.82,107.406z"/>
	<path fill="#CCCCCB" stroke="#CCCCCC" stroke-miterlimit="10" d="M166.229,134.511c-5.182,0-9.4,4.218-9.4,9.401
		c0,5.183,4.219,9.4,9.4,9.4c5.184,0,9.4-4.218,9.4-9.4C175.629,138.729,171.412,134.511,166.229,134.511z M166.229,148.008
		c-2.26,0-4.094-1.837-4.094-4.096s1.834-4.096,4.094-4.096c2.258,0,4.096,1.837,4.096,4.096S168.486,148.008,166.229,148.008z"/>
	<path fill="#F0EFEF" stroke="#CCCCCC" stroke-miterlimit="10" d="M208.268,71.197c0.678,0,1.359-0.259,1.875-0.777l5.504-5.503
		c2.426-2.425-1.326-6.175-3.752-3.751l-5.502,5.504C204.816,68.245,206.041,71.197,208.268,71.197L208.268,71.197z"/>
	<path fill="#F0EFEF" stroke="#CCCCCC" stroke-miterlimit="10" d="M170.197,49.912c1.299,0.348,2.896-0.566,3.25-1.877l2.014-7.518
		c0.887-3.312-4.238-4.684-5.123-1.372l-2.016,7.518C167.943,48.078,168.783,49.532,170.197,49.912z"/>
	<path fill="#F0EFEF" stroke="#CCCCCC" stroke-miterlimit="10" d="M125.349,48.372c0.874,3.254,6.015,1.949,5.125-1.373
		l-2.014-7.518c-0.888-3.313-6.013-1.939-5.125,1.373L125.349,48.372z"/>
	<path fill="#F0EFEF" stroke="#CCCCCC" stroke-miterlimit="10" d="M88.988,71.338c2.425,2.425,6.175-1.327,3.75-3.751l-5.502-5.503
		c-2.425-2.425-6.176,1.326-3.75,3.75L88.988,71.338z"/>
	<path fill="#F0EFEF" stroke="#CCCCCC" stroke-miterlimit="10" d="M61.462,107.394l7.519,2.015c3.198,0.856,4.65-4.246,1.374-5.124
		l-7.518-2.014C59.525,101.383,58.152,106.507,61.462,107.394z"/>
	<path fill="#F0EFEF" stroke="#CCCCCC" stroke-miterlimit="10" d="M69.316,147.258l-7.517,2.016
		c-3.271,0.875-1.796,5.97,1.374,5.121l7.516-2.014C74.002,151.494,72.63,146.373,69.316,147.258z"/>
	<path fill="#F0EFEF" stroke="#CCCCCC" stroke-miterlimit="10" d="M89.905,184.993l-5.503,5.502
		c-2.427,2.426,1.325,6.177,3.75,3.753l5.503-5.505C96.082,186.318,92.331,182.567,89.905,184.993z"/>
	<path fill="#F0EFEF" stroke="#CCCCCC" stroke-miterlimit="10" d="M129.852,205.502c-1.416-0.38-2.87,0.46-3.249,1.875l-2.015,7.519
		c-0.864,3.221,4.228,4.722,5.125,1.373l2.013-7.519C132.106,207.334,131.265,205.881,129.852,205.502L129.852,205.502z"/>
	<path fill="#F0EFEF" stroke="#CCCCCC" stroke-miterlimit="10" d="M174.699,207.042c-0.889-3.313-6.014-1.94-5.125,1.373
		l2.016,7.517c0.871,3.254,6.014,1.951,5.123-1.372L174.699,207.042z"/>
	<path fill="#F0EFEF" stroke="#CCCCCC" stroke-miterlimit="10" d="M211.059,184.076c-2.422-2.426-6.174,1.326-3.748,3.75
		l5.502,5.504c2.426,2.425,6.176-1.327,3.75-3.751L211.059,184.076z"/>
	<path fill="#F0EFEF" stroke="#CCCCCC" stroke-miterlimit="10" d="M238.586,148.019l-7.52-2.013
		c-3.313-0.888-4.686,4.236-1.371,5.123l7.518,2.014C240.408,153.999,241.861,148.897,238.586,148.019z"/>
	<path fill="#F0EFEF" stroke="#CCCCCC" stroke-miterlimit="10" d="M230.043,108.246c0.229,0,0.459-0.028,0.689-0.091l7.518-2.015
		c3.311-0.888,1.938-6.01-1.375-5.124l-7.516,2.016C226.391,103.826,227.08,108.246,230.043,108.246L230.043,108.246z"/>
</g>
<ellipse fill="#E6E7E8" stroke="#FFFFFF" stroke-miterlimit="10" cx="150" cy="245.362" rx="58.018" ry="2.898"/>
</svg>
