<?xml version="1.0" encoding="utf-8"?>
<!-- Generator: Adobe Illustrator 24.0.0, SVG Export Plug-In . SVG Version: 6.00 Build 0)  -->
<svg version="1.1" id="Layer_1" xmlns="http://www.w3.org/2000/svg" xmlns:xlink="http://www.w3.org/1999/xlink" x="0px" y="0px"
	 viewBox="0 0 150 150" style="enable-background:new 0 0 150 150;" xml:space="preserve">
<style type="text/css">
	.st0{fill:none;}
	.st1{fill:#FFFFFF;}
	.st2{fill:#2F80ED;}
	.st3{fill:#FF9900;}
	.st4{fill:#EC407A;}
	.st5{fill:#F48FB1;}
</style>
<g>
	<g>
		<rect x="18.6" y="1.4" class="st0" width="112.8" height="147.3"/>
	</g>
	<g>
		<path class="st1" d="M49.7,41.6c3.8,0,6.9-3.1,6.9-6.9s-3.1-6.9-6.9-6.9s-6.9,3.1-6.9,6.9S45.9,41.6,49.7,41.6z"/>
		<path d="M49.7,42.6c-4.3,0-7.8-3.5-7.8-7.8s3.5-7.8,7.8-7.8s7.8,3.5,7.8,7.8S54,42.6,49.7,42.6z M49.7,28.7c-3.3,0-6,2.7-6,6
			s2.7,6,6,6s6-2.7,6-6S53,28.7,49.7,28.7z"/>
	</g>
	<g>
		<path class="st1" d="M100.3,41.6c3.8,0,6.9-3.1,6.9-6.9s-3.1-6.9-6.9-6.9c-3.8,0-6.9,3.1-6.9,6.9S96.5,41.6,100.3,41.6z"/>
		<path d="M100.3,42.6c-4.3,0-7.8-3.5-7.8-7.8s3.5-7.8,7.8-7.8s7.8,3.5,7.8,7.8S104.6,42.6,100.3,42.6z M100.3,28.7
			c-3.3,0-6,2.7-6,6s2.7,6,6,6s6-2.7,6-6S103.6,28.7,100.3,28.7z"/>
	</g>
	<g>
		<path class="st2" d="M19.8,94.6v9.2h18.4v36.8c0,3.9,3,6.9,6.9,6.9h59.8c3.9,0,6.9-3,6.9-6.9v-36.8h18.4v-9.2
			c0-15.2-12.4-27.6-27.6-27.6H47.4C32.2,66.9,19.8,79.4,19.8,94.6z"/>
		<path d="M104.9,148.4H45.1c-4.4,0-7.8-3.4-7.8-7.8v-35.9H19.8c-0.5,0-0.9-0.4-0.9-0.9v-9.2C18.9,78.8,31.7,66,47.4,66h55.2
			c15.7,0,28.5,12.8,28.5,28.5v9.2c0,0.5-0.4,0.9-0.9,0.9h-17.5v35.9C112.7,145,109.3,148.4,104.9,148.4z M20.7,102.8h17.5
			c0.5,0,0.9,0.4,0.9,0.9v36.8c0,3.4,2.6,6,6,6h59.8c3.4,0,6-2.6,6-6v-36.8c0-0.5,0.4-0.9,0.9-0.9h17.5v-8.3
			c0-14.7-12-26.7-26.7-26.7H47.4c-14.7,0-26.7,12-26.7,26.7V102.8z"/>
	</g>
	<g>
		<path class="st1" d="M86.5,66.9L75,85.4L63.5,66.9V55.4h23V66.9z"/>
		<path d="M75,86.3c-0.3,0-0.6-0.2-0.8-0.4L62.7,67.4c-0.1-0.1-0.1-0.3-0.1-0.5V55.4c0-0.5,0.4-0.9,0.9-0.9h23
			c0.5,0,0.9,0.4,0.9,0.9v11.5c0,0.2,0,0.3-0.1,0.5L75.8,85.8C75.6,86.1,75.3,86.3,75,86.3z M64.4,66.7L75,83.6l10.6-16.9V56.4H64.4
			V66.7z M86.5,66.9L86.5,66.9L86.5,66.9z"/>
	</g>
	<g>
		<path class="st3" d="M104.9,147.5H45.1c-3.9,0-6.9-3-6.9-6.9V92.3c0-3.9,3-6.9,6.9-6.9h59.8c3.9,0,6.9,3,6.9,6.9v48.3
			C111.8,144.5,108.8,147.5,104.9,147.5z"/>
		<path d="M104.9,148.4H45.1c-4.4,0-7.8-3.4-7.8-7.8V92.3c0-4.4,3.4-7.8,7.8-7.8h59.8c4.4,0,7.8,3.4,7.8,7.8v48.3
			C112.7,145,109.3,148.4,104.9,148.4z M45.1,86.3c-3.4,0-6,2.6-6,6v48.3c0,3.4,2.6,6,6,6h59.8c3.4,0,6-2.6,6-6V92.3
			c0-3.4-2.6-6-6-6H45.1z"/>
	</g>
	<g>
		<path class="st4" d="M102.6,27.8H47.4v-2.3c0-12.7,10.4-23,23-23h9.2c12.7,0,23,10.4,23,23V27.8z"/>
		<path d="M102.6,28.7H47.4c-0.5,0-0.9-0.4-0.9-0.9v-2.3c0-13.2,10.7-23.9,23.9-23.9h9.2c13.2,0,23.9,10.7,23.9,23.9v2.3
			C103.5,28.3,103.1,28.7,102.6,28.7z M48.3,26.9h53.4v-1.4c0-12.2-9.9-22.1-22.1-22.1h-9.2c-12.2,0-22.1,9.9-22.1,22.1V26.9z"/>
	</g>
	<g>
		<path class="st5" d="M94.8,16.1c-0.3,0-0.6-0.1-0.8-0.4C90.9,11,85.4,8,79.6,8h-9.2C64.6,8,59.1,11,56,15.7
			c-0.3,0.4-0.9,0.5-1.3,0.3c-0.4-0.3-0.5-0.9-0.3-1.3c3.5-5.2,9.6-8.5,16-8.5h9.2c6.4,0,12.5,3.2,16,8.5c0.3,0.4,0.2,1-0.3,1.3
			C95.1,16,95,16.1,94.8,16.1z"/>
	</g>
	<g>
		<path class="st1" d="M77.3,62.3h-4.6c-12.7,0-23-10.4-23-23V27.8h50.6v11.5C100.3,52,90,62.3,77.3,62.3z"/>
		<path d="M77.3,63.3h-4.6c-13.2,0-23.9-10.7-23.9-23.9V27.8c0-0.5,0.4-0.9,0.9-0.9h50.6c0.5,0,0.9,0.4,0.9,0.9v11.5
			C101.2,52.5,90.5,63.3,77.3,63.3z M50.6,28.7v10.6c0,12.2,9.9,22.1,22.1,22.1h4.6c12.2,0,22.1-9.9,22.1-22.1V28.7H50.6z"/>
	</g>
	<g>
		<path class="st4" d="M89.5,38.2h-29c-3.9,0-7.4-1.8-9.7-5.1l-3.5-5.3h55.2l-3.5,5.3C97.1,36.3,93.4,38.2,89.5,38.2z"/>
		<path d="M89.5,39.1h-29c-4.2,0-7.9-1.9-10.4-5.4l-3.5-5.3c-0.2-0.3-0.2-0.6,0-0.9c0.2-0.3,0.5-0.5,0.8-0.5h55.2
			c0.3,0,0.6,0.2,0.8,0.5c0.2,0.3,0.1,0.7,0,0.9l-3.5,5.3C97.7,37.1,93.8,39.1,89.5,39.1z M49.1,28.7l2.5,3.9c2.1,3,5.3,4.6,8.9,4.6
			h29c3.7,0,7-1.7,8.9-4.6l2.5-3.9H49.1z"/>
	</g>
	<g>
		<path class="st1" d="M57.7,124.5V121c0-1.8-1.6-3.5-3.5-3.5s-3.5,1.6-3.5,3.5v3.5H38.2v-20.7H19.8v20.7c0,12.7,10.4,23,23,23h20.7
			c3.9,0,6.9-3,6.9-6.9v-9.2c0-3.9-3-6.9-6.9-6.9H57.7z"/>
		<path d="M63.5,148.4H42.8c-13.2,0-23.9-10.7-23.9-23.9v-20.7c0-0.5,0.4-0.9,0.9-0.9h18.4c0.5,0,0.9,0.4,0.9,0.9v19.8h10.8V121
			c0-2.3,2-4.4,4.4-4.4s4.4,2,4.4,4.4v2.5h4.8c4.4,0,7.8,3.4,7.8,7.8v9.2C71.3,145,67.9,148.4,63.5,148.4z M20.7,104.7v19.8
			c0,12.2,9.9,22.1,22.1,22.1h20.7c3.4,0,6-2.6,6-6v-9.2c0-3.4-2.6-6-6-6h-5.8c-0.5,0-0.9-0.4-0.9-0.9V121c0-1.3-1.2-2.5-2.5-2.5
			c-1.3,0-2.5,1.2-2.5,2.5v3.5c0,0.5-0.4,0.9-0.9,0.9H38.2c-0.5,0-0.9-0.4-0.9-0.9v-19.8H20.7z"/>
	</g>
	<g>
		<path d="M38.2,125.4h-4.6c-0.5,0-0.9-0.4-0.9-0.9s0.4-0.9,0.9-0.9h4.6c0.5,0,0.9,0.4,0.9,0.9S38.7,125.4,38.2,125.4z"/>
	</g>
	<g>
		<path class="st1" d="M92.3,124.5V121c0-1.8,1.6-3.5,3.5-3.5c1.8,0,3.5,1.6,3.5,3.5v3.5h12.7v-20.7h18.4v20.7c0,12.7-10.4,23-23,23
			H86.5c-3.9,0-6.9-3-6.9-6.9v-9.2c0-3.9,3-6.9,6.9-6.9H92.3z"/>
		<path d="M107.2,148.4H86.5c-4.4,0-7.8-3.4-7.8-7.8v-9.2c0-4.4,3.4-7.8,7.8-7.8h4.8V121c0-2.3,2-4.4,4.4-4.4s4.4,2,4.4,4.4v2.5
			h10.8v-19.8c0-0.5,0.4-0.9,0.9-0.9h18.4c0.5,0,0.9,0.4,0.9,0.9v20.7C131.1,137.7,120.4,148.4,107.2,148.4z M86.5,125.4
			c-3.4,0-6,2.6-6,6v9.2c0,3.4,2.6,6,6,6h20.7c12.2,0,22.1-9.9,22.1-22.1v-19.8h-16.6v19.8c0,0.5-0.4,0.9-0.9,0.9H99.2
			c-0.5,0-0.9-0.4-0.9-0.9V121c0-1.3-1.2-2.5-2.5-2.5s-2.5,1.2-2.5,2.5v3.5c0,0.5-0.4,0.9-0.9,0.9H86.5z"/>
	</g>
	<g>
		<path d="M116.4,125.4h-4.6c-0.5,0-0.9-0.4-0.9-0.9s0.4-0.9,0.9-0.9h4.6c0.5,0,0.9,0.4,0.9,0.9S116.9,125.4,116.4,125.4z"/>
	</g>
	<g>
		<path d="M116.4,125.4h-4.6c-0.5,0-0.9-0.4-0.9-0.9s0.4-0.9,0.9-0.9h4.6c0.5,0,0.9,0.4,0.9,0.9S116.9,125.4,116.4,125.4z"/>
	</g>
	<g>
		<path d="M75,54.1c-3.8,0-7.3-1.8-9.9-5c-0.3-0.4-0.3-1,0.1-1.3c0.4-0.3,1-0.3,1.3,0.1c2.3,2.8,5.3,4.3,8.5,4.3s6.2-1.5,8.5-4.3
			c0.3-0.4,0.9-0.5,1.3-0.1c0.4,0.3,0.5,0.9,0.1,1.3C82.3,52.3,78.8,54.1,75,54.1z"/>
	</g>
	<g>
		<path class="st1" d="M81.9,20.9H68.1c-1.8,0-3.5-1.6-3.5-3.5s1.6-3.5,3.5-3.5h13.8c1.8,0,3.5,1.6,3.5,3.5S83.7,20.9,81.9,20.9z"/>
		<path d="M81.9,21.8H68.1c-2.3,0-4.4-2-4.4-4.4s2-4.4,4.4-4.4h13.8c2.3,0,4.4,2,4.4,4.4S84.2,21.8,81.9,21.8z M68.1,14.9
			c-1.3,0-2.5,1.2-2.5,2.5s1.2,2.5,2.5,2.5h13.8c1.3,0,2.5-1.2,2.5-2.5s-1.2-2.5-2.5-2.5H68.1z"/>
	</g>
	<g>
		<path class="st2" d="M63.5,66.9l-4.6,18.4H75L63.5,66.9z"/>
		<path d="M75,86.3H58.9c-0.3,0-0.6-0.1-0.7-0.4c-0.2-0.2-0.2-0.5-0.2-0.8l4.6-18.4c0.1-0.4,0.4-0.6,0.7-0.7
			c0.4-0.1,0.7,0.1,0.9,0.4l11.5,18.4c0.2,0.3,0.2,0.6,0,0.9C75.6,86.1,75.3,86.3,75,86.3z M60.1,84.4h13.3l-9.5-15.2L60.1,84.4z"/>
	</g>
	<g>
		<path class="st2" d="M86.5,66.9l4.6,18.4H75L86.5,66.9z"/>
		<path d="M91.1,86.3H75c-0.3,0-0.6-0.2-0.8-0.5c-0.2-0.3-0.2-0.7,0-0.9l11.5-18.4c0.2-0.3,0.5-0.5,0.9-0.4c0.4,0.1,0.7,0.3,0.7,0.7
			L92,85.1c0.1,0.3,0,0.6-0.2,0.8C91.7,86.1,91.4,86.3,91.1,86.3z M76.7,84.4h13.3l-3.8-15.2L76.7,84.4z"/>
	</g>
	<g>
		<path class="st1" d="M104.9,94.6H91.1v9.2h13.8V94.6z"/>
		<path d="M104.9,104.7H91.1c-0.5,0-0.9-0.4-0.9-0.9v-9.2c0-0.5,0.4-0.9,0.9-0.9h13.8c0.5,0,0.9,0.4,0.9,0.9v9.2
			C105.8,104.3,105.4,104.7,104.9,104.7z M92,102.8h12v-7.4H92V102.8z"/>
	</g>
</g>
</svg>
