<?xml version="1.0" encoding="utf-8"?>
<!-- Generator: Adobe Illustrator 16.0.0, SVG Export Plug-In . SVG Version: 6.00 Build 0)  -->
<!DOCTYPE svg PUBLIC "-//W3C//DTD SVG 1.1//EN" "http://www.w3.org/Graphics/SVG/1.1/DTD/svg11.dtd">
<svg version="1.1" id="Layer_1" xmlns="http://www.w3.org/2000/svg" xmlns:xlink="http://www.w3.org/1999/xlink" x="0px" y="0px"
	 width="122.881px" height="122.881px" viewBox="0 0 122.881 122.881" enable-background="new 0 0 122.881 122.881"
	 xml:space="preserve">
<circle fill="#97B2CE" cx="61.44" cy="61.44" r="61.44"/>
<g id="_701644096">
	<path fill="#DCEAE9" d="M30.092,59.234l2.629-2.628c0.334-0.335,0.787-0.522,1.26-0.522h0.099c0.473,0,0.926,0.188,1.261,0.522
		l2.628,2.628l2.629-2.628c0.334-0.335,0.787-0.522,1.261-0.522h0.099c0.473,0,0.926,0.188,1.26,0.522l2.629,2.628l2.629-2.628
		c0.334-0.335,0.787-0.522,1.26-0.522h0.099c0.473,0,0.926,0.188,1.261,0.522l2.628,2.628l2.629-2.628
		c0.335-0.335,0.788-0.522,1.26-0.522h0.1c0.473,0,0.926,0.188,1.26,0.522l2.629,2.628l2.629-2.628
		c0.334-0.335,0.787-0.522,1.261-0.522l0,0c0.983,0,1.782,0.798,1.782,1.782v37.286l-38.123,0.314c-2.609,0-4.726-2.116-4.726-4.726
		V57.866c0-0.984,0.797-1.782,1.782-1.782l0,0c0.473,0,0.925,0.188,1.26,0.522L30.092,59.234L30.092,59.234z"/>
	<path fill="#C5D3D2" d="M30.564,58.753l2.119-2.113c0.357-0.355,0.842-0.556,1.346-0.556l0,0c0.505,0,0.988,0.2,1.347,0.556
		l1.489,1.485v37.197h-6.301V58.753z"/>
	<path fill="#EBECEC" d="M67.269,95.467H33.872h-4.726c2.609,0,4.726-2.116,4.726-4.726v-9.452V22.687
		c0-0.87,0.705-1.575,1.575-1.575h0.293c0.418,0,0.818,0.167,1.114,0.461l2.688,2.689l2.689-2.689
		c0.295-0.294,0.696-0.461,1.114-0.461h0.27c0.419,0,0.818,0.167,1.114,0.461l2.688,2.689l2.689-2.689
		c0.296-0.294,0.696-0.461,1.114-0.461h0.271c0.418,0,0.819,0.167,1.114,0.461l2.689,2.689l2.688-2.689
		c0.296-0.294,0.695-0.461,1.114-0.461h0.27c0.418,0,0.819,0.167,1.114,0.461l2.689,2.689l2.689-2.689
		c0.296-0.294,0.696-0.461,1.113-0.461h0.271c0.419,0,0.818,0.167,1.114,0.461l2.688,2.689l2.689-2.689
		c0.296-0.294,0.696-0.461,1.113-0.461h0.294c0.87,0,1.575,0.705,1.575,1.575v69.629c0,1.74-1.411,3.15-3.15,3.15H67.269z"/>
	<path fill="#B4C1BF" d="M38.992,62.07c0-0.652,0.528-1.182,1.181-1.182h17.329c0.653,0,1.181,0.529,1.181,1.182
		s-0.527,1.182-1.181,1.182H40.173C39.52,63.252,38.992,62.722,38.992,62.07z M40.173,56.95H51.2c0.652,0,1.182-0.528,1.182-1.181
		c0-0.653-0.529-1.182-1.182-1.182H40.173c-0.652,0-1.181,0.528-1.181,1.182C38.992,56.422,39.52,56.95,40.173,56.95z
		 M40.173,67.977h9.452c0.652,0,1.182-0.529,1.182-1.181c0-0.653-0.529-1.183-1.182-1.183l-9.452,0.001
		c-0.652,0-1.181,0.528-1.181,1.182C38.992,67.448,39.52,67.977,40.173,67.977z M63.802,81.367h-23.63
		c-0.652,0-1.181,0.53-1.181,1.183s0.528,1.182,1.181,1.182l23.63-0.001c0.653,0,1.182-0.528,1.182-1.182
		C64.984,81.897,64.456,81.367,63.802,81.367z M57.502,86.094H40.173c-0.652,0-1.181,0.529-1.181,1.182s0.528,1.181,1.181,1.181
		h17.329c0.652,0,1.181-0.529,1.181-1.181C58.682,86.623,58.154,86.094,57.502,86.094z M40.173,77.428H51.2
		c0.652,0,1.182-0.528,1.182-1.181s-0.529-1.182-1.182-1.182H40.173c-0.652,0-1.181,0.529-1.181,1.182S39.52,77.428,40.173,77.428z"
		/>
	<path fill="#FEFEFE" d="M62.255,37.653c0,3.923-3.192,7.115-7.116,7.115c-3.923,0-7.115-3.193-7.115-7.115
		c0-3.924,3.192-7.115,7.115-7.115C59.062,30.538,62.255,33.729,62.255,37.653z"/>
	<path fill="#EF7F1A" d="M55.138,29.382c-4.561,0-8.271,3.711-8.271,8.271s3.71,8.27,8.271,8.27c4.56,0,8.271-3.709,8.271-8.27
		S59.698,29.382,55.138,29.382z M55.138,43.56c-3.257,0-5.907-2.65-5.907-5.907c0-3.258,2.65-5.907,5.907-5.907
		c3.258,0,5.908,2.649,5.908,5.907C61.047,40.91,58.396,43.56,55.138,43.56L55.138,43.56z M59.47,37.653
		c0,0.652-0.528,1.182-1.182,1.182H56.32v1.969c0,0.653-0.529,1.182-1.182,1.182s-1.181-0.528-1.181-1.182v-1.969h-1.97
		c-0.652,0-1.182-0.529-1.182-1.182c0-0.653,0.529-1.183,1.182-1.183l1.97,0.001v-1.97c0-0.652,0.528-1.181,1.181-1.181
		s1.182,0.528,1.182,1.181v1.97h1.969C58.942,36.471,59.47,37,59.47,37.653z"/>
	<path fill="#EBECEC" d="M76.72,22.687v23.63v45.999c0,1.74-1.411,3.15-3.15,3.15V46.341v-4.435V21.742l0.168-0.169
		c0.296-0.295,0.696-0.461,1.113-0.461h0.294C76.015,21.112,76.721,21.817,76.72,22.687L76.72,22.687z"/>
	<path fill="#FFA04E" d="M95.308,58.919v39.698c0,1.74-1.41,3.151-3.15,3.151H71.679c-1.739,0-3.15-1.411-3.15-3.151v-8.191
		c0-0.871,0.705-1.576,1.575-1.576h1.417V71.521h-1.417c-0.87,0-1.575-0.704-1.575-1.575V58.919H95.308z"/>
	<path fill="#EF7F1A" d="M95.308,58.919v39.698c0,1.74-1.41,3.151-3.15,3.151h-3.15c1.74,0,3.15-1.411,3.15-3.151V71.521
		c0-2.609-2.115-4.725-4.726-4.725H68.529v-6.302h23.629v-1.576H95.308z"/>
	<path fill="#C5C6C6" d="M74.043,49.468h15.753c0.87,0,1.575,0.706,1.575,1.575v7.876H72.468v-7.876
		C72.468,50.174,73.173,49.468,74.043,49.468z"/>
	<path fill="#C5C6C6" d="M98.46,55.769v6.301c0,0.87-0.705,1.575-1.575,1.575h-1.97l0,0c0-0.521-0.423-0.945-0.945-0.945h-0.473
		c-0.521,0-0.944,0.424-0.944,0.945l0,0h-2.363l0,0c0-0.521-0.424-0.945-0.945-0.945h-0.473c-0.522,0-0.945,0.424-0.945,0.945l0,0
		h-2.362l0,0c0-0.521-0.424-0.945-0.945-0.945h-0.473c-0.521,0-0.945,0.424-0.945,0.945l0,0h-2.363l0,0
		c0-0.521-0.423-0.945-0.944-0.945H79.32c-0.522,0-0.945,0.424-0.945,0.945l0,0h-2.363l0,0c0-0.521-0.424-0.945-0.945-0.945h-0.473
		c-0.521,0-0.944,0.424-0.944,0.945l0,0h-2.364l0,0c0-0.521-0.423-0.945-0.944-0.945h-0.473c-0.522,0-0.945,0.424-0.945,0.945l0,0
		h-1.969c-0.87,0-1.575-0.705-1.575-1.575v-6.301c0-0.87,0.705-1.575,1.575-1.575h19.69c0.87,0,1.575-0.706,1.575-1.576v-3.15h1.576
		c0.87,0,1.575,0.706,1.575,1.575v3.151h5.514C97.755,54.194,98.46,54.899,98.46,55.769L98.46,55.769z"/>
	<path fill="#FEFEFE" d="M73.649,54.194h2.362v9.451h-2.362V54.194z M68.923,63.645h2.362v-9.451h-2.362V63.645z M78.375,63.645
		h2.362v-9.451h-2.362V63.645z M83.1,63.645h2.363v-9.451H83.1V63.645z M92.552,54.194v9.451h2.362v-9.451H92.552z M87.826,63.645
		h2.363v-9.451h-2.363V63.645z"/>
	<polygon fill="#FFFCEE" points="68.529,69.946 95.308,69.946 95.308,90.426 68.529,90.426 	"/>
	<polygon fill="#FFEF9F" points="92.158,69.946 95.308,69.946 95.308,90.426 92.158,90.426 	"/>
	<path fill="#EF7F1A" d="M90.189,76.248c0,0.652-0.529,1.182-1.182,1.182L74.83,77.428c-0.651,0-1.181-0.528-1.181-1.181
		s0.529-1.182,1.181-1.182h14.178C89.66,75.066,90.189,75.595,90.189,76.248z M85.07,79.793h-6.302
		c-0.652,0-1.181,0.529-1.181,1.181c0,0.653,0.528,1.183,1.181,1.183l6.302-0.001c0.651,0,1.181-0.528,1.181-1.182
		C86.251,80.321,85.721,79.793,85.07,79.793z"/>
</g>
</svg>
