<?xml version="1.0" encoding="utf-8"?>
<!-- Generator: Adobe Illustrator 24.0.0, SVG Export Plug-In . SVG Version: 6.00 Build 0)  -->
<svg version="1.1" id="Layer_1" xmlns="http://www.w3.org/2000/svg" xmlns:xlink="http://www.w3.org/1999/xlink" x="0px" y="0px"
	 viewBox="0 0 100 100" style="enable-background:new 0 0 100 100;" xml:space="preserve">
<style type="text/css">
	.st0{fill:#FF6A47;}
	.st1{fill:#599072;}
	.st2{fill:#D9D7D8;}
	.st3{fill:#FEEE81;}
	.st4{fill:#E21743;}
	.st5{fill:#70B48F;}
	.st6{fill:#BAB8B9;}
	.st7{fill:#494949;}
	.st8{fill:#FFFFFF;}
	.st9{fill:#C90052;}
	.st10{fill:#FADCB4;}
	.st11{fill:#C69C6D;}
	.st12{fill:#F7ECDF;}
	.st13{fill:#455A64;}
	.st14{fill:#212121;}
</style>
<g>
	<path class="st0" d="M93.4,52.2v40.7H6.6V52.2h11.2v6h7.6v-6h49.2v6h7.6v-6L93.4,52.2z"/>
	<path class="st0" d="M95.9,27.3v24.9H82.2v-9h-7.6v9H25.4v-9h-7.6v9H4.1V27.3L95.9,27.3z"/>
	<path class="st1" d="M17.8,43.2h7.6v15h-7.6V43.2z"/>
	<path class="st2" d="M16.4,58.2v7l1.8,3.2h6.9l1.8-3.2v-7H16.4z"/>
	<path class="st2" d="M65.5,7.1H34.5c-5.4,0-9.7,4.4-9.7,9.7v10.5h7.8V16.8c0-1.1,0.9-1.9,1.9-1.9h31.1c1.1,0,1.9,0.9,1.9,1.9v10.5
		h7.8V16.8C75.3,11.4,70.9,7.1,65.5,7.1z"/>
	<path class="st3" d="M74.6,43.2h7.6v15h-7.6V43.2z"/>
	<path class="st2" d="M73.2,58.2v7l1.8,3.2h6.9l1.8-3.2v-7H73.2z"/>
	<path class="st3" d="M74.6,43.2h7.6v15h-7.6V43.2z"/>
	<path class="st1" d="M74.6,43.2h7.6v15h-7.6V43.2z"/>
	<path class="st4" d="M82.2,52.2h3.7v6h-3.7V52.2z"/>
	<path class="st4" d="M25.4,52.2h3.7v6h-3.7V52.2z"/>
	<path class="st4" d="M6.6,52.2h3.7v40.7H6.6V52.2z"/>
	<path class="st4" d="M4.1,27.3h3.7v24.9H4.1V27.3z"/>
	<path class="st4" d="M25.4,43.2h3.7v9h-3.7V43.2z"/>
	<path class="st4" d="M82.2,43.2h3.7v9h-3.7V43.2z"/>
	<path class="st5" d="M17.8,43.2h3.7v15h-3.7V43.2z"/>
	<path class="st6" d="M20.1,58.2h-3.7v7l1.8,3.2h3.7l-1.8-3.2V58.2z"/>
	<path class="st6" d="M38.1,7.1h-3.7c-5.4,0-9.7,4.4-9.7,9.7v10.5h3.7V16.8C28.4,11.4,32.8,7.1,38.1,7.1z"/>
	<path class="st6" d="M69.2,14.9h-3.7c1.1,0,1.9,0.9,1.9,1.9v10.5h3.7V16.8C71.1,15.7,70.3,14.9,69.2,14.9z"/>
	<path class="st6" d="M76.8,58.2h-3.7v7l1.8,3.2h3.7l-1.8-3.2V58.2z"/>
	<path class="st5" d="M74.6,43.2h3.7v15h-3.7V43.2z"/>
	<path class="st7" d="M97.2,26H76.7v-9.2c0-6.1-5-11.1-11.1-11.1H34.5c-6.1,0-11.1,5-11.1,11.1V26H2.8v27.6h2.5v40.7h77v-2.8H8v-38
		h8.5v3.3H15v8.8l2.4,4.3h8.5l2.4-4.3v-8.8h-1.4v-3.3h9.1v-2.8h-9.1v-9c-21,0-2.1,0-10.3,0v9H5.5V28.7h88.9v22.1H83.6v-9
		c0,0-10.3,0-10.3,0c0,0,0-0.2,0,9H38.6v2.8h34.6v3.3h-1.4v8.8l2.4,4.3h8.5l2.4-4.3v-8.8h-1.4v-3.3H92v38h-7v2.8h9.8V53.6h2.5V26z
		 M24,56.9h-4.8V44.6H24V56.9z M25.5,64.9l-1.2,2.2H19l-1.2-2.2v-5.3h7.7V64.9z M26.1,16.8c0-4.6,3.7-8.3,8.3-8.3h31.1
		c4.6,0,8.3,3.7,8.3,8.3v9.1h-5.1v-9.1c0-1.8-1.5-3.3-3.3-3.3H34.5c-1.8,0-3.3,1.5-3.3,3.3v9.1h-5.1L26.1,16.8L26.1,16.8z
		 M33.9,16.8c0-0.3,0.2-0.5,0.5-0.5h31.1c0.3,0,0.5,0.2,0.5,0.5V26H33.9V16.8z M80.8,44.6v12.3H76V44.6H80.8z M82.2,64.9L81,67.1
		h-5.3l-1.2-2.2v-5.3h7.7V64.9z"/>
	<path class="st8" d="M61.9,39.9H49.2v-2.8h12.7V39.9z M46.4,39.9h-2.8v-2.8h2.8V39.9z M40.9,39.9h-2.8v-2.8h2.8V39.9z"/>
	<path class="st9" d="M50,77.6c15.6-11.4,9.2-17.7,9.2-17.7c-1-1.3-2.6-2.1-4.2-2.1c-2.8,0-5,2.1-5,2.1s-2.1-2.1-5-2.1
		c-1.7,0-3.2,0.8-4.2,2.1C40.8,59.9,34.4,66.3,50,77.6z"/>
	<g>
		<path class="st8" d="M64.9,64.4c-0.7,0-1.3,0.4-1.6,1.1h-8.1l-2-3.6c-0.2-0.3-0.5-0.4-0.8-0.2c-0.1,0.1-0.2,0.2-0.2,0.3l-2.7,6.8
			l-1.7-5.7c-0.1-0.3-0.4-0.5-0.7-0.4c-0.1,0-0.2,0.1-0.3,0.2l-1.5,2.5h-3.6v1.1h3.9c0.2,0,0.4-0.1,0.5-0.3l1-1.7l1.8,6
			c0.1,0.2,0.3,0.4,0.5,0.4h0c0.2,0,0.4-0.1,0.5-0.3l2.9-7.2l1.6,2.9c0.1,0.2,0.3,0.3,0.5,0.3h8.4c0.3,0.9,1.3,1.3,2.1,1
			s1.3-1.3,1-2.1C66.2,64.8,65.6,64.4,64.9,64.4L64.9,64.4z M64.9,66.6c-0.3,0-0.6-0.2-0.6-0.6s0.2-0.6,0.6-0.6s0.6,0.2,0.6,0.6
			S65.2,66.6,64.9,66.6z"/>
		<path class="st8" d="M33.4,65.5h4.4v1.1h-4.4V65.5z"/>
	</g>
	<path class="st10" d="M65.8,77.7c-0.6-0.9-1.7-1.2-2.7-0.7l-4,2c0-0.1-0.1-0.1-0.1-0.2c-0.7-1.2-2.1-1.6-3.3-1l-4.5,2.3
		c-0.6,0.3-1.4,0.3-2,0l-3-1.6c-2.2-1.1-4.8-1-6.8,0.4l-1.1,0.8l0.7,1.9l0.9,5.7l2.5-0.5c0.5-0.1,1-0.1,1.5-0.1l6.9,0.8
		c1.3,0.2,2.6-0.1,3.7-0.9l11-7.4C66,78.9,66.2,78.2,65.8,77.7L65.8,77.7z"/>
	<path class="st11" d="M58.6,80.9c1.4-0.8,0.9-1.6,0.7-2L59.2,79c0.2,0.5,0,1-0.5,1.3L52.5,84c-1.2,0.7-2.6,0.9-4,0.6l-4.1-0.9
		l4,1.5c1.3,0.4,2.8,0.2,4-0.5L58.6,80.9z"/>
	<path class="st12" d="M39.9,79.6c1.9-1.2,4.2-1.6,6.4-1.1l0,0c-2.2-1.1-4.8-1-6.8,0.4l-1.1,0.8l0.3,0.7L39.9,79.6z"/>
	<path class="st13" d="M40.8,88.8l-4.3,0.9L34,77.9l4.3-0.9L40.8,88.8z"/>
	<path class="st14" d="M35.9,79.2l1.1-0.2l0.2,1.1l-1.1,0.2L35.9,79.2z"/>
</g>
</svg>
