<?xml version="1.0" encoding="utf-8"?>
<!-- Generator: Adobe Illustrator 16.0.0, SVG Export Plug-In . SVG Version: 6.00 Build 0)  -->
<!DOCTYPE svg PUBLIC "-//W3C//DTD SVG 1.1//EN" "http://www.w3.org/Graphics/SVG/1.1/DTD/svg11.dtd">
<svg version="1.1" id="Capa_1" xmlns="http://www.w3.org/2000/svg" xmlns:xlink="http://www.w3.org/1999/xlink" x="0px" y="0px"
	 width="80px" height="80px" viewBox="0 0 80 80" enable-background="new 0 0 80 80" xml:space="preserve">
<g>
	<g>
		<g>
			<rect x="8.554" y="35.623" fill="#FFFFFF" width="12.576" height="2.518"/>
		</g>
	</g>
	<g>
		<g>
			<rect x="8.554" y="43.177" fill="#FFFFFF" width="18.871" height="2.519"/>
		</g>
	</g>
	<g>
		<g>
			<rect x="8.554" y="50.73" fill="#FFFFFF" width="45.295" height="2.519"/>
		</g>
	</g>
	<g>
		<g>
			<rect x="8.554" y="58.27" fill="#FFFFFF" width="7.555" height="2.52"/>
		</g>
	</g>
	<g>
		<g>
			<rect x="21.13" y="58.27" fill="#FFFFFF" width="7.554" height="2.52"/>
		</g>
	</g>
	<g>
		<g>
			<rect x="33.721" y="58.27" fill="#FFFFFF" width="7.554" height="2.52"/>
		</g>
	</g>
	<g>
		<g>
			<path fill="#FFFFFF" d="M52.591,34.363c-0.921,0-1.766,0.261-2.503,0.691c-0.768-0.446-1.627-0.691-2.533-0.691
				c-2.777,0-5.035,2.257-5.035,5.037s2.258,5.038,5.035,5.038c0.906,0,1.766-0.246,2.533-0.691
				c0.737,0.429,1.582,0.691,2.503,0.691c2.778,0,5.036-2.258,5.036-5.038S55.369,34.363,52.591,34.363z M48.2,41.826
				c-0.216,0.061-0.431,0.092-0.646,0.092c-1.383,0-2.519-1.137-2.519-2.518c0-1.382,1.136-2.518,2.519-2.518
				c0.215,0,0.444,0.045,0.646,0.092c-0.4,0.722-0.646,1.535-0.646,2.426S47.8,41.104,48.2,41.826z M52.591,41.918
				c-1.382,0-2.518-1.137-2.518-2.518c0-1.382,1.136-2.518,2.518-2.518s2.519,1.136,2.519,2.518
				C55.107,40.781,53.973,41.918,52.591,41.918z"/>
		</g>
	</g>
	<g>
		<g>
			<path fill="#FFFFFF" d="M76.375,28.544L23.587,11.869c-0.37-0.123-3.317-1.09-4.73,2.457l-4.344,13.743H4.777
				C2.689,28.083,1,29.772,1,31.845v32.719c0,2.09,1.689,3.777,3.777,3.777h55.368c1.319,0,2.473-0.675,3.147-1.703
				c0,0,1.705,0.476,2.089,0.476c1.657,0,3.102-1.06,3.592-2.642l9.857-31.201C79.139,32.321,79.354,29.343,76.375,28.544z
				 M19.732,19.884l25.934,8.185h-16.72l-10.733-3.394L19.732,19.884z M17.46,27.085l3.147,0.998h-3.455L17.46,27.085z
				 M61.404,64.564h-0.016c0,0.691-0.568,1.26-1.26,1.26H4.777c-0.69,0-1.26-0.567-1.26-1.26V31.845c0-0.69,0.569-1.259,1.26-1.259
				h55.368c0.691,0,1.26,0.569,1.26,1.259V64.564z M66.578,63.721c-0.199,0.646-0.936,1.029-1.58,0.814l-1.092-0.338V41.766
				l8.736,2.764L66.578,63.721z M73.396,42.117l-9.489-2.994v-5.282l11.01,3.47L73.396,42.117z M76.438,32.521l-0.752,2.395
				l-11.84-3.731c-0.322-1.766-1.857-3.102-3.699-3.102H54.02L20.485,17.489l0.752-2.396c0.2-0.645,0.922-1.029,1.582-0.814
				l52.789,16.66C76.667,31.215,76.527,32.199,76.438,32.521z"/>
		</g>
	</g>
</g>
</svg>
