<?xml version="1.0" encoding="utf-8"?>
<!-- Generator: Adobe Illustrator 16.0.0, SVG Export Plug-In . SVG Version: 6.00 Build 0)  -->
<!DOCTYPE svg PUBLIC "-//W3C//DTD SVG 1.1//EN" "http://www.w3.org/Graphics/SVG/1.1/DTD/svg11.dtd">
<svg version="1.1" id="Layer_1" xmlns="http://www.w3.org/2000/svg" xmlns:xlink="http://www.w3.org/1999/xlink" x="0px" y="0px"
	 width="250px" height="250px" viewBox="0 0 250 250" enable-background="new 0 0 250 250" xml:space="preserve">
<g>
	<g>
		<path fill="#0465AB" d="M34.838,205.589v-20.893h8.857c0.961,0,1.849,0.201,2.663,0.603c0.813,0.402,1.516,0.933,2.104,1.59
			c0.588,0.657,1.049,1.402,1.383,2.236c0.333,0.834,0.5,1.672,0.5,2.516c0,0.883-0.157,1.741-0.471,2.574
			c-0.314,0.835-0.756,1.575-1.324,2.223c-0.569,0.646-1.256,1.167-2.06,1.56c-0.805,0.393-1.688,0.589-2.648,0.589h-4.944v7.003
			H34.838z M38.898,195.025h4.709c0.745,0,1.368-0.305,1.868-0.913c0.5-0.607,0.75-1.432,0.75-2.472
			c0-0.529-0.078-1.005-0.235-1.428c-0.157-0.421-0.363-0.779-0.617-1.073c-0.256-0.294-0.555-0.515-0.897-0.662
			c-0.344-0.147-0.692-0.221-1.045-0.221h-4.532V195.025z"/>
		<path fill="#0465AB" d="M73.063,205.589h-3.943v-8.651c0-1.217-0.226-2.113-0.677-2.692s-1.089-0.868-1.912-0.868
			c-0.354,0-0.727,0.078-1.119,0.235s-0.765,0.378-1.118,0.662c-0.353,0.284-0.677,0.623-0.971,1.015
			c-0.294,0.393-0.511,0.824-0.647,1.295v9.005h-3.943v-21.481h3.943v8.916c0.569-1,1.339-1.77,2.311-2.31
			c0.971-0.54,2.045-0.81,3.222-0.81c1.001,0,1.814,0.172,2.442,0.516s1.118,0.799,1.472,1.367c0.353,0.57,0.598,1.217,0.735,1.943
			c0.137,0.726,0.206,1.471,0.206,2.236V205.589z"/>
		<path fill="#0465AB" d="M86.657,205.883c-0.746,0-1.442-0.123-2.09-0.367c-0.647-0.246-1.206-0.589-1.677-1.03
			s-0.839-0.956-1.104-1.545s-0.397-1.235-0.397-1.942c0-0.725,0.162-1.397,0.485-2.016c0.324-0.617,0.775-1.143,1.354-1.574
			c0.579-0.432,1.271-0.77,2.075-1.016c0.804-0.244,1.687-0.367,2.648-0.367c0.687,0,1.357,0.059,2.016,0.176
			c0.657,0.118,1.24,0.285,1.751,0.501v-0.883c0-1.021-0.29-1.805-0.868-2.354c-0.579-0.549-1.438-0.824-2.575-0.824
			c-0.824,0-1.629,0.148-2.413,0.441c-0.784,0.295-1.589,0.727-2.413,1.295l-1.206-2.501c1.981-1.313,4.12-1.972,6.415-1.972
			c2.217,0,3.938,0.545,5.164,1.633c1.226,1.09,1.839,2.664,1.839,4.724v4.796c0,0.412,0.074,0.707,0.221,0.883
			c0.147,0.178,0.388,0.275,0.722,0.295v3.354c-0.667,0.138-1.246,0.206-1.736,0.206c-0.746,0-1.319-0.167-1.722-0.5
			c-0.402-0.334-0.652-0.775-0.75-1.324l-0.089-0.854c-0.687,0.902-1.521,1.589-2.501,2.06
			C88.824,205.648,87.775,205.883,86.657,205.883z M87.775,203c0.667,0,1.299-0.118,1.897-0.354
			c0.599-0.236,1.064-0.549,1.398-0.941c0.431-0.334,0.647-0.707,0.647-1.119v-1.766c-0.471-0.176-0.981-0.318-1.53-0.426
			c-0.55-0.107-1.079-0.162-1.589-0.162c-1.021,0-1.854,0.23-2.502,0.691s-0.971,1.045-0.971,1.751c0,0.667,0.255,1.222,0.765,1.663
			C86.402,202.779,87.029,203,87.775,203z"/>
		<path fill="#0465AB" d="M114.465,193.583c-1.196,0.02-2.266,0.25-3.207,0.691s-1.619,1.104-2.03,1.986v9.328h-3.943V190.17h3.619
			v3.295c0.274-0.529,0.599-1.005,0.972-1.427c0.372-0.422,0.774-0.79,1.206-1.104s0.868-0.554,1.31-0.722
			c0.441-0.166,0.868-0.25,1.28-0.25c0.215,0,0.377,0,0.485,0c0.107,0,0.211,0.011,0.309,0.029V193.583z"/>
		<path fill="#0465AB" d="M146.569,205.589h-3.943v-8.651c0-1.236-0.211-2.139-0.633-2.707s-1.005-0.854-1.751-0.854
			c-0.784,0-1.521,0.299-2.207,0.897s-1.177,1.378-1.471,2.339v8.976h-3.943v-8.651c0-1.236-0.211-2.139-0.633-2.707
			s-1.006-0.854-1.751-0.854c-0.765,0-1.496,0.294-2.192,0.883c-0.696,0.588-1.191,1.363-1.485,2.324v9.005h-3.943V190.17h3.561
			v2.854c0.568-1,1.349-1.77,2.339-2.31c0.991-0.54,2.124-0.81,3.399-0.81c1.295,0,2.295,0.314,3.001,0.941
			c0.707,0.629,1.157,1.403,1.354,2.325c0.628-1.06,1.423-1.868,2.384-2.428s2.06-0.839,3.296-0.839
			c0.941,0,1.717,0.177,2.325,0.529c0.607,0.354,1.078,0.814,1.412,1.384c0.333,0.569,0.563,1.216,0.691,1.942
			c0.127,0.726,0.191,1.461,0.191,2.207V205.589z"/>
		<path fill="#0465AB" d="M160.164,205.883c-0.746,0-1.442-0.123-2.09-0.367c-0.647-0.246-1.206-0.589-1.677-1.03
			s-0.839-0.956-1.104-1.545s-0.397-1.235-0.397-1.942c0-0.725,0.162-1.397,0.485-2.016c0.324-0.617,0.775-1.143,1.354-1.574
			c0.579-0.432,1.271-0.77,2.075-1.016c0.804-0.244,1.687-0.367,2.648-0.367c0.687,0,1.357,0.059,2.016,0.176
			c0.657,0.118,1.24,0.285,1.751,0.501v-0.883c0-1.021-0.29-1.805-0.868-2.354c-0.579-0.549-1.438-0.824-2.575-0.824
			c-0.824,0-1.629,0.148-2.413,0.441c-0.784,0.295-1.589,0.727-2.413,1.295l-1.206-2.501c1.981-1.313,4.12-1.972,6.415-1.972
			c2.217,0,3.938,0.545,5.164,1.633c1.226,1.09,1.839,2.664,1.839,4.724v4.796c0,0.412,0.074,0.707,0.221,0.883
			c0.147,0.178,0.388,0.275,0.722,0.295v3.354c-0.667,0.138-1.246,0.206-1.736,0.206c-0.746,0-1.319-0.167-1.722-0.5
			c-0.402-0.334-0.652-0.775-0.75-1.324l-0.089-0.854c-0.687,0.902-1.521,1.589-2.501,2.06
			C162.331,205.648,161.282,205.883,160.164,205.883z M161.282,203c0.667,0,1.299-0.118,1.897-0.354
			c0.599-0.236,1.064-0.549,1.398-0.941c0.431-0.334,0.647-0.707,0.647-1.119v-1.766c-0.471-0.176-0.981-0.318-1.53-0.426
			c-0.55-0.107-1.079-0.162-1.589-0.162c-1.021,0-1.854,0.23-2.502,0.691s-0.971,1.045-0.971,1.751c0,0.667,0.255,1.222,0.765,1.663
			C159.909,202.779,160.536,203,161.282,203z"/>
		<path fill="#0465AB" d="M177.819,197.879c0-1.078,0.187-2.099,0.56-3.061c0.372-0.961,0.912-1.805,1.618-2.53
			s1.56-1.304,2.561-1.736c1-0.431,2.128-0.647,3.384-0.647c1.688,0,3.124,0.363,4.312,1.089c1.187,0.726,2.074,1.677,2.663,2.854
			l-3.855,1.178c-0.334-0.569-0.775-1.006-1.324-1.311c-0.549-0.304-1.157-0.455-1.824-0.455c-0.569,0-1.099,0.112-1.589,0.338
			c-0.491,0.226-0.917,0.539-1.28,0.941s-0.647,0.889-0.854,1.457s-0.309,1.197-0.309,1.883c0,0.688,0.107,1.314,0.323,1.883
			c0.216,0.57,0.505,1.061,0.868,1.473c0.363,0.411,0.79,0.73,1.28,0.955c0.49,0.227,1.01,0.339,1.56,0.339
			c0.706,0,1.358-0.177,1.957-0.529c0.598-0.354,1.015-0.784,1.25-1.295l3.855,1.177c-0.53,1.178-1.403,2.139-2.619,2.885
			c-1.217,0.745-2.678,1.117-4.385,1.117c-1.256,0-2.384-0.216-3.384-0.646c-1.001-0.432-1.854-1.016-2.561-1.752
			c-0.706-0.735-1.25-1.588-1.633-2.56S177.819,198.938,177.819,197.879z"/>
		<path fill="#0465AB" d="M201.449,208.59c0.334,0.099,0.657,0.172,0.972,0.221c0.313,0.049,0.578,0.074,0.794,0.074
			c0.255,0,0.49-0.049,0.706-0.147s0.412-0.27,0.589-0.515c0.177-0.246,0.354-0.584,0.53-1.016c0.176-0.432,0.362-0.971,0.559-1.618
			l-6.091-15.419h4.061l4.179,12.006l3.707-12.006h3.708l-6.474,18.479c-0.373,1.079-1.011,1.962-1.913,2.648
			s-2.021,1.03-3.354,1.03c-0.313,0-0.633-0.025-0.956-0.074c-0.324-0.049-0.662-0.133-1.016-0.25V208.59z"/>
	</g>
	<g>
		<g>
			<g>
				<polygon fill="#0465AB" points="212.954,168.239 156.739,67.834 121.543,130.696 142.563,168.239 				"/>
			</g>
			<g>
				<polygon fill="#0465AB" points="135.164,168.239 117.844,137.304 100.523,168.239 				"/>
			</g>
		</g>
		<g>
			<polygon fill="#0465AB" points="116.065,26.127 37.046,168.239 92.346,168.239 143.716,75.511 			"/>
		</g>
	</g>
</g>
</svg>
