<?xml version="1.0" encoding="utf-8"?>
<!-- Generator: Adobe Illustrator 16.0.0, SVG Export Plug-In . SVG Version: 6.00 Build 0)  -->
<!DOCTYPE svg PUBLIC "-//W3C//DTD SVG 1.1//EN" "http://www.w3.org/Graphics/SVG/1.1/DTD/svg11.dtd">
<svg version="1.1" id="Layer_1" xmlns="http://www.w3.org/2000/svg" xmlns:xlink="http://www.w3.org/1999/xlink" x="0px" y="0px"
	 width="250px" height="250px" viewBox="0 0 250 250" enable-background="new 0 0 250 250" xml:space="preserve">
<g>
	<g>
		<path fill="#F5B21B" d="M34.838,210.408v-20.893h8.857c0.961,0,1.849,0.201,2.663,0.604c0.813,0.402,1.515,0.932,2.104,1.589
			s1.049,1.403,1.383,2.236c0.334,0.835,0.501,1.673,0.501,2.517c0,0.883-0.157,1.74-0.472,2.574
			c-0.313,0.834-0.755,1.574-1.324,2.222c-0.568,0.647-1.255,1.167-2.06,1.56s-1.688,0.589-2.648,0.589h-4.943v7.003H34.838z
			 M38.898,199.845h4.708c0.745,0,1.368-0.304,1.869-0.913c0.5-0.607,0.75-1.432,0.75-2.471c0-0.53-0.079-1.006-0.235-1.428
			c-0.157-0.422-0.363-0.779-0.618-1.074c-0.255-0.294-0.555-0.515-0.897-0.662c-0.344-0.146-0.691-0.221-1.045-0.221h-4.531
			V199.845z"/>
		<path fill="#F5B21B" d="M73.062,210.408h-3.942v-8.65c0-1.217-0.226-2.114-0.677-2.693c-0.452-0.578-1.089-0.867-1.913-0.867
			c-0.354,0-0.726,0.078-1.118,0.234c-0.393,0.158-0.765,0.379-1.118,0.662c-0.354,0.285-0.677,0.623-0.971,1.016
			c-0.295,0.393-0.511,0.824-0.647,1.295v9.004h-3.943v-21.48h3.943v8.916c0.568-1,1.339-1.771,2.31-2.311
			c0.971-0.539,2.045-0.809,3.223-0.809c1,0,1.813,0.172,2.442,0.515c0.627,0.344,1.118,0.8,1.471,1.368
			c0.354,0.569,0.599,1.217,0.736,1.942c0.137,0.726,0.205,1.472,0.205,2.236V210.408z"/>
		<path fill="#F5B21B" d="M86.656,210.703c-0.746,0-1.441-0.123-2.09-0.368c-0.646-0.245-1.206-0.589-1.677-1.03
			s-0.839-0.956-1.104-1.545c-0.265-0.588-0.397-1.235-0.397-1.941c0-0.726,0.162-1.398,0.486-2.016
			c0.323-0.618,0.774-1.143,1.354-1.574c0.578-0.432,1.27-0.77,2.074-1.016c0.805-0.245,1.688-0.367,2.648-0.367
			c0.687,0,1.357,0.059,2.016,0.176c0.657,0.117,1.24,0.285,1.751,0.5v-0.883c0-1.02-0.29-1.805-0.868-2.354
			c-0.579-0.549-1.438-0.824-2.574-0.824c-0.824,0-1.629,0.147-2.414,0.441c-0.784,0.295-1.588,0.727-2.412,1.295l-1.207-2.502
			c1.981-1.313,4.12-1.971,6.415-1.971c2.217,0,3.938,0.544,5.165,1.633c1.225,1.089,1.838,2.663,1.838,4.723v4.797
			c0,0.412,0.074,0.706,0.221,0.883c0.148,0.177,0.388,0.275,0.722,0.295v3.354c-0.667,0.138-1.246,0.207-1.736,0.207
			c-0.745,0-1.319-0.168-1.722-0.501s-0.652-0.774-0.75-1.324l-0.088-0.853c-0.688,0.902-1.521,1.588-2.502,2.059
			C88.824,210.468,87.774,210.703,86.656,210.703z M87.774,207.819c0.667,0,1.3-0.118,1.897-0.354
			c0.599-0.235,1.064-0.549,1.398-0.941c0.432-0.333,0.647-0.706,0.647-1.118v-1.766c-0.471-0.177-0.981-0.318-1.53-0.427
			c-0.549-0.107-1.079-0.161-1.589-0.161c-1.021,0-1.854,0.23-2.501,0.691c-0.648,0.461-0.972,1.044-0.972,1.75
			c0,0.668,0.255,1.222,0.765,1.663C86.401,207.599,87.029,207.819,87.774,207.819z"/>
		<path fill="#F5B21B" d="M114.465,198.402c-1.197,0.02-2.266,0.25-3.208,0.691c-0.941,0.441-1.618,1.104-2.03,1.986v9.328h-3.943
			v-15.419h3.619v3.296c0.275-0.529,0.599-1.006,0.972-1.428c0.372-0.422,0.774-0.789,1.206-1.104
			c0.432-0.313,0.868-0.554,1.31-0.721c0.441-0.166,0.868-0.25,1.28-0.25c0.215,0,0.377,0,0.485,0s0.211,0.01,0.31,0.029V198.402z"
			/>
		<path fill="#F5B21B" d="M146.568,210.408h-3.943v-8.65c0-1.236-0.211-2.139-0.633-2.707c-0.422-0.569-1.005-0.854-1.75-0.854
			c-0.785,0-1.521,0.299-2.207,0.896c-0.688,0.6-1.178,1.379-1.472,2.34v8.975h-3.943v-8.65c0-1.236-0.211-2.139-0.632-2.707
			c-0.423-0.569-1.006-0.854-1.752-0.854c-0.765,0-1.496,0.293-2.191,0.883c-0.697,0.588-1.192,1.363-1.486,2.324v9.004h-3.943
			v-15.419h3.561v2.854c0.568-1,1.349-1.771,2.34-2.311c0.99-0.539,2.123-0.809,3.398-0.809c1.295,0,2.295,0.314,3.002,0.941
			c0.706,0.628,1.156,1.402,1.354,2.324c0.627-1.059,1.422-1.868,2.383-2.428c0.961-0.559,2.061-0.838,3.297-0.838
			c0.941,0,1.716,0.176,2.324,0.529c0.607,0.354,1.078,0.814,1.412,1.383c0.334,0.57,0.564,1.217,0.691,1.942
			s0.191,1.462,0.191,2.207V210.408z"/>
		<path fill="#F5B21B" d="M160.163,210.703c-0.745,0-1.442-0.123-2.089-0.368c-0.648-0.245-1.207-0.589-1.678-1.03
			s-0.838-0.956-1.104-1.545c-0.265-0.588-0.396-1.235-0.396-1.941c0-0.726,0.161-1.398,0.484-2.016
			c0.324-0.618,0.775-1.143,1.354-1.574c0.579-0.432,1.271-0.77,2.075-1.016c0.804-0.245,1.687-0.367,2.648-0.367
			c0.687,0,1.358,0.059,2.016,0.176s1.241,0.285,1.751,0.5v-0.883c0-1.02-0.289-1.805-0.868-2.354s-1.438-0.824-2.575-0.824
			c-0.824,0-1.629,0.147-2.412,0.441c-0.785,0.295-1.59,0.727-2.414,1.295l-1.206-2.502c1.981-1.313,4.12-1.971,6.415-1.971
			c2.217,0,3.938,0.544,5.164,1.633s1.84,2.663,1.84,4.723v4.797c0,0.412,0.073,0.706,0.221,0.883
			c0.146,0.177,0.387,0.275,0.721,0.295v3.354c-0.667,0.138-1.246,0.207-1.736,0.207c-0.746,0-1.319-0.168-1.721-0.501
			c-0.402-0.333-0.653-0.774-0.751-1.324l-0.089-0.853c-0.687,0.902-1.52,1.588-2.5,2.059
			C162.33,210.468,161.281,210.703,160.163,210.703z M161.281,207.819c0.667,0,1.299-0.118,1.898-0.354
			c0.598-0.235,1.063-0.549,1.397-0.941c0.431-0.333,0.647-0.706,0.647-1.118v-1.766c-0.471-0.177-0.981-0.318-1.53-0.427
			c-0.55-0.107-1.079-0.161-1.589-0.161c-1.021,0-1.854,0.23-2.502,0.691c-0.646,0.461-0.971,1.044-0.971,1.75
			c0,0.668,0.255,1.222,0.766,1.663C159.908,207.599,160.535,207.819,161.281,207.819z"/>
		<path fill="#F5B21B" d="M177.818,202.699c0-1.079,0.188-2.1,0.56-3.061s0.913-1.805,1.618-2.531
			c0.707-0.725,1.561-1.304,2.561-1.736c1-0.431,2.129-0.646,3.385-0.646c1.687,0,3.123,0.363,4.311,1.088
			c1.187,0.727,2.074,1.678,2.663,2.855l-3.854,1.177c-0.334-0.569-0.775-1.005-1.324-1.31c-0.55-0.305-1.158-0.456-1.825-0.456
			c-0.569,0-1.099,0.112-1.589,0.339c-0.49,0.225-0.917,0.539-1.279,0.941c-0.363,0.402-0.648,0.888-0.854,1.456
			c-0.207,0.569-0.31,1.197-0.31,1.884s0.107,1.314,0.323,1.883c0.217,0.569,0.506,1.06,0.869,1.472
			c0.362,0.411,0.789,0.731,1.279,0.956c0.49,0.227,1.01,0.338,1.56,0.338c0.706,0,1.358-0.176,1.957-0.529s1.015-0.784,1.251-1.295
			l3.854,1.178c-0.53,1.177-1.403,2.139-2.618,2.884c-1.217,0.745-2.679,1.118-4.385,1.118c-1.256,0-2.385-0.217-3.385-0.647
			s-1.854-1.015-2.561-1.751c-0.705-0.736-1.25-1.589-1.633-2.561C178.01,204.773,177.818,203.758,177.818,202.699z"/>
		<path fill="#F5B21B" d="M201.449,213.41c0.333,0.098,0.656,0.172,0.971,0.221c0.313,0.049,0.578,0.074,0.795,0.074
			c0.254,0,0.49-0.05,0.705-0.148c0.217-0.098,0.412-0.27,0.59-0.514c0.176-0.246,0.353-0.584,0.529-1.016
			c0.176-0.432,0.362-0.971,0.559-1.619l-6.091-15.419h4.061l4.179,12.006l3.707-12.006h3.709l-6.475,18.479
			c-0.373,1.079-1.01,1.962-1.912,2.648s-2.021,1.03-3.355,1.03c-0.313,0-0.633-0.024-0.956-0.073
			c-0.323-0.05-0.662-0.133-1.015-0.25V213.41z"/>
	</g>
	<g>
		<g>
			<path fill="#F5B21B" d="M136.701,54.42c26.279,15.615,34.922,49.577,19.309,75.856c-5.426,9.128-13.066,16.122-21.826,20.718
				c18.584-0.287,36.59-9.92,46.781-27.07c15.615-26.278,6.973-60.241-19.307-75.856c-17.15-10.191-37.572-10.043-54.031-1.41
				C117.518,46.505,127.572,48.996,136.701,54.42z"/>
		</g>
		<g>
			<g>
				<path fill="#F5B21B" d="M73.436,135.147c2.572,9.063,6.924,17.414,12.611,24.686c4.137,2.983,8.584,5.56,13.283,7.678
					c-6.748-8.022-11.865-17.448-14.787-27.744c-4.012-14.138-4.125-28.449-0.816-41.698c-2.314-6.594-3.756-13.598-4.17-20.879
					C70.233,94.274,67.688,114.893,73.436,135.147z"/>
			</g>
			<g>
				<path fill="#F5B21B" d="M87.203,139.012c3.338,11.76,9.656,22.332,18.039,30.875c7.947,2.804,16.49,4.345,25.396,4.345
					c27.514,0,51.617-14.562,65.051-36.393c-11.619,7.149-25.295,11.28-39.938,11.28c-31.516,0-58.564-19.104-70.215-46.359
					C83.293,114.405,83.73,126.774,87.203,139.012z"/>
			</g>
			<g>
				<path fill="#F5B21B" d="M79.438,71.9c0.164-14.307,4.262-27.665,11.266-39.048C68.872,46.284,54.311,70.39,54.311,97.902
					c0,21.896,9.235,41.626,24.006,55.545c-3.228-5.456-5.781-11.344-7.541-17.546C64.371,113.334,67.903,90.322,79.438,71.9z"/>
			</g>
		</g>
		<g>
			<path fill="#F5B21B" d="M108.404,62.303c0,0-18.875,50.836,31.555,68.534C159.301,81.014,108.404,62.303,108.404,62.303z"/>
		</g>
	</g>
</g>
</svg>
