<?xml version="1.0" encoding="utf-8"?>
<!-- Generator: Adobe Illustrator 16.0.0, SVG Export Plug-In . SVG Version: 6.00 Build 0)  -->
<!DOCTYPE svg PUBLIC "-//W3C//DTD SVG 1.1//EN" "http://www.w3.org/Graphics/SVG/1.1/DTD/svg11.dtd">
<svg version="1.1" id="Layer_1" xmlns="http://www.w3.org/2000/svg" xmlns:xlink="http://www.w3.org/1999/xlink" x="0px" y="0px"
	 width="250px" height="250px" viewBox="0 0 250 250" enable-background="new 0 0 250 250" xml:space="preserve">
<g>
	<g>
		<path fill="#41354A" d="M8.008,173.695v-18.803h7.972c0.865,0,1.664,0.181,2.396,0.542c0.732,0.362,1.364,0.839,1.894,1.43
			c0.529,0.593,0.944,1.263,1.244,2.013c0.3,0.751,0.451,1.506,0.451,2.265c0,0.794-0.142,1.567-0.424,2.317
			c-0.282,0.751-0.68,1.418-1.191,1.999c-0.512,0.583-1.13,1.052-1.854,1.405c-0.724,0.353-1.519,0.528-2.383,0.528h-4.45v6.304
			H8.008z M11.662,164.188H15.9c0.67,0,1.231-0.274,1.682-0.821c0.45-0.546,0.675-1.288,0.675-2.225
			c0-0.477-0.071-0.904-0.212-1.284c-0.142-0.379-0.327-0.702-0.556-0.966c-0.229-0.266-0.499-0.465-0.808-0.597
			c-0.309-0.133-0.623-0.198-0.94-0.198h-4.079V164.188z"/>
		<path fill="#41354A" d="M42.409,173.695h-3.548v-7.787c0-1.094-0.203-1.901-0.609-2.422c-0.406-0.521-0.98-0.782-1.721-0.782
			c-0.318,0-0.653,0.071-1.007,0.213c-0.353,0.141-0.688,0.339-1.006,0.596c-0.317,0.256-0.609,0.561-0.874,0.913
			c-0.265,0.354-0.459,0.741-0.583,1.165v8.104h-3.549v-19.334h3.549v8.025c0.512-0.901,1.205-1.594,2.079-2.079
			c0.874-0.485,1.84-0.729,2.9-0.729c0.9,0,1.632,0.156,2.198,0.465c0.565,0.309,1.006,0.72,1.324,1.231s0.539,1.095,0.662,1.748
			c0.123,0.653,0.185,1.323,0.185,2.013V173.695z"/>
		<path fill="#41354A" d="M54.645,173.96c-0.671,0-1.298-0.11-1.88-0.331c-0.583-0.221-1.086-0.529-1.51-0.927
			c-0.423-0.397-0.754-0.861-0.993-1.391c-0.238-0.529-0.357-1.112-0.357-1.748c0-0.652,0.146-1.258,0.437-1.814
			c0.292-0.556,0.697-1.028,1.218-1.417c0.521-0.388,1.143-0.692,1.867-0.913c0.724-0.221,1.519-0.331,2.384-0.331
			c0.618,0,1.222,0.053,1.814,0.158c0.591,0.106,1.117,0.256,1.576,0.451v-0.794c0-0.919-0.26-1.625-0.781-2.119
			c-0.521-0.495-1.294-0.742-2.317-0.742c-0.742,0-1.466,0.133-2.171,0.397c-0.707,0.265-1.43,0.653-2.172,1.165l-1.086-2.251
			c1.783-1.183,3.708-1.775,5.773-1.775c1.995,0,3.544,0.491,4.648,1.471c1.103,0.98,1.655,2.396,1.655,4.251v4.316
			c0,0.371,0.066,0.636,0.198,0.795c0.133,0.159,0.349,0.247,0.649,0.265v3.02c-0.601,0.123-1.122,0.185-1.563,0.185
			c-0.671,0-1.187-0.149-1.549-0.45c-0.362-0.3-0.587-0.696-0.675-1.191l-0.08-0.769c-0.619,0.813-1.369,1.432-2.251,1.854
			C56.595,173.748,55.651,173.96,54.645,173.96z M55.651,171.364c0.6,0,1.169-0.105,1.708-0.317s0.958-0.494,1.258-0.848
			c0.388-0.301,0.583-0.636,0.583-1.007v-1.589c-0.423-0.159-0.883-0.287-1.377-0.384c-0.495-0.097-0.971-0.146-1.43-0.146
			c-0.918,0-1.668,0.207-2.251,0.622c-0.583,0.415-0.874,0.94-0.874,1.576c0,0.6,0.229,1.099,0.689,1.496
			C54.415,171.166,54.98,171.364,55.651,171.364z"/>
		<path fill="#41354A" d="M79.671,162.891c-1.077,0.018-2.039,0.225-2.887,0.622c-0.847,0.397-1.457,0.993-1.827,1.787v8.396h-3.549
			v-13.878h3.257v2.967c0.247-0.478,0.539-0.904,0.875-1.284c0.334-0.38,0.697-0.711,1.085-0.993
			c0.388-0.283,0.781-0.499,1.178-0.649c0.397-0.15,0.782-0.226,1.152-0.226c0.194,0,0.34,0,0.437,0s0.189,0.01,0.278,0.026V162.891
			z"/>
		<path fill="#41354A" d="M108.565,173.695h-3.548v-7.787c0-1.111-0.19-1.924-0.57-2.437c-0.379-0.511-0.905-0.768-1.576-0.768
			c-0.706,0-1.369,0.27-1.986,0.809c-0.618,0.538-1.059,1.24-1.324,2.104v8.078h-3.549v-7.787c0-1.111-0.19-1.924-0.569-2.437
			c-0.38-0.511-0.905-0.768-1.576-0.768c-0.688,0-1.347,0.266-1.973,0.794c-0.626,0.53-1.073,1.229-1.337,2.093v8.104h-3.549
			v-13.878h3.205v2.569c0.512-0.901,1.214-1.594,2.105-2.079s1.911-0.729,3.059-0.729c1.166,0,2.066,0.283,2.702,0.849
			s1.042,1.263,1.218,2.093c0.565-0.955,1.28-1.683,2.145-2.186c0.865-0.503,1.854-0.756,2.966-0.756
			c0.847,0,1.545,0.16,2.092,0.478c0.547,0.317,0.971,0.733,1.271,1.245s0.507,1.095,0.623,1.748
			c0.114,0.653,0.172,1.315,0.172,1.986V173.695z"/>
		<path fill="#41354A" d="M120.8,173.96c-0.671,0-1.298-0.11-1.88-0.331c-0.583-0.221-1.086-0.529-1.51-0.927
			c-0.423-0.397-0.754-0.861-0.993-1.391c-0.238-0.529-0.357-1.112-0.357-1.748c0-0.652,0.146-1.258,0.437-1.814
			c0.292-0.556,0.697-1.028,1.218-1.417c0.521-0.388,1.143-0.692,1.867-0.913c0.724-0.221,1.518-0.331,2.384-0.331
			c0.618,0,1.222,0.053,1.814,0.158c0.591,0.106,1.117,0.256,1.576,0.451v-0.794c0-0.919-0.261-1.625-0.781-2.119
			c-0.521-0.495-1.294-0.742-2.317-0.742c-0.742,0-1.466,0.133-2.172,0.397s-1.43,0.653-2.171,1.165l-1.086-2.251
			c1.783-1.183,3.708-1.775,5.773-1.775c1.995,0,3.544,0.491,4.648,1.471c1.104,0.98,1.655,2.396,1.655,4.251v4.316
			c0,0.371,0.066,0.636,0.198,0.795c0.133,0.159,0.349,0.247,0.648,0.265v3.02c-0.599,0.123-1.121,0.185-1.563,0.185
			c-0.671,0-1.187-0.149-1.549-0.45c-0.361-0.3-0.587-0.696-0.675-1.191l-0.08-0.769c-0.619,0.813-1.369,1.432-2.251,1.854
			C122.751,173.748,121.807,173.96,120.8,173.96z M121.807,171.364c0.6,0,1.169-0.105,1.708-0.317
			c0.538-0.212,0.958-0.494,1.258-0.848c0.388-0.301,0.583-0.636,0.583-1.007v-1.589c-0.424-0.159-0.883-0.287-1.377-0.384
			s-0.971-0.146-1.43-0.146c-0.918,0-1.668,0.207-2.251,0.622c-0.583,0.415-0.874,0.94-0.874,1.576c0,0.6,0.229,1.099,0.688,1.496
			C120.571,171.166,121.135,171.364,121.807,171.364z"/>
		<path fill="#41354A" d="M136.69,166.756c0-0.971,0.168-1.888,0.503-2.754c0.335-0.865,0.821-1.624,1.457-2.277
			c0.635-0.653,1.403-1.174,2.304-1.563s1.916-0.584,3.046-0.584c1.519,0,2.811,0.327,3.88,0.981
			c1.068,0.652,1.866,1.509,2.397,2.568l-3.47,1.06c-0.301-0.512-0.698-0.905-1.192-1.179s-1.042-0.41-1.642-0.41
			c-0.513,0-0.989,0.102-1.431,0.304c-0.441,0.204-0.824,0.486-1.151,0.848c-0.327,0.362-0.583,0.8-0.769,1.312
			s-0.277,1.077-0.277,1.694c0,0.618,0.097,1.184,0.291,1.695c0.194,0.513,0.454,0.953,0.781,1.324s0.71,0.657,1.151,0.86
			s0.909,0.306,1.404,0.306c0.636,0,1.222-0.159,1.762-0.477c0.537-0.318,0.913-0.707,1.125-1.166l3.47,1.06
			c-0.478,1.059-1.264,1.924-2.357,2.596c-1.095,0.671-2.41,1.006-3.946,1.006c-1.13,0-2.146-0.194-3.046-0.583
			c-0.9-0.388-1.668-0.914-2.304-1.575c-0.636-0.662-1.126-1.431-1.47-2.304C136.862,168.623,136.69,167.71,136.69,166.756z"/>
		<path fill="#41354A" d="M157.957,176.396c0.301,0.089,0.592,0.153,0.874,0.198c0.282,0.044,0.52,0.066,0.715,0.066
			c0.229,0,0.441-0.044,0.636-0.132c0.194-0.089,0.371-0.243,0.53-0.464c0.158-0.221,0.317-0.526,0.476-0.914
			c0.159-0.389,0.327-0.874,0.504-1.456l-5.481-13.878h3.654l3.76,10.806l3.337-10.806h3.338l-5.827,16.633
			c-0.335,0.97-0.909,1.765-1.721,2.383c-0.813,0.617-1.819,0.927-3.02,0.927c-0.282,0-0.569-0.022-0.86-0.066
			c-0.292-0.044-0.596-0.119-0.914-0.226V176.396z"/>
	</g>
	<g>
		<path fill="#41354A" d="M122.978,57.404c0,0,47.515,17.938,46.506,43.896h0.017v43.896c0,0-47.515-17.938-46.506-43.896h-0.016
			V57.404z"/>
	</g>
	<g>
		<g>
			<path fill="#41354A" d="M211.811,134.925c8.811-6.059,19.138-9.986,30.181-11.124v-13.745
				c-6.389,2.455-12.391,5.984-17.766,10.541C219.301,124.771,215.143,129.607,211.811,134.925z"/>
		</g>
		<g>
			<path fill="#41354A" d="M206.412,139.06c3.842-7.77,9.257-14.75,16.067-20.521c5.882-4.986,12.48-8.797,19.512-11.367V67.579
				c0,0-67.662,25.544-66.226,62.508h-0.023v62.509c0,0,3.021-1.143,7.76-3.284c-0.018-2.006,0.047-4.021,0.214-6.044
				C185.188,165.429,193.758,149.846,206.412,139.06z"/>
		</g>
		<g>
			<path fill="#41354A" d="M199.982,162.284c0.362-4.386,1.163-8.666,2.364-12.797c-7.894,9.316-13.068,21.079-14.146,34.15
				c-0.099,1.191-0.15,2.38-0.181,3.564c3.844-1.851,8.315-4.15,13.014-6.858C199.853,174.477,199.478,168.412,199.982,162.284z"/>
		</g>
		<g>
			<path fill="#41354A" d="M202.674,162.505c-0.458,5.554-0.156,11.052,0.833,16.387c18.488-11.061,39.265-28.147,38.463-48.805
				h0.021v-1.761c-13.455,1.489-25.733,7.433-35.174,16.427C204.592,150.358,203.184,156.325,202.674,162.505z"/>
		</g>
	</g>
</g>
</svg>
