<?xml version="1.0" encoding="utf-8"?>
<!-- Generator: Adobe Illustrator 16.0.0, SVG Export Plug-In . SVG Version: 6.00 Build 0)  -->
<!DOCTYPE svg PUBLIC "-//W3C//DTD SVG 1.1//EN" "http://www.w3.org/Graphics/SVG/1.1/DTD/svg11.dtd">
<svg version="1.1" id="Layer_1" xmlns="http://www.w3.org/2000/svg" xmlns:xlink="http://www.w3.org/1999/xlink" x="0px" y="0px"
	 width="122.88px" height="122.881px" viewBox="0 0 122.88 122.881" enable-background="new 0 0 122.88 122.881"
	 xml:space="preserve">
<g>
	<linearGradient id="SVGID_1_" gradientUnits="userSpaceOnUse" x1="0" y1="61.4404" x2="122.8799" y2="61.4404">
		<stop  offset="0" style="stop-color:#5B9CD4"/>
		<stop  offset="1" style="stop-color:#3E82C4"/>
	</linearGradient>
	<circle fill="url(#SVGID_1_)" cx="61.44" cy="61.44" r="61.44"/>
	<g>
		<circle fill="none" cx="40.932" cy="46.852" r="0.923"/>
		<path fill="none" d="M74.524,63.506c-6.163,0-11.177,5.013-11.177,11.177c0,6.163,5.014,11.178,11.177,11.178
			c6.164,0,11.178-5.015,11.178-11.178C85.702,68.519,80.688,63.506,74.524,63.506z"/>
		<path fill="#FFFFFF" d="M95.57,93.188l-8.852-8.852l0.28-0.377c2.026-2.715,3.097-5.922,3.097-9.277
			c0-8.587-6.986-15.572-15.572-15.572s-15.571,6.985-15.571,15.572c0,8.586,6.985,15.571,15.571,15.571
			c3.457,0,6.741-1.128,9.497-3.261l0.377-0.292l8.828,8.829c0.629,0.623,1.718,0.619,2.34,0c0.315-0.314,0.487-0.73,0.488-1.173
			C96.054,93.917,95.882,93.503,95.57,93.188z M74.524,86.944c-6.76,0-12.26-5.5-12.26-12.262c0-6.761,5.5-12.26,12.26-12.26
			c6.761,0,12.262,5.499,12.262,12.26C86.786,81.444,81.285,86.944,74.524,86.944z"/>
		<path fill="#FFFFFF" d="M35.614,46.852c0,2.931,2.385,5.315,5.318,5.315c2.932,0,5.317-2.385,5.317-5.315
			c0-2.933-2.385-5.318-5.317-5.318C38,41.533,35.614,43.919,35.614,46.852z M42.938,46.852c0,1.104-0.899,2.004-2.006,2.004
			c-1.107,0-2.007-0.899-2.007-2.004c0-1.108,0.9-2.009,2.007-2.009C42.039,44.843,42.938,45.743,42.938,46.852z"/>
		<path fill="#FFFFFF" d="M65.103,26.884H34.34c-4.144,0-7.515,3.371-7.515,7.514v32.938v0.79v1.428v1.431v0.738v5.157
			c0,4.144,3.371,7.517,7.515,7.517h19.014c0.913,0,1.656-0.743,1.656-1.657c0-0.912-0.743-1.654-1.656-1.654H34.34
			c-2.318,0-4.204-1.888-4.204-4.205v-5.159v-0.718v-0.766l0.542-0.542l0.542-0.542l4.404-4.403c0.481-0.482,1.339-0.482,1.822,0
			l5.244,5.241c0.626,0.629,1.716,0.629,2.342,0L60.53,54.495c0.479-0.484,1.336-0.484,1.82,0l1.582,1.582
			c0.626,0.627,1.717,0.627,2.343,0c0.646-0.646,0.646-1.699,0-2.344l-1.585-1.579c-0.867-0.868-2.021-1.346-3.251-1.346
			s-2.383,0.478-3.249,1.344L43.862,66.481l-4.075-4.076c-0.866-0.865-2.02-1.342-3.249-1.342s-2.383,0.477-3.25,1.342l-2.069,2.069
			l-0.542,0.542l-0.542,0.541v-0.766v-0.766V34.397c0-2.316,1.886-4.203,4.204-4.203h30.763c2.318,0,4.203,1.887,4.203,4.203v19.016
			c0,0.912,0.743,1.655,1.655,1.655c0.913,0,1.656-0.743,1.656-1.655V34.397C72.617,30.255,69.247,26.884,65.103,26.884z"/>
	</g>
</g>
</svg>
