<?xml version="1.0" encoding="utf-8"?>
<!-- Generator: Adobe Illustrator 24.0.0, SVG Export Plug-In . SVG Version: 6.00 Build 0)  -->
<svg version="1.1" id="Layer_1" xmlns="http://www.w3.org/2000/svg" xmlns:xlink="http://www.w3.org/1999/xlink" x="0px" y="0px"
	 viewBox="0 0 150 150" style="enable-background:new 0 0 150 150;" xml:space="preserve">
<style type="text/css">
	.st0{fill:#FFFFFF;}
	.st1{fill:#2F80ED;}
	.st2{fill:#EC407A;}
	.st3{fill:#FF9900;}
</style>
<g>
	<g>
		<rect class="st0" width="150" height="150"/>
	</g>
	<g>
		<path class="st1" d="M69.5,148.6c37.7,0,68.2-30.5,68.2-68.2c0-37.7-30.5-68.2-68.2-68.2S1.4,42.8,1.4,80.5
			C1.4,118.1,31.9,148.6,69.5,148.6z"/>
		<path d="M69.5,149.6c-38.1,0-69.1-31-69.1-69.1c0-38.1,31-69.1,69.1-69.1c38.1,0,69.1,31,69.1,69.1
			C138.7,118.6,107.7,149.6,69.5,149.6z M69.5,13.2c-37.1,0-67.2,30.2-67.2,67.2s30.2,67.2,67.2,67.2s67.2-30.2,67.2-67.2
			S106.6,13.2,69.5,13.2z"/>
	</g>
	<g>
		<path d="M137.7,81.4H1.4c-0.5,0-0.9-0.4-0.9-0.9s0.4-0.9,0.9-0.9h136.4c0.5,0,0.9,0.4,0.9,0.9S138.2,81.4,137.7,81.4z"/>
	</g>
	<g>
		<path d="M69.5,149.6c-19.3,0-35-31-35-69.1c0-38.1,15.7-69.1,35-69.1s35,31,35,69.1C104.6,118.6,88.9,149.6,69.5,149.6z
			 M69.5,13.2c-18.3,0-33.2,30.2-33.2,67.2s14.9,67.2,33.2,67.2s33.2-30.2,33.2-67.2S87.8,13.2,69.5,13.2z"/>
	</g>
	<g>
		<path d="M69.5,149.6c-19.8,0-38.1-8.1-51.4-22.9c-0.2-0.2-0.3-0.5-0.2-0.8c0-0.3,0.2-0.5,0.5-0.7c12.7-7.4,31.4-11.6,51.2-11.6
			s38.5,4.2,51.2,11.6c0.2,0.1,0.4,0.4,0.5,0.7c0,0.3,0,0.6-0.2,0.8C108.1,141.2,89.4,149.6,69.5,149.6z M20.3,126.2
			c12.9,13.9,30.4,21.5,49.2,21.5c18.9,0,36.8-7.8,49.2-21.5c-12.4-6.8-30.3-10.8-49.2-10.8C50.6,115.5,32.7,119.4,20.3,126.2z"/>
	</g>
	<g>
		<path d="M69.5,47.3c-19.8,0-38.5-4.2-51.2-11.6c-0.2-0.1-0.4-0.4-0.5-0.7c0-0.3,0-0.6,0.2-0.8c12.9-14.6,31.6-23,51.4-23
			c19.8,0,38.1,8.1,51.4,22.9c0.2,0.2,0.3,0.5,0.2,0.8c0,0.3-0.2,0.5-0.5,0.7C108,43.1,89.3,47.3,69.5,47.3z M20.3,34.7
			c12.4,6.8,30.3,10.8,49.2,10.8c19,0,36.8-3.9,49.2-10.8c-12.9-13.9-30.4-21.5-49.2-21.5C50.7,13.2,32.8,21,20.3,34.7z"/>
	</g>
	<g>
		<path d="M69.5,149.6c-0.5,0-0.9-0.4-0.9-0.9V12.3c0-0.5,0.4-0.9,0.9-0.9s0.9,0.4,0.9,0.9v136.4C70.5,149.2,70.1,149.6,69.5,149.6z
			"/>
	</g>
	<g>
		<path class="st0" d="M128.2,69c11.3,0,20.5-3.1,20.5-6.8s-9.2-6.8-20.5-6.8s-20.5,3.1-20.5,6.8S116.9,69,128.2,69z"/>
		<path d="M128.2,69.9c-10.4,0-21.4-2.7-21.4-7.8c0-5,11-7.8,21.4-7.8s21.4,2.7,21.4,7.8C149.6,67.2,138.6,69.9,128.2,69.9z
			 M128.2,56.3c-11.5,0-19.5,3.1-19.5,5.9s8,5.9,19.5,5.9s19.5-3.1,19.5-5.9S139.7,56.3,128.2,56.3z"/>
	</g>
	<g>
		<path class="st2" d="M114,7.1c-6.8,6.5-8.2,16.9-3.3,25.1l17.7,30l17.7-30c4.9-8.2,3.3-18.5-3.3-25.1C134.5-0.5,121.9-0.5,114,7.1
			z"/>
		<path d="M128.5,63.1c-0.3,0-0.6-0.2-0.8-0.5l-17.7-30c-5.1-8.6-3.7-19.4,3.4-26.2c8.3-8,21.3-8,30.2,0c7.1,7.1,8.5,17.9,3.4,26.3
			l-17.7,30C129.1,62.9,128.8,63.1,128.5,63.1z M128.3,2.3c-4.9,0-9.8,1.8-13.6,5.5c0,0,0,0,0,0c-6.5,6.3-7.8,16.1-3.1,23.9
			l16.9,28.6l16.9-28.6c4.6-7.7,3.3-17.5-3.1-24C138.2,4.1,133.2,2.3,128.3,2.3z M114,7.1L114,7.1L114,7.1z"/>
	</g>
	<g>
		<path class="st0" d="M128.2,30c4.5,0,8.2-3.7,8.2-8.2c0-4.5-3.7-8.2-8.2-8.2c-4.5,0-8.2,3.7-8.2,8.2C120,26.3,123.7,30,128.2,30z"
			/>
		<path d="M128.2,30.9c-5,0-9.1-4.1-9.1-9.1c0-5,4.1-9.1,9.1-9.1c5,0,9.1,4.1,9.1,9.1C137.3,26.8,133.2,30.9,128.2,30.9z
			 M128.2,14.6c-4,0-7.2,3.2-7.2,7.2s3.3,7.2,7.2,7.2c4,0,7.2-3.3,7.2-7.2S132.2,14.6,128.2,14.6z"/>
	</g>
	<g>
		<path class="st0" d="M57.2,102.6L47.5,93L5.1,135.4l9.6,9.6L57.2,102.6z"/>
		<path d="M14.7,146c-0.2,0-0.5-0.1-0.7-0.3l-9.6-9.6c-0.4-0.4-0.4-1,0-1.3l42.4-42.4c0.4-0.4,1-0.4,1.3,0l9.6,9.6
			c0.4,0.4,0.4,1,0,1.3l-42.4,42.4C15.2,145.9,15,146,14.7,146z M6.4,135.4l8.3,8.3l41.1-41.1l-8.3-8.3L6.4,135.4z"/>
	</g>
	<g>
		<path class="st0" d="M69.5,107.7c15.1,0,27.3-12.2,27.3-27.3c0-15.1-12.2-27.3-27.3-27.3c-15.1,0-27.3,12.2-27.3,27.3
			C42.3,95.5,54.5,107.7,69.5,107.7z"/>
		<path d="M69.5,108.7C54,108.7,41.3,96,41.3,80.5S54,52.2,69.5,52.2s28.2,12.7,28.2,28.2S85.1,108.7,69.5,108.7z M69.5,54.1
			c-14.5,0-26.3,11.8-26.3,26.3c0,14.5,11.8,26.3,26.3,26.3c14.5,0,26.3-11.8,26.3-26.3C95.9,65.9,84.1,54.1,69.5,54.1z"/>
	</g>
	<g>
		<path class="st0" d="M69.5,99.5c10.5,0,19.1-8.5,19.1-19.1c0-10.5-8.5-19.1-19.1-19.1s-19.1,8.5-19.1,19.1
			C50.5,91,59,99.5,69.5,99.5z"/>
		<path d="M69.5,100.5c-11,0-20-9-20-20s9-20,20-20c11,0,20,9,20,20S80.6,100.5,69.5,100.5z M69.5,62.3c-10,0-18.2,8.1-18.2,18.2
			c0,10,8.1,18.2,18.2,18.2s18.2-8.1,18.2-18.2C87.7,70.4,79.6,62.3,69.5,62.3z"/>
	</g>
	<g>
		<path class="st0" d="M79.4,71.8c-0.2,0-0.5-0.1-0.7-0.3c-2.5-2.5-5.7-3.8-9-3.8s-6.6,1.4-9,3.8c-0.4,0.4-1,0.4-1.3,0s-0.4-1,0-1.3
			c2.8-2.8,6.5-4.4,10.3-4.4s7.5,1.5,10.3,4.4c0.4,0.4,0.4,1,0,1.3C79.8,71.8,79.6,71.8,79.4,71.8z"/>
	</g>
	<g>
		<path class="st3" d="M37.6,114.3l-1.9-1.9c-3.3-3.3-8.5-3.3-11.5,0L6.8,129.8c-3.3,3.3-3.3,8.5,0,11.5l1.9,1.9
			c3.3,3.3,8.5,3.3,11.5,0l17.5-17.5C40.9,122.5,40.9,117.3,37.6,114.3z"/>
		<path d="M14.6,146.6c-2.4,0-4.8-1-6.5-2.7l-1.9-1.9c-1.7-1.6-2.7-3.7-2.7-6.1c-0.1-2.5,0.9-4.9,2.7-6.7l17.5-17.5
			c1.6-1.7,3.7-2.7,6.1-2.7c2.4-0.1,4.9,0.9,6.7,2.7l1.9,1.9c1.7,1.6,2.7,3.8,2.7,6.1c0.1,2.5-0.9,4.9-2.7,6.7l-17.5,17.5
			c-1.6,1.7-3.7,2.7-6.1,2.7C14.7,146.6,14.6,146.6,14.6,146.6z M29.9,110.8c-0.1,0-0.1,0-0.2,0c-1.9,0-3.5,0.8-4.8,2.1L7.5,130.5
			c-1.4,1.4-2.2,3.3-2.2,5.3c0,1.9,0.8,3.6,2.1,4.8l1.9,1.9c1.4,1.4,3.3,2.3,5.3,2.2c1.9,0,3.5-0.8,4.8-2.1L37,125.1
			c1.4-1.4,2.2-3.3,2.2-5.3c0-1.9-0.8-3.5-2.1-4.8c0,0,0,0,0,0l-1.9-1.9C33.7,111.6,31.8,110.8,29.9,110.8z"/>
	</g>
</g>
</svg>
