<?xml version="1.0" encoding="utf-8"?>
<!-- Generator: Adobe Illustrator 24.0.0, SVG Export Plug-In . SVG Version: 6.00 Build 0)  -->
<svg version="1.1" id="Layer_1" xmlns="http://www.w3.org/2000/svg" xmlns:xlink="http://www.w3.org/1999/xlink" x="0px" y="0px"
	 viewBox="0 0 201 60" style="enable-background:new 0 0 201 60;" xml:space="preserve">
<style type="text/css">
	.st0{fill:#FFFFFF;}
	.st1{fill:#2196F3;}
	.st2{fill:#FFC107;}
	.st3{fill:#4CAF50;}
	.st4{fill:#F44336;}
</style>
<path class="st0" d="M10.5,0h180c5.5,0,10,4.5,10,10v40c0,5.5-4.5,10-10,10h-180c-5.5,0-10-4.5-10-10V10C0.5,4.5,5,0,10.5,0z"/>
<path d="M71.1,19.3v0.8h2.5c-0.2,1.2-1.3,2.1-2.6,2.1c-1.5,0-2.7-1.2-2.7-2.7c0-1.5,1.2-2.7,2.7-2.7c1.1,0,2,0.6,2.4,1.5h1
	C74,17,72.6,16,71,16c-2.1,0-3.6,1.5-3.6,3.6s1.6,3.6,3.6,3.6c2,0,3.5-1.5,3.6-3.5v-0.3H71.1z M80.8,20.5c0-1.5-1.2-2.7-2.7-2.7
	c-1.5,0-2.7,1.1-2.7,2.7c0,1.5,1.2,2.7,2.7,2.7c1.3,0,2.2-0.7,2.6-1.8h-0.9c-0.3,0.6-0.9,1-1.7,1c-0.9,0-1.6-0.6-1.8-1.5h4.5
	C80.8,20.7,80.8,20.5,80.8,20.5z M78.1,18.6c0.9,0,1.6,0.6,1.8,1.5h-3.6C76.5,19.2,77.2,18.6,78.1,18.6z M84.3,17.9h-1.2v-1.5
	l-0.9,0.2v1.3h-1.1v0.8h1.1V23h0.9v-4.3h1.2V17.9z M88.2,16.9c0.3,0,0.6-0.3,0.6-0.6c0-0.3-0.3-0.6-0.6-0.6c-0.3,0-0.6,0.2-0.6,0.6
	C87.7,16.6,87.9,16.9,88.2,16.9z M87.8,23h0.9v-5.1h-0.9V23z M92.8,17.9h-1.2v-1.5l-0.9,0.2v1.3h-1.1v0.8h1.1V23h0.9v-4.3h1.2V17.9z
	 M98.7,23.1c1.5,0,2.7-1.2,2.7-2.7c0-1.5-1.2-2.7-2.7-2.7c-1.6,0-2.7,1.1-2.7,2.7C96,22,97.2,23.1,98.7,23.1z M98.7,22.3
	c-1.1,0-1.8-0.8-1.8-1.8c0-1.1,0.8-1.8,1.8-1.8c1,0,1.8,0.8,1.8,1.8C100.5,21.5,99.8,22.3,98.7,22.3z M105.3,17.8
	c-0.8,0-1.5,0.3-1.8,0.9v-0.8h-0.9V23h0.9v-2.9c0-0.9,0.6-1.5,1.6-1.5c0.9,0,1.5,0.6,1.5,1.5V23h0.9v-3.1
	C107.3,18.6,106.5,17.8,105.3,17.8z"/>
<path d="M75.2,33.4v2.1h4.4c-0.5,2-2.3,3.4-4.6,3.4c-2.7,0-4.8-2.1-4.8-4.8c0-2.8,2.1-4.8,4.8-4.8c1.9,0,3.5,1,4.2,2.5h2.6
	C81,29,78.3,27,74.9,27c-4.1,0-7.3,3.1-7.3,7.1s3.1,7.1,7.3,7.1c4,0,7.1-3,7.1-7v-0.8H75.2z M89,41.2c3.1,0,5.5-2.3,5.5-5.3
	c0-3-2.4-5.3-5.5-5.3c-3.1,0-5.5,2.3-5.5,5.3C83.6,38.9,85.9,41.2,89,41.2z M89,39.1c-1.8,0-3.2-1.4-3.2-3.2c0-1.8,1.4-3.2,3.2-3.2
	c1.8,0,3.1,1.4,3.1,3.2C92.2,37.7,90.8,39.1,89,39.1z M101.3,41.2c3.1,0,5.5-2.3,5.5-5.3c0-3-2.4-5.3-5.5-5.3
	c-3.1,0-5.5,2.3-5.5,5.3C95.9,38.9,98.2,41.2,101.3,41.2z M101.3,39.1c-1.8,0-3.2-1.4-3.2-3.2c0-1.8,1.4-3.2,3.2-3.2
	c1.8,0,3.1,1.4,3.1,3.2C104.5,37.7,103.1,39.1,101.3,39.1z M116.8,30.8v1.5c-0.8-1.1-2.1-1.8-3.6-1.8c-2.9,0-5,2.2-5,5.2
	c0,3,2.1,5.2,5,5.2c1.5,0,2.8-0.7,3.6-1.8v0.7c0,1.9-1.2,3.1-3,3.1c-1.4,0-2.4-0.7-2.8-1.7h-2.3c0.6,2.3,2.5,3.8,5.1,3.8
	c3.1,0,5.2-2,5.2-5.1v-9.1H116.8z M113.7,38.9c-1.8,0-3.2-1.4-3.2-3.2c0-1.8,1.4-3.2,3.2-3.2c1.8,0,3.1,1.4,3.1,3.2
	C116.8,37.6,115.5,38.9,113.7,38.9z M121.7,41h2.2V26.6h-2.2V41z M136.9,35.9c0-3.1-2.3-5.4-5.5-5.4c-3.1,0-5.4,2.3-5.4,5.3
	c0,3,2.3,5.3,5.4,5.3c2.5,0,4.5-1.4,5.3-3.5h-2.4c-0.4,0.9-1.5,1.5-2.8,1.5c-1.5,0-2.7-1-3.1-2.5h8.4
	C136.9,36.5,136.9,36.1,136.9,35.9z M131.4,32.6c1.5,0,2.7,0.9,3,2.3h-6.1C128.8,33.5,129.9,32.6,131.4,32.6z M148.5,27.2h-4.8V41
	h2.4v-4.8h2.4c2.6,0,4.6-1.9,4.6-4.5C153.2,29.1,151.2,27.2,148.5,27.2z M148.5,33.9h-2.4v-4.5h2.4c1.3,0,2.2,1,2.2,2.3
	C150.7,33,149.8,33.9,148.5,33.9z M155,41h2.2V26.6H155V41z M167.9,30.8v1.6c-0.8-1.1-2.1-1.8-3.6-1.8c-2.9,0-5,2.3-5,5.3
	c0,3,2.1,5.3,5,5.3c1.5,0,2.8-0.7,3.6-1.8V41h2.2V30.8H167.9z M164.8,39.1c-1.8,0-3.2-1.4-3.2-3.2c0-1.8,1.3-3.2,3.2-3.2
	c1.8,0,3.1,1.4,3.1,3.2C167.9,37.7,166.6,39.1,164.8,39.1z M180.2,30.8l-3,7.4l-3-7.4h-2.6l4.3,10.1l-1.7,3.9h2.4l5.9-14H180.2z"/>
<path class="st1" d="M36.3,29.8L23.4,42.7c-0.6-0.6-0.9-1.4-0.9-2.2V20.2c0-0.9,0.4-1.7,1-2.3L36.3,29.8z"/>
<path class="st2" d="M47.4,30.3c0,1.2-0.6,2.2-1.7,2.8l-3.7,2L37.5,31l-1.2-1.1l4.8-4.8l4.6,2.6C46.8,28.1,47.4,29.2,47.4,30.3z"/>
<path class="st3" d="M36.3,29.8L23.4,17.9c0.2-0.2,0.4-0.3,0.6-0.4c1-0.6,2.3-0.6,3.4-0.1L41.1,25L36.3,29.8z"/>
<path class="st4" d="M42.1,35.2l-14.7,8.1c-0.5,0.3-1.1,0.4-1.7,0.4c-0.6,0-1.2-0.1-1.7-0.5c-0.2-0.1-0.4-0.3-0.6-0.5l12.9-12.9
	l1.2,1.1L42.1,35.2z"/>
</svg>
