<?xml version="1.0" encoding="utf-8"?>
<!-- Generator: Adobe Illustrator 16.0.0, SVG Export Plug-In . SVG Version: 6.00 Build 0)  -->
<!DOCTYPE svg PUBLIC "-//W3C//DTD SVG 1.1//EN" "http://www.w3.org/Graphics/SVG/1.1/DTD/svg11.dtd">
<svg version="1.1" id="Layer_1" xmlns="http://www.w3.org/2000/svg" xmlns:xlink="http://www.w3.org/1999/xlink" x="0px" y="0px"
	 width="80px" height="80px" viewBox="0 0 80 80" enable-background="new 0 0 80 80" xml:space="preserve">
<g>
	<g>
		<g>
			<path fill="#FFFFFF" d="M43.311,33.194c-0.586-0.458-1.428-0.369-1.895,0.209l-3.96,4.947l-6.12-8.57
				c2.563-0.946,4.415-3.394,4.415-6.286c0-3.708-3.018-6.72-6.723-6.72h-5.372c-0.741,0-1.347,0.602-1.347,1.348v18.809
				c0,0.742,0.603,1.348,1.347,1.348c0.745,0,1.345-0.606,1.345-1.348v-6.718h3.338l7.378,10.321l-5.046,6.301
				c-0.461,0.584-0.369,1.429,0.212,1.896c0.243,0.196,0.542,0.295,0.831,0.295c0.397,0,0.788-0.172,1.055-0.504l4.569-5.711
				l4.037,5.644c0.266,0.375,0.67,0.571,1.098,0.571c0.264,0,0.541-0.08,0.774-0.252c0.603-0.424,0.744-1.273,0.313-1.877
				l-4.479-6.268l4.441-5.544C43.98,34.504,43.889,33.661,43.311,33.194z M24.999,27.521v-8.052h4.03c2.221,0,4.03,1.801,4.03,4.026
				c0,2.224-1.809,4.026-4.027,4.026H24.999z"/>
			<path fill="#FFFFFF" d="M42.473,49.525c-0.604,0-1.153-0.285-1.506-0.782l-3.651-5.104l-4.156,5.195
				c-0.614,0.762-1.824,0.904-2.591,0.285c-0.789-0.633-0.919-1.797-0.291-2.594l4.812-6.009l-7.008-9.804h-2.581v6.218
				c0,1.019-0.828,1.848-1.845,1.848c-1.019,0-1.847-0.829-1.847-1.848V18.122c0-1.019,0.829-1.848,1.847-1.848h5.372
				c3.983,0,7.223,3.239,7.223,7.22c0,2.778-1.642,5.316-4.145,6.503l5.373,7.524l3.546-4.431c0.615-0.761,1.82-0.894,2.593-0.291
				c0.791,0.64,0.922,1.801,0.298,2.594l-4.207,5.252l4.259,5.959c0.287,0.403,0.399,0.896,0.315,1.386
				c-0.083,0.487-0.349,0.91-0.748,1.191C43.237,49.401,42.857,49.525,42.473,49.525z M37.36,41.982l4.421,6.181
				c0.269,0.379,0.814,0.468,1.169,0.208c0.189-0.134,0.31-0.325,0.348-0.548c0.038-0.227-0.013-0.452-0.145-0.637l-4.698-6.575
				l4.678-5.839c0.285-0.362,0.225-0.897-0.137-1.19c-0.347-0.269-0.906-0.217-1.191,0.135l-4.372,5.461l-6.885-9.641l0.614-0.227
				c2.445-0.902,4.088-3.24,4.088-5.816c0-3.43-2.792-6.22-6.223-6.22h-5.372c-0.467,0-0.847,0.38-0.847,0.848v18.809
				c0,0.467,0.38,0.848,0.847,0.848c0.466,0,0.845-0.38,0.845-0.848v-7.218h4.095l7.748,10.839l-5.283,6.596
				c-0.288,0.365-0.229,0.901,0.135,1.193c0.354,0.286,0.905,0.214,1.184-0.133L37.36,41.982z M29.032,28.021h-4.533v-9.052h4.53
				c2.498,0,4.53,2.031,4.53,4.526S31.528,28.021,29.032,28.021z M25.499,27.021h3.533c1.945,0,3.527-1.582,3.527-3.526
				s-1.583-3.526-3.53-3.526h-3.53V27.021z"/>
		</g>
	</g>
	<g>
		<g>
			<path fill="none" d="M53.167,16.775h6.886l-9.895-9.899v6.893C50.158,15.426,51.512,16.775,53.167,16.775z"/>
		</g>
	</g>
	<g>
		<g>
			<path fill="#FFFFFF" d="M17.107,70.871c-1.662,0-3.006-1.348-3.006-3.01V7.763c0-1.653,1.345-3.001,3.006-3.001h30.042v9.007
				c0,3.32,2.701,6.012,6.019,6.012h9.015v32.408c0.309,0.117,0.646,0.179,0.947,0.326c0.721,0.338,1.396,0.75,2.057,1.207V18.284
				c0-0.403-0.154-0.785-0.443-1.066L49.721,2.188c-0.283-0.281-0.664-0.438-1.07-0.438H17.107c-3.32,0-6.015,2.69-6.015,6.01
				v60.102c0,3.322,2.695,6.013,6.015,6.013h26.868c-0.578-0.948-1.064-1.944-1.429-3.003H17.107L17.107,70.871z M50.158,6.879
				l9.895,9.899h-6.886c-1.655,0-3.009-1.349-3.009-3.006V6.879z"/>
			<path fill="#FFFFFF" d="M44.865,74.374H17.107c-3.592,0-6.515-2.922-6.515-6.513V7.76c0-3.589,2.923-6.51,6.515-6.51H48.65
				c0.538,0,1.043,0.207,1.422,0.583l15.023,15.031c0.379,0.368,0.59,0.875,0.59,1.42v36.393l-0.784-0.543
				c-0.708-0.49-1.357-0.871-1.984-1.165c-0.164-0.08-0.332-0.128-0.498-0.178c-0.141-0.041-0.28-0.083-0.415-0.134l-0.322-0.123
				V20.281h-8.515c-3.595,0-6.519-2.921-6.519-6.512V5.262H17.107c-1.382,0-2.506,1.122-2.506,2.501v60.098
				c0,1.384,1.124,2.51,2.506,2.51h25.795l0.116,0.337c0.339,0.984,0.791,1.935,1.383,2.905L44.865,74.374z M17.107,2.25
				c-3.041,0-5.515,2.472-5.515,5.51v60.102c0,3.04,2.474,5.513,5.515,5.513h26.002c-0.361-0.664-0.664-1.327-0.916-2.003H17.107
				c-1.933,0-3.506-1.574-3.506-3.51V7.763c0-1.931,1.573-3.501,3.506-3.501h30.542v9.507c0,3.04,2.476,5.512,5.519,5.512h9.515
				v32.545c0.007,0.002,0.015,0.005,0.021,0.007c0.22,0.065,0.44,0.133,0.646,0.233c0.433,0.203,0.875,0.444,1.337,0.73V18.284
				c0-0.273-0.104-0.525-0.292-0.708L49.367,2.542C49.178,2.354,48.923,2.25,48.65,2.25H17.107z M61.26,17.278h-8.093
				c-1.935,0-3.509-1.573-3.509-3.506V5.671L61.26,17.278z M50.658,8.086v5.686c0,1.382,1.125,2.506,2.509,2.506h5.679L50.658,8.086
				z"/>
		</g>
	</g>
	<g>
		<g>
			<path fill="#FFFFFF" d="M56.717,78.25c-3.679,0-7.123-1.641-9.447-4.498c-0.338-0.412-0.627-0.863-0.908-1.311
				c-0.504-0.821-0.888-1.621-1.178-2.467c-0.441-1.298-0.662-2.615-0.662-3.922c0-6.723,5.468-12.191,12.189-12.191
				c1.461,0,2.915,0.297,4.453,0.915l0.213,0.065c0.194,0.057,0.387,0.117,0.563,0.202c0.525,0.247,1.057,0.562,1.668,0.986
				c3.313,2.274,5.295,6.022,5.301,10.022C68.908,72.778,63.438,78.25,56.717,78.25z M56.711,55.266
				c-5.951,0-10.787,4.84-10.787,10.787c0,1.153,0.195,2.32,0.586,3.469c0.257,0.743,0.598,1.453,1.033,2.164
				c0.254,0.403,0.511,0.81,0.813,1.18c2.061,2.531,5.107,3.982,8.361,3.982c5.947,0,10.789-4.84,10.789-10.793
				c-0.006-3.537-1.76-6.852-4.695-8.868c-0.548-0.382-1.014-0.657-1.48-0.874c-0.114-0.059-0.229-0.088-0.348-0.121
				c-0.105-0.033-0.21-0.063-0.314-0.102C59.275,55.529,57.988,55.266,56.711,55.266z"/>
			<path fill="#FFFFFF" d="M56.717,78.75c-3.83,0-7.415-1.707-9.835-4.683c-0.351-0.428-0.646-0.887-0.943-1.359
				c-0.529-0.861-0.93-1.701-1.228-2.571c-0.458-1.345-0.689-2.719-0.689-4.084c0-6.998,5.692-12.691,12.689-12.691
				c1.529,0,3.047,0.312,4.64,0.951l0.173,0.052c0.215,0.063,0.434,0.133,0.634,0.229c0.546,0.257,1.099,0.583,1.735,1.026
				c3.447,2.366,5.51,6.267,5.516,10.432C69.408,73.054,63.715,78.75,56.717,78.75z M56.711,54.361
				c-6.445,0-11.689,5.245-11.689,11.691c0,1.256,0.214,2.521,0.636,3.761c0.273,0.799,0.644,1.573,1.13,2.366
				c0.277,0.44,0.554,0.871,0.869,1.255c2.231,2.743,5.533,4.315,9.061,4.315c6.446,0,11.691-5.247,11.691-11.697
				c-0.006-3.836-1.906-7.429-5.084-9.61c-0.592-0.411-1.099-0.712-1.598-0.946c-0.156-0.075-0.322-0.126-0.489-0.174l-0.22-0.068
				C59.506,54.648,58.11,54.361,56.711,54.361z M56.717,77.348c-3.404,0-6.594-1.519-8.749-4.167
				c-0.326-0.399-0.604-0.84-0.848-1.229c-0.463-0.756-0.816-1.495-1.083-2.268c-0.407-1.197-0.613-2.418-0.613-3.632
				c0-6.224,5.063-11.287,11.287-11.287c1.35,0,2.705,0.281,4.144,0.86c0.056,0.021,0.122,0.041,0.189,0.061l-0.033,0.513
				l0.134-0.481c0.123,0.034,0.264,0.072,0.414,0.149c0.472,0.22,0.967,0.511,1.538,0.909c3.066,2.106,4.903,5.576,4.909,9.277
				C68.006,72.281,62.941,77.348,56.717,77.348z M56.711,55.766c-5.672,0-10.287,4.615-10.287,10.287
				c0,1.104,0.188,2.217,0.56,3.308c0.242,0.7,0.564,1.376,0.986,2.064c0.237,0.377,0.486,0.772,0.773,1.124
				c1.965,2.414,4.871,3.799,7.974,3.799c5.674,0,10.289-4.617,10.289-10.293c-0.006-3.372-1.68-6.533-4.479-8.456
				c-0.525-0.366-0.972-0.63-1.408-0.833c-0.077-0.039-0.149-0.059-0.241-0.084l-0.127-0.038c-0.086-0.026-0.172-0.053-0.258-0.085
				C59.164,56.023,57.931,55.766,56.711,55.766z"/>
		</g>
	</g>
	<g>
		<g>
			<g>
				<path fill="#FFFFFF" d="M60.863,63.828l-3.767-4.031c-0.097-0.102-0.229-0.16-0.38-0.16c-0.145,0-0.278,0.059-0.375,0.16
					l-3.758,4.031c-0.195,0.213-0.186,0.539,0.021,0.732c0.203,0.189,0.539,0.176,0.738-0.025l2.875-3.083v7.34
					c0,0.279,0.229,0.508,0.507,0.508c0.287,0,0.517-0.229,0.517-0.508v-7.331l2.861,3.078c0.106,0.105,0.239,0.16,0.372,0.16
					c0.124,0,0.253-0.045,0.354-0.133C61.031,64.375,61.04,64.045,60.863,63.828z"/>
				<path fill="#FFFFFF" d="M56.726,69.8c-0.555,0-1.007-0.452-1.007-1.008v-6.07l-2.01,2.154c-0.396,0.4-1.062,0.408-1.444,0.05
					c-0.406-0.379-0.428-1.022-0.049-1.436l3.76-4.034c0.396-0.416,1.098-0.408,1.483-0.004l3.77,4.034
					c0.369,0.451,0.335,1.073-0.056,1.443c-0.422,0.37-1.037,0.345-1.421-0.035l-2.01-2.161v6.059
					C57.742,69.348,57.286,69.8,56.726,69.8z M56.719,60.183l0.007,8.617c0.014,0,0.017-0.008,0.017-0.008v-8.604l3.728,4.01
					l-3.738-4.06l-3.781,4.03L56.719,60.183z"/>
			</g>
		</g>
	</g>
	<g>
		<g>
			<path fill="#FFFFFF" d="M60.916,71.458h-8.412c-0.279,0-0.513,0.233-0.513,0.509c0,0.281,0.233,0.508,0.513,0.508h8.422
				c0.283,0,0.512-0.227,0.512-0.508C61.438,71.691,61.209,71.458,60.916,71.458z"/>
			<path fill="#FFFFFF" d="M60.926,72.975h-8.422c-0.559,0-1.013-0.452-1.013-1.008c0-0.557,0.454-1.009,1.013-1.009h8.412
				c0.563,0,1.021,0.452,1.021,1.009C61.938,72.522,61.483,72.975,60.926,72.975z M52.504,71.958l8.422,0.017
				c0.008,0,0.012-0.004,0.012-0.008L52.504,71.958z"/>
		</g>
	</g>
</g>
</svg>
