<?xml version="1.0" encoding="utf-8"?>
<!-- Generator: Adobe Illustrator 24.0.0, SVG Export Plug-In . SVG Version: 6.00 Build 0)  -->
<svg version="1.1" id="Layer_1" xmlns="http://www.w3.org/2000/svg" xmlns:xlink="http://www.w3.org/1999/xlink" x="0px" y="0px"
	 viewBox="0 0 150 150" style="enable-background:new 0 0 150 150;" xml:space="preserve">
<style type="text/css">
	.st0{clip-path:url(#SVGID_2_);}
	.st1{fill:#2F80ED;}
	.st2{fill:#FFFFFF;}
	.st3{fill:#FF9900;}
	.st4{fill:#EC407A;}
</style>
<g>
	<g>
		<defs>
			<rect id="SVGID_1_" x="28.9" y="0.4" width="92.2" height="149.1"/>
		</defs>
		<clipPath id="SVGID_2_">
			<use xlink:href="#SVGID_1_"  style="overflow:visible;"/>
		</clipPath>
		<g class="st0">
			<path class="st1" d="M99.5,38.2V11.8H50.6v26.4c0,1.4-1.1,2.5-2.5,2.5c-9.9,0-18,8-18,18V142c0,3.6,2.9,6.5,6.5,6.5h76.8
				c3.6,0,6.5-2.9,6.5-6.5V58.7c0-10-8.1-18-18-18C100.5,40.7,99.5,39.6,99.5,38.2z"/>
			<path class="st2" d="M120,69.5H30.1v60.2H120V69.5z"/>
			<path class="st3" d="M120,78.8H30.1v41.7H120V78.8z"/>
			<path d="M113.4,149.7H36.6c-4.2,0-7.7-3.5-7.7-7.7V58.7c0-10.6,8.6-19.2,19.2-19.2c0.7,0,1.3-0.6,1.3-1.3V11.8
				c0-0.6,0.5-1.2,1.2-1.2h48.9c0.6,0,1.2,0.5,1.2,1.2v26.4c0,0.7,0.6,1.3,1.3,1.3c10.6,0,19.2,8.6,19.2,19.2V142
				C121.1,146.2,117.7,149.7,113.4,149.7z M51.8,13v25.2c0,2-1.6,3.6-3.6,3.6c-9.3,0-16.8,7.6-16.8,16.8V142c0,2.9,2.4,5.3,5.3,5.3
				h76.8c2.9,0,5.3-2.4,5.3-5.3V58.7c0-9.3-7.6-16.8-16.9-16.8c-2,0-3.6-1.6-3.6-3.6V13H51.8L51.8,13z"/>
			<path d="M120,130.9H30.1c-0.6,0-1.2-0.5-1.2-1.2V69.5c0-0.6,0.5-1.2,1.2-1.2H120c0.6,0,1.2,0.5,1.2,1.2v60.2
				C121.1,130.4,120.6,130.9,120,130.9z M31.3,128.5h87.5V70.7H31.3V128.5z"/>
			<path d="M120,121.6H30.1c-0.6,0-1.2-0.5-1.2-1.2V78.8c0-0.6,0.5-1.2,1.2-1.2H120c0.6,0,1.2,0.5,1.2,1.2v41.7
				C121.1,121.1,120.6,121.6,120,121.6z M31.3,119.3h87.5V79.9H31.3V119.3z"/>
			<path class="st4" d="M108.1,31.3H41.9c-3.2,0-5.7-2.6-5.7-5.7V7.3c0-3.2,2.6-5.7,5.7-5.7h66.2c3.2,0,5.7,2.6,5.7,5.7v18.3
				C113.8,28.7,111.3,31.3,108.1,31.3z"/>
			<path d="M108.1,32.5H41.9c-3.8,0-6.9-3.1-6.9-6.9V7.3c-0.1-3.8,3.1-6.9,6.9-6.9h66.2c3.8,0,6.9,3.1,6.9,6.9v18.3
				C115,29.4,111.9,32.5,108.1,32.5z M41.9,2.8c-2.5,0-4.5,2.1-4.5,4.5v18.3c0,2.5,2.1,4.5,4.5,4.5h66.2c2.5,0,4.5-2.1,4.5-4.5V7.3
				c0-2.5-2.1-4.5-4.5-4.5H41.9L41.9,2.8z"/>
		</g>
	</g>
</g>
</svg>
