<?xml version="1.0" encoding="utf-8"?>
<!-- Generator: Adobe Illustrator 16.0.0, SVG Export Plug-In . SVG Version: 6.00 Build 0)  -->
<!DOCTYPE svg PUBLIC "-//W3C//DTD SVG 1.1//EN" "http://www.w3.org/Graphics/SVG/1.1/DTD/svg11.dtd">
<svg version="1.1" id="Layer_1" xmlns="http://www.w3.org/2000/svg" xmlns:xlink="http://www.w3.org/1999/xlink" x="0px" y="0px"
	 width="80px" height="80px" viewBox="0 0 80 80" enable-background="new 0 0 80 80" xml:space="preserve">
<g>
	<g>
		<g>
			<path fill="#FFFFFF" d="M67.913,18.393L52.149,2.629c-0.296-0.296-0.696-0.462-1.115-0.462H17.93
				c-3.477,0-6.305,2.828-6.305,6.306v63.056c0,3.478,2.828,6.306,6.306,6.306H62.07c3.477,0,6.305-2.828,6.305-6.306V19.507
				C68.375,19.088,68.209,18.688,67.913,18.393z M52.611,7.549l10.382,10.382h-7.229c-1.737,0-3.152-1.415-3.152-3.153V7.549z
				 M65.222,71.528c0,1.736-1.414,3.152-3.151,3.152H17.931c-1.738,0-3.153-1.416-3.153-3.152V8.473
				c0-1.739,1.416-3.153,3.153-3.153h31.527v9.458c0,3.478,2.828,6.306,6.306,6.306h9.458V71.528z"/>
			<path fill="#FFFFFF" d="M52.021,46.65c-0.682-0.542-1.671-0.431-2.217,0.246l-4.647,5.808l-7.185-10.058
				c3.013-1.108,5.182-3.982,5.182-7.375c0-4.346-3.537-7.882-7.883-7.882h-6.305c-0.872,0-1.576,0.705-1.576,1.576v22.069
				c0,0.872,0.705,1.578,1.576,1.578c0.871,0,1.577-0.706,1.577-1.578v-7.881h3.918l8.65,12.11l-5.918,7.397
				c-0.543,0.68-0.433,1.672,0.247,2.217c0.291,0.232,0.638,0.344,0.983,0.344c0.463,0,0.92-0.202,1.233-0.591l5.36-6.701
				l4.737,6.632c0.308,0.432,0.791,0.66,1.284,0.66c0.315,0,0.637-0.095,0.914-0.294c0.708-0.504,0.873-1.49,0.366-2.198
				l-5.255-7.357l5.204-6.505C52.811,48.188,52.699,47.195,52.021,46.65z M30.542,40v-9.458h4.729c2.608,0,4.729,2.122,4.729,4.729
				C40,37.878,37.879,40,35.271,40H30.542z"/>
		</g>
	</g>
</g>
</svg>
