<?xml version="1.0" encoding="utf-8"?>
<!-- Generator: Adobe Illustrator 24.0.0, SVG Export Plug-In . SVG Version: 6.00 Build 0)  -->
<svg version="1.1" id="Layer_1" xmlns="http://www.w3.org/2000/svg" xmlns:xlink="http://www.w3.org/1999/xlink" x="0px" y="0px"
	 viewBox="0 0 512 512" style="enable-background:new 0 0 512 512;" xml:space="preserve">
<style type="text/css">
	.st0{fill:#FFFFFF;}
	.st1{fill:#FF0000;}
</style>
<g>
	<path class="st0" d="M256,9.9C120.3,9.9,9.9,120.3,9.9,256S120.3,502.1,256,502.1S502.1,391.7,502.1,256S391.7,9.9,256,9.9z"/>
	<path class="st1" d="M256,507C117.6,507,5,394.4,5,256S117.6,5,256,5s251,112.6,251,251S394.4,507,256,507z M256,36.4
		C134.9,36.4,36.4,134.9,36.4,256S134.9,475.6,256,475.6S475.6,377.1,475.6,256S377.1,36.4,256,36.4z"/>
	<g>
		<path class="st1" d="M276.5,389.3c0,11.3-9.2,20.5-20.5,20.5c-11.3,0-20.5-9.2-20.5-20.5c0-11.3,9.2-20.5,20.5-20.5
			C267.3,368.8,276.5,378,276.5,389.3z"/>
		<path class="st1" d="M256,322.7c-8.5,0-15.4-6.9-15.4-15.4v-20.7c0-19.5,12.4-37,30.8-43.5c24.5-8.6,41-34.7,41-53.7
			c0-31.1-25.3-56.4-56.4-56.4s-56.4,25.3-56.4,56.4c0,8.5-6.9,15.4-15.4,15.4s-15.4-6.9-15.4-15.4c0-48.1,39.1-87.2,87.2-87.2
			s87.2,39.1,87.2,87.2c0,34.2-27,70.5-61.5,82.7c-6.2,2.2-10.3,8-10.3,14.5v20.7C271.4,315.8,264.5,322.7,256,322.7z"/>
	</g>
</g>
</svg>
