<svg width="211" height="150" viewBox="0 0 211 150" fill="none" xmlns="http://www.w3.org/2000/svg">
<g clip-path="url(#clip0)">
<path fill-rule="evenodd" clip-rule="evenodd" d="M8.44019 110.854C9.62121 110.629 10.8452 110.5 12.0906 110.5C18.5111 110.5 24.2015 113.678 27.6587 118.542C31.1159 113.678 36.8063 110.5 43.2268 110.5C49.6472 110.5 55.3376 113.678 58.7948 118.542C62.252 113.678 67.9424 110.5 74.3629 110.5C80.7834 110.5 86.4738 113.678 89.9309 118.542C93.3881 113.678 99.0785 110.5 105.499 110.5C111.919 110.5 117.61 113.678 121.067 118.542C124.524 113.678 130.215 110.5 136.635 110.5C143.056 110.5 148.746 113.678 152.203 118.542C155.66 113.678 161.351 110.5 167.771 110.5C174.192 110.5 179.882 113.678 183.339 118.542C186.797 113.678 192.487 110.5 198.907 110.5C199.691 110.5 200.475 110.543 201.237 110.64C200.207 116.04 198.113 121.247 195.268 126.208C181.621 149.989 159.966 149.989 159.966 149.989H55.5738C55.5738 149.989 24.3518 150.623 12.2624 123.76C10.2976 119.379 9.05217 115.074 8.44019 110.854Z" fill="#B8CE98"/>
<path fill-rule="evenodd" clip-rule="evenodd" d="M45.5136 148.873C45.5351 148.851 45.5566 148.83 45.5781 148.808C49.6043 144.202 54.7042 141.583 56.5831 143.225C57.8178 144.31 57.3561 146.983 55.7349 149.989H55.5846C55.3806 149.989 55.1873 149.989 54.9833 149.989C54.7042 149.989 54.4143 149.979 54.1351 149.968C53.3836 149.936 52.632 149.882 51.8912 149.817C49.7653 149.624 47.6395 149.302 45.5458 148.883L45.5136 148.873ZM19.1768 134.496C21.4422 134.228 24.427 134.496 27.4869 135.323C30.9548 136.257 33.7463 137.707 35.3246 139.231C34.2832 135.957 33.5316 133.906 33.4242 133.627C31.1373 133.723 27.7875 130.717 25.361 125.929C22.591 120.474 22.0649 114.763 24.2981 113.635C26.5206 112.508 30.6649 116.384 33.435 121.838C35.9473 126.788 36.4627 131.351 34.8737 132.993C34.8844 133.004 34.8844 133.015 34.8844 133.036C34.8844 133.036 35.7648 135.259 37.0317 138.963C37.4075 137.03 38.3094 134.754 39.7159 132.435C42.8832 127.206 47.457 123.749 49.5935 125.037C51.7301 126.337 50.6243 131.898 47.4462 137.127C44.5795 141.851 41.0043 144.696 38.7603 144.245C39.0717 145.244 39.3938 146.296 39.7159 147.391C39.0073 147.166 38.2772 146.919 37.5471 146.65C37.182 145.33 36.817 144.073 36.4627 142.914C35.9259 143.826 34.6697 144.449 32.9518 144.728C28.1848 142.431 23.3426 139.167 19.1768 134.496Z" fill="#6D8B52"/>
<path fill-rule="evenodd" clip-rule="evenodd" d="M147.35 149.989C146.781 149.195 146.223 148.325 145.697 147.391C142.712 142.055 141.81 136.451 143.99 135.237C146.169 134.024 150.614 137.642 153.599 142.978C154.737 145.008 155.499 146.994 155.886 148.755C157.292 145.169 158.667 141.991 159.912 139.317C157.614 139.382 154.683 135.785 152.912 130.438C150.99 124.63 151.151 118.961 153.524 118.177C155.896 117.393 159.579 121.784 161.501 127.593C162.231 129.805 162.607 131.909 162.661 133.713C164.056 131.018 164.937 129.547 164.937 129.547C164.969 129.504 165.001 129.461 165.033 129.418C163.616 127.636 164.421 123.169 167.17 118.435C170.241 113.152 174.6 109.512 176.758 110.769C178.916 112.025 178.057 117.694 174.986 122.976C172.238 127.711 168.63 130.535 166.354 130.18C166.332 130.234 166.311 130.288 166.279 130.341C166.279 130.341 165.173 132.263 163.498 135.753C165.27 134.507 168.083 133.466 171.465 132.961C177.509 132.049 183.071 133.165 183.447 135.635C183.822 138.104 178.862 140.992 172.817 141.905C167.299 142.742 162.779 141.647 161.737 139.575C160.438 142.474 158.978 145.985 157.507 150.011H147.35V149.989ZM158.044 149.989C159.601 148.98 161.662 148.078 164.046 147.402C167.578 146.414 171.024 146.167 173.365 146.65C165.828 149.989 159.987 149.989 159.987 149.989H158.044Z" fill="#6D8B52"/>
<path fill-rule="evenodd" clip-rule="evenodd" d="M138.643 117.78L121.421 94.2234L123.171 56.3555C123.171 56.3555 125.995 57.2359 129.162 58.2236C134.627 59.9308 139.062 63.957 141.284 69.2394C146.77 82.2629 156.766 106.001 156.766 106.001L138.643 117.78Z" fill="#95B33E"/>
<path fill-rule="evenodd" clip-rule="evenodd" d="M138.643 117.78L121.421 94.2235L129.925 79.0205L145.375 110.103L138.643 117.78Z" fill="#627E2D"/>
<path fill-rule="evenodd" clip-rule="evenodd" d="M157.496 107.773C159.397 112.401 158.012 117.726 154.093 120.84C150.185 123.953 144.677 124.114 140.597 121.226C137.365 118.939 135.229 117.436 135.229 117.436V99.7529H147.307C151.484 99.7529 155.242 102.276 156.82 106.13C157.035 106.657 157.26 107.204 157.496 107.773Z" fill="#FA9E84"/>
<path fill-rule="evenodd" clip-rule="evenodd" d="M157.389 107.515L157.496 107.773C159.397 112.4 158.012 117.726 154.093 120.839C150.185 123.953 144.677 124.114 140.597 121.226C137.365 118.939 135.229 117.436 135.229 117.436V113.581L139.641 116.706C143.732 119.594 149.229 119.433 153.137 116.319C155.886 114.129 157.389 110.865 157.389 107.515Z" fill="#D4886D"/>
<path fill-rule="evenodd" clip-rule="evenodd" d="M109.718 52.1573C109.718 52.1573 119.177 55.1099 125.619 57.1176C129.098 58.202 131.47 61.423 131.47 65.0734V150H67.7703V59.6622L92.0672 51.395L109.718 52.1573Z" fill="#95B33E"/>
<path fill-rule="evenodd" clip-rule="evenodd" d="M102.3 51.835L109.719 52.1571L115.71 54.0252C115.398 55.5176 114.894 56.9134 114.206 58.1696L102.3 51.835Z" fill="#E1F5EC"/>
<path fill-rule="evenodd" clip-rule="evenodd" d="M114.207 58.1591C112.102 61.9598 108.226 64.4292 102.3 64.4292C95.031 64.4292 88.8467 59.5978 87.0752 53.0914L92.0677 51.395L102.3 51.8352L114.207 58.1591Z" fill="#F6FBFD"/>
<path fill-rule="evenodd" clip-rule="evenodd" d="M74.0731 80.9204V117.167L106.863 125.52C106.863 125.52 87.9878 132.95 78.8831 136.525C75.9843 137.663 74.0731 140.466 74.0731 143.579C74.0731 146.661 74.0731 149.989 74.0731 149.989H67.76V83.9159L74.0731 80.9204Z" fill="#627E2D"/>
<path fill-rule="evenodd" clip-rule="evenodd" d="M73.6758 83.7767C75.5762 75.2626 75.0501 66.3941 72.1727 58.1592C72.1727 58.1592 70.2938 58.7926 67.9425 59.5979C62.1662 61.5627 57.6998 66.2116 55.9604 72.0523C52.2456 84.5497 46.115 105.175 46.115 105.175L67.76 110.296C67.7707 110.307 71.1098 95.297 73.6758 83.7767Z" fill="#95B33E"/>
<path fill-rule="evenodd" clip-rule="evenodd" d="M96.2978 109.416L46.115 105.186C46.115 105.186 45.2775 107.988 44.1394 111.832C42.7652 116.438 43.871 121.43 47.0598 125.027C50.2486 128.624 55.0693 130.331 59.8149 129.525C76.4029 126.712 96.2978 123.33 96.2978 123.33V109.416V109.416Z" fill="#FA9E84"/>
<path fill-rule="evenodd" clip-rule="evenodd" d="M89.3191 113.968C89.3191 111.756 91.0047 109.91 93.2057 109.706C95.6859 109.48 98.8102 109.19 100.775 109.008C102.01 108.89 103.234 109.255 104.2 110.028C106.412 111.788 110.288 114.87 110.288 114.87H120.412C121.067 114.87 121.679 115.224 122.023 115.793C122.356 116.362 122.366 117.071 122.044 117.64C121.583 118.467 121.078 119.379 120.605 120.227C119.489 122.246 117.513 123.652 115.237 124.05C112.907 124.458 109.998 124.984 108.291 125.284C107.346 125.456 106.39 125.435 105.445 125.241C102.482 124.629 95.6 123.201 91.8529 122.418C90.3713 122.106 89.3191 120.807 89.3191 119.304V113.968Z" fill="#FA9E84"/>
<path fill-rule="evenodd" clip-rule="evenodd" d="M44.0751 112.067C43.957 115.589 45.1702 119.078 47.5645 121.773C50.7533 125.37 55.574 127.077 60.3196 126.272C76.9076 123.459 96.8025 120.077 96.8025 120.077L105.95 121.977C106.884 122.171 107.85 122.181 108.795 122.02C110.502 121.72 113.412 121.204 115.742 120.785C118.018 120.378 119.983 118.982 121.11 116.963L121.883 115.568C121.937 115.632 121.98 115.696 122.023 115.772C122.356 116.341 122.366 117.038 122.044 117.618C121.583 118.445 121.078 119.358 120.606 120.206C119.489 122.224 117.513 123.631 115.237 124.028C112.907 124.436 109.998 124.962 108.291 125.263C107.346 125.434 106.39 125.413 105.445 125.22L96.2979 123.319C96.2979 123.319 76.4137 126.691 59.8149 129.514C55.0694 130.32 50.2486 128.623 47.0599 125.016C43.9355 121.483 42.8189 116.609 44.0751 112.067Z" fill="#D4886D"/>
<path fill-rule="evenodd" clip-rule="evenodd" d="M109.633 46.5853L110.309 53.8325C110.309 53.8325 109.654 60.2422 101.451 59.5658C93.807 58.9431 92.0676 51.3953 92.0676 51.3953L92.5186 35.0542L109.633 46.5853Z" fill="#FA9E84"/>
<path fill-rule="evenodd" clip-rule="evenodd" d="M109.633 46.585H100.142C100.142 46.585 102.106 53.8322 110.309 53.8322L109.633 46.585Z" fill="#DA7960"/>
<path fill-rule="evenodd" clip-rule="evenodd" d="M121.389 19.5718C121.389 19.5718 129.742 11.659 123.494 6.29066C117.245 0.922361 94.9773 -5.82022 93.4205 7.27843C93.4205 7.27843 79.0979 9.36133 88.3958 30.0615L121.389 19.5718Z" fill="#7C4C28"/>
<path fill-rule="evenodd" clip-rule="evenodd" d="M121.389 19.5718C121.389 19.5718 129.742 11.659 123.494 6.29066C117.245 0.922361 94.9772 -5.82022 93.4204 7.27842L101.344 16.4797L121.389 19.5718Z" fill="#905930"/>
<path fill-rule="evenodd" clip-rule="evenodd" d="M92.2932 35.8271C93.1521 38.2106 94.5693 41.0773 96.6952 43.5252C99.5297 46.7999 119.757 40.7444 120.895 33.3362C121.969 26.3037 121.389 19.5719 121.389 19.5719C121.389 19.5719 121.336 18.874 121.271 18.1439C121.196 17.1883 120.434 16.4368 119.478 16.3724C115.817 16.1039 107.024 15.4705 102.665 15.1591C101.162 15.0518 99.7659 15.9429 99.229 17.3494L95.4498 27.2915C94.4298 26.2286 92.9589 25.6058 91.3698 25.7347C88.5783 25.9601 86.5062 28.4081 86.7316 31.1996C86.9571 33.9911 89.405 36.0633 92.1966 35.8378L92.2932 35.8271Z" fill="#FA9E84"/>
<path fill-rule="evenodd" clip-rule="evenodd" d="M100.764 31.4789C100.743 31.4359 100.721 31.4037 100.689 31.3715L96.1475 26.4756C95.9328 26.2394 95.557 26.2287 95.3208 26.4434C95.0846 26.6582 95.0739 27.0339 95.2886 27.2701L99.7013 32.0372L96.7273 41.6357L92.6045 35.9883C92.379 35.7628 92.0032 35.7628 91.7777 35.9883C91.5523 36.2137 91.5523 36.5895 91.7777 36.815L96.2979 43.01L96.2871 43.0637C96.416 43.214 96.5341 43.3643 96.6736 43.5146L96.7166 43.579L96.7488 43.6005C99.5832 46.843 103.663 49.3338 109.354 48.9581C116.794 48.4642 119.768 40.7124 120.895 33.2934C115.549 32.1016 108.151 31.7044 100.764 31.4789Z" fill="#F6FBFD"/>
<path fill-rule="evenodd" clip-rule="evenodd" d="M118.437 32.8208C119.296 32.9604 120.122 33.1214 120.906 33.2932C119.779 40.7122 116.805 48.464 109.364 48.9579C105.574 49.2048 102.493 48.1849 100.013 46.5099C102.02 47.3903 104.34 47.852 107.024 47.6695C114.196 47.1864 117.213 39.9821 118.437 32.8208Z" fill="#E1F5EC"/>
<path fill-rule="evenodd" clip-rule="evenodd" d="M126.263 99.6667C125.598 98.9689 124.492 98.9367 123.794 99.6023L117.889 105.228C117.191 105.894 117.159 107 117.824 107.698L133.586 124.254C134.252 124.951 135.357 124.984 136.055 124.318L141.96 118.692C142.658 118.026 142.69 116.92 142.025 116.223L126.263 99.6667Z" fill="#D2EFC7"/>
<path fill-rule="evenodd" clip-rule="evenodd" d="M134.209 108.009C133.865 107.644 133.296 107.633 132.931 107.977L129.882 110.887C129.517 111.23 129.506 111.799 129.85 112.164L138.256 120.99C138.6 121.355 139.169 121.365 139.534 121.022L142.583 118.112C142.948 117.769 142.959 117.2 142.616 116.835L134.209 108.009Z" fill="white"/>
<path fill-rule="evenodd" clip-rule="evenodd" d="M124.181 99.2268L119.038 104.123C119.038 104.123 118.555 103.618 118.104 103.135C117.889 102.91 117.771 102.598 117.771 102.276C117.782 101.954 117.911 101.653 118.147 101.439C119.092 100.537 120.605 99.098 121.561 98.1854C121.786 97.9706 122.098 97.8525 122.42 97.8525C122.742 97.8633 123.043 97.9921 123.257 98.2283C123.698 98.7329 124.181 99.2268 124.181 99.2268Z" fill="#6A4123"/>
<path fill-rule="evenodd" clip-rule="evenodd" d="M122.581 100.751L119.038 104.123C119.038 104.123 118.555 103.618 118.104 103.135C117.653 102.652 117.664 101.9 118.147 101.439C118.694 100.912 119.403 100.236 119.961 99.71C120.444 99.259 121.196 99.2698 121.658 99.7529C122.098 100.258 122.581 100.751 122.581 100.751Z" fill="#84522C"/>
<path fill-rule="evenodd" clip-rule="evenodd" d="M118.598 96.7144L116.794 98.4322L118.941 100.687L120.745 98.969L118.598 96.7144Z" fill="#6A4123"/>
<path fill-rule="evenodd" clip-rule="evenodd" d="M118.823 96.9506C118.823 96.9506 115.559 100.053 114.228 101.32C113.927 101.61 113.433 101.6 113.143 101.299C112.854 100.998 112.864 100.504 113.165 100.215C114.496 98.9476 117.76 95.8447 117.76 95.8447L118.823 96.9506Z" fill="#6A4123"/>
<path fill-rule="evenodd" clip-rule="evenodd" d="M115.806 98.776C116.096 99.0767 116.085 99.5705 115.785 99.8604C115.334 100.29 114.69 100.902 114.239 101.331C113.938 101.621 113.444 101.61 113.154 101.31C112.864 101.009 112.875 100.515 113.176 100.225C113.627 99.796 114.271 99.184 114.722 98.7546C115.033 98.4539 115.516 98.4647 115.806 98.776Z" fill="#84522C"/>
<path fill-rule="evenodd" clip-rule="evenodd" d="M111.705 103.994C110.964 104.735 110.964 105.927 111.705 106.667C112.446 107.408 113.637 107.408 114.378 106.667C115.119 105.927 115.119 104.735 114.378 103.994L113.036 102.652L111.705 103.994Z" fill="white"/>
<path fill-rule="evenodd" clip-rule="evenodd" d="M113.809 103.436L114.367 103.994C115.108 104.735 115.108 105.926 114.367 106.667C113.627 107.408 112.435 107.408 111.694 106.667C111.565 106.538 111.458 106.399 111.383 106.249C112.113 106.678 113.057 106.571 113.68 105.959C114.367 105.272 114.421 104.176 113.809 103.436Z" fill="#D2EFC7"/>
<path fill-rule="evenodd" clip-rule="evenodd" d="M142.089 110.081C142.777 105.916 140.79 101.76 137.118 99.6776C132.824 97.2404 127.412 94.1804 124.997 92.8062C124.191 92.3445 123.214 92.2693 122.334 92.5807C120.724 93.1605 118.05 94.1375 116.193 94.8032C115.72 94.975 115.355 95.3615 115.216 95.8446C115.076 96.3278 115.183 96.8539 115.495 97.2511C115.806 97.6484 116.3 97.8631 116.805 97.8201C118.587 97.6591 122.721 97.2941 122.721 97.2941L124.793 98.6469C124.793 98.6469 123.257 100.107 122.098 101.213C121.26 102.007 120.767 103.092 120.702 104.241C120.616 105.808 120.498 108.041 120.434 109.341C120.401 110.006 120.638 110.661 121.099 111.144C122.194 112.293 124.32 114.526 125.866 116.148C126.339 116.641 126.994 116.91 127.67 116.899C128.347 116.888 128.991 116.588 129.442 116.083C131.235 114.065 133.769 111.219 133.769 111.219L138.063 112.035L141.23 115.364C141.22 115.374 141.638 112.841 142.089 110.081Z" fill="#FA9E84"/>
</g>
<defs>
<clipPath id="clip0">
<rect width="194.366" height="150" fill="white" transform="translate(8)"/>
</clipPath>
</defs>
</svg>
