<?xml version="1.0" encoding="utf-8"?>
<!-- Generator: Adobe Illustrator 16.0.0, SVG Export Plug-In . SVG Version: 6.00 Build 0)  -->
<!DOCTYPE svg PUBLIC "-//W3C//DTD SVG 1.1//EN" "http://www.w3.org/Graphics/SVG/1.1/DTD/svg11.dtd">
<svg version="1.1" id="Layer_1" xmlns="http://www.w3.org/2000/svg" xmlns:xlink="http://www.w3.org/1999/xlink" x="0px" y="0px"
	 width="80px" height="80px" viewBox="0 0 80 80" enable-background="new 0 0 80 80" xml:space="preserve">
<g>
	<g>
		<g>
			<path fill="#FFFFFF" stroke="#FFFFFF" stroke-width="0.5" stroke-miterlimit="10" d="M67.913,18.392L52.148,2.628
				c-0.295-0.296-0.695-0.462-1.114-0.462H17.93c-3.477,0-6.305,2.828-6.305,6.306v63.056c0,3.478,2.828,6.306,6.306,6.306H62.07
				c3.477,0,6.305-2.828,6.305-6.306V19.506C68.375,19.087,68.209,18.687,67.913,18.392z M52.611,7.548L62.993,17.93h-7.229
				c-1.736,0-3.152-1.415-3.152-3.153V7.548L52.611,7.548z M65.223,71.526c0,1.736-1.414,3.152-3.152,3.152H17.931
				c-1.738,0-3.153-1.416-3.153-3.152V8.472c0-1.739,1.416-3.153,3.153-3.153h31.527v9.458c0,3.478,2.828,6.306,6.306,6.306h9.459
				V71.526z"/>
			<path fill="#FFFFFF" stroke="#FFFFFF" stroke-width="0.5" stroke-miterlimit="10" d="M52.021,46.649
				c-0.683-0.543-1.672-0.432-2.217,0.246l-4.647,5.808l-7.185-10.058c3.012-1.108,5.182-3.982,5.182-7.375
				c0-4.346-3.537-7.882-7.883-7.882h-6.305c-0.872,0-1.576,0.705-1.576,1.576v22.069c0,0.872,0.705,1.577,1.576,1.577
				c0.871,0,1.577-0.705,1.577-1.577v-7.882h3.918l8.65,12.111l-5.918,7.396c-0.543,0.68-0.433,1.672,0.247,2.217
				c0.291,0.232,0.638,0.344,0.983,0.344c0.463,0,0.92-0.201,1.233-0.591l5.359-6.7l4.737,6.631c0.308,0.433,0.791,0.66,1.284,0.66
				c0.314,0,0.637-0.095,0.914-0.294c0.708-0.504,0.873-1.489,0.365-2.198l-5.254-7.356l5.203-6.505
				C52.811,48.187,52.699,47.194,52.021,46.649z M30.542,39.999v-9.458h4.729c2.608,0,4.729,2.122,4.729,4.729
				s-2.121,4.729-4.729,4.729H30.542z"/>
		</g>
	</g>
</g>
</svg>
