<?xml version="1.0" encoding="utf-8"?>
<!-- Generator: Adobe Illustrator 24.0.0, SVG Export Plug-In . SVG Version: 6.00 Build 0)  -->
<svg version="1.1" id="Layer_1" xmlns="http://www.w3.org/2000/svg" xmlns:xlink="http://www.w3.org/1999/xlink" x="0px" y="0px"
	 viewBox="0 0 16 16" style="enable-background:new 0 0 16 16;" xml:space="preserve">
<style type="text/css">
	.st0{fill:#414146;}
	.st1{fill:#FFFFFF;stroke:#FFFFFF;stroke-width:0.5;}
</style>
<g transform="translate(4 1006)">
	<path class="st0" d="M-1-1006H9c1.7,0,3,1.3,3,3v10c0,1.7-1.3,3-3,3H-1c-1.7,0-3-1.3-3-3v-10C-4-1004.7-2.7-1006-1-1006z"/>
	<g>
		<path class="st1" d="M1.2-1002.5v3.4H3c0.2,0,1,0,1.3-0.1c0.7-0.2,1.2-0.8,1.2-1.6c0-1-0.8-1.7-1.9-1.7
			C3.6-1002.5,1.2-1002.5,1.2-1002.5z M0.2-995v-8.3h3.5c1.6,0,2.7,1,2.7,2.5c0,1.1-0.6,1.9-1.6,2.3s-1,0.1-1.1,0.1l4.9,5.9H7.5
			l-4.8-5.8l-1.6,0v3.3H0.2z"/>
		<path class="st1" d="M7.5-998L3-992.4h1.1l4.4-5.5H7.5z"/>
	</g>
</g>
</svg>
