<?xml version="1.0" encoding="utf-8"?>
<!-- Generator: Adobe Illustrator 16.0.0, SVG Export Plug-In . SVG Version: 6.00 Build 0)  -->
<!DOCTYPE svg PUBLIC "-//W3C//DTD SVG 1.1//EN" "http://www.w3.org/Graphics/SVG/1.1/DTD/svg11.dtd">
<svg version="1.1" id="Capa_1" xmlns="http://www.w3.org/2000/svg" xmlns:xlink="http://www.w3.org/1999/xlink" x="0px" y="0px"
	 width="50px" height="50px" viewBox="0 0 50 50" enable-background="new 0 0 50 50" xml:space="preserve">
<g>
	<g>
		<path fill="#FFFFFF" d="M46.676,25.647c-0.201-0.412-0.201-0.884,0-1.295l1.864-3.815c1.038-2.124,0.216-4.656-1.872-5.764
			l-3.752-1.99c-0.404-0.214-0.682-0.597-0.761-1.048l-0.733-4.182c-0.409-2.329-2.563-3.894-4.903-3.563l-4.204,0.595
			c-0.454,0.064-0.902-0.082-1.232-0.4L28.03,1.233c-1.699-1.644-4.361-1.644-6.061,0l-3.052,2.953
			c-0.33,0.318-0.778,0.464-1.232,0.4l-4.204-0.595C11.141,3.66,8.987,5.225,8.579,7.553l-0.733,4.183
			c-0.08,0.451-0.357,0.833-0.761,1.048l-3.751,1.99c-2.088,1.108-2.911,3.64-1.873,5.764l1.865,3.815
			c0.201,0.412,0.201,0.884,0,1.296L1.46,29.463c-1.038,2.124-0.216,4.656,1.873,5.764l3.751,1.99
			c0.404,0.215,0.682,0.597,0.761,1.048l0.733,4.183c0.372,2.119,2.189,3.606,4.279,3.605c0.206,0,0.415-0.014,0.625-0.043
			l4.204-0.596c0.454-0.064,0.903,0.082,1.232,0.4l3.052,2.953C22.819,49.59,23.91,50,25,50c1.09,0,2.181-0.411,3.03-1.232
			l3.052-2.953c0.33-0.318,0.778-0.463,1.232-0.4l4.204,0.596c2.341,0.33,4.494-1.234,4.903-3.563l0.733-4.183
			c0.079-0.451,0.356-0.833,0.761-1.048l3.752-1.99c2.088-1.107,2.91-3.641,1.872-5.764L46.676,25.647z M45.315,32.68l-3.751,1.99
			c-1.195,0.634-2.016,1.763-2.25,3.096l-0.733,4.184c-0.138,0.787-0.866,1.316-1.659,1.205l-4.204-0.596
			c-1.341-0.189-2.667,0.242-3.641,1.184l-3.052,2.952c-0.575,0.556-1.476,0.556-2.051,0l-3.052-2.952
			c-0.822-0.796-1.897-1.227-3.02-1.227c-0.206,0-0.413,0.014-0.621,0.043l-4.205,0.596c-0.792,0.111-1.521-0.418-1.659-1.206
			l-0.733-4.183c-0.234-1.333-1.054-2.462-2.25-3.097l-3.751-1.99c-0.707-0.374-0.985-1.231-0.633-1.95l1.865-3.814
			c0.594-1.217,0.594-2.612,0-3.828l-1.865-3.815c-0.352-0.719-0.073-1.575,0.633-1.95l3.751-1.99
			c1.196-0.634,2.016-1.763,2.25-3.097l0.734-4.183c0.138-0.788,0.866-1.317,1.659-1.205l4.205,0.595
			c1.34,0.19,2.667-0.242,3.641-1.183l3.052-2.952c0.575-0.556,1.476-0.556,2.051,0l3.052,2.952c0.974,0.941,2.3,1.373,3.641,1.183
			l4.204-0.595c0.792-0.112,1.521,0.417,1.659,1.205l0.733,4.183c0.234,1.333,1.055,2.462,2.25,3.097l3.751,1.99
			c0.706,0.375,0.985,1.231,0.634,1.95l-1.865,3.815c-0.594,1.216-0.594,2.611,0,3.828l1.865,3.814
			C46.301,31.447,46.022,32.305,45.315,32.68z"/>
	</g>
</g>
<g>
	<g>
		<path fill="#FFFFFF" d="M35.535,14.464c-0.563-0.563-1.476-0.563-2.039,0L14.464,33.496c-0.563,0.563-0.563,1.477,0,2.039
			c0.282,0.282,0.65,0.423,1.02,0.423s0.738-0.141,1.02-0.423l19.032-19.032C36.099,15.94,36.099,15.027,35.535,14.464z"/>
	</g>
</g>
<g>
	<g>
		<path fill="#FFFFFF" d="M19.232,12.023c-2.915,0-5.287,2.372-5.287,5.287c0,2.915,2.372,5.287,5.287,5.287
			s5.287-2.372,5.287-5.287C24.52,14.395,22.147,12.023,19.232,12.023z M19.232,19.713c-1.325,0-2.403-1.078-2.403-2.403
			s1.078-2.403,2.403-2.403s2.403,1.078,2.403,2.403S20.558,19.713,19.232,19.713z"/>
	</g>
</g>
<g>
	<g>
		<path fill="#FFFFFF" d="M30.768,27.403c-2.916,0-5.287,2.372-5.287,5.286c0,2.916,2.371,5.287,5.287,5.287
			c2.915,0,5.287-2.371,5.287-5.287C36.055,29.775,33.683,27.403,30.768,27.403z M30.768,35.094c-1.325,0-2.403-1.078-2.403-2.404
			c0-1.324,1.078-2.402,2.403-2.402s2.402,1.078,2.402,2.402C33.17,34.016,32.093,35.094,30.768,35.094z"/>
	</g>
</g>
</svg>
