<?xml version="1.0" encoding="utf-8"?>
<!-- Generator: Adobe Illustrator 24.0.0, SVG Export Plug-In . SVG Version: 6.00 Build 0)  -->
<svg version="1.1" id="_x33_0" xmlns="http://www.w3.org/2000/svg" xmlns:xlink="http://www.w3.org/1999/xlink" x="0px" y="0px"
	 viewBox="0 0 512 512" style="enable-background:new 0 0 512 512;" xml:space="preserve">
<style type="text/css">
	.st0{fill:#E6E9ED;}
	.st1{fill:#FF826E;}
	.st2{fill:#599072;}
	.st3{fill:#CCD1D9;}
	.st4{fill:#82CEA1;}
	.st5{fill:#494949;}
</style>
<g>
	<g>
		<path class="st0" d="M160,224c0-5.7,5.9-11,16.3-15.7L219,251C183.5,245.3,160,235.4,160,224z"/>
	</g>
	<g>
		<path class="st0" d="M440,224C440,224,440,224,440,224c-1.6,2-28,32-152,32c-0.4,0-0.8,0-1.2,0c-0.7-1.4-1.6-2.8-2.8-4l-36-36
			l-20.2-20.2c17.9-2.4,38.5-3.8,60.2-3.8C408,192,440,224,440,224z"/>
	</g>
	<g>
		<path class="st1" d="M117.2,51.8L144,112l-32,32l-60.2-26.8c-7.8-3.4-14.9-8.3-20.9-14.3C21.4,93.4,16,80.4,16,66.9
			c0-14.1,5.7-26.7,14.9-36c9.3-9.2,21.9-14.9,36-14.9c13.5,0,26.5,5.4,36,14.9C108.9,36.9,113.8,44,117.2,51.8z"/>
	</g>
	<g>
		<path class="st2" d="M227.8,195.8L248,216l36,36c1.2,1.2,2.1,2.6,2.8,4c-25-0.1-48.2-1.9-67.8-5l-42.6-42.6L112,144l32-32l32,32
			l24,24l24,24L227.8,195.8z"/>
	</g>
	<g>
		<path class="st3" d="M219,251c19.6,3.1,42.9,5,67.8,5h1.2c124,0,150.4-30,151.9-31.9c-7.8,10.4-13.7,21.8-17.8,34
			c-4.1,12.2-6.2,25-6.2,37.9v8v32v32v32v64c0,17.7-57.3,32-128,32s-128-14.3-128-32V224C160,235.4,183.5,245.3,219,251L219,251z"/>
	</g>
	<g>
		<path class="st2" d="M336,416c0,26.5-21.5,48-48,48s-48-21.5-48-48c0-32,48-96,48-96S336,384,336,416z"/>
	</g>
	<g>
		<path class="st4" d="M496,40v112c0,4.4-3.6,8-8,8h-96v20.7c0,6.2-5,11.3-11.3,11.3c-3,0-5.9-1.2-8-3.3L344,160h-64
			c-4.4,0-8-3.6-8-8V40c0-4.4,3.6-8,8-8h208C492.4,32,496,35.6,496,40z"/>
	</g>
	<g>
		<path class="st5" d="M85.9,47.9c-9-9-24.1-10.3-34.6-2.9l9.3,13c4.2-3,10.3-2.5,14,1.2c2.5,2.5,4.6,5.5,6,8.8l3.2,7.3l14.6-6.5
			l-3.2-7.3C93,56.4,89.9,51.8,85.9,47.9z"/>
		<path class="st5" d="M288,306.7l-6.4,8.5C276.5,322,232,382.3,232,416c0,30.9,25.1,56,56,56s56-25.1,56-56
			c0-33.7-44.5-94-49.6-100.8L288,306.7z M288,456c-22.1,0-40-17.9-40-40c0-20.7,24.9-60.7,40-82.3c15.1,21.7,40,61.6,40,82.3
			C328,438.1,310.1,456,288,456z"/>
		<path class="st5" d="M296,416c0,4.4-3.6,8-8,8v16c13.2,0,24-10.8,24-24c0-9.7-8.8-29.6-17-44l-13.9,7.9
			C291.5,398.3,296,412.7,296,416L296,416z"/>
		<path class="st5" d="M488,24H280c-8.8,0-16,7.2-16,16v112c0,8.8,7.2,16,16,16h60.7l20.8,20.8c-20-2.9-44.2-4.8-73.5-4.8
			c-19.9,0-39.6,1.2-57.3,3.4l-80-80l-26.2-58.9c-3.9-8.7-9.2-16.5-16-23.2C97.4,14.1,82.6,8,66.9,8C34.4,8,8,34.4,8,66.9
			c0,15.7,6.1,30.5,17.3,41.7c6.7,6.7,14.6,12.1,23.2,16l58.9,26.2l55.8,55.8c-7.4,5.1-11.2,11-11.2,17.5v240c0,31.6,89,40,136,40
			s136-8.4,136-40V296c0-24.1,8-47.9,22.4-67.2l4.2-5.6l-4.9-4.9c-0.9-0.9-14.1-13.5-52.2-23.2c4-3.5,6.6-8.7,6.6-14.4V168h88
			c8.8,0,16-7.2,16-16V40C504,31.2,496.8,24,488,24L488,24z M288,200c83.7,0,123.3,15.9,138.5,24.4c-13.8,8.3-50.3,23.2-135.5,23.5
			c-0.4-0.6-0.9-1.1-1.4-1.6l-44.4-44.4C258.9,200.7,273.4,200,288,200L288,200z M164.7,144l-10.3,10.3l11.3,11.3l10.3-10.3
			l12.7,12.7l-10.3,10.3l11.3,11.3l10.3-10.3l12.7,12.7l-10.3,10.3l11.3,11.3l10.3-10.3l12.7,12.7l-10.3,10.3l11.3,11.3l10.3-10.3
			l20.3,20.3c-17.4-0.7-32.6-2.2-45.6-4.2L123.3,144l20.7-20.7L164.7,144z M36.6,97.3C28.5,89.2,24,78.4,24,66.9
			C24,43.2,43.2,24,66.9,24c11.5,0,22.2,4.5,30.3,12.6c5.3,5.3,9.6,11.5,12.7,18.4l24.6,55.2l-24.2,24.2L55,109.9
			C48.1,106.8,41.9,102.6,36.6,97.3z M174.8,218.1l19.2,19.2c-17.1-4.8-26-10.1-26-13.3C168,223.5,169.4,221.2,174.8,218.1
			L174.8,218.1z M408,296h-48v16h48v16h-32v16h32v16h-48v16h48v16h-32v16h32v56c0,7-42,24-120,24s-120-17-120-24V244.3
			c27.8,15.1,85.3,19.7,120,19.7c67.9,0,107.5-8.8,130.2-17.7C411.6,262,408,278.9,408,296z M384,152v28.7c0,2.7-3.7,4.2-5.7,2.3
			l-31-31H280V40h208l0,112H384z"/>
		<path class="st5" d="M296,56h80v16h-80V56z"/>
		<path class="st5" d="M392,56h80v16h-80V56z"/>
		<path class="st5" d="M296,88h176v16H296V88z"/>
		<path class="st5" d="M296,120h112v16H296V120z"/>
		<path class="st5" d="M424,120h16v16h-16V120z"/>
		<path class="st5" d="M456,120h16v16h-16V120z"/>
	</g>
</g>
</svg>
