<?xml version="1.0" encoding="utf-8"?>
<!-- Generator: Adobe Illustrator 24.0.0, SVG Export Plug-In . SVG Version: 6.00 Build 0)  -->
<svg version="1.1" id="Layer_1" xmlns="http://www.w3.org/2000/svg" xmlns:xlink="http://www.w3.org/1999/xlink" x="0px" y="0px"
	 viewBox="0 0 48 48" style="enable-background:new 0 0 48 48;" xml:space="preserve">
<style type="text/css">
	.st0{fill:#2F80ED;}
</style>
<path d="M34.3,26c-5.8,0-10.5,4.7-10.5,10.5S28.5,47,34.3,47s10.5-4.7,10.5-10.5S40.1,26,34.3,26z M40.1,33.7l-7.3,6.7
	c-0.1,0.1-0.3,0.2-0.5,0.2s-0.4-0.1-0.5-0.2L28,36.2c-0.3-0.3-0.2-0.7,0-1c0.3-0.3,0.7-0.2,1,0l3.4,3.7l6.8-6.2c0.3-0.3,0.7-0.2,1,0
	C40.4,33,40.4,33.5,40.1,33.7z"/>
<path class="st0" d="M20.1,33.7h-9.8c-0.5,0-0.9-0.4-0.9-0.9s0.4-0.9,0.9-0.9h10.4c0.6-1.5,1.3-2.7,2.3-3.9H10.3
	c-0.5,0-0.9-0.4-0.9-0.9s0.4-0.9,0.9-0.9h14.4c2.7-2.4,6.3-3.9,10.2-3.9c0.4,0,0.7,0,1.1,0.1v-9.3h-6.8c-2.6,0-4.7-2.1-4.7-4.7V1
	H7.2c-2.2,0-4,1.8-4,4.1v34.4c0,2.2,1.8,4,4,4h13.6c-0.8-1.8-1.2-3.8-1.2-5.9C19.6,36.2,19.8,34.9,20.1,33.7z M10.3,20.5h11.4
	c0.5,0,0.9,0.4,0.9,0.9s-0.4,0.9-0.9,0.9H10.3c-0.5,0-0.9-0.4-0.9-0.9C9.4,20.9,9.8,20.5,10.3,20.5z"/>
<path d="M29.2,11.3h5.5l-8.4-8.9v5.9C26.3,9.9,27.6,11.3,29.2,11.3z"/>
</svg>
