<?xml version="1.0" encoding="utf-8"?>
<!-- Generator: Adobe Illustrator 24.0.0, SVG Export Plug-In . SVG Version: 6.00 Build 0)  -->
<svg version="1.1" id="Capa_1" xmlns="http://www.w3.org/2000/svg" xmlns:xlink="http://www.w3.org/1999/xlink" x="0px" y="0px"
	 viewBox="0 0 19 19" style="enable-background:new 0 0 19 19;" xml:space="preserve">
<style type="text/css">
	.st0{fill:#FFFFFF;}
</style>
<g>
	<g>
		<path class="st0" d="M8.5,16.9C3.8,16.9,0,13.1,0,8.5S3.8,0,8.5,0s8.5,3.8,8.5,8.5S13.1,16.9,8.5,16.9z M8.5,2C4.9,2,2,4.9,2,8.5
			c0,3.6,2.9,6.5,6.5,6.5c3.6,0,6.5-2.9,6.5-6.5C14.9,4.9,12,2,8.5,2z"/>
	</g>
	<g>
		<path class="st0" d="M18,19c-0.3,0-0.5-0.1-0.7-0.3l-4.2-4.2c-0.4-0.4-0.4-1,0-1.4s1-0.4,1.4,0l4.2,4.2c0.4,0.4,0.4,1,0,1.4
			C18.5,18.9,18.3,19,18,19z"/>
	</g>
</g>
</svg>
