<?xml version="1.0" encoding="utf-8"?>
<!-- Generator: Adobe Illustrator 16.0.0, SVG Export Plug-In . SVG Version: 6.00 Build 0)  -->
<!DOCTYPE svg PUBLIC "-//W3C//DTD SVG 1.1//EN" "http://www.w3.org/Graphics/SVG/1.1/DTD/svg11.dtd">
<svg version="1.1" id="Layer_1" xmlns="http://www.w3.org/2000/svg" xmlns:xlink="http://www.w3.org/1999/xlink" x="0px" y="0px"
	 width="180.001px" height="175.18px" viewBox="166 168.41 180.001 175.18" enable-background="new 166 168.41 180.001 175.18"
	 xml:space="preserve">
<g>
	<path fill="#FFFFFF" d="M235.488,301.425c-10.247,0-18.583,8.336-18.583,18.583c0,10.245,8.336,18.582,18.583,18.582
		s18.583-8.337,18.583-18.582c0-4.965-1.932-9.632-5.442-13.142C245.119,303.358,240.452,301.425,235.488,301.425z M241.724,326.242
		c-1.666,1.665-3.88,2.582-6.235,2.582c-4.862,0-8.818-3.956-8.818-8.816c0-4.863,3.956-8.819,8.818-8.819s8.818,3.956,8.818,8.819
		C244.306,322.362,243.39,324.576,241.724,326.242z"/>
	<path fill="#FFFFFF" d="M299.836,301.425c-10.247,0-18.584,8.336-18.584,18.583c0,10.245,8.337,18.582,18.584,18.582
		c10.246,0,18.583-8.337,18.583-18.582C318.419,309.761,310.082,301.425,299.836,301.425z M299.836,328.824
		c-4.862,0-8.818-3.956-8.818-8.816c0-4.863,3.956-8.819,8.818-8.819s8.819,3.956,8.819,8.819
		C308.655,324.868,304.698,328.824,299.836,328.824z"/>
	<path fill="#FFFFFF" d="M340.281,199.952c-0.977-1.068-2.308-1.734-3.831-1.881l-126.726-1.751l-3.313-10.123
		c-2.608-7.563-9.737-12.702-17.747-12.787h-13.114c-2.692,0-4.882,2.19-4.882,4.882c0,2.692,2.19,4.883,4.882,4.883h13.093
		c3.832,0.084,7.249,2.575,8.497,6.188l24.74,74.61l-1.824,4.198c-2.29,5.901-1.597,12.595,1.854,17.907
		c3.429,5.235,9.208,8.472,15.489,8.657h76.137c2.691,0,4.882-2.19,4.882-4.881c0-2.693-2.19-4.883-4.882-4.883h-76.113
		c-3.039-0.076-5.814-1.661-7.423-4.24c-1.609-2.579-1.934-5.696-0.916-8.491l1.338-3.011l81.85-8.555
		c9.435-1.04,17.242-7.944,19.429-17.178l9.381-39.285C341.601,202.764,341.304,201.146,340.281,199.952z M330.316,207.818
		l-8.135,33.483c-1.186,5.322-5.635,9.188-11.094,9.621l-80.646,8.335l-17.533-53.162L330.316,207.818z"/>
</g>
</svg>
