<?xml version="1.0" encoding="utf-8"?>
<!-- Generator: Adobe Illustrator 16.0.0, SVG Export Plug-In . SVG Version: 6.00 Build 0)  -->
<!DOCTYPE svg PUBLIC "-//W3C//DTD SVG 1.1//EN" "http://www.w3.org/Graphics/SVG/1.1/DTD/svg11.dtd">
<svg version="1.1" id="Capa_1" xmlns="http://www.w3.org/2000/svg" xmlns:xlink="http://www.w3.org/1999/xlink" x="0px" y="0px"
	 width="50px" height="50px" viewBox="0 0 50 50" enable-background="new 0 0 50 50" xml:space="preserve">
<g>
	<g>
		<g>
			<path fill="#343B4E" d="M39.844,40.771c-0.512,0-0.928,0.416-0.928,0.928s0.416,0.928,0.928,0.928s0.928-0.416,0.928-0.928
				S40.355,40.771,39.844,40.771z"/>
		</g>
	</g>
	<g>
		<g>
			<path fill="#343B4E" d="M42.627,5.65V4.033c0-1.535-1.249-2.783-2.783-2.783H10.156c-1.535,0-2.783,1.249-2.783,2.783V5.65
				C1.322,16.826,1.25,16.494,1.25,17.021c0,0,0,0,0,0.001v1.855c0,1.608,0.93,3.104,2.412,3.954v24.991
				c0,0.512,0.416,0.928,0.928,0.928h40.82c0.512,0,0.928-0.416,0.928-0.928V22.831c1.469-0.85,2.412-2.363,2.412-3.954v-1.855
				c0,0,0,0,0-0.001C48.75,16.489,48.619,16.717,42.627,5.65z M46.254,16.094h-5.74L37.42,6.816h3.73L46.254,16.094z M33.35,17.949
				h5.566v0.928c0,1.535-1.249,2.783-2.783,2.783c-1.533,0-2.783-1.249-2.783-2.783V17.949z M33.208,16.094l-1.547-9.277h3.803
				l3.093,9.277H33.208z M9.229,4.033c0-0.512,0.416-0.928,0.928-0.928h29.688c0.512,0,0.928,0.416,0.928,0.928v0.928
				c-0.883,0-30.653,0-31.543,0L9.229,4.033L9.229,4.033z M31.494,17.949v0.928c0,1.535-1.249,2.783-2.783,2.783
				s-2.783-1.249-2.783-2.783v-0.928H31.494z M25.928,16.094V6.816h3.854l1.547,9.277L25.928,16.094L25.928,16.094z M18.673,16.094
				l1.546-9.277h3.853v9.277H18.673z M24.072,17.949v0.928c0,1.535-1.249,2.783-2.783,2.783s-2.783-1.249-2.783-2.783v-0.928H24.072
				z M11.443,16.094l3.092-9.277h3.803l-1.546,9.277H11.443z M16.65,17.949v0.928c0,1.535-1.249,2.783-2.783,2.783
				c-1.534,0-2.783-1.249-2.783-2.783v-0.928H16.65z M8.849,6.816h3.731l-3.093,9.277h-5.74L8.849,6.816z M3.105,18.877v-0.928
				h6.123v0.928c0,1.457-1.459,2.783-3.062,2.783c-0.404,0-0.822-0.087-1.212-0.254C3.849,20.936,3.105,19.919,3.105,18.877z
				 M20.361,46.895h-9.277v-7.979h9.277V46.895z M20.361,37.061h-9.277v-7.979h9.277V37.061z M44.482,46.895H22.217v-18.74
				c0-0.512-0.416-0.928-0.928-0.928H10.156c-0.512,0-0.928,0.416-0.928,0.928v18.74h-3.71V23.47
				c0.215,0.029,0.432,0.045,0.649,0.045c1.221,0,2.455-0.484,3.386-1.327c0.206-0.186,0.391-0.386,0.558-0.595
				c0.843,1.163,2.212,1.922,3.756,1.922c1.516,0,2.864-0.731,3.711-1.859c0.847,1.128,2.195,1.859,3.711,1.859
				s2.864-0.731,3.711-1.859c0.848,1.128,2.193,1.859,3.711,1.859s2.864-0.731,3.711-1.859c0.848,1.128,2.194,1.859,3.711,1.859
				c1.543,0,2.913-0.759,3.758-1.922c0.166,0.209,0.352,0.409,0.558,0.595c0.931,0.843,2.165,1.327,3.386,1.327
				c0.218,0,0.434-0.016,0.648-0.045V46.895L44.482,46.895z M46.895,18.877c0,1.072-0.771,2.1-1.918,2.558
				c-0.375,0.15-0.76,0.225-1.144,0.225c-1.603,0-3.062-1.327-3.062-2.783v-0.928h6.123V18.877L46.895,18.877z"/>
		</g>
	</g>
	<g>
		<g>
			<path fill="#343B4E" d="M41.699,37.061h-0.928v-8.906c0-0.512-0.416-0.928-0.929-0.928H28.711c-0.512,0-0.928,0.416-0.928,0.928
				v8.906h-0.928c-0.513,0-0.929,0.416-0.929,0.929c0,0.512,0.416,0.928,0.929,0.928h14.844c0.512,0,0.928-0.416,0.928-0.928
				C42.627,37.477,42.211,37.061,41.699,37.061z M38.916,37.061h-9.277v-7.979h9.277V37.061z"/>
		</g>
	</g>
	<g>
		<g>
			<path fill="#343B4E" d="M36.133,40.771h-7.422c-0.512,0-0.928,0.416-0.928,0.928s0.416,0.928,0.928,0.928h7.422
				c0.512,0,0.928-0.416,0.928-0.928S36.645,40.771,36.133,40.771z"/>
		</g>
	</g>
</g>
</svg>
