<svg width="211" height="150" viewBox="0 0 211 150" fill="none" xmlns="http://www.w3.org/2000/svg">
<g clip-path="url(#clip0)">
<path d="M74.2146 0H62.9783V120.72H74.2146V0Z" fill="#263238"/>
<path d="M147.522 0H136.285V120.72H147.522V0Z" fill="#455A64"/>
<path d="M136.324 11.8511H67.5891V15.9177H136.324V11.8511Z" fill="#37474F"/>
<path d="M136.324 38.0322H67.5891V42.0988H136.324V38.0322Z" fill="#37474F"/>
<path d="M136.324 64.2524H67.5891V68.3191H136.324V64.2524Z" fill="#37474F"/>
<path d="M136.324 90.4727H67.5891V94.5393H136.324V90.4727Z" fill="#37474F"/>
<path d="M136.324 116.692H67.5891V120.759H136.324V116.692Z" fill="#37474F"/>
<path d="M186.074 143.571C185.958 142.641 175.496 120.139 174.566 119.52C174.218 119.287 170.847 120.604 166.817 122.347C166.778 122.347 166.74 122.386 166.701 122.386C165.887 122.734 150.544 126.84 150.544 126.84L157.324 141.596L173.288 136.987L173.52 136.871C173.52 136.871 181.386 143.726 182.509 144.268C183.594 144.849 186.19 144.5 186.074 143.571Z" fill="black"/>
<path d="M163.756 123.277L170.731 137.762L173.249 137.026L173.482 136.91C173.482 136.91 181.347 143.765 182.471 144.307C183.555 144.849 186.151 144.501 186.074 143.61C185.958 142.68 175.496 120.14 174.566 119.559C174.218 119.326 170.847 120.643 166.817 122.386C166.779 122.386 166.74 122.425 166.701 122.425C166.469 122.502 165.345 122.812 163.756 123.277Z" fill="black"/>
<path d="M186.151 143.687C186.035 142.758 175.574 119.985 174.605 119.365C174.257 119.133 170.847 120.449 166.779 122.192L173.482 136.91C173.482 136.91 181.386 143.842 182.509 144.423C183.672 144.965 186.268 144.617 186.151 143.687Z" fill="black"/>
<path d="M185.105 143.803C183.246 140.008 176.155 124.593 174.605 120.72C174.605 120.682 174.605 120.682 174.644 120.72C176.543 124.439 183.555 139.892 185.183 143.765C185.222 143.842 185.144 143.881 185.105 143.803Z" fill="black"/>
<path d="M181.037 143.3C180.572 142.409 180.611 141.325 180.921 140.589C181.231 139.892 181.773 139.117 182.587 138.807C182.626 138.807 182.626 138.846 182.626 138.846C181.231 139.737 180.533 141.712 181.114 143.3C181.114 143.339 181.076 143.339 181.037 143.3Z" fill="black"/>
<path d="M174.566 138.226C173.83 136.716 173.559 134.702 174.373 133.153C174.411 133.075 174.489 133.153 174.489 133.192C174.411 134.896 174.489 136.445 174.76 138.149C174.799 138.265 174.605 138.343 174.566 138.226Z" fill="black"/>
<path d="M175.574 139.195C174.838 137.684 174.566 135.67 175.38 134.121C175.419 134.044 175.496 134.121 175.496 134.16C175.419 135.864 175.496 137.413 175.767 139.117C175.806 139.233 175.612 139.311 175.574 139.195Z" fill="black"/>
<path d="M176.581 140.163C175.845 138.652 175.574 136.638 176.388 135.089C176.426 135.012 176.504 135.089 176.504 135.128C176.426 136.832 176.504 138.381 176.775 140.085C176.814 140.202 176.62 140.279 176.581 140.163Z" fill="black"/>
<path d="M177.589 141.131C176.852 139.621 176.581 137.607 177.395 136.058C177.434 135.98 177.511 136.058 177.511 136.096C177.434 137.8 177.511 139.35 177.782 141.054C177.782 141.17 177.627 141.247 177.589 141.131Z" fill="black"/>
<path d="M171.428 123.354C170.653 121.65 173.327 120.411 174.101 122.153C174.876 123.858 172.203 125.097 171.428 123.354Z" fill="black"/>
<path d="M173.443 140.589C174.14 139.272 174.218 137.723 174.489 136.29C174.528 136.135 174.373 136.057 174.256 136.057C174.256 136.019 174.218 136.019 174.179 136.019C172.9 136.716 171.622 137.955 170.924 139.194C170.459 139.969 170.304 141.247 171.312 141.712C172.203 142.215 173.017 141.363 173.443 140.589ZM172.203 141.247C170.459 141.867 171.041 139.775 171.428 139.194C171.661 138.846 171.932 138.497 172.203 138.149C172.784 137.452 173.443 136.871 174.063 136.251C173.908 136.948 173.792 137.645 173.637 138.342C173.482 139.194 173.172 140.899 172.203 141.247Z" fill="black"/>
<path d="M170.692 131.061C169.762 131.642 170.072 132.882 170.576 133.617C171.428 134.818 172.823 135.902 174.14 136.445C174.179 136.445 174.179 136.445 174.218 136.406C174.334 136.406 174.489 136.29 174.45 136.174C174.063 134.779 173.792 133.23 172.978 131.991C172.474 131.255 171.583 130.48 170.692 131.061ZM173.404 134.16C173.598 134.857 173.792 135.554 174.024 136.212C173.327 135.67 172.59 135.128 171.97 134.508C171.661 134.198 171.351 133.889 171.079 133.579C170.653 133.037 169.878 131.023 171.661 131.449C172.668 131.681 173.133 133.346 173.404 134.16Z" fill="black"/>
<path d="M130.396 78.7764C130.396 78.7764 130.667 87.6067 131.985 91.9445C131.985 91.9445 133.418 92.7191 133.845 92.9902C133.845 92.9902 122.88 119.288 123.499 129.396C123.693 132.727 127.452 138.149 131.249 140.511C137.952 144.694 170.731 141.015 170.731 141.015L165.965 121.34C165.965 121.34 145.236 122.502 144.732 121.379C144.073 119.946 148.181 108.908 151.474 99.9228C151.823 99.032 155.116 95.6625 154.729 89.6207C154.341 83.7338 151.861 78.8151 151.861 78.8151H130.396V78.7764Z" fill="black"/>
<path d="M162.207 123.509C157.673 123.432 153.992 123.819 149.498 123.819C148.374 123.819 147.212 123.819 146.088 123.819C145.507 123.819 144.965 123.819 144.384 123.819C143.996 123.819 143.609 123.819 143.221 123.703C142.872 123.625 142.524 123.47 142.33 123.16C142.02 122.696 142.175 122.153 142.291 121.65C142.524 120.604 142.756 119.52 143.066 118.474C144.19 114.214 145.701 110.031 147.096 105.848C147.832 103.679 148.529 101.549 149.265 99.3804C149.459 98.8382 149.614 98.3347 149.847 97.8312C150.04 97.3665 150.312 96.9017 150.544 96.4757C151.048 95.6237 151.474 94.7716 151.784 93.8034C153.024 89.7755 151.823 85.6314 150.389 81.8359C150.195 81.3324 150.002 80.8289 149.808 80.3254C149.808 80.2867 149.73 80.2867 149.769 80.3254C151.087 84.3146 152.636 88.4974 151.745 92.7577C151.551 93.7646 151.203 94.7329 150.699 95.6237C150.467 96.0884 150.157 96.5144 149.924 96.9792C149.692 97.4439 149.459 97.9474 149.304 98.4509C148.529 100.581 147.871 102.711 147.134 104.88C145.701 109.14 144.19 113.362 143.027 117.7C142.717 118.784 142.446 119.868 142.214 120.953C142.02 121.766 141.633 122.851 142.33 123.509C142.834 124.012 143.647 124.051 144.306 124.051C145.43 124.051 146.553 124.051 147.677 124.051C152.249 124.051 161.742 123.664 162.284 123.625C162.323 123.664 162.323 123.509 162.207 123.509Z" fill="black"/>
<path d="M167.282 140.085C166.856 137.8 166.43 135.476 165.887 133.191C165.384 130.906 164.841 128.621 164.221 126.336C164.066 125.678 163.873 125.058 163.718 124.4C163.64 124.09 163.563 123.78 163.446 123.47C163.369 123.16 163.291 122.85 163.175 122.541C163.175 122.502 163.136 122.541 163.136 122.541C163.175 123.122 163.33 123.741 163.446 124.322C163.563 124.864 163.679 125.445 163.795 125.988C164.028 127.111 164.26 128.273 164.531 129.396C165.035 131.681 165.616 133.927 166.197 136.212C166.546 137.49 166.856 138.768 167.205 140.046C167.166 140.201 167.282 140.163 167.282 140.085Z" fill="black"/>
<path d="M127.297 110.961L150.544 102.556C150.854 101.665 151.203 100.775 151.513 99.9226C151.861 99.0318 155.155 95.6623 154.767 89.6205C154.38 83.7336 151.9 78.8149 151.9 78.8149H130.358C130.358 78.8149 130.629 87.6453 131.946 91.983C131.946 91.983 133.38 92.7576 133.806 93.0287C133.883 92.99 130.241 101.665 127.297 110.961Z" fill="black"/>
<path d="M91.9216 144.656C92.8127 144.927 117.649 144.113 118.579 143.455C118.927 143.223 119.044 139.582 119.005 135.206C119.005 135.167 119.005 135.128 119.005 135.051C119.005 134.16 116.951 119.017 116.951 119.017L99.5545 119.559L102.964 135.438V135.709C102.964 135.709 93.5876 140.279 92.6577 141.092C91.7278 141.867 91.0304 144.385 91.9216 144.656Z" fill="#FA9E84"/>
<path d="M91.9216 144.655C92.8127 144.927 117.649 144.113 118.579 143.455C118.927 143.222 119.044 139.582 119.005 135.205V135.05C119.005 134.818 118.85 133.501 118.617 131.72L102.305 132.339L102.964 135.399V135.67C102.964 135.67 93.5876 140.24 92.6577 141.054C91.7278 141.867 91.0304 144.384 91.9216 144.655Z" fill="#EBEBEB"/>
<path d="M91.7279 144.734C92.619 145.005 117.688 144.153 118.656 143.533C119.005 143.301 119.121 139.621 119.082 135.206L102.925 135.71C102.925 135.71 93.4714 140.318 92.5028 141.132C91.5341 141.945 90.8367 144.501 91.7279 144.734Z" fill="#FFC727"/>
<path d="M92.0764 143.726C96.261 143.493 113.232 142.913 117.416 142.99C117.455 142.99 117.455 143.029 117.416 143.029C113.27 143.377 96.2997 143.803 92.0764 143.803C91.9602 143.803 91.9602 143.726 92.0764 143.726Z" fill="#263238"/>
<path d="M94.0525 140.163C95.0599 140.085 96.0285 140.511 96.6097 141.092C97.1522 141.635 97.6171 142.448 97.6171 143.3C97.6171 143.339 97.5784 143.339 97.5784 143.3C97.2684 141.673 95.7573 140.279 94.0525 140.202C94.0525 140.24 94.0525 140.163 94.0525 140.163Z" fill="#263238"/>
<path d="M101.298 136.174C102.964 136.096 104.94 136.638 106.025 137.955C106.064 137.994 105.986 138.071 105.947 138.033C104.398 137.297 102.925 136.755 101.259 136.367C101.143 136.367 101.143 136.174 101.298 136.174Z" fill="#263238"/>
<path d="M99.9807 136.716C101.647 136.638 103.623 137.18 104.708 138.497C104.746 138.536 104.669 138.614 104.63 138.575C103.08 137.839 101.608 137.297 99.9419 136.909C99.8645 136.909 99.8645 136.754 99.9807 136.716Z" fill="#263238"/>
<path d="M98.7019 137.297C100.368 137.219 102.344 137.762 103.429 139.078C103.468 139.117 103.39 139.195 103.351 139.156C101.802 138.42 100.329 137.878 98.6631 137.49C98.5856 137.452 98.5856 137.297 98.7019 137.297Z" fill="#263238"/>
<path d="M97.4233 137.839C99.0894 137.762 101.065 138.304 102.15 139.621C102.189 139.66 102.112 139.737 102.073 139.698C100.523 138.962 99.0506 138.42 97.3846 138.033C97.3071 138.033 97.3071 137.839 97.4233 137.839Z" fill="#263238"/>
<path d="M116.215 139.04C118.114 139.001 118.191 141.906 116.293 141.983C114.394 142.022 114.317 139.079 116.215 139.04Z" fill="#263238"/>
<path d="M99.5157 134.199C100.446 135.322 101.879 136.019 103.08 136.832C103.197 136.91 103.352 136.794 103.39 136.677C103.429 136.677 103.429 136.677 103.429 136.639C103.274 135.206 102.654 133.54 101.763 132.378C101.221 131.681 100.136 131.023 99.2832 131.759C98.5471 132.456 98.9733 133.54 99.5157 134.199ZM99.3995 132.843C99.5157 131.023 101.221 132.34 101.608 132.921C101.84 133.269 102.073 133.657 102.267 134.044C102.693 134.857 102.964 135.67 103.313 136.523C102.732 136.097 102.112 135.709 101.531 135.322C100.794 134.78 99.3607 133.85 99.3995 132.843Z" fill="#263238"/>
<path d="M109.396 135.361C109.241 134.276 107.962 134.083 107.071 134.276C105.637 134.586 104.088 135.477 103.08 136.484C103.041 136.522 103.08 136.522 103.08 136.561C103.041 136.677 103.08 136.832 103.235 136.871C104.669 137.065 106.219 137.413 107.652 137.142C108.505 136.987 109.551 136.406 109.396 135.361ZM105.482 136.677C104.785 136.6 104.049 136.522 103.351 136.445C104.126 136.019 104.901 135.554 105.715 135.206C106.102 135.051 106.529 134.857 106.916 134.78C107.575 134.625 109.744 134.663 108.621 136.135C108.04 136.949 106.335 136.755 105.482 136.677Z" fill="#263238"/>
<path d="M101.531 134.199H120.981C120.981 134.199 117.533 107.708 118.656 106.003C119.16 105.229 144.422 107.785 151.823 99.768C158.565 92.4481 151.707 78.7378 151.707 78.7378H130.977C130.977 78.7378 130.551 84.6247 129.428 86.9485C128.963 87.9554 105.793 86.5225 102.151 93.1452C97.3461 102.014 101.531 134.199 101.531 134.199Z" fill="black"/>
<path d="M118.966 130.519C116.758 130.442 114.588 130.364 112.379 130.364C110.171 130.364 107.962 130.403 105.754 130.48C105.134 130.519 103.313 130.597 103.003 130.597C102.693 130.635 102.383 130.597 102.112 130.674C102.073 130.674 102.073 130.713 102.112 130.752C102.577 130.829 107.575 130.906 108.66 130.906C110.868 130.906 113.038 130.868 115.208 130.752C116.448 130.713 117.688 130.674 118.928 130.597C119.005 130.635 119.005 130.519 118.966 130.519Z" fill="#263238"/>
<path d="M131.83 85.1281C131.907 84.5084 131.985 83.8888 132.062 83.2691C132.217 81.8361 132.372 80.4031 132.411 78.9701C132.411 78.8539 132.256 78.8539 132.256 78.9701C132.14 80.0545 132.024 81.1777 131.907 82.3008C131.791 83.3853 131.675 84.5084 131.481 85.5929C131.404 85.9027 131.287 86.4837 130.861 86.4837C130.28 86.4837 130.203 85.7478 130.164 85.3218C130.048 84.2761 130.048 83.2691 130.125 82.2234C130.203 81.0615 130.319 79.8609 130.474 78.699C130.474 78.6602 130.396 78.6602 130.396 78.699C129.931 80.984 129.466 83.3465 129.854 85.6703C129.931 86.1351 130.125 86.5998 130.59 86.7548C130.59 86.7548 130.59 86.7548 130.629 86.7548V86.7935C130.629 86.871 130.629 86.9097 130.629 86.9872C130.629 87.0259 130.629 87.1033 130.629 87.1421C130.629 87.2583 130.629 87.3744 130.629 87.4906C130.629 87.6068 130.784 87.6068 130.784 87.4906C130.822 87.4906 130.822 87.4519 130.861 87.4519C130.9 87.2195 130.9 86.9872 130.861 86.7935C131.132 86.7935 131.404 86.6386 131.559 86.4062C131.752 86.0576 131.791 85.5541 131.83 85.1281Z" fill="#263238"/>
<path d="M129.776 86.7933C131.365 87.839 132.837 89.1558 134.232 90.4726C134.271 90.5114 134.232 90.6275 134.155 90.5501C132.643 89.3882 131.094 88.2263 129.621 86.987C129.505 86.8708 129.66 86.7159 129.776 86.7933Z" fill="#263238"/>
<path d="M146.825 87.9164C146.36 87.9164 145.933 87.8777 145.468 87.8002C145.081 87.7228 144.694 87.6066 144.306 87.4904C143.57 87.2967 142.717 87.0256 142.175 86.4447C141.633 85.8637 141.284 85.0892 140.974 84.392C140.625 83.6174 140.354 82.7654 140.276 81.9133C140.276 81.8746 140.199 81.8746 140.199 81.9133C140.276 82.8041 140.393 83.6562 140.625 84.5082C140.741 84.9342 140.935 85.3603 141.129 85.7476C141.323 86.1348 141.516 86.5221 141.826 86.8707C142.408 87.4904 143.337 87.8002 144.151 87.9551C145.003 88.1101 145.933 88.1101 146.786 87.9551C146.902 87.9939 146.863 87.9164 146.825 87.9164Z" fill="#263238"/>
<path d="M116.603 104.764C116.719 104.261 117.068 103.951 117.571 103.873C118.114 103.796 118.695 103.835 119.238 103.835C120.516 103.835 121.833 103.873 123.112 103.873C128.227 103.873 133.38 103.757 138.378 102.75C140.819 102.247 143.221 101.588 145.507 100.581C147.444 99.7293 149.421 98.5674 150.622 96.7858C152.016 94.7332 152.133 92.0221 152.094 89.6208C152.055 87.026 151.629 84.4311 150.854 81.9524C150.66 81.3327 150.428 80.713 150.195 80.0933C150.195 80.0546 150.234 80.0159 150.234 80.0546C151.242 82.4171 151.939 84.8958 152.249 87.452C152.404 88.6913 152.443 89.9694 152.404 91.2475C152.365 92.4868 152.288 93.7262 151.939 94.9268C150.622 99.4582 145.546 101.317 141.478 102.44C136.557 103.835 131.404 104.222 126.328 104.261C123.771 104.299 121.214 104.261 118.656 104.222C118.153 104.222 117.378 104.067 117.068 104.609C116.913 104.88 116.874 105.229 116.835 105.539C116.797 105.887 116.758 106.275 116.719 106.623C116.603 107.979 116.68 109.334 116.758 110.69C116.913 113.44 117.106 116.228 117.339 118.978C117.571 121.766 117.881 124.516 118.075 127.305C118.114 128.002 118.191 128.66 118.269 129.358C118.269 129.435 118.153 129.435 118.114 129.358C117.416 123.858 116.913 118.358 116.525 112.859C116.448 111.503 116.332 110.148 116.293 108.753C116.254 107.437 116.254 106.042 116.603 104.764Z" fill="#263238"/>
<path d="M129.04 105.771C130.977 105.771 132.566 105.616 134.193 105.384C135.821 105.19 137.409 104.958 139.036 104.686C141.826 104.222 144.693 103.679 147.328 102.634C148.762 102.053 150.157 101.317 151.319 100.31C151.358 100.271 151.396 100.31 151.358 100.349C149.382 102.285 146.824 103.408 144.19 104.144C141.167 104.958 138.029 105.461 134.891 105.771C133.031 105.965 130.9 105.965 129.04 105.926C128.924 105.965 128.924 105.771 129.04 105.771Z" fill="#263238"/>
<path d="M135.084 55.383C135.162 61.7347 133.418 71.4171 131.016 76.0647C129.311 79.3954 119.16 85.9795 113.774 87.4512C111.876 87.9934 110.907 80.0538 111.837 78.1173C112.379 76.9554 122.531 71.3396 123.577 69.7904C125.165 67.4279 128.343 60.7277 130.706 55.0344C131.985 52.0135 135.046 51.4326 135.084 55.383Z" fill="#FA9E84"/>
<path d="M115.208 76.3357C115.208 76.3357 112.224 75.9871 110.868 76.1033C109.512 76.2195 104.669 78.582 105.134 79.6277C105.715 81.022 108.776 80.2086 110.21 79.6277C110.21 79.6277 111.527 82.8423 113.852 82.7261C116.176 82.6486 115.208 76.3357 115.208 76.3357Z" fill="#FA9E84"/>
<path d="M115.557 86.8317C114.51 87.2964 109.473 89.0392 108.001 89.1942C106.49 89.3491 102.15 89.5427 101.879 88.4196C101.647 87.2964 102.887 87.1415 102.887 87.1415C102.887 87.1415 101.027 86.9091 100.872 85.7472C100.717 84.5853 102.732 84.3917 102.732 84.3917C102.732 84.3917 100.833 84.0431 100.794 82.8425C100.717 81.6806 102.77 81.8355 102.77 81.8355C102.77 81.8355 101.027 81.6032 101.376 80.5962C101.802 79.3956 104.979 80.2476 106.606 79.899C106.994 79.8216 114.084 77.9238 114.084 77.9238L115.557 86.8317Z" fill="#FA9E84"/>
<path d="M102.577 81.8356C104.902 82.4165 106.026 82.3003 108.273 81.5645C108.312 81.5645 108.35 81.6032 108.312 81.6419C106.181 82.5327 104.786 82.92 102.538 81.9518C102.422 81.8743 102.461 81.7968 102.577 81.8356Z" fill="#263238"/>
<path d="M102.538 84.3142C105.018 84.7402 106.219 84.5853 108.621 84.0044C108.66 84.0044 108.66 84.0431 108.621 84.0819C106.296 84.8564 104.901 85.205 102.499 84.4691C102.46 84.4304 102.422 84.3142 102.538 84.3142Z" fill="#263238"/>
<path d="M103.003 87.0643C105.405 87.2967 106.761 87.1805 109.047 86.3284C109.086 86.2897 109.125 86.3672 109.086 86.4059C106.839 87.5291 105.173 87.6452 103.003 87.1418C102.887 87.103 102.848 87.0643 103.003 87.0643Z" fill="#263238"/>
<path d="M105.405 79.976C106.839 80.8668 108.698 79.976 110.132 79.5113C110.248 79.4725 110.326 79.55 110.326 79.6275C110.984 80.9443 112.263 82.5709 113.774 82.8033C113.813 82.8033 113.813 82.8808 113.774 82.8808C112.108 82.842 110.713 81.3316 110.093 79.8598C108.621 80.3633 106.722 81.1767 105.405 79.976Z" fill="#263238"/>
<path d="M126.483 62.1609L134.581 67.5056C134.581 67.5056 135.666 56.8937 135.084 53.7179C134.465 50.116 132.76 51.2392 130.706 54.0664C128.691 56.855 126.483 62.1609 126.483 62.1609Z" fill="#FFC727"/>
<path d="M126.483 62.1609L134.581 67.5056C134.581 67.5056 135.666 56.8937 135.084 53.7179C134.465 50.116 132.76 51.2392 130.706 54.0664C128.691 56.855 126.483 62.1609 126.483 62.1609Z" fill="#3134E6"/>
<path d="M127.723 60.8828C128.846 61.425 131.985 63.5164 132.489 63.865C132.76 64.0587 133.845 64.7945 134.116 64.9882C134.155 65.0269 134.116 65.0656 134.077 65.0269C133.535 64.6783 132.992 64.4072 132.45 64.0587C131.907 63.7101 128.653 61.6961 127.684 60.9215C127.684 60.9215 127.723 60.8828 127.723 60.8828Z" fill="#263238"/>
<path d="M135.201 57.9783C135.201 57.9395 135.278 57.9395 135.278 57.9783C135.278 58.869 135.278 59.7986 135.24 60.6893C135.356 60.2246 135.433 59.7598 135.472 59.2951C135.472 59.2563 135.511 59.2951 135.511 59.2951C135.511 59.8373 135.394 60.3795 135.24 60.9217C135.201 61.5414 135.201 62.1998 135.162 62.8195C135.085 64.4074 135.007 66.034 134.852 67.622C134.852 67.6994 134.736 67.7381 134.658 67.6994C134.387 67.5058 134.116 67.3121 133.845 67.0797C133.806 67.041 133.845 67.0023 133.883 67.041C134.116 67.1572 134.387 67.3121 134.62 67.4283C134.658 65.8791 134.775 64.3299 134.852 62.7807C134.93 61.1541 135.046 59.5662 135.201 57.9783Z" fill="#263238"/>
<path d="M154.922 81.8748C154.922 81.8748 128.846 85.4766 128.846 85.5154C128.924 86.0189 127.452 64.9112 132.527 51.6269C132.876 50.7361 136.828 49.2644 138.882 50.6587C147.832 56.8554 154.961 82.1846 154.922 81.8748Z" fill="#3827FF"/>
<path d="M139.501 51.1235L132.334 52.1692C132.334 52.1305 132.372 52.0918 132.372 52.053L139.385 51.0073C139.424 51.0461 139.463 51.0848 139.501 51.1235ZM141.478 53.0213L131.559 54.493C131.559 54.5317 131.52 54.5705 131.52 54.6092L141.555 53.1375C141.555 53.0987 141.516 53.06 141.478 53.0213ZM143.144 55.0739L130.939 56.8555C130.939 56.8942 130.9 56.933 130.9 56.9717L143.182 55.1514C143.182 55.1514 143.144 55.1127 143.144 55.0739ZM144.538 57.1653L130.396 59.2567C130.396 59.2955 130.396 59.3342 130.357 59.3729L144.577 57.2815C144.577 57.2428 144.577 57.2041 144.538 57.1653ZM145.817 59.2955L130.009 61.6193C130.009 61.658 130.009 61.6967 130.009 61.7354L145.895 59.4117C145.856 59.3729 145.817 59.3342 145.817 59.2955ZM146.941 61.4256L129.621 63.9818C129.621 64.0205 129.621 64.0592 129.621 64.098L147.018 61.5418C146.979 61.5031 146.979 61.4643 146.941 61.4256ZM148.026 63.5557L129.389 66.3055C129.389 66.3443 129.389 66.383 129.389 66.4217L148.103 63.6719C148.026 63.6332 148.026 63.5945 148.026 63.5557ZM148.994 65.7246L129.118 68.6681C129.118 68.7068 129.118 68.7455 129.118 68.7842L149.033 65.8408C149.033 65.8021 149.033 65.7633 148.994 65.7246ZM149.924 67.8935L128.963 70.9918C128.963 71.0306 128.963 71.0693 128.963 71.108L149.963 68.0097C149.963 67.9709 149.963 67.9322 149.924 67.8935ZM150.815 70.0623L128.846 73.2769C128.846 73.3156 128.846 73.3543 128.846 73.3931L150.893 70.1398C150.854 70.1398 150.854 70.1011 150.815 70.0623ZM151.668 72.2312L128.769 75.6007C128.769 75.6394 128.769 75.6781 128.769 75.7169L151.706 72.3474C151.706 72.3086 151.668 72.2699 151.668 72.2312ZM152.481 74.4388L128.73 77.9244C128.73 77.9632 128.73 78.0019 128.73 78.0406L152.52 74.555C152.481 74.5162 152.481 74.4775 152.481 74.4388ZM153.218 76.6076L128.691 80.2095V80.3257L153.256 76.7238C153.256 76.6851 153.256 76.6464 153.218 76.6076ZM153.954 78.8152L128.73 82.5333C128.73 82.572 128.73 82.6107 128.73 82.6495L153.992 78.9314C153.992 78.8927 153.992 78.854 153.954 78.8152ZM154.651 81.0228L128.808 84.8183C128.808 84.8571 128.808 84.8958 128.808 84.9345L154.651 81.139C154.69 81.1003 154.69 81.0616 154.651 81.0228Z" fill="white" fill-opacity="0.27"/>
<path opacity="0.1" d="M134.852 59.8764L138.959 59.2954C138.959 59.2954 139.734 63.517 139.734 63.6331C139.734 63.7493 137.758 65.3373 137.564 65.2985C137.371 65.2211 135.433 64.6788 135.394 64.5627C135.317 64.4465 134.852 59.8764 134.852 59.8764Z" fill="black"/>
<path d="M128.808 67.1572H103.429V95.275H128.808V67.1572Z" fill="#FFC727"/>
<path opacity="0.1" d="M128.808 67.1572H103.429V95.275H128.808V67.1572Z" fill="black"/>
<path d="M90.3473 95.2563H103.443V67.1386H90.3473V95.2563Z" fill="#FFC727"/>
<path d="M113.968 73.2378H114.51H114.937L115.169 72.773L115.479 73.2378L115.905 72.2695L116.332 73.2378H117.533H118.075L118.269 72.5794L118.424 73.2378H118.811V67.1572H113.968V73.2378Z" fill="white"/>
<g opacity="0.1">
<path opacity="0.1" d="M91.2241 93.3385C92.1928 91.3246 93.1614 89.3494 94.0913 87.3354L96.9198 81.2936L99.7095 75.213C100.639 73.1991 101.569 71.1464 102.46 69.0938C101.492 71.1077 100.523 73.0829 99.5932 75.0968L96.7648 81.1387L93.9751 87.2192C93.0839 89.2332 92.154 91.2858 91.2241 93.3385Z" fill="black"/>
<path opacity="0.1" d="M91.2241 69.0938C92.154 71.1464 93.0452 73.1604 93.9751 75.213L96.7648 81.2936L99.5932 87.3354C100.562 89.3494 101.492 91.3633 102.46 93.3385C101.531 91.2858 100.639 89.2719 99.7095 87.2192L96.9198 81.1387L94.0913 75.0968C93.1614 73.0829 92.1928 71.1077 91.2241 69.0938Z" fill="black"/>
</g>
<path d="M133.031 73.2378H107.652L103.429 67.1572H128.846L133.031 73.2378Z" fill="#FFC727"/>
<g opacity="0.2">
<path opacity="0.2" d="M133.031 73.2378H107.652L103.429 67.1572H128.846L133.031 73.2378Z" fill="black"/>
</g>
<path d="M99.2445 73.2378H86.1484L90.3717 67.1572H103.429L99.2445 73.2378Z" fill="#FFC727"/>
<path opacity="0.1" d="M99.2445 73.2378H86.1484L90.3717 67.1572H103.429L99.2445 73.2378Z" fill="black"/>
<path d="M133.883 55.0347C135.162 55.1509 137.564 53.3306 138.184 51.4328C138.223 51.3166 137.835 50.0773 137.409 48.5668C137.138 47.6373 136.905 46.6303 136.712 45.7008C136.673 45.5072 131.016 48.2182 131.016 48.2182C131.016 48.2182 131.946 50.116 132.256 51.7426C132.295 51.8976 132.295 52.0138 132.295 52.1299C132.295 52.1299 132.295 52.1687 132.295 52.2074C132.295 52.982 132.527 54.8797 133.883 55.0347Z" fill="#FA9E84"/>
<path d="M132.295 52.1297C132.295 52.1297 132.295 52.1684 132.295 52.2071C132.488 52.2071 132.682 52.1684 132.915 52.1297C136.402 51.4325 136.557 46.8624 136.518 45.7393C135.472 46.0878 131.016 48.218 131.016 48.218C131.016 48.218 131.946 50.1157 132.256 51.7811C132.256 51.8973 132.295 52.0135 132.295 52.1297Z" fill="#D17F68"/>
<path d="M136.518 38.1101C137.487 40.124 137.254 46.4369 135.937 48.0249C134.038 50.3099 130.474 51.0458 128.42 48.6445C126.405 46.3207 126.87 38.1488 128.381 36.6383C130.59 34.4307 135.084 35.1279 136.518 38.1101Z" fill="#FA9E84"/>
<path d="M131.055 42.6416C131.055 42.6416 131.094 42.6803 131.055 42.6416C131.055 43.1064 131.094 43.6098 131.481 43.7648V43.8035C131.016 43.6873 130.977 43.0289 131.055 42.6416Z" fill="#263238"/>
<path d="M131.443 42.2156C132.14 42.1769 132.14 43.5712 131.52 43.5712C130.9 43.6099 130.9 42.2544 131.443 42.2156Z" fill="#263238"/>
<path d="M128.614 42.7192C128.614 42.7192 128.575 42.758 128.614 42.7192C128.614 43.184 128.536 43.6875 128.149 43.8037V43.8424C128.614 43.7649 128.691 43.1453 128.614 42.7192Z" fill="#263238"/>
<path d="M128.226 42.2933C127.529 42.2546 127.49 43.6101 128.149 43.6488C128.769 43.6876 128.808 42.332 128.226 42.2933Z" fill="#263238"/>
<path d="M131.985 41.5958C131.791 41.5571 131.636 41.4797 131.442 41.4022C131.249 41.3247 131.055 41.286 130.939 41.1311C130.861 41.0149 130.9 40.86 130.977 40.7825C131.171 40.5889 131.442 40.6276 131.714 40.7051C131.985 40.7825 132.179 40.9374 132.334 41.1698C132.489 41.3635 132.256 41.6346 131.985 41.5958Z" fill="#263238"/>
<path d="M127.684 41.5959C127.878 41.5572 128.033 41.5185 128.226 41.441C128.42 41.3635 128.614 41.3635 128.769 41.1699C128.846 41.0924 128.846 40.8988 128.769 40.8213C128.575 40.6277 128.304 40.6277 128.071 40.7051C127.8 40.7826 127.606 40.8988 127.413 41.1312C127.219 41.3635 127.451 41.6346 127.684 41.5959Z" fill="#263238"/>
<path d="M131.481 46.5919C131.365 46.7081 131.287 46.8243 131.132 46.8243C130.977 46.8243 130.822 46.7856 130.667 46.7081C130.667 46.7081 130.629 46.7081 130.667 46.7468C130.784 46.9018 131.016 47.018 131.21 46.9792C131.404 46.9405 131.481 46.7856 131.559 46.5919C131.52 46.5919 131.52 46.5532 131.481 46.5919Z" fill="#263238"/>
<path d="M131.016 45.3137C130.784 45.701 130.435 45.8946 130.047 45.9721C129.892 46.0108 129.699 46.0108 129.544 46.0108C129.505 46.0108 129.466 46.0108 129.428 46.0108C129.389 46.0108 129.35 46.0108 129.35 46.0108C129.311 46.0108 129.273 45.9721 129.273 45.9333V45.8946V45.8559C129.273 45.5461 129.273 45.0426 129.273 45.0426C129.156 45.12 128.536 45.3911 128.536 45.1975C128.614 43.8032 128.691 42.2153 129.079 40.821C129.079 40.7823 129.156 40.7823 129.156 40.821C129.156 42.1766 128.885 43.5321 128.846 44.8876C129.04 44.8102 129.35 44.6553 129.544 44.694C129.583 44.694 129.466 45.6622 129.505 45.8172C130.047 45.8946 130.474 45.701 131.016 45.3524C131.016 45.2362 131.055 45.2749 131.016 45.3137Z" fill="#263238"/>
<path d="M129.738 45.8173C129.738 45.8173 130.048 46.2046 130.435 46.3595C130.59 46.3982 130.745 46.437 130.9 46.3982C131.249 46.3208 131.249 46.0109 131.171 45.7398C131.132 45.5075 131.016 45.3525 131.016 45.3525C131.016 45.3525 130.551 45.7786 129.738 45.8173Z" fill="#263238"/>
<path d="M130.435 46.3594C130.59 46.3982 130.745 46.4369 130.9 46.3982C131.249 46.3207 131.249 46.0109 131.171 45.7397C130.823 45.7397 130.474 46.0109 130.435 46.3594Z" fill="#FF99BA"/>
<path d="M127.451 38.7298C127.684 38.1875 127.955 37.6453 128.265 37.5291C128.575 37.4129 128.808 38.2263 129.544 38.265C130.551 38.3425 131.016 37.4129 132.411 37.2968C134.426 37.1418 135.317 38.8072 135.394 41.6345C135.472 44.1519 136.983 44.3843 136.983 44.3843C136.983 44.3843 137.874 38.8072 136.285 36.9482C134.697 35.1279 131.055 34.3146 128.653 36.0961C127.761 36.7545 127.451 38.7298 127.451 38.7298Z" fill="black"/>
<path d="M135.704 43.3772C135.704 43.3772 136.828 41.2083 137.797 41.5956C138.765 41.9829 138.068 45.0038 137.06 45.5073C136.053 46.0495 135.549 45.12 135.549 45.12L135.704 43.3772Z" fill="#FA9E84"/>
<path d="M137.603 42.4863C136.906 42.9124 136.596 43.6482 136.402 44.3841C136.596 44.0742 136.867 43.8806 137.254 44.113C137.293 44.113 137.254 44.1517 137.254 44.1517C136.944 44.113 136.712 44.1904 136.557 44.4615C136.441 44.6552 136.363 44.8876 136.286 45.0812C136.247 45.1587 136.131 45.1199 136.169 45.0425C136.014 44.113 136.596 42.68 137.603 42.4863Z" fill="#263238"/>
<path d="M142.369 55.5385C144.965 61.3092 150.699 73.1605 149.227 77.6144C147.289 83.4625 137.138 89.9304 134.542 91.712C133.38 92.4866 127.723 85.2054 128.071 83.7724C128.42 82.3394 139.075 73.8963 139.656 72.9281C140.238 71.9598 137.835 62.3549 137.409 57.0102C136.867 50.2712 140.16 50.6585 142.369 55.5385Z" fill="#FA9E84"/>
<path d="M125.398 87.6838C125.708 87.0641 125.359 86.8704 124.236 87.4127C123.073 87.9549 119.082 91.092 118.114 89.6203C117.145 88.1098 122.879 83.7721 124.817 82.9975C126.754 82.2229 130.202 81.6807 130.202 81.6807C129.273 82.7651 127.219 85.5536 125.398 87.6838Z" fill="#FA9E84"/>
<path d="M137.293 89.4655C134.503 92.3702 131.249 96.1657 126.87 97.4051C126.018 97.6375 125.398 97.3664 125.398 97.3664C123.461 97.9473 122.57 97.2114 122.57 97.2114C120.594 97.2114 119.819 96.3207 119.819 96.3207C119.819 96.3207 117.533 96.9791 116.874 95.6622C116.138 94.1905 119.509 93.5321 121.136 92.0604C124.856 88.6522 129.195 82.7653 130.164 81.6421L137.293 89.4655Z" fill="#FA9E84"/>
<path d="M127.606 91.247C126.483 92.2152 125.437 93.2222 124.158 94.0355C122.802 94.9263 121.33 95.5847 119.857 96.2819C119.818 96.3206 119.818 96.3593 119.896 96.3593C122.763 95.546 125.708 93.5321 127.645 91.2857C127.684 91.247 127.645 91.2083 127.606 91.247Z" fill="#263238"/>
<path d="M129.97 93.1837C128.846 94.0744 126.831 95.6236 122.569 97.1728V97.2115C125.475 96.5919 127.878 95.2363 130.009 93.2611C130.086 93.1836 130.047 93.1449 129.97 93.1837Z" fill="#263238"/>
<path d="M131.249 94.2676C129.234 95.7006 127.8 96.3978 125.398 97.366V97.4047C128.226 96.5914 129.156 95.9717 131.287 94.3451C131.365 94.2676 131.326 94.2289 131.249 94.2676Z" fill="#263238"/>
<path d="M137.797 64.4075L147.483 64.8722C147.483 64.8722 142.989 55.2285 140.896 52.7498C138.494 49.9613 137.603 51.7816 137.332 55.2673C137.022 58.7142 137.797 64.4075 137.797 64.4075Z" fill="#FFC727"/>
<path d="M137.797 64.4075L147.483 64.8722C147.483 64.8722 142.989 55.2285 140.896 52.7498C138.494 49.9613 137.603 51.7816 137.332 55.2673C137.022 58.7142 137.797 64.4075 137.797 64.4075Z" fill="#3134E6"/>
<path d="M138.223 62.6646C139.463 62.5484 143.221 62.7421 143.841 62.7808C144.151 62.7808 145.468 62.897 145.817 62.9357C145.856 62.9357 145.856 63.0132 145.817 63.0132C145.197 62.9744 144.577 63.0519 143.919 63.0132C143.26 63.0132 139.463 62.9357 138.223 62.7421C138.223 62.7033 138.223 62.6646 138.223 62.6646Z" fill="#263238"/>
<path d="M143.144 56.3516C143.144 56.3129 143.182 56.2742 143.221 56.3129C143.686 57.0875 144.151 57.8621 144.577 58.6754C144.461 58.2107 144.267 57.7846 144.073 57.3586C144.073 57.3586 144.112 57.3199 144.112 57.3586C144.383 57.8234 144.577 58.3656 144.693 58.9078C145.003 59.45 145.313 60.031 145.585 60.5732C146.321 62.0062 147.096 63.4004 147.754 64.8722C147.793 64.9496 147.716 65.0271 147.638 65.0271C147.289 64.9884 146.979 64.9496 146.631 64.9109C146.592 64.9109 146.592 64.8334 146.631 64.8334C146.902 64.7947 147.173 64.7947 147.483 64.7947C146.708 63.4392 146.049 62.0449 145.313 60.6894C144.577 59.2564 143.841 57.8234 143.144 56.3516Z" fill="#263238"/>
<path d="M137.215 60.3022C137.099 59.7987 137.022 59.2953 136.906 58.7918C136.983 59.1403 137.061 59.5276 137.177 59.8762C137.138 59.1403 137.099 58.3657 137.099 57.6299C137.254 58.753 137.332 59.8762 137.487 60.9994C137.603 62.1225 137.719 63.207 137.835 64.3301C138.068 64.3689 138.262 64.4076 138.494 64.4463C138.533 64.4463 138.533 64.5238 138.494 64.5238C138.262 64.5238 137.99 64.5238 137.758 64.5238C137.719 64.5238 137.642 64.4851 137.642 64.4463C137.448 63.0908 137.332 61.6965 137.215 60.3022Z" fill="#263238"/>
<path d="M98.6245 114.756H61.9709V145.004H98.6245V114.756Z" fill="#FFC727"/>
<path d="M113.154 114.756H98.6245V145.004H113.154V114.756Z" fill="#FFC727"/>
<path opacity="0.1" d="M113.154 114.756H98.6245V145.004H113.154V114.756Z" fill="black"/>
<path d="M112.147 142.951C111.062 140.782 110.016 138.652 108.97 136.483L105.832 129.977L102.732 123.431C101.686 121.262 100.679 119.055 99.6711 116.847C100.756 119.016 101.802 121.146 102.887 123.315L106.025 129.822L109.125 136.367C110.094 138.536 111.14 140.743 112.147 142.951Z" fill="#FFC727"/>
<path d="M112.147 116.847C111.139 119.055 110.132 121.224 109.086 123.431L105.986 129.977L102.848 136.483C101.802 138.652 100.717 140.821 99.6318 142.951C100.639 140.743 101.647 138.575 102.693 136.367L105.792 129.822L108.931 123.315C110.016 121.146 111.062 119.016 112.147 116.847Z" fill="#FFC727"/>
<path d="M82.8936 121.301H82.3124H81.8862L81.615 120.798L81.2663 121.301L80.8013 120.255L80.3751 121.301H79.0965H78.5153L78.2828 120.604L78.0891 121.301H77.7017V114.756H82.8936V121.301Z" fill="white"/>
<path d="M134.426 114.756H107.071V145.004H134.426V114.756Z" fill="#FFC727"/>
<path d="M148.529 114.756H134.426V145.004H148.529V114.756Z" fill="#FFC727"/>
<path opacity="0.1" d="M148.529 114.756H134.426V145.004H148.529V114.756Z" fill="black"/>
<g opacity="0.1">
<path opacity="0.1" d="M132.411 142.951C130.396 140.782 128.42 138.652 126.444 136.483L120.555 129.977L114.743 123.431C112.805 121.262 110.907 119.055 109.008 116.847C111.023 119.016 112.999 121.146 114.975 123.315L120.865 129.822L126.676 136.367C128.614 138.536 130.512 140.743 132.411 142.951Z" fill="black"/>
<path opacity="0.1" d="M132.411 116.847C130.512 119.055 128.614 121.224 126.676 123.431L120.865 129.977L114.975 136.483C112.999 138.652 111.023 140.821 109.008 142.951C110.907 140.743 112.805 138.575 114.743 136.367L120.555 129.822L126.444 123.315C128.42 121.146 130.396 119.016 132.411 116.847Z" fill="black"/>
</g>
<path d="M146.553 139.892H144.073V143.377H146.553V139.892Z" fill="white"/>
<path d="M99.3219 95.1973H68.0928V114.756H99.3219V95.1973Z" fill="#FFC727"/>
<path opacity="0.1" d="M99.3219 95.1973H68.0928V114.756H99.3219V95.1973Z" fill="black"/>
<path d="M113.387 95.1973H99.2832V114.756H113.387V95.1973Z" fill="#FFC727"/>
<path opacity="0.2" d="M113.387 95.1973H99.2832V114.756H113.387V95.1973Z" fill="black"/>
<path d="M112.457 113.594C111.411 112.238 110.364 110.883 109.357 109.527L106.296 105.461L103.274 101.355C102.267 99.9998 101.298 98.6055 100.291 97.25C101.337 98.6055 102.383 99.9611 103.39 101.317L106.451 105.383L109.473 109.489C110.481 110.844 111.449 112.238 112.457 113.594Z" fill="#FFC727"/>
<path d="M112.457 97.2886C111.488 98.6441 110.481 100.038 109.473 101.394L106.451 105.499L103.39 109.566C102.383 110.921 101.337 112.277 100.291 113.632C101.259 112.238 102.267 110.883 103.274 109.527L106.296 105.422L109.357 101.355C110.364 99.9609 111.411 98.6441 112.457 97.2886Z" fill="#FFC727"/>
<path d="M81.0339 12.0834C80.5689 16.6922 76.4231 20.0617 71.7736 19.597C69.9138 19.4033 68.2478 18.59 66.9691 17.4281L62.7458 18.0478L64.8381 14.4072C64.3344 13.1678 64.102 11.7736 64.2569 10.3406C64.7219 5.73175 68.8677 2.36227 73.5172 2.82703C78.1667 3.33051 81.5376 7.47459 81.0339 12.0834Z" fill="white"/>
<path d="M81.0339 12.0837C80.8401 13.6329 80.2977 15.1433 79.329 16.3439C79.0966 16.6538 78.8253 16.9249 78.5541 17.2347C78.2442 17.5058 77.9729 17.7769 77.663 17.9706C77.043 18.4353 76.3456 18.8226 75.6482 19.0938C74.912 19.4036 74.1371 19.5585 73.3622 19.636C72.9747 19.6747 72.5873 19.6747 72.1998 19.6747C71.8123 19.6747 71.4249 19.636 71.0374 19.5585C69.4876 19.2874 68.054 18.5515 66.8529 17.5058L66.9691 17.5446L62.7846 18.203L62.4746 18.2417L62.6296 17.9706L64.7219 14.33V14.4849C63.7145 12.0837 63.9469 9.21769 65.2256 6.97137C65.8842 5.84821 66.7754 4.87996 67.8603 4.1441C68.9452 3.40824 70.185 2.98221 71.4636 2.78856C72.7422 2.63364 74.0596 2.74983 75.2607 3.13713C76.4618 3.56316 77.5855 4.22156 78.5154 5.11234C80.3752 6.89391 81.3051 9.56625 81.0339 12.0837ZM81.0339 12.0837C81.3051 9.52752 80.3364 6.89391 78.4766 5.15107C77.5467 4.26029 76.4231 3.60188 75.222 3.25332C74.0209 2.86602 72.7035 2.78856 71.4636 2.98221C70.2238 3.17586 69.0227 3.64061 67.9765 4.33775C66.9304 5.07361 66.078 6.00312 65.458 7.08755C64.8381 8.17199 64.4894 9.41133 64.3732 10.6507C64.2957 11.89 64.4894 13.1681 64.9543 14.33L64.9931 14.4075L64.9543 14.4849L62.8233 18.1255L62.6683 17.8931L66.8916 17.3122H66.9691L67.0079 17.3509C68.1315 18.3966 69.5263 19.1325 71.0374 19.4423C71.4249 19.5198 71.8123 19.5585 72.1611 19.5972C72.5485 19.636 72.936 19.5972 73.3234 19.5972C74.0984 19.5198 74.8733 19.4036 75.5707 19.0938C76.3069 18.8226 77.0043 18.4741 77.5855 18.0093C77.8954 17.7769 78.1667 17.5058 78.4766 17.2735C78.7479 17.0023 79.0191 16.7312 79.2515 16.4214C80.2977 15.1433 80.8401 13.6329 81.0339 12.0837Z" fill="#263238"/>
<path d="M71.6574 16.034L68.0928 12.3934L69.2939 11.1928L71.3862 13.3229L75.7645 6.46777L77.1981 7.39729L71.6574 16.034Z" fill="#009834"/>
<path d="M44.6128 19.5587C43.1792 19.3264 39.6146 20.4882 38.4909 22.386C37.3673 24.3225 37.5998 27.3434 38.2197 27.6145C38.8397 27.8856 41.5131 27.537 43.2954 26.4526C45.1165 25.3682 45.3102 19.6749 44.6128 19.5587Z" fill="black"/>
<path d="M44.6129 19.5589C44.6516 19.5589 44.6516 19.4814 44.6129 19.4814C43.373 19.5202 42.0944 19.9849 40.932 20.3722C40.0021 20.6821 39.0335 21.0694 38.2973 21.7278C37.5611 22.3862 37.2124 23.277 37.2124 24.2839C37.2124 25.3684 37.4449 26.6852 38.0261 27.6147C38.0261 27.6534 38.1036 27.6147 38.1036 27.5759C37.4061 25.562 36.7862 23.0833 38.7622 21.5728C40.4283 20.3335 42.6368 20.1011 44.6129 19.5589Z" fill="#263238"/>
<path d="M38.4136 27.0723C37.1737 27.3046 34.1128 29.7833 33.6866 32.1459C33.2604 34.5084 35.3139 37.8778 35.9339 38.1102C36.5538 38.3426 39.1498 35.9801 39.9634 34.276C40.5059 33.1528 39.9634 31.8747 39.6535 30.6354C39.1498 28.7764 38.6073 27.0723 38.4136 27.0723Z" fill="black"/>
<path d="M40.6607 33.9274C40.9319 31.5261 39.4595 29.2411 38.5684 27.111C38.5684 27.0722 38.5296 27.111 38.5296 27.111C39.0721 29.1636 40.3894 30.9452 40.5057 33.1141C40.5832 34.3921 40.1957 35.6702 39.1883 36.4835C38.2972 37.2194 37.1735 37.568 36.1274 37.994C36.0499 38.0327 36.1274 38.1102 36.1661 38.1102C38.2584 37.3356 40.3894 36.4061 40.6607 33.9274Z" fill="black"/>
<path d="M38.1423 27.3043C38.2198 27.2656 38.1423 27.1881 38.1035 27.2269C36.3987 28.1176 34.3452 29.4345 33.4928 31.2547C32.5629 33.23 33.6865 35.1664 34.6551 36.8705C34.6551 36.9093 34.6939 36.8705 34.6939 36.8705C33.7252 35.1664 32.6791 33.0363 33.764 31.0998C34.6551 29.3957 36.5537 28.1951 38.1423 27.3043Z" fill="black"/>
<path d="M36.1275 37.7617C36.9799 38.149 38.2585 39.4658 38.6072 41.0925C39.2271 43.881 40.2733 43.2613 43.3729 43.8423C46.0077 44.307 46.7438 47.2118 45.4265 48.7222C45.4265 48.7222 46.1239 46.9019 44.3416 46.0886C42.1718 45.1591 37.5223 47.6378 34.9651 44.8105C31.6717 41.2087 36.1275 37.7617 36.1275 37.7617Z" fill="#263238"/>
<path d="M37.2899 39.0011C37.2511 38.9624 37.3286 38.8849 37.3673 38.9236C37.7548 39.2722 38.0648 39.6595 38.2972 40.0855C38.6072 40.6665 38.646 41.3249 38.9172 41.9058C39.5759 43.4163 41.4357 43.2614 42.7918 43.2614C44.6128 43.3001 46.1239 44.3071 46.3564 46.2048C46.3564 46.2436 46.3176 46.2436 46.3176 46.2048C46.1627 45.0429 45.3877 43.9972 44.2254 43.5712C43.1405 43.1839 41.9394 43.4937 40.8545 43.3001C40.0796 43.1452 39.3434 42.8741 38.9172 42.1769C38.6847 41.7896 38.646 41.3249 38.491 40.8989C38.2585 40.2017 37.871 39.582 37.2899 39.0011Z" fill="#263238"/>
<path d="M35.6624 38.149C35.6624 38.1103 35.7012 38.149 35.6624 38.149C34.7325 39.2335 33.6864 40.3179 33.4926 41.8284C33.2602 43.455 34.1901 45.0042 35.5074 45.895C36.9798 46.902 38.4521 46.2823 40.0019 45.895C41.1256 45.6239 42.2879 45.3915 43.4116 45.7401C43.4503 45.7401 43.4116 45.8175 43.4116 45.8175C41.5905 45.5077 40.0019 46.1274 38.2196 46.5147C36.786 46.8245 35.6237 46.3985 34.655 45.314C32.4465 42.9515 33.5314 40.0468 35.6624 38.149Z" fill="#263238"/>
<path d="M43.4505 18.3193C43.0243 17.8545 42.2881 18.4742 42.7143 18.9777C43.1405 19.4424 43.8767 18.784 43.4505 18.3193Z" fill="#FFC727"/>
<path d="M43.8767 19.1328C43.4505 18.668 42.7144 19.2877 43.1406 19.7912C43.5668 20.2559 44.303 19.5975 43.8767 19.1328Z" fill="#FFC727"/>
<path d="M44.419 19.8686C43.9928 19.4038 43.2566 20.0235 43.6828 20.527C44.109 20.9917 44.8452 20.3333 44.419 19.8686Z" fill="#FFC727"/>
<path d="M45.0779 20.4882C44.6517 20.0235 43.9155 20.6431 44.3417 21.1466C44.7292 21.6501 45.4654 20.9917 45.0779 20.4882Z" fill="#FFC727"/>
<path d="M45.814 21.0302C45.3878 20.5655 44.6516 21.1851 45.0778 21.6886C45.504 22.1534 46.2402 21.5337 45.814 21.0302Z" fill="#FFC727"/>
<path d="M46.5889 21.4174C46.1627 20.9527 45.4265 21.5723 45.8527 22.0758C46.2789 22.5406 47.0151 21.8822 46.5889 21.4174Z" fill="#FFC727"/>
<path d="M76.7337 149.883C75.8425 150.155 49.6891 149.612 48.7204 148.954C48.3717 148.722 50.5802 123.935 50.5802 123.935L67.1635 124.244L65.2649 140.821C65.2649 140.821 74.9126 145.391 75.8813 146.204C76.9274 147.017 77.6248 149.574 76.7337 149.883Z" fill="#FA9E84"/>
<path d="M76.733 149.884C75.8419 150.155 49.6884 149.613 48.7198 148.954C48.6035 148.877 48.5648 146.359 48.991 143.106C53.718 143.919 70.6499 146.514 71.9673 145.74C72.8972 145.197 72.0835 144.345 71.3086 143.803C73.4784 144.888 75.4931 145.933 75.9194 146.282C76.9267 147.018 77.6242 149.574 76.733 149.884Z" fill="black"/>
<path d="M65.7681 136.87L49.4948 136.638C49.4948 136.638 52.7107 97.6373 52.5945 96.9014C52.4395 95.9332 40.8545 50.6582 40.8545 50.6582H56.3916C56.3916 50.6582 68.6353 92.8735 69.1002 96.9401C69.7976 103.485 65.7681 136.87 65.7681 136.87Z" fill="black"/>
<path d="M50.9671 132.958C51.9357 132.881 52.9044 132.92 53.873 132.881C54.8417 132.881 55.8103 132.881 56.779 132.881C58.7163 132.881 60.6535 132.92 62.5908 132.997C63.1333 132.997 63.637 133.036 64.1794 133.036C64.7606 133.075 65.303 133.152 65.8842 133.191C65.923 133.191 65.923 133.268 65.8842 133.268C65.4193 133.268 64.9543 133.346 64.4506 133.346C63.9469 133.346 63.482 133.346 62.9783 133.346C62.0097 133.346 61.041 133.346 60.0724 133.346C58.1351 133.346 56.1978 133.307 54.2992 133.229C53.2144 133.191 52.0907 133.152 51.0058 133.075C50.8896 133.036 50.8896 132.958 50.9671 132.958Z" fill="#263238"/>
<path d="M44.264 54.2986C45.6589 59.2172 46.9375 64.1746 48.1773 69.132C49.4172 74.0894 50.6571 79.0468 51.8969 84.043C52.5169 86.5217 53.1368 89.0004 53.7567 91.4791C54.3767 93.8803 55.0741 96.3203 55.1903 98.8377C55.3453 101.394 55.0354 103.95 54.8029 106.467C54.5704 109.024 54.3767 111.541 54.1442 114.097C53.718 119.171 53.253 124.283 52.7106 129.357C52.6331 129.976 52.5556 130.635 52.5169 131.254C52.5169 131.293 52.4394 131.293 52.4394 131.254C52.7881 126.181 53.1368 121.069 53.5243 115.995C53.718 113.439 53.9505 110.921 54.1442 108.365C54.3379 105.848 54.6479 103.292 54.7254 100.735C54.8029 98.1793 54.3379 95.7006 53.718 93.2219C53.0981 90.7819 52.5169 88.3807 51.8969 85.9407C50.6571 80.9833 49.4172 76.0259 48.1773 71.0298C46.7825 65.4527 45.4264 59.9144 44.1865 54.2986C44.2253 54.2598 44.264 54.2598 44.264 54.2986Z" fill="#263238"/>
<path d="M40.8545 50.6582C40.8545 50.6582 45.814 70.1005 49.2623 83.7721L55.8879 50.6582H40.8545Z" fill="black"/>
<path d="M57.2053 149.922C56.3142 150.194 30.1607 149.651 29.1921 148.993C28.8434 148.761 30.1995 123.974 30.1995 123.974L46.5502 124.283L45.7753 140.86C45.7753 140.86 55.423 145.43 56.3917 146.243C57.3603 147.057 58.0965 149.651 57.2053 149.922Z" fill="#FA9E84"/>
<path d="M57.2053 149.923C56.3141 150.194 30.1607 149.652 29.192 148.993C29.0758 148.916 29.1145 146.476 29.192 143.145C33.919 143.958 51.1222 146.553 52.4395 145.779C53.3694 145.236 52.5558 144.384 51.7808 143.842C53.9506 144.927 55.9654 145.972 56.3916 146.321C57.3602 147.057 58.0964 149.652 57.2053 149.923Z" fill="black"/>
<path d="M55.888 50.6196C55.888 50.6196 55.4231 58.0557 53.6795 63.9039C53.5245 64.4074 53.3695 64.8721 53.2145 65.3369C53.2145 65.3369 51.4322 65.9566 48.72 67.5832C48.72 67.5832 47.5964 96.0108 47.6351 97.7536C47.7126 104.338 46.0078 136.522 46.0078 136.522L29.5796 136.367C29.5796 136.367 31.2844 100 31.2844 97.5987C31.2844 93.7258 34.7328 50.6584 34.7328 50.6584L55.888 50.6196Z" fill="black"/>
<path d="M52.3233 60.6119C52.4008 60.1859 52.4395 59.7986 52.517 59.3725C52.6332 58.6367 52.7882 57.8621 52.9044 57.1262C53.2144 55.4221 53.5244 53.718 53.9118 52.0139C53.9118 51.9752 53.9893 51.9752 53.9893 52.0139C53.9118 52.711 53.8343 53.3695 53.7569 54.0666C53.6794 54.7637 53.6019 55.4221 53.4856 56.1193C53.2919 57.4748 53.0982 58.8303 52.8657 60.1471C52.7882 60.6506 52.4395 61.5801 53.2144 61.7351C53.7956 61.8512 54.2218 61.2703 54.4155 60.8055C54.6093 60.2246 54.6868 59.5662 54.803 58.9465C54.9192 58.2494 55.0355 57.591 55.113 56.8938C55.3067 55.4221 55.5392 53.9117 55.8104 52.4399C55.8104 52.4012 55.8879 52.4012 55.8879 52.4399C55.8491 53.9504 55.7716 55.4608 55.5779 57.01C55.5004 57.7459 55.3842 58.443 55.2679 59.1789C55.1517 59.8373 55.0742 60.5732 54.7642 61.1928C54.5318 61.6963 54.1056 62.1224 53.5244 62.1611H53.4856L53.5244 62.1998C53.5244 62.4322 53.5244 62.7033 53.4856 62.9357C53.4469 63.1681 53.4081 63.4004 53.3694 63.6328C53.3307 63.8652 53.2532 64.0976 53.1757 64.3299C53.1369 64.4461 53.0982 64.5623 53.0594 64.6398C53.0207 64.756 52.9432 64.8334 52.8657 64.9496C52.827 64.9884 52.7882 64.9496 52.7882 64.9109C52.7882 64.8722 52.7882 64.8334 52.7882 64.7947C52.7882 64.7947 52.7882 64.7947 52.7882 64.756C52.7882 64.6785 52.7882 64.6011 52.7882 64.5623C52.7882 64.4461 52.827 64.3299 52.8657 64.2138C52.9044 63.9814 52.9819 63.749 53.0594 63.5166C53.1369 63.2842 53.1757 63.0519 53.2144 62.8195C53.2919 62.5871 53.3694 62.3547 53.4081 62.1224C53.4081 62.1224 53.4081 62.1224 53.4081 62.0836C52.9819 62.0836 52.517 61.8512 52.362 61.4252C52.207 61.2316 52.2845 60.9217 52.3233 60.6119Z" fill="black"/>
<path d="M47.3637 68.1643C47.8287 67.777 48.3711 67.4671 48.9135 67.1573C49.4947 66.8087 50.0759 66.4989 50.6571 66.2278C51.8582 65.7243 53.0593 65.3757 54.2992 64.9497C54.338 64.9497 54.3767 64.9884 54.338 65.0272C53.1368 65.4919 52.0132 66.1116 50.8508 66.6926C50.2696 66.9637 49.7272 67.2348 49.146 67.4671C48.5648 67.7383 47.9836 68.0094 47.4025 68.2417C47.3637 68.2417 47.325 68.203 47.3637 68.1643Z" fill="black"/>
<path d="M38.1035 57.8234C38.9559 57.8234 39.7696 57.7072 40.5833 57.4749C40.9707 57.3974 41.3194 57.2425 41.7069 57.1263C42.0556 57.0101 42.4043 56.8552 42.7143 56.6228C43.2955 56.1193 43.5279 55.3835 43.7992 54.6863C44.0704 53.9117 44.2641 53.1371 44.4578 52.3625C44.4578 52.3238 44.5353 52.3238 44.5353 52.3625C44.5741 53.2533 44.4191 54.1441 44.1866 55.0349C43.9929 55.7708 43.7217 56.5841 43.1017 57.0876C42.4818 57.6298 41.6294 57.8234 40.8157 57.9009C39.9246 58.0171 39.0334 57.9783 38.1035 57.8622C38.026 57.9009 38.026 57.8234 38.1035 57.8234Z" fill="black"/>
<path d="M32.7178 116.382C32.989 111.193 33.299 106.003 33.6089 100.813C34.1901 90.4723 34.7713 80.1702 35.43 69.8294C35.7787 64.0199 36.1662 58.1717 36.6311 52.3623C36.6311 52.2848 36.7474 52.2848 36.7086 52.3623C36.2824 62.7418 35.6625 73.1214 35.0813 83.501C34.5001 93.8418 33.8802 104.144 33.2215 114.446C32.8728 120.255 32.4078 126.104 32.0204 131.913C32.0204 131.952 31.9429 131.952 31.9429 131.913C32.2141 126.762 32.4078 121.572 32.7178 116.382Z" fill="black"/>
<path d="M30.2769 133.191C31.2456 133.114 32.2142 133.152 33.1829 133.114C34.1515 133.114 35.1201 133.114 36.0888 133.114C38.0261 133.114 39.9634 133.152 41.9007 133.23C42.4431 133.23 42.9468 133.269 43.4892 133.269C44.0704 133.307 44.6129 133.385 45.1941 133.424C45.2328 133.424 45.2328 133.501 45.1941 133.501C44.7291 133.501 44.2642 133.579 43.7605 133.579C43.2568 133.579 42.7918 133.579 42.2881 133.579C41.3195 133.579 40.3508 133.579 39.3822 133.579C37.4449 133.579 35.5076 133.54 33.6091 133.462C32.5242 133.424 31.4005 133.385 30.3157 133.307C30.2382 133.269 30.2382 133.191 30.2769 133.191Z" fill="black"/>
<path d="M49.3009 33.811C50.8895 37.7227 57.1276 50.3873 61.2734 51.278C63.9856 51.859 74.8732 50.8133 76.7717 48.2184C77.5854 47.0952 76.1905 39.2718 74.7569 39.5817C73.2846 39.8915 64.5668 41.0534 63.4819 40.7436C62.397 40.4337 54.3379 31.1773 51.3545 28.8536C46.1625 24.9031 48.4873 31.7196 49.3009 33.811Z" fill="#FA9E84"/>
<path d="M58.8711 35.7474L52.0131 39.814C52.0131 39.814 49.1459 34.3144 47.9835 30.7125C46.8599 27.1106 47.8286 25.484 51.9744 29.0471C56.1202 32.649 58.8711 35.7474 58.8711 35.7474Z" fill="#FF2782"/>
<path d="M51.7031 38.4196C52.5943 37.7612 53.5242 37.1416 54.4928 36.5219C54.9578 36.2121 55.4227 35.9022 55.8877 35.6311C56.3914 35.3213 56.8951 35.0502 57.36 34.7403C57.3988 34.7016 57.4375 34.7791 57.3988 34.7791C56.9338 35.0889 56.5076 35.4375 56.0427 35.7473C55.5777 36.0571 55.074 36.367 54.6091 36.6768C53.6792 37.2965 52.7105 37.8774 51.7419 38.4584C51.7031 38.4584 51.7031 38.4196 51.7031 38.4196Z" fill="#263238"/>
<path d="M58.5226 55.6157L56.9727 46.8628C56.9727 46.8628 59.3362 42.7187 57.9801 39.7365C57.2827 38.2261 51.1608 28.8148 48.5649 26.9557C46.1626 25.2129 42.6368 27.0719 41.3194 28.4662C36.2825 33.7721 34.9264 43.532 33.144 57.862L58.5226 55.6157Z" fill="#FF2782"/>
<path d="M58.3676 40.5887C58.2127 39.9303 57.864 39.3881 57.5152 38.8072C57.399 38.6135 57.1278 38.1875 56.8178 37.684C56.7403 37.4516 56.6241 37.2192 56.5079 36.9869C56.3141 36.6383 56.1204 36.3285 56.0042 35.9412C56.0042 35.9024 55.9267 35.9412 55.9654 35.9799C56.1204 36.3285 56.2754 36.677 56.3916 37.0256C55.8492 36.2123 55.268 35.3602 55.0355 35.0116C54.9968 34.9729 54.958 35.0116 54.9968 35.0504C55.5392 35.7475 57.244 38.7297 57.6315 39.5043C58.0577 40.2789 58.2127 41.0922 58.2514 41.9443C58.2514 42.6414 58.0964 43.9195 57.9027 44.5779C57.864 44.6553 57.9414 44.6941 57.9802 44.6166C58.2514 43.9969 58.3677 43.3385 58.4839 42.6801C58.5226 41.9443 58.5226 41.2471 58.3676 40.5887Z" fill="#263238"/>
<path d="M48.0998 34.5854C48.0998 34.5854 46.55 32.8813 47.8286 31.9131C49.0684 30.9836 50.3471 32.9201 50.3471 32.9201L48.0998 34.5854Z" fill="#455A64"/>
<path d="M60.111 45.7394L60.4984 47.947L60.6147 48.6829L59.9173 48.373L57.8637 47.4048L48.061 34.5078L50.2695 32.8037L60.111 45.7394Z" fill="#455A64"/>
<path d="M60.4984 47.9858L60.6147 48.683L59.9172 48.3731L60.4984 47.9858Z" fill="#37474F"/>
<path d="M50.3987 32.6289L47.8093 34.6001L48.2084 35.1239L50.7978 33.1528L50.3987 32.6289Z" fill="#263238"/>
<path d="M50.8318 33.2085L48.2427 35.1797L48.6418 35.7035L51.2308 33.7323L50.8318 33.2085Z" fill="#263238"/>
<path d="M48.6423 35.67L49.4947 35.0503L52.5944 40.0464L52.2457 40.2788L48.6423 35.67Z" fill="#263238"/>
<path d="M38.9946 31.2548C32.7953 39.0394 26.0535 51.8977 29.4244 54.3377C32.5241 56.584 43.1017 53.6018 49.6497 50.5422C50.8896 49.9612 45.0002 38.9233 43.7216 39.6978C41.5131 41.0147 39.7308 41.828 39.5758 41.8667C39.2271 41.9829 41.0869 39.388 42.9854 33.3075C44.9227 27.1107 42.5592 26.8009 38.9946 31.2548Z" fill="#FA9E84"/>
<path d="M60.0723 37.8389C60.1498 39.1557 56.8951 39.117 56.8951 39.117C56.8951 39.117 57.7088 39.543 57.98 40.3951C58.29 41.3633 56.9339 42.2541 56.9339 42.2541C56.9339 42.2541 57.67 42.8738 57.8638 43.7646C58.0575 44.6941 56.8176 45.8172 56.8176 45.8172C56.8176 45.8172 57.1663 46.7467 56.7789 47.6762C56.0814 49.2254 53.4855 49.4191 51.8969 49.8451C50.1921 50.3099 47.7511 51.3168 46.7437 51.859L42.9854 40.124C42.9854 40.124 49.6884 35.5539 51.6644 35.5151C53.2917 35.5151 59.956 35.825 60.0723 37.8389Z" fill="#FA9E84"/>
<path d="M56.8564 39.0398C55.1128 38.6525 53.253 38.6525 51.4707 38.7299C51.432 38.7299 51.432 38.8074 51.4707 38.8074C53.253 38.7299 55.0741 39.156 56.8564 39.156C56.8951 39.156 56.8951 39.0785 56.8564 39.0398Z" fill="#263238"/>
<path d="M56.8564 42.0994C56.4689 42.0219 56.0427 42.0607 55.6165 42.0994C55.1903 42.1381 54.7641 42.1769 54.3379 42.2156C53.4855 42.2931 52.5944 42.4092 51.7419 42.5642C51.7032 42.5642 51.7032 42.6416 51.7419 42.6416C52.5944 42.5642 53.4855 42.4867 54.3379 42.4092C54.7641 42.3705 55.1903 42.3705 55.6553 42.3318C56.0427 42.2931 56.4689 42.3318 56.8951 42.2156C56.8951 42.1769 56.8951 42.0994 56.8564 42.0994Z" fill="#263238"/>
<path d="M56.7402 45.7785C56.3914 45.701 55.9652 45.8172 55.6553 45.856C55.2678 45.8947 54.8804 45.9721 54.4929 46.0109C53.718 46.0883 52.9043 46.2045 52.1294 46.2433C52.0907 46.2433 52.0907 46.3207 52.1294 46.3207C52.9431 46.2433 53.718 46.2045 54.5316 46.1271C54.9191 46.0883 55.3066 46.0496 55.694 46.0109C56.0427 45.9721 56.4689 45.9721 56.7402 45.8172C56.7789 45.8172 56.7402 45.7785 56.7402 45.7785Z" fill="#263238"/>
<path d="M40.8543 41.0535L34.1125 36.7932C34.1125 36.7932 37.7159 31.7196 40.3894 29.086C43.0628 26.4524 45.0001 26.5686 43.6828 31.8746C42.3654 37.1805 40.8543 41.0535 40.8543 41.0535Z" fill="#FF2782"/>
<path d="M35.2363 35.9023C36.2436 36.4058 37.2123 36.948 38.1809 37.5289C38.6459 37.8 39.1496 38.0711 39.6145 38.3422C40.1182 38.6521 40.5832 38.9619 41.0481 39.2718C41.0869 39.3105 41.0481 39.3492 41.0094 39.3105C40.5444 39.0394 40.0407 38.807 39.537 38.5359C39.0333 38.2648 38.5297 37.9549 38.0647 37.6838C37.0961 37.1416 36.1274 36.5219 35.1975 35.941C35.1975 35.9023 35.2363 35.8635 35.2363 35.9023Z" fill="#263238"/>
<path d="M40.8545 41.092C41.1645 39.9688 41.6294 38.8844 42.0169 37.7612C42.4043 36.638 42.7918 35.5149 43.1017 34.3917C43.1017 34.353 43.1405 34.3917 43.1405 34.3917C42.9855 34.9727 42.8693 35.5536 42.7143 36.0958C42.6368 36.3669 42.5593 36.638 42.4431 36.9479C42.5206 36.8317 42.5593 36.7542 42.5981 36.638C42.7918 36.3282 42.9855 36.0571 43.1792 35.786H43.218C43.063 36.0958 42.908 36.4057 42.7143 36.7155C42.5981 36.9479 42.4431 37.1415 42.2881 37.3352C42.2493 37.4901 42.1718 37.645 42.1331 37.7999C41.7844 38.9231 41.3969 40.0463 40.8545 41.0532C40.8932 41.1307 40.8545 41.1307 40.8545 41.092Z" fill="#263238"/>
<path d="M39.3433 41.9832C37.6385 42.874 35.7012 44.1908 34.6938 45.2365C34.655 45.2752 34.6938 45.3139 34.7325 45.2752C35.7399 44.4619 38.6846 42.719 39.4208 42.1768C39.6533 42.0606 39.847 41.7121 39.3433 41.9832Z" fill="#263238"/>
<path d="M69.5263 51.9753L55.8103 52.2852L61.8159 34.5857L75.5319 34.2759L69.5263 51.9753Z" fill="#EBEBEB"/>
<path d="M70.4563 51.9753L56.7402 52.2464L62.7846 34.547L76.4618 34.2759L70.4563 51.9753Z" fill="#37474F"/>
<path d="M64.2181 34.5469C64.1406 34.818 63.9468 35.1279 63.6369 35.2828C63.5206 35.3602 63.4819 35.1666 63.5981 35.1279C63.7919 35.0117 63.9081 34.8568 63.9856 34.6631C63.9856 34.6244 64.0243 34.5857 64.0243 34.5469C64.0631 34.4307 64.0631 34.3145 64.0243 34.1984C64.0243 34.1596 63.9856 34.1209 63.9468 34.0822H63.9081C63.8693 34.0822 63.8306 34.0822 63.8306 34.0822C63.7919 34.0822 63.7144 34.1209 63.6756 34.1984C63.5981 34.2758 63.5981 34.3145 63.5594 34.392C63.5206 34.4307 63.5206 34.4695 63.5206 34.5082V34.5469V34.5857C63.5206 34.5857 63.5206 34.5857 63.5206 34.6244H63.3269C63.3657 34.5082 63.4431 34.392 63.5206 34.2758C63.6369 34.0822 63.8306 33.9272 64.0243 33.9272C64.2181 33.9272 64.2956 34.0434 64.3343 34.1984C64.2956 34.2758 64.2568 34.392 64.2181 34.5469Z" fill="#C7C7C7"/>
<path d="M65.303 34.5083C65.2255 34.7795 65.0318 35.0893 64.7218 35.2442C64.6056 35.3217 64.5668 35.128 64.6831 35.0893C64.8768 34.9731 64.9931 34.8182 65.0705 34.6245C65.0705 34.5858 65.1093 34.5471 65.1093 34.5083C65.148 34.3922 65.148 34.276 65.1093 34.1598C65.1093 34.121 65.0705 34.0823 65.0318 34.0436H64.9931C64.9543 34.0436 64.9156 34.0436 64.9156 34.0436C64.8768 34.0436 64.7993 34.0823 64.7606 34.1598C64.6831 34.2372 64.6831 34.276 64.6443 34.3534C64.6056 34.3922 64.6056 34.4309 64.6056 34.4696V34.5083V34.5471C64.6056 34.5471 64.6056 34.5471 64.6056 34.5858H64.4119C64.4506 34.4696 64.5281 34.3534 64.6056 34.2372C64.7218 34.0436 64.9156 33.8887 65.1093 33.8887C65.303 33.8887 65.3805 34.0049 65.4193 34.1598C65.3418 34.2372 65.3418 34.3534 65.303 34.5083Z" fill="#C7C7C7"/>
<path d="M66.3877 34.4698C66.3102 34.7409 66.1165 35.0507 65.8066 35.2056C65.6903 35.2831 65.6516 35.0894 65.7678 35.0507C65.9615 34.9345 66.0778 34.7796 66.1553 34.586C66.1553 34.5472 66.194 34.5085 66.194 34.4698C66.2328 34.3536 66.2328 34.2374 66.194 34.1212C66.194 34.0825 66.1553 34.0437 66.1165 34.005H66.0778C66.039 34.005 66.0003 34.005 66.0003 34.005C65.9615 34.005 65.884 34.0437 65.8453 34.1212C65.7678 34.1987 65.7678 34.2374 65.7291 34.3149C65.6903 34.3536 65.6903 34.3923 65.6903 34.431V34.4698V34.5085C65.6903 34.5085 65.6903 34.5085 65.6903 34.5472H65.4966C65.5353 34.431 65.6128 34.3149 65.6903 34.1987C65.8065 34.005 66.0003 33.8501 66.194 33.8501C66.3877 33.8501 66.4652 33.9663 66.504 34.1212C66.4265 34.1987 66.4265 34.3536 66.3877 34.4698Z" fill="#C7C7C7"/>
<path d="M67.4339 34.4698C67.3564 34.7409 67.1627 35.0507 66.8527 35.2056C66.7365 35.2831 66.6977 35.0894 66.8139 35.0507C67.0077 34.9345 67.1239 34.7796 67.2014 34.586C67.2014 34.5472 67.2401 34.5085 67.2401 34.4698C67.2789 34.3536 67.2789 34.2374 67.2401 34.1212C67.2401 34.0825 67.2014 34.0437 67.1627 34.005H67.1239C67.0852 34.005 67.0464 34.005 67.0464 34.005C67.0077 34.005 66.9302 34.0437 66.8914 34.1212C66.8139 34.1987 66.8139 34.2374 66.7752 34.3149C66.7365 34.3536 66.7365 34.3923 66.7365 34.431V34.4698V34.5085C66.7365 34.5085 66.7365 34.5085 66.7365 34.5472H66.5427C66.5815 34.431 66.659 34.3149 66.7365 34.1987C66.8527 34.005 67.0464 33.8501 67.2401 33.8501C67.4339 33.8501 67.5114 33.9663 67.5501 34.1212C67.5114 34.1987 67.4726 34.3149 67.4339 34.4698Z" fill="#C7C7C7"/>
<path d="M68.5188 34.4307C68.4413 34.7018 68.2476 35.0116 67.9377 35.1666C67.8214 35.244 67.7827 35.0504 67.8989 35.0116C68.0926 34.8955 68.2089 34.7405 68.2864 34.5469C68.2864 34.5082 68.3251 34.4694 68.3251 34.4307C68.3639 34.3145 68.3639 34.1983 68.3251 34.0821C68.3251 34.0434 68.2864 34.0047 68.2476 33.966H68.2089C68.1701 33.966 68.1314 33.966 68.1314 33.966C68.0926 33.966 68.0151 34.0047 67.9764 34.0821C67.8989 34.1596 67.8989 34.1983 67.8602 34.2758C67.8214 34.3145 67.8214 34.3532 67.8214 34.392V34.4307V34.4694C67.8214 34.4694 67.8214 34.4694 67.8214 34.5082H67.6277C67.6664 34.392 67.7439 34.2758 67.8214 34.1596C67.9377 33.966 68.1314 33.811 68.3251 33.811C68.5188 33.811 68.5963 33.9272 68.6351 34.0821C68.5576 34.1596 68.5576 34.3145 68.5188 34.4307Z" fill="#C7C7C7"/>
<path d="M69.6038 34.4307C69.5263 34.7018 69.3326 35.0116 69.0226 35.1666C68.9064 35.244 68.8676 35.0504 68.9839 35.0116C69.1776 34.8955 69.2938 34.7405 69.3713 34.5469C69.3713 34.5082 69.4101 34.4694 69.4101 34.4307C69.4488 34.3145 69.4488 34.1983 69.4101 34.0821C69.4101 34.0434 69.3713 34.0047 69.3326 33.966H69.2938C69.2551 33.966 69.2163 33.966 69.2163 33.966C69.1776 33.966 69.1001 34.0047 69.0614 34.0821C68.9839 34.1596 68.9839 34.1983 68.9451 34.2758C68.9064 34.3145 68.9064 34.3532 68.9064 34.392V34.4307V34.4694C68.9064 34.4694 68.9064 34.4694 68.9064 34.5082H68.7126C68.7514 34.392 68.8289 34.2758 68.9064 34.1596C69.0226 33.966 69.2163 33.811 69.4101 33.811C69.6038 33.811 69.6813 33.9272 69.72 34.0821C69.6425 34.1596 69.6425 34.2758 69.6038 34.4307Z" fill="#C7C7C7"/>
<path d="M70.6499 34.3921C70.5725 34.6632 70.3787 34.9731 70.0688 35.128C69.9525 35.2055 69.9138 35.0118 70.03 34.9731C70.2237 34.8569 70.34 34.702 70.4175 34.5083C70.4175 34.4696 70.4562 34.4309 70.4562 34.3921C70.495 34.2759 70.495 34.1598 70.4562 34.0436C70.4562 34.0048 70.4175 33.9661 70.3787 33.9274H70.34C70.3012 33.9274 70.2625 33.9274 70.2625 33.9274C70.2237 33.9274 70.1462 33.9661 70.1075 34.0436C70.03 34.121 70.03 34.1598 69.9913 34.2372C69.9525 34.2759 69.9525 34.3147 69.9525 34.3534V34.3921V34.4309C69.9525 34.4309 69.9525 34.4309 69.9525 34.4696H69.7588C69.7975 34.3534 69.875 34.2372 69.9525 34.121C70.0688 33.9274 70.2625 33.7725 70.4562 33.7725C70.6499 33.7725 70.7274 33.8887 70.7662 34.0436C70.7274 34.121 70.6887 34.2372 70.6499 34.3921Z" fill="#C7C7C7"/>
<path d="M71.7347 34.3536C71.6572 34.6247 71.4634 34.9345 71.1535 35.0894C71.0372 35.1669 70.9985 34.9732 71.1147 34.9345C71.3085 34.8183 71.4247 34.6634 71.5022 34.4698C71.5022 34.431 71.5409 34.3923 71.5409 34.3536C71.5797 34.2374 71.5797 34.1212 71.5409 34.005C71.5409 33.9663 71.5022 33.9275 71.4634 33.8888H71.4247C71.386 33.8888 71.3472 33.8888 71.3472 33.8888C71.3085 33.8888 71.231 33.9275 71.1922 34.005C71.1147 34.0825 71.1147 34.1212 71.076 34.1986C71.0372 34.2374 71.0372 34.2761 71.0372 34.3148V34.3536V34.3923C71.0372 34.3923 71.0372 34.3923 71.0372 34.431H70.8435C70.8823 34.3148 70.9597 34.1986 71.0372 34.0825C71.1535 33.8888 71.3472 33.7339 71.5409 33.7339C71.7347 33.7339 71.8122 33.8501 71.8509 34.005C71.7734 34.0825 71.7734 34.2374 71.7347 34.3536Z" fill="#C7C7C7"/>
<path d="M72.8196 34.3536C72.7421 34.6247 72.5484 34.9345 72.2384 35.0894C72.1222 35.1669 72.0835 34.9732 72.1997 34.9345C72.3934 34.8183 72.5097 34.6634 72.5871 34.4698C72.5871 34.431 72.6259 34.3923 72.6259 34.3536C72.6646 34.2374 72.6646 34.1212 72.6259 34.005C72.6259 33.9663 72.5872 33.9275 72.5484 33.8888H72.5097C72.4709 33.8888 72.4322 33.8888 72.4322 33.8888C72.3934 33.8888 72.3159 33.9275 72.2772 34.005C72.1997 34.0825 72.1997 34.1212 72.1609 34.1986C72.1222 34.2374 72.1222 34.2761 72.1222 34.3148V34.3536V34.3923C72.1222 34.3923 72.1222 34.3923 72.1222 34.431H71.9285C71.9672 34.3148 72.0447 34.1986 72.1222 34.0825C72.2384 33.8888 72.4322 33.7339 72.6259 33.7339C72.8196 33.7339 72.8971 33.8501 72.9359 34.005C72.8584 34.0825 72.8584 34.1986 72.8196 34.3536Z" fill="#C7C7C7"/>
<path d="M73.8658 34.3145C73.7883 34.5856 73.5945 34.8954 73.2846 35.0504C73.1683 35.1278 73.1296 34.9342 73.2458 34.8954C73.4396 34.7792 73.5558 34.6243 73.6333 34.4307C73.6333 34.392 73.672 34.3532 73.672 34.3145C73.7108 34.1983 73.7108 34.0821 73.672 33.9659C73.672 33.9272 73.6333 33.8885 73.5945 33.8497H73.5558C73.517 33.8497 73.4783 33.8497 73.4783 33.8497C73.4396 33.8497 73.3621 33.8885 73.3233 33.9659C73.2458 34.0434 73.2458 34.0821 73.2071 34.1596C73.1683 34.1983 73.1683 34.237 73.1683 34.2758V34.3145V34.3532C73.1683 34.3532 73.1683 34.3532 73.1683 34.392H72.9746C73.0134 34.2758 73.0908 34.1596 73.1683 34.0434C73.2846 33.8497 73.4783 33.6948 73.672 33.6948C73.8658 33.6948 73.9432 33.811 73.982 33.9659C73.9432 34.0434 73.9045 34.1983 73.8658 34.3145Z" fill="#C7C7C7"/>
<path d="M74.9507 34.3145C74.8732 34.5856 74.6795 34.8954 74.3695 35.0504C74.2533 35.1278 74.2146 34.9342 74.3308 34.8954C74.5245 34.7792 74.6408 34.6243 74.7182 34.4307C74.7182 34.392 74.757 34.3532 74.757 34.3145C74.7957 34.1983 74.7957 34.0821 74.757 33.9659C74.757 33.9272 74.7183 33.8885 74.6795 33.8497H74.6408C74.602 33.8497 74.5633 33.8497 74.5633 33.8497C74.5245 33.8497 74.447 33.8885 74.4083 33.9659C74.3308 34.0434 74.3308 34.0821 74.292 34.1596C74.2533 34.1983 74.2533 34.237 74.2533 34.2758V34.3145V34.3532C74.2533 34.3532 74.2533 34.3532 74.2533 34.392H74.0596C74.0983 34.2758 74.1758 34.1596 74.2533 34.0434C74.3695 33.8497 74.5633 33.6948 74.757 33.6948C74.9507 33.6948 75.0282 33.811 75.067 33.9659C74.9895 34.0434 74.9895 34.1596 74.9507 34.3145Z" fill="#C7C7C7"/>
<path d="M76.0354 34.2759C75.9579 34.547 75.7642 34.8569 75.4543 35.0118C75.338 35.0892 75.2993 34.8956 75.4155 34.8569C75.6092 34.7407 75.7255 34.5858 75.803 34.3921C75.803 34.3534 75.8417 34.3147 75.8417 34.2759C75.8805 34.1597 75.8805 34.0435 75.8417 33.9274C75.8417 33.8886 75.803 33.8499 75.7642 33.8112H75.7255C75.6867 33.8112 75.648 33.8112 75.648 33.8112C75.6092 33.8112 75.5317 33.8499 75.493 33.9274C75.4155 34.0048 75.4155 34.0435 75.3768 34.121C75.338 34.1597 75.338 34.1985 75.338 34.2372V34.2759V34.3147C75.338 34.3147 75.338 34.3147 75.338 34.3534H75.1443C75.183 34.2372 75.2605 34.121 75.338 34.0048C75.4543 33.8112 75.648 33.6562 75.8417 33.6562C76.0354 33.6562 76.1129 33.7724 76.1517 33.9274C76.0742 34.0048 76.0742 34.1597 76.0354 34.2759Z" fill="#C7C7C7"/>
<path d="M75.6093 38.2651C76.268 39.7756 77.9728 41.7121 78.0503 42.9127C78.1278 43.9971 77.1979 44.3457 77.1979 44.3457C77.1979 44.3457 78.399 45.0041 78.2828 46.1273C78.244 46.7082 77.2754 47.1342 77.2754 47.1342C77.2754 47.1342 78.2053 47.7152 78.0503 48.6834C77.9341 49.458 77.0042 49.7679 77.0042 49.7679C77.0042 49.7679 77.6241 50.7361 77.2754 51.5107C76.5005 53.0599 69.6425 52.7888 68.7126 50.2326C68.2476 49.032 69.9524 49.1869 69.9524 49.1869C69.9524 49.1869 67.5889 48.3736 67.6277 46.9793C67.6664 45.5463 69.7974 45.8949 69.7974 45.8949C69.7974 45.8949 67.5114 45.0816 67.7052 43.6486C67.8989 42.1381 69.9912 42.8352 69.9912 42.8352C69.9912 42.8352 68.5188 41.7508 68.9063 40.6664C69.5262 38.8461 72.3547 41.2861 73.8658 40.9762L74.7957 38.5362L75.6093 38.2651Z" fill="#FA9E84"/>
<path d="M76.8879 40.4728C76.3842 39.001 78.2827 37.2582 78.0115 35.7477C77.6628 33.7338 75.338 35.5928 74.7181 38.4975L74.6406 40.8213L76.8879 40.4728Z" fill="#FA9E84"/>
<path d="M76.8493 49.8841C76.8881 49.8841 76.8881 49.9229 76.8493 49.8841C74.5633 50.3876 71.9286 50.194 69.7976 49.2257C69.7201 49.187 69.7589 49.0708 69.8364 49.0708C72.2386 49.6517 74.4084 50.0003 76.8493 49.8841Z" fill="#263238"/>
<path d="M77.3142 47.1727C77.353 47.1727 77.353 47.2115 77.3142 47.2115C74.9507 47.6762 72.006 47.3664 69.6813 45.9721C69.6038 45.9334 69.565 45.8172 69.6813 45.8559C71.2699 46.6693 75.1057 47.2889 77.3142 47.1727Z" fill="#263238"/>
<path d="M69.7975 42.6803C72.0835 43.9584 74.5245 44.3457 77.1204 44.3844C77.1592 44.3844 77.1592 44.4231 77.1204 44.4231C75.8418 44.733 74.2145 44.5393 72.9359 44.2682C71.7348 43.9971 70.6886 43.5323 69.7587 42.719C69.72 42.719 69.7587 42.6415 69.7975 42.6803Z" fill="#263238"/>
<path d="M44.148 26.5685C44.2255 26.9945 47.2477 29.5894 49.1462 29.5119C49.7662 29.4732 48.72 26.1812 48.72 26.1812L48.7588 25.9488L49.5337 22.4631L45.4266 19.8295L44.8454 19.481C44.8454 19.481 44.6904 20.4492 44.5355 21.6498C44.5355 21.6885 44.5355 21.766 44.4967 21.8047C44.4967 21.8822 44.458 21.9209 44.458 21.9984C44.4192 22.192 44.4192 22.347 44.3805 22.5406C44.3805 22.6955 44.3417 22.8117 44.3417 22.9666C44.3417 23.1215 44.303 23.2765 44.303 23.3927C44.148 24.8644 44.1093 26.3748 44.148 26.5685Z" fill="#FA9E84"/>
<path d="M44.5354 21.6498C45.5428 24.3996 47.7513 25.5615 48.7587 25.9488L49.5336 22.4631L45.4266 19.8295L44.8454 19.481C44.8454 19.481 44.6904 20.4492 44.5354 21.6498Z" fill="black"/>
<path d="M54.9193 18.0867C54.4543 24.3222 50.6572 24.7482 49.3011 24.6707C48.0612 24.5545 43.9154 24.0898 43.7605 17.8156C43.5667 11.5414 46.6276 9.79852 49.4561 9.87598C52.2458 9.95344 55.3842 11.8512 54.9193 18.0867Z" fill="#FA9E84"/>
<path d="M43.9155 17.3894C45.3878 17.6605 45.7365 15.298 45.7365 15.298C45.7365 15.298 47.4413 15.4142 47.9838 12.7419C47.9838 12.7419 48.5262 14.4847 50.7347 15.1818C51.1997 15.3368 49.8048 13.8263 49.8048 13.8263C49.8048 13.8263 51.4321 15.879 55.1517 15.8015C55.423 15.8015 55.5005 11.9286 52.9045 10.1857C50.2698 8.52035 47.6351 8.83019 45.6203 10.3019C45.6203 10.3019 43.9155 10.7667 43.373 12.6644C42.8306 14.6009 43.3343 17.312 43.9155 17.3894Z" fill="black"/>
<path d="M44.8066 17.9705C44.8066 17.9705 43.7605 15.8017 42.8306 16.1502C41.8619 16.4988 42.4431 19.4423 43.4118 19.9845C44.3804 20.5267 44.9228 19.6359 44.9228 19.6359L44.8066 17.9705Z" fill="#FA9E84"/>
<path d="M42.9856 17.0024C43.6443 17.4285 43.9155 18.1643 44.0705 18.9002C43.9155 18.5904 43.6443 18.3967 43.2181 18.5904C43.1793 18.5904 43.2181 18.6291 43.2181 18.6291C43.528 18.6291 43.7218 18.7065 43.8768 18.9777C43.993 19.1713 44.0705 19.4037 44.1092 19.5973C44.148 19.6748 44.2642 19.6361 44.2255 19.5586C44.4579 18.6678 43.9542 17.2348 42.9856 17.0024Z" fill="black"/>
<path d="M53.8345 16.8474C53.6795 16.8087 53.5632 16.77 53.4083 16.6925C53.2533 16.6151 53.137 16.6151 53.0208 16.4601C52.9821 16.3827 52.9821 16.2665 53.0596 16.189C53.2145 16.0341 53.4083 16.0728 53.602 16.1503C53.7957 16.2278 53.9507 16.3052 54.0669 16.4989C54.1832 16.6925 53.9895 16.8862 53.8345 16.8474Z" fill="black"/>
<path d="M49.8047 16.2666C49.9597 16.2666 50.0759 16.2666 50.2309 16.2279C50.3859 16.2279 50.5409 16.2279 50.6571 16.1117C50.7346 16.073 50.7346 15.9181 50.6958 15.8406C50.5796 15.647 50.3859 15.647 50.1921 15.647C49.9597 15.647 49.8047 15.7244 49.6497 15.8406C49.4947 15.9955 49.611 16.2666 49.8047 16.2666Z" fill="black"/>
<path d="M50.5023 17.9321C50.4636 17.9321 50.4636 17.9709 50.5023 17.9321C50.4248 18.3969 50.3086 18.8616 49.9211 18.9778V19.0166C50.3861 18.9778 50.5023 18.3582 50.5023 17.9321Z" fill="black"/>
<path d="M50.1536 17.4675C49.4949 17.3513 49.2624 18.7069 49.8823 18.823C50.5023 18.9392 50.7348 17.5837 50.1536 17.4675Z" fill="black"/>
<path d="M49.8823 17.506C49.7661 17.5835 49.6111 17.6996 49.4561 17.6609C49.3011 17.6609 49.1849 17.506 49.1074 17.3511H49.0686C49.0299 17.6222 49.0686 17.8933 49.3399 17.9708C49.5723 18.0482 49.8048 17.8546 49.921 17.5835C49.9598 17.5447 49.921 17.4673 49.8823 17.506Z" fill="black"/>
<path d="M52.7882 18.2808L52.827 18.3195C52.7495 18.7455 52.7108 19.249 53.0595 19.4427V19.4814C52.5945 19.3265 52.6333 18.6681 52.7882 18.2808Z" fill="black"/>
<path d="M53.2148 17.8934C53.9122 17.9709 53.7185 19.3264 53.0985 19.2489C52.4786 19.2102 52.6723 17.8547 53.2148 17.8934Z" fill="black"/>
<path d="M53.4857 18.0484C53.6019 18.1259 53.6794 18.2808 53.7957 18.3195C53.9507 18.3582 54.0669 18.2033 54.1831 18.0871H54.2219C54.1831 18.3582 54.0669 18.6293 53.8344 18.6293C53.6019 18.6293 53.447 18.397 53.447 18.1259C53.4082 18.0484 53.447 18.0097 53.4857 18.0484Z" fill="black"/>
<path d="M49.9598 21.3403C50.0373 21.4565 50.1148 21.6114 50.2698 21.6502C50.4248 21.6889 50.5798 21.6502 50.7347 21.6502C50.7347 21.6502 50.7735 21.6502 50.7347 21.6889C50.5798 21.8438 50.3473 21.8825 50.1535 21.8051C49.9598 21.7276 49.9211 21.534 49.8823 21.3791C49.9211 21.3403 49.9598 21.3403 49.9598 21.3403Z" fill="black"/>
<path d="M51.9359 20.1009C51.9359 20.1009 51.9359 20.7593 51.8971 21.0304C51.8971 21.0691 51.8197 21.0691 51.7034 21.0691C51.161 21.0691 50.6573 20.798 50.4248 20.3332C50.4248 20.2945 50.4636 20.2945 50.4636 20.2945C50.8123 20.6431 51.2385 20.7593 51.7034 20.8367C51.7422 20.7593 51.6647 19.7523 51.7034 19.7523C51.8584 19.7523 52.1684 19.9072 52.3621 19.9847C52.4008 18.6291 52.2459 17.3123 52.3233 15.9568C52.3233 15.9181 52.4008 15.9181 52.4008 15.9568C52.6721 17.351 52.6333 18.9002 52.6333 20.2558C52.6333 20.4494 52.0521 20.1396 51.9359 20.1009Z" fill="black"/>
<path d="M51.5483 20.8752C51.5483 20.8752 51.2383 21.1851 50.8896 21.3013C50.7734 21.34 50.6184 21.34 50.4634 21.3013C50.1534 21.1851 50.1922 20.914 50.2697 20.6816C50.3472 20.4879 50.4247 20.333 50.4247 20.333C50.4247 20.333 50.8509 20.759 51.5483 20.8752Z" fill="black"/>
<path d="M50.8896 21.2627C50.7734 21.3015 50.6184 21.3015 50.4634 21.2627C50.1534 21.1466 50.1922 20.8754 50.2697 20.6431C50.5797 20.6818 50.8896 20.9529 50.8896 21.2627Z" fill="#FF9CBD"/>
<path d="M54.8031 11.89C54.0669 11.7351 50.0761 11.8512 48.2938 12.6258C46.5115 13.4004 43.2956 15.9953 43.1406 16.1115C42.9856 16.2664 42.172 9.64365 47.5189 8.44303C53.3308 7.12622 54.8031 11.89 54.8031 11.89Z" fill="#FF2782"/>
<path d="M43.4507 15.8405C43.4507 15.8405 46.9766 11.1542 48.9526 10.1085C50.9286 9.02403 55.3457 8.44308 58.0579 9.6437C60.1889 10.5732 54.9969 13.323 54.9969 13.323C54.9969 13.323 54.842 12.5484 54.1833 12.2773C52.8659 11.7351 50.3474 12.1611 48.9138 12.6259C47.054 13.2456 43.4507 15.8405 43.4507 15.8405Z" fill="#FFC727"/>
<path d="M43.4507 15.8405C43.4507 15.8405 46.9766 11.1542 48.9526 10.1085C50.9286 9.02403 55.3457 8.44308 58.0579 9.6437C60.1889 10.5732 54.9969 13.323 54.9969 13.323C54.9969 13.323 54.842 12.5484 54.1833 12.2773C52.8659 11.7351 50.3474 12.1611 48.9138 12.6259C47.054 13.2456 43.4507 15.8405 43.4507 15.8405Z" fill="#85083C"/>
<path d="M48.72 26.1814L47.8676 29.0474L44.1092 25.8716L43.2568 27.0722C43.2568 27.0722 47.1314 32.3007 47.1314 32.0296L48.0613 29.5509L49.8436 31.0614L49.3012 26.9173L48.72 26.1814Z" fill="#FF2782"/>
<path d="M49.6885 29.009C49.5723 28.3118 49.4948 27.6534 49.3398 26.9563C49.3398 26.9176 49.3011 26.9176 49.3011 26.9563C49.2236 27.6147 49.6498 30.2483 49.7273 30.868C49.6498 30.7905 48.0612 29.5512 48.0612 29.5899C47.8675 29.9772 47.17 31.7975 47.1313 31.9524C46.5114 31.1391 44.1866 28.1182 43.4892 27.3436C43.4504 27.3049 43.4504 27.3436 43.4504 27.3823C43.9929 28.2731 47.0925 32.3397 47.1313 32.301C47.17 32.301 47.9837 30.0934 48.0999 29.6674C48.3712 29.9385 49.9985 31.3715 49.9985 31.2553C49.8822 30.5582 49.766 29.7061 49.6885 29.009Z" fill="black"/>
</g>
<defs>
<clipPath id="clip0">
<rect width="162.5" height="150" fill="white" transform="translate(24)"/>
</clipPath>
</defs>
</svg>
