<svg width="211" height="150" viewBox="0 0 211 150" fill="none" xmlns="http://www.w3.org/2000/svg">
<g clip-path="url(#clip0)">
<rect x="31" width="148.052" height="150" rx="74.0262" fill="#E9F1FF"/>
<path d="M25.6651 72.1001H174.081C178.095 72.1001 181.423 75.3936 181.423 79.442V137.697C181.423 141.711 178.129 145.039 174.081 145.039H25.6651C21.6511 145.039 18.3232 141.745 18.3232 137.697V79.442C18.3576 75.3936 21.6511 72.1001 25.6651 72.1001Z" fill="#D6CECE"/>
<path d="M34.4136 118.381H24.0183V123.15H34.4136V118.381Z" fill="#EFEFEF"/>
<path d="M167.048 100.918H156.652V105.687H167.048V100.918Z" fill="#EFEFEF"/>
<path d="M178.609 108.5H168.214V113.269H178.609V108.5Z" fill="#EFEFEF"/>
<path d="M164.097 111.657H153.702V116.426H164.097V111.657Z" fill="#EFEFEF"/>
<path d="M177.134 126.135H166.739V130.904H177.134V126.135Z" fill="#EFEFEF"/>
<path d="M33.5903 77.1777H23.1951V81.9465H33.5903V77.1777Z" fill="#EFEFEF"/>
<path d="M41.584 125.346H31.1887V130.115H41.584V125.346Z" fill="#EFEFEF"/>
<path d="M39.8342 111.932H29.439V116.7H39.8342V111.932Z" fill="#EFEFEF"/>
<path d="M21.5481 157.252L93.3544 152.243C93.3544 152.243 78.9794 124.179 61.551 121.194L60.9335 110.765C60.8992 110.285 60.7963 109.873 60.659 109.461C63.8153 107.128 66.9374 104.624 67.2461 103.595C67.3147 103.32 67.4177 102.84 67.4863 102.222C68.1038 102.497 68.7557 102.668 69.4761 102.668C72.4266 102.737 74.8625 100.404 74.9654 97.4191C75.0683 94.4343 72.7354 91.9299 69.8192 91.8612C69.2017 91.8269 68.6184 91.9299 68.0695 92.1014C68.1724 88.7049 68.2411 85.8231 68.2068 85.5829C67.6578 76.3884 59.8699 69.3896 50.8127 70.0072C41.7554 70.5904 34.8938 78.5498 35.4428 87.7443C35.5114 88.6706 35.6486 89.5969 35.8202 90.4889C35.9574 91.3466 36.1632 92.7533 36.4377 94.4C35.8545 94.2971 35.2712 94.2971 34.6537 94.4C31.7718 94.9147 29.8163 97.6936 30.2966 100.644C30.7769 103.595 33.5215 105.55 36.4377 105.07C37.1239 104.967 37.7414 104.692 38.2903 104.349C38.4276 104.864 38.5305 105.241 38.6334 105.481C39.0451 106.442 42.373 108.466 45.8037 110.319C45.6665 110.799 45.6322 111.279 45.6665 111.794L46.2497 121.435C43.0248 122.704 26.111 130.56 21.5481 157.252Z" fill="#C1B6B6"/>
<path d="M104.127 129.531L174.938 142.5C174.938 142.5 167.974 111.76 151.815 104.521L153.805 94.2629C153.908 93.8169 153.908 93.3709 153.873 92.9249C157.51 91.4497 161.147 89.8029 161.695 88.8766C161.833 88.6364 162.039 88.1904 162.244 87.6072C162.759 88.0189 163.377 88.3276 164.028 88.5335C166.842 89.3569 169.826 87.6758 170.65 84.7939C171.473 81.9121 169.861 78.9273 167.048 78.1382C166.464 77.9667 165.881 77.8981 165.298 77.9324C166.258 74.6731 167.013 71.8942 167.048 71.654C168.797 62.5968 162.965 53.9169 154.079 52.2358C145.159 50.5547 136.548 56.5586 134.798 65.6159C134.627 66.5422 134.524 67.4685 134.489 68.3605C134.421 69.2182 134.249 70.6591 134.112 72.3059C133.597 72.0657 133.014 71.9285 132.397 71.8599C129.48 71.6197 126.873 73.8497 126.633 76.8345C126.393 79.8193 128.554 82.3924 131.47 82.6325C132.156 82.7012 132.808 82.5982 133.426 82.4267C133.426 82.9413 133.426 83.353 133.494 83.5932C133.666 84.6567 136.376 87.4013 139.224 90.0773C138.984 90.489 138.812 90.9693 138.709 91.4497L136.891 100.919C133.494 101.365 115.174 104.795 104.127 129.531Z" fill="#C1B6B6"/>
<path d="M61.4824 120.097C64.0212 121.263 66.7658 121.675 69.5104 121.881C72.4609 122.087 75.4114 122.189 78.3618 122.292C89.2031 122.704 100.079 122.738 110.92 122.498C116.375 122.361 121.83 122.155 127.25 121.846C132.328 121.572 137.543 121.366 142.38 119.582C142.483 119.548 142.62 119.445 142.655 119.308C142.758 118.587 142.826 117.832 142.792 117.112C142.723 115.671 142.346 114.23 141.66 112.961C141.008 111.691 140.082 110.628 139.155 109.598C138.263 108.569 137.337 107.506 136.788 106.236C136.205 104.864 136.102 103.354 136.136 101.914C136.205 99.0317 136.822 96.0469 135.827 93.268C134.935 90.7978 133.049 88.9109 131.642 86.7838C130.921 85.6859 130.304 84.5195 130.029 83.2158C129.755 81.8435 129.892 80.4025 130.132 79.0645C130.647 76.3199 131.676 73.6782 131.813 70.865C131.882 69.4926 131.676 68.1546 131.162 66.8852C130.647 65.5815 129.926 64.4151 129.172 63.2486C128.417 62.0478 127.594 60.8814 127.01 59.612C126.702 58.9601 126.496 58.3083 126.29 57.6221C126.221 57.2447 126.153 56.833 126.05 56.4557C125.878 55.7352 125.672 55.0147 125.466 54.3286C125.192 53.0935 124.849 51.8584 124.369 50.6576C123.854 49.3883 123.236 48.1875 122.516 47.0553C121.006 44.7567 119.051 42.8011 116.752 41.2916C116.615 41.1887 116.478 41.2916 116.444 41.4288C114.008 40.0908 111.229 39.2674 108.587 38.7185C106.22 38.2382 103.818 37.998 101.382 37.998C99.0838 37.998 96.7165 38.1696 94.6581 39.2331C92.7711 40.1938 91.2959 41.7376 89.855 43.2471C88.3111 44.8253 86.8016 46.4378 85.3949 48.1189C83.9883 49.7999 82.6503 51.5496 81.5525 53.4366C80.4203 55.3235 79.6312 57.3477 78.9108 59.4061C78.1903 61.4646 77.4355 63.5231 76.1318 65.3071C74.8967 66.9882 73.3529 68.3948 72.0492 70.0073C70.7798 71.6197 69.8535 73.4037 69.3732 75.4279C68.9272 77.3834 68.8243 79.4076 68.7899 81.3975C68.7556 85.5487 69.0301 89.8372 67.2118 93.714C66.3198 95.6352 65.1533 97.4192 64.4672 99.4091C63.7124 101.673 63.8839 104.041 64.0898 106.374C64.2956 108.706 64.3642 111.005 63.8839 113.304C63.4036 115.499 62.5802 117.592 61.3795 119.479C61.1736 119.651 61.2422 119.994 61.4824 120.097Z" fill="#FDE000"/>
<path d="M126.221 66.3023C124.815 66.0965 123.408 66.3023 122.207 66.8856L120.389 78.4816C121.35 79.4079 122.619 80.0255 124.026 80.2656C127.799 80.8489 131.367 78.2072 131.985 74.3304C132.568 70.4879 129.995 66.8856 126.221 66.3023Z" fill="#E8775D"/>
<path d="M128.829 70.5566L122.448 76.286L125.981 76.1488" stroke="#2B292E" stroke-miterlimit="10" stroke-linecap="round" stroke-linejoin="round"/>
<path d="M80.3173 63.8664C81.7582 63.7977 83.0962 64.1751 84.2284 64.8956L84.7087 76.5946C83.6452 77.418 82.3072 77.8983 80.8662 77.9669C77.0237 78.1384 73.7988 75.1537 73.6616 71.2426C73.49 67.3658 76.4748 64.0722 80.3173 63.8664Z" fill="#E8775D"/>
<path d="M77.2295 67.8462L82.9246 74.1931L79.4252 73.7128" stroke="#2B292E" stroke-miterlimit="10" stroke-linecap="round" stroke-linejoin="round"/>
<path d="M104.573 116.632L96.1677 116.186C92.8398 116.014 90.301 113.098 90.4726 109.736L91.5018 91.6557C91.7076 88.2935 94.5895 85.6518 97.8831 85.8233L106.288 86.2693C109.616 86.4409 112.155 89.357 111.984 92.7192L110.954 110.799C110.748 114.162 107.901 116.803 104.573 116.632Z" fill="#E8775D"/>
<path d="M125.604 60.3327C126.324 48.0161 117.061 37.4836 104.95 36.8661C92.8397 36.2143 82.4445 45.7175 81.724 58.034C81.6554 59.3034 81.6897 60.5385 81.8269 61.7393C81.9642 65.8219 82.4788 79.6823 83.1992 82.1524C83.7825 84.108 91.9477 89.8374 97.2311 93.3711C100.01 95.2237 103.578 95.3953 106.529 93.8171C112.121 90.8323 120.698 85.9949 121.487 84.1423C122.722 81.3634 125.569 61.1904 125.604 60.3327Z" fill="#FA9E84"/>
<path d="M90.1293 66.3022C90.0263 67.4344 90.7811 68.4293 91.8447 68.5322C92.9082 68.6352 93.8688 67.8118 93.9717 66.6796C94.0747 65.5475 93.3199 64.5525 92.2564 64.4496C91.1928 64.3467 90.2322 65.1701 90.1293 66.3022Z" fill="black"/>
<path d="M82.8904 72.5465C82.6845 74.6393 85.3949 76.5948 88.9286 76.9379C92.4623 77.281 95.5157 75.8744 95.7215 73.7816C95.9274 71.6888 93.217 69.7333 89.6833 69.3902C86.1496 69.0128 83.0962 70.4537 82.8904 72.5465Z" fill="#FF7C67"/>
<path d="M108.793 73.5755C108.587 75.6683 111.297 77.6238 114.831 77.9669C118.365 78.31 121.418 76.9034 121.624 74.8106C121.83 72.7178 119.119 70.7623 115.586 70.4192C112.018 70.0761 108.999 71.4827 108.793 73.5755Z" fill="#FF7C67"/>
<path d="M113.802 66.9198C113.767 68.052 112.91 68.944 111.846 68.944C110.783 68.944 109.925 68.0176 109.959 66.8855C109.994 65.7533 110.851 64.8613 111.915 64.8613C112.944 64.8613 113.802 65.7876 113.802 66.9198Z" fill="black"/>
<path d="M109.616 61.5335C109.616 61.5335 115.757 59.2006 118.399 64.6898" stroke="#FDE000" stroke-width="2" stroke-miterlimit="10" stroke-linecap="round" stroke-linejoin="round"/>
<path d="M96.2362 61.3278C96.2362 61.3278 90.5755 57.9999 87.0417 62.9402" stroke="#FDE000" stroke-width="2" stroke-miterlimit="10" stroke-linecap="round" stroke-linejoin="round"/>
<path d="M110.371 76.3543C109.307 74.536 106.254 73.1294 102.652 72.9578C99.2896 72.8206 96.3391 73.7812 94.9325 75.2908L82.4102 74.4674C82.616 78.0011 82.8905 81.0888 83.1992 82.1523C83.7825 84.1079 91.9477 89.8373 97.2311 93.371C100.01 95.2236 103.578 95.3951 106.529 93.817C112.121 90.8322 120.698 85.9948 121.487 84.1422C121.864 83.2502 122.447 80.5055 123.031 77.1777L110.371 76.3543Z" fill="#8AC599"/>
<path d="M82.4102 74.4676C82.5474 74.399 94.9325 75.291 94.9325 75.291C94.9325 75.291 102.206 69.1499 110.371 76.3202L123.065 77.1779" stroke="white" stroke-width="2" stroke-miterlimit="10" stroke-linecap="round" stroke-linejoin="round"/>
<path d="M105.191 76.972C105.191 76.972 102.069 74.5019 99.0496 76.7662L105.191 76.972Z" fill="#73A87E"/>
<path d="M95.3059 73.8207C99.1573 72.328 101.069 67.9956 99.5765 64.1443C98.0837 60.2929 93.7514 58.3809 89.9 59.8737C86.0487 61.3665 84.1367 65.6988 85.6295 69.5502C87.1223 73.4015 91.4546 75.3135 95.3059 73.8207Z" fill="#DBCECE" fill-opacity="0.34"/>
<path d="M95.3059 73.8207C99.1573 72.328 101.069 67.9956 99.5765 64.1443C98.0837 60.2929 93.7514 58.3809 89.9 59.8737C86.0487 61.3665 84.1367 65.6988 85.6295 69.5502C87.1223 73.4015 91.4546 75.3135 95.3059 73.8207Z" stroke="#2B292E" stroke-miterlimit="10" stroke-linecap="round" stroke-linejoin="round"/>
<path d="M120.498 67.9027C120.621 63.7738 117.374 60.3268 113.245 60.2037C109.116 60.0806 105.669 63.328 105.546 67.457C105.423 71.5859 108.67 75.0329 112.799 75.156C116.928 75.2791 120.375 72.0317 120.498 67.9027Z" fill="#DBCECE" fill-opacity="0.34"/>
<path d="M120.498 67.9027C120.621 63.7738 117.374 60.3268 113.245 60.2037C109.116 60.0806 105.669 63.328 105.546 67.457C105.423 71.5859 108.67 75.0329 112.799 75.156C116.928 75.2791 120.375 72.0317 120.498 67.9027Z" stroke="#2B292E" stroke-miterlimit="10" stroke-linecap="round" stroke-linejoin="round"/>
<path d="M85.1548 66.5423L81.5525 63.9692" stroke="#2B292E" stroke-miterlimit="10" stroke-linecap="round" stroke-linejoin="round"/>
<path d="M124.54 66.165L120.458 68.0177" stroke="#2B292E" stroke-miterlimit="10" stroke-linecap="round" stroke-linejoin="round"/>
<path d="M105.534 67.3661C105.534 67.3661 102.309 65.1361 100.044 67.126" stroke="#2B292E" stroke-miterlimit="10" stroke-linecap="round" stroke-linejoin="round"/>
<path d="M81.4153 57.828C82.1358 45.5115 92.9084 35.9396 105.053 36.5915C117.164 37.2433 127.251 47.6386 126.53 59.9894C126.496 60.8471 126.153 64.0721 125.844 65.9933C122.55 64.6553 123.923 58.7543 123.923 58.7543C109.445 61.6019 95.4472 41.6004 95.4472 41.6004C94.9669 56.3871 80.9693 63.5917 80.935 63.5917C80.9007 62.8713 81.0379 62.288 81.0036 61.7734C80.9007 60.607 81.3467 59.0974 81.4153 57.828Z" fill="#FDE000"/>
<path d="M93.3885 40.4681C93.3542 40.1936 93.0111 40.2279 92.9768 40.4681C92.8739 41.1886 92.8395 41.909 92.7023 42.6638C92.5651 43.3843 92.3935 44.0704 92.1877 44.7909C91.776 46.1632 91.1585 47.5012 90.4723 48.7706C88.9971 51.4466 87.0415 53.7452 84.9144 55.9409C84.3312 56.5585 83.7137 57.176 83.1304 57.7936C82.8217 58.1023 82.5472 58.3768 82.2384 58.6856C81.9297 58.9943 81.5866 59.2688 81.3464 59.6462C81.2435 59.7834 81.4493 59.9893 81.5866 59.8863C82.2041 59.4403 82.753 58.8571 83.302 58.3425C83.8852 57.7936 84.4341 57.2446 84.983 56.6957C86.0809 55.5979 87.1444 54.4314 88.1394 53.2306C90.0263 50.8977 91.6388 48.2903 92.5994 45.4427C92.8395 44.6537 93.0797 43.8646 93.2169 43.0412C93.3199 42.1492 93.4571 41.2915 93.3885 40.4681Z" fill="#FCAE00"/>
<path d="M119.462 55.4608C118.673 55.0834 117.85 54.7747 117.061 54.4316C116.272 54.0885 115.517 53.7111 114.728 53.3337C113.184 52.5447 111.675 51.687 110.234 50.7263C107.352 48.8051 104.676 46.5408 102.343 44.002C101.039 42.5611 99.8384 40.9143 99.3581 38.9931C99.3238 38.7872 99.015 38.8901 99.0493 39.096C99.3924 40.8114 100.319 42.3209 101.417 43.6589C102.549 45.0312 103.818 46.2663 105.122 47.4328C107.763 49.8 110.68 51.8242 113.836 53.4367C114.694 53.8827 115.586 54.2944 116.478 54.706C117.404 55.0834 118.33 55.4951 119.291 55.7353C119.497 55.7353 119.6 55.5294 119.462 55.4608Z" fill="#FCAE00"/>
<path d="M122.893 50.6237C122.688 50.4178 122.447 50.2806 122.207 50.1091C121.933 49.9375 121.658 49.7317 121.384 49.5601C120.869 49.2171 120.389 48.874 119.874 48.5309C118.845 47.8447 117.85 47.1243 116.855 46.4038C114.865 44.9629 112.944 43.4876 111.023 41.9438C110.543 41.5664 110.097 41.189 109.651 40.743C109.445 40.5372 109.273 40.3313 109.136 40.0912C108.964 39.851 108.861 39.6109 108.69 39.3707C108.621 39.3021 108.518 39.3707 108.518 39.4393C108.45 39.9196 108.793 40.3999 109.067 40.7773C109.41 41.189 109.788 41.5664 110.199 41.8752C111.16 42.6643 112.155 43.4533 113.116 44.2424C115.071 45.7863 117.095 47.2272 119.154 48.6338C119.737 49.0112 120.32 49.3886 120.904 49.766C121.212 49.9718 121.521 50.1434 121.83 50.3492C122.139 50.5208 122.413 50.7266 122.722 50.8638C122.893 51.0011 123.031 50.7609 122.893 50.6237Z" fill="#FCAE00"/>
<path d="M73.4214 82.0836C73.0784 80.4368 72.701 78.8243 72.4265 77.1776C72.1864 75.7366 71.8776 74.1242 72.255 72.6832C72.3579 72.3058 72.4951 71.9971 72.7353 71.6883C72.8039 71.5854 72.6324 71.4138 72.5294 71.5511C71.6374 72.7175 71.5345 74.2271 71.6717 75.6337C71.8433 77.2805 72.1864 78.8929 72.5294 80.4711C73.1813 83.6274 73.936 86.9553 73.3528 90.1802C73.0784 91.7241 72.4265 93.1307 71.6374 94.503C70.8827 95.7724 70.025 97.0075 69.4417 98.4141C68.7899 99.958 68.687 101.605 68.7556 103.286C68.8242 105.104 68.9614 106.922 69.0643 108.741C69.1673 110.559 69.2702 112.412 69.3731 114.23C69.476 116.048 69.5446 117.867 69.7162 119.685C69.7505 120.131 69.7848 120.611 69.8534 121.057C69.8877 121.297 70.2308 121.297 70.2308 121.057C70.1279 117.455 69.922 113.818 69.7162 110.216C69.6133 108.398 69.5103 106.579 69.4074 104.761C69.3045 103.046 69.133 101.262 69.6133 99.5806C70.025 98.174 70.814 96.9046 71.6031 95.6695C72.3922 94.3658 73.1813 93.0621 73.6273 91.6212C74.5536 88.4648 74.0733 85.2056 73.4214 82.0836Z" fill="#FCAE00"/>
<path d="M78.5676 97.9341C79.6311 95.4296 81.0721 93.0281 81.4838 90.3178C81.9298 87.3673 81.2436 84.4168 80.1114 81.7065C79.9742 81.3634 79.837 81.0547 79.6654 80.7116C79.5625 80.5057 79.2537 80.6773 79.3567 80.8831C80.4888 83.5591 81.3465 86.5096 81.0721 89.4601C80.8319 92.2047 79.4596 94.6749 78.3617 97.145C77.8128 98.3458 77.3325 99.5809 77.058 100.885C76.7836 102.154 76.7493 103.423 76.8522 104.693C77.058 107.3 77.7785 109.805 78.3274 112.343C78.6019 113.613 78.8421 114.882 78.9107 116.152C78.9793 117.421 78.9107 118.656 78.6362 119.891C78.5676 120.2 78.499 120.509 78.396 120.817C78.3274 121.023 78.6362 121.092 78.7048 120.92C79.6654 118.519 79.4596 115.911 79.0136 113.407C78.5333 110.834 77.7442 108.295 77.4354 105.688C77.2639 104.418 77.2296 103.115 77.4011 101.811C77.5727 100.473 78.0187 99.1692 78.5676 97.9341Z" fill="#FCAE00"/>
<path d="M86.4583 102.257C87.0073 101.227 87.6591 100.267 88.1394 99.2033C88.6197 98.1741 88.8599 97.0419 88.8599 95.9098C88.8256 93.1994 87.4533 90.7293 86.1496 88.465C86.0123 88.2248 85.6693 88.4307 85.8065 88.6708C86.9387 90.7636 88.1051 92.9936 88.311 95.4295C88.4139 96.5959 88.208 97.7281 87.762 98.8259C87.316 99.8895 86.6642 100.884 86.081 101.879C84.0225 105.619 83.302 110.01 83.9539 114.196C84.297 116.563 85.1203 118.862 86.3554 120.886C86.4927 121.092 86.8014 120.92 86.6985 120.68C84.64 116.906 83.8166 112.515 84.4685 108.261C84.7773 106.168 85.4634 104.109 86.4583 102.257Z" fill="#FCAE00"/>
<path d="M124.094 106.957C123.511 104.59 122.173 102.566 121.109 100.404C120.046 98.3114 119.428 96.0128 119.325 93.6455C119.188 91.0381 119.634 88.3621 120.732 85.9949C120.801 85.8233 120.561 85.6861 120.492 85.8576C118.468 90.0432 118.296 94.9835 120.08 99.3063C121.007 101.536 122.447 103.526 123.271 105.79C124.094 108.123 124.197 110.594 123.888 113.029C123.717 114.436 123.408 115.808 123.065 117.181C122.893 117.867 122.688 118.553 122.482 119.239C122.276 119.925 122.07 120.577 121.899 121.298C121.864 121.469 122.104 121.572 122.173 121.401C122.413 120.817 122.585 120.234 122.791 119.651C122.996 119.033 123.168 118.416 123.339 117.798C123.683 116.597 123.957 115.397 124.197 114.162C124.575 111.829 124.677 109.324 124.094 106.957Z" fill="#FCAE00"/>
<path d="M134.249 111.005C134.146 109.667 133.906 108.329 133.426 107.06C132.98 105.825 132.362 104.658 131.745 103.526C131.093 102.394 130.441 101.262 129.858 100.095C129.275 98.9289 128.794 97.7281 128.348 96.5273C127.491 94.0915 126.907 91.5527 126.599 88.9796C126.427 87.5387 126.358 86.0634 126.358 84.6225C126.358 83.1816 126.53 81.7063 126.564 80.2654C126.564 80.1625 126.393 80.1282 126.358 80.2311C126.05 81.4662 125.947 82.7699 125.878 84.0393C125.844 85.343 125.844 86.6123 125.947 87.916C126.153 90.4891 126.633 93.0279 127.422 95.4638C128.211 97.9339 129.275 100.267 130.544 102.531C131.196 103.663 131.848 104.796 132.397 105.996C132.946 107.231 133.357 108.501 133.563 109.839C134.043 112.892 133.632 116.048 133.254 119.102C133.22 119.273 133.529 119.308 133.563 119.136C134.043 116.46 134.455 113.716 134.249 111.005Z" fill="#FCAE00"/>
<path d="M112.43 103.732C112.43 103.732 102.274 108.466 90.8842 102.428C90.8842 102.428 59.3896 110.216 48.5483 154.782H158.814C158.814 154.816 139.293 109.187 112.43 103.732Z" fill="#FFB3DA"/>
<path d="M141.831 125.963H60.9679C60.2817 126.958 59.6299 127.988 58.978 129.051H144.13C143.375 128.022 142.621 126.993 141.831 125.963Z" fill="#FEF0EF"/>
<path d="M137.371 120.508H65.0848C64.2614 121.503 63.438 122.532 62.6489 123.596H139.979C139.121 122.532 138.263 121.503 137.371 120.508Z" fill="#FEF0EF"/>
<path d="M146.086 131.898H57.2969C56.7823 132.825 56.2677 133.785 55.7874 134.746H147.973C147.355 133.82 146.737 132.859 146.086 131.898Z" fill="#FEF0EF"/>
<path d="M92.7367 79.3391C93.3199 79.0646 94.0404 79.3734 94.5207 79.7508C95.0696 80.1968 95.4813 80.78 95.8587 81.3633C96.3733 82.118 96.9223 82.8728 97.5055 83.5933C98.5347 84.897 99.6669 86.0977 100.799 87.3328C99.907 86.0291 99.0493 84.7254 98.1916 83.3874C97.6427 82.564 97.1281 81.7063 96.6135 80.8486C96.339 80.4026 96.0989 79.9909 95.8244 79.5449C95.5843 79.1333 95.3098 78.7216 95.1383 78.2412C94.8981 77.5551 94.9667 76.7317 95.5499 76.2514C96.0989 75.8397 96.785 76.0455 97.231 76.4915C97.8143 77.0405 98.1573 77.8296 98.569 78.4814C99.0837 79.3048 99.5983 80.1625 100.147 80.9516C101.039 82.2896 102 83.559 102.995 84.8284C102.103 83.3874 101.314 81.8436 100.662 80.2997C100.422 79.7851 100.216 79.2362 100.01 78.7216C99.8384 78.2412 99.6326 77.7609 99.4953 77.2463C99.3924 76.8689 99.3238 76.4572 99.4953 76.0799C99.6669 75.7368 100.01 75.5309 100.387 75.5652C100.799 75.5995 101.211 75.9083 101.485 76.1828C101.863 76.5602 102.137 77.0062 102.446 77.4179C103.063 78.3442 103.647 79.3048 104.196 80.2654C105.259 82.1523 106.22 84.1079 107.42 85.9262C108.518 87.6416 109.822 89.2541 111.503 90.4891C111.675 90.6264 111.846 90.7293 112.018 90.8322C112.292 89.4599 112.635 88.1219 113.081 86.7839C113.287 86.1664 113.459 85.5488 113.733 84.9656C113.973 84.451 114.316 83.9707 114.831 83.7305C115.277 83.4903 115.86 83.456 116.306 83.7648V83.7305C116.306 83.6962 116.375 83.6962 116.375 83.7305C116.512 84.3137 116.546 84.897 116.581 85.4802C116.615 86.0634 116.684 86.6467 116.684 87.2299C116.752 88.3964 116.752 89.5971 116.752 90.7636C116.752 91.9301 116.684 93.0965 116.615 94.2973C116.546 95.4638 116.409 96.6646 116.272 97.831C116.135 98.7573 115.997 99.7179 115.826 100.644C115.894 100.747 115.963 100.85 116.032 100.953L107.318 112C106.734 110.319 106.014 106.614 105.739 106.202C104.71 104.796 103.715 103.389 102.72 101.982C100.662 99.0661 98.569 96.1842 96.5106 93.2681C95.4813 91.8272 94.4521 90.3862 93.3886 88.911C92.8739 88.2248 92.3593 87.5387 91.879 86.8182C91.6045 86.4065 91.2958 85.789 91.5016 85.2744C91.6045 85.0342 91.8447 84.8284 92.0849 84.794C92.3593 84.7597 92.6681 84.8284 92.9082 84.9656C93.217 85.1371 93.4915 85.3773 93.7316 85.6517C94.0404 85.9605 94.3492 86.2693 94.6579 86.5781C95.2755 87.1956 95.9273 87.8474 96.5449 88.465C96.8536 88.7738 97.1624 89.0825 97.4712 89.3913C97.7456 89.6658 97.9858 89.9059 98.2946 90.1118C98.5347 90.2833 98.8092 90.4205 99.118 90.4205C98.0887 88.8424 97.0252 87.3328 95.9273 85.789C95.3784 85.0342 94.7952 84.2794 94.2462 83.4903C93.7316 82.8042 93.217 82.0837 92.8739 81.2946C92.7024 80.9173 92.5309 80.5399 92.4622 80.1282C92.3593 79.888 92.3936 79.5106 92.7367 79.3391Z" fill="#FA9E84"/>
<path d="M117.473 172.999L106.083 113.544L120.904 94.9834L151.746 153.787L117.473 172.999Z" fill="#FFB3DA"/>
<path d="M151.746 153.787L120.904 94.9834L106.083 113.544L117.473 172.999" stroke="#2B292E" stroke-miterlimit="10" stroke-linecap="round" stroke-linejoin="round"/>
<path d="M46.7301 76.9374C46.7301 76.9374 37.6728 73.6439 32.3551 80.2996L20.1758 82.9413L17.0881 95.4637L52.8369 89.4598L46.7301 76.9374Z" fill="#FA9E84"/>
<path d="M73.6616 61.2933C73.6616 61.2933 61.7568 60.0925 59.9042 64.827C58.0859 69.5615 57.6056 87.8133 57.6056 87.8133L43.2649 92.7879L43.8481 70.179C43.8481 70.179 34.5507 63.8664 43.4707 48.7709L74.3478 48.3936C74.3821 48.4279 80.0429 55.3924 73.6616 61.2933Z" fill="#352300"/>
<path d="M70.7797 48.3936C70.7797 48.3936 75.7543 55.2208 69.8191 61.0531" stroke="white" stroke-miterlimit="10"/>
<path d="M54.6893 55.1865H70.9169C71.3286 55.1865 71.6717 55.5296 71.6717 55.9413V56.1128C71.6717 56.5245 71.3286 56.8676 70.9169 56.8676H54.6893C54.2776 56.8676 53.9346 56.5245 53.9346 56.1128V55.9413C53.9346 55.5296 54.2776 55.1865 54.6893 55.1865Z" fill="#FCAE00"/>
<path d="M43.505 48.7708C35.3397 62.5625 42.4071 69.0124 43.6765 70.0416H49.4059C51.1213 70.0416 52.4936 68.635 52.4936 66.9539V48.7021L43.505 48.7708Z" fill="#8AC599"/>
<path d="M44.1569 51.4812C38.0844 61.7393 43.3335 66.5423 44.2941 67.2971H48.5483C49.8177 67.2971 50.8469 66.2679 50.8469 64.9985V51.4126L44.1569 51.4812Z" fill="white"/>
<path d="M68.0695 53.6429C68.8842 53.6429 69.5447 52.9824 69.5447 52.1676C69.5447 51.3529 68.8842 50.6924 68.0695 50.6924C67.2547 50.6924 66.5942 51.3529 66.5942 52.1676C66.5942 52.9824 67.2547 53.6429 68.0695 53.6429Z" fill="#FFB3DA"/>
<path d="M62.7518 53.6429C63.5666 53.6429 64.2271 52.9824 64.2271 52.1676C64.2271 51.3529 63.5666 50.6924 62.7518 50.6924C61.9371 50.6924 61.2766 51.3529 61.2766 52.1676C61.2766 52.9824 61.9371 53.6429 62.7518 53.6429Z" fill="#FFB3DA"/>
<path d="M56.8165 53.6429C57.6313 53.6429 58.2918 52.9824 58.2918 52.1676C58.2918 51.3529 57.6313 50.6924 56.8165 50.6924C56.0018 50.6924 55.3413 51.3529 55.3413 52.1676C55.3413 52.9824 56.0018 53.6429 56.8165 53.6429Z" fill="#FFB3DA"/>
<path d="M43.0591 60.5729L46.2497 63.1116L49.5776 53.0938" stroke="#FFB3DA" stroke-width="3" stroke-miterlimit="10" stroke-linecap="round" stroke-linejoin="round"/>
<path d="M45.598 78.9619C44.8775 78.9619 44.1913 79.5108 43.5738 80.4371L43.2307 92.788L49.5777 90.5923C49.5777 90.3521 49.5777 90.112 49.5777 89.8375C49.5777 83.8336 47.7937 78.9619 45.598 78.9619Z" fill="#FCAE00"/>
<path d="M39.7312 71.4141H47.2789C48.6512 71.4141 49.7491 72.5462 49.7491 73.8842V74.4674C49.7491 75.8398 48.6169 76.9376 47.2789 76.9376H39.7312C38.3589 76.9376 37.261 75.8055 37.261 74.4674V73.8842C37.2267 72.5119 38.3589 71.4141 39.7312 71.4141Z" fill="#FA9E84"/>
<path d="M53.0083 67.6401H60.5903C61.9626 67.6401 63.0605 68.7723 63.0605 70.1103V70.6935C63.0605 72.0658 61.9283 73.1637 60.5903 73.1637H53.0083C51.636 73.1637 50.5381 72.0315 50.5381 70.6935V70.1103C50.5038 68.738 51.636 67.6401 53.0083 67.6401Z" fill="#FA9E84"/>
<path d="M53.1799 73.1636H60.7619C62.1342 73.1636 63.2321 74.2957 63.2321 75.6337V76.217C63.2321 77.5893 62.0999 78.6871 60.7619 78.6871H53.1799C51.8076 78.6871 50.7097 77.555 50.7097 76.217V75.668C50.7097 74.2957 51.8076 73.1636 53.1799 73.1636Z" fill="#FA9E84"/>
<path d="M53.0083 78.207H60.5903C61.9626 78.207 63.0605 79.3392 63.0605 80.6772V81.2604C63.0605 82.6327 61.9283 83.7306 60.5903 83.7306H53.0083C51.636 83.7306 50.5381 82.5984 50.5381 81.2604V80.6772C50.5038 79.3392 51.636 78.207 53.0083 78.207Z" fill="#FA9E84"/>
<path d="M56.3361 82.2896H60.6932C62.0655 82.2896 63.1634 83.4217 63.1634 84.7597V85.343C63.1634 86.7153 62.0312 87.8131 60.6932 87.8131H56.3361C54.9638 87.8131 53.866 86.681 53.866 85.343V84.7597C53.866 83.4217 54.9638 82.2896 56.3361 82.2896Z" fill="#FA9E84"/>
<path d="M89.8551 39.3361C89.5806 37.758 88.8258 36.2141 87.625 34.979C84.4687 31.8227 79.3569 31.8227 76.2005 34.979C76.0976 35.082 75.9947 35.1849 75.9261 35.2878C75.5144 34.4644 74.9655 33.7096 74.2793 33.0235C71.1573 29.9015 66.3199 29.5584 62.8205 31.9942C62.4431 31.1365 61.8942 30.3132 61.1737 29.627C58.0174 26.4707 52.9055 26.4707 49.7492 29.627C47.1075 32.2687 46.6958 36.2484 48.4455 39.3361H89.8551Z" fill="white"/>
<path d="M177.615 50.8293C177.34 49.2511 176.585 47.7073 175.385 46.4722C172.228 43.3159 167.116 43.3159 163.96 46.4722C163.857 46.5751 163.754 46.678 163.686 46.781C163.274 45.9576 162.725 45.2028 162.039 44.5166C158.917 41.3946 154.079 41.0516 150.58 43.4874C150.203 42.6297 149.654 41.8063 148.933 41.1202C145.777 37.9638 140.665 37.9638 137.509 41.1202C134.867 43.7619 134.455 47.7416 136.205 50.8293H177.615Z" fill="white"/>
<path d="M141.18 27.843C140.905 26.2648 140.15 24.7209 138.95 23.4859C135.793 20.3295 130.681 20.3295 127.525 23.4859C127.422 23.5888 127.319 23.6917 127.251 23.7946C126.839 22.9712 126.29 22.2165 125.604 21.5303C122.482 18.4083 117.644 18.0652 114.145 20.5011C113.768 19.6434 113.219 18.82 112.498 18.1338C109.342 14.9775 104.23 14.9775 101.074 18.1338C98.432 20.7755 98.0203 24.7553 99.77 27.843H141.18V27.843Z" fill="white"/>
</g>
<defs>
<clipPath id="clip0">
<rect x="31" width="148.052" height="150" rx="74.0262" fill="white"/>
</clipPath>
</defs>
</svg>
