<?xml version="1.0" encoding="utf-8"?>
<!-- Generator: Adobe Illustrator 24.0.0, SVG Export Plug-In . SVG Version: 6.00 Build 0)  -->
<svg version="1.1" id="Layer_1" xmlns="http://www.w3.org/2000/svg" xmlns:xlink="http://www.w3.org/1999/xlink" x="0px" y="0px"
	 viewBox="0 0 512 512" style="enable-background:new 0 0 512 512;" xml:space="preserve">
<style type="text/css">
	.st0{fill:#8CCE39;}
	.st1{fill:#FAFAFA;}
</style>
<path class="st0" d="M256,8C119.2,8,8,119.2,8,256s111.2,248,248,248s248-111.2,248-248S392.8,8,256,8z"/>
<path class="st1" d="M371.4,203.4L237,337.8c-4,4-9.3,6.1-14.6,6.1s-10.6-2-14.6-6.1l-67.2-67.2c-8.1-8.1-8.1-21.1,0-29.2
	c8.1-8.1,21.1-8.1,29.2,0l52.6,52.6l119.7-119.7c8.1-8.1,21.1-8.1,29.2,0C379.4,182.3,379.4,195.4,371.4,203.4z"/>
</svg>
