<?xml version="1.0" encoding="utf-8"?>
<!-- Generator: Adobe Illustrator 24.0.0, SVG Export Plug-In . SVG Version: 6.00 Build 0)  -->
<svg version="1.1" id="Layer_1" xmlns="http://www.w3.org/2000/svg" xmlns:xlink="http://www.w3.org/1999/xlink" x="0px" y="0px"
	 viewBox="0 0 46.6 40" style="enable-background:new 0 0 46.6 40;" xml:space="preserve">
<style type="text/css">
	.st0{clip-path:url(#SVGID_2_);}
	.st1{fill:#FF9900;}
	.st2{fill:#2F80ED;}
</style>
<g>
	<g>
		<defs>
			<rect id="SVGID_1_" x="0.4" y="5" width="45.7" height="30"/>
		</defs>
		<clipPath id="SVGID_2_">
			<use xlink:href="#SVGID_1_"  style="overflow:visible;"/>
		</clipPath>
		<g class="st0">
			<path class="st1" d="M21.6,12V30h-9.9c0-0.1,0-0.3,0-0.4c-0.3-2.1-2.2-3.6-4.4-3.4c-1.9,0.2-3.1,2-3.5,3.7H1.4V12H21.6z"/>
			<path class="st2" d="M12,31h14.8c0.5,0,0.9-0.4,0.9-0.9V5.9c0-0.5-0.4-0.9-0.9-0.9H11.5c-0.5,0-0.9,0.4-0.9,0.9
				c0,0.5,0.4,0.9,0.9,0.9h14.3v22.3H11.9c-0.5,0-0.9,0.4-0.9,0.9C11,30.5,11.5,31,12,31z"/>
			<path class="st2" d="M1.3,31h2c0.5,0,0.9-0.4,0.9-0.9c0-0.5-0.4-0.9-0.9-0.9H2.2V5.9C2.2,5.4,1.8,5,1.3,5S0.4,5.4,0.4,5.9V30
				C0.4,30.5,0.8,31,1.3,31z"/>
			<path class="st2" d="M5.1,6.8h2.6c0.5,0,0.9-0.4,0.9-0.9C8.7,5.4,8.3,5,7.7,5H5.1C4.6,5,4.2,5.4,4.2,5.9C4.2,6.4,4.6,6.8,5.1,6.8
				z"/>
			<path class="st2" d="M35.7,35c2.7,0,5-2.2,5-5s-2.2-5-5-5c-2.7,0-5,2.2-5,5S32.9,35,35.7,35z M35.7,26.9c1.7,0,3.1,1.4,3.1,3.1
				c0,1.7-1.4,3.1-3.1,3.1c-1.7,0-3.1-1.4-3.1-3.1C32.6,28.3,33.9,26.9,35.7,26.9z"/>
			<path class="st2" d="M7.7,35c2.7,0,5-2.2,5-5s-2.2-5-5-5c-2.7,0-5,2.2-5,5S5,35,7.7,35z M7.7,26.9c1.7,0,3.1,1.4,3.1,3.1
				c0,1.7-1.4,3.1-3.1,3.1S4.6,31.7,4.6,30C4.6,28.3,6,26.9,7.7,26.9z"/>
			<path class="st2" d="M39.7,31h5.5c0.5,0,0.9-0.4,0.9-0.9v-3.5c0-0.5-0.4-0.9-0.9-0.9h-7.2c-0.5,0-0.9,0.4-0.9,0.9
				c0,0.5,0.4,0.9,0.9,0.9h6.2v1.7h-4.6c-0.5,0-0.9,0.4-0.9,0.9C38.8,30.5,39.2,31,39.7,31z"/>
			<path class="st2" d="M44.3,27.5c0,0,0.1,0,0.1,0c0.5-0.1,0.9-0.6,0.8-1l-2.4-14.1c-0.2-1.5-1.6-2.7-3.1-2.7H26.8
				c-0.5,0-0.9,0.4-0.9,0.9c0,0.5,0.4,0.9,0.9,0.9h12.9c0.7,0,1.2,0.5,1.3,1.1l2.4,14.1C43.5,27.2,43.9,27.5,44.3,27.5z"/>
			<path class="st2" d="M35.6,22.2h7.9c0.5,0,0.9-0.4,0.9-0.9c0-0.5-0.4-0.9-0.9-0.9h-7.9c-1.2,0-2.2-0.9-2.3-2l-0.3-2.2
				c0-0.3,0.1-0.6,0.2-0.7c0.1-0.1,0.3-0.3,0.7-0.3h8.5c0.5,0,0.9-0.4,0.9-0.9c0-0.5-0.4-0.9-0.9-0.9h-8.5c-0.8,0-1.5,0.3-2,0.9
				c-0.5,0.6-0.8,1.4-0.6,2.2l0.3,2.2C31.7,20.7,33.5,22.2,35.6,22.2z"/>
			<path class="st2" d="M26.8,31h4.8c0.5,0,0.9-0.4,0.9-0.9c0-0.5-0.4-0.9-0.9-0.9h-4.9c-0.5,0-0.9,0.4-0.9,0.9S26.3,31,26.8,31z"/>
		</g>
	</g>
</g>
</svg>
