<?xml version="1.0" encoding="utf-8"?>
<!-- Generator: Adobe Illustrator 16.0.0, SVG Export Plug-In . SVG Version: 6.00 Build 0)  -->
<!DOCTYPE svg PUBLIC "-//W3C//DTD SVG 1.1//EN" "http://www.w3.org/Graphics/SVG/1.1/DTD/svg11.dtd">
<svg version="1.1" id="Layer_1" xmlns="http://www.w3.org/2000/svg" xmlns:xlink="http://www.w3.org/1999/xlink" x="0px" y="0px"
	 width="165px" height="165px" viewBox="0 0 165 165" enable-background="new 0 0 165 165" xml:space="preserve">
<g>
	<g>
		<g>
			<path fill="#F3F3F3" d="M157.082,106.095L68.419,156.63c-3.745,2.134-8.51,0.829-10.645-2.916l-24.54-43.056
				c-2.134-3.745-0.829-8.51,2.916-10.645l88.662-50.533c3.746-2.135,8.511-0.829,10.645,2.915l24.541,43.057
				C162.132,99.195,160.828,103.961,157.082,106.095z"/>
		</g>
		<g>
			<g>
				<g>
					<path fill="#90D6E5" d="M59.333,101.488c-4.425-1.212-8.973,0.953-10.917,4.93l17.799,4.876
						C66.567,106.882,63.757,102.7,59.333,101.488z"/>
					<path fill="#2095A4" d="M47.484,109.805c-0.363,4.419,2.452,8.607,6.88,9.821c4.429,1.213,8.985-0.956,10.925-4.944
						L47.484,109.805z"/>
					<path fill="#4DBED2" d="M66.074,112.354c0.069-0.354,0.112-0.708,0.14-1.06l-1.103-0.303c0.204-3.808-2.248-7.377-6.074-8.425
						s-7.754,0.773-9.519,4.153l-1.104-0.302c-0.156,0.317-0.299,0.644-0.42,0.983c-0.083,0.219-0.152,0.441-0.215,0.671
						c0,0.001,0,0.001,0,0.001c-0.063,0.23-0.116,0.457-0.155,0.684c-0.069,0.35-0.111,0.699-0.14,1.048l1.103,0.302
						c-0.213,3.815,2.242,7.392,6.073,8.441c3.831,1.049,7.766-0.776,9.526-4.168l1.103,0.302c0.154-0.314,0.295-0.637,0.414-0.974
						c0.082-0.214,0.151-0.437,0.214-0.666h0C65.98,112.812,66.034,112.584,66.074,112.354z"/>
					<path fill="#2095A4" d="M65.917,113.042c-0.063,0.229-0.133,0.451-0.214,0.666l-18.079-4.951
						c0.04-0.227,0.093-0.454,0.156-0.685c0.063-0.229,0.133-0.452,0.215-0.671l18.079,4.952
						C66.034,112.584,65.98,112.812,65.917,113.042z"/>
				</g>
				<g>
					<path fill="#90D6E5" d="M81.496,88.855c-4.425-1.211-8.973,0.954-10.917,4.93l17.798,4.876
						C88.731,94.249,85.92,90.068,81.496,88.855z"/>
					<path fill="#2095A4" d="M69.647,97.173c-0.363,4.418,2.452,8.607,6.88,9.82c4.429,1.214,8.984-0.956,10.924-4.942
						L69.647,97.173z"/>
					<path fill="#4DBED2" d="M88.237,99.722c0.07-0.354,0.112-0.708,0.14-1.061l-1.104-0.302c0.206-3.808-2.246-7.376-6.072-8.425
						c-3.827-1.048-7.755,0.773-9.519,4.153l-1.103-0.303c-0.156,0.318-0.3,0.644-0.42,0.983c-0.083,0.22-0.153,0.443-0.215,0.672
						c0,0.001,0,0.001,0,0.002c-0.063,0.229-0.116,0.455-0.155,0.682c-0.069,0.35-0.112,0.7-0.14,1.049l1.103,0.302
						c-0.213,3.814,2.243,7.391,6.073,8.44c3.831,1.049,7.765-0.776,9.526-4.168l1.103,0.303c0.154-0.314,0.296-0.637,0.414-0.974
						c0.082-0.215,0.152-0.438,0.215-0.666v-0.001C88.144,100.18,88.197,99.952,88.237,99.722z"/>
					<path fill="#2095A4" d="M88.081,100.409c-0.063,0.229-0.133,0.451-0.215,0.667l-18.078-4.952
						c0.04-0.227,0.093-0.454,0.156-0.684c0.063-0.229,0.133-0.452,0.215-0.672l18.078,4.953
						C88.197,99.952,88.144,100.18,88.081,100.409z"/>
				</g>
				<g>
					<path fill="#90D6E5" d="M103.66,76.224c-4.426-1.211-8.974,0.955-10.919,4.931l17.799,4.875
						C110.894,81.617,108.083,77.437,103.66,76.224z"/>
					<path fill="#2095A4" d="M91.811,84.54c-0.363,4.42,2.45,8.608,6.88,9.821c4.428,1.213,8.985-0.957,10.925-4.943L91.811,84.54z"
						/>
					<path fill="#4DBED2" d="M110.401,87.089c0.07-0.354,0.112-0.707,0.139-1.061l-1.104-0.302c0.206-3.806-2.246-7.375-6.071-8.423
						c-3.828-1.049-7.757,0.772-9.521,4.153l-1.104-0.302c-0.154,0.317-0.299,0.643-0.419,0.983
						c-0.082,0.219-0.152,0.442-0.215,0.671v0.001c-0.063,0.229-0.116,0.457-0.156,0.682c-0.069,0.351-0.11,0.699-0.14,1.048
						l1.102,0.303c-0.214,3.813,2.242,7.391,6.073,8.439c3.832,1.05,7.767-0.776,9.526-4.166l1.104,0.302
						c0.152-0.314,0.295-0.638,0.413-0.974c0.082-0.216,0.152-0.438,0.216-0.667v-0.001
						C110.307,87.547,110.361,87.32,110.401,87.089z"/>
					<path fill="#2095A4" d="M110.245,87.776c-0.063,0.229-0.134,0.452-0.216,0.668l-18.078-4.952
						c0.04-0.227,0.093-0.455,0.156-0.683c0.063-0.229,0.133-0.453,0.215-0.671l18.079,4.951
						C110.361,87.32,110.307,87.547,110.245,87.776z"/>
				</g>
				<g>
					<path fill="#90D6E5" d="M125.823,63.592c-4.426-1.213-8.974,0.954-10.918,4.93l17.798,4.875
						C133.057,68.985,130.247,64.804,125.823,63.592z"/>
					<path fill="#2095A4" d="M113.975,71.908c-0.364,4.419,2.449,8.608,6.879,9.822c4.428,1.212,8.985-0.958,10.925-4.944
						L113.975,71.908z"/>
					<path fill="#4DBED2" d="M132.564,74.457c0.07-0.354,0.112-0.707,0.139-1.059l-1.103-0.302c0.205-3.808-2.247-7.377-6.072-8.425
						c-3.827-1.049-7.756,0.773-9.521,4.153l-1.103-0.302c-0.154,0.317-0.3,0.643-0.42,0.983c-0.082,0.219-0.152,0.442-0.215,0.672
						v0.001c-0.063,0.229-0.116,0.456-0.156,0.682c-0.068,0.35-0.112,0.7-0.139,1.048l1.101,0.302
						c-0.213,3.814,2.242,7.391,6.074,8.44c3.831,1.05,7.766-0.776,9.525-4.167l1.104,0.302c0.152-0.314,0.295-0.637,0.413-0.974
						c0.082-0.215,0.152-0.437,0.216-0.666c0-0.001,0-0.001,0-0.002C132.47,74.916,132.524,74.688,132.564,74.457z"/>
					<path fill="#2095A4" d="M132.408,75.145c-0.063,0.229-0.134,0.453-0.216,0.667l-18.078-4.952
						c0.04-0.227,0.094-0.454,0.156-0.683s0.133-0.453,0.215-0.672l18.079,4.952C132.524,74.688,132.47,74.916,132.408,75.145z"/>
				</g>
			</g>
			<g>
				<g>
					<path fill="#90D6E5" d="M72.379,124.38c-4.425-1.213-8.973,0.953-10.917,4.93l17.798,4.875
						C79.614,129.772,76.804,125.591,72.379,124.38z"/>
					<path fill="#2095A4" d="M60.531,132.695c-0.363,4.42,2.452,8.608,6.88,9.821c4.429,1.213,8.985-0.957,10.925-4.943
						L60.531,132.695z"/>
					<path fill="#4DBED2" d="M79.121,135.244c0.069-0.354,0.112-0.707,0.14-1.06l-1.103-0.302c0.204-3.808-2.248-7.377-6.074-8.425
						s-7.754,0.773-9.519,4.153l-1.103-0.302c-0.156,0.316-0.3,0.643-0.42,0.982c-0.083,0.22-0.152,0.442-0.215,0.672l0,0.001
						c-0.063,0.229-0.116,0.456-0.155,0.682c-0.069,0.351-0.111,0.7-0.14,1.049l1.103,0.303c-0.213,3.813,2.242,7.391,6.073,8.44
						c3.831,1.049,7.766-0.777,9.526-4.167l1.103,0.302c0.154-0.314,0.295-0.638,0.414-0.974c0.082-0.216,0.151-0.438,0.214-0.666
						c0-0.001,0-0.001,0-0.002C79.027,135.703,79.081,135.476,79.121,135.244z"/>
					<path fill="#2095A4" d="M78.964,135.932c-0.063,0.229-0.133,0.452-0.214,0.668l-18.079-4.953
						c0.04-0.227,0.093-0.453,0.156-0.683s0.133-0.452,0.215-0.672l18.079,4.953C79.081,135.476,79.027,135.703,78.964,135.932z"/>
				</g>
				<g>
					<path fill="#90D6E5" d="M94.543,111.747c-4.426-1.212-8.974,0.953-10.918,4.93l17.798,4.875
						C101.778,117.141,98.967,112.959,94.543,111.747z"/>
					<path fill="#2095A4" d="M82.695,120.063c-0.363,4.419,2.45,8.607,6.88,9.821c4.428,1.213,8.984-0.957,10.924-4.944
						L82.695,120.063z"/>
					<path fill="#4DBED2" d="M101.284,122.612c0.07-0.354,0.112-0.708,0.14-1.061l-1.104-0.302c0.206-3.808-2.246-7.376-6.072-8.425
						c-3.827-1.048-7.756,0.773-9.52,4.153l-1.103-0.302c-0.155,0.318-0.3,0.643-0.42,0.983c-0.082,0.22-0.152,0.441-0.216,0.671
						c0,0.001,0,0.001,0,0.002c-0.063,0.229-0.116,0.456-0.156,0.683c-0.068,0.35-0.11,0.699-0.139,1.048l1.102,0.303
						c-0.213,3.814,2.242,7.391,6.073,8.44c3.832,1.049,7.766-0.776,9.526-4.168l1.103,0.302c0.153-0.314,0.296-0.637,0.414-0.974
						c0.082-0.214,0.152-0.438,0.215-0.666V123.3C101.191,123.07,101.244,122.843,101.284,122.612z"/>
					<path fill="#2095A4" d="M101.127,123.3c-0.063,0.229-0.133,0.452-0.215,0.667l-18.079-4.951
						c0.04-0.227,0.094-0.455,0.156-0.685c0.063-0.229,0.134-0.451,0.216-0.671l18.078,4.952
						C101.244,122.843,101.191,123.07,101.127,123.3z"/>
				</g>
				<g>
					<path fill="#90D6E5" d="M116.707,99.114c-4.426-1.212-8.974,0.955-10.919,4.93l17.799,4.876
						C123.941,104.508,121.13,100.327,116.707,99.114z"/>
					<path fill="#2095A4" d="M104.858,107.432c-0.363,4.419,2.45,8.607,6.88,9.82c4.428,1.214,8.985-0.956,10.925-4.943
						L104.858,107.432z"/>
					<path fill="#4DBED2" d="M123.448,109.979c0.07-0.354,0.112-0.707,0.139-1.06l-1.104-0.303c0.206-3.808-2.246-7.376-6.071-8.425
						c-3.828-1.048-7.757,0.773-9.521,4.154l-1.104-0.303c-0.154,0.318-0.299,0.644-0.419,0.983
						c-0.082,0.22-0.152,0.442-0.215,0.673c0,0,0,0,0,0.001c-0.063,0.229-0.116,0.455-0.156,0.682c-0.069,0.351-0.11,0.7-0.14,1.049
						l1.102,0.302c-0.214,3.814,2.242,7.392,6.074,8.44c3.831,1.05,7.766-0.776,9.525-4.167l1.104,0.302
						c0.152-0.314,0.295-0.637,0.413-0.974c0.082-0.215,0.152-0.437,0.216-0.666v-0.001
						C123.354,110.438,123.408,110.21,123.448,109.979z"/>
					<path fill="#2095A4" d="M123.292,110.668c-0.063,0.229-0.134,0.452-0.216,0.667l-18.078-4.952
						c0.04-0.227,0.093-0.454,0.156-0.683c0.063-0.23,0.133-0.453,0.215-0.673l18.079,4.952
						C123.408,110.21,123.354,110.438,123.292,110.668z"/>
				</g>
				<g>
					<path fill="#90D6E5" d="M138.87,86.482c-4.426-1.212-8.973,0.954-10.918,4.931l17.798,4.875
						C146.104,91.876,143.293,87.694,138.87,86.482z"/>
					<path fill="#2095A4" d="M127.02,94.799c-0.362,4.419,2.451,8.608,6.881,9.82c4.428,1.214,8.985-0.956,10.925-4.942
						L127.02,94.799z"/>
					<path fill="#4DBED2" d="M145.611,97.348c0.07-0.354,0.112-0.707,0.139-1.06l-1.103-0.303c0.205-3.807-2.246-7.376-6.072-8.424
						c-3.827-1.049-7.756,0.772-9.521,4.153l-1.103-0.302c-0.154,0.316-0.3,0.643-0.42,0.982c-0.082,0.22-0.152,0.442-0.215,0.672
						v0.001c-0.063,0.229-0.116,0.456-0.156,0.682c-0.068,0.351-0.112,0.7-0.141,1.049l1.103,0.303
						c-0.213,3.813,2.242,7.391,6.074,8.439c3.831,1.05,7.766-0.776,9.525-4.167l1.104,0.303c0.152-0.314,0.295-0.638,0.413-0.974
						c0.082-0.216,0.152-0.438,0.216-0.666c0-0.001,0-0.001,0-0.002C145.517,97.806,145.571,97.579,145.611,97.348z"/>
					<path fill="#2095A4" d="M145.455,98.035c-0.063,0.229-0.134,0.452-0.216,0.668l-18.078-4.953
						c0.04-0.227,0.094-0.454,0.156-0.683c0.063-0.229,0.133-0.452,0.215-0.672l18.079,4.952
						C145.571,97.579,145.517,97.806,145.455,98.035z"/>
				</g>
			</g>
		</g>
		<path opacity="0.2" fill="#B5B6B6" d="M31.761,108.071c-1.321-2.316-0.513-5.263,1.803-6.583l1.463-0.834
			c19.068,27.302,56.157,36.055,85.656,19.242l40.192-22.907l0.596,1.048c1.32,2.317,0.515,5.264-1.802,6.584l-93.836,53.482
			c-2.316,1.32-5.263,0.514-6.584-1.803"/>
	</g>
	<g>
		<path fill="#F9A148" d="M69.967,60.261l10.042,60.241c0.967,5.803-2.954,11.291-8.762,12.26l-45.746,7.624
			c-5.802,0.967-11.29-2.953-12.257-8.754L3.203,71.39c-0.556-3.339-0.355-6.716,0.553-9.888c0.714-2.525,1.866-4.933,3.426-7.079
			c0.401-0.572,0.833-1.109,1.29-1.634c4.45-5.104,6.38-11.925,5.267-18.602l-0.437-2.625l34.188-5.698l0.438,2.625
			c0.556,3.338,1.843,6.467,3.723,9.183c1.888,2.714,4.361,5.014,7.293,6.703c0.611,0.348,1.194,0.724,1.758,1.127
			C65.617,48.974,68.97,54.276,69.967,60.261z"/>
		<path fill="#FFC655" d="M60.701,45.503l-53.52,8.92c0.401-0.572,0.833-1.109,1.29-1.634c4.45-5.104,6.38-11.925,5.267-18.602
			l-0.437-2.625l34.188-5.698l0.438,2.625c0.556,3.338,1.843,6.467,3.723,9.183c1.888,2.714,4.361,5.014,7.293,6.703
			C59.554,44.724,60.137,45.1,60.701,45.503z"/>
		<g>
			
				<rect x="7.23" y="74.756" transform="matrix(0.9864 -0.1644 0.1644 0.9864 -14.691 8.0155)" fill="#4DBED2" width="67.686" height="35.99"/>
			<path fill="#90D6E5" d="M59.9,87.546l-38.324,6.389c-2.701,0.45-5.257-1.375-5.707-4.076l0,0
				c-0.45-2.701,1.375-5.256,4.076-5.707l38.324-6.387c2.702-0.451,5.256,1.375,5.707,4.076l0,0
				C64.427,84.541,62.602,87.097,59.9,87.546z"/>
			<g>
				
					<rect x="18.583" y="96.608" transform="matrix(0.9864 -0.1644 0.1644 0.9864 -15.6066 8.2472)" fill="#2095A4" width="46.862" height="3.576"/>
				
					<rect x="19.567" y="102.509" transform="matrix(0.9864 -0.1644 0.1644 0.9864 -16.5654 8.4905)" fill="#2095A4" width="46.862" height="3.576"/>
			</g>
		</g>
		<g>
			<path fill="#FFF0B3" d="M49.276,12.639l2.256,13.538L9.578,33.17L7.321,19.633c-0.693-4.16,2.122-8.091,6.281-8.785l26.883-4.481
				C44.644,5.674,48.583,8.48,49.276,12.639z"/>
			<g>
				
					<rect x="11.055" y="19.339" transform="matrix(0.9864 -0.1642 0.1642 0.9864 -3.8355 2.353)" fill="#E7D497" width="2.519" height="10.073"/>
				
					<rect x="16.684" y="18.401" transform="matrix(0.9865 -0.164 0.164 0.9865 -3.6012 3.2605)" fill="#E7D497" width="2.518" height="10.073"/>
				
					<rect x="22.313" y="17.462" transform="matrix(0.9864 -0.1642 0.1642 0.9864 -3.3745 4.1763)" fill="#E7D497" width="2.519" height="10.073"/>
				
					<rect x="27.943" y="16.524" transform="matrix(0.9864 -0.1646 0.1646 0.9864 -3.1502 5.1004)" fill="#E7D497" width="2.519" height="10.073"/>
				
					<rect x="33.572" y="15.585" transform="matrix(0.9864 -0.1644 0.1644 0.9864 -2.9162 6.0069)" fill="#E7D497" width="2.519" height="10.073"/>
				
					<rect x="39.202" y="14.647" transform="matrix(0.9864 -0.1646 0.1646 0.9864 -2.6878 6.9278)" fill="#E7D497" width="2.519" height="10.073"/>
				
					<rect x="44.832" y="13.709" transform="matrix(0.9864 -0.1646 0.1646 0.9864 -2.4563 7.8401)" fill="#E7D497" width="2.519" height="10.073"/>
			</g>
		</g>
		<path opacity="0.3" fill="#B5B6B6" d="M26.464,8.705c-0.518,1.576-1.068,3.104-1.339,4.316c-0.852,3.786-1.597,7.593-2.246,11.417
			c-0.316,1.89-0.617,3.778-0.884,5.677c-0.046,0.338-0.093,0.669-0.14,1.009c-1.762,12.851-2.371,25.855-1.811,38.816
			c0.378,8.802,1.29,17.578,2.745,26.265c2.477,14.762,6.612,29.539,14.483,42.22l-11.772,1.962
			c-5.802,0.967-11.29-2.953-12.257-8.754L3.203,71.39c-0.556-3.339-0.355-6.716,0.553-9.888c0.714-2.525,1.866-4.933,3.426-7.079
			c0.401-0.572,0.833-1.109,1.29-1.634c4.45-5.104,6.38-11.925,5.267-18.602l-0.277-1.665L9.578,33.17L7.321,19.633
			c-0.693-4.16,2.122-8.091,6.281-8.785L26.464,8.705z"/>
	</g>
</g>
</svg>
