<?xml version="1.0" encoding="utf-8"?>
<!-- Generator: Adobe Illustrator 16.0.0, SVG Export Plug-In . SVG Version: 6.00 Build 0)  -->
<!DOCTYPE svg PUBLIC "-//W3C//DTD SVG 1.1//EN" "http://www.w3.org/Graphics/SVG/1.1/DTD/svg11.dtd">
<svg version="1.1" id="Layer_1" xmlns="http://www.w3.org/2000/svg" xmlns:xlink="http://www.w3.org/1999/xlink" x="0px" y="0px"
	 width="165px" height="165px" viewBox="0 0 165 165" enable-background="new 0 0 165 165" xml:space="preserve">
<g>
	<g>
		<g>
			<path fill="#FFC655" d="M40.813,114.749L23.788,138.45c-3.526,4.908-10.364,6.029-15.272,2.504
				c-4.908-3.526-6.029-10.364-2.503-15.272l17.025-23.701c3.526-4.909,10.364-6.03,15.272-2.503
				c2.454,1.763,3.963,4.354,4.413,7.117C43.179,109.357,42.576,112.295,40.813,114.749z"/>
			<path fill="#F26A42" d="M40.813,114.749l-8.512,11.852l-17.776-12.77l8.513-11.851c3.526-4.909,10.364-6.03,15.272-2.503
				c2.454,1.763,3.963,4.354,4.413,7.117C43.179,109.357,42.576,112.295,40.813,114.749z"/>
			<path opacity="0.5" fill="#B5B6B6" d="M40.813,114.749L23.788,138.45c-3.526,4.908-10.364,6.029-15.272,2.504
				c-0.424-0.305-0.819-0.637-1.182-0.986c4.754,2.497,10.739,1.175,13.96-3.31l17.025-23.7c1.763-2.455,2.365-5.393,1.909-8.155
				c-0.371-2.286-1.47-4.456-3.23-6.132c0.448,0.232,0.888,0.502,1.312,0.807c2.454,1.763,3.963,4.354,4.413,7.117
				C43.179,109.357,42.576,112.295,40.813,114.749z"/>
		</g>
		<path opacity="0.5" fill="#FFFFFF" d="M7.776,125.2l15.468-21.532c3.203-4.46,8.922-5.832,12.774-3.065
			c0.333,0.238,0.64,0.503,0.92,0.785c-3.784-1.885-8.81-0.389-11.736,3.687L9.734,126.606c-1.603,2.23-2.272,4.811-2.059,7.178
			c0.174,1.958,0.955,3.773,2.312,5.121c-0.357-0.174-0.705-0.381-1.039-0.621c-1.926-1.383-3.021-3.539-3.23-5.906
			C5.503,130.011,6.174,127.431,7.776,125.2z"/>
	</g>
	<g>
		<g>
			<path fill="#FFFFFF" d="M38.16,154.834l27.782-1.046c5.753-0.217,10.243-5.056,10.026-10.81
				c-0.216-5.755-5.056-10.243-10.811-10.026l-27.782,1.045c-5.754,0.217-10.243,5.057-10.026,10.811
				c0.109,2.877,1.373,5.439,3.33,7.252C32.633,153.874,35.283,154.942,38.16,154.834z"/>
			<path fill="#4DBED2" d="M38.16,154.834l13.891-0.522l-0.784-20.837l-13.891,0.522c-5.754,0.217-10.243,5.057-10.026,10.811
				c0.109,2.877,1.373,5.439,3.33,7.252C32.633,153.874,35.283,154.942,38.16,154.834z"/>
			<path opacity="0.5" fill="#B5B6B6" d="M37.999,154.84l27.782-1.045c5.753-0.218,10.243-5.057,10.026-10.81
				c-0.019-0.498-0.074-0.986-0.161-1.459c-0.519,5.09-4.719,9.146-9.975,9.344l-27.782,1.046c-2.877,0.108-5.527-0.96-7.48-2.775
				c-1.62-1.499-2.765-3.513-3.169-5.793c-0.051,0.478-0.069,0.969-0.051,1.466c0.108,2.877,1.373,5.439,3.33,7.252
				C32.472,153.88,35.122,154.948,37.999,154.84z"/>
		</g>
		<path opacity="0.5" fill="#FFFFFF" d="M63.848,134.1l-25.241,0.95c-5.227,0.196-9.327,4.016-9.157,8.53
			c0.015,0.39,0.062,0.772,0.139,1.144c0.495-3.996,4.329-7.199,9.105-7.379l25.24-0.951c2.613-0.098,5.016,0.728,6.782,2.145
			c1.464,1.168,2.495,2.743,2.851,4.53c0.05-0.375,0.068-0.761,0.054-1.151c-0.085-2.256-1.221-4.262-2.99-5.674
			C68.864,134.827,66.461,134.001,63.848,134.1z"/>
	</g>
</g>
<g>
	<g>
		<path fill="#FFF0B3" d="M147.365,100.983c-7.928-1.362-15.495,3.191-18.212,10.459l31.888,5.48
			C160.907,109.165,155.292,102.347,147.365,100.983z"/>
		<path fill="#F9A148" d="M128.104,117.511c0.118,7.773,5.742,14.604,13.677,15.967c7.934,1.363,15.517-3.197,18.222-10.484
			L128.104,117.511z"/>
		<path fill="#FFC655" d="M160.977,118.796c0.061-0.629,0.074-1.252,0.063-1.873l-1.977-0.34
			c-0.29-6.678-5.176-12.489-12.032-13.668c-6.854-1.178-13.399,2.669-15.902,8.867l-1.977-0.34
			c-0.218,0.582-0.413,1.174-0.566,1.787c-0.106,0.396-0.189,0.798-0.262,1.209c0,0.001,0,0.002,0.001,0.002
			c-0.071,0.41-0.126,0.814-0.156,1.217c-0.062,0.623-0.075,1.24-0.065,1.854l1.976,0.34c0.276,6.693,5.169,12.516,12.033,13.696
			c6.862,1.179,13.421-2.677,15.915-8.894l1.975,0.34c0.215-0.574,0.406-1.162,0.557-1.77c0.105-0.389,0.189-0.789,0.262-1.198
			c-0.001-0.001,0-0.001,0-0.003C160.891,119.612,160.945,119.206,160.977,118.796z"/>
		<path fill="#F9A148" d="M160.821,120.022c-0.071,0.41-0.155,0.813-0.262,1.201l-32.39-5.566c0.03-0.402,0.085-0.809,0.155-1.219
			c0.072-0.411,0.155-0.813,0.262-1.209l32.391,5.566C160.945,119.206,160.891,119.612,160.821,120.022z"/>
	</g>
	<g>
		<path fill="#FFF0B3" d="M129.358,70.138c-3.713,4.796-3.36,11.447,0.518,15.828l14.936-19.292
			C139.597,64.018,133.071,65.342,129.358,70.138z"/>
		<path fill="#F9A148" d="M133.545,88.813c5.217,2.672,11.756,1.345,15.471-3.456c3.717-4.8,3.363-11.462-0.531-15.843
			L133.545,88.813z"/>
		<path fill="#FFC655" d="M146.036,67.38c-0.397-0.264-0.809-0.494-1.225-0.706l-0.926,1.196
			c-4.549-2.171-10.148-0.975-13.359,3.173c-3.21,4.147-2.965,9.867,0.275,13.727l-0.926,1.195c0.31,0.351,0.636,0.69,0.99,1.01
			c0.227,0.211,0.463,0.41,0.713,0.602v0.001c0.248,0.192,0.5,0.372,0.756,0.534c0.393,0.262,0.799,0.49,1.211,0.7l0.926-1.195
			c4.554,2.185,10.163,0.987,13.377-3.165c3.215-4.152,2.969-9.883-0.288-13.743l0.925-1.196c-0.307-0.346-0.629-0.682-0.98-0.997
			c-0.222-0.208-0.458-0.405-0.706-0.598c-0.001,0-0.001,0-0.002,0C146.547,67.725,146.296,67.545,146.036,67.38z"/>
		<path fill="#F9A148" d="M146.797,67.918c0.248,0.192,0.485,0.39,0.707,0.598l-15.17,19.596c-0.258-0.163-0.508-0.343-0.756-0.535
			c-0.25-0.191-0.486-0.39-0.713-0.602l15.17-19.596C146.296,67.545,146.547,67.725,146.797,67.918z"/>
	</g>
</g>
<g>
	<g>
		<g>
			<g>
				<path fill="#89C0AA" d="M107.894,114.401l-38.664,7.281c-6.92,1.303-13.586-3.251-14.889-10.172L41.599,43.837l63.724-11.998
					l12.742,67.673C119.368,106.433,114.815,113.099,107.894,114.401z"/>
				
					<rect x="42.651" y="37.688" transform="matrix(0.9827 -0.185 0.185 0.9827 -7.2893 14.6924)" fill="#CCE7D3" width="64.844" height="17.424"/>
			</g>
			<g>
				
					<rect x="48.951" y="62.619" transform="matrix(0.9827 -0.185 0.185 0.9827 -13.3713 16.4354)" fill="#FAC681" width="64.843" height="34.48"/>
				<path fill="#CE9A64" d="M99.301,74.497l-36.579,6.887c-2.579,0.485-5.062-1.211-5.547-3.79l0,0
					c-0.486-2.578,1.211-5.062,3.789-5.547l36.579-6.887c2.579-0.486,5.062,1.211,5.548,3.79l0,0
					C103.576,71.527,101.879,74.011,99.301,74.497z"/>
				<g>
					
						<rect x="59.94" y="83.534" transform="matrix(0.9827 -0.185 0.185 0.9827 -14.352 16.7179)" fill="#896F55" width="44.894" height="3.426"/>
					
						<rect x="61.001" y="89.167" transform="matrix(0.9827 -0.185 0.185 0.9827 -15.3759 17.0114)" fill="#896F55" width="44.894" height="3.425"/>
				</g>
			</g>
		</g>
		<path opacity="0.2" fill="#FFFFFF" d="M80.999,119.466l-12.841,2.418c-6.328,1.191-12.423-2.973-13.615-9.3L41.599,43.839
			l16.092-3.03l13.556,71.995C72.1,117.336,76.467,120.319,80.999,119.466z"/>
	</g>
	<g>
		<polygon fill="#FFF0B3" points="102.589,25.354 99.727,10.153 38.924,21.602 41.786,36.802 33.341,38.392 34.687,45.541 
			112.38,30.912 111.035,23.764 		"/>
		<g>
			
				<rect x="43.805" y="24.765" transform="matrix(0.9828 -0.1849 0.1849 0.9828 -4.8439 8.875)" fill="#E7D497" width="2.739" height="11.3"/>
			
				<rect x="50.297" y="23.543" transform="matrix(0.9827 -0.185 0.185 0.9827 -4.5094 10.0639)" fill="#E7D497" width="2.739" height="11.3"/>
			
				<rect x="56.789" y="22.32" transform="matrix(0.9827 -0.185 0.185 0.9827 -4.1712 11.2441)" fill="#E7D497" width="2.739" height="11.3"/>
			
				<rect x="63.281" y="21.098" transform="matrix(0.9827 -0.1851 0.1851 0.9827 -3.8333 12.4264)" fill="#E7D497" width="2.739" height="11.3"/>
			
				<rect x="69.773" y="19.876" transform="matrix(0.9827 -0.185 0.185 0.9827 -3.4946 13.6043)" fill="#E7D497" width="2.739" height="11.3"/>
			
				<rect x="76.265" y="18.653" transform="matrix(0.9827 -0.185 0.185 0.9827 -3.1563 14.7844)" fill="#E7D497" width="2.739" height="11.3"/>
			
				<rect x="82.757" y="17.431" transform="matrix(0.9827 -0.1851 0.1851 0.9827 -2.8183 15.9674)" fill="#E7D497" width="2.739" height="11.3"/>
			
				<rect x="89.249" y="16.208" transform="matrix(0.9827 -0.1852 0.1852 0.9827 -2.4804 17.1579)" fill="#E7D497" width="2.74" height="11.301"/>
			
				<rect x="95.741" y="14.986" transform="matrix(0.9827 -0.185 0.185 0.9827 -2.1414 18.3216)" fill="#E7D497" width="2.74" height="11.3"/>
		</g>
		
			<rect x="32.963" y="31.05" transform="matrix(0.9827 -0.185 0.185 0.9827 -4.7974 13.9779)" fill="#FFFFFF" width="79.059" height="3.286"/>
	</g>
</g>
</svg>
