<?xml version="1.0" encoding="utf-8"?>
<!-- Generator: Adobe Illustrator 24.0.0, SVG Export Plug-In . SVG Version: 6.00 Build 0)  -->
<svg version="1.1" id="Layer_1" xmlns="http://www.w3.org/2000/svg" xmlns:xlink="http://www.w3.org/1999/xlink" x="0px" y="0px"
	 viewBox="0 0 50 50" style="enable-background:new 0 0 50 50;" xml:space="preserve">
<style type="text/css">
	.st0{fill:#1B91E0;}
	.st1{fill:#FFFFFF;stroke:#FFFFFF;stroke-width:0.5;stroke-miterlimit:10;}
</style>
<circle class="st0" cx="25" cy="25" r="23.5"/>
<g>
	<g>
		<g>
			<path class="st1" d="M35.7,16.7l-6.1-6.1c-0.1-0.1-0.3-0.2-0.4-0.2H16.5c-1.3,0-2.4,1.1-2.4,2.4v24.3c0,1.3,1.1,2.4,2.4,2.4h17
				c1.3,0,2.4-1.1,2.4-2.4v-20C35.9,17,35.9,16.8,35.7,16.7z M29.9,12.5l4,4h-2.8c-0.7,0-1.2-0.5-1.2-1.2V12.5L29.9,12.5z
				 M34.7,37.1c0,0.7-0.5,1.2-1.2,1.2h-17c-0.7,0-1.2-0.5-1.2-1.2V12.9c0-0.7,0.5-1.2,1.2-1.2h12.1v3.6c0,1.3,1.1,2.4,2.4,2.4h3.6
				L34.7,37.1L34.7,37.1z"/>
			<path class="st1" d="M29.6,27.6c-0.3-0.2-0.6-0.2-0.9,0.1L27,29.9L24.2,26c1.2-0.4,2-1.5,2-2.8c0-1.7-1.4-3-3-3h-2.4
				c-0.3,0-0.6,0.3-0.6,0.6v8.5c0,0.3,0.3,0.6,0.6,0.6s0.6-0.3,0.6-0.6v-3h1.5l3.3,4.7l-2.3,2.8c-0.2,0.3-0.2,0.6,0.1,0.9
				c0.1,0.1,0.2,0.1,0.4,0.1c0.2,0,0.4-0.1,0.5-0.2l2.1-2.6l1.8,2.6c0.1,0.2,0.3,0.3,0.5,0.3c0.1,0,0.2,0,0.4-0.1
				c0.3-0.2,0.3-0.6,0.1-0.8l-2-2.8l2-2.5C29.9,28.1,29.9,27.8,29.6,27.6z M21.4,25v-3.6h1.8c1,0,1.8,0.8,1.8,1.8
				c0,1-0.8,1.8-1.8,1.8L21.4,25L21.4,25z"/>
		</g>
	</g>
</g>
</svg>
