<?xml version="1.0" encoding="utf-8"?>
<!-- Generator: Adobe Illustrator 24.0.0, SVG Export Plug-In . SVG Version: 6.00 Build 0)  -->
<svg version="1.1" id="Layer_1" xmlns="http://www.w3.org/2000/svg" xmlns:xlink="http://www.w3.org/1999/xlink" x="0px" y="0px"
	 viewBox="0 0 48 48" style="enable-background:new 0 0 48 48;" xml:space="preserve">
<style type="text/css">
	.st0{fill:#2F80ED;}
</style>
<path class="st0" d="M29.9,8.8V0.9H9.6c-2.6,0-4.8,2-4.8,4.4v37.2c0,2.4,2.2,4.4,4.8,4.4h29c2.6,0,4.8-2,4.8-4.4V13.9h-7.9
	C32.4,13.9,29.9,11.6,29.9,8.8z M15.6,23.7l7.8-7.7c0.2-0.2,0.5-0.3,0.8-0.3s0.6,0.1,0.8,0.3l7.8,7.7c0.4,0.4,0.4,1-0.1,1.4
	c-0.2,0.2-0.5,0.3-0.7,0.3c-0.3,0-0.6-0.1-0.8-0.3l-5.9-5.8v13.9c0,0.5-0.5,1-1.1,1s-1.1-0.4-1.1-1v-14l-6,5.8
	c-0.4,0.4-1.1,0.4-1.5,0C15.2,24.7,15.2,24.1,15.6,23.7z M36,39.5c0,0.5-0.5,1-1.1,1H13.2c-0.6,0-1.1-0.4-1.1-1s0.5-1,1.1-1H35
	C35.6,38.5,36,38.9,36,39.5z"/>
<path d="M35.4,12h6.5L32,2.4v6.4C32,10.6,33.5,12,35.4,12z"/>
</svg>
