<?xml version="1.0" encoding="utf-8"?>
<!-- Generator: Adobe Illustrator 24.0.0, SVG Export Plug-In . SVG Version: 6.00 Build 0)  -->
<svg version="1.1" id="Layer_1" xmlns="http://www.w3.org/2000/svg" xmlns:xlink="http://www.w3.org/1999/xlink" x="0px" y="0px"
	 viewBox="0 0 50 50" style="enable-background:new 0 0 50 50;" xml:space="preserve">
<style type="text/css">
	.st0{fill:#1B91E0;}
	.st1{fill:#FFFFFF;}
</style>
<circle class="st0" cx="25" cy="25" r="23.5"/>
<g>
	<g>
		<path class="st1" d="M34.1,28.8c-1.4-1.4-3.1-2.4-4.9-3.1c2-1.3,3.2-3.6,3.2-6.2c0-4.1-3.4-7.5-7.5-7.5s-7.5,3.4-7.5,7.5
			c0,2.6,1.3,4.8,3.2,6.2c-1.8,0.6-3.5,1.7-4.9,3.1c-2.4,2.4-3.8,5.7-3.8,9.1h2C14.1,31.9,19,27,25,27s10.9,4.9,10.9,10.9h2
			C37.9,34.5,36.6,31.2,34.1,28.8z M25,25c-3,0-5.5-2.4-5.5-5.5s2.4-5.5,5.5-5.5s5.5,2.4,5.5,5.5S28,25,25,25z"/>
	</g>
</g>
</svg>
