<svg width="172" height="200" viewBox="0 0 172 200" fill="none" xmlns="http://www.w3.org/2000/svg">
<g clip-path="url(#clip0)">
<path d="M0.0558627 121.528C-1.1243 100.673 16.5965 86.5017 34.0776 78.5909C36.0415 77.6874 37.7748 76.5533 39.416 75.1887C42.5785 72.9114 45.0679 70.1915 47.0778 67.0659C52.3148 58.5374 54.5829 48.8104 56.0857 38.7882C59.9397 12.8524 85.8663 -3.05209 110.816 0.488386C114.135 0.940166 117.15 1.91748 120.165 3.3558C121.299 3.88134 122.35 4.48986 123.484 5.16292C124.314 5.68846 125.07 6.14024 125.817 6.74876C128.361 8.73106 130.325 10.99 131.883 13.4609C133.441 15.9319 134.585 18.6057 135.497 21.4085C137.434 27.3278 138.107 33.4314 139.693 39.6918C140.744 43.9145 143.233 47.3075 146.857 49.7969C157.635 57.1083 167.436 66.5312 166.384 80.02C165.785 86.9535 162.392 93.2138 156.962 97.7316C154.251 99.9168 151.153 101.198 147.991 102.332C142.643 104.296 137.139 105.421 131.929 107.449C129.44 108.454 127.08 109.662 124.959 111.239C122.848 112.816 120.976 114.77 119.492 117.26C117.38 120.8 116.099 124.424 114.633 128.093C106.676 149.53 94.7636 175.382 68.837 178.019C66.2001 178.25 63.6369 178.545 61 178.397C58.7411 178.25 56.556 178.093 54.2878 177.641C52.9325 177.411 51.7247 177.189 50.4431 176.885C38.3834 173.797 28.057 167.767 19.3072 159.017C15.8405 155.476 12.8993 151.927 10.1149 147.713C8.52903 145.298 7.32121 143.112 5.96588 140.623C5.13608 139.037 4.4538 137.534 3.78074 135.948C3.32896 134.814 2.87718 133.763 2.49916 132.629C2.04738 131.2 1.52184 129.836 1.19914 128.342C0.526082 125.797 0.148063 123.501 0.0558627 121.528Z" fill="#C8F3FC"/>
<path d="M127.862 131.099C123.769 126.959 124.654 119.98 129.42 116.541C130.306 115.987 131.08 115.434 131.965 115.102C133.072 114.77 134.178 114.438 135.294 114.328C136.511 114.328 137.728 114.217 138.954 114.549C141.388 115.213 143.61 116.541 145.048 118.763C145.38 119.316 145.712 119.758 145.933 120.312C146.265 121.307 146.597 122.414 146.708 123.529C146.818 124.857 146.597 126.185 146.155 127.411C144.716 131.735 140.613 134.391 136.179 134.612C135.515 134.612 134.74 134.501 134.076 134.501C133.081 134.391 132.196 133.948 131.181 133.561C129.946 132.971 128.812 132.15 127.862 131.099Z" fill="#C8F3FC"/>
<path d="M23.4369 49.7324C24.6631 42.0061 32.3434 35.7826 40.2634 36.7046C40.9733 36.7691 41.6464 36.9074 42.2641 37.1379C43.223 37.5436 44.1726 37.9493 45.0393 38.5117C46.3117 39.5075 47.3812 40.5032 48.1004 41.9508C52.1111 49.1977 47.1968 58.6113 40.1343 61.7369C37.7832 62.8249 35.2016 63.2213 32.5462 62.7142C31.8824 62.5667 31.2093 62.4284 30.4994 62.1518C26.7192 60.6674 23.944 57.2744 23.4092 53.2453C23.2525 52.1389 23.2525 50.9587 23.4369 49.7324Z" fill="#C8F3FC"/>
<path d="M53.4224 116.319C53.4224 116.319 43.9719 114.724 45.023 108.51C46.1202 101.982 53.4224 104.388 53.4224 104.388V116.319Z" fill="#EBBE8F"/>
<path d="M56.1876 102.637C56.1876 102.637 46.8109 101.07 47.7882 94.8277C48.8116 88.2907 56.1876 90.7063 56.1876 90.7063V102.637Z" fill="#EBBE8F"/>
<path d="M171.863 200L156.502 179.393C155.424 177.946 154.631 176.295 154.17 174.544L146.748 146.128C143.908 135.257 139.62 124.829 134.015 115.102L118.497 88.2077C116.589 84.8977 113.648 82.3069 110.126 80.8317L88.5048 71.75L108.669 102.646L98.9511 129.762H55.7646C52.3809 129.762 49.6426 132.51 49.6426 135.893C49.6426 139.222 52.344 141.923 55.6724 141.923H77.321C80.5388 141.923 83.5076 143.657 85.0934 146.46L97.6972 168.809C103.699 177.402 110.937 185.073 119.161 191.564L126.694 200.009H171.863V200Z" fill="#F6C8A0"/>
<path opacity="0.44" d="M141.372 200L110.964 136.308L139.362 150.129L113.325 125.512L109.526 84.7778L98.9506 129.753H55.6627C52.3343 129.753 49.6328 132.454 49.6328 135.783V135.884C49.6328 139.213 52.3343 141.914 55.6627 141.914H77.3112C80.529 141.914 83.4979 143.647 85.0837 146.45L97.6874 168.8C103.69 177.393 110.927 185.064 119.152 191.555L126.684 200H141.372Z" fill="#F6C1A0"/>
<path d="M106.05 129.716H51.8822C49.9644 129.716 48.4062 128.158 48.4062 126.24V22.9671C48.4062 21.0494 49.9644 19.4912 51.8822 19.4912H106.05C107.967 19.4912 109.526 21.0494 109.526 22.9671V126.24C109.526 128.158 107.967 129.716 106.05 129.716Z" fill="#48404E"/>
<g opacity="0.36">
<path opacity="0.36" d="M54.5176 26.0464H66.1163" stroke="white" stroke-width="11.907" stroke-miterlimit="10" stroke-linecap="round"/>
<path opacity="0.36" d="M66.1543 122.598H91.7859" stroke="white" stroke-width="11.907" stroke-miterlimit="10" stroke-linecap="round"/>
<path opacity="0.36" d="M97.5195 26.0464H103.319" stroke="white" stroke-width="11.907" stroke-miterlimit="10" stroke-linecap="round"/>
<path opacity="0.36" d="M93.3145 26.0464H95.6286" stroke="white" stroke-width="11.907" stroke-miterlimit="10" stroke-linecap="round"/>
</g>
<path d="M138.246 193.565L124.277 185.691C112.005 179.08 103.652 166.993 101.808 153.181C101.08 147.741 97.862 142.956 93.1045 140.227L76.656 128.536C73.1617 125.798 72.4886 120.782 75.1347 117.223C77.4397 114.125 81.5887 113.065 85.0923 114.669L86.9455 115.518C96.101 119.703 104.805 124.811 112.927 130.758L139.361 150.129L138.246 193.565Z" fill="#F6CBA0"/>
<path d="M76.7765 126.821C75.3843 125.724 74.4808 124.157 74.2503 122.405C74.0105 120.644 74.4623 118.892 75.5226 117.472C76.795 115.767 78.8234 114.743 80.9532 114.743C81.9305 114.743 82.8709 114.946 83.7561 115.352L87.0107 116.836L79.2751 128.582L76.7765 126.821Z" fill="#FFDAB5"/>
<path d="M80.9439 114.927C81.8935 114.927 82.8063 115.13 83.673 115.527L86.7248 116.928L79.2105 128.342L76.8778 126.683C75.5225 125.623 74.6558 124.092 74.4253 122.386C74.1948 120.681 74.6374 118.975 75.6608 117.592C76.2785 116.762 77.0899 116.08 78.0119 115.628C78.9247 115.167 79.9389 114.927 80.9439 114.927ZM80.9439 114.559C78.8048 114.559 76.7119 115.554 75.3658 117.361C73.1161 120.386 73.6877 124.645 76.6566 126.969L79.3119 128.859L87.2688 116.771L83.8205 115.195C82.8985 114.761 81.912 114.559 80.9439 114.559Z" fill="#F2C494"/>
<path opacity="0.19" d="M105.229 54.1396H36.8899C34.6587 54.1396 32.8516 55.9468 32.8516 58.178V88.9728C32.8516 91.2041 34.6587 93.0112 36.8899 93.0112H85.7098L89.9879 99.2992L94.4688 93.0112H105.219C107.451 93.0112 109.258 91.2041 109.258 88.9728V58.178C109.267 55.956 107.46 54.1396 105.229 54.1396Z" fill="#0B6770"/>
<path d="M100.305 49.3545H31.9661C29.7349 49.3545 27.9277 51.1616 27.9277 53.3928V84.1876C27.9277 86.4188 29.7349 88.2259 31.9661 88.2259H80.786L85.064 94.5139L89.545 88.2259H100.295C102.527 88.2259 104.334 86.4188 104.334 84.1876V53.3928C104.343 51.1616 102.536 49.3545 100.305 49.3545Z" fill="#F7F7F7"/>
<path d="M95.6679 67.2598H64.5781V77.6691H95.6679V67.2598Z" fill="#EDEDED"/>
<path d="M65.2051 78.3145H95.041" stroke="#D4D4D4" stroke-miterlimit="10" stroke-linecap="square"/>
<path d="M70.3672 71.0952V74.5527" stroke="#666666" stroke-miterlimit="10" stroke-linecap="square"/>
<path d="M71.8522 71.9341L68.8926 73.7228" stroke="#666666" stroke-miterlimit="10" stroke-linecap="square"/>
<path d="M68.8926 71.9341L71.8522 73.7228" stroke="#666666" stroke-miterlimit="10" stroke-linecap="square"/>
<path d="M76.7949 71.0952V74.5527" stroke="#666666" stroke-miterlimit="10" stroke-linecap="square"/>
<path d="M78.2702 71.9341L75.3105 73.7228" stroke="#666666" stroke-miterlimit="10" stroke-linecap="square"/>
<path d="M75.3105 71.9341L78.2702 73.7228" stroke="#666666" stroke-miterlimit="10" stroke-linecap="square"/>
<path d="M83.2109 71.0952V74.5527" stroke="#666666" stroke-miterlimit="10" stroke-linecap="square"/>
<path d="M84.6862 71.9341L81.7266 73.7228" stroke="#666666" stroke-miterlimit="10" stroke-linecap="square"/>
<path d="M81.7266 71.9341L84.6862 73.7228" stroke="#666666" stroke-miterlimit="10" stroke-linecap="square"/>
<path d="M89.627 71.0952V74.5527" stroke="#666666" stroke-miterlimit="10" stroke-linecap="square"/>
<path d="M91.1027 71.9341L88.1523 73.7228" stroke="#666666" stroke-miterlimit="10" stroke-linecap="square"/>
<path d="M88.1523 71.9341L91.1027 73.7228" stroke="#666666" stroke-miterlimit="10" stroke-linecap="square"/>
<path d="M65.4902 62.5298H86.0785" stroke="#D4D4D4" stroke-miterlimit="10" stroke-linecap="square"/>
<path d="M65.4902 59.3398H78.8039" stroke="#D4D4D4" stroke-miterlimit="10" stroke-linecap="square"/>
<path d="M75.7793 59.3398H92.1263" stroke="#D4D4D4" stroke-miterlimit="10" stroke-linecap="square"/>
<path d="M47.2521 80.5547C46.9478 80.5547 46.662 80.4441 46.4499 80.232L38.5669 72.7269C37.9952 72.183 37.6356 71.4546 37.5434 70.6709L36.2987 59.6253C36.2526 59.2104 36.3725 58.8048 36.6307 58.4913C36.8888 58.1686 37.2576 57.9657 37.6725 57.9289L41.7201 57.5232C43.5549 57.3388 45.4081 57.2466 47.2521 57.2466C49.0961 57.2466 50.9493 57.3388 52.784 57.5232L56.8316 57.9289C57.2465 57.9657 57.6153 58.1686 57.8735 58.4913C58.1316 58.814 58.2515 59.2197 58.2054 59.6253L56.9607 70.6709C56.8685 71.4546 56.5089 72.183 55.9373 72.7269L48.0542 80.232C47.8329 80.4349 47.5471 80.5547 47.2521 80.5547Z" fill="url(#paint0_linear)"/>
<path d="M47.2518 57.9381C49.0774 57.9381 50.8937 58.0303 52.71 58.2055L56.7576 58.6112C57.2278 58.6573 57.569 59.0814 57.5137 59.5424L56.269 70.5879C56.1952 71.2149 55.9094 71.7865 55.4576 72.2199L47.5745 79.725C47.4823 79.8079 47.3624 79.854 47.2426 79.854C47.1227 79.854 47.0029 79.8079 46.9107 79.725L39.0276 72.2199C38.5758 71.7865 38.2807 71.2057 38.2162 70.5879L36.9715 59.5424C36.9162 59.0722 37.2573 58.6573 37.7275 58.6112L41.7751 58.2055C43.6007 58.0211 45.4262 57.9381 47.2518 57.9381ZM47.2518 56.5459C45.3894 56.5459 43.5085 56.6381 41.6553 56.8225L37.6077 57.2282C37.0084 57.2835 36.4736 57.5785 36.0956 58.0488C35.7176 58.519 35.5424 59.0998 35.6162 59.6991L36.8609 70.7447C36.9715 71.6943 37.4048 72.5702 38.0963 73.2249L45.9794 80.7299C46.3298 81.0618 46.7816 81.2463 47.261 81.2463C47.7405 81.2463 48.1922 81.0618 48.5426 80.7299L56.4257 73.2249C57.1172 72.5702 57.5505 71.6851 57.6612 70.7447L58.9059 59.6991C58.9704 59.0998 58.8045 58.519 58.4264 58.0488C58.0484 57.5785 57.5137 57.2927 56.9144 57.2282L52.8668 56.8225C50.9951 56.6473 49.1142 56.5459 47.2518 56.5459Z" fill="white"/>
<g opacity="0.8">
<mask id="mask0" mask-type="alpha" maskUnits="userSpaceOnUse" x="36" y="52" width="26" height="27">
<g opacity="0.8">
<g opacity="0.8">
<path opacity="0.8" d="M42.2648 78.1207L36.0137 72.1369L54.7763 52.5444L61.0275 58.5282L42.2648 78.1207Z" fill="url(#paint1_linear)"/>
</g>
</g>
</mask>
<g mask="url(#mask0)">
<path opacity="0.8" d="M42.2648 78.1207L36.0137 72.1369L54.7763 52.5444L61.0275 58.5282L42.2648 78.1207Z" fill="url(#paint2_linear)"/>
</g>
</g>
<path d="M43.8125 66.1993L47.0211 69.3987L59.0624 56.7212" stroke="#37B34A" stroke-width="2" stroke-miterlimit="10"/>
</g>
<defs>
<linearGradient id="paint0_linear" x1="39.8419" y1="58.1975" x2="52.9093" y2="70.0203" gradientUnits="userSpaceOnUse">
<stop stop-color="#FFE887"/>
<stop offset="0.174" stop-color="#FDDF7B"/>
<stop offset="0.4853" stop-color="#F8C65D"/>
<stop offset="0.8953" stop-color="#EF9E2B"/>
<stop offset="1" stop-color="#ED931D"/>
</linearGradient>
<linearGradient id="paint1_linear" x1="36.4617" y1="78.3082" x2="65.0667" y2="47.5341" gradientUnits="userSpaceOnUse">
<stop/>
<stop offset="1" stop-color="white"/>
</linearGradient>
<linearGradient id="paint2_linear" x1="36.4617" y1="78.3082" x2="65.0667" y2="47.5341" gradientUnits="userSpaceOnUse">
<stop stop-color="white"/>
<stop offset="1" stop-color="white"/>
</linearGradient>
<clipPath id="clip0">
<rect width="171.861" height="200" fill="white"/>
</clipPath>
</defs>
</svg>
