<?xml version="1.0" encoding="utf-8"?>
<!-- Generator: Adobe Illustrator 16.0.0, SVG Export Plug-In . SVG Version: 6.00 Build 0)  -->
<!DOCTYPE svg PUBLIC "-//W3C//DTD SVG 1.1//EN" "http://www.w3.org/Graphics/SVG/1.1/DTD/svg11.dtd">
<svg version="1.1" id="Layer_1" xmlns="http://www.w3.org/2000/svg" xmlns:xlink="http://www.w3.org/1999/xlink" x="0px" y="0px"
	 width="80px" height="80px" viewBox="-8.647 -15.631 80 80" enable-background="new -8.647 -15.631 80 80" xml:space="preserve">
<g>
	<path id="video" fill="#646565" d="M37.88-1.632H-1.175c-3.573,0-6.473,2.897-6.473,6.473l0,0v39.055
		c0,3.574,2.899,6.473,6.473,6.473l0,0H37.88c3.575,0,6.473-2.898,6.473-6.473l0,0V4.841C44.353,1.265,41.455-1.632,37.88-1.632
		L37.88-1.632z M63.529,3.473L48.686,13.711v21.314L63.527,45.25c1.968,1.373,4.675,0.889,6.046-1.078
		c0.495-0.711,0.767-1.551,0.779-2.416V6.968c-0.039-2.399-2.017-4.311-4.414-4.273c-0.862,0.016-1.702,0.286-2.411,0.779H63.529z"
		/>
</g>
</svg>
