<?xml version="1.0" encoding="utf-8"?>
<!-- Generator: Adobe Illustrator 16.0.0, SVG Export Plug-In . SVG Version: 6.00 Build 0)  -->
<!DOCTYPE svg PUBLIC "-//W3C//DTD SVG 1.1//EN" "http://www.w3.org/Graphics/SVG/1.1/DTD/svg11.dtd">
<svg version="1.1" id="Layer_1" xmlns="http://www.w3.org/2000/svg" xmlns:xlink="http://www.w3.org/1999/xlink" x="0px" y="0px"
	 width="80px" height="80px" viewBox="0 0 80 80" enable-background="new 0 0 80 80" xml:space="preserve">
<g>
	<path id="video" fill="#FFFFFF" d="M46.528,14H7.474C3.9,14,1,16.896,1,20.472l0,0v39.055C1,63.102,3.899,66,7.474,66l0,0h39.055
		c3.575,0,6.474-2.898,6.474-6.473l0,0V20.472C53.002,16.896,50.104,14,46.528,14L46.528,14z M72.178,19.104L57.334,29.342v21.314
		l14.842,10.225c1.968,1.373,4.675,0.889,6.046-1.078c0.495-0.711,0.767-1.551,0.778-2.416V22.599
		c-0.039-2.399-2.017-4.311-4.414-4.273c-0.861,0.016-1.701,0.286-2.41,0.779L72.178,19.104L72.178,19.104z"/>
</g>
</svg>
