<?xml version="1.0" encoding="utf-8"?>
<!-- Generator: Adobe Illustrator 16.0.0, SVG Export Plug-In . SVG Version: 6.00 Build 0)  -->
<!DOCTYPE svg PUBLIC "-//W3C//DTD SVG 1.1//EN" "http://www.w3.org/Graphics/SVG/1.1/DTD/svg11.dtd">
<svg version="1.1" id="Layer_1" xmlns="http://www.w3.org/2000/svg" xmlns:xlink="http://www.w3.org/1999/xlink" x="0px" y="0px"
	 width="122.879px" height="122.881px" viewBox="0 0 122.879 122.881" enable-background="new 0 0 122.879 122.881"
	 xml:space="preserve">
<g>
	<linearGradient id="SVGID_1_" gradientUnits="userSpaceOnUse" x1="0" y1="61.4404" x2="122.8799" y2="61.4404">
		<stop  offset="0" style="stop-color:#5B9CD4"/>
		<stop  offset="1" style="stop-color:#3E82C4"/>
	</linearGradient>
	<circle fill="url(#SVGID_1_)" cx="61.44" cy="61.44" r="61.44"/>
	<g>
		<g>
			<g>
				<path fill="#FFFFFF" d="M62.883,81.647v5.774c0,0.797,0.646,1.443,1.443,1.443H78.76c0.797,0,1.445-0.646,1.445-1.443v-5.774
					c0-0.796-0.648-1.442-1.445-1.442H64.327C63.53,80.205,62.883,80.852,62.883,81.647z M65.77,83.092h11.549v2.887H65.77V83.092z"
					/>
				<path fill="#FFFFFF" d="M87.42,28.242H35.458c-3.978,0-7.217,3.239-7.217,7.217v51.962c0,3.978,3.239,7.218,7.217,7.218H87.42
					c3.979,0,7.218-3.24,7.218-7.218V35.459C94.638,31.481,91.399,28.242,87.42,28.242z M91.751,87.421
					c0,2.388-1.942,4.331-4.331,4.331H35.458c-2.388,0-4.33-1.943-4.33-4.331V42.676h60.623V87.421z M91.751,39.789H31.128v-4.33
					c0-2.387,1.942-4.33,4.33-4.33H87.42c2.389,0,4.331,1.943,4.331,4.33V39.789z"/>
				<path fill="#FFFFFF" d="M35.458,34.016c-0.796,0-1.443,0.646-1.443,1.443s0.647,1.443,1.443,1.443s1.443-0.646,1.443-1.443
					S36.254,34.016,35.458,34.016z"/>
				<path fill="#FFFFFF" d="M44.12,88.865h14.434c0.797,0,1.443-0.646,1.443-1.444v-5.773c0-0.796-0.646-1.442-1.443-1.442H44.12
					c-0.797,0-1.443,0.646-1.443,1.442v5.773C42.676,88.219,43.323,88.865,44.12,88.865z M45.563,83.092H57.11v2.887H45.563V83.092z
					"/>
				<path fill="#FFFFFF" d="M47.006,34.016c-0.797,0-1.443,0.646-1.443,1.443s0.646,1.443,1.443,1.443s1.443-0.646,1.443-1.443
					S47.803,34.016,47.006,34.016z"/>
				<path fill="#FFFFFF" d="M41.233,34.016c-0.797,0-1.443,0.646-1.443,1.443s0.646,1.443,1.443,1.443s1.443-0.646,1.443-1.443
					S42.03,34.016,41.233,34.016z"/>
				<path fill="#FFFFFF" d="M50.222,72.676c0.034,0.033,0.075,0.058,0.109,0.089c0.69,0.677,1.435,1.294,2.237,1.836
					c0.092,0.065,0.193,0.114,0.289,0.176c0.768,0.499,1.572,0.937,2.424,1.297c0.102,0.044,0.206,0.073,0.307,0.113
					c0.863,0.344,1.758,0.624,2.688,0.813c0.057,0.013,0.115,0.015,0.171,0.025c0.97,0.186,1.968,0.293,2.993,0.293
					c1.024,0,2.023-0.107,2.993-0.293c0.059-0.011,0.116-0.013,0.171-0.025c0.929-0.188,1.824-0.47,2.688-0.813
					c0.102-0.04,0.205-0.069,0.306-0.113c0.853-0.357,1.657-0.798,2.425-1.297c0.096-0.06,0.197-0.11,0.288-0.176
					c0.804-0.542,1.549-1.159,2.238-1.836c0.034-0.034,0.075-0.058,0.108-0.089c0.007-0.005,0.007-0.018,0.014-0.023
					c2.868-2.875,4.648-6.84,4.648-11.212c0-8.756-7.123-15.878-15.879-15.878S45.563,52.685,45.563,61.44
					c0,4.372,1.778,8.337,4.647,11.212C50.216,72.658,50.216,72.671,50.222,72.676z M69.241,71.761
					c-0.305,0.229-0.604,0.459-0.925,0.655c-0.26,0.161-0.537,0.293-0.808,0.439c-3.752,1.925-8.384,1.925-12.137,0
					c-0.271-0.146-0.548-0.278-0.808-0.439c-0.32-0.196-0.62-0.427-0.925-0.655c-0.228-0.174-0.443-0.358-0.66-0.545
					c1.527-3.291,4.809-5.446,8.461-5.446s6.934,2.155,8.465,5.446C69.688,71.402,69.467,71.587,69.241,71.761z M57.11,58.554
					c0-2.388,1.942-4.33,4.33-4.33s4.33,1.942,4.33,4.33s-1.942,4.33-4.33,4.33S57.11,60.941,57.11,58.554z M61.44,48.449
					c7.162,0,12.991,5.828,12.991,12.991c0,2.821-0.927,5.413-2.461,7.546c-1.339-2.278-3.356-4.047-5.741-5.074
					c1.479-1.325,2.428-3.225,2.428-5.358c0-3.978-3.238-7.219-7.217-7.219s-7.217,3.241-7.217,7.219
					c0,2.134,0.949,4.033,2.428,5.354c-2.385,1.028-4.402,2.798-5.742,5.074c-1.533-2.129-2.459-4.721-2.459-7.542
					C48.45,54.277,54.278,48.449,61.44,48.449z"/>
			</g>
		</g>
	</g>
</g>
</svg>
