<?xml version="1.0" encoding="utf-8"?>
<!-- Generator: Adobe Illustrator 16.0.0, SVG Export Plug-In . SVG Version: 6.00 Build 0)  -->
<!DOCTYPE svg PUBLIC "-//W3C//DTD SVG 1.1//EN" "http://www.w3.org/Graphics/SVG/1.1/DTD/svg11.dtd">
<svg version="1.1" id="Layer_1" xmlns="http://www.w3.org/2000/svg" xmlns:xlink="http://www.w3.org/1999/xlink" x="0px" y="0px"
	 width="122.879px" height="122.879px" viewBox="0 0 122.879 122.879" enable-background="new 0 0 122.879 122.879"
	 xml:space="preserve">
<g>
	<linearGradient id="SVGID_1_" gradientUnits="userSpaceOnUse" x1="0" y1="61.4395" x2="122.8799" y2="61.4395">
		<stop  offset="0" style="stop-color:#5B9CD4"/>
		<stop  offset="1" style="stop-color:#3E82C4"/>
	</linearGradient>
	<circle fill="url(#SVGID_1_)" cx="61.439" cy="61.439" r="61.439"/>
	<g>
		<path fill="none" d="M61.439,27.642c-18.635,0-33.797,15.161-33.797,33.798c0,7.253,2.264,14.166,6.545,19.992
			c0.299,0.405,0.404,0.918,0.291,1.408l-2.646,11.442l12.217-3.28c0.143-0.04,0.293-0.061,0.447-0.061
			c0.283,0,0.568,0.072,0.82,0.209c4.916,2.673,10.49,4.086,16.123,4.086c18.637,0,33.799-15.16,33.799-33.797
			S80.076,27.642,61.439,27.642z M60.924,61.926c2.248,2.248,4.18,3.328,5.889,4.266l1.256-1.256c1.1-1.101,2.566-1.707,4.129-1.707
			c1.561,0,3.027,0.606,4.129,1.707l3.051,3.053c1.109,1.109,1.717,2.584,1.711,4.152c-0.008,1.572-0.627,3.041-1.746,4.141
			l-0.859,0.846c-0.043,0.043-0.092,0.084-0.143,0.123c-0.844,0.664-1.822,1.222-2.832,1.615c-1.076,0.416-2.014,0.669-2.871,0.773
			c-0.689,0.14-1.438,0.209-2.229,0.209c-3.869,0-10.125-1.643-17.951-9.465c-7.848-7.854-10.08-12.758-9.182-20.189
			c0.104-0.926,0.334-1.855,0.705-2.837c0.404-1.032,0.959-2.011,1.613-2.849c0.041-0.051,0.084-0.1,0.127-0.145l0.848-0.86
			c1.1-1.118,2.57-1.735,4.139-1.743c1.584,0,3.051,0.609,4.154,1.711l3.17,3.171c2.277,2.277,2.277,5.983,0,8.259l-0.209,0.211
			l-1.111,1.044C57.586,57.744,58.697,59.699,60.924,61.926z M56.059,90.646c-0.162,0.802-0.873,1.384-1.688,1.384
			c-0.727,0-1.377-0.457-1.621-1.141c-0.24-0.672-0.035-1.434,0.508-1.893c0.551-0.463,1.406-0.526,2.02-0.147
			C55.885,89.223,56.199,89.944,56.059,90.646z M61.574,92.881l-0.68-0.005c-0.459-0.001-0.891-0.181-1.215-0.505
			c-0.326-0.326-0.504-0.759-0.504-1.218c0.002-0.948,0.773-1.718,1.721-1.718l0.67,0.003c15.369-0.063,27.873-12.624,27.873-27.999
			c0-15.439-12.561-28-28-28s-28,12.561-28,28c0,6.008,1.875,11.735,5.42,16.561l1.656,2.254c0.314,0.427,0.414,0.964,0.275,1.473
			l-1.273,4.668l4.994-1.66c0.445-0.148,0.949-0.104,1.365,0.121l2.762,1.503c0.834,0.453,1.143,1.501,0.691,2.335
			c-0.438,0.805-1.523,1.129-2.336,0.689l-2.105-1.145l-7.33,2.438c-0.6,0.198-1.271,0.047-1.727-0.383
			c-0.463-0.437-0.645-1.088-0.479-1.703l1.898-6.966l-1.166-1.586c-3.982-5.42-6.088-11.852-6.088-18.599
			c0-17.337,14.105-31.441,31.441-31.441c17.338,0,31.443,14.104,31.443,31.441C92.883,78.704,78.838,92.808,61.574,92.881z"/>
		<path fill="none" d="M52.426,45.904c-0.451-0.449-1.057-0.699-1.707-0.701c-0.643,0.002-1.246,0.255-1.699,0.715l-0.783,0.797
			c-0.404,0.533-0.773,1.19-1.041,1.873c-0.266,0.706-0.43,1.359-0.5,1.993c-0.672,5.548,0.385,9.554,8.195,17.368
			c7.355,7.354,12.904,8.451,15.555,8.451c0.689,0,1.203-0.074,1.512-0.135c0.1-0.02,0.17-0.032,0.25-0.043
			c0.566-0.064,1.238-0.25,2.055-0.565c0.672-0.263,1.326-0.632,1.893-1.065l0.773-0.766c0.461-0.45,0.715-1.053,0.717-1.699
			c0.002-0.645-0.246-1.25-0.701-1.705l-3.053-3.053c-0.902-0.904-2.486-0.904-3.389,0l-2.164,2.164
			c-0.527,0.527-1.383,0.652-2.041,0.295l-0.211-0.112c-0.131-0.067-0.262-0.138-0.395-0.211l-0.445-0.247
			c-1.836-1.008-4.123-2.265-6.756-4.898c-2.656-2.654-3.918-4.952-4.934-6.797l-0.227-0.414c-0.074-0.129-0.129-0.24-0.172-0.33
			s-0.064-0.136-0.092-0.188c-0.379-0.686-0.246-1.543,0.328-2.082l2.201-2.083c0.453-0.451,0.703-1.053,0.703-1.694
			c0-0.641-0.25-1.244-0.701-1.695L52.426,45.904z"/>
		<path fill="#FFFFFF" d="M54.992,89.311c-0.186-0.113-0.4-0.174-0.621-0.174c-0.281,0-0.553,0.098-0.764,0.275
			c-0.365,0.31-0.506,0.842-0.346,1.293c0.166,0.46,0.621,0.781,1.109,0.781c0.549,0,1.045-0.407,1.154-0.949
			C55.619,90.066,55.4,89.563,54.992,89.311z"/>
		<path fill="#FFFFFF" d="M57.648,47.025l-3.172-3.17c-1-1-2.332-1.551-3.746-1.551c-1.443,0.006-2.777,0.566-3.773,1.58
			l-0.848,0.859c-0.029,0.032-0.061,0.066-0.088,0.102c-0.621,0.795-1.15,1.726-1.527,2.689c-0.359,0.953-0.58,1.838-0.68,2.722
			c-0.873,7.234,1.32,12.029,9.027,19.741c7.693,7.692,13.801,9.306,17.566,9.306c0.752,0,1.459-0.063,2.105-0.193l-0.002-0.003
			l0.002,0.003c0.01-0.003,0.02-0.003,0.029-0.005v-0.002l0.006,0.002c0.006,0,0.012-0.002,0.018-0.002v-0.002v0.002
			c0.846-0.111,1.73-0.353,2.744-0.746c0.961-0.373,1.893-0.904,2.693-1.533c0.031-0.025,0.064-0.054,0.096-0.084l0.861-0.848
			c1.016-0.996,1.576-2.328,1.582-3.754c0.006-1.422-0.543-2.76-1.551-3.767l-3.051-3.052c-0.998-0.998-2.328-1.549-3.744-1.549
			s-2.746,0.551-3.746,1.549l-1.539,1.541l-0.27-0.143c-1.762-0.968-3.76-2.064-6.104-4.408c-2.367-2.369-3.496-4.426-4.406-6.079
			l-0.1-0.185l1.615-1.53C59.711,52.451,59.711,49.092,57.648,47.025z M55.98,52.85l-0.193,0.196l-2.02,1.899
			c-0.393,0.367-0.484,0.953-0.225,1.426c0.035,0.064,0.061,0.117,0.086,0.172c0.059,0.12,0.105,0.22,0.174,0.338l0.23,0.416
			c1,1.818,2.242,4.078,4.84,6.678c2.58,2.58,4.828,3.814,6.637,4.809l0.445,0.246c0.129,0.07,0.256,0.139,0.383,0.205l0.221,0.117
			c0.443,0.239,1.031,0.158,1.395-0.201l2.164-2.164c0.555-0.555,1.293-0.861,2.078-0.861c0.787,0,1.525,0.307,2.08,0.861
			l3.053,3.052c0.559,0.558,0.863,1.302,0.861,2.091c-0.006,0.793-0.316,1.533-0.879,2.086L76.51,75
			c-0.631,0.488-1.332,0.883-2.051,1.163c-0.859,0.333-1.576,0.53-2.193,0.602c-0.066,0.007-0.121,0.018-0.184,0.03
			c-0.352,0.068-0.902,0.148-1.637,0.148c-2.734,0-8.445-1.119-15.939-8.61c-7.969-7.974-9.043-12.091-8.352-17.798
			c0.074-0.693,0.25-1.39,0.533-2.143c0.287-0.732,0.682-1.436,1.141-2.033l0.805-0.822c0.555-0.564,1.297-0.875,2.086-0.878h0.002
			c0.793,0.003,1.537,0.308,2.09,0.86l3.17,3.173c0.557,0.555,0.861,1.294,0.861,2.079C56.842,51.559,56.537,52.297,55.98,52.85z"/>
		<path fill="#FFFFFF" d="M61.439,30.541c-17.037,0-30.896,13.86-30.896,30.898c0,6.631,2.068,12.951,5.98,18.275l1.322,1.799
			l-1.967,7.219c-0.115,0.422,0.01,0.867,0.326,1.165c0.313,0.296,0.775,0.397,1.182,0.263l7.553-2.514l2.314,1.258
			c0.555,0.301,1.299,0.077,1.598-0.471c0.311-0.572,0.098-1.287-0.473-1.598l-2.762-1.502c-0.285-0.156-0.629-0.186-0.934-0.084
			l-5.955,1.981l1.537-5.647c0.096-0.349,0.027-0.716-0.188-1.006l-1.658-2.256c-3.613-4.921-5.523-10.758-5.523-16.883
			c0-15.738,12.805-28.544,28.543-28.544c15.74,0,28.545,12.806,28.545,28.544c0,15.674-12.748,28.477-28.418,28.543l-0.67-0.004
			c-0.648,0-1.176,0.527-1.176,1.175c-0.002,0.314,0.121,0.61,0.342,0.833c0.223,0.223,0.518,0.346,0.832,0.346l0.678,0.006
			C78.537,92.266,92.34,78.404,92.34,61.439C92.34,44.401,78.479,30.541,61.439,30.541z"/>
		<path fill="#FFFFFF" d="M87.389,35.492c-6.932-6.932-16.146-10.748-25.949-10.748s-19.018,3.816-25.945,10.748
			c-6.932,6.931-10.75,16.146-10.75,25.947c0,7.641,2.324,14.961,6.721,21.17l0.068,0.099l-3.172,13.716
			c-0.092,0.399,0.033,0.826,0.328,1.111s0.727,0.395,1.125,0.291l14.537-3.906l0.094,0.049c5.209,2.727,11.086,4.166,16.994,4.166
			c9.803,0,19.018-3.816,25.949-10.748c6.93-6.931,10.746-16.146,10.746-25.947C98.135,51.638,94.318,42.422,87.389,35.492z
			 M61.439,95.779c-5.723,0-11.389-1.436-16.381-4.151c-0.268-0.146-0.59-0.179-0.867-0.103l-13.094,3.517l2.852-12.325
			c0.076-0.334,0.004-0.686-0.199-0.963c-4.35-5.92-6.65-12.945-6.65-20.314c0-18.936,15.404-34.342,34.34-34.342
			c18.938,0,34.342,15.406,34.342,34.342S80.377,95.779,61.439,95.779z"/>
	</g>
</g>
</svg>
