<svg width="80" height="80" viewBox="0 0 80 80" fill="none" xmlns="http://www.w3.org/2000/svg">
<path d="M76.3231 17.4546H3.67687C2.29344 17.4546 1.17188 18.5762 1.17188 19.9596V30.9857C1.17188 31.6171 1.48234 32.2172 2.01937 32.5493C4.51562 34.0933 6.18203 36.8488 6.18203 39.9999C6.18203 43.1508 4.51562 45.9065 2.01937 47.4505C1.48234 47.7826 1.17188 48.3827 1.17188 49.0141V60.0402C1.17188 61.4237 2.29344 62.5452 3.67687 62.5452H76.323C77.7064 62.5452 78.828 61.4237 78.828 60.0402V19.9596C78.8281 18.576 77.7066 17.4546 76.3231 17.4546Z" fill="#2F80ED"/>
<path d="M73.8181 58.7879H23.7173C23.0256 58.7879 22.4648 58.2271 22.4648 57.5354V22.4649C22.4648 21.7732 23.0256 21.2124 23.7173 21.2124H73.8181C74.5098 21.2124 75.0706 21.7732 75.0706 22.4649V57.5355C75.0708 58.2272 74.51 58.7879 73.8181 58.7879Z" fill="#69A0EB"/>
<path d="M47.7302 48.6556L41.238 52.7314C39.8072 53.6296 38.0118 52.3251 38.424 50.6868L40.2941 43.2529L34.4116 38.3381C33.1152 37.2549 33.801 35.1442 35.4865 35.0299L43.1344 34.5114L45.991 27.3979C46.6205 25.8303 48.8399 25.8303 49.4694 27.3979L52.326 34.5114L59.974 35.0299C61.6594 35.1442 62.3454 37.2549 61.0488 38.3381L55.1663 43.2529L57.0365 50.6868C57.4487 52.3251 55.6532 53.6296 54.2224 52.7314L47.7302 48.6556Z" fill="#FF9900"/>
<path d="M56.2238 47.4492C48.1077 46.9531 41.2266 41.929 38.0822 34.8545L35.4885 35.0303C33.803 35.1445 33.1171 37.2553 34.4136 38.3384L40.2961 43.2532L38.426 50.6872C38.0138 52.3254 39.8093 53.63 41.24 52.7317L47.7322 48.6559L54.2243 52.7317C55.655 53.63 57.4505 52.3256 57.0383 50.6872L56.2238 47.4492Z" fill="#FFA318"/>
<path d="M76.3231 16.2827H3.67687C1.64953 16.2827 0 17.9322 0 19.9597V30.9858C0 32.0297 0.5375 33.0108 1.40297 33.5462C3.66172 34.9432 5.01016 37.3558 5.01016 40.0001C5.01016 42.6443 3.66172 45.0569 1.40281 46.454C0.5375 46.9893 0 47.9704 0 49.0143V60.0404C0 62.0679 1.64953 63.7172 3.67687 63.7172H76.3231C78.3506 63.7172 80 62.0677 80 60.0404V19.9597C80 17.9322 78.3505 16.2827 76.3231 16.2827ZM77.6562 60.0404C77.6562 60.7755 77.0583 61.3735 76.3231 61.3735H18.6266V61.2929C18.6266 60.6457 18.102 60.121 17.4547 60.121C16.8073 60.121 16.2828 60.6457 16.2828 61.2929V61.3735H3.67687C2.94172 61.3735 2.34375 60.7754 2.34375 60.0404V49.0143C2.34375 48.776 2.45578 48.5587 2.63578 48.4472C5.59 46.6201 7.35375 43.4622 7.35375 40.0001C7.35375 36.5379 5.59 33.3801 2.63578 31.5529C2.45578 31.4413 2.34375 31.2241 2.34375 30.9857V19.9596C2.34375 19.2244 2.94172 18.6265 3.67687 18.6265H16.2828V18.7071C16.2828 19.3543 16.8073 19.879 17.4547 19.879C18.102 19.879 18.6266 19.3543 18.6266 18.7071V18.6265H76.3231C77.0583 18.6265 77.6562 19.2246 77.6562 19.9596V60.0404V60.0404Z" fill="#0C347B"/>
<path d="M17.4531 37.5757C16.8058 37.5757 16.2812 38.1004 16.2812 38.7476V41.2526C16.2812 41.8998 16.8058 42.4244 17.4531 42.4244C18.1005 42.4244 18.625 41.8998 18.625 41.2526V38.7476C18.625 38.1004 18.1005 37.5757 17.4531 37.5757Z" fill="#0C347B"/>
<path d="M17.4531 22.5454C16.8058 22.5454 16.2812 23.0701 16.2812 23.7173V26.2223C16.2812 26.8695 16.8058 27.3942 17.4531 27.3942C18.1005 27.3942 18.625 26.8695 18.625 26.2223V23.7173C18.625 23.0698 18.1005 22.5454 17.4531 22.5454Z" fill="#0C347B"/>
<path d="M17.4531 30.0601C16.8058 30.0601 16.2812 30.5847 16.2812 31.2319V33.7369C16.2812 34.3841 16.8058 34.9088 17.4531 34.9088C18.1005 34.9088 18.625 34.3841 18.625 33.7369V31.2319C18.625 30.5847 18.1005 30.0601 17.4531 30.0601Z" fill="#0C347B"/>
<path d="M17.4531 45.0908C16.8058 45.0908 16.2812 45.6155 16.2812 46.2627V48.7677C16.2812 49.4149 16.8058 49.9396 17.4531 49.9396C18.1005 49.9396 18.625 49.4149 18.625 48.7677V46.2627C18.625 45.6154 18.1005 45.0908 17.4531 45.0908Z" fill="#0C347B"/>
<path d="M17.4531 52.606C16.8058 52.606 16.2812 53.1306 16.2812 53.7778V56.2828C16.2812 56.93 16.8058 57.4547 17.4531 57.4547C18.1005 57.4547 18.625 56.93 18.625 56.2828V53.7778C18.625 53.1306 18.1005 52.606 17.4531 52.606Z" fill="#0C347B"/>
<path d="M60.0543 33.8606L53.1403 33.3919L50.5581 26.9612C50.0918 25.8003 48.9823 25.0503 47.7312 25.0503C46.4801 25.0503 45.3707 25.8004 44.9046 26.9612L42.3223 33.3919L35.4082 33.8606C34.1603 33.9453 33.104 34.7687 32.7175 35.9584C32.3307 37.1483 32.7012 38.4353 33.6614 39.2373L38.9793 43.6806L37.2885 50.4011C36.9834 51.6142 37.4401 52.8733 38.4521 53.6084C39.4642 54.3436 40.8026 54.389 41.8621 53.7239L47.7314 50.0392L53.6004 53.7237C54.0998 54.0373 54.661 54.1929 55.221 54.1929C55.849 54.1929 56.4753 53.9972 57.0104 53.6084C58.0226 52.8731 58.4792 51.614 58.174 50.4009L56.4834 43.6804L61.8012 39.2373C62.7614 38.4353 63.1318 37.1483 62.7453 35.9586C62.3587 34.7686 61.3023 33.945 60.0543 33.8606ZM60.2984 37.4386L54.416 42.3536C54.0709 42.642 53.9212 43.1025 54.0309 43.5387L55.901 50.9726C56.0056 51.3883 55.7482 51.6283 55.6328 51.7122C55.5171 51.7961 55.2092 51.9664 54.8465 51.7387L48.3543 47.663C47.9734 47.4239 47.4892 47.4239 47.1082 47.663L40.6159 51.7387C40.2528 51.9667 39.945 51.7961 39.8296 51.7122C39.7142 51.6283 39.4568 51.3883 39.5614 50.9728L41.4317 43.5389C41.5414 43.1026 41.3918 42.642 41.0465 42.3537L35.164 37.4387C34.8353 37.1639 34.9023 36.8184 34.9464 36.6826C34.9904 36.5469 35.1392 36.2279 35.5668 36.199L43.2148 35.6804C43.6635 35.65 44.0553 35.3653 44.2229 34.9479L47.0795 27.8345C47.239 27.437 47.5884 27.394 47.731 27.394C47.8739 27.394 48.2232 27.437 48.3829 27.8347L51.2393 34.9479C51.407 35.3653 51.7987 35.65 52.2475 35.6804L59.8954 36.199C60.3229 36.2281 60.4717 36.547 60.516 36.6828C60.5603 36.8186 60.6273 37.1637 60.2984 37.4386Z" fill="#0C347B"/>
</svg>
