<?xml version="1.0" encoding="utf-8"?>
<!-- Generator: Adobe Illustrator 16.0.0, SVG Export Plug-In . SVG Version: 6.00 Build 0)  -->
<!DOCTYPE svg PUBLIC "-//W3C//DTD SVG 1.1//EN" "http://www.w3.org/Graphics/SVG/1.1/DTD/svg11.dtd">
<svg version="1.1" id="Layer_1" xmlns="http://www.w3.org/2000/svg" xmlns:xlink="http://www.w3.org/1999/xlink" x="0px" y="0px"
	 width="180px" height="180px" viewBox="0 0 180 180" enable-background="new 0 0 180 180" xml:space="preserve">
<circle fill="#104271" cx="90" cy="90" r="90"/>
<g>
	<path fill="#012F4F" d="M172.404,126.227l-69.428-69.426l-3.625,6.127L71.673,35.512L56.452,45.771l-1.829,4.926l27.998,27.999
		L78,82.345l33.311,33.309l-0.609,0.363l-11.563-11.563l-21.143-0.197l-26.38,11.146l-12.338,29.359l33.604,33.604
		C78.425,179.434,84.146,180,90,180C126.816,180,158.465,157.891,172.404,126.227z"/>
	<path fill="#012F4F" d="M136.424,50.257l-4.289,2.458l-11.634,13.963l54.167,53.903c3.045-8.431,4.864-17.445,5.249-26.832
		L136.424,50.257z"/>
</g>
<path fill="#FFEDB5" d="M141.189,97.813c-1.162-1.614-3.271-2.25-5.133-1.552c-0.027,0.011-0.055,0.021-0.08,0.028l-31.508,10.49
	c0.008,0.253,0.002,0.508-0.015,0.764c-0.265,4.023-3.375,7.256-7.373,7.661l-18.988,1.972c-1.2,0.126-2.274-0.746-2.399-1.947
	s0.748-2.303,1.947-2.399l18.988-1.974c1.874-0.203,3.338-1.707,3.462-3.598c0.066-1.031-0.271-2.027-0.952-2.804
	c-0.683-0.777-1.627-1.241-2.658-1.31l-25.211-1.644c-2.832-0.185-5.643,0.44-8.127,1.81l-33.25,18.31l9.004,18.157l8.352-7.287
	c3.547-3.094,8.246-4.428,12.892-3.654l27.916,4.639c5.116,0.68,10.244-0.596,14.445-3.592l38.012-26.178
	C142.211,102.221,142.514,99.65,141.189,97.813z"/>
<g>
	<path fill="#FEE187" d="M96.629,110.857c1.874-0.205,3.338-1.709,3.462-3.6c0.067-1.031-0.271-2.027-0.952-2.804
		c-0.684-0.777-1.627-1.242-2.658-1.31l-5.606-0.367v8.676L96.629,110.857z"/>
	<path fill="#FEE187" d="M141.189,97.813c-1.162-1.614-3.271-2.25-5.133-1.552c-0.027,0.011-0.055,0.021-0.08,0.028l-31.508,10.49
		c0.008,0.253,0.002,0.508-0.015,0.764c-0.265,4.023-3.375,7.256-7.373,7.661l-6.206,0.646v17.803
		c4.152-0.024,8.199-1.323,11.627-3.77l38.012-26.176C142.211,102.221,142.514,99.65,141.189,97.813z"/>
</g>
<circle fill="#FFC61B" cx="90" cy="69.091" r="17.879"/>
<g>
	<path fill="#EAA22F" d="M90,51.212c-0.003,0-0.007,0-0.01,0V86.97c0.003,0,0.007,0,0.01,0c9.874,0,17.879-8.005,17.879-17.879
		S99.874,51.212,90,51.212z"/>
	<circle fill="#EAA22F" cx="90" cy="69.091" r="12.29"/>
</g>
<path fill="#FF5419" d="M90,56.801c-0.003,0-0.007,0-0.01,0v24.58c0.003,0,0.007,0,0.01,0c6.788,0,12.29-5.502,12.29-12.29
	S96.787,56.801,90,56.801z"/>
<circle fill="#FFC61B" cx="63.559" cy="43.561" r="11.439"/>
<g>
	<path fill="#EAA22F" d="M63.561,32.121c-0.002,0-0.004,0-0.006,0V55c0.002,0,0.004,0,0.006,0C69.879,55,75,49.878,75,43.561
		C75,37.243,69.878,32.121,63.561,32.121z"/>
	<circle fill="#EAA22F" cx="63.559" cy="43.561" r="7.864"/>
</g>
<path fill="#FF5419" d="M63.561,35.697c-0.002,0-0.004,0-0.006,0v15.728c0.002,0,0.004,0,0.006,0c4.344,0,7.864-3.521,7.864-7.864
	C71.424,39.217,67.904,35.697,63.561,35.697z"/>
<circle fill="#FFC61B" cx="128.559" cy="58.558" r="11.439"/>
<g>
	<path fill="#EAA22F" d="M128.561,47.121c-0.002,0-0.004,0-0.006,0V70c0.002,0,0.004,0,0.006,0C134.879,70,140,64.878,140,58.561
		C140,52.243,134.878,47.121,128.561,47.121z"/>
	<circle fill="#EAA22F" cx="128.559" cy="58.558" r="7.864"/>
</g>
<path fill="#FF5419" d="M128.561,50.697c-0.002,0-0.004,0-0.006,0v15.727c0.002,0,0.004,0,0.006,0c4.344,0,7.863-3.521,7.863-7.864
	C136.424,54.218,132.904,50.697,128.561,50.697z"/>
<rect x="29.849" y="114.246" transform="matrix(0.8256 -0.5643 0.5643 0.8256 -66.2718 43.2182)" fill="#D35933" width="13.858" height="29.142"/>
<polygon fill="#B54324" points="50.719,136.943 42.214,124.5 30.875,132.469 39.279,144.764 "/>
</svg>
