<svg width="80" height="80" viewBox="0 0 80 80" fill="none" xmlns="http://www.w3.org/2000/svg">
<path d="M20.9375 15V24.8023C20.9375 31.0155 25.9742 36.0523 32.1875 36.0523C38.4006 36.0523 43.4375 31.0156 43.4375 24.8023V13.2812L20.9375 15Z" fill="white"/>
<path d="M43.4375 1.5625H29.142C24.6108 1.5625 20.9375 5.23578 20.9375 9.76703V15.8116H34.4759C39.4253 15.8116 43.4375 11.7994 43.4375 6.85V1.5625Z" fill="#FF9900"/>
<path d="M62.8125 69.9999V49.0285C62.8125 41.8619 57.0028 36.0522 49.8362 36.0522H16.2169C8.12344 36.0522 1.5625 42.6132 1.5625 50.7066V69.9999H62.8125Z" fill="#2F80ED"/>
<path d="M62.1875 78.4375C71.1621 78.4375 78.4375 71.1621 78.4375 62.1875C78.4375 53.2129 71.1621 45.9375 62.1875 45.9375C53.2129 45.9375 45.9375 53.2129 45.9375 62.1875C45.9375 71.1621 53.2129 78.4375 62.1875 78.4375Z" fill="#FF9900"/>
<path d="M31.7589 47.9866L23.7812 36.0522H40.5956L31.7589 47.9866Z" fill="white"/>
<path d="M40.5957 68.4375C40.1832 68.4375 39.7816 68.6045 39.4912 68.8953C39.199 69.1859 39.0332 69.5891 39.0332 70C39.0332 70.4109 39.199 70.8141 39.4912 71.1045C39.7802 71.3952 40.1834 71.5625 40.5957 71.5625C41.0066 71.5625 41.4098 71.3953 41.699 71.1045C41.9912 70.8141 42.1582 70.4109 42.1582 70C42.1582 69.5891 41.9912 69.1859 41.699 68.8953C41.4082 68.6045 41.0065 68.4375 40.5957 68.4375Z" fill="#0C347B"/>
<path d="M33.5875 68.4375H12.7552V51.5702C12.7552 50.7073 12.0555 50.0077 11.1927 50.0077C10.3298 50.0077 9.63016 50.7073 9.63016 51.5702V68.4375H3.125V50.7066C3.125 43.4878 8.99797 37.6147 16.2169 37.6147H22.9455L30.1955 48.4608V57.0312C30.1955 57.8941 30.8952 58.5938 31.758 58.5938C32.6208 58.5938 33.3205 57.8941 33.3205 57.0312V48.5023L41.382 37.6147H49.8362C52.9623 37.6147 55.8798 38.8541 58.0509 41.1042C58.6502 41.7255 59.6394 41.7431 60.2603 41.1439C60.8814 40.5447 60.8991 39.5555 60.2998 38.9345C57.5344 36.0681 53.8184 34.4897 49.8362 34.4897H40.5947H40.5586C43.2758 32.1384 45.0002 28.6691 45.0002 24.8022V6.84984V1.5625C45.0002 0.699531 44.3005 0 43.4377 0H29.1422C23.7564 0 19.375 4.38156 19.375 9.76703V24.8023C19.375 28.6692 21.0994 32.1386 23.8166 34.4898H23.7805H16.217C7.275 34.4898 0 41.7647 0 50.7066V70C0 70.8628 0.699688 71.5625 1.5625 71.5625H33.5875C34.4503 71.5625 35.15 70.8628 35.15 70C35.15 69.1372 34.4503 68.4375 33.5875 68.4375ZM22.5 9.76703C22.5 6.10453 25.4795 3.125 29.142 3.125H41.875V6.84984C41.875 10.9297 38.5558 14.2489 34.4759 14.2489H22.5V9.76703ZM22.5 24.8023V17.3739H34.4759C37.3581 17.3739 39.9725 16.2086 41.875 14.3253V24.8023C41.875 30.1441 37.5292 34.4898 32.1875 34.4898C26.8458 34.4898 22.5 30.1441 22.5 24.8023ZM37.4934 37.6148L31.8233 45.2728L26.7042 37.6148H37.4934V37.6148Z" fill="#0C347B"/>
<path d="M62.1875 44.375C52.3658 44.375 44.375 52.3658 44.375 62.1875C44.375 72.0092 52.3658 80 62.1875 80C72.0092 80 80 72.0092 80 62.1875C80 52.3658 72.0092 44.375 62.1875 44.375ZM62.1875 76.875C54.0887 76.875 47.5 70.2863 47.5 62.1875C47.5 54.0887 54.0887 47.5 62.1875 47.5C70.2863 47.5 76.875 54.0887 76.875 62.1875C76.875 70.2863 70.2863 76.875 62.1875 76.875Z" fill="#0C347B"/>
<path d="M69.3237 60.6252H63.7507V55.0522C63.7507 54.1894 63.051 53.4897 62.1882 53.4897C61.3254 53.4897 60.6257 54.1894 60.6257 55.0522V60.6252H55.0527C54.1899 60.6252 53.4902 61.3249 53.4902 62.1877C53.4902 63.0505 54.1899 63.7502 55.0527 63.7502H60.6257V69.3232C60.6257 70.186 61.3254 70.8857 62.1882 70.8857C63.051 70.8857 63.7507 70.186 63.7507 69.3232V63.7502H69.3237C70.1865 63.7502 70.8862 63.0505 70.8862 62.1877C70.8862 61.3249 70.1865 60.6252 69.3237 60.6252Z" fill="#0C347B"/>
</svg>
