<svg width="219" height="70" viewBox="0 0 219 70" fill="none" xmlns="http://www.w3.org/2000/svg">
<rect width="219" height="70" rx="10" fill="black"/>
<path d="M79.358 15.34H75.634V25H79.358C82.158 25 84.258 22.928 84.258 20.17C84.258 17.412 82.158 15.34 79.358 15.34ZM79.344 23.796H76.922V16.544H79.344C81.388 16.544 82.942 18.098 82.942 20.17C82.942 22.242 81.388 23.796 79.344 23.796ZM89.2996 25.168C91.4556 25.168 93.0936 23.558 93.0936 21.43C93.0936 19.302 91.4556 17.692 89.2996 17.692C87.1296 17.692 85.4916 19.302 85.4916 21.43C85.4916 23.558 87.1296 25.168 89.2996 25.168ZM89.2996 24.006C87.8296 24.006 86.7376 22.9 86.7376 21.43C86.7376 19.96 87.8296 18.854 89.2996 18.854C90.7556 18.854 91.8476 19.96 91.8476 21.43C91.8476 22.9 90.7556 24.006 89.2996 24.006ZM104.304 17.86L102.288 23.53L100.216 17.86H98.9701L96.8841 23.572L94.8681 17.86H93.5101L96.2261 25H97.4861L99.5721 19.246L101.658 25H102.918L105.634 17.86H104.304ZM110.693 17.692C109.573 17.692 108.663 18.168 108.117 19.008V17.86H106.913V25H108.117V20.996C108.117 19.708 108.985 18.854 110.301 18.854C111.575 18.854 112.387 19.694 112.387 20.968V25H113.591V20.59C113.591 18.84 112.429 17.692 110.693 17.692ZM115.54 25H116.744V14.92H115.54V25ZM122.126 25.168C124.282 25.168 125.92 23.558 125.92 21.43C125.92 19.302 124.282 17.692 122.126 17.692C119.956 17.692 118.318 19.302 118.318 21.43C118.318 23.558 119.956 25.168 122.126 25.168ZM122.126 24.006C120.656 24.006 119.564 22.9 119.564 21.43C119.564 19.96 120.656 18.854 122.126 18.854C123.582 18.854 124.674 19.96 124.674 21.43C124.674 22.9 123.582 24.006 122.126 24.006ZM133.41 17.86V19.218C132.822 18.28 131.828 17.692 130.638 17.692C128.594 17.692 127.068 19.302 127.068 21.43C127.068 23.558 128.594 25.168 130.638 25.168C131.828 25.168 132.822 24.58 133.41 23.642V25H134.614V17.86H133.41ZM130.862 24.006C129.392 24.006 128.3 22.9 128.3 21.43C128.3 19.96 129.392 18.854 130.862 18.854C132.318 18.854 133.41 19.96 133.41 21.43C133.41 22.9 132.318 24.006 130.862 24.006ZM142.571 14.92V19.218C141.983 18.28 140.989 17.692 139.799 17.692C137.755 17.692 136.229 19.302 136.229 21.43C136.229 23.558 137.755 25.168 139.799 25.168C140.989 25.168 141.983 24.58 142.571 23.642V25H143.775V14.92H142.571ZM140.023 24.006C138.553 24.006 137.461 22.9 137.461 21.43C137.461 19.96 138.553 18.854 140.023 18.854C141.479 18.854 142.571 19.96 142.571 21.43C142.571 22.9 141.479 24.006 140.023 24.006ZM152.628 25.168C154.784 25.168 156.422 23.558 156.422 21.43C156.422 19.302 154.784 17.692 152.628 17.692C150.458 17.692 148.82 19.302 148.82 21.43C148.82 23.558 150.458 25.168 152.628 25.168ZM152.628 24.006C151.158 24.006 150.066 22.9 150.066 21.43C150.066 19.96 151.158 18.854 152.628 18.854C154.084 18.854 155.176 19.96 155.176 21.43C155.176 22.9 154.084 24.006 152.628 24.006ZM161.784 17.692C160.664 17.692 159.754 18.168 159.208 19.008V17.86H158.004V25H159.208V20.996C159.208 19.708 160.076 18.854 161.392 18.854C162.666 18.854 163.478 19.694 163.478 20.968V25H164.682V20.59C164.682 18.84 163.52 17.692 161.784 17.692ZM173.898 17.86H172.26V15.76L171.056 15.998V17.86H169.516V18.952H171.056V25H172.26V18.952H173.898V17.86ZM179.107 17.692C177.987 17.692 177.077 18.182 176.531 19.05V14.92H175.327V25H176.531V20.996C176.531 19.708 177.399 18.854 178.715 18.854C179.989 18.854 180.801 19.694 180.801 20.968V25H182.005V20.59C182.005 18.84 180.843 17.692 179.107 17.692ZM191.08 21.43C191.08 19.302 189.456 17.692 187.286 17.692C185.13 17.692 183.492 19.302 183.492 21.43C183.492 23.558 185.13 25.168 187.286 25.168C189.036 25.168 190.422 24.174 190.94 22.718H189.61C189.246 23.516 188.364 24.062 187.286 24.062C185.984 24.062 184.99 23.194 184.78 21.934H191.052C191.066 21.794 191.08 21.57 191.08 21.43ZM187.286 18.798C188.56 18.798 189.568 19.638 189.792 20.856H184.794C185.032 19.638 186.012 18.798 187.286 18.798Z" fill="white"/>
<path d="M89.294 51H92.7L85.628 33.06H81.962L74.89 51H78.218L79.674 47.178H87.838L89.294 51ZM80.766 44.318L83.756 36.44L86.746 44.318H80.766ZM102.394 37.428C100.418 37.428 98.7799 38.338 97.7139 39.794V37.74H94.8019V55.94H97.7139V48.946C98.7799 50.402 100.418 51.312 102.394 51.312C106.112 51.312 108.92 48.322 108.92 44.37C108.92 40.418 106.112 37.428 102.394 37.428ZM101.822 48.504C99.4819 48.504 97.7139 46.71 97.7139 44.37C97.7139 42.03 99.4819 40.236 101.822 40.236C104.162 40.236 105.904 42.03 105.904 44.37C105.904 46.71 104.162 48.504 101.822 48.504ZM119.203 37.428C117.227 37.428 115.589 38.338 114.523 39.794V37.74H111.611V55.94H114.523V48.946C115.589 50.402 117.227 51.312 119.203 51.312C122.921 51.312 125.729 48.322 125.729 44.37C125.729 40.418 122.921 37.428 119.203 37.428ZM118.631 48.504C116.291 48.504 114.523 46.71 114.523 44.37C114.523 42.03 116.291 40.236 118.631 40.236C120.971 40.236 122.713 42.03 122.713 44.37C122.713 46.71 120.971 48.504 118.631 48.504ZM139.868 51.312C143.3 51.312 145.9 49.024 145.9 45.982C145.9 42.732 143.534 41.276 140.622 40.522C138.542 40.002 137.268 39.144 137.268 37.74C137.268 36.466 138.386 35.53 139.816 35.53C141.324 35.53 142.468 36.596 142.468 38.026H145.64C145.64 35.01 143.144 32.748 139.842 32.748C136.566 32.748 134.096 34.958 134.096 37.844C134.096 40.99 136.358 42.576 139.14 43.278C141.246 43.798 142.728 44.656 142.728 46.19C142.728 47.516 141.506 48.53 139.92 48.53C138.256 48.53 136.982 47.36 136.982 45.8H133.81C133.81 48.946 136.436 51.312 139.868 51.312ZM155.99 37.74H153.156V33.84L150.244 34.464V37.74H147.566V40.392H150.244V51H153.156V40.392H155.99V37.74ZM163.961 51.312C167.991 51.312 171.059 48.322 171.059 44.37C171.059 40.418 167.991 37.428 163.961 37.428C159.905 37.428 156.863 40.418 156.863 44.37C156.863 48.322 159.905 51.312 163.961 51.312ZM163.961 48.504C161.621 48.504 159.853 46.71 159.853 44.37C159.853 42.03 161.621 40.236 163.961 40.236C166.301 40.236 168.043 42.03 168.043 44.37C168.043 46.71 166.301 48.504 163.961 48.504ZM176.603 39.898V37.74H173.691V51H176.603V44.552C176.603 42.108 178.111 40.522 180.685 40.522V37.532C178.995 37.532 177.591 38.416 176.603 39.898ZM195.789 44.396C195.789 40.418 192.747 37.428 188.691 37.428C184.661 37.428 181.619 40.418 181.619 44.37C181.619 48.322 184.661 51.312 188.691 51.312C191.967 51.312 194.567 49.466 195.529 46.788H192.357C191.785 47.906 190.407 48.686 188.717 48.686C186.715 48.686 185.155 47.412 184.739 45.488H195.711C195.763 45.176 195.789 44.682 195.789 44.396ZM188.691 40.054C190.615 40.054 192.175 41.276 192.643 43.096H184.765C185.259 41.276 186.767 40.054 188.691 40.054Z" fill="white"/>
<path d="M36.8717 53.0002C30.9185 52.9659 25.9941 40.8134 25.9941 34.6244C25.9941 24.5147 33.5781 22.3014 36.5009 22.3014C37.8181 22.3014 39.2246 22.8187 40.4652 23.2764C41.3327 23.5957 42.2298 23.9253 42.7288 23.9253C43.0275 23.9253 43.7313 23.6449 44.3527 23.3989C45.678 22.8713 47.327 22.2156 49.2473 22.2156C49.2508 22.2156 49.2554 22.2156 49.2587 22.2156C50.6927 22.2156 55.0403 22.5303 57.6541 26.4556L58.2664 27.3757L57.3852 28.0406C56.1264 28.9905 53.8295 30.7231 53.8295 34.1552C53.8295 38.2202 56.4308 39.7835 57.6805 40.5353C58.2321 40.8672 58.8031 41.2094 58.8031 41.9578C58.8031 42.4465 54.903 52.9395 49.2393 52.9395C47.8534 52.9395 46.8738 52.523 46.0098 52.1556C45.1355 51.7837 44.3812 51.4633 43.135 51.4633C42.5033 51.4633 41.7045 51.762 40.8587 52.079C39.703 52.5103 38.3949 53.0002 36.9106 53.0002H36.8717Z" fill="white"/>
<path d="M49.8471 13C49.9946 18.3184 46.1911 22.0081 42.3921 21.7767C41.766 17.5324 46.1907 13 49.8471 13Z" fill="white"/>
</svg>
