<?xml version="1.0" encoding="utf-8"?>
<!-- Generator: Adobe Illustrator 16.0.0, SVG Export Plug-In . SVG Version: 6.00 Build 0)  -->
<!DOCTYPE svg PUBLIC "-//W3C//DTD SVG 1.1//EN" "http://www.w3.org/Graphics/SVG/1.1/DTD/svg11.dtd">
<svg version="1.1" id="Layer_1" xmlns="http://www.w3.org/2000/svg" xmlns:xlink="http://www.w3.org/1999/xlink" x="0px" y="0px"
	 width="180px" height="180px" viewBox="47.5 0 180 180" enable-background="new 47.5 0 180 180" xml:space="preserve">
<circle fill="#273B7A" cx="137.5" cy="90" r="90"/>
<path fill="#121149" d="M139.203,179.979c45.664-0.848,83.01-35.702,87.777-80.303l-30.069-30.07l-0.741,1.127l-20.604-20.605
	l-7.568-1.724l-23.906-24.363l-1.646,11.49l-30.29,6.902L88.208,66.381l-1.515,5.742l-6.848,9.89l10.281,10.281l-24.555,14.055
	L139.203,179.979z"/>
<path fill="#38C6D9" d="M192.651,90c0-30.276-24.522-54.928-54.748-55.146v3.641C166.123,38.714,189.015,61.73,189.015,90
	c0,28.27-22.892,51.286-51.11,51.505v3.642C168.129,144.928,192.651,120.275,192.651,90z"/>
<path fill="#71E2EF" d="M137.5,141.516c-28.406,0-51.515-23.109-51.515-51.516c0-28.406,23.109-51.515,51.515-51.515
	c0.136,0,0.269,0.009,0.404,0.01v-3.641c-0.135-0.001-0.269-0.006-0.404-0.006c-30.411,0-55.151,24.741-55.151,55.151
	s24.741,55.152,55.151,55.152c0.135,0,0.269-0.005,0.404-0.006v-3.642C137.769,141.506,137.636,141.516,137.5,141.516z"/>
<path fill="#FF7F4F" d="M117.826,61.429c0-10.865,8.809-19.673,19.674-19.673s19.674,8.808,19.674,19.673L117.826,61.429z"/>
<path fill="#D35933" d="M137.803,41.763v19.666h19.371C157.174,50.665,148.528,41.926,137.803,41.763z"/>
<circle fill="#FF7F4F" cx="137.815" cy="30.321" r="8.862"/>
<path fill="#D35933" d="M137.817,21.462c-0.005,0-0.01,0-0.014,0v17.723c0.005,0,0.01,0,0.014,0c4.895,0,8.862-3.967,8.862-8.862
	S142.713,21.462,137.817,21.462z"/>
<path fill="#FF7F4F" d="M117.826,151.265c0-10.864,8.809-19.673,19.674-19.673s19.674,8.809,19.674,19.674L117.826,151.265z"/>
<path fill="#D35933" d="M137.803,131.6v19.665h19.371C157.174,140.502,148.528,131.763,137.803,131.6z"/>
<circle fill="#FF7F4F" cx="137.815" cy="120.158" r="8.862"/>
<path fill="#D35933" d="M137.817,111.299c-0.005,0-0.01,0-0.014,0v17.724c0.005,0,0.01,0.001,0.014,0.001
	c4.895,0,8.862-3.968,8.862-8.862C146.68,115.266,142.713,111.299,137.817,111.299z"/>
<path fill="#FFC61B" d="M65.571,106.347c0-10.864,8.809-19.673,19.674-19.673c10.866,0,19.674,8.809,19.674,19.674L65.571,106.347z"
	/>
<path fill="#EAA22F" d="M85.548,86.681v19.666h19.371C104.919,95.584,96.272,86.844,85.548,86.681z"/>
<circle fill="#FFC61B" cx="85.563" cy="75.243" r="8.862"/>
<path fill="#EAA22F" d="M85.563,66.38c-0.005,0-0.01,0.001-0.015,0.001v17.723c0.005,0,0.01,0.001,0.015,0.001
	c4.894,0,8.862-3.968,8.862-8.862C94.424,70.348,90.457,66.381,85.563,66.38z"/>
<path fill="#FFC61B" d="M170.082,106.347c0-10.864,8.809-19.673,19.674-19.673s19.674,8.809,19.674,19.674L170.082,106.347z"/>
<path fill="#EAA22F" d="M190.059,86.681v19.666h19.371C209.43,95.584,200.783,86.844,190.059,86.681z"/>
<circle fill="#FFC61B" cx="190.076" cy="75.243" r="8.862"/>
<path fill="#EAA22F" d="M190.072,66.38c-0.004,0-0.01,0.001-0.014,0.001v17.723c0.004,0,0.01,0.001,0.014,0.001
	c4.895,0,8.862-3.968,8.862-8.862C198.936,70.348,194.967,66.381,190.072,66.38z"/>
<circle fill="#FFC61B" cx="137.5" cy="90.091" r="17.879"/>
<g>
	<path fill="#EAA22F" d="M137.5,72.212c-0.003,0-0.007,0-0.01,0v35.758c0.003,0,0.007,0,0.01,0c9.874,0,17.879-8.005,17.879-17.879
		S147.374,72.212,137.5,72.212z"/>
	<circle fill="#EAA22F" cx="137.5" cy="90.091" r="12.29"/>
</g>
<path fill="#FF5419" d="M137.5,77.801c-0.003,0-0.007,0-0.01,0v24.58c0.003,0,0.007,0,0.01,0c6.788,0,12.29-5.502,12.29-12.29
	S144.287,77.801,137.5,77.801z"/>
</svg>
