<?xml version="1.0" encoding="utf-8"?>
<!-- Generator: Adobe Illustrator 16.0.0, SVG Export Plug-In . SVG Version: 6.00 Build 0)  -->
<!DOCTYPE svg PUBLIC "-//W3C//DTD SVG 1.1//EN" "http://www.w3.org/Graphics/SVG/1.1/DTD/svg11.dtd">
<svg version="1.1" id="Capa_1" xmlns="http://www.w3.org/2000/svg" xmlns:xlink="http://www.w3.org/1999/xlink" x="0px" y="0px"
	 width="250px" height="280px" viewBox="131 116 250 280" enable-background="new 131 116 250 280" xml:space="preserve">
<g>
	<g>
		<path fill="#7C7C7C" d="M326.503,172.946H315.18v-29.439h-93.45v4.529h88.921v104.772h4.528v-75.333h11.323
			c1.249,0,2.265,1.015,2.265,2.264v11.322h4.528v-11.322C333.296,175.993,330.248,172.946,326.503,172.946z"/>
		<path fill="#7C7C7C" d="M183.233,179.739c0-1.249,1.016-2.264,2.264-2.264h11.323v75.333h4.529V148.036H217.2v-4.529h-20.38
			v29.439h-11.323c-3.747,0-6.793,3.047-6.793,6.793v61.746h4.529V179.739z"/>
		<path fill="#7C7C7C" d="M328.768,257.337h-70.503v4.53h70.503v4.528c0,1.25-1.016,2.265-2.265,2.265H185.497
			c-1.248,0-2.264-1.015-2.264-2.265v-4.528h70.503v-4.53h-70.503v-11.321h-4.529v20.38c0,3.746,3.048,6.794,6.793,6.794h56.038
			l-3.02,9.058h-14.219c-3.747,0-6.794,3.048-6.794,6.794v9.058h20.382v-4.528h-15.852v-4.529c0-1.248,1.015-2.264,2.264-2.264
			h27.174v-4.53h-8.181l3.02-9.058h19.38l3.02,9.058h-3.651v4.53h22.645c1.25,0,2.266,1.016,2.266,2.264v4.529h-47.556v4.528h52.084
			v-9.058c0-3.746-3.047-6.794-6.794-6.794h-14.219l-3.02-9.058h56.038c3.745,0,6.793-3.048,6.793-6.794v-70.805h-4.528V257.337z"/>
		<path fill="#7C7C7C" d="M256,282.247h4.528v4.53H256V282.247z"/>
		<path fill="#7C7C7C" d="M245.648,163.888c0-3.746-3.048-6.795-6.793-6.795h-21.653c-3.747,0-6.794,3.049-6.794,6.795v20.833
			c0,3.746,3.048,6.794,6.794,6.794h8.561v-4.529h-8.561c-1.249,0-2.266-1.016-2.266-2.265v-20.833c0-1.249,1.017-2.266,2.266-2.266
			h21.653c1.25,0,2.265,1.017,2.265,2.266v20.833c0,1.249-1.015,2.265-2.265,2.265h-8.562v4.529h8.562
			c3.746,0,6.793-3.048,6.793-6.794V163.888L245.648,163.888z"/>
		<path fill="#7C7C7C" d="M245.648,202.837c0-3.746-3.048-6.794-6.793-6.794h-21.653c-3.747,0-6.794,3.048-6.794,6.794v20.834
			c0,3.745,3.048,6.794,6.794,6.794h8.561v-4.529h-8.561c-1.249,0-2.266-1.016-2.266-2.265v-20.834c0-1.249,1.017-2.265,2.266-2.265
			h21.653c1.25,0,2.265,1.016,2.265,2.265v20.834c0,1.249-1.015,2.265-2.265,2.265h-8.562v4.529h8.562
			c3.746,0,6.793-3.049,6.793-6.794V202.837L245.648,202.837z"/>
		<path fill="#7C7C7C" d="M245.648,252.809v-11.021c0-3.747-3.048-6.794-6.793-6.794h-21.653c-3.747,0-6.794,3.047-6.794,6.794
			v11.021h4.529v-11.021c0-1.25,1.017-2.266,2.266-2.266h21.653c1.25,0,2.265,1.016,2.265,2.266v11.021H245.648z"/>
		<path fill="#7C7C7C" d="M252.442,167.511h18.72v4.529h-18.72V167.511z"/>
		<path fill="#7C7C7C" d="M252.442,176.568h34.574v4.529h-34.574V176.568z"/>
		<path fill="#7C7C7C" d="M252.442,206.461h18.72v4.529h-18.72V206.461z"/>
		<path fill="#7C7C7C" d="M252.442,215.519h34.574v4.529h-34.574V215.519z"/>
		<path fill="#7C7C7C" d="M252.442,248.28h18.72v4.528h-18.72V248.28z"/>
		<path fill="#7C7C7C" d="M301.593,152.564h4.53v4.529h-4.53V152.564z"/>
		<path fill="#7C7C7C" d="M301.593,161.623h4.53v13.587h-4.53V161.623z"/>
		<path fill="#7C7C7C" d="M275.692,167.511h4.53v4.529h-4.53V167.511z"/>
		<path fill="#7C7C7C" d="M275.692,206.461h4.53v4.529h-4.53V206.461z"/>
		<path fill="#7C7C7C" d="M275.692,248.28h4.53v4.528h-4.53V248.28z"/>
	</g>
	<g>
		<path fill="#7C7C7C" d="M170.621,361.818h-3.964l-10.169-16.187v16.187h-3.964v-22.814h3.964l10.201,16.249v-16.249h3.933V361.818
			z"/>
		<path fill="#7C7C7C" d="M174.225,353.185c0-1.662,0.329-3.158,0.986-4.488c0.659-1.333,1.583-2.356,2.773-3.073
			c1.191-0.714,2.56-1.073,4.106-1.073c2.288,0,4.144,0.738,5.57,2.21c1.425,1.473,2.196,3.426,2.312,5.86l0.015,0.893
			c0,1.673-0.321,3.166-0.963,4.481s-1.563,2.335-2.758,3.056c-1.197,0.721-2.577,1.082-4.144,1.082
			c-2.392,0-4.307-0.797-5.744-2.391c-1.436-1.592-2.153-3.715-2.153-6.37V353.185z M178.032,353.513c0,1.744,0.36,3.11,1.081,4.099
			c0.721,0.986,1.724,1.48,3.008,1.48s2.284-0.503,3-1.505c0.715-1.004,1.073-2.469,1.073-4.402c0-1.714-0.368-3.071-1.104-4.075
			c-0.737-1.001-1.737-1.504-3.001-1.504c-1.243,0-2.231,0.494-2.961,1.48C178.397,350.074,178.032,351.549,178.032,353.513z"/>
		<path fill="#7C7C7C" d="M201.566,361.818v-22.814h7.819c2.579,0,4.543,0.518,5.892,1.553c1.347,1.032,2.021,2.573,2.021,4.62
			c0,1.046-0.282,1.986-0.846,2.82c-0.564,0.836-1.39,1.485-2.476,1.944c1.232,0.333,2.186,0.963,2.86,1.889
			c0.673,0.923,1.01,2.033,1.01,3.329c0,2.141-0.687,3.787-2.061,4.935c-1.373,1.149-3.339,1.725-5.899,1.725H201.566z
			 M205.531,348.609h3.885c1.232,0,2.196-0.279,2.892-0.839c0.694-0.56,1.042-1.35,1.042-2.373c0-1.129-0.321-1.942-0.964-2.446
			c-0.642-0.5-1.643-0.751-3-0.751h-3.854V348.609z M205.531,351.522v7.13h4.402c1.244,0,2.215-0.308,2.915-0.924
			s1.049-1.474,1.049-2.569c0-2.371-1.212-3.584-3.634-3.637H205.531z"/>
		<path fill="#7C7C7C" d="M225.492,361.818h-3.808v-24.067h3.808V361.818z"/>
		<path fill="#7C7C7C" d="M228.924,353.185c0-1.662,0.329-3.158,0.987-4.488c0.658-1.333,1.582-2.356,2.773-3.073
			c1.191-0.714,2.559-1.073,4.104-1.073c2.288,0,4.145,0.738,5.57,2.21c1.426,1.473,2.196,3.426,2.312,5.86l0.015,0.893
			c0,1.673-0.321,3.166-0.963,4.481s-1.562,2.335-2.757,3.056c-1.197,0.721-2.578,1.082-4.145,1.082
			c-2.392,0-4.306-0.797-5.742-2.391c-1.437-1.592-2.155-3.715-2.155-6.37V353.185z M232.731,353.513c0,1.744,0.36,3.11,1.081,4.099
			c0.721,0.986,1.724,1.48,3.008,1.48s2.285-0.503,3-1.505c0.715-1.004,1.074-2.469,1.074-4.402c0-1.714-0.368-3.071-1.105-4.075
			c-0.736-1.001-1.737-1.504-3.001-1.504c-1.242,0-2.229,0.494-2.961,1.48C233.097,350.074,232.731,351.549,232.731,353.513z"/>
		<path fill="#7C7C7C" d="M247.241,353.215c0-2.631,0.62-4.734,1.857-6.307s2.88-2.358,4.928-2.358c1.932,0,3.453,0.675,4.559,2.023
			l0.173-1.71h3.431V361.3c0,2.226-0.691,3.98-2.075,5.266c-1.385,1.285-3.251,1.928-5.602,1.928c-1.244,0-2.458-0.26-3.643-0.775
			c-1.186-0.519-2.087-1.193-2.704-2.03l1.802-2.288c1.17,1.39,2.612,2.084,4.325,2.084c1.264,0,2.261-0.342,2.994-1.025
			c0.731-0.685,1.097-1.69,1.097-3.017v-1.143c-1.097,1.221-2.559,1.833-4.387,1.833c-1.985,0-3.607-0.788-4.866-2.367
			C247.87,358.188,247.241,356.004,247.241,353.215z M251.033,353.546c0,1.7,0.348,3.042,1.042,4.018
			c0.695,0.978,1.658,1.466,2.891,1.466c1.535,0,2.674-0.658,3.416-1.976v-7.458c-0.721-1.285-1.85-1.928-3.385-1.928
			c-1.253,0-2.228,0.497-2.922,1.49C251.38,350.15,251.033,351.612,251.033,353.546z"/>
		<path fill="#7C7C7C" d="M287.604,352.149h-9.181v9.669h-3.966v-22.814h14.494v3.196h-10.528v6.785h9.181V352.149z"/>
		<path fill="#7C7C7C" d="M290.674,353.185c0-1.662,0.329-3.158,0.989-4.488c0.657-1.333,1.58-2.356,2.771-3.073
			c1.191-0.714,2.559-1.073,4.104-1.073c2.289,0,4.146,0.738,5.57,2.21c1.427,1.473,2.197,3.426,2.313,5.86l0.015,0.893
			c0,1.673-0.322,3.166-0.965,4.481c-0.642,1.315-1.561,2.335-2.757,3.056c-1.195,0.721-2.578,1.082-4.144,1.082
			c-2.394,0-4.308-0.797-5.742-2.391c-1.438-1.592-2.156-3.715-2.156-6.37V353.185z M294.482,353.513c0,1.744,0.359,3.11,1.08,4.099
			c0.721,0.986,1.725,1.48,3.01,1.48s2.284-0.503,3.001-1.505c0.714-1.004,1.073-2.469,1.073-4.402c0-1.714-0.368-3.071-1.106-4.075
			c-0.735-1.001-1.735-1.504-3.001-1.504c-1.241,0-2.229,0.494-2.961,1.48C294.849,350.074,294.482,351.549,294.482,353.513z"/>
		<path fill="#7C7C7C" d="M319.928,360.157c-1.117,1.314-2.704,1.975-4.763,1.975c-1.838,0-3.231-0.538-4.176-1.613
			c-0.945-1.076-1.418-2.633-1.418-4.671v-10.984h3.809v10.938c0,2.151,0.893,3.228,2.679,3.228c1.849,0,3.097-0.665,3.745-1.991
			v-12.175h3.807v16.955h-3.589L319.928,360.157z"/>
		<path fill="#7C7C7C" d="M331.022,344.863l0.109,1.96c1.254-1.516,2.898-2.273,4.937-2.273c3.53,0,5.326,2.023,5.39,6.064v11.204
			h-3.809v-10.983c0-1.076-0.231-1.873-0.697-2.392c-0.464-0.516-1.224-0.775-2.279-0.775c-1.535,0-2.679,0.695-3.433,2.084v12.066
			h-3.806v-16.955H331.022z"/>
		<path fill="#7C7C7C" d="M344.624,353.215c0-2.611,0.605-4.708,1.816-6.291c1.213-1.581,2.837-2.374,4.873-2.374
			c1.797,0,3.249,0.627,4.355,1.882v-8.681h3.809v24.067h-3.447l-0.188-1.755c-1.139,1.378-2.658,2.068-4.56,2.068
			c-1.986,0-3.591-0.799-4.819-2.397C345.236,358.136,344.624,355.963,344.624,353.215z M348.431,353.546
			c0,1.723,0.331,3.068,0.995,4.032c0.664,0.967,1.607,1.451,2.829,1.451c1.557,0,2.695-0.695,3.414-2.084v-7.239
			c-0.699-1.358-1.827-2.038-3.384-2.038c-1.232,0-2.183,0.49-2.851,1.466C348.766,350.111,348.431,351.581,348.431,353.546z"/>
	</g>
</g>
</svg>
