<?xml version="1.0" encoding="utf-8"?>
<!-- Generator: Adobe Illustrator 16.0.0, SVG Export Plug-In . SVG Version: 6.00 Build 0)  -->
<!DOCTYPE svg PUBLIC "-//W3C//DTD SVG 1.1//EN" "http://www.w3.org/Graphics/SVG/1.1/DTD/svg11.dtd">
<svg version="1.1" xmlns="http://www.w3.org/2000/svg" xmlns:xlink="http://www.w3.org/1999/xlink" x="0px" y="0px"
	 width="303.342px" height="374.156px" viewBox="0 0 303.342 374.156" enable-background="new 0 0 303.342 374.156"
	 xml:space="preserve">
<g id="Background">
</g>
<g id="Objects">
	<g>
		<path fill="#7C7C7C" d="M202.757,62.448c-17.788,0-24.069,16.744-57.667,13.778c-33.6-2.966-55.01-28.658-56.001-56.327
			c32.728,11.991,63.248-17.131,91.838-7.038C219.271,26.395,202.757,62.448,202.757,62.448z"/>
		<path fill="#7C7C7C" d="M106.446,99.943c0,0-1.612-34.628,11.058-35.759c-12.264-20.304-19.74-20.746-19.74-20.746
			S82.34,53.495,90.392,90.767C97.009,84.426,103.566,92.902,106.446,99.943z"/>
		<path fill="#7C7C7C" d="M201.283,97.883c0,0-2.576-29.845-15.244-30.976c13.486-20.048,20.22-24.015,20.22-24.015
			s16.93,10.603,8.879,47.874C208.521,84.426,204.161,90.843,201.283,97.883z"/>
		<g>
			<g>
				<path fill="#7C7C7C" d="M151.053,211.053c-10.842,0-32.628-25.502-35.077-28.409l-0.408-0.484v-13.611
					c-5.343-6.764-11.073-16.918-11.55-25.716c-0.156-2.926-0.444-7.469-0.879-13.872C88.894,118.731,86.22,98.526,88.319,92.355
					c1.731-5.092,4.852-6.161,7.164-6.161c2.201,0,4.299,0.95,6.021,2.136l-4.114-34.609l54.962,13.696L196.7,45.776l6.857,43.076
					c1.848-1.896,4.049-3.437,6.328-3.437c2.743,0,4.823,2.029,6.184,6.03c1.919,5.638,1.198,27.475-14.146,37.938
					c-0.414,6.127-0.693,10.532-0.851,13.448c-0.513,9.456-7.592,21.157-14.536,28.793v10.056l-0.398,0.481
					C183.688,185.12,161.901,211.053,151.053,211.053z M119.039,180.89c6.704,7.875,24.352,26.692,32.014,26.692
					c7.66,0,25.316-19.151,32.013-27.154v-10.163l0.465-0.499c6.663-7.158,13.6-18.321,14.076-27.122
					c0.166-3.065,0.464-7.76,0.912-14.353l0.059-0.872l0.739-0.472c14.23-9.088,15.146-29.451,13.468-34.383
					c-0.57-1.679-1.536-3.679-2.898-3.679c-1.478,0-3.789,1.929-6.033,5.034l-2.46,3.405l-7.383-46.374l-41.271,20.14
					l-51.309-12.787l4.822,40.573l-3.849-5.029c-1.329-1.736-4.354-4.182-6.921-4.182c-0.639,0-2.584,0-3.878,3.806
					c-1.671,4.91,0.611,23.917,14.18,33.104l0.701,0.474l0.058,0.845c0.468,6.859,0.775,11.685,0.938,14.75
					c0.366,6.742,4.751,16.245,11.171,24.206l0.385,0.478V180.89z"/>
			</g>
			<path fill="#7C7C7C" d="M196.159,190.838c8.638,3.748,54.487,23.831,71.255,34.977c4.2,2.791,12.173,13.781,18.396,56.022
				c3.662,24.857,5.424,52.612,5.584,69.173c-19.999,5.769-67.032,9.188-127.109,9.188c-63.98,0-126.948-3.911-152.329-9.381
				c0.245-15.971,2.657-43.747,7.051-68.893c5.389-30.834,12.642-51.285,19.898-56.109c16.723-11.115,58.426-30.756,66.604-34.575
				l44.732,21.77l1.47,0.715l1.453-0.748L196.159,190.838 M196.037,187.229l-44.367,22.844l-46.129-22.45
				c0,0-49.528,22.9-68.443,35.473C18.184,235.671,8.671,322.459,8.671,353.411c25.072,6.15,91.865,10.05,155.614,10.05
				c55.769,0,109.204-2.982,130.386-10.05c0-30.952-6.533-117.74-25.449-130.315C250.309,210.523,196.037,187.229,196.037,187.229
				L196.037,187.229z"/>
			<g>
				<path fill="#7C7C7C" d="M150.182,362.457c-0.507,0-0.994-0.265-1.261-0.727L76.72,236.553c-0.204-0.354-0.25-0.777-0.126-1.166
					c0.124-0.39,0.405-0.709,0.776-0.881l19.498-9.027c-2.641-3.908-10.223-14.92-15.03-19.777
					c-0.306-0.309-0.458-0.738-0.414-1.172c0.044-0.433,0.28-0.822,0.643-1.063l22.245-14.785l-0.179-0.694l2.818-0.726
					l44.64,173.379c0.181,0.705-0.186,1.435-0.859,1.71C150.552,362.423,150.365,362.457,150.182,362.457z M80.037,236.478
					l66.077,114.561l-41.034-159.374l-19.965,13.27c6.083,6.698,14.733,19.758,15.124,20.347c0.233,0.354,0.302,0.792,0.186,1.2
					c-0.116,0.407-0.403,0.744-0.788,0.922L80.037,236.478z"/>
			</g>
			<g>
				<path fill="#7C7C7C" d="M151.67,362.457c-0.189,0-0.381-0.036-0.565-0.113c-0.667-0.282-1.025-1.011-0.841-1.711l45.081-171.376
					c0.122-0.463,0.463-0.835,0.911-0.998c0.449-0.163,0.949-0.095,1.339,0.181l24.062,17.09c0.348,0.248,0.569,0.636,0.606,1.061
					c0.037,0.426-0.115,0.846-0.415,1.149c-4.726,4.775-11.393,14.184-13.864,17.747l19.479,9.02
					c0.375,0.173,0.658,0.498,0.779,0.894c0.121,0.394,0.069,0.822-0.144,1.176l-75.18,125.177
					C152.648,362.201,152.168,362.457,151.67,362.457z M197.624,192.03l-41.953,159.488l69.1-115.054l-19.573-9.063
					c-0.387-0.18-0.676-0.52-0.79-0.93c-0.114-0.411-0.043-0.852,0.196-1.205c0.347-0.512,8.041-11.867,13.998-18.339
					L197.624,192.03z"/>
			</g>
			<g>
				<g>
					<path fill="#7C7C7C" d="M75.53,257.103c-0.234-1.21-5.4-29.97,10.426-58.562c9.35-16.892,32.502-20.512,33.514-20.627
						l-0.985,5.128c-0.216,0.028-20.149,3.838-27.943,18.063c-14.789,26.996-9.902,54.734-9.847,55.012L75.53,257.103z"/>
				</g>
				<g>
					<g>
						<g>
							<path fill="#7C7C7C" d="M102.105,289.163l3.056-0.532l5.469,31.35c0.64,3.688-0.018,6.708-1.94,8.99
								c-3.418,4.04-9.553,4.063-9.809,4.065l0.006-3.106l-0.006,1.555l0.006-1.555c0.052-0.001,4.976-0.036,7.43-2.976
								c1.3-1.541,1.725-3.707,1.246-6.438L102.105,289.163z"/>
						</g>
						<path fill="#7C7C7C" d="M103.774,334.959l-1.461-8.402c-3.381,0.582-5.797,2.94-5.389,5.266
							C97.332,334.146,100.394,335.554,103.774,334.959z"/>
					</g>
					<g>
						<g>
							<path fill="#7C7C7C" d="M62.322,293.282l-3.091,0.316l3.26,31.655c0.386,3.723,1.838,6.454,4.305,8.13
								c4.388,2.956,10.295,1.314,10.543,1.241l-0.851-2.983l0.431,1.493l-0.431-1.493c-0.048,0.011-4.802,1.311-7.958-0.846
								c-1.667-1.13-2.666-3.104-2.949-5.856L62.322,293.282z"/>
						</g>
						<path fill="#7C7C7C" d="M73.148,337.811l-0.872-8.491c3.408-0.354,6.379,1.264,6.612,3.609
							C79.129,335.275,76.566,337.459,73.148,337.811z"/>
					</g>
					<g>
						<path fill="#7C7C7C" d="M59.205,295.314l-2.245-16.07c-2.822-20.103,9.191-26.084,19.761-27.563
							c14.72-2.057,24.415,5.627,26.576,21.081l2.245,16.071l-5.593,0.781l-2.243-16.074c-1.738-12.424-8.534-17.9-20.203-16.271
							c-11.99,1.68-16.742,8.414-14.96,21.19l2.254,16.078L59.205,295.314z"/>
					</g>
				</g>
			</g>
		</g>
		<path fill="#7C7C7C" d="M191.488,181.697c-0.14-0.045-4.948-1.597-5.089-1.615v2.042l0,0l0,0
			c51.816,20.978,37.853,106.735,37.72,107.595c-0.224,1.437,0.759,2.778,2.193,3.003c1.437,0.222,2.778-0.762,3.002-2.195
			C229.895,286.775,242.981,198.52,191.488,181.697z"/>
		<path fill="#FFFFFF" d="M222.356,318.196c-7.493-1.163-12.64-8.203-11.476-15.698c1.164-7.493,8.201-12.641,15.695-11.477
			c7.49,1.163,12.64,8.203,11.476,15.695C236.89,314.213,229.847,319.359,222.356,318.196z"/>
		<path fill="#7C7C7C" d="M226.989,288.357c-8.964-1.393-17.382,4.764-18.774,13.727c-1.392,8.963,4.763,17.384,13.729,18.775
			c8.962,1.392,17.385-4.767,18.777-13.729C242.111,298.171,235.952,289.748,226.989,288.357z M222.826,315.173
			c-5.823-0.903-9.827-6.382-8.924-12.205c0.905-5.829,6.381-9.828,12.204-8.924c5.825,0.904,9.829,6.376,8.924,12.204
			C234.127,312.071,228.651,316.078,222.826,315.173z"/>
		<circle fill="#7C7C7C" cx="224.467" cy="304.609" r="4.23"/>
		<g>
			<circle fill="#7C7C7C" cx="151.67" cy="217.104" r="4.881"/>
			<circle fill="#7C7C7C" cx="151.67" cy="251.152" r="4.881"/>
			<circle fill="#7C7C7C" cx="151.67" cy="285.2" r="4.881"/>
			<circle fill="#7C7C7C" cx="151.67" cy="319.248" r="4.881"/>
		</g>
	</g>
</g>
</svg>
