<svg width="237" height="70" viewBox="0 0 237 70" fill="none" xmlns="http://www.w3.org/2000/svg">
<rect width="237" height="70" rx="10" fill="black"/>
<path d="M75.366 19.862V21.024H78.824C78.502 22.718 77.046 23.936 75.184 23.936C73.056 23.936 71.446 22.312 71.446 20.17C71.446 18.028 73.056 16.404 75.184 16.404C76.724 16.404 77.984 17.258 78.53 18.518H79.944C79.384 16.558 77.494 15.172 75.184 15.172C72.314 15.172 70.13 17.328 70.13 20.17C70.13 23.012 72.314 25.168 75.184 25.168C77.984 25.168 80.126 23.082 80.182 20.282V19.862H75.366ZM88.941 21.43C88.941 19.302 87.317 17.692 85.147 17.692C82.991 17.692 81.353 19.302 81.353 21.43C81.353 23.558 82.991 25.168 85.147 25.168C86.897 25.168 88.283 24.174 88.801 22.718H87.471C87.107 23.516 86.225 24.062 85.147 24.062C83.845 24.062 82.851 23.194 82.641 21.934H88.913C88.927 21.794 88.941 21.57 88.941 21.43ZM85.147 18.798C86.421 18.798 87.429 19.638 87.653 20.856H82.655C82.893 19.638 83.873 18.798 85.147 18.798ZM93.8808 17.86H92.2428V15.76L91.0388 15.998V17.86H89.4988V18.952H91.0388V25H92.2428V18.952H93.8808V17.86ZM99.3701 16.432C99.8181 16.432 100.168 16.082 100.168 15.634C100.168 15.172 99.8181 14.836 99.3701 14.836C98.9081 14.836 98.5581 15.172 98.5581 15.634C98.5581 16.082 98.9081 16.432 99.3701 16.432ZM98.7681 25H99.9721V17.86H98.7681V25ZM105.816 17.86H104.178V15.76L102.974 15.998V17.86H101.434V18.952H102.974V25H104.178V18.952H105.816V17.86ZM114.05 25.168C116.206 25.168 117.844 23.558 117.844 21.43C117.844 19.302 116.206 17.692 114.05 17.692C111.88 17.692 110.242 19.302 110.242 21.43C110.242 23.558 111.88 25.168 114.05 25.168ZM114.05 24.006C112.58 24.006 111.488 22.9 111.488 21.43C111.488 19.96 112.58 18.854 114.05 18.854C115.506 18.854 116.598 19.96 116.598 21.43C116.598 22.9 115.506 24.006 114.05 24.006ZM123.206 17.692C122.086 17.692 121.176 18.168 120.63 19.008V17.86H119.426V25H120.63V20.996C120.63 19.708 121.498 18.854 122.814 18.854C124.088 18.854 124.9 19.694 124.9 20.968V25H126.104V20.59C126.104 18.84 124.942 17.692 123.206 17.692Z" fill="white"/>
<path d="M80.238 41.146V43.928H85.932C85.256 46.528 82.916 48.322 79.952 48.322C76.416 48.322 73.712 45.618 73.712 42.03C73.712 38.442 76.416 35.738 79.952 35.738C82.422 35.738 84.45 37.038 85.386 38.988H88.818C87.83 35.348 84.294 32.748 79.952 32.748C74.596 32.748 70.514 36.752 70.514 42.03C70.514 47.308 74.596 51.312 79.952 51.312C85.178 51.312 89.156 47.386 89.234 42.186V41.146H80.238ZM98.2521 51.312C102.282 51.312 105.35 48.322 105.35 44.37C105.35 40.418 102.282 37.428 98.2521 37.428C94.1961 37.428 91.1541 40.418 91.1541 44.37C91.1541 48.322 94.1961 51.312 98.2521 51.312ZM98.2521 48.504C95.9121 48.504 94.1441 46.71 94.1441 44.37C94.1441 42.03 95.9121 40.236 98.2521 40.236C100.592 40.236 102.334 42.03 102.334 44.37C102.334 46.71 100.592 48.504 98.2521 48.504ZM114.274 51.312C118.304 51.312 121.372 48.322 121.372 44.37C121.372 40.418 118.304 37.428 114.274 37.428C110.218 37.428 107.176 40.418 107.176 44.37C107.176 48.322 110.218 51.312 114.274 51.312ZM114.274 48.504C111.934 48.504 110.166 46.71 110.166 44.37C110.166 42.03 111.934 40.236 114.274 40.236C116.614 40.236 118.356 42.03 118.356 44.37C118.356 46.71 116.614 48.504 114.274 48.504ZM134.429 37.74V39.716C133.363 38.286 131.725 37.428 129.775 37.428C126.031 37.428 123.249 40.34 123.249 44.214C123.249 48.062 126.031 50.974 129.775 50.974C131.725 50.974 133.363 50.116 134.429 48.686V49.544C134.429 51.988 132.895 53.574 130.555 53.574C128.761 53.574 127.383 52.69 126.889 51.312H123.899C124.653 54.354 127.097 56.252 130.555 56.252C134.637 56.252 137.341 53.6 137.341 49.57V37.74H134.429ZM130.347 48.322C128.007 48.322 126.239 46.554 126.239 44.214C126.239 41.848 128.007 40.08 130.347 40.08C132.687 40.08 134.429 41.848 134.429 44.214C134.429 46.554 132.687 48.322 130.347 48.322ZM140.736 51H143.648V32.28H140.736V51ZM160.473 44.396C160.473 40.418 157.431 37.428 153.375 37.428C149.345 37.428 146.303 40.418 146.303 44.37C146.303 48.322 149.345 51.312 153.375 51.312C156.651 51.312 159.251 49.466 160.213 46.788H157.041C156.469 47.906 155.091 48.686 153.401 48.686C151.399 48.686 149.839 47.412 149.423 45.488H160.395C160.447 45.176 160.473 44.682 160.473 44.396ZM153.375 40.054C155.299 40.054 156.859 41.276 157.327 43.096H149.449C149.943 41.276 151.451 40.054 153.375 40.054ZM175.621 33.06H169.407V51H172.501V44.734H175.621C179.027 44.734 181.627 42.238 181.627 38.91C181.627 35.556 179.027 33.06 175.621 33.06ZM175.569 41.822H172.501V35.972H175.569C177.207 35.972 178.429 37.22 178.429 38.91C178.429 40.574 177.207 41.822 175.569 41.822ZM184.001 51H186.913V32.28H184.001V51ZM200.8 37.74V39.794C199.734 38.338 198.096 37.428 196.146 37.428C192.402 37.428 189.62 40.418 189.62 44.37C189.62 48.322 192.402 51.312 196.146 51.312C198.096 51.312 199.734 50.402 200.8 48.946V51H203.712V37.74H200.8ZM196.718 48.504C194.352 48.504 192.61 46.71 192.61 44.37C192.61 42.03 194.352 40.236 196.718 40.236C199.058 40.236 200.8 42.03 200.8 44.37C200.8 46.71 199.058 48.504 196.718 48.504ZM216.751 37.74L212.903 47.412L209.029 37.74H205.701L211.291 50.896L209.133 55.94H212.279L220.001 37.74H216.751Z" fill="white"/>
<path d="M42.6819 33.2039L23.3349 52.5508C22.4101 51.676 21.9102 50.4761 21.9102 49.1763V18.8312C21.9102 17.5064 22.4351 16.3066 23.3849 15.4067L42.6819 33.2039Z" fill="#2196F3"/>
<path d="M59.4044 34.0034C59.4044 35.7532 58.4546 37.3029 56.8798 38.1778L51.3807 41.2273L44.5568 34.9283L42.6821 33.2036L49.9059 25.9797L56.8798 29.8291C58.4546 30.704 59.4044 32.2537 59.4044 34.0034Z" fill="#FFC107"/>
<path d="M42.6819 33.2037L23.385 15.4065C23.635 15.1566 23.9599 14.9316 24.2849 14.7316C25.8596 13.7818 27.7593 13.7568 29.3841 14.6567L49.9058 25.9799L42.6819 33.2037Z" fill="#4CAF50"/>
<path d="M51.3802 41.227L29.3837 53.3501C28.6088 53.8 27.734 54 26.8841 54C25.9842 54 25.0844 53.775 24.2845 53.2751C23.9346 53.0752 23.6096 52.8252 23.3347 52.5502L42.6816 33.2033L44.5563 34.928L51.3802 41.227Z" fill="#F44336"/>
</svg>
