<?xml version="1.0" encoding="UTF-8" standalone="no"?>
<svg width="40px" height="40px" viewBox="0 0 40 40" version="1.1" xmlns="http://www.w3.org/2000/svg" xmlns:xlink="http://www.w3.org/1999/xlink">
    <!-- Generator: sketchtool 41.2 (35397) - http://www.bohemiancoding.com/sketch -->
    <title>C39ED816-259E-4331-A36C-C9B5B58B2714</title>
    <desc>Created with sketchtool.</desc>
    <defs></defs>
    <g id="Symbols" stroke="none" stroke-width="1" fill="none" fill-rule="evenodd">
        <g id="icon/camera" fill="#0BC5D8">
            <g id="CAMERA-ICON" transform="translate(5.000000, 9.000000)">
                <path d="M28.362963,19.1449735 C28.362963,20.3862434 27.7195767,20.9640212 26.3386243,20.9640212 L3.04444444,20.9640212 C1.66349206,20.9640212 1.02010582,20.3862434 1.02010582,19.1449735 L1.02010582,6.33333333 C1.02010582,5.4952381 1.25714286,4.71957672 2.97671958,4.71957672 L11.2465608,4.71957672 L13.2666667,2.02645503 C13.5164021,1.65079365 14.0349206,1.02010582 14.6910053,1.02010582 L20.8571429,1.02010582 C21.5142857,1.02010582 22.031746,1.65079365 22.2507937,1.97142857 L23.6253968,4.71957672 L26.3386243,4.71957672 C28.0179894,4.71957672 28.362963,5.36507937 28.362963,6.33333333 L28.362963,19.1449735 Z M4.20952381,2.25396825 L5.37460317,2.25396825 C5.77354497,2.25396825 6.16613757,2.61164021 6.16613757,2.97671958 L6.16613757,3.6994709 L3.5005291,3.6994709 L3.52063492,2.97671958 C3.52063492,2.60529101 3.85502646,2.25396825 4.20952381,2.25396825 L4.20952381,2.25396825 Z M26.3386243,3.6994709 L24.2550265,3.6994709 L23.1312169,1.46031746 C22.5037037,0.51957672 21.6962963,0 20.8571429,0 L14.6910053,0 C13.8529101,0 13.0455026,0.51957672 12.4338624,1.43703704 L10.7375661,3.6994709 L7.18624339,3.6994709 L7.18624339,2.97671958 C7.18624339,2.04867725 6.33968254,1.23386243 5.37460317,1.23386243 L4.20952381,1.23386243 C3.2994709,1.23386243 2.5005291,2.04867725 2.5005291,2.96190476 L2.47936508,3.73756614 C0.463492063,3.92698413 0,5.22116402 0,6.33333333 L0,19.1449735 C0,20.9756614 1.08148148,21.9830688 3.04444444,21.9830688 L26.3386243,21.9830688 C28.3015873,21.9830688 29.3830688,20.9756614 29.3830688,19.1449735 L29.3830688,6.33333333 C29.3830688,4.58518519 28.357672,3.6994709 26.3386243,3.6994709 L26.3386243,3.6994709 Z" id="Fill-1"></path>
                <path d="M17.8740741,18.8550265 C14.415873,18.8550265 11.6021164,16.0412698 11.6021164,12.5820106 C11.6021164,9.12380952 14.415873,6.31005291 17.8740741,6.31005291 C21.3333333,6.31005291 24.1470899,9.12380952 24.1470899,12.5820106 C24.1470899,16.0412698 21.3333333,18.8550265 17.8740741,18.8550265 M17.8740741,5.29100529 C13.8529101,5.29100529 10.5820106,8.56190476 10.5820106,12.5820106 C10.5820106,16.6031746 13.8529101,19.8751323 17.8740741,19.8751323 C21.8941799,19.8751323 25.1661376,16.6031746 25.1661376,12.5820106 C25.1661376,8.56190476 21.8941799,5.29100529 17.8740741,5.29100529" id="Fill-4"></path>
                <path d="M17.9650794,15.8645503 C16.2063492,15.8645503 14.7756614,14.4338624 14.7756614,12.6740741 C14.7756614,10.9153439 16.2063492,9.48465608 17.9650794,9.48465608 C19.7238095,9.48465608 21.1555556,10.9153439 21.1555556,12.6740741 C21.1555556,14.4338624 19.7238095,15.8645503 17.9650794,15.8645503 M17.9650794,8.46560847 C15.6444444,8.46560847 13.7566138,10.3534392 13.7566138,12.6740741 C13.7566138,14.9957672 15.6444444,16.8846561 17.9650794,16.8846561 C20.2867725,16.8846561 22.1746032,14.9957672 22.1746032,12.6740741 C22.1746032,10.3534392 20.2867725,8.46560847 17.9650794,8.46560847" id="Fill-6"></path>
                <path d="M4.47619048,10.0486772 C3.73756614,10.0486772 3.13650794,9.44761905 3.13650794,8.70899471 C3.13650794,7.97037037 3.73756614,7.36931217 4.47619048,7.36931217 C5.21481481,7.36931217 5.81587302,7.97037037 5.81587302,8.70899471 C5.81587302,9.44761905 5.21481481,10.0486772 4.47619048,10.0486772 M4.47619048,6.34920635 C3.17460317,6.34920635 2.11640212,7.40740741 2.11640212,8.70899471 C2.11640212,10.0095238 3.17460317,11.0687831 4.47619048,11.0687831 C5.77777778,11.0687831 6.83597884,10.0095238 6.83597884,8.70899471 C6.83597884,7.40740741 5.77777778,6.34920635 4.47619048,6.34920635" id="Fill-8"></path>
            </g>
        </g>
    </g>
</svg>