<?xml version="1.0" encoding="UTF-8" standalone="no"?>
<svg width="40px" height="40px" viewBox="0 0 40 40" version="1.1" xmlns="http://www.w3.org/2000/svg" xmlns:xlink="http://www.w3.org/1999/xlink">
    <!-- Generator: Sketch 41.2 (35397) - http://www.bohemiancoding.com/sketch -->
    <title>icon/rx </title>
    <desc>Created with Sketch.</desc>
    <defs></defs>
    <g id="Symbols" stroke="none" stroke-width="1" fill="none" fill-rule="evenodd">
        <g id="icon/rx-">
            <g id="Rx" transform="translate(9.000000, 4.000000)">
                <path d="M22.94973,8.67347673 C22.9181881,8.58932589 22.8708751,8.51408514 22.811734,8.45072451 L15.1470387,0.20196202 C15.0878975,0.138601386 15.0179138,0.0881108811 14.9400446,0.0534605346 C14.8631611,0.0188101881 14.7793777,0 14.6946087,0 L0.638724608,0 C0.286834662,0 0,0.307893079 0,0.687066871 L0,32.3129331 C0,32.6921069 0.286834662,33 0.638724608,33 L22.3602897,33 C22.7131653,33 23,32.6921069 23,32.3129331 L23,8.93780938 C23,8.84573846 22.981272,8.75564756 22.94973,8.67347673 L22.94973,8.67347673 Z M15.3037627,2.00576006 L21.2494214,8.25470255 L15.3333333,8.2497525 L15.3037627,2.00576006 Z M0.985686123,32.00009 L0.985686123,0.9900099 L14.3634182,0.9900099 L14.3575041,8.5497255 C14.3575041,8.92889929 14.643353,9.23778238 14.9962287,9.23778238 L22.0034713,9.23778238 L22.0034713,32.00009 L0.985686123,32.00009 Z" id="Fill-4" fill="#0BC5D8"></path>
                <path d="M11.1703864,6.49844012 L11.8308135,5.43388529 L12.9520038,5.43388529 L11.8346532,7.18094552 L13,9 L11.87497,9 L11.1742261,7.87976962 L10.4773218,9 L9.34845212,9 L10.5137989,7.18094552 L9.39932805,5.43388529 L10.5243581,5.43388529 L11.1703864,6.49844012 Z M6.08951284,6.44276458 L6.96784257,6.44276458 C7.24046076,6.44276458 7.45260379,6.37940965 7.60235181,6.25269978 C7.75305976,6.12694984 7.82793377,5.95224382 7.82793377,5.73050156 C7.82793377,5.50395968 7.75689945,5.32637389 7.61483081,5.19678426 C7.4737221,5.0662347 7.25677946,5.00191985 6.96400288,5.00191985 L6.08951284,5.00191985 L6.08951284,6.44276458 Z M6.95632349,7.24334053 L6.08951284,7.24334053 L6.08951284,9 L5,9 L5,4.20038397 L6.96400288,4.20038397 C7.58795296,4.20038397 8.06983441,4.32709383 8.40868731,4.57955364 C8.7475402,4.83297336 8.91648668,5.19006479 8.91648668,5.65082793 C8.91648668,5.97912167 8.8387329,6.25173986 8.68226542,6.47060235 C8.52675786,6.68946484 8.28965683,6.86321094 7.97288217,6.99280058 L9.11615071,8.95392369 L9.11615071,9 L7.94696424,9 L6.95632349,7.24334053 Z" id="Fill-5" fill="#0BC5D8"></path>
                <path d="M6,14 L18,14" id="Stroke-7" stroke="#0BC5D8" stroke-linecap="round"></path>
                <path d="M6,18 L18,18" id="Stroke-8" stroke="#0BC5D8" stroke-linecap="round"></path>
                <path d="M6,23 L11,23" id="Stroke-9" stroke="#0BC5D8" stroke-linecap="round"></path>
            </g>
        </g>
    </g>
</svg>