<?xml version="1.0" encoding="utf-8"?>
<!-- Generator: Adobe Illustrator 16.0.0, SVG Export Plug-In . SVG Version: 6.00 Build 0)  -->
<!DOCTYPE svg PUBLIC "-//W3C//DTD SVG 1.1//EN" "http://www.w3.org/Graphics/SVG/1.1/DTD/svg11.dtd">
<svg version="1.1" id="Layer_1" xmlns="http://www.w3.org/2000/svg" xmlns:xlink="http://www.w3.org/1999/xlink" x="0px" y="0px"
	 width="180px" height="180px" viewBox="47.5 0 180 180" enable-background="new 47.5 0 180 180" xml:space="preserve">
<circle fill="#273B7A" cx="137.5" cy="90" r="90"/>
<g>
	<path fill="#121149" d="M219.904,126.227l-69.427-69.426l-3.626,6.127l-27.678-27.416l-15.221,10.259l-1.829,4.926l27.998,27.999
		l-4.621,3.649l33.31,33.31l-0.609,0.363l-11.563-11.563l-21.142-0.197l-26.38,11.146l-12.338,29.359l33.604,33.604
		c5.543,1.067,11.264,1.633,17.118,1.633C174.316,180,205.965,157.891,219.904,126.227z"/>
	<path fill="#121149" d="M183.924,50.257l-4.289,2.458l-11.634,13.963l54.167,53.903c3.045-8.43,4.864-17.445,5.249-26.832
		L183.924,50.257z"/>
</g>
<path fill="#FFEDB5" d="M188.689,97.812c-1.161-1.614-3.271-2.249-5.133-1.551c-0.027,0.011-0.054,0.02-0.08,0.028l-31.507,10.49
	c0.007,0.253,0.001,0.508-0.015,0.764c-0.264,4.023-3.375,7.256-7.373,7.661l-18.988,1.972c-1.201,0.126-2.275-0.746-2.4-1.947
	c-0.125-1.201,0.748-2.303,1.948-2.4l18.988-1.973c1.874-0.203,3.338-1.708,3.462-3.598c0.066-1.031-0.271-2.027-0.953-2.804
	s-1.626-1.241-2.658-1.31l-25.21-1.643c-2.832-0.184-5.643,0.44-8.128,1.809l-33.249,18.31l9.004,18.157l8.352-7.287
	c3.547-3.094,8.246-4.427,12.891-3.654l27.917,4.639c5.116,0.68,10.244-0.596,14.445-3.592l38.011-26.178
	C189.711,102.221,190.014,99.65,188.689,97.812z"/>
<g>
	<path fill="#FEE187" d="M144.129,110.857c1.874-0.205,3.338-1.709,3.462-3.599c0.067-1.032-0.271-2.027-0.953-2.804
		c-0.683-0.777-1.626-1.242-2.657-1.31l-5.607-0.366v8.675L144.129,110.857z"/>
	<path fill="#FEE187" d="M188.689,97.812c-1.161-1.614-3.271-2.249-5.133-1.551c-0.027,0.011-0.054,0.02-0.08,0.028l-31.507,10.49
		c0.007,0.253,0.001,0.508-0.015,0.764c-0.264,4.023-3.375,7.256-7.373,7.661l-6.206,0.646v17.803
		c4.152-0.025,8.199-1.324,11.627-3.77l38.011-26.176C189.711,102.221,190.014,99.65,188.689,97.812z"/>
</g>
<circle fill="#FFC61B" cx="137.5" cy="69.091" r="17.879"/>
<g>
	<path fill="#EAA22F" d="M137.5,51.212c-0.003,0-0.007,0-0.01,0V86.97c0.003,0,0.007,0,0.01,0c9.874,0,17.879-8.005,17.879-17.879
		S147.374,51.212,137.5,51.212z"/>
	<circle fill="#EAA22F" cx="137.5" cy="69.091" r="12.29"/>
</g>
<path fill="#FF5419" d="M137.5,56.801c-0.003,0-0.007,0-0.01,0v24.58c0.003,0,0.007,0,0.01,0c6.788,0,12.29-5.502,12.29-12.29
	S144.287,56.801,137.5,56.801z"/>
<circle fill="#FFC61B" cx="111.058" cy="43.561" r="11.439"/>
<g>
	<path fill="#EAA22F" d="M111.061,32.121c-0.002,0-0.004,0-0.006,0V55c0.002,0,0.004,0,0.006,0c6.318,0,11.439-5.122,11.439-11.439
		C122.5,37.243,117.378,32.121,111.061,32.121z"/>
	<circle fill="#EAA22F" cx="111.058" cy="43.561" r="7.864"/>
</g>
<path fill="#FF5419" d="M111.061,35.697c-0.002,0-0.004,0-0.006,0v15.728c0.002,0,0.004,0,0.006,0c4.343,0,7.864-3.521,7.864-7.864
	C118.924,39.217,115.404,35.697,111.061,35.697z"/>
<circle fill="#FFC61B" cx="176.058" cy="58.558" r="11.439"/>
<g>
	<path fill="#EAA22F" d="M176.061,47.121c-0.002,0-0.004,0-0.006,0V70c0.002,0,0.004,0,0.006,0c6.318,0,11.439-5.122,11.439-11.439
		C187.5,52.243,182.378,47.121,176.061,47.121z"/>
	<circle fill="#EAA22F" cx="176.058" cy="58.558" r="7.864"/>
</g>
<path fill="#FF5419" d="M176.061,50.697c-0.002,0-0.004,0-0.006,0v15.727c0.002,0,0.004,0,0.006,0c4.344,0,7.863-3.521,7.863-7.864
	C183.924,54.218,180.404,50.697,176.061,50.697z"/>
<rect x="77.351" y="114.252" transform="matrix(-0.8256 0.5643 -0.5643 -0.8256 226.5544 187.6136)" fill="#D35933" width="13.858" height="29.141"/>
<polygon fill="#B54324" points="98.219,136.943 89.714,124.5 78.375,132.469 86.779,144.764 "/>
</svg>
