<svg xmlns="http://www.w3.org/2000/svg" xmlns:xlink="http://www.w3.org/1999/xlink" width="246.67" height="246.67" viewBox="0 0 246.67 246.67">
  <defs>
    <linearGradient id="linear-gradient" x1="1094.81" y1="640.15" x2="1126.75" y2="640.15" gradientTransform="matrix(-0.96, -0.29, -0.29, 0.96, 1457.66, -119.93)" gradientUnits="userSpaceOnUse">
      <stop offset="0" stop-color="#758eb7"/>
      <stop offset="0.38" stop-color="#7790b8"/>
      <stop offset="0.59" stop-color="#7e99bc"/>
      <stop offset="0.76" stop-color="#89a6c2"/>
      <stop offset="0.91" stop-color="#99baca"/>
      <stop offset="1" stop-color="#a6cad1"/>
    </linearGradient>
    <linearGradient id="linear-gradient-2" x1="1767.58" y1="90.98" x2="1768.14" y2="106.24" gradientTransform="matrix(-0.99, 0, -0.11, 1.01, 1950.38, -33.39)" gradientUnits="userSpaceOnUse">
      <stop offset="0" stop-color="#758eb7"/>
      <stop offset="1" stop-color="#a6cad1"/>
    </linearGradient>
    <linearGradient id="linear-gradient-3" x1="2115.02" y1="-16.94" x2="2117.74" y2="-16.94" gradientTransform="matrix(-0.98, 0, -0.24, 1.02, 2252.6, 101.02)" gradientUnits="userSpaceOnUse">
      <stop offset="0" stop-color="#758eb7"/>
      <stop offset="0.27" stop-color="#7892b9"/>
      <stop offset="0.52" stop-color="#819dbe"/>
      <stop offset="0.76" stop-color="#91b0c6"/>
      <stop offset="1" stop-color="#a6cad1"/>
    </linearGradient>
    <linearGradient id="linear-gradient-4" x1="2109.69" y1="-15.26" x2="2117.53" y2="-15.26" xlink:href="#linear-gradient-3"/>
    <linearGradient id="linear-gradient-5" x1="2109.48" y1="-13.55" x2="2117.32" y2="-13.55" xlink:href="#linear-gradient-3"/>
    <clipPath id="clip-path" transform="translate(-2.16 -1.22)">
      <polygon id="SVGID" points="111.84 64.56 80.58 73.43 66.66 85.51 57.7 115.75 61.81 151.38 52.72 195.72 76.56 189.25 78.84 178.23 101.65 178.23 103.9 183.6 118.34 193.44 134.78 195.72 154.06 194.02 154.06 178.23 172.68 178.23 173.89 190.63 185.87 195.72 193.97 193.44 206.21 112.45 190.41 77.38 146.71 66.79 111.84 64.56" style="fill: none"/>
    </clipPath>
    <linearGradient id="linear-gradient-6" x1="399.56" y1="98.48" x2="400.12" y2="113.74" gradientTransform="matrix(0.99, 0, 0.11, 1.01, -346.1, -33.39)" xlink:href="#linear-gradient-2"/>
    <linearGradient id="linear-gradient-7" x1="727.07" y1="-21.93" x2="729.8" y2="-21.93" gradientTransform="matrix(0.98, 0, 0.24, 1.02, -648.33, 101.02)" xlink:href="#linear-gradient-3"/>
    <linearGradient id="linear-gradient-8" x1="726.86" y1="-20.22" x2="734.71" y2="-20.22" gradientTransform="matrix(0.98, 0, 0.24, 1.02, -648.33, 101.02)" xlink:href="#linear-gradient-3"/>
    <linearGradient id="linear-gradient-9" x1="726.66" y1="-18.52" x2="734.5" y2="-18.52" gradientTransform="matrix(0.98, 0, 0.24, 1.02, -648.33, 101.02)" xlink:href="#linear-gradient-3"/>
  </defs>
  <title>Your Friends Get</title>
  <g style="isolation: isolate">
    <g id="Layer_1" data-name="Layer 1">
      <path d="M248.83,124.55a123.49,123.49,0,0,1-4.28,32.32c-.14.5-.27,1-.42,1.49a123.52,123.52,0,0,1-50.28,68.86q-4.29,2.86-8.83,5.37c-1,.56-2,1.1-3,1.61l0,0q-4,2.1-8.23,3.88-4.51,1.92-9.21,3.48a123.35,123.35,0,1,1,84.31-117Z" transform="translate(-2.16 -1.22)" style="fill: #104271"/>
      <path id="die" d="M31.71,92.7a28.3,28.3,0,0,0,3.48,11.37c3.23,5.81,9.1,18.55,6.05,29.84-4.11,15.22-24.93,42.44-8,61.62s35.55,17.41,81.78-5c30.67-14.88,123.61,45.18,99.79-28.3-17.1-52.78,18.7-70.87-6.72-94.12C172.91,35.87,145.92,100.58,110,66,76.48,33.68,28.56,55.24,31.71,92.7Z" transform="translate(-2.16 -1.22)" style="fill: #e4f1fa;opacity: 0.15"/>
      <g>
        <g>
          <polygon points="100.88 64.07 100.3 64.33 97.26 59.02 90.79 67.76 94.05 75.05 104.89 76.03 102.95 70.23 103.53 69.97 101.91 67.15 100.88 64.07" style="fill: #d9e0e9"/>
          <path d="M107.92,66.64a3.55,3.55,0,0,1-1.49,4.55l-2.89-6.46A3.56,3.56,0,0,1,107.92,66.64Z" transform="translate(-2.16 -1.22)" style="fill: #64a5c7"/>
          <path d="M107.92,66.64a3.55,3.55,0,0,1-1.49,4.55l-.6-1.34A3.56,3.56,0,0,0,107.55,66,3.26,3.26,0,0,1,107.92,66.64Z" transform="translate(-2.16 -1.22)" style="fill: #226b8e;opacity: 0.49"/>
          <path d="M90.76,74.34,95.52,85a1.69,1.69,0,0,0,3.09-1.39L93.86,73Z" transform="translate(-2.16 -1.22)" style="fill: #d9e0e9"/>
          <path d="M96,77.79A4.48,4.48,0,0,1,92.85,79l-1.18-2.62,3.21-1.14Z" transform="translate(-2.16 -1.22)" style="fill: #2d87c1;opacity: 0.49"/>
          <path d="M90.76,70A4,4,0,1,0,94,77.25l2.18-1L93,69Z" transform="translate(-2.16 -1.22)" style="fill: #64a5c7"/>
          <path d="M105.48,71.28l-.38.17,2,5.8-10.84-1-2.19,1a4,4,0,0,1-5.27-2,2,2,0,0,1-.1-.26C91,77.43,95,73.5,95,73.5s4.39.81,10-2.85Z" transform="translate(-2.16 -1.22)" style="fill: #226b8e;opacity: 0.49"/>
          <path d="M100,58.56a1.23,1.23,0,0,0-.62,1.63l7.68,17.12a1.23,1.23,0,1,0,2.24-1l-7.67-17.12A1.23,1.23,0,0,0,100,58.56Z" transform="translate(-2.16 -1.22)" style="fill: #596584"/>
          <g>
            <path d="M106.39,64.11h0a.35.35,0,0,1-.21-.46l2.09-5.43a.37.37,0,0,1,.47-.21h0a.36.36,0,0,1,.2.46l-2.09,5.44A.36.36,0,0,1,106.39,64.11Z" transform="translate(-2.16 -1.22)" style="fill: #fff"/>
            <path d="M114,63.8l-5.33,2.36a.36.36,0,0,1-.47-.18h0a.36.36,0,0,1,.18-.47l5.33-2.37a.36.36,0,0,1,.47.19h0A.36.36,0,0,1,114,63.8Z" transform="translate(-2.16 -1.22)" style="fill: #fff"/>
            <path d="M114,71.17l-5.44-2.09a.37.37,0,0,1-.2-.47h0a.36.36,0,0,1,.46-.2l5.44,2.09a.36.36,0,0,1,.2.46h0A.35.35,0,0,1,114,71.17Z" transform="translate(-2.16 -1.22)" style="fill: #fff"/>
          </g>
        </g>
        <g>
          <path d="M74.05,113.36c-.37-.55-.76-1.09-1.14-1.6l.4-.3c.39.52.77,1.07,1.15,1.62Zm-1.64-2.26c-.41-.53-.83-1-1.24-1.52l.37-.33c.43.49.85,1,1.27,1.55ZM70.62,109c-.44-.49-.9-1-1.36-1.42l.35-.35c.46.45.93.94,1.38,1.44Zm-2-2c-.49-.45-1-.88-1.49-1.28l.3-.38c.51.4,1,.84,1.52,1.3Zm-2.14-1.77c-.53-.39-1.08-.76-1.63-1.1l.26-.42c.56.34,1.12.72,1.66,1.12Zm-2.33-1.52c-.57-.32-1.15-.62-1.74-.89l.2-.45a20,20,0,0,1,1.79.91Zm-2.49-1.21c-.6-.25-1.22-.48-1.85-.68l.15-.47c.65.21,1.28.44,1.88.69Zm-2.63-.91c-.61-.18-1.24-.33-1.91-.48l.1-.49c.69.15,1.33.31,1.94.49Zm-2.72-.65-1.94-.34.07-.49c.76.12,1.38.23,2,.35Zm-2.76-.47-.69-.1-1.27-.2.07-.49,1.28.2.69.1ZM50.82,100c-.74-.13-1.38-.25-2-.38l.1-.49c.58.13,1.21.25,1.94.38ZM48,99.44a17.2,17.2,0,0,1-1.91-.6l.17-.46c.58.21,1.19.4,1.87.58Zm-2.69-.91a13.15,13.15,0,0,1-1.79-.93l.26-.42a14,14,0,0,0,1.72.89Zm-2.49-1.39a13.33,13.33,0,0,1-1.56-1.27l.34-.36a13.42,13.42,0,0,0,1.5,1.23ZM40.7,95.28c-.37-.39-.74-.82-1.09-1.27l-.21-.26.4-.3.2.26c.34.43.7.85,1.06,1.23Zm-1.8-2.2c-.39-.54-.77-1.1-1.12-1.66l.42-.26c.35.54.72,1.09,1.11,1.63Zm-1.55-2.37c-.35-.58-.67-1.18-1-1.76l.45-.22c.28.57.6,1.15.94,1.73ZM36,88.19c-.28-.62-.53-1.25-.75-1.86l.47-.17c.21.61.46,1.22.73,1.82Zm-1-2.66a8.84,8.84,0,0,1-.25-.88,5.74,5.74,0,0,1-.64.19L34,84.35c.21,0,.41-.11.63-.18l-.09-.37c0-.07,0-.15,0-.22l.49-.09a1.55,1.55,0,0,0,0,.21l.06.28a5.5,5.5,0,0,0,.69-.34l.24.44a7.48,7.48,0,0,1-.81.39c.08.31.17.61.26.92ZM33.28,85a3.36,3.36,0,0,1-2-.52l.27-.42a2.87,2.87,0,0,0,1.75.45Zm3.49-1.32-.28-.41A10.76,10.76,0,0,0,38,82l.35.36A11,11,0,0,1,36.77,83.63Zm-6.2.22a5.19,5.19,0,0,1-1-1.82l.47-.15a4.53,4.53,0,0,0,.9,1.63Zm4.31-1.17-.5.08a15.82,15.82,0,0,1-.16-2h.49A14.68,14.68,0,0,0,34.88,82.68Zm4.06-.93-.37-.33a10.19,10.19,0,0,0,1.18-1.54l.42.26A10.59,10.59,0,0,1,38.94,81.75Zm1.65-2.35-.44-.22a4.82,4.82,0,0,0,.53-1.8l.5,0A5.11,5.11,0,0,1,40.59,79.4ZM29.34,81.21,29.28,81c-.12-.58-.22-1.17-.29-1.73l.49-.06c.07.55.17,1.12.29,1.68l.05.24Zm5.39-1.28-.5,0a10.2,10.2,0,0,1,.31-2L35,78A9.94,9.94,0,0,0,34.73,79.93Zm5.88-3.28a1.72,1.72,0,0,0-.78-1,4.49,4.49,0,0,0-.42-.24l.22-.44a3.57,3.57,0,0,1,.46.26,2.17,2.17,0,0,1,1,1.28Zm-5.34.61-.46-.18A4.85,4.85,0,0,1,36,75.34l.34.37A4.25,4.25,0,0,0,35.27,77.26ZM29.4,78.37l-.5,0a19.47,19.47,0,0,1,0-2h.5A16.14,16.14,0,0,0,29.4,78.37Zm9.28-3.23a2.46,2.46,0,0,0-1.76.14l-.22-.44a2.93,2.93,0,0,1,2.11-.18Zm-9.28.46-.5,0a16.46,16.46,0,0,1,.3-2l.48.1A15.47,15.47,0,0,0,29.4,75.6Zm.47-2.72-.48-.13a16.43,16.43,0,0,1,.66-1.9l.46.19A15.42,15.42,0,0,0,29.87,72.88Zm1-2.58-.44-.21a16.11,16.11,0,0,1,1-1.76l.42.27A18.07,18.07,0,0,0,30.84,70.3Zm1.43-2.37-.4-.29a18.08,18.08,0,0,1,1.27-1.56l.37.34A19.06,19.06,0,0,0,32.27,67.93Zm1.8-2.11-.35-.35c.46-.46,1-.92,1.48-1.36l.32.38C35,64.92,34.52,65.37,34.07,65.82ZM36.15,64l-.3-.39a19.9,19.9,0,0,1,1.63-1.17l.27.41C37.2,63.2,36.66,63.58,36.15,64Zm2.3-1.59L38.19,62c.55-.35,1.14-.68,1.74-1l.23.44C39.57,61.72,39,62.05,38.45,62.39ZM40.89,61l-.22-.45c.6-.29,1.21-.57,1.83-.83l.19.46C42.08,60.47,41.48,60.75,40.89,61Zm2.56-1.13-.17-.46c.83-.32,1.49-.54,1.9-.66l.14.47C44.92,59.38,44.28,59.59,43.45,59.91Z" transform="translate(-2.16 -1.22)" style="fill: #fff"/>
          <g>
            <polygon points="44.47 55.69 48.16 61.26 61.02 53.54 47.1 53.95 44.47 55.69" style="fill: #c5d7ed"/>
            <polygon points="45.92 52.17 61.02 53.54 44.47 55.69 45.92 52.17" style="fill: #fff"/>
            <polygon points="61.02 53.54 44.64 61.19 44.38 57.16 61.02 53.54" style="fill: #fff"/>
          </g>
        </g>
        <g>
          <g>
            <path d="M45,153l3.92,2.56-3.1,0c7.53,22.46,24,35.27,24.42,19.05a27.56,27.56,0,0,0-1.88-10.29l-1.65,1.74.48-4.51c-7.28-15.55-25-28-25-28A69.11,69.11,0,0,0,45,153Z" transform="translate(-2.16 -1.22)" style="fill: #f7b97b"/>
            <path d="M68.25,181.47,58.2,162c-1.69-3.25-3.31-6.53-5.09-9.74a40.72,40.72,0,0,0-6.4-8.9,40.91,40.91,0,0,1,6.2,9c1.71,3.23,3.26,6.55,4.88,9.83l9.64,19.73Z" transform="translate(-2.16 -1.22)" style="fill: #fff"/>
          </g>
          <g>
            <path d="M64.6,180.43c-1.58-6.93-2.73-17.9-5.81-17.53s-1,5.11-3.31,5-2.7-3.45-2.9-9.45-5.23-8.51-7.81-7.37,2.78,9,.7,11-3.19-8.3-8.85-9.62-7.6.13-4.91,3.5,4.27,5.83,1.12,6.39-8.44-1.86-8.69,2.5,7.19,1.75,7.79,5.7-5.44,5.52-5.16,7.85,5.66,2.82,8.5.16,5.07-5.27,6.9-2.91-4.09,3.22-4.37,6.47,9.69.71,13.5-2,3.7-.23,1.84,1.74c-3.22,3.42,1.65,2.88,4.78.72S65.54,184.57,64.6,180.43Z" transform="translate(-2.16 -1.22)" style="fill: #ed8b90"/>
            <path d="M58.56,174.05a2,2,0,0,0,.28-.87l0-.2c.08-.48.14-1,.18-1.44a11.86,11.86,0,0,0,0-3.21.21.21,0,0,0-.25-.17.21.21,0,0,0-.16.24,11.52,11.52,0,0,1,0,3.11c0,.46-.1.93-.18,1.4l0,.22a1.89,1.89,0,0,1-.18.65,31,31,0,0,0-2.68-2.1h0a35.38,35.38,0,0,0-3.09-2A26.44,26.44,0,0,0,49,168.12a3.65,3.65,0,0,0,.83-1.79,16.74,16.74,0,0,0,0-7.15.2.2,0,0,0-.24-.16.22.22,0,0,0-.16.25,16.54,16.54,0,0,1,0,7,2.91,2.91,0,0,1-.85,1.71l-.31-.12a55.67,55.67,0,0,0-9.34-2.73,11.72,11.72,0,0,0-.36-3.38c-.13-.41-.3-.8-.46-1.18l-.8-1.82a.22.22,0,0,0-.27-.11.21.21,0,0,0-.11.28l.8,1.82a10.23,10.23,0,0,1,.45,1.13,10.93,10.93,0,0,1,.33,3.18,28.11,28.11,0,0,0-7-.4.2.2,0,0,0-.18.22.19.19,0,0,0,.21.19h0a30.91,30.91,0,0,1,10.7,1.22A2.37,2.37,0,0,1,42,167a14.22,14.22,0,0,1-2.43,3.86,9.52,9.52,0,0,1-1.22,1,14,14,0,0,1-4.13,2,.2.2,0,0,0-.13.26.21.21,0,0,0,.21.15h0a14.82,14.82,0,0,0,4.25-2.11,11.3,11.3,0,0,0,1.28-1.08,14.61,14.61,0,0,0,2.5-4,2.77,2.77,0,0,0,.27-.78c1.93.54,3.79,1.19,5.54,1.84a31,31,0,0,1,4.12,1.84,33.46,33.46,0,0,1,2.88,1.82,22.3,22.3,0,0,1-3.71,3.84,9.31,9.31,0,0,1-4.92,2h-.11a.21.21,0,0,0-.19.22.19.19,0,0,0,.21.19h.12a9.55,9.55,0,0,0,5.14-2.1,23.32,23.32,0,0,0,3.8-3.92,27.76,27.76,0,0,1,9.4,11.14.2.2,0,0,0,.2.12l.07,0a.2.2,0,0,0,.11-.27A26.86,26.86,0,0,0,58.56,174.05Z" transform="translate(-2.16 -1.22)" style="fill: #fdfdfd"/>
          </g>
        </g>
        <g>
          <g>
            <path d="M190.19,181.37c1.62-6,3-15.44,5.69-15s.68,4.48,2.69,4.46,2.47-2.9,2.87-8.1,4.85-7.19,7.05-6.11-2.75,7.74-1,9.54,3.07-7.08,8-8,6.6.39,4.13,3.22-3.91,4.91-1.2,5.5,7.39-1.29,7.45,2.5-6.3,1.25-7,4.66,4.53,5,4.2,7-5,2.25-7.39-.17-4.2-4.77-5.88-2.78,3.43,2.95,3.55,5.78-8.44.26-11.65-2.24-3.2-.35-1.66,1.44c2.68,3.08-1.54,2.43-4.17.44S189.22,184.93,190.19,181.37Z" transform="translate(-2.16 -1.22)" style="fill: url(#linear-gradient)"/>
            <path d="M195.67,176.05a1.75,1.75,0,0,1-.22-.76c0-.06,0-.12,0-.18-.05-.42-.09-.84-.1-1.25a9.89,9.89,0,0,1,.14-2.79.18.18,0,0,1,.22-.13.18.18,0,0,1,.13.21,10,10,0,0,0-.14,2.7c0,.4.05.81.1,1.22,0,.06,0,.12,0,.19a1.45,1.45,0,0,0,.14.57,26.6,26.6,0,0,1,2.4-1.72h0a30.05,30.05,0,0,1,2.76-1.6,23.4,23.4,0,0,1,3.06-1.24,3.09,3.09,0,0,1-.66-1.58,14.62,14.62,0,0,1,.3-6.21.17.17,0,0,1,.22-.13.18.18,0,0,1,.12.22,14.58,14.58,0,0,0-.29,6.06,2.59,2.59,0,0,0,.67,1.51l.28-.1a49,49,0,0,1,8.21-2,10,10,0,0,1,.44-2.92c.12-.35.29-.68.44-1l.76-1.55a.18.18,0,0,1,.33.16l-.76,1.55a7,7,0,0,0-.43,1,9.38,9.38,0,0,0-.42,2.74,24.72,24.72,0,0,1,6.14-.08.18.18,0,0,1,.16.2.19.19,0,0,1-.2.15h0a26.77,26.77,0,0,0-9.34.67,1.83,1.83,0,0,0,.19.63,12.3,12.3,0,0,0,2,3.45,8,8,0,0,0,1,.93,12.19,12.19,0,0,0,3.51,1.94.18.18,0,0,1-.08.35h-.05a13.07,13.07,0,0,1-3.6-2,8.78,8.78,0,0,1-1.07-1,12.76,12.76,0,0,1-2-3.54,2.59,2.59,0,0,1-.21-.7c-1.69.41-3.33.9-4.87,1.4a25.54,25.54,0,0,0-3.65,1.45c-.89.45-1.74,1-2.56,1.47a19.78,19.78,0,0,0,3.08,3.47,8,8,0,0,0,4.19,1.92.18.18,0,0,0,.1,0,.18.18,0,0,1,.15.2.17.17,0,0,1-.19.16H206a8.3,8.3,0,0,1-4.38-2,20.25,20.25,0,0,1-3.16-3.54,24.05,24.05,0,0,0-8.57,9.32.2.2,0,0,1-.18.1l-.06,0a.18.18,0,0,1-.09-.24A23.4,23.4,0,0,1,195.67,176.05Z" transform="translate(-2.16 -1.22)" style="fill: #fdfdfd"/>
          </g>
          <g>
            <path d="M189.43,181.7c5.28-2.78,17.21-3.66,17.43-7.6s-3.08-6-7.49-4.95c0,0,2.15-4.51,6.54-5.11s8.44-1.62,8.53-3.29-3.84-3.23-6.13-2.45c0,0,.12-5.68,4.44-6.15,5.25-.57,7-3,5.65-4.21s-8.43-4.19-11.12,1.17-3.27,5.82-3.27,5.82-2.06.07-1.6-3.86-2.75-5.75-5.32-1,1.25,7.46.88,10.7-4,9.79-4.95,4.49-7-6.62-6.6,1A69.84,69.84,0,0,0,189.43,181.7Z" transform="translate(-2.16 -1.22)" style="fill: #ed8b90"/>
            <path d="M208,160.86a.25.25,0,0,0-.24-.27l-2.57-.1a5,5,0,0,0-2.11.24,5.2,5.2,0,0,0-.91.54,3.44,3.44,0,0,1-.95.52c4.38-6,8.88-11.13,11.43-12.43a.26.26,0,0,0,.11-.35.25.25,0,0,0-.35-.11c-2.39,1.23-6.48,5.77-10.6,11.26v-.09a11.27,11.27,0,0,0-1.19-4.69l-.08-.17a3.29,3.29,0,0,1-.39-1,3.38,3.38,0,0,1,.2-1.41.26.26,0,0,0-.18-.32.26.26,0,0,0-.32.18,3.77,3.77,0,0,0-.21,1.62,4,4,0,0,0,.44,1.18l.09.17a10.86,10.86,0,0,1,1.13,4.47v.24c0,.16,0,.32,0,.47s0,0,0,0a121.36,121.36,0,0,0-9.76,15.33,5.15,5.15,0,0,0-.69-2.59,8.08,8.08,0,0,1-.57-1.45,7.81,7.81,0,0,1-.14-2.16l.1-3.89a.26.26,0,0,0-.25-.26.27.27,0,0,0-.27.25l-.09,3.89a8.44,8.44,0,0,0,.15,2.29,9.42,9.42,0,0,0,.61,1.55,4.68,4.68,0,0,1,.64,2.4,1,1,0,0,0,.13.72,34,34,0,0,0-2,4.74.25.25,0,0,0,.13.3l0,0a.26.26,0,0,0,.32-.17,39.85,39.85,0,0,1,2.79-6.22.23.23,0,0,0,.18-.13,3.34,3.34,0,0,1,2.46-1.42,13.36,13.36,0,0,1,1.9-.08c.42,0,.83,0,1.25,0a4.56,4.56,0,0,0,3.08-1.14.25.25,0,0,0-.36-.36,4.12,4.12,0,0,1-2.75,1c-.4,0-.81,0-1.22,0a11.92,11.92,0,0,0-2,.09,4.69,4.69,0,0,0-1.8.63,128.61,128.61,0,0,1,7.59-11.78,2.83,2.83,0,0,0,1.66-.67,4.6,4.6,0,0,1,.81-.49,4.48,4.48,0,0,1,1.89-.19l2.57.09A.24.24,0,0,0,208,160.86Z" transform="translate(-2.16 -1.22)" style="fill: #fff"/>
          </g>
        </g>
        <g>
          <circle cx="204.47" cy="69.1" r="5.7" style="fill: #fff"/>
          <circle cx="209.58" cy="62.68" r="3.26" style="fill: #fff"/>
        </g>
        <g>
          <path d="M68.8,186.69h41.53c4.07,0,6.84-3.69,6.19-8.24L106.8,88.56c-.65-4.55-4.48-8.25-8.54-8.25L58.77,79.6c-4.07,0-8.88,4.41-8.23,9l9.72,89.89C60.91,183,64.74,186.69,68.8,186.69Z" transform="translate(-2.16 -1.22)" style="fill: #d1d3d4"/>
          <path d="M71.64,186h41.53c4.07,0,6.84-3.69,6.19-8.25l-9.73-89.89c-.64-4.55-4.47-8.24-8.54-8.24H59.57c-4.07,0-6.84,3.69-6.2,8.24l9.73,89.89C63.75,182.29,67.57,186,71.64,186Z" transform="translate(-2.16 -1.22)" style="fill: #fff"/>
          <path d="M71,178.23H111.9c2.39,0,4-2.17,3.64-4.85l-9.45-84.21c-.38-2.68-2.63-4.86-5-4.86H60.18c-2.39,0-4,2.18-3.65,4.86L66,173.38C66.37,176.06,68.62,178.23,71,178.23Z" transform="translate(-2.16 -1.22)" style="fill: #64a5c7"/>
          <ellipse cx="91.2" cy="181.01" rx="3.34" ry="2.08" style="fill: #8190c7"/>
        </g>
        <g>
          <path d="M184.05,186.69H142.53c-4.07,0-6.84-3.69-6.2-8.24l9.73-89.89c.65-4.55,4.47-8.25,8.54-8.25l39.48-.71c4.07,0,8.89,4.41,8.24,9l-9.73,89.89C191.94,183,188.12,186.69,184.05,186.69Z" transform="translate(-2.16 -1.22)" style="fill: #d1d3d4"/>
          <path d="M181.22,186H139.69c-4.07,0-6.84-3.69-6.19-8.25l9.72-89.89c.65-4.55,4.47-8.24,8.54-8.24h41.53c4.07,0,6.84,3.69,6.19,8.24l-9.72,89.89C189.11,182.29,185.28,186,181.22,186Z" transform="translate(-2.16 -1.22)" style="fill: #fff"/>
          <path d="M181.84,178.23H141c-2.39,0-4-2.17-3.64-4.85l9.45-84.21c.38-2.68,2.63-4.86,5-4.86h40.89c2.39,0,4,2.18,3.64,4.86l-9.45,84.21C186.49,176.06,184.24,178.23,181.84,178.23Z" transform="translate(-2.16 -1.22)" style="fill: #64a5c7"/>
          <ellipse cx="157.34" cy="181.01" rx="3.34" ry="2.08" style="fill: #8190c7"/>
          <g>
            <path d="M182.62,87.55l1-8.56,1.59-1.4,9.25,2.23a4.69,4.69,0,0,1,2.24.82A5.49,5.49,0,0,1,198.15,82c-.23,1.86-.45,3.73-.68,5.59a1.8,1.8,0,0,1-1.73,1.57l-11.77,0A1.36,1.36,0,0,1,182.62,87.55Z" transform="translate(-2.16 -1.22)" style="fill: #d1d3d4;mix-blend-mode: multiply"/>
            <g>
              <path d="M181.25,76.47l6,6.82a.78.78,0,0,0,1.11,0l7.69-6.77-6-6.82a.78.78,0,0,0-1.11,0Z" transform="translate(-2.16 -1.22)" style="fill: url(#linear-gradient-2)"/>
              <path d="M182.25,85.64l10.62,0a.82.82,0,0,0,.78-.71l1.5-12.39a.61.61,0,0,0-.61-.71l-10.62,0a.82.82,0,0,0-.78.71l-1.5,12.39A.61.61,0,0,0,182.25,85.64Z" transform="translate(-2.16 -1.22)" style="fill: #fff"/>
              <path d="M181.25,76.47l-1,8.57a1.36,1.36,0,0,0,1.35,1.58l11.76,0a1.79,1.79,0,0,0,1.74-1.56l1-8.57-7.69,6.77a.78.78,0,0,1-1.11,0Z" transform="translate(-2.16 -1.22)" style="fill: #f7b97b"/>
              <path d="M185.31,75.08h2.22a.21.21,0,0,0,.21-.19l.07-.54a.18.18,0,0,0-.17-.2h-2.22a.22.22,0,0,0-.22.19l-.06.54A.17.17,0,0,0,185.31,75.08Z" transform="translate(-2.16 -1.22)" style="fill: url(#linear-gradient-3)"/>
              <path d="M185.11,76.8l7.22,0a.22.22,0,0,0,.22-.19l.06-.54a.17.17,0,0,0-.16-.2l-7.23,0a.23.23,0,0,0-.22.19l-.06.55A.17.17,0,0,0,185.11,76.8Z" transform="translate(-2.16 -1.22)" style="fill: url(#linear-gradient-4)"/>
              <path d="M184.89,78.54l7.23,0a.23.23,0,0,0,.22-.2l.06-.54a.16.16,0,0,0-.16-.19l-7.23,0a.23.23,0,0,0-.22.19l-.06.55A.16.16,0,0,0,184.89,78.54Z" transform="translate(-2.16 -1.22)" style="fill: url(#linear-gradient-5)"/>
            </g>
          </g>
        </g>
        <g>
          <circle cx="27.83" cy="114.43" r="5.33" style="fill: #fff"/>
          <circle cx="23.05" cy="108.43" r="3.05" style="fill: #fff"/>
        </g>
        <g>
          <path d="M141.56,62.29l2.61,5.79,2.6-1.17-2.61-5.79Zm1.94.83a.44.44,0,1,1,.22-.58A.44.44,0,0,1,143.5,63.12Z" transform="translate(-2.16 -1.22)" style="fill: #fff"/>
          <path d="M146.77,66.91l-2.6,1.17-1-2.29c.92-.26,2.32.56,2.47-1.45Z" transform="translate(-2.16 -1.22)" style="fill: #e6e7e8;mix-blend-mode: multiply"/>
          <path d="M147.45,66.6l4-1.79a2.84,2.84,0,0,0,1.41-3.75l-1-2.22h0a1.42,1.42,0,0,0,.71-1.87h0a1.41,1.41,0,0,0-1.87-.7l-3.3,1.53.24-2.32a1.27,1.27,0,0,0-1.71-1.34h0l-.92,7Z" transform="translate(-2.16 -1.22)" style="fill: #fff"/>
          <path d="M151.45,64.81l-4,1.79-1.7-3.78a3,3,0,0,0,3,1.16,4.83,4.83,0,0,0,2.39-1.21c.94-.87,1.3-2.8.28-3.59,0,0,.43-.34.43-.34l.37.83.43.94h0l.2.45A2.84,2.84,0,0,1,151.45,64.81Z" transform="translate(-2.16 -1.22)" style="fill: #e6e7e8;mix-blend-mode: multiply"/>
        </g>
        <g>
          <g>
            <g>
              <g>
                <g>
                  <ellipse cx="122.65" cy="182.74" rx="12.66" ry="2.16" style="fill: #e09d27"/>
                  <rect x="109.98" y="178.94" width="25.32" height="3.8" style="fill: #e09d27"/>
                </g>
                <g>
                  <ellipse cx="122.65" cy="178.94" rx="12.66" ry="2.16" style="fill: #fcb72b"/>
                  <path d="M115.19,180.35c0,.91,4.3,1.64,9.61,1.64s9.62-.73,9.62-1.64a.28.28,0,0,0,0-.09c-.29.86-4.48,1.54-9.61,1.54s-9.31-.68-9.6-1.54A.28.28,0,0,0,115.19,180.35Z" transform="translate(-2.16 -1.22)" style="fill: #ffc285"/>
                  <ellipse cx="122.65" cy="179.03" rx="9.6" ry="1.55" style="fill: #dd9624"/>
                  <path d="M115.19,180.16a.25.25,0,0,0,0,.12c.35-.85,4.51-1.53,9.59-1.53s9.24.68,9.59,1.53a.27.27,0,0,0,0-.12c0-.91-4.3-1.64-9.62-1.64S115.19,179.25,115.19,180.16Z" transform="translate(-2.16 -1.22)" style="fill: #a36f40"/>
                  <path d="M125.2,181v-.2a16.64,16.64,0,0,0,1.77-.08l-.28-.14a14.68,14.68,0,0,1-1.67.09c-.82,0-1.38-.08-1.38-.19s.46-.18,1.32-.24c1.18-.08,1.91-.17,1.91-.34s-.69-.29-1.75-.32v-.2h-.72v.19c-.7,0-1.17,0-1.51.07l.29.13c.24,0,.72-.07,1.46-.07.89,0,1.23.09,1.23.17s-.43.16-1.44.23c-1.19.08-1.79.19-1.79.36s.63.3,1.83.34v.2Z" transform="translate(-2.16 -1.22)" style="fill: #fcd183"/>
                </g>
              </g>
              <g>
                <g>
                  <ellipse cx="116.41" cy="178.58" rx="12.66" ry="2.16" style="fill: #e09d27"/>
                  <rect x="103.75" y="174.78" width="25.32" height="3.8" style="fill: #e09d27"/>
                </g>
                <g>
                  <ellipse cx="116.41" cy="174.78" rx="12.66" ry="2.16" style="fill: #fcb72b"/>
                  <path d="M109,176.2c0,.9,4.31,1.64,9.62,1.64s9.62-.74,9.62-1.64a.16.16,0,0,0,0-.1c-.28.87-4.47,1.55-9.6,1.55s-9.31-.68-9.6-1.55A.3.3,0,0,0,109,176.2Z" transform="translate(-2.16 -1.22)" style="fill: #ffc285"/>
                  <ellipse cx="116.41" cy="174.88" rx="9.6" ry="1.55" style="fill: #dd9624"/>
                  <path d="M109,176a.2.2,0,0,0,0,.11c.35-.85,4.51-1.52,9.59-1.52s9.24.67,9.59,1.52a.2.2,0,0,0,0-.11c0-.91-4.31-1.65-9.62-1.65S109,175.1,109,176Z" transform="translate(-2.16 -1.22)" style="fill: #a36f40"/>
                  <path d="M119,176.82v-.2a16.4,16.4,0,0,0,1.77-.09l-.28-.13a14.82,14.82,0,0,1-1.67.09c-.82,0-1.38-.09-1.38-.2s.45-.18,1.31-.23c1.19-.08,1.92-.17,1.92-.35s-.69-.29-1.76-.32v-.2h-.71v.2a13,13,0,0,0-1.51.07l.29.13a12.36,12.36,0,0,1,1.46-.07c.89,0,1.23.09,1.23.17s-.43.15-1.44.22c-1.19.09-1.8.19-1.8.37s.64.3,1.84.33v.21Z" transform="translate(-2.16 -1.22)" style="fill: #fcd183"/>
                </g>
              </g>
              <g>
                <g>
                  <ellipse cx="123.39" cy="174.46" rx="12.66" ry="2.16" style="fill: #e09d27"/>
                  <rect x="110.73" y="170.66" width="25.32" height="3.8" style="fill: #e09d27"/>
                </g>
                <g>
                  <ellipse cx="123.39" cy="170.66" rx="12.66" ry="2.16" style="fill: #fcb72b"/>
                  <path d="M115.93,172.07c0,.91,4.31,1.65,9.62,1.65s9.62-.74,9.62-1.65a.15.15,0,0,0,0-.09c-.28.86-4.47,1.55-9.6,1.55s-9.31-.69-9.6-1.55A.29.29,0,0,0,115.93,172.07Z" transform="translate(-2.16 -1.22)" style="fill: #ffc285"/>
                  <ellipse cx="123.39" cy="170.76" rx="9.6" ry="1.55" style="fill: #c98a1b"/>
                  <path d="M115.93,171.88a.27.27,0,0,0,0,.12c.35-.85,4.51-1.52,9.59-1.52s9.24.67,9.59,1.52a.27.27,0,0,0,0-.12c0-.9-4.31-1.64-9.62-1.64S115.93,171,115.93,171.88Z" transform="translate(-2.16 -1.22)" style="fill: #a36f40"/>
                  <path d="M126,172.7v-.2a16.4,16.4,0,0,0,1.77-.09l-.28-.13a15.14,15.14,0,0,1-1.67.08c-.82,0-1.38-.08-1.38-.19s.45-.18,1.31-.24c1.18-.08,1.91-.17,1.91-.34s-.68-.29-1.75-.32v-.2h-.71v.19c-.7,0-1.17,0-1.51.07l.29.13c.24,0,.72-.06,1.46-.06.89,0,1.23.09,1.23.17s-.43.15-1.44.22c-1.19.09-1.8.19-1.8.37s.64.3,1.84.33v.21Z" transform="translate(-2.16 -1.22)" style="fill: #fcd183"/>
                </g>
              </g>
              <g>
                <g>
                  <ellipse cx="124.63" cy="170.31" rx="12.66" ry="2.16" style="fill: #e09d27"/>
                  <rect x="111.97" y="166.51" width="25.32" height="3.8" style="fill: #e09d27"/>
                </g>
                <g>
                  <ellipse cx="124.63" cy="166.51" rx="12.66" ry="2.16" style="fill: #fcb72b"/>
                  <path d="M117.17,167.92c0,.91,4.31,1.64,9.62,1.64s9.62-.73,9.62-1.64a.15.15,0,0,0,0-.09c-.28.86-4.47,1.54-9.6,1.54s-9.31-.68-9.6-1.54A.29.29,0,0,0,117.17,167.92Z" transform="translate(-2.16 -1.22)" style="fill: #ffc285"/>
                  <ellipse cx="124.63" cy="166.6" rx="9.6" ry="1.55" style="fill: #c98a1b"/>
                  <path d="M117.17,167.73a.27.27,0,0,0,0,.12c.35-.85,4.51-1.53,9.59-1.53s9.24.68,9.59,1.53a.27.27,0,0,0,0-.12c0-.91-4.31-1.64-9.62-1.64S117.17,166.82,117.17,167.73Z" transform="translate(-2.16 -1.22)" style="fill: #a36f40"/>
                  <path d="M127.19,168.54v-.2a16.77,16.77,0,0,0,1.77-.08l-.28-.14a14.68,14.68,0,0,1-1.67.09c-.82,0-1.38-.08-1.38-.2s.46-.17,1.31-.23c1.19-.08,1.92-.17,1.92-.34s-.69-.29-1.75-.32v-.2h-.72v.19c-.7,0-1.17,0-1.51.07l.29.13c.24,0,.72-.07,1.46-.07.89,0,1.23.09,1.23.17s-.43.16-1.44.23c-1.19.08-1.8.18-1.8.36s.64.3,1.84.34v.2Z" transform="translate(-2.16 -1.22)" style="fill: #fcd183"/>
                </g>
              </g>
            </g>
            <path d="M123.38,168.7l3.41,17.42s6.67-.33,8.38-.92a11.59,11.59,0,0,0,2.3-1v-4.06s0-1.32-6.24-1.82a6.72,6.72,0,0,1,0-.74l2.62-.19Z" transform="translate(-2.16 -1.22)" style="fill: #d1d3d4;mix-blend-mode: multiply"/>
            <g>
              <polygon points="132.09 177.92 147.99 175.76 132.91 165.33 120.48 167.41 132.09 177.92" style="fill: #456e89"/>
              <path d="M124.8,169.74l9,7.93a4,4,0,0,1,2.49.4l9.89-1.36c-.54-.34-.29-.72.55-.84L135.55,168a2.8,2.8,0,0,1-2-.42l-8,1.32C125.9,169.25,125.57,169.63,124.8,169.74Z" transform="translate(-2.16 -1.22)" style="fill: #699bb7"/>
              <path d="M130.65,172l1,.17a4.58,4.58,0,0,1,1.4-.64l.55.21a3.91,3.91,0,0,0-1.32.61c-.44.32-.31.61.31.71a3.87,3.87,0,0,0,2-.34,5.21,5.21,0,0,1,2.8-.49c.89.14,1.25.51.91,1l1.11.16-.33.29-1.08-.16a3.47,3.47,0,0,1-1.13.55l-.59-.22a3.34,3.34,0,0,0,1.1-.54c.43-.35.09-.56-.34-.63a3.69,3.69,0,0,0-2,.4,5.6,5.6,0,0,1-2.93.42c-.85-.13-1.3-.5-.83-1l-1.09-.16Z" transform="translate(-2.16 -1.22)" style="fill: #456e89"/>
            </g>
            <g>
              <g>
                <ellipse cx="124.63" cy="166.18" rx="12.66" ry="2.16" style="fill: #e09d27"/>
                <rect x="111.97" y="162.38" width="25.32" height="3.8" style="fill: #e09d27"/>
              </g>
              <g>
                <ellipse cx="124.63" cy="162.38" rx="12.66" ry="2.16" style="fill: #fcb72b"/>
                <path d="M117.17,163.79c0,.91,4.31,1.65,9.62,1.65s9.62-.74,9.62-1.65a.15.15,0,0,0,0-.09c-.28.86-4.47,1.55-9.6,1.55s-9.31-.69-9.6-1.55A.29.29,0,0,0,117.17,163.79Z" transform="translate(-2.16 -1.22)" style="fill: #ffc285"/>
                <ellipse cx="124.63" cy="162.48" rx="9.6" ry="1.55" style="fill: #c98a1b"/>
                <path d="M117.17,163.6a.27.27,0,0,0,0,.12c.35-.85,4.51-1.52,9.59-1.52s9.24.67,9.59,1.52a.27.27,0,0,0,0-.12c0-.9-4.31-1.64-9.62-1.64S117.17,162.7,117.17,163.6Z" transform="translate(-2.16 -1.22)" style="fill: #a36f40"/>
                <path d="M127.19,164.42v-.2c.67,0,1.36,0,1.77-.09l-.28-.13c-.41,0-1,.08-1.67.08-.82,0-1.38-.08-1.38-.19s.46-.18,1.31-.24c1.19-.08,1.92-.17,1.92-.34s-.69-.29-1.75-.32v-.2h-.72V163c-.7,0-1.17,0-1.51.07l.29.13c.24,0,.72-.06,1.46-.06.89,0,1.23.09,1.23.17s-.43.15-1.44.22c-1.19.08-1.8.19-1.8.36s.64.31,1.84.34v.21Z" transform="translate(-2.16 -1.22)" style="fill: #fcd183"/>
              </g>
            </g>
            <g>
              <g>
                <ellipse cx="123.39" cy="162.02" rx="12.66" ry="2.16" style="fill: #e09d27"/>
                <rect x="110.73" y="158.23" width="25.32" height="3.8" style="fill: #e09d27"/>
              </g>
              <g>
                <ellipse cx="123.39" cy="158.23" rx="12.66" ry="2.16" style="fill: #fcb72b"/>
                <path d="M115.93,159.64c0,.91,4.31,1.64,9.62,1.64s9.62-.73,9.62-1.64a.2.2,0,0,0,0-.1c-.28.87-4.47,1.55-9.6,1.55s-9.31-.68-9.6-1.55A.44.44,0,0,0,115.93,159.64Z" transform="translate(-2.16 -1.22)" style="fill: #ffc285"/>
                <ellipse cx="123.39" cy="158.32" rx="9.6" ry="1.55" style="fill: #c98a1b"/>
                <path d="M115.93,159.45a.27.27,0,0,0,0,.12c.35-.86,4.51-1.53,9.59-1.53s9.24.67,9.59,1.53a.27.27,0,0,0,0-.12c0-.91-4.31-1.64-9.62-1.64S115.93,158.54,115.93,159.45Z" transform="translate(-2.16 -1.22)" style="fill: #a36f40"/>
                <path d="M126,160.26v-.2a16.4,16.4,0,0,0,1.77-.09l-.28-.13a14.82,14.82,0,0,1-1.67.09c-.82,0-1.38-.08-1.38-.2s.45-.17,1.31-.23c1.18-.08,1.91-.17,1.91-.35s-.68-.28-1.75-.31v-.2h-.71v.19a13,13,0,0,0-1.51.07l.29.13a12.36,12.36,0,0,1,1.46-.07c.89,0,1.23.09,1.23.17s-.43.16-1.44.23c-1.19.08-1.8.18-1.8.36s.64.3,1.84.34v.2Z" transform="translate(-2.16 -1.22)" style="fill: #fcd183"/>
              </g>
            </g>
            <path d="M127.47,160.75l-6,12.66s-5.17,1.37-7.08.57-1.5-1.13-1.5-1.13v-1s-.12-.35.93-.82c.24-.09.28-.16.28-.16l0-4Z" transform="translate(-2.16 -1.22)" style="fill: #d1d3d4;mix-blend-mode: multiply"/>
            <g>
              <polygon points="116.93 167.47 102.83 165.55 116.21 156.3 127.24 158.15 116.93 167.47" style="fill: #456e89"/>
              <path d="M127.47,160.36l-7.93,7a3.7,3.7,0,0,0-2.21.36l-8.78-1.2c.48-.31.26-.65-.49-.75l9.88-7a2.55,2.55,0,0,0,1.79-.37l7.08,1.16C126.5,159.91,126.8,160.25,127.47,160.36Z" transform="translate(-2.16 -1.22)" style="fill: #699bb7"/>
              <path d="M114.5,162.64l1,.15c-.42.44,0,.78.74.89a4.82,4.82,0,0,0,2.59-.38,3.3,3.3,0,0,1,1.73-.35c.38.06.69.25.3.56a2.79,2.79,0,0,1-1,.48l.53.19a3.15,3.15,0,0,0,1-.48l1,.14.3-.26-1-.14c.3-.41,0-.74-.81-.86a4.69,4.69,0,0,0-2.48.43,3.3,3.3,0,0,1-1.74.3c-.55-.08-.67-.34-.28-.63a3.64,3.64,0,0,1,1.18-.53L117,162a4,4,0,0,0-1.24.57l-.93-.14Z" transform="translate(-2.16 -1.22)" style="fill: #456e89"/>
            </g>
            <g>
              <g>
                <ellipse cx="124.63" cy="157.9" rx="12.66" ry="2.16" style="fill: #e09d27"/>
                <rect x="111.97" y="154.1" width="25.32" height="3.8" style="fill: #e09d27"/>
              </g>
              <g>
                <ellipse cx="124.63" cy="154.1" rx="12.66" ry="2.16" style="fill: #fcb72b"/>
                <path d="M117.17,155.52c0,.9,4.31,1.64,9.62,1.64s9.62-.74,9.62-1.64a.16.16,0,0,0,0-.1c-.28.87-4.47,1.55-9.6,1.55s-9.31-.68-9.6-1.55A.3.3,0,0,0,117.17,155.52Z" transform="translate(-2.16 -1.22)" style="fill: #ffc285"/>
                <ellipse cx="124.63" cy="154.2" rx="9.6" ry="1.55" style="fill: #c98a1b"/>
                <path d="M117.17,155.33a.2.2,0,0,0,0,.11c.35-.85,4.51-1.52,9.59-1.52s9.24.67,9.59,1.52a.2.2,0,0,0,0-.11c0-.91-4.31-1.65-9.62-1.65S117.17,154.42,117.17,155.33Z" transform="translate(-2.16 -1.22)" style="fill: #a36f40"/>
                <path d="M127.19,156.14v-.2a16.4,16.4,0,0,0,1.77-.09l-.28-.13a14.68,14.68,0,0,1-1.67.09c-.82,0-1.38-.09-1.38-.2s.46-.18,1.31-.23c1.19-.08,1.92-.17,1.92-.35s-.69-.29-1.75-.32v-.2h-.72v.2a13,13,0,0,0-1.51.07l.29.13a12.36,12.36,0,0,1,1.46-.07c.89,0,1.23.09,1.23.17s-.43.15-1.44.22c-1.19.09-1.8.19-1.8.37s.64.3,1.84.33v.21Z" transform="translate(-2.16 -1.22)" style="fill: #fcd183"/>
              </g>
            </g>
            <polygon points="127.35 156 131.15 167.91 141.73 171.43 137.26 168.34 137.29 161.34 127.35 156" style="fill: #d1d3d4;mix-blend-mode: multiply"/>
            <g>
              <polygon points="135.15 163.07 151.05 160.9 135.97 150.48 123.54 152.56 135.15 163.07" style="fill: #456e89"/>
              <path d="M127.86,154.89l8.94,7.92a4,4,0,0,1,2.5.41l9.89-1.36c-.54-.35-.29-.73.55-.85l-11.13-7.86a2.85,2.85,0,0,1-2-.42l-8,1.31C129,154.39,128.63,154.77,127.86,154.89Z" transform="translate(-2.16 -1.22)" style="fill: #699bb7"/>
              <path d="M142.08,158.73l-1.05-.16a5,5,0,0,1-1.4.64l-.55-.22a4.15,4.15,0,0,0,1.33-.6c.44-.33.3-.62-.31-.71a3.84,3.84,0,0,0-2,.33,5.24,5.24,0,0,1-2.8.49c-.89-.13-1.25-.51-.91-1l-1.12-.17.34-.28,1.08.15a3.53,3.53,0,0,1,1.12-.55l.59.23a3.07,3.07,0,0,0-1.09.53c-.43.36-.09.57.34.63a3.79,3.79,0,0,0,1.95-.39,5.57,5.57,0,0,1,2.92-.43c.86.13,1.3.5.83,1l1.09.17Z" transform="translate(-2.16 -1.22)" style="fill: #456e89"/>
            </g>
            <g>
              <g>
                <ellipse cx="128.32" cy="153.75" rx="12.66" ry="2.16" style="fill: #e09d27"/>
                <rect x="115.66" y="149.95" width="25.32" height="3.8" style="fill: #e09d27"/>
              </g>
              <g>
                <ellipse cx="128.32" cy="149.95" rx="12.66" ry="2.16" style="fill: #fcb72b"/>
                <path d="M120.86,151.36c0,.91,4.31,1.64,9.62,1.64s9.62-.73,9.62-1.64a.29.29,0,0,0,0-.09c-.29.86-4.48,1.54-9.6,1.54s-9.32-.68-9.6-1.54A.15.15,0,0,0,120.86,151.36Z" transform="translate(-2.16 -1.22)" style="fill: #ffc285"/>
                <ellipse cx="128.32" cy="150.04" rx="9.6" ry="1.55" style="fill: #dd9624"/>
                <path d="M120.86,151.17a.27.27,0,0,0,0,.12c.35-.85,4.51-1.53,9.59-1.53s9.24.68,9.59,1.53a.27.27,0,0,0,0-.12c0-.91-4.31-1.64-9.62-1.64S120.86,150.26,120.86,151.17Z" transform="translate(-2.16 -1.22)" style="fill: #a36f40"/>
                <path d="M130.08,152v-.19c-.67,0-1.36,0-1.77-.09l.28-.13c.42,0,1,.08,1.67.08.82,0,1.38-.08,1.38-.19s-.45-.18-1.31-.24c-1.18-.08-1.91-.17-1.91-.34s.68-.29,1.75-.32v-.2h.71v.19c.7,0,1.17,0,1.51.07l-.29.13c-.24,0-.72-.07-1.46-.07s-1.23.1-1.23.17.43.16,1.44.23c1.19.08,1.8.19,1.8.36s-.64.31-1.84.34v.2Z" transform="translate(-2.16 -1.22)" style="fill: #fcd183"/>
              </g>
            </g>
          </g>
          <g>
            <circle cx="123.54" cy="137.92" r="11.57" style="fill: #fcb72b"/>
            <path d="M116.91,140.15a8.79,8.79,0,1,0,17.58,0c0-.16,0-.33,0-.5a8.8,8.8,0,0,1-17.56,0C116.91,139.82,116.91,140,116.91,140.15Z" transform="translate(-2.16 -1.22)" style="fill: #fcd183"/>
            <ellipse cx="123.54" cy="138.42" rx="8.78" ry="8.28" style="fill: #dd9624"/>
            <path d="M116.91,139.14c0,.21,0,.42,0,.63a8.79,8.79,0,0,1,17.54,0c0-.21,0-.42,0-.63a8.79,8.79,0,0,0-17.58,0Z" transform="translate(-2.16 -1.22)" style="fill: #a36f40"/>
            <path d="M125.34,143.49v-1.07a3,3,0,0,1-1.62-.47l.25-.71a2.77,2.77,0,0,0,1.53.46,1.12,1.12,0,0,0,1.26-1c0-.58-.41-.94-1.2-1.26-1.08-.42-1.75-.91-1.75-1.83a1.75,1.75,0,0,1,1.6-1.71v-1.07h.66v1a2.82,2.82,0,0,1,1.38.37l-.27.7a2.5,2.5,0,0,0-1.33-.36c-.82,0-1.13.49-1.13.91s.4.83,1.32,1.21c1.09.44,1.64,1,1.64,1.94a1.84,1.84,0,0,1-1.67,1.8v1.1Z" transform="translate(-2.16 -1.22)" style="fill: #fcd183"/>
          </g>
        </g>
        <g>
          <path d="M121.43,67.06s.57,1.58.24,1.83a.7.7,0,0,1-1.18-.43s-.08.71.24.75l.61,2.43h.17l-.39-2.39s.91,0,.91-.59a5.32,5.32,0,0,0-.32-1.45Z" transform="translate(-2.16 -1.22)" style="fill: #e87979"/>
          <path d="M121.2,70.25c.28,1.17,1.41,1,2.79.5l0,.15a.39.39,0,0,1-.33.46l-2.17.27Z" transform="translate(-2.16 -1.22)" style="fill: #e87979"/>
          <g style="clip-path: url(#clip-path)">
            <path d="M195.53,96.26l-2.66,23.62a3.81,3.81,0,0,1-1.67.59h-.8l-.12,0h-.09l-.1,0-.1,0-.1,0-.1,0-.1,0-.11,0-.08,0-.19-.07h0l-.19-.09a.05.05,0,0,1,0,0l-.15-.07-.05,0-.13-.08-.06,0-.12-.09,0,0-.13-.09a.1.1,0,0,0,0,0l-.12-.1s0,0,0,0l-.12-.12,0,0-.13-.15h0l-.14-.18-2.47-3.14-3.6-4.58-2,13.56H184a1.77,1.77,0,0,1,1.77,1.77v12.69h0V143a6.36,6.36,0,0,1,.89.14,4.82,4.82,0,0,1,.81.28,4.55,4.55,0,0,1,2.42,2.86l-.82,7.33L185,176.94a4.73,4.73,0,0,1-3.13,1.29h-2.63l-.59-27.14a4.7,4.7,0,0,1,0-.53h-.24c-5.17.83-16.61,2.38-23,.95h0l-6.37-.63,2.33,27.36h-5l-6.67-25.57-.39-1.48a7,7,0,0,1,.07-3.73l.22-.74a7,7,0,0,1,1-2,6.76,6.76,0,0,1,5.85-2.87V126.62a1.77,1.77,0,0,1,1.77-1.77h8.44l.33-17.38L145.6,99.6l.86-7.7,6,3.56a7.17,7.17,0,0,0,4.36,1c-.08-.65-.7-6.54,2.13-9.07a12.7,12.7,0,0,1,5.46-3,6.78,6.78,0,0,1,3.23,0,6.09,6.09,0,0,1,1,.36c2.75,1.3,3.43,5,3.56,7.45a15.38,15.38,0,0,1,.16,2.3c1.72.39,4.15,1.15,6.38,1.9a13.81,13.81,0,0,1,8.08,7.15l3.4,7.15,2.19-10.08-1-1.6a.89.89,0,0,1,.26-1.23l-.1-1.36a1.09,1.09,0,0,1,1.12-1.18h.61A3,3,0,0,1,195.53,96.26Z" transform="translate(-2.16 -1.22)" style="fill: #456e89"/>
            <g>
              <path d="M97,151.38H81.45c-1.44,0-2.61.66-2.61,1.46v2.78H98.16Z" transform="translate(-2.16 -1.22)" style="fill: #4e3654"/>
              <ellipse cx="86.82" cy="201.05" rx="4.5" ry="0.99" style="fill: #f4f4f4"/>
              <rect x="88.5" y="156.16" width="1.02" height="45.63" transform="translate(175.87 356.73) rotate(180)" style="fill: #fff"/>
              <path d="M97,156.63H80.22c-.76,0-1.38-.35-1.38-.77v-.24H98.16Z" transform="translate(-2.16 -1.22)" style="fill: #402e44"/>
            </g>
            <path d="M112,178.23l-2.12-28.85a4.59,4.59,0,0,0-1.45-3.08l-.26-.22a4,4,0,0,0-4.27-.46v-1.9h0V125.91a1.3,1.3,0,0,0-1.29-1.3H94l.5-16.27L107,99.12a.45.45,0,0,0,.15-.21l-.05-.44,0-.12,0,0-.78-7-1.92,1.2a.47.47,0,0,0-.4,0L92.91,97.19a13.29,13.29,0,0,1-2.12.65L82.9,99.59,82.8,98a.12.12,0,0,0,0-.05l.06-.59c2.83-2.43,1.34-8.12.12-11.46l.23-.22A5.16,5.16,0,0,0,83,84.31H69.68a6,6,0,0,0-.63,2.23,9.63,9.63,0,0,0,1.46,6.09l.31.43a2,2,0,0,0,.42,1,2.62,2.62,0,0,0,.77.65l.4.56v-.13a11,11,0,0,0,1.31,1.4,6.07,6.07,0,0,0,.59.45l.4,1,.9,3.22-3.77.83a8.07,8.07,0,0,0-6.08,4.54l-6,11.68,1.25,11.16,7,9.48V139h0v7.39a4.32,4.32,0,0,0-2.76,4.47L67.94,177A4.7,4.7,0,0,0,71,178.23h1.55l1.54-24c5.61,1,15,0,21.09-.86h0l6.29-.86.55-.16,5.53,25.86H112ZM69.35,124.61a1.3,1.3,0,0,0-1.3,1.3v3.58l-3-5.61.65-1.19a.68.68,0,0,0,.69-.34l3.75-6.78,1.93,9Z" transform="translate(-2.16 -1.22)" style="fill: #456e89"/>
            <g>
              <path d="M74.55,135.25l-2.12,4.25L61.27,124.26a3.54,3.54,0,0,1-.48-3.27l1.61-4.53,5.9-4-.2,7.79-.77,1.38Z" transform="translate(-2.16 -1.22)" style="fill: #feac84"/>
              <path d="M70.54,128.1c-.94,5.34-2.48,4.16-3.34,3s1.57,3.1,1.57,3.1L71,136.9Z" transform="translate(-2.16 -1.22)" style="fill: #e87979"/>
              <path d="M72.84,138.67l-.41.83L61.16,124.26a3.54,3.54,0,0,1-.48-3.27l1.63-4.53,6-4,0,.71-4.9,3.3L61.72,121a3.49,3.49,0,0,0,.48,3.27Z" transform="translate(-2.16 -1.22)" style="fill: #e87979"/>
              <path d="M120.31,71.37l-1.49,15a3.88,3.88,0,0,1-1.32,2.55l-9.34,8.19-4.12-2,2.47-4.71,7.43-4.65,3.39-14.67Z" transform="translate(-2.16 -1.22)" style="fill: #feac84"/>
              <path d="M120.31,71.37l-1.49,15a3.93,3.93,0,0,1-1.32,2.56l-9.34,8.18-4.12-2,.54-1,3.51,1.7,9.33-8.18A3.93,3.93,0,0,0,118.74,85l1.36-13.69Z" transform="translate(-2.16 -1.22)" style="fill: #e87979"/>
              <path d="M109.28,96.86l-12.55,9.22L96,129.2l-20.41-1.53-3.18-14.36-3.75,6.78a.68.68,0,0,1-.94.26l-5.53-3.25a.68.68,0,0,1-.26-.9L68,104.31a8,8,0,0,1,6.08-4.53l19-4.19a12.72,12.72,0,0,0,2.12-.66l11.12-4.66a.46.46,0,0,1,.59.24l2.56,5.8A.44.44,0,0,1,109.28,96.86Z" transform="translate(-2.16 -1.22)" style="fill: #925454"/>
              <path d="M71.05,115.77l3.42-7.88s-.15,13.92,11.09,14.47-9.44,1.25-9.44,1.25l-1.71-1-2-9.32Z" transform="translate(-2.16 -1.22)" style="fill: #7a4f4f"/>
              <path d="M84.93,93.58,85.2,98A3.7,3.7,0,0,1,82,101.91h0a3.69,3.69,0,0,1-4-2.68l-2-7.07Z" transform="translate(-2.16 -1.22)" style="fill: #ea9378"/>
              <path d="M85.11,95.7c-1.42,1.89-6.49,2-7.85.77L76,93.28l9.2,1.83Z" transform="translate(-2.16 -1.22)" style="fill: #e87979"/>
              <path d="M84.22,81.08s5.07,10.49,1,14-9.2-.82-9.2-.82-4.72-4-2.83-8.61a8.75,8.75,0,0,1,8-5.43A6.17,6.17,0,0,1,84.22,81.08Z" transform="translate(-2.16 -1.22)" style="fill: #feac84"/>
              <path d="M85.09,83.44a9.62,9.62,0,0,1-10.93,4.32c-3.54-1.18-.39-3.46-.39-3.46L76.44,83Z" transform="translate(-2.16 -1.22)" style="fill: #e87979"/>
              <path d="M74.08,86.62c5.07,2.95,11.44-3.18,11.44-3.18a5.3,5.3,0,0,0-2.24-4C80.1,77.3,75.85,79,73,80.84a4.55,4.55,0,0,0-1.72,3.44,9.7,9.7,0,0,0,1.46,6.09L74.67,93Z" transform="translate(-2.16 -1.22)" style="fill: #4e3654"/>
              <path d="M74.51,89.54c-1.74-1.07-1.74,1.43-1,2.27s1.48.84,1.48.84Z" transform="translate(-2.16 -1.22)" style="fill: #feac84"/>
              <path d="M101.21,74.94" transform="translate(-2.16 -1.22)" style="fill: none;stroke: #070707;stroke-miterlimit: 10"/>
              <path d="M75.61,151.84c8.5,1.89,27.72-1.65,27.72-1.65l2.59-5.66L76,141.46l-3.31,1.65Z" transform="translate(-2.16 -1.22)" style="fill: #7877ed"/>
              <path d="M75.73,146.26c3.07,2.28,16.91,2.28,20.84,1.73a19.92,19.92,0,0,0,6.45-2l-17.93-4.87Z" transform="translate(-2.16 -1.22)" style="fill: #6173c1"/>
              <polygon points="68.62 175.09 68.56 178.75 72.51 177.98 72.28 174.74 68.62 175.09" style="fill: #feac84"/>
              <polygon points="108.09 175.47 108.42 178.75 112.38 177.98 111.79 175 108.09 175.47" style="fill: #feac84"/>
              <path d="M74.67,179.21l0,4.87s-8.65,8.49-11.17,5.66c-1.42-1.6.69-3.29,3.31-6a28.44,28.44,0,0,0,3.57-4.8Z" transform="translate(-2.16 -1.22)" style="fill: #4e3654"/>
              <path d="M110.45,179.21l0,4.87s9,8.18,11.48,5.35c1.42-1.61-1-3-3.62-5.66a28.8,28.8,0,0,1-3.58-4.8Z" transform="translate(-2.16 -1.22)" style="fill: #4e3654"/>
              <path d="M122,189.34h0c-2.41,3.08-11.55-5.26-11.55-5.26l0-4.87,1-.06v1.28a6.42,6.42,0,0,0,2.47,5.1C116.33,187.4,119.91,189.79,122,189.34Z" transform="translate(-2.16 -1.22)" style="fill: #403144"/>
              <rect x="68.15" y="121.13" width="35.85" height="23.82" rx="1.3" style="fill: #fcc0aa"/>
              <path d="M106.16,141.46v3.42a1.3,1.3,0,0,1-1.3,1.3H71.6a1.3,1.3,0,0,1-1.3-1.3v-8.13l.68.15c2.78,1.42,5.77,8.5,12.53,8.5,4.69,0,10.78,0,16.52-2.44C102.25,142,104.39,141,106.16,141.46Z" transform="translate(-2.16 -1.22)" style="fill: #aaa0a8"/>
              <path d="M76.56,148.81l-1.85,28.82-4.25-.23-2.92-28.78a4.38,4.38,0,0,1,1.63-3.83h0a4.35,4.35,0,0,1,5.85.39l.32.33A4.38,4.38,0,0,1,76.56,148.81Z" transform="translate(-2.16 -1.22)" style="fill: #7877ed"/>
              <path d="M114.34,177.08l-4.25.24-5.82-27.21-.55.16-6.29.86,7.19-6.53a4.13,4.13,0,0,1,5.81-.78l.25.22h0a4.67,4.67,0,0,1,1.46,3.08Z" transform="translate(-2.16 -1.22)" style="fill: #7877ed"/>
              <circle cx="86.07" cy="133.64" r="2.12" style="fill: #4e3654"/>
              <path d="M39.05,132.85" transform="translate(-2.16 -1.22)" style="fill: none;stroke: #070707;stroke-miterlimit: 10"/>
              <path d="M117.26,71.4l.16-3a.47.47,0,0,1,.21-.36l1.85-1.17a.46.46,0,0,1,.62.12h0a.46.46,0,0,0,.41.19l1.24-.1a.45.45,0,0,1,.49.38l.51,3.37a.46.46,0,0,1-.4.53l-4.58.52A.45.45,0,0,1,117.26,71.4Z" transform="translate(-2.16 -1.22)" style="fill: #feac84"/>
            </g>
            <path d="M74.6,184.18s-8.66,8.51-11.18,5.67c-1-1.18-.19-2.4,1.37-4-.11,2.92,3.63,3,9.42-2.83l.38-.38Z" transform="translate(-2.16 -1.22)" style="fill: #403144"/>
            <g>
              <path d="M173.94,149.08H158.4c-1.45,0-2.61.65-2.61,1.46v2.77h19.32Z" transform="translate(-2.16 -1.22)" style="fill: #4e3654"/>
              <ellipse cx="163.76" cy="198.74" rx="4.5" ry="0.99" style="fill: #f4f4f4"/>
              <rect x="165.45" y="153.85" width="1.02" height="45.63" transform="translate(329.76 352.12) rotate(180)" style="fill: #fff"/>
              <path d="M173.94,154.32H157.16c-.76,0-1.37-.34-1.37-.77v-.24h19.32Z" transform="translate(-2.16 -1.22)" style="fill: #402e44"/>
            </g>
            <g>
              <path d="M193.63,98.89l.32-2.58A3,3,0,0,0,191,92.93l-.6,0a1.11,1.11,0,0,0-1.13,1.18l.1,1.37h0a.9.9,0,0,0-.26,1.23l1.18,1.83Z" transform="translate(-2.16 -1.22)" style="fill: #feac84"/>
              <path d="M128.71,71.63l-.16-3a.42.42,0,0,0-.21-.36l-1.85-1.17a.45.45,0,0,0-.61.12h0a.48.48,0,0,1-.41.19l-1.25-.11a.46.46,0,0,0-.49.39l-.51,3.37a.46.46,0,0,0,.4.52l4.59.53A.45.45,0,0,0,128.71,71.63Z" transform="translate(-2.16 -1.22)" style="fill: #feac84"/>
              <path d="M120.19,67.06s.57,1.58.24,1.83a.7.7,0,0,1-1.18-.43s-.08.71.24.75l.61,2.43h.17l-.39-2.39s.91,0,.91-.59a5.32,5.32,0,0,0-.32-1.45Z" transform="translate(-2.16 -1.22)" style="fill: #e87979"/>
              <path d="M120,70.25c.28,1.17,1.41,1,2.78.5l0,.15a.39.39,0,0,1-.33.46l-2.17.27Z" transform="translate(-2.16 -1.22)" style="fill: #e87979"/>
              <path d="M126.17,67s-.64,1.94-.32,2.19a.7.7,0,0,0,1.18-.43s.08.71-.23.75L126.19,72l-.18,0,.39-2.38s-.9,0-.9-.6a8.86,8.86,0,0,1,.39-1.82Z" transform="translate(-2.16 -1.22)" style="fill: #e87979"/>
              <path d="M126.33,70.48c-.28,1.18-1.7,1-3.07.46l0,.14a.38.38,0,0,0,.34.46l2.44.39Z" transform="translate(-2.16 -1.22)" style="fill: #e87979"/>
              <path d="M193.67,98.3l-1.29,16.37a3.9,3.9,0,0,1-1.29,2.59h0a3.88,3.88,0,0,1-5.62-.5L179.4,109l-2.24,15.21-22.88,1.42.39-20.44L135.38,91.81a5.51,5.51,0,0,1-2-2.5l-7.15-17.43,2.36-.95,10,15.36,11.71,6.91a7.15,7.15,0,0,0,5.57.72l.36-.11s7-2.31,12.5-1.88a44.89,44.89,0,0,1,7.82,2.13,13.83,13.83,0,0,1,8.08,7.16l3.4,7.14,2.24-10.3Z" transform="translate(-2.16 -1.22)" style="fill: #57547f"/>
              <path d="M190.14,117.8v.08a3.86,3.86,0,0,1-4.67-1.12L179.4,109l-2.24,15.21-8.3.55c-2.17-.6-3.45-1.36-.74-2.12,5.9-1.65,10.61-17.77,10.61-17.77.24,1.49,4.65,9.12,5.51,8.26s2.41-2.92,2.77-3.38a11.75,11.75,0,0,0-1.28,2.9C185,114.89,186.2,118.66,190.14,117.8Z" transform="translate(-2.16 -1.22)" style="fill: #474763"/>
              <path d="M177.08,123.14" transform="translate(-2.16 -1.22)" style="fill: #474763"/>
              <path d="M154.91,105.29,135.38,91.81a5.45,5.45,0,0,1-2-2.5l-7.15-17.43.32-.13,6.75,16.46a5.58,5.58,0,0,0,2,2.5l19.53,13.48Z" transform="translate(-2.16 -1.22)" style="fill: #474763"/>
              <path d="M153.1,149.25c8.49,1.88,25.71-1.42,25.71-1.42l2.6-5.66-30-3.07-3.3,1.66Z" transform="translate(-2.16 -1.22)" style="fill: #7877ed"/>
              <path d="M150,141.23c5.77,3,23.23,7.07,26.41,7.07,0,0,1.61-4.34,3-5.52s-4-4.74-4-4.74Z" transform="translate(-2.16 -1.22)" style="fill: #6173c1"/>
              <polygon points="146.85 176.8 147.64 179.16 143.94 179.95 143.32 177.12 146.85 176.8" style="fill: #feac84"/>
              <polygon points="175.08 176.41 174.93 179.16 178.62 179.95 178.62 176.72 175.08 176.41" style="fill: #feac84"/>
              <path d="M149.91,179.6l1.65,4.59s-5.34,10.88-8.65,9c-1.88-1-.44-3.33,1.13-6.73a28.47,28.47,0,0,0,1.79-5.71Z" transform="translate(-2.16 -1.22)" style="fill: #f1a32a"/>
              <path d="M151.56,184.19s-5.34,10.88-8.65,9c-1.17-.64-1-1.77-.42-3.35a1.57,1.57,0,0,0,.89,1.47c2.59,1.43,6.43-4.92,8-7.75Z" transform="translate(-2.16 -1.22)" style="fill: #e58f30"/>
              <path d="M176.89,180.38l0,4.88s9,8.18,11.48,5.35c1.42-1.61-1-3-3.62-5.66a28.8,28.8,0,0,1-3.58-4.8Z" transform="translate(-2.16 -1.22)" style="fill: #f1a32a"/>
              <path d="M188.69,190a1.68,1.68,0,0,1-.36.6c-2.52,2.83-11.48-5.35-11.48-5.35l0-4.88,1.17-.06,0,3.84S185.46,190.94,188.69,190Z" transform="translate(-2.16 -1.22)" style="fill: #e58f30"/>
              <path d="M155.78,92.79c2.14,5.43,7.23,8.65,11,7.39s4.25-11.32,1.89-13.52S153.42,86.82,155.78,92.79Z" transform="translate(-2.16 -1.22)" style="fill: #feac84"/>
              <path d="M166.94,87.13c-4.09,6.61-12.34,7.08-12.34,7.08s-.87-6.45,2.12-9.12,6.7-4.08,9.67-2.68c4.32,2,3.54,9.91,3.54,9.91Z" transform="translate(-2.16 -1.22)" style="fill: #d83a64"/>
              <rect x="141.98" y="121.37" width="39.39" height="20.52" rx="1.77" style="fill: #fcc0aa"/>
              <path d="M183.53,137.06v4.28a1.77,1.77,0,0,1-1.77,1.77H145.91a1.77,1.77,0,0,1-1.77-1.77v-4c7-.52,11.12,4.72,17.69,4.49s12.5.59,15.69-1.07,3.95-3.21,5.89-3.77Z" transform="translate(-2.16 -1.22)" style="fill: #aaa0a8"/>
              <circle cx="163.29" cy="133.87" r="2.12" style="fill: #4e3654"/>
              <path d="M153.1,149.25l-6.37-.63,2.52,29.56L145,179.6l-8-30.68a6.85,6.85,0,0,1,.07-3.73l.22-.74a6.81,6.81,0,0,1,7.48-4.84h.06l11.81,3.49Z" transform="translate(-2.16 -1.22)" style="fill: #7877ed"/>
              <path d="M176.86,146.47l1.32-2.81a4.88,4.88,0,0,1,3-2.63,5.84,5.84,0,0,1,4.09.13h0a4.56,4.56,0,0,1,2.54,4.9L182,179l-5-.35-.65-29.78A5.52,5.52,0,0,1,176.86,146.47Z" transform="translate(-2.16 -1.22)" style="fill: #7877ed"/>
            </g>
          </g>
        </g>
        <g>
          <path d="M68.18,88.43l-1-8.57-1.59-1.4L56.3,80.69c-.42,0-.39.23-1.2.84a3,3,0,0,0-.75.86,7.09,7.09,0,0,0-1,3.36,6.51,6.51,0,0,0,0,2.73,1.8,1.8,0,0,0,1.73,1.57l11.77,0A1.36,1.36,0,0,0,68.18,88.43Z" transform="translate(-2.16 -1.22)" style="fill: #d1d3d4;mix-blend-mode: multiply"/>
          <g>
            <path d="M69.55,77.35l-6,6.81a.8.8,0,0,1-1.12,0L54.7,77.4l6-6.82a.79.79,0,0,1,1.11,0Z" transform="translate(-2.16 -1.22)" style="fill: url(#linear-gradient-6)"/>
            <path d="M68.55,86.52l-10.62,0a.82.82,0,0,1-.78-.71l-1.5-12.39a.62.62,0,0,1,.61-.72l10.61,0a.82.82,0,0,1,.79.71l1.5,12.39A.61.61,0,0,1,68.55,86.52Z" transform="translate(-2.16 -1.22)" style="fill: #fff"/>
            <path d="M69.55,77.35l1,8.56a1.35,1.35,0,0,1-1.35,1.58l-11.77,0A1.81,1.81,0,0,1,55.74,86l-1-8.56,7.69,6.77a.8.8,0,0,0,1.12,0Z" transform="translate(-2.16 -1.22)" style="fill: #f7b97b"/>
            <path d="M60.07,76H57.85a.22.22,0,0,1-.21-.19l-.07-.55a.17.17,0,0,1,.17-.19H60a.22.22,0,0,1,.21.2l.07.54A.16.16,0,0,1,60.07,76Z" transform="translate(-2.16 -1.22)" style="fill: url(#linear-gradient-7)"/>
            <path d="M65.29,77.68l-7.23,0a.22.22,0,0,1-.21-.19L57.78,77a.17.17,0,0,1,.17-.2l7.23,0a.21.21,0,0,1,.21.19l.07.54A.17.17,0,0,1,65.29,77.68Z" transform="translate(-2.16 -1.22)" style="fill: url(#linear-gradient-8)"/>
            <path d="M65.5,79.42l-7.23,0a.21.21,0,0,1-.21-.19L58,78.71a.18.18,0,0,1,.17-.2l7.23,0a.21.21,0,0,1,.21.19l.07.54A.17.17,0,0,1,65.5,79.42Z" transform="translate(-2.16 -1.22)" style="fill: url(#linear-gradient-9)"/>
          </g>
        </g>
      </g>
    </g>
  </g>
</svg>
