<?xml version="1.0" encoding="utf-8"?>
<!-- Generator: Adobe Illustrator 16.0.0, SVG Export Plug-In . SVG Version: 6.00 Build 0)  -->
<!DOCTYPE svg PUBLIC "-//W3C//DTD SVG 1.1//EN" "http://www.w3.org/Graphics/SVG/1.1/DTD/svg11.dtd">
<svg version="1.1" id="Layer_1" xmlns="http://www.w3.org/2000/svg" xmlns:xlink="http://www.w3.org/1999/xlink" x="0px" y="0px"
	 width="180px" height="180px" viewBox="47.5 0 180 180" enable-background="new 47.5 0 180 180" xml:space="preserve">
<circle fill="#273B7A" cx="137.5" cy="90" r="90"/>
<path fill="#121149" d="M154.639,178.363c40.397-7.789,71.17-42.587,72.787-84.862l-39.455-39.454l-16.733,20.742l-52.426,8.243
	L97.958,62.178l-6.842,3.863l19.01,19.01l-45.072,3.727L154.639,178.363z"/>
<path fill="#FFEDB5" d="M93.567,63.588l5.175,1.963c3.177,1.205,6.572,1.729,9.965,1.539l25.526-1.434l47.132,41.361
	c1.818,1.596,1.708,4.46-0.227,5.911l-0.786,0.589c-1.386,1.039-3.299,1.014-4.655-0.064l-33.631-26.716
	c-0.537-0.426-1.307-0.382-1.792,0.103l-0.513,0.513c-0.563,0.563-0.519,1.488,0.096,1.994l26.872,22.147
	c1.772,1.461,1.858,4.146,0.183,5.719l0,0c-1.358,1.273-3.438,1.378-4.918,0.248l-28.458-21.727
	c-0.574-0.438-1.392-0.346-1.854,0.208l0,0c-0.489,0.587-0.394,1.464,0.212,1.931l22.807,17.598c2.005,1.546,1.97,4.581-0.067,6.082
	l-0.205,0.152c-1.352,0.996-3.195,0.99-4.539-0.015l-23.248-17.36c-0.574-0.43-1.384-0.334-1.843,0.217l-0.002,0.004
	c-0.491,0.59-0.392,1.471,0.22,1.936l15.772,11.998c1.764,1.341,2.015,3.898,0.545,5.557l-0.556,0.629
	c-1.2,1.355-3.19,1.679-4.758,0.771L79.093,92.537L93.567,63.588z"/>
<path fill="#FEE187" d="M79.093,92.537l56.925,32.904c1.568,0.906,3.558,0.584,4.758-0.771l0.557-0.629
	c1.47-1.658,1.218-4.217-0.546-5.558l-15.772-11.997c-0.611-0.465-0.71-1.346-0.219-1.937l0.002-0.003
	c0.459-0.551,1.268-0.646,1.843-0.217l23.248,17.36c1.345,1.005,3.188,1.011,4.539,0.015l0.205-0.152
	c0.037-0.027,0.069-0.059,0.105-0.086l-64.995-50.23L79.093,92.537z"/>
<path fill="#FFC61B" d="M184.894,61.176l15.508,28.604l-22.056,14.647L142.16,72.894l-22.649,8.757
	c-1.964,0.759-4.188,0.36-5.766-1.035l0,0c-3.028-2.678-2.333-7.58,1.319-9.312l30.124-14.283c1.354-0.643,2.927-0.64,4.279,0.006
	l17.878,8.539c1.971,0.941,4.23,1.069,6.295,0.358L184.894,61.176z"/>
<polygon fill="#EAA22F" points="163.773,91.729 178.346,104.427 200.401,89.78 192.131,74.524 "/>
<rect x="73.231" y="56.004" transform="matrix(0.8827 0.47 -0.47 0.8827 45.0357 -29.4499)" fill="#FF7F4F" width="16.54" height="38.941"/>
<g>
	<polygon fill="#D35933" points="65.054,88.778 79.655,96.553 88.901,79.187 74.61,70.832 	"/>
	
		<rect x="183.865" y="55.321" transform="matrix(-0.8256 0.5643 -0.5643 -0.8256 392.9633 28.1245)" fill="#D35933" width="16.541" height="38.941"/>
</g>
<polygon fill="#B54324" points="209.946,86.197 199.084,70.306 184.92,78.898 196.289,95.531 "/>
</svg>
