<svg width="272" height="42" viewBox="0 0 272 42" fill="none" xmlns="http://www.w3.org/2000/svg">
<g clip-path="url(#clip0)">
<path fill-rule="evenodd" clip-rule="evenodd" d="M54.7557 2.55114C49.5913 7.52892 39.0757 10.7023 34.9691 11.3245C22.1513 13.2534 10.0179 8.83559 9.76904 8.71114C17.2979 10.5156 26.9424 11.4489 34.5957 10.1423C40.1335 9.1467 48.1602 5.7867 53.6979 1.8667" fill="#FF9900"/>
<path d="M54.7557 2.55114C49.5913 7.52892 39.0757 10.7023 34.9691 11.3245C22.1513 13.2534 10.0179 8.83559 9.76904 8.71114C17.2979 10.5156 26.9424 11.4489 34.5957 10.1423C40.1335 9.1467 48.1602 5.7867 53.6979 1.8667" stroke="#FF9900" stroke-width="0.25" stroke-miterlimit="10"/>
<path fill-rule="evenodd" clip-rule="evenodd" d="M56.3734 0.124512L50.7112 1.12007L53.9467 2.36451L54.3201 2.86229L55.2534 5.4134L56.3734 0.124512Z" fill="#FF9900" stroke="#FF9900" stroke-width="0.25" stroke-miterlimit="10"/>
<path d="M110.942 7.21777L104.782 36.4H99.9912L105.965 8.15111L110.942 7.21777Z" fill="white"/>
<path d="M46.3558 10.3911L41.1913 11.3867L39.3247 19.9733C38.7024 18.9156 37.2091 17.6089 34.098 17.6089C28.8091 17.6089 24.7646 22.3378 24.7646 28.56C24.7646 33.1022 27.4402 36.7111 31.9202 36.7111C34.4091 36.7111 35.9647 35.4044 36.8358 34.16C36.7735 34.5956 36.5869 35.4667 36.4002 36.4H40.8802C40.8802 36.4 41.4402 33.5378 41.6891 32.3556L46.3558 10.3911ZM33.2269 32.48C30.9869 32.48 29.618 30.9244 29.618 28.4356C29.618 25.4489 31.298 22.0889 34.4713 22.0889C36.6491 22.0889 37.9558 23.5822 37.9558 26.0089C37.9558 30.0533 35.778 32.48 33.2269 32.48Z" fill="white"/>
<path d="M109.76 0.124512C108.267 0.124512 107.022 1.30673 107.022 2.80007C107.022 4.04451 107.956 4.97784 109.2 4.97784C110.631 4.97784 111.938 3.85784 111.938 2.30229C111.938 1.12007 111.067 0.124512 109.76 0.124512Z" fill="white"/>
<path d="M83.0668 18.4803L78.1513 19.4136L77.9024 20.5336C77.7157 20.2225 77.5291 19.9114 77.1557 19.6003C76.3468 18.8536 74.978 18.1069 72.6757 18.1069C67.5113 18.1069 63.5291 22.7114 63.5291 28.8091C63.5291 33.2269 66.1424 36.7736 70.4979 36.7736C72.9246 36.7736 74.4802 35.4669 75.2891 34.2847C75.2268 34.7202 74.9779 35.5914 74.7913 36.4625H79.3335L83.0668 18.4803ZM71.8668 32.5425C69.7513 32.5425 68.3824 31.0491 68.3824 28.5603C68.3824 25.6358 70.0002 22.4003 73.1113 22.4003C75.2891 22.4003 76.5335 23.8936 76.5335 26.258C76.5335 30.178 74.3557 32.5425 71.8668 32.5425Z" fill="white"/>
<path d="M56.9957 18.0446C55.129 18.0446 53.3246 18.6046 52.1424 20.2224C52.2046 19.6624 54.5068 8.89795 54.5068 8.89795L48.7824 9.95573L43.1824 36.4002H43.8046H48.2846H48.5957L50.8357 26.0091C51.2713 24.018 52.5157 22.2757 54.6313 22.2757C56.4357 22.2757 57.369 23.3335 57.369 24.9513C57.369 25.2624 57.3068 25.6357 57.2446 26.0091L55.0046 36.4002H59.8579L62.1602 25.5735C62.2846 24.8891 62.409 24.3291 62.409 23.7068C62.5335 20.4091 60.5424 18.0446 56.9957 18.0446Z" fill="white"/>
<path d="M100.24 23.7065C100.24 20.471 98.2491 18.0443 94.7024 18.0443C92.8357 18.0443 90.8446 18.7288 89.6624 20.3465C89.7246 19.6621 90.3469 17.2976 90.4713 16.9243L85.4935 17.9821C85.4935 17.9821 84.8713 20.9065 84.7469 21.591L81.6357 36.4621H86.4269L88.6669 26.071C89.1024 24.0799 90.3469 22.3377 92.4624 22.3377C94.2669 22.3377 95.2002 23.3954 95.2002 25.0132C95.2002 25.3865 95.138 25.6977 95.0757 26.071L92.8357 36.4621H97.6891L99.9913 25.6354C100.116 24.8888 100.24 24.2665 100.24 23.7065Z" fill="white"/>
<path fill-rule="evenodd" clip-rule="evenodd" d="M7.21776 13.8755C7.0311 13.2533 6.84443 12.5688 6.59554 11.9466C6.53332 11.6977 6.53332 11.511 6.78221 11.3244C7.34221 10.7644 8.02665 10.5155 8.77332 10.4533C9.76888 10.3288 10.8267 10.391 11.76 10.7644C11.8222 10.7644 11.9467 10.8266 12.0089 10.8888C12.7555 11.2622 12.88 11.511 12.6933 12.3822C12.6311 12.6933 12.5067 12.9422 12.4444 13.2533C12.32 13.5644 12.1955 13.8133 12.1955 14.1244C12.4444 13.8133 12.6311 13.5022 12.8178 13.191C13.0044 12.8799 13.1911 12.5066 13.3155 12.1955C13.8755 12.3822 14.4355 12.631 14.9955 12.8177C15.3689 12.9422 15.4933 13.1288 15.3689 13.5022C15.12 13.9999 14.8711 14.4355 14.56 14.871C13.9378 15.6177 13.2533 16.3644 12.6311 17.0488C11.6978 16.4888 10.7022 16.2399 9.64443 16.2399C8.58665 16.2399 7.5911 16.4888 6.59554 17.0488C5.78665 16.0533 5.03998 15.0577 4.2311 14.0622C4.16887 13.9999 4.10665 13.8755 4.10665 13.8133C3.6711 12.8799 3.85776 12.8799 4.60443 12.6933C5.16443 12.5688 5.66221 12.3199 6.22221 12.1333C6.53332 12.7555 6.90665 13.3777 7.27998 14.0622C7.21776 13.9377 7.21776 13.9377 7.21776 13.8755Z" fill="white"/>
<path fill-rule="evenodd" clip-rule="evenodd" d="M12.9423 18.2933C12.9423 18.6666 12.6312 18.791 12.3201 18.6044C11.8223 18.3555 11.3246 18.1066 10.7646 17.9199C9.45789 17.5466 8.27567 17.7955 7.09345 18.4177C6.96901 18.4799 6.90678 18.5422 6.78234 18.6044C6.59567 18.6044 6.40901 18.6666 6.34678 18.5422C6.28456 18.4799 6.22234 18.231 6.28456 18.1066C6.34678 17.9199 6.47123 17.7955 6.59567 17.671C8.27567 16.3644 10.6401 16.3022 12.3823 17.5466C12.6934 17.7955 12.9423 18.1066 12.9423 18.2933Z" fill="white"/>
<path fill-rule="evenodd" clip-rule="evenodd" d="M18.729 27.9376C18.0446 25.6354 16.8001 23.6443 15.2446 21.8398C14.249 20.7198 13.1912 19.662 11.8223 18.9154C11.0134 18.4798 10.1423 18.2309 9.209 18.2932C8.15122 18.4176 7.21788 18.8532 6.34677 19.4754C4.29344 21.0309 2.73788 23.022 1.49344 25.262C0.684549 26.6932 0.0623269 28.2487 0.000104637 29.8665C-0.0621176 31.2976 0.248994 32.542 1.1201 33.662C2.17788 35.0309 3.60899 35.7776 5.28899 36.2754C5.41344 36.3376 5.53788 36.3376 5.66233 36.3998C5.78677 36.3998 5.91122 36.462 6.03566 36.462C5.16455 36.0887 4.41788 35.5287 3.73344 34.8443C2.98677 34.0354 2.36455 32.9154 2.36455 32.3554C3.23566 33.8487 4.41788 34.8443 5.91122 35.5909C7.28011 36.2754 8.77344 36.7732 10.329 36.5243C12.6312 36.1509 14.5601 35.1554 16.0534 33.3509C16.3023 33.0398 16.489 32.7287 16.7379 32.4176C16.8001 32.4176 16.8001 32.4798 16.8623 32.4798C16.6134 32.9154 16.4268 33.4132 16.1779 33.7865C15.4312 35.0309 14.3112 35.8398 13.0046 36.462C13.0046 36.462 13.0046 36.5243 13.0668 36.5243C13.689 36.3376 14.3112 36.0887 14.9334 35.8398C16.4268 35.2176 17.6712 34.2843 18.4179 32.8532C19.289 31.2976 19.2268 29.6176 18.729 27.9376Z" fill="white"/>
<path d="M13.6267 29.369C13.6267 29.5556 13.5023 29.6801 13.3156 29.6801H6.2845C6.09783 29.6801 5.97339 29.5556 5.97339 29.369V27.5645C5.97339 27.3779 6.09783 27.2534 6.2845 27.2534H13.2534C13.44 27.2534 13.5645 27.3779 13.5645 27.5645V29.369H13.6267Z" fill="#0C347B"/>
<path d="M10.7022 24.7024C10.8889 24.7024 11.0133 24.8268 11.0133 25.0135V31.9824C11.0133 32.169 10.8889 32.2935 10.7022 32.2935H8.89778C8.71111 32.2935 8.58667 32.169 8.58667 31.9824V24.9512C8.58667 24.7646 8.71111 24.6401 8.89778 24.6401H10.7022V24.7024Z" fill="#0C347B"/>
<path d="M117.413 28.9958C117.351 29.4313 117.351 29.8669 117.351 30.3024C117.351 32.6669 119.28 33.9736 121.271 33.9736C123.449 33.9736 124.942 32.9158 125.627 31.0491H128.116C127.307 34.4091 124.569 36.1513 121.271 36.1513C116.231 36.1513 114.862 32.6669 114.862 30.0536C114.862 24.2669 118.471 20.2847 122.64 20.2847C127.12 20.2847 129.049 22.7113 129.049 27.0047C129.049 27.8136 128.925 28.5602 128.8 28.9958H117.413ZM126.622 26.7558C126.809 24.6402 125.813 22.4624 123.076 22.4624C120.151 22.4624 118.533 24.3913 117.849 26.7558H126.622Z" fill="#FF9900"/>
<path d="M131.538 26.5068H140.062L139.565 28.8713H131.04L131.538 26.5068Z" fill="#FF9900"/>
<path d="M144.605 21.1558L147.031 20.658L146.533 22.8358H146.596C148.089 20.8447 149.582 20.2847 151.636 20.2847C155.493 20.2847 157.609 22.8358 157.609 26.5069C157.609 31.1113 154.498 36.1513 149.209 36.1513C147.342 36.1513 145.102 35.5291 144.48 33.4758H144.356L142.738 41.6269H140.249L144.605 21.1558ZM151.2 22.5247C147.405 22.5247 145.289 26.8802 145.289 30.0536C145.289 32.2936 146.658 33.9736 149.085 33.9736C153.067 33.9736 155.12 29.8669 155.12 26.5069C155.058 24.0802 153.938 22.5247 151.2 22.5247Z" fill="#FF9900"/>
<path d="M163.333 15.3689L165.947 14.8711L164.142 22.8978L164.205 22.96C165.449 21.28 167.502 20.3466 169.618 20.3466C172.48 20.3466 173.849 21.5911 173.849 24.2666C173.849 24.8889 173.662 26.0711 173.413 27.2533L171.547 35.9022H169.058L170.987 27.0666C171.111 26.5066 171.36 25.2622 171.36 24.7022C171.36 23.2711 170.178 22.5866 168.747 22.5866C167.378 22.5866 165.947 23.3333 165.013 24.3289C164.142 25.0755 163.645 26.32 163.333 27.5022L161.591 35.9022H159.102L163.396 15.4933L163.333 15.3689Z" fill="#FF9900"/>
<path d="M177.022 25.2002C177.52 21.8402 180.382 20.2847 183.618 20.2847C186.542 20.2847 189.156 21.0936 189.156 24.1424C189.156 25.0136 188.845 26.0713 188.658 26.8802L187.662 30.9869C187.538 31.6091 187.227 32.4802 187.227 33.1647C187.227 33.8491 187.538 34.098 187.973 34.098C188.222 34.098 188.533 33.9736 188.782 33.9113L188.409 35.778C188.036 35.9647 187.351 36.1513 186.853 36.1513C185.485 36.1513 184.738 35.3424 184.862 34.0358L184.8 33.9736C183.742 35.4047 182.249 36.1513 179.698 36.1513C177.147 36.1513 175.031 34.9691 175.031 31.858C175.031 27.4402 179.325 27.1913 182.685 26.8802C185.298 26.6313 186.48 26.5069 186.48 24.4536C186.48 22.8358 184.738 22.4624 183.431 22.4624C181.502 22.4624 179.636 23.2091 179.325 25.2002H177.022ZM180.382 33.9736C182.311 33.9736 183.742 33.3513 184.613 31.9824C185.422 30.8624 185.609 29.4936 185.92 28.0624H185.858C184.8 28.6847 182.809 28.8713 181.005 29.1202C179.2 29.3691 177.645 29.9291 177.645 31.858C177.645 33.2891 178.951 33.9736 180.382 33.9736Z" fill="#FF9900"/>
<path d="M193.573 21.0931L196 20.5953L195.253 23.8309H195.315C196.498 21.7775 198.302 20.222 200.853 20.222C201.164 20.222 201.413 20.1598 201.724 20.222L201.164 22.8975C200.915 22.8975 200.667 22.8975 200.418 22.8975C199.795 22.8975 199.484 22.8975 198.924 23.022C197.556 23.3953 196.498 24.2664 195.689 25.5109C195.004 26.5064 194.631 27.9375 194.444 29.0575L193.013 35.7775H190.524L193.573 21.1553V21.0931Z" fill="#FF9900"/>
<path d="M203.591 21.0933L206.018 20.5955L205.458 22.8355L205.52 22.8977C206.827 21.3422 208.693 20.2222 210.809 20.2222C212.738 20.2222 214.169 20.9688 214.604 22.9599C215.787 21.3422 217.778 20.2222 219.769 20.2222C221.884 20.2222 224 21.1555 224 23.6444C224 24.5155 223.751 25.8222 223.564 26.6933L221.636 35.7777H219.147L221.262 26.1333C221.387 25.6355 221.511 24.9511 221.511 24.5155C221.511 23.3333 220.516 22.4622 219.209 22.4622C217.778 22.4622 216.222 23.4577 215.413 24.5155C214.604 25.3866 214.293 26.6311 213.982 27.9377L212.302 35.7777H209.813L211.618 27.1288C211.867 25.9466 212.116 24.8266 212.116 24.4533C212.116 23.2088 211.369 22.4622 210 22.4622C208.631 22.4622 207.138 23.3955 206.267 24.3911C205.209 25.4488 204.96 26.32 204.649 27.8133L202.969 35.7777H200.48L203.591 21.1555V21.0933Z" fill="#FF9900"/>
<path d="M227.173 25.2002C227.671 21.8402 230.533 20.2847 233.769 20.2847C236.693 20.2847 239.307 21.0936 239.307 24.1424C239.307 25.0136 238.996 26.0713 238.809 26.8802L237.813 30.9869C237.689 31.6091 237.378 32.4802 237.378 33.1647C237.378 33.8491 237.689 34.098 238.125 34.098C238.373 34.098 238.685 33.9736 238.933 33.9113L238.56 35.778C238.187 35.9647 237.502 36.1513 237.005 36.1513C235.636 36.1513 234.889 35.3424 235.013 34.0358L234.951 33.9736C233.893 35.4047 232.4 36.1513 229.849 36.1513C227.298 36.1513 225.182 34.9691 225.182 31.858C225.182 27.4402 229.476 27.1913 232.836 26.8802C235.449 26.6313 236.631 26.5069 236.631 24.4536C236.631 22.8358 234.889 22.4624 233.582 22.4624C231.653 22.4624 229.787 23.2091 229.476 25.2002H227.173ZM230.533 33.9736C232.462 33.9736 233.893 33.3513 234.765 31.9824C235.573 30.8624 235.76 29.4936 236.071 28.0624H236.009C234.951 28.6847 232.96 28.8713 231.156 29.1202C229.351 29.3691 227.796 29.9291 227.796 31.858C227.796 33.2891 229.165 33.9736 230.533 33.9736Z" fill="#FF9900"/>
<path d="M253.058 25.4491C253.058 23.5824 251.813 22.4624 249.884 22.4624C246.027 22.4624 243.973 26.258 243.973 29.618C243.973 31.9824 244.969 33.9736 247.707 33.9736C249.822 33.9736 251.44 32.7291 252.124 30.8624H254.613C253.742 34.2224 251.191 36.1513 247.707 36.1513C243.6 36.1513 241.484 33.6624 241.484 29.618C241.484 24.8269 244.471 20.2847 249.884 20.2847C253.307 20.2847 255.484 21.9024 255.547 25.4491H253.058Z" fill="#FF9900"/>
<path d="M261.396 38.3911C260.151 40.3822 259.031 42 256.48 42C255.92 42 255.236 41.8755 254.738 41.6266L255.173 39.5733C255.547 39.8222 256.169 40.0088 256.604 40.0088C257.724 40.0088 258.347 39.3244 258.969 38.3911L260.524 35.8399L257.973 21.2177V21.1555L260.587 20.6577L262.329 32.7288H262.391L268.427 21.3422L268.489 21.2799L271.538 20.7199L261.396 38.3911Z" fill="#FF9900"/>
</g>
<defs>
<clipPath id="clip0">
<rect width="271.413" height="42" fill="white"/>
</clipPath>
</defs>
</svg>
