<?xml version="1.0" encoding="utf-8"?>
<!-- Generator: Adobe Illustrator 24.0.0, SVG Export Plug-In . SVG Version: 6.00 Build 0)  -->
<svg version="1.1" id="Layer_1" xmlns="http://www.w3.org/2000/svg" xmlns:xlink="http://www.w3.org/1999/xlink" x="0px" y="0px"
	 viewBox="0 0 229 42" style="enable-background:new 0 0 229 42;" xml:space="preserve">
<style type="text/css">
	.st0{fill-rule:evenodd;clip-rule:evenodd;fill:#F7981F;}
	.st1{fill:#FFFFFF;stroke:#FFFFFF;stroke-width:0.25;stroke-miterlimit:10;}
	.st2{fill-rule:evenodd;clip-rule:evenodd;fill:#FFFFFF;}
	.st3{fill:none;stroke:#FFFFFF;stroke-width:0.25;stroke-miterlimit:10;}
	.st4{fill:#FFFFFF;}
</style>
<g>
	<path class="st0" d="M53.7,4.4c-4.7,4.5-14.1,7.4-17.8,7.9C24.4,14.1,13.5,10,13.2,10c6.8,1.6,15.4,2.4,22.3,1.2
		c6.2-1.3,12-3.9,17.2-7.4"/>
	<path class="st1" d="M53.7,4.4c-4.7,4.5-14.1,7.4-17.8,7.9C24.4,14.1,13.5,10,13.2,10c6.8,1.6,15.4,2.4,22.3,1.2
		c6.2-1.3,12-3.9,17.2-7.4"/>
	<polygon class="st2" points="55.1,2.2 50.1,3.1 53,4.2 53.3,4.6 54.2,6.9 	"/>
	<polygon class="st3" points="55.1,2.2 50.1,3.1 53,4.2 53.3,4.6 54.2,6.9 	"/>
	<polygon class="st4" points="104.3,8.6 98.8,34.8 94.4,34.8 99.8,9.4 	"/>
	<path class="st4" d="M46.1,11.4l-4.7,0.9l-1.7,7.8c-0.5-0.9-1.9-2.2-4.7-2.2c-4.8,0-8.4,4.3-8.4,9.9c0,4.1,2.4,7.3,6.4,7.4
		c1.8,0,3.4-0.8,4.4-2.3c0,0.4-0.3,1.1-0.4,2h4c0,0,0.5-2.6,0.7-3.6L46.1,11.4z M34.3,31.3c-2,0-3.2-1.4-3.2-3.7
		c0-2.7,1.5-5.7,4.4-5.7c2,0,3.2,1.3,3.2,3.5C38.6,29.1,36.6,31.3,34.3,31.3"/>
	<path class="st4" d="M103.2,2.2c-1.3,0-2.4,1.1-2.4,2.4c0,1.1,0.8,1.9,1.9,1.9c0,0,0.1,0,0.1,0c1.3,0,2.5-1.1,2.5-2.4
		c0-1.1-0.8-1.9-1.9-1.9C103.3,2.2,103.2,2.2,103.2,2.2"/>
	<path class="st4" d="M79.2,18.7l-4.4,0.8l-0.2,1c-0.2-0.3-0.4-0.6-0.7-0.8c-1.1-1-2.6-1.5-4-1.4c-4.7,0-8.2,4.2-8.2,9.6
		c0,4,2.3,7.2,6.3,7.2c1.7,0,3.4-0.8,4.3-2.3c0,0.4-0.3,1.1-0.4,1.9h4.1L79.2,18.7z M69.1,31.3c-1.9,0-3.1-1.3-3.1-3.6
		c0-2.6,1.5-5.6,4.3-5.6c1.9,0,3.1,1.3,3.1,3.4C73.3,29.2,71.3,31.3,69.1,31.3"/>
	<path class="st4" d="M55.7,18.3c-1.7-0.1-3.3,0.6-4.4,2c0.1-0.5,2.2-10.2,2.2-10.2l-5.1,1l-5,23.8h4.9l2-9.3
		c0.4-1.8,1.5-3.3,3.4-3.3c1.2-0.1,2.3,0.8,2.4,2c0,0.1,0,0.3,0,0.4c0,0.3,0,0.6-0.1,1l-2,9.3h4.4l2.1-9.8c0.1-0.6,0.2-1.1,0.2-1.7
		c0.2-2.6-1.7-4.9-4.3-5.1C56.2,18.2,55.9,18.2,55.7,18.3"/>
	<path class="st4" d="M94.6,23.4c0.2-2.6-1.7-4.9-4.3-5.1c-0.2,0-0.4,0-0.7,0c-1.8-0.1-3.5,0.7-4.6,2.1c0.1-0.6,0.6-2.7,0.7-3.1
		l-4.5,0.9c0,0-0.5,2.6-0.7,3.2l-2.8,13.4h4.3l2-9.3c0.4-1.8,1.5-3.3,3.4-3.3c1.2-0.1,2.3,0.7,2.5,2c0,0.1,0,0.3,0,0.4
		c0,0.3,0,0.6-0.1,1l-2,9.3h4.4l2.1-9.8C94.6,24.5,94.6,23.9,94.6,23.4"/>
	<path class="st2" d="M10.9,14.6c-0.2-0.6-0.4-1.1-0.5-1.8c-0.1-0.2,0-0.4,0.1-0.6c0.5-0.5,1.1-0.7,1.8-0.8c0.9-0.1,1.9,0,2.7,0.3
		l0.2,0.1c0.7,0.4,0.8,0.6,0.6,1.3c-0.1,0.3-0.1,0.5-0.2,0.8c-0.1,0.3-0.2,0.5-0.2,0.8c0.2-0.3,0.4-0.6,0.6-0.9
		c0.2-0.3,0.3-0.6,0.4-0.9c0.5,0.2,1,0.4,1.5,0.5c0.3,0.1,0.5,0.3,0.3,0.6c-0.2,0.4-0.5,0.8-0.8,1.2c-0.5,0.7-1.1,1.3-1.7,2
		c-0.8-0.5-1.7-0.7-2.7-0.7c-1,0-1.9,0.3-2.7,0.7l-2.1-2.7c0-0.1-0.1-0.1-0.1-0.2c-0.4-0.8-0.2-0.8,0.4-1c0.5-0.1,1-0.3,1.4-0.5
		L10.9,14.6L10.9,14.6"/>
	<path class="st2" d="M16.1,18.5c0,0.3-0.3,0.4-0.6,0.3c-0.4-0.2-0.9-0.4-1.4-0.6c-1.1-0.3-2.3-0.1-3.3,0.5c-0.1,0-0.2,0.1-0.3,0.1
		c-0.1,0-0.3,0-0.4,0C10,18.7,10,18.5,10,18.4c0.1-0.2,0.2-0.3,0.3-0.4c1.5-1.2,3.6-1.2,5.2-0.1C15.8,18,16,18.3,16.1,18.5"/>
	<path class="st4" d="M21.3,27.2c-0.6-2-1.7-3.9-3.2-5.5c-0.9-1.1-1.9-1.9-3.1-2.6c-0.7-0.4-1.5-0.6-2.4-0.5
		c-0.9,0.1-1.8,0.5-2.6,1.1c-1.8,1.4-3.3,3.2-4.4,5.2C5,26.1,4.5,27.5,4.4,29c-0.1,1.2,0.3,2.5,1,3.4c1,1.2,2.3,2,3.7,2.4l0.4,0.1
		L9.9,35c-0.8-0.4-1.5-0.9-2.1-1.5c-0.6-0.6-1.1-1.4-1.2-2.2c0.7,1.3,1.9,2.3,3.2,2.9c1.2,0.7,2.6,1,4,0.8c2-0.3,3.9-1.3,5.2-2.9
		c0.2-0.3,0.4-0.6,0.6-0.8h0.1c-0.2,0.4-0.4,0.8-0.6,1.2c-0.7,1.1-1.7,1.9-2.8,2.4c0,0,0,0,0,0.1c0.6-0.2,1.1-0.4,1.7-0.6
		c1.3-0.5,2.5-1.5,3.2-2.7C21.7,30.3,21.8,28.7,21.3,27.2z M16.7,28.5c0,0.1-0.1,0.3-0.3,0.3h-2.1v2.1c0,0.1-0.1,0.3-0.3,0.3h-1.6
		c-0.1,0-0.3-0.1-0.3-0.3c0,0,0,0,0,0v-2.1h-2.1c-0.1,0-0.3-0.1-0.3-0.3v-1.6c0-0.1,0.1-0.3,0.3-0.3h2.1v-2.1c0-0.1,0.1-0.3,0.3-0.3
		c0,0,0,0,0,0h1.6c0.1,0,0.3,0.1,0.3,0.3v2.1h2.1c0.1,0,0.3,0.1,0.3,0.3c0,0,0,0,0,0L16.7,28.5z"/>
	<path class="st4" d="M111.5,21.1l2.2-0.4l-0.5,2l0,0c1-1.5,2.7-2.4,4.5-2.3c3.4,0,5.4,2.3,5.4,5.6c0,4.1-2.8,8.7-7.6,8.7
		c-1.7,0-3.7-0.6-4.2-2.4l0,0l-1.5,7.3h-2.2L111.5,21.1L111.5,21.1z M117.4,22.3c-3.4,0-5.3,3.9-5.3,6.8c-0.2,1.8,1.2,3.4,2.9,3.5
		c0.2,0,0.3,0,0.5,0c3.6,0,5.4-3.7,5.4-6.7C121,23.7,119.9,22.3,117.4,22.3"/>
	<path class="st4" d="M128.4,15.9l2.3-0.4l-1.6,7.2v0.1c1.2-1.5,3-2.4,4.9-2.4c2.6,0,3.8,1.1,3.8,3.5c0,0.9-0.2,1.8-0.4,2.7
		l-1.7,7.8h-2.3l1.7-8c0.2-0.7,0.3-1.4,0.3-2.1c0-1.3-1-1.9-2.4-1.9c-1.3,0-2.5,0.6-3.4,1.6c-0.8,0.8-1.3,1.8-1.5,2.9l-1.6,7.5h-2.3
		l3.9-18.3L128.4,15.9z"/>
	<path class="st4" d="M140.7,24.8c0.4-3,3-4.4,5.9-4.4c2.6,0,5,0.7,5,3.4c-0.1,0.8-0.2,1.7-0.4,2.5l-0.9,3.7c-0.2,0.6-0.3,1.3-0.4,2
		c0,0.6,0.3,0.8,0.7,0.8c0.2,0,0.5-0.1,0.7-0.2l-0.3,1.7c-0.4,0.2-0.9,0.3-1.4,0.3c-0.9,0.1-1.7-0.5-1.8-1.4c0-0.2,0-0.4,0-0.6
		l-0.1-0.1c-1.1,1.4-2.8,2.2-4.6,2c-2.3,0-4.2-1.1-4.2-3.9c0-4,3.9-4.2,6.9-4.5c2.4-0.2,3.4-0.3,3.4-2.2c0-1.5-1.6-1.8-2.7-1.8
		c-1.7,0-3.4,0.7-3.7,2.5L140.7,24.8z M143.7,32.6c1.5,0.1,3-0.6,3.8-1.8c0.6-1.1,1-2.3,1.1-3.5l0,0c-1.4,0.6-2.9,0.9-4.4,0.9
		c-1.6,0.2-3,0.7-3,2.5C141.2,32,142.4,32.6,143.7,32.6"/>
	<path class="st4" d="M155.6,21.1l2.2-0.4l-0.7,2.9l0,0c0.9-1.9,2.8-3.2,5-3.2c0.3,0,0.5,0,0.8,0l-0.5,2.4c-0.2,0-0.4,0-0.7,0
		c-0.5,0-0.9,0-1.4,0.1c-1.2,0.3-2.2,1.1-2.9,2.2c-0.6,1-1,2.1-1.1,3.2l-1.2,6.1h-2.3L155.6,21.1L155.6,21.1z"/>
	<path class="st4" d="M164.6,21.1l2.2-0.4l-0.5,2.1l0,0c1.1-1.5,2.9-2.3,4.8-2.4c1.6-0.2,3.1,0.9,3.4,2.5c1.1-1.5,2.8-2.4,4.7-2.5
		c1.9,0,3.8,0.8,3.8,3.1c0,0.9-0.1,1.9-0.4,2.8l-1.7,8.2h-2.3l1.9-8.7c0.1-0.5,0.2-1,0.2-1.5c0-1.1-1-1.9-2-1.8c0,0-0.1,0-0.1,0
		c-1.4,0.1-2.6,0.8-3.4,1.9c-0.7,0.9-1.1,2-1.2,3.1l-1.5,7h-2.3l1.6-7.8c0.2-0.8,0.3-1.6,0.4-2.4c0.1-0.9-0.6-1.7-1.6-1.8
		c-0.1,0-0.2,0-0.3,0c-1.3,0.1-2.5,0.7-3.4,1.7c-0.8,0.8-1.3,1.9-1.5,3.1l-1.5,7.2h-2.3l2.8-13.2L164.6,21.1z"/>
	<path class="st4" d="M185.8,24.8c0.4-3,3-4.4,5.9-4.4c2.6,0,5,0.7,5,3.4c-0.1,0.8-0.2,1.7-0.4,2.5l-0.9,3.7c-0.2,0.6-0.3,1.3-0.4,2
		c0,0.6,0.3,0.8,0.7,0.8c0.2,0,0.5-0.1,0.7-0.2l-0.4,1.7c-0.4,0.2-0.9,0.3-1.4,0.3c-0.9,0.1-1.7-0.5-1.8-1.3c0-0.2,0-0.4,0-0.6
		l-0.1-0.1c-1.1,1.4-2.8,2.2-4.6,2c-2.3,0-4.2-1.1-4.2-3.9c0-4,3.9-4.2,6.9-4.5c2.4-0.2,3.4-0.3,3.4-2.2c0-1.5-1.6-1.8-2.7-1.8
		c-1.7,0-3.4,0.7-3.7,2.5L185.8,24.8z M188.9,32.6c1.5,0.1,3-0.6,3.8-1.8c0.6-1.1,1-2.3,1.1-3.5h-0.1c-1.4,0.6-2.9,0.9-4.4,0.9
		c-1.6,0.2-3,0.7-3,2.5C186.4,32,187.5,32.6,188.9,32.6"/>
	<path class="st4" d="M209.1,25c0.1-1.4-1.1-2.6-2.5-2.7c-0.1,0-0.3,0-0.4,0c-3.4,0-5.3,3.4-5.3,6.4c0,2.1,0.9,3.9,3.4,3.9
		c1.8,0,3.4-1.1,4-2.8h2.3c-0.6,2.9-3.3,4.9-6.2,4.8c-3.7,0-5.6-2.2-5.6-5.9c0-4.3,2.7-8.4,7.6-8.4c3.1,0,5,1.5,5.1,4.6H209.1z"/>
	<path class="st4" d="M216.6,36.6c-1.1,1.8-2.1,3.2-4.4,3.2c-0.5,0-1.1-0.1-1.6-0.3l0.4-1.8c0.4,0.2,0.8,0.3,1.3,0.4
		c0.9,0,1.8-0.6,2.1-1.5l1.4-2.3l-2.3-13.1v-0.1l2.3-0.4l1.6,10.9l0,0l5.4-10.3v-0.1l2.7-0.5L216.6,36.6z"/>
</g>
</svg>
