<svg width="265" height="51" viewBox="0 0 265 51" fill="none" xmlns="http://www.w3.org/2000/svg">
<g clip-path="url(#clip0)">
<path fill-rule="evenodd" clip-rule="evenodd" d="M75.1543 3.95633C68.1267 10.696 53.7834 15.0738 48.1958 15.9379C30.7419 18.5877 14.2672 12.5393 13.8064 12.4241C24.1175 14.901 37.1935 16.1683 47.6198 14.325C55.2234 13.0001 66.1105 8.39181 73.6566 3.03467" fill="white"/>
<path d="M75.1543 3.95633C68.1267 10.696 53.7834 15.0738 48.1958 15.9379C30.7419 18.5877 14.2672 12.5393 13.8064 12.4241C24.1175 14.901 37.1935 16.1683 47.6198 14.325C55.2234 13.0001 66.1105 8.39181 73.6566 3.03467" stroke="white" stroke-width="0.25" stroke-miterlimit="10"/>
<path fill-rule="evenodd" clip-rule="evenodd" d="M77.2858 0.615234L69.6245 1.99772L74.0024 3.72583L74.5208 4.35947L75.7881 7.81569L77.2858 0.615234Z" fill="white" stroke="white" stroke-width="0.25" stroke-miterlimit="10"/>
<path d="M151.652 10.2927L143.242 50.0393H136.675L144.855 11.56L151.652 10.2927Z" fill="white"/>
<path d="M63.6337 14.6707L56.5485 15.9955L54.0139 27.7467C53.2075 26.3066 51.1337 24.5209 46.9287 24.5209C39.7282 24.5209 34.1982 30.9725 34.1982 39.4402C34.1982 45.6614 37.8273 50.5578 43.9333 50.5578C47.3319 50.5578 49.4632 48.772 50.6729 47.0439C50.6153 47.62 50.3273 48.8296 50.0393 50.0969H56.1452C56.1452 50.0969 56.8941 46.1799 57.2397 44.6246L63.6337 14.6707ZM45.7766 44.6822C42.7812 44.6822 40.8803 42.6084 40.8803 39.1522C40.8803 35.0624 43.1844 30.5117 47.5047 30.5117C50.5001 30.5117 52.2858 32.5278 52.2858 35.8688C52.2282 41.3988 49.1752 44.6822 45.7766 44.6822Z" fill="white"/>
<path d="M149.982 0.615234C147.965 0.615234 146.295 2.28574 146.295 4.24427C146.295 5.91477 147.562 7.18205 149.29 7.18205C151.191 7.18205 153.035 5.68436 153.035 3.49542C153.035 1.94012 151.825 0.615234 149.982 0.615234Z" fill="white"/>
<path d="M113.634 25.6727L106.952 26.94L106.606 28.4377C106.376 28.0345 106.088 27.5736 105.627 27.1704C104.532 26.1335 102.631 25.0967 99.5208 25.0967C92.4355 25.0967 87.0784 31.3755 87.0784 39.6704C87.0784 45.6612 90.5922 50.5575 96.583 50.5575C99.8664 50.5575 101.998 48.8294 103.15 47.1013C103.092 47.6773 102.689 48.887 102.516 50.0391H108.737L113.634 25.6727ZM98.3687 44.7971C95.4309 44.7971 93.5876 42.781 93.5876 39.3824C93.5876 35.4077 95.8341 30.9723 100.039 30.9723C102.977 30.9723 104.705 32.9884 104.705 36.2142C104.705 41.5713 101.767 44.7971 98.3687 44.7971Z" fill="white"/>
<path d="M78.0923 24.9815C75.5577 24.9815 73.0808 25.7303 71.4679 27.9769C71.5831 27.1704 74.6937 12.5967 74.6937 12.5967L66.9172 14.0368L59.3711 50.0391H60.2351H66.3411H66.802L69.9126 35.9262C70.4886 33.2188 72.2167 30.857 75.0393 30.857C77.4587 30.857 78.7835 32.2971 78.7835 34.4861C78.7835 34.9469 78.7259 35.4077 78.6683 35.9262L75.5577 50.0391H82.1246L85.2928 35.2349C85.5232 34.3709 85.5808 33.5068 85.5808 32.6428C85.6384 28.2649 82.9886 24.9815 78.0923 24.9815Z" fill="white"/>
<path d="M137.021 32.7005C137.021 28.265 134.313 24.9816 129.475 24.9816C126.94 24.9816 124.233 25.9032 122.62 28.0922C122.735 27.1129 123.541 24.0023 123.714 23.4839L116.917 24.924C116.917 24.924 116.111 28.8986 115.88 29.8203L111.617 50.0392H118.184L121.295 35.9263C121.871 33.2189 123.599 30.8572 126.422 30.8572C128.841 30.8572 130.166 32.2972 130.166 34.4862C130.166 34.947 130.108 35.4078 129.993 35.9263L126.94 50.0392H133.564L136.733 35.235C136.905 34.371 137.021 33.5645 137.021 32.7005Z" fill="white"/>
<path fill-rule="evenodd" clip-rule="evenodd" d="M10.3504 19.3939C10.0623 18.5299 9.83193 17.6082 9.48631 16.7442C9.3711 16.3985 9.4287 16.1681 9.71672 15.8801C10.4656 15.1313 11.3872 14.7856 12.4241 14.6704C13.8066 14.4976 15.1891 14.5552 16.514 15.1313C16.6292 15.1889 16.7444 15.2465 16.8596 15.3041C17.8964 15.8225 18.0693 16.1681 17.7812 17.3202C17.666 17.7234 17.5508 18.0691 17.4356 18.4723C17.3204 18.8755 17.1476 19.2211 17.0324 19.6244C17.3204 19.1635 17.666 18.7603 17.8964 18.2995C18.1845 17.8386 18.4149 17.3202 18.5877 16.9746C19.3941 17.2626 20.143 17.5506 20.8918 17.781C21.4103 17.9538 21.5831 18.1843 21.3527 18.7027C21.007 19.3363 20.6614 20.0276 20.2006 20.546C19.3365 21.5829 18.4725 22.5621 17.5508 23.5414C16.2259 22.7926 14.9011 22.4469 13.461 22.4469C12.0209 22.4469 10.696 22.7926 9.3135 23.5414C8.27663 22.2165 7.18216 20.834 6.14529 19.5091C6.08769 19.3939 6.03009 19.2787 5.97248 19.1635C5.33884 17.8962 5.62686 17.8386 6.60612 17.6082C7.35497 17.4354 8.04622 17.0898 8.79506 16.8594C9.25589 17.6658 9.77433 18.5875 10.2928 19.4515L10.3504 19.3939Z" fill="white"/>
<path fill-rule="evenodd" clip-rule="evenodd" d="M18.1267 25.3847C18.1267 25.8455 17.7234 26.0183 17.2626 25.7879C16.5714 25.4423 15.8801 25.0966 15.1313 24.8662C13.4032 24.4054 11.7327 24.6934 10.1774 25.5575C10.0621 25.6151 9.88934 25.7879 9.77413 25.7879C9.54372 25.7879 9.2557 25.8455 9.14049 25.7303C9.02528 25.6151 8.96768 25.2695 9.02528 25.0966C9.08289 24.8662 9.2557 24.6934 9.48611 24.5206C11.7327 22.7925 15.0161 22.6773 17.3778 24.2902C17.781 24.6934 18.1267 25.0966 18.1267 25.3847Z" fill="white"/>
<path fill-rule="evenodd" clip-rule="evenodd" d="M26.0185 38.5184C25.0968 35.4078 23.3687 32.7004 21.2373 30.2234C19.9125 28.6681 18.4148 27.2281 16.5714 26.2488C15.477 25.6152 14.2673 25.3271 13 25.4423C11.5599 25.6151 10.2926 26.1912 9.14057 27.0552C6.31799 29.1866 4.18666 31.8363 2.51615 34.8893C1.42168 36.8479 0.61523 38.9216 0.500022 41.1681C0.384815 43.0691 0.845644 44.8548 2.05532 46.3525C3.49541 48.1958 5.51154 49.2327 7.70048 49.9239C7.87329 49.9815 8.0461 50.0391 8.21892 50.0967C8.39173 50.1543 8.56454 50.1543 8.73735 50.2119C7.58528 49.5783 6.49081 48.8294 5.56915 47.9078C4.53228 46.8133 3.66822 45.258 3.72583 44.5668C4.8779 46.5829 6.54841 47.9654 8.56454 48.9446C10.4655 49.8663 12.424 50.5575 14.6129 50.2119C17.7235 49.6935 20.3733 48.311 22.447 45.8916C22.7926 45.4884 23.0807 45.0276 23.3687 44.6244C23.4263 44.6244 23.4263 44.682 23.4839 44.682C23.1959 45.258 22.9079 45.8916 22.5622 46.4677C21.5254 48.1382 20.0277 49.2903 18.2996 50.1543C18.2996 50.2119 18.3572 50.2119 18.3572 50.2695C19.2212 49.9815 20.0853 49.6935 20.8917 49.3479C22.9079 48.4838 24.636 47.2165 25.6728 45.258C26.8249 43.0691 26.7097 40.8225 26.0185 38.5184ZM19.0484 40.4769C19.0484 40.7073 18.8756 40.8801 18.6452 40.8801H15.477V43.9907C15.477 44.2211 15.3042 44.3939 15.0738 44.3939H12.6544C12.424 44.3939 12.2512 44.2211 12.2512 43.9907V40.8801H9.14057C8.91016 40.8801 8.73735 40.7073 8.73735 40.4769V38.0575C8.73735 37.8271 8.91016 37.6543 9.14057 37.6543H12.2512V34.4861C12.2512 34.2557 12.424 34.0829 12.6544 34.0829H15.0738C15.3042 34.0829 15.477 34.2557 15.477 34.4861V37.5967H18.5876C18.818 37.5967 18.9908 37.7695 18.9908 37.9999V40.4769H19.0484Z" fill="white"/>
<path d="M158.392 15.189H162.366L159.486 28.4378L159.601 28.553C161.848 25.6728 164.728 24.2327 168.242 24.1751C172.735 24.1175 174.981 26.3065 174.981 30.6268C174.924 31.8364 174.693 33.4493 174.29 35.5231L171.352 49.8088H167.378L170.431 35.235C170.776 33.9102 170.949 32.6429 171.007 31.3756C170.949 30.1659 170.546 29.3019 169.797 28.7258C168.991 28.1498 168.011 27.9194 166.802 27.9194C165.707 27.9194 164.613 28.2074 163.576 28.7258C162.539 29.3019 161.617 29.9931 160.811 30.7996C160.12 31.4332 159.601 32.1821 159.198 33.0461C158.795 33.9678 158.449 35.0046 158.161 35.9839L155.281 49.8088H151.191L158.392 15.189Z" fill="white"/>
<path d="M180.108 38.5184C179.993 39.2096 179.993 39.9585 179.993 40.7073C180.051 42.6658 180.684 44.1059 181.952 45.1428C183.161 46.2373 184.601 46.7557 186.272 46.7557C189.786 46.6981 192.09 45.1428 193.242 41.9746H197.216C196.583 44.7396 195.258 46.8133 193.299 48.1958C191.341 49.6359 188.979 50.3847 186.272 50.3847C184.313 50.3271 182.643 50.0391 181.375 49.3479C180.051 48.7142 178.956 47.9078 178.207 46.9285C177.804 46.4677 177.516 45.8916 177.286 45.3732C176.998 44.8548 176.767 44.2787 176.594 43.7027C176.249 42.493 176.076 41.3986 176.076 40.3041C176.134 35.4078 177.343 31.4907 179.82 28.5529C182.24 25.6727 185.12 24.175 188.518 24.175C195.431 24.2903 198.829 27.9769 198.772 35.235C198.714 36.6174 198.599 37.7119 198.369 38.4608H180.108V38.5184ZM194.797 34.8317C194.97 32.9884 194.624 31.3179 193.76 29.9354C193.299 29.2442 192.666 28.7257 191.917 28.3801C191.168 27.9769 190.246 27.8041 189.094 27.8041C186.675 27.8617 184.832 28.4953 183.449 29.8202C182.067 31.1451 181.087 32.8732 180.454 34.8317H194.797Z" fill="white"/>
<path d="M201.134 32.2973C201.594 29.4748 202.862 27.401 204.763 26.0761C206.721 24.8089 208.968 24.1176 211.617 24.1176C214.037 24.06 216.168 24.5208 217.896 25.3849C218.703 25.8457 219.336 26.537 219.797 27.3434C220.258 28.1499 220.488 29.1867 220.488 30.5116C220.488 31.2029 220.431 31.9517 220.258 32.7582C220.085 33.6222 219.912 34.3711 219.74 35.1199L218.184 41.9172C218.069 42.378 217.954 42.954 217.839 43.6453C217.666 44.2789 217.551 44.9125 217.551 45.5462C217.608 46.583 217.954 47.1015 218.703 47.1015C219.164 47.1015 219.567 46.9863 219.97 46.7559L219.336 49.8089C218.587 50.1545 217.781 50.3849 216.917 50.3849C214.67 50.3273 213.576 49.1176 213.749 46.8135L213.634 46.6983C212.827 47.8503 211.79 48.772 210.523 49.348C209.256 49.9817 207.585 50.3273 205.569 50.3273C203.495 50.3273 201.767 49.7513 200.385 48.6568C198.945 47.5623 198.196 45.7766 198.196 43.242C198.253 41.3987 198.657 39.9586 199.405 38.9218C200.154 37.8849 201.134 37.0784 202.343 36.56C203.611 36.0416 204.935 35.696 206.318 35.4655C207.758 35.2351 209.14 35.1199 210.465 35.0047C212.597 34.8895 214.152 34.6015 215.131 34.0831C216.111 33.6222 216.571 32.5854 216.571 31.0301C216.514 29.7052 215.995 28.8411 214.958 28.3803C213.922 27.9771 212.827 27.7466 211.675 27.7466C210.12 27.7466 208.737 28.0923 207.47 28.7835C206.203 29.4748 205.396 30.6268 205.108 32.2973H201.134ZM202.17 43.242C202.228 44.3941 202.631 45.2582 203.553 45.8342C204.417 46.4102 205.396 46.6983 206.548 46.6983C209.659 46.6983 211.963 45.6038 213.346 43.4148C213.979 42.4356 214.44 41.3987 214.728 40.3042C214.958 39.2098 215.246 38.1153 215.477 36.9632H215.362C214.901 37.1936 214.44 37.4241 213.864 37.5393C213.288 37.7121 212.654 37.8849 211.963 38.0001C210.523 38.2305 209.083 38.4609 207.585 38.6337C206.145 38.8066 204.878 39.2098 203.841 39.8434C202.746 40.5347 202.17 41.6867 202.17 43.242Z" fill="white"/>
<path d="M227.689 15.189H231.663L224.636 49.7512H220.661L227.689 15.189Z" fill="white"/>
<path d="M239.037 24.7512H243.933L243.184 28.3802H238.346L235.35 43.0692C235.235 43.6452 235.235 44.1637 235.235 44.7397C235.235 45.3733 235.465 45.7766 236.041 46.0646C236.502 46.3526 237.021 46.4678 237.654 46.4678C238.461 46.4678 239.21 46.295 239.958 46.007L239.267 49.8088C238.346 49.9816 237.366 50.0968 236.445 50.0968C234.947 50.0968 233.68 49.8088 232.643 49.2328C231.548 48.7143 231.03 47.6199 230.972 46.0646C230.972 45.3733 231.03 44.6821 231.203 43.9908L234.371 28.4378H230.339L231.087 24.8088H235.177L236.675 17.4355H240.65L239.037 24.7512Z" fill="white"/>
<path d="M247.908 15.189H251.882L249.002 28.4378L249.117 28.553C251.364 25.6728 254.244 24.2327 257.758 24.1751C262.251 24.1175 264.498 26.3065 264.498 30.6268C264.44 31.8364 264.21 33.4493 263.806 35.5231L260.869 49.7512H256.894L259.947 35.1774C260.293 33.8526 260.465 32.5853 260.523 31.318C260.465 30.1083 260.062 29.2443 259.313 28.6682C258.507 28.0922 257.528 27.8618 256.318 27.8618C255.223 27.8618 254.129 28.1498 253.092 28.6682C252.055 29.2443 251.134 29.9355 250.327 30.742C249.636 31.3756 249.117 32.1244 248.714 32.9885C248.311 33.9102 247.965 34.947 247.677 35.9263L244.797 49.7512H240.707L247.908 15.189Z" fill="white"/>
</g>
<defs>
<clipPath id="clip0">
<rect width="263.998" height="50" fill="white" transform="translate(0.5 0.5)"/>
</clipPath>
</defs>
</svg>
